<?xml version="1.0" encoding="UTF-8"?><svg id="Layer_16" xmlns="http://www.w3.org/2000/svg" viewBox="0 0 1381.34 1032"><path d="M325.38,135.56H23.25c-6.65,0-12.05,5.4-12.05,12.05V908.85c0,6.65,5.39,12.05,12.05,12.05H325.38c6.65,0,12.05-5.4,12.05-12.05V147.61c0-6.66-5.39-12.05-12.05-12.05Z" style="fill:#6f6f6f;"/><path d="M667.67,135.56H365.54c-6.65,0-12.05,5.4-12.05,12.05V427.8c0,6.65,5.39,12.05,12.05,12.05h302.14c6.65,0,12.04-5.4,12.04-12.05V147.61c0-6.66-5.39-12.05-12.04-12.05Z" style="fill:#6f6f6f;"/><path d="M1010.96,135.56h-302.14c-6.65,0-12.04,5.4-12.04,12.05V427.8c0,6.65,5.39,12.05,12.04,12.05h302.14c6.65,0,12.05-5.4,12.05-12.05V147.61c0-6.66-5.39-12.05-12.05-12.05Z" style="fill:#6f6f6f;"/><path d="M667.67,455.92H365.54c-6.65,0-12.05,5.39-12.05,12.05v280.19c0,6.66,5.39,12.05,12.05,12.05h302.14c6.65,0,12.04-5.39,12.04-12.05V467.97c0-6.66-5.39-12.05-12.04-12.05Z" style="fill:#6f6f6f;"/><path d="M1009.96,455.92h-302.14c-6.65,0-12.04,5.39-12.04,12.05v280.19c0,6.66,5.39,12.05,12.04,12.05h302.14c6.65,0,12.05-5.39,12.05-12.05V467.97c0-6.66-5.39-12.05-12.05-12.05Z" style="fill:#6f6f6f;"/><path d="M496.03,776.28h-130.49c-6.65,0-12.05,5.39-12.05,12.05v120.08c0,6.66,5.39,12.05,12.05,12.05h130.49c6.65,0,12.04-5.39,12.04-12.05v-120.08c0-6.66-5.39-12.05-12.04-12.05Z" style="fill:#6f6f6f;"/><path d="M666.67,776.28h-130.49c-6.65,0-12.05,5.39-12.05,12.05v120.08c0,6.66,5.39,12.05,12.05,12.05h130.49c6.65,0,12.04-5.39,12.04-12.05v-120.08c0-6.66-5.39-12.05-12.04-12.05Z" style="fill:#6f6f6f;"/><path d="M837.31,776.28h-130.49c-6.65,0-12.05,5.39-12.05,12.05v120.08c0,6.66,5.39,12.05,12.05,12.05h130.49c6.65,0,12.04-5.39,12.04-12.05v-120.08c0-6.66-5.39-12.05-12.04-12.05Z" style="fill:#6f6f6f;"/><path d="M1007.96,776.28h-130.49c-6.65,0-12.05,5.39-12.05,12.05v120.08c0,6.66,5.39,12.05,12.05,12.05h130.49c6.65,0,12.05-5.39,12.05-12.05v-120.08c0-6.66-5.39-12.05-12.05-12.05Z" style="fill:#6f6f6f;"/><path d="M1352.25,135.56h-302.14c-6.65,0-12.05,5.4-12.05,12.05V908.85c0,6.65,5.39,12.05,12.05,12.05h302.14c6.65,0,12.05-5.4,12.05-12.05V147.61c0-6.66-5.39-12.05-12.05-12.05Z" style="fill:#6f6f6f;"/><path d="M126.64,94.38H27.27c-4.43,0-8.03,3.6-8.03,8.03v10.04c0,4.44,3.6,8.03,8.03,8.03H126.64c4.43,0,8.03-3.6,8.03-8.03v-10.04c0-4.44-3.6-8.03-8.03-8.03Z" style="fill:#6f6f6f;"/><path d="M250.1,94.38h-99.37c-4.43,0-8.03,3.6-8.03,8.03v10.04c0,4.44,3.6,8.03,8.03,8.03h99.37c4.44,0,8.03-3.6,8.03-8.03v-10.04c0-4.44-3.59-8.03-8.03-8.03Z" style="fill:#b1b1b1;"/><path d="M373.57,94.38h-99.37c-4.43,0-8.03,3.6-8.03,8.03v10.04c0,4.44,3.6,8.03,8.03,8.03h99.37c4.43,0,8.03-3.6,8.03-8.03v-10.04c0-4.44-3.59-8.03-8.03-8.03Z" style="fill:#6f6f6f;"/><path d="M497.03,94.38h-99.37c-4.43,0-8.03,3.6-8.03,8.03v10.04c0,4.44,3.6,8.03,8.03,8.03h99.37c4.43,0,8.03-3.6,8.03-8.03v-10.04c0-4.44-3.6-8.03-8.03-8.03Z" style="fill:#6f6f6f;"/><path d="M1352.25,101.41h-103.39c-3.33,0-6.02,2.7-6.02,6.03s2.7,6.03,6.02,6.03h103.39c3.33,0,6.02-2.7,6.02-6.03s-2.7-6.03-6.02-6.03Z" style="fill:#6f6f6f;"/><path d="M1371.34,4H5.34V74.8H1371.34V4Z" style="fill:#6f6f6f;"/></svg>