<?xml version="1.0" encoding="UTF-8"?><svg id="widget4" xmlns="http://www.w3.org/2000/svg" xmlns:xlink="http://www.w3.org/1999/xlink" viewBox="0 0 1381.34 1032"><defs><clipPath id="clippath"><rect x="365.34" y="781" width="134" height="34" style="fill:none;"/></clipPath></defs><rect x="356.34" y="780" width="152" height="143" rx="7" ry="7" style="fill:#131316;"/><g style="clip-path:url(#clippath);"><g><path d="M370.67,803.25c2.28,0,3.91-1.32,4.17-3.29v-.05h-1.73v.03c-.26,1.09-1.19,1.78-2.44,1.78-1.68,0-2.73-1.4-2.73-3.65h0c0-2.26,1.05-3.66,2.72-3.66,1.24,0,2.19,.77,2.44,1.94v.03h1.74v-.05c-.23-2.02-1.94-3.44-4.18-3.44-2.8,0-4.53,1.97-4.53,5.17h0c0,3.2,1.74,5.18,4.53,5.18Zm6.14-.25h1.76v-3.26h2.17c2,0,3.36-1.33,3.36-3.3h0c0-1.99-1.35-3.31-3.36-3.31h-3.94v9.86Zm3.51-8.42c1.26,0,2,.68,2,1.86h0c0,1.2-.74,1.88-2,1.88h-1.74v-3.74h1.74Zm5.74,8.42h1.76v-3.71h1.96l1.93,3.71h2.02l-2.15-3.98c1.17-.42,1.86-1.5,1.86-2.81h0c0-1.89-1.27-3.08-3.39-3.08h-3.98v9.86Zm1.76-5.07v-3.37h2c1.12,0,1.8,.64,1.8,1.67h0c0,1.07-.65,1.7-1.76,1.7h-2.04Z" style="fill:#a2a4ae;"/><circle cx="480.34" cy="792" r="4" style="fill:none; stroke:#f09436; stroke-width:2px;"/><circle cx="486.34" cy="805" r="4" style="fill:none; stroke:#f09436; stroke-width:2px;"/><path d="M485.34,792h8" style="fill:none; stroke:#f09436; stroke-linecap:round; stroke-width:4px;"/><path d="M491.34,805h2" style="fill:none; stroke:#f09436; stroke-linecap:round; stroke-width:4px;"/><path d="M473.34,805h8" style="fill:none; stroke:#f09436; stroke-linecap:round; stroke-width:4px;"/><path d="M473.34,792h2" style="fill:none; stroke:#f09436; stroke-linecap:round; stroke-width:4px;"/></g></g><rect x="379.34" y="803" width="106" height="106" rx="50" ry="50" style="fill:#2f3136;"/><path d="M443.33,844.35c1.74,1.96,2.71,4.48,2.75,7.11l-.17,4.06c.04,2.63,1.02,5.15,2.75,7.11l7.45,7.52c.38,.39,.69,.85,.9,1.35,.21,.51,.32,1.05,.32,1.6s-.11,1.09-.32,1.6c-.21,.51-.51,.97-.9,1.35l-6.66,6.72c-.77,.78-1.82,1.22-2.92,1.22s-2.14-.44-2.92-1.22l-7.46-7.53c-1.95-1.76-4.44-2.78-7.05-2.88l-3.7,.05c-2.61-.1-5.1-1.12-7.05-2.88l-6.23-6.25c-1.61-1.62-1.8-4.08-.43-5.47,.6-.66,1.43-1.07,2.32-1.11,.89-.05,1.76,.26,2.42,.86l-.69-.7-9.11-9.19c-1.58-1.65-1.76-4.11-.38-5.5,1.38-1.39,3.81-1.19,5.42,.43l9.11,9.18-11.5-11.6c-1.6-1.62-1.8-4.08-.43-5.46,1.37-1.38,3.81-1.19,5.42,.42l11.49,11.6-9.22-9.31c-1.61-1.62-1.8-4.08-.43-5.47,1.37-1.39,3.81-1.19,5.42,.43l9.22,9.31-4.29-4.33c-1.6-1.62-1.8-4.08-.42-5.46,1.38-1.38,3.81-1.2,5.41,.42l11.85,12Z" style="fill:#2f3136;"/><path d="M443.33,844.35c1.74,1.96,2.71,4.48,2.75,7.11l-.17,4.06c.04,2.63,1.02,5.15,2.75,7.11l7.45,7.52c.38,.39,.69,.85,.9,1.35,.21,.51,.32,1.05,.32,1.6s-.11,1.09-.32,1.6c-.21,.51-.51,.97-.9,1.35l-6.66,6.72c-.77,.78-1.82,1.22-2.92,1.22s-2.14-.44-2.92-1.22l-7.46-7.53c-1.95-1.76-4.44-2.78-7.05-2.88l-3.7,.05c-2.61-.1-5.1-1.12-7.05-2.88l-6.23-6.25c-1.61-1.62-1.8-4.08-.43-5.47,.6-.66,1.43-1.07,2.32-1.11,.89-.05,1.76,.26,2.42,.86l-.69-.7-9.11-9.19c-1.58-1.65-1.76-4.11-.38-5.5,1.38-1.39,3.81-1.19,5.42,.43l9.11,9.18-11.5-11.6c-1.6-1.62-1.8-4.08-.43-5.46,1.37-1.38,3.81-1.19,5.42,.42l11.49,11.6-9.22-9.31c-1.61-1.62-1.8-4.08-.43-5.47,1.37-1.39,3.81-1.19,5.42,.43l9.22,9.31-4.29-4.33c-1.6-1.62-1.8-4.08-.42-5.46,1.38-1.38,3.81-1.2,5.41,.42l11.85,12Z" style="fill:none; stroke:#f09436; stroke-miterlimit:10; stroke-width:3px;"/><path d="M446,869.72c-1.96,1.77-4.48,2.76-7.11,2.8l-4.07-.16c-2.63,.04-5.16,1.03-7.12,2.81l-7.53,7.6c-.78,.79-1.84,1.23-2.95,1.23s-2.17-.44-2.95-1.23l-6.73-6.8c-.78-.79-1.22-1.86-1.22-2.97s.44-2.18,1.22-2.97l7.53-7.6c1.76-1.98,2.79-4.52,2.89-7.18l-.06-3.77c.11-2.66,1.13-5.2,2.89-7.18l6.26-6.31c1.62-1.63,4.08-1.83,5.47-.43,.66,.61,1.06,1.46,1.11,2.36,.05,.9-.26,1.79-.85,2.46l.7-.7,9.2-9.3c1.62-1.63,4.08-1.83,5.47-.43,1.39,1.4,1.19,3.88-.43,5.51l-9.2,9.28,11.61-11.71c1.63-1.63,4.09-1.83,5.47-.43,1.38,1.4,1.2,3.89-.43,5.52l-11.61,11.71,9.32-9.4c1.62-1.63,4.08-1.83,5.46-.43,1.38,1.4,1.2,3.88-.42,5.52l-9.32,9.4,4.33-4.36c1.63-1.64,4.09-1.84,5.47-.43,1.38,1.4,1.19,3.88-.43,5.52l-11.98,12.1Z" style="fill:#2f3136;"/><path d="M446,869.72c-1.96,1.77-4.48,2.76-7.11,2.8l-4.07-.16c-2.63,.04-5.16,1.03-7.12,2.81l-7.53,7.6c-.78,.79-1.84,1.23-2.95,1.23s-2.17-.44-2.95-1.23l-6.73-6.8c-.78-.79-1.22-1.86-1.22-2.97s.44-2.18,1.22-2.97l7.53-7.6c1.76-1.98,2.79-4.52,2.89-7.18l-.06-3.77c.11-2.66,1.13-5.2,2.89-7.18l6.26-6.31c1.62-1.63,4.08-1.83,5.47-.43,.66,.61,1.06,1.46,1.11,2.36,.05,.9-.26,1.79-.85,2.46l.7-.7,9.2-9.3c1.62-1.63,4.08-1.83,5.47-.43,1.39,1.4,1.19,3.88-.43,5.51l-9.2,9.28,11.61-11.71c1.63-1.63,4.09-1.83,5.47-.43,1.38,1.4,1.2,3.89-.43,5.52l-11.61,11.71,9.32-9.4c1.62-1.63,4.08-1.83,5.46-.43,1.38,1.4,1.2,3.88-.42,5.52l-9.32,9.4,4.33-4.36c1.63-1.64,4.09-1.84,5.47-.43,1.38,1.4,1.19,3.88-.43,5.52l-11.98,12.1Z" style="fill:none; stroke:#f09436; stroke-miterlimit:10; stroke-width:3px;"/><rect x="356.34" y="780" width="152" height="143" rx="7" ry="7" style="fill:none; stroke:#2f3136; stroke-width:2px;"/></svg>