<?xml version="1.0" encoding="UTF-8"?><svg id="widget3" xmlns="http://www.w3.org/2000/svg" viewBox="0 0 1381.34 1032"><rect x="526.34" y="780" width="152" height="143" rx="7" ry="7" style="fill:#131316;"/><path d="M536.55,802h1.76v-3.26h2.17c2,0,3.36-1.33,3.36-3.3h0c0-1.99-1.35-3.31-3.36-3.31h-3.94v9.86Zm3.51-8.42c1.26,0,2,.68,2,1.86h0c0,1.2-.74,1.88-2,1.88h-1.74v-3.74h1.74Zm5.73,8.42h6.39v-1.48h-4.62v-2.82h4.37v-1.4h-4.37v-2.67h4.62v-1.48h-6.39v9.86Zm7.84,0h1.85l.82-2.55h3.65l.83,2.55h1.85l-3.5-9.86h-1.99l-3.5,9.86Zm4.44-8.03h.12l1.33,4.12h-2.77l1.33-4.12Z" style="fill:#a2a4ae;"/><rect x="549.34" y="803" width="106" height="106" rx="50" ry="50" style="fill:#2f3136;"/><path d="M576.34,854.84h4.2c1.25,.07,2.43,.62,3.28,1.54l2.44,2.92c.7,.85,1.47,.66,1.7-.42l2.16-10.04c.23-1.08,.59-1.08,.8,0l6.24,32c.21,1.08,.46,1.06,.56,0l4.64-50c.1-1.09,.41-1.12,.7-.06l6,22.14c.17,.53,.5,1,.94,1.34,.44,.34,.98,.54,1.54,.58h4c.61,.03,1.2,.2,1.74,.49,.54,.29,1.01,.69,1.37,1.17l1.78,2.68c.1,.21,.26,.38,.46,.5,.2,.12,.42,.19,.65,.19s.46-.06,.65-.19c.2-.12,.35-.29,.46-.5l1.78-2.68c.37-.49,.83-.89,1.37-1.17,.54-.29,1.13-.45,1.74-.49" style="fill:none; stroke:#f09436; stroke-linecap:round; stroke-linejoin:round; stroke-width:3px;"/><rect x="526.34" y="780" width="152" height="143" rx="7" ry="7" style="fill:none; stroke:#2f3136; stroke-width:2px;"/></svg>