<?xml version="1.0" encoding="UTF-8"?><svg id="widget2" xmlns="http://www.w3.org/2000/svg" xmlns:xlink="http://www.w3.org/1999/xlink" viewBox="0 0 1381.34 1032"><defs><clipPath id="clippath"><rect x="705.34" y="789" width="134" height="34" style="fill:none;"/></clipPath><clipPath id="clippath-1"><rect x="705.34" y="831" width="134" height="35" style="fill:none;"/></clipPath><clipPath id="clippath-2"><rect x="705.34" y="874" width="134" height="40" style="fill:none;"/></clipPath></defs><rect x="696.34" y="780" width="152" height="143" rx="7" ry="7" style="fill:#202020;"/><g style="clip-path:url(#clippath);"><path d="M709.01,802h1.76v-8.38h3.04v-1.48h-7.84v1.48h3.04v8.38Zm8.35,.15c2.03,0,3.03-1.17,3.27-2.13l.02-.06h-1.62l-.02,.05c-.16,.34-.69,.81-1.61,.81-1.16,0-1.88-.78-1.9-2.12h5.22v-.56c0-2.26-1.31-3.75-3.44-3.75s-3.49,1.54-3.49,3.89h0c0,2.39,1.35,3.88,3.57,3.88Zm-.06-6.43c.95,0,1.64,.61,1.76,1.83h-3.55c.13-1.19,.84-1.83,1.79-1.83Zm5.12,6.28h1.7v-4.55c0-.93,.62-1.64,1.46-1.64s1.35,.51,1.35,1.34v4.85h1.7v-4.67c0-.85,.57-1.52,1.46-1.52s1.35,.49,1.35,1.46v4.72h1.7v-5.14c0-1.55-.9-2.47-2.41-2.47-1.04,0-1.9,.53-2.26,1.35h-.12c-.32-.83-1.06-1.35-2.07-1.35s-1.73,.47-2.05,1.3h-.12v-1.16h-1.7v7.47Zm12.74,2.48h1.7v-3.67h.12c.39,.81,1.24,1.31,2.27,1.31,1.89,0,3.07-1.47,3.07-3.85h0c0-2.38-1.2-3.87-3.07-3.87-1.05,0-1.86,.48-2.27,1.29h-.12v-1.17h-1.7v9.95Zm3.55-3.79c-1.15,0-1.87-.92-1.87-2.42h0c0-1.51,.72-2.43,1.87-2.43s1.87,.92,1.87,2.42h0c0,1.51-.7,2.43-1.87,2.43Zm8.52,1.46c2.03,0,3.03-1.17,3.27-2.13l.02-.06h-1.62l-.02,.05c-.16,.34-.69,.81-1.61,.81-1.15,0-1.88-.78-1.9-2.12h5.22v-.56c0-2.26-1.31-3.75-3.44-3.75s-3.49,1.54-3.49,3.89h0c0,2.39,1.35,3.88,3.57,3.88Zm-.06-6.43c.95,0,1.64,.61,1.76,1.83h-3.55c.13-1.19,.84-1.83,1.79-1.83Zm5.12,6.28h1.7v-4.34c0-1.07,.74-1.74,1.88-1.74,.29,0,.57,.04,.85,.1v-1.53c-.16-.05-.43-.08-.69-.08-.98,0-1.67,.47-1.92,1.27h-.12v-1.15h-1.7v7.47Zm7.77,.12c.98,0,1.78-.42,2.19-1.15h.12v1.03h1.68v-5.11c0-1.58-1.08-2.51-3-2.51-1.78,0-2.98,.83-3.14,2.09v.06s1.6,0,1.6,0v-.03c.18-.49,.68-.77,1.46-.77,.92,0,1.4,.41,1.4,1.16v.64l-1.92,.12c-1.82,.11-2.84,.89-2.84,2.22h0c0,1.37,1.03,2.25,2.45,2.25Zm-.77-2.32h0c0-.63,.45-.98,1.39-1.04l1.68-.11v.6c0,.89-.76,1.56-1.78,1.56-.75,0-1.29-.38-1.29-1.01Zm9.74,2.23c.33,0,.64-.03,.89-.08v-1.31c-.21,.02-.34,.03-.57,.03-.71,0-1.01-.32-1.01-1.06v-3.77h1.58v-1.32h-1.58v-1.83h-1.73v1.83h-1.16v1.32h1.16v4.17c0,1.44,.7,2.02,2.42,2.02Zm5.06,.12c1.08,0,1.84-.49,2.19-1.29h.12v1.14h1.7v-7.47h-1.7v4.35c0,1.12-.59,1.83-1.69,1.83-1.03,0-1.46-.59-1.46-1.74v-4.44h-1.7v4.83c0,1.78,.86,2.79,2.54,2.79Zm6.08-.15h1.7v-4.34c0-1.07,.74-1.74,1.88-1.74,.29,0,.57,.04,.85,.1v-1.53c-.16-.05-.43-.08-.69-.08-.98,0-1.67,.47-1.92,1.27h-.12v-1.15h-1.7v7.47Zm8.83,.15c2.03,0,3.03-1.17,3.27-2.13l.02-.06h-1.62l-.02,.05c-.16,.34-.69,.81-1.61,.81-1.16,0-1.88-.78-1.9-2.12h5.22v-.56c0-2.26-1.31-3.75-3.44-3.75s-3.49,1.54-3.49,3.89h0c0,2.39,1.35,3.88,3.57,3.88Zm-.06-6.43c.95,0,1.64,.61,1.76,1.83h-3.55c.13-1.19,.84-1.83,1.79-1.83Z" style="fill:#a2a4ae;"/></g><g style="clip-path:url(#clippath-1);"><path d="M731.4,860.56c4.88,0,8.3-3.2,8.3-7.89v-.03c0-4.31-3.05-7.44-7.25-7.44-2.12,0-3.88,.91-4.81,2.42h-.27l.62-6.86h10.39v-3.31h-13.53l-1.09,13.2h3.45c.27-.5,.64-.94,1.05-1.28,.83-.75,1.92-1.12,3.19-1.12,2.58,0,4.42,1.84,4.42,4.47v.03c0,2.66-1.81,4.52-4.45,4.52-2.31,0-4.02-1.47-4.31-3.31l-.02-.11h-3.72l.02,.2c.3,3.7,3.41,6.52,8.02,6.52Zm20.84,0c5.36,0,8.61-4.55,8.61-11.83v-.03c0-7.28-3.25-11.81-8.61-11.81s-8.58,4.53-8.58,11.81v.03c0,7.28,3.22,11.83,8.58,11.83Zm0-3.27c-2.88,0-4.52-3.22-4.52-8.56v-.03c0-5.34,1.64-8.53,4.52-8.53s4.55,3.19,4.55,8.53v.03c0,5.34-1.67,8.56-4.55,8.56Zm14.42,3.02c1.44,0,2.48-1.08,2.48-2.47s-1.05-2.47-2.48-2.47-2.48,1.08-2.48,2.47,1.06,2.47,2.48,2.47Zm14.48,.25c5.36,0,8.61-4.55,8.61-11.83v-.03c0-7.28-3.25-11.81-8.61-11.81s-8.58,4.53-8.58,11.81v.03c0,7.28,3.22,11.83,8.58,11.83Zm0-3.27c-2.87,0-4.52-3.22-4.52-8.56v-.03c0-5.34,1.64-8.53,4.52-8.53s4.55,3.19,4.55,8.53v.03c0,5.34-1.67,8.56-4.55,8.56Zm31.38,3.27c5.2,0,8.94-3.02,9.53-7.53v-.11h-3.95l-.02,.08c-.58,2.48-2.7,4.08-5.56,4.08-3.84,0-6.23-3.2-6.23-8.34v-.03c0-5.12,2.39-8.33,6.22-8.33,2.84,0,5,1.77,5.58,4.44l.02,.06h3.95v-.12c-.53-4.61-4.42-7.86-9.55-7.86-6.39,0-10.34,4.52-10.34,11.83v.03c0,7.28,3.97,11.81,10.36,11.81Z" style="fill:#fff;"/></g><g style="clip-path:url(#clippath-2);"><g><path d="M725.34,874h0c11.05,0,20,8.95,20,20h0c0,11.05-8.95,20-20,20h0c-11.05,0-20-8.95-20-20h0c0-11.05,8.95-20,20-20Z" style="fill:#2f3136;"/><path d="M714.64,894c0-.29,.12-.57,.32-.78s.49-.32,.78-.32h19.2c.29,0,.57,.12,.78,.32,.21,.21,.32,.49,.32,.78s-.12,.57-.32,.78c-.21,.21-.49,.32-.78,.32h-19.2c-.29,0-.57-.12-.78-.32l-.35,.35,.35-.35c-.21-.21-.32-.49-.32-.78Z" style="fill:#f09436; stroke:#f09436;"/><path d="M819.34,874h0c11.05,0,20,8.95,20,20h0c0,11.05-8.95,20-20,20h0c-11.05,0-20-8.95-20-20h0c0-11.05,8.95-20,20-20Z" style="fill:#2f3136;"/><path d="M819.34,883.33v21.33m10.67-10.67h-21.33" style="fill:none; stroke:#f09436; stroke-linecap:round; stroke-linejoin:round; stroke-width:2px;"/></g></g><rect x="696.34" y="780" width="152" height="143" rx="7" ry="7" style="fill:none; stroke:#374151; stroke-width:2px;"/></svg>