<?xml version="1.0" encoding="UTF-8"?><svg id="ETC_" xmlns="http://www.w3.org/2000/svg" xmlns:xlink="http://www.w3.org/1999/xlink" viewBox="0 0 1381.34 1032"><defs><mask id="mask" x="704.63" y="464.5" width="31" height="51" maskUnits="userSpaceOnUse"/></defs><rect x="697.63" y="457" width="324" height="304" rx="7" ry="7" style="fill:#131316;"/><path d="M704.73,499.64c-.1-1.74-.09-3.48-.09-5.22v-8.82c0-1.77,0-3.51,.09-5.25,.09-1.58,.28-3.12,.71-4.65,.9-3.23,2.79-6.05,5.46-8.08,2.65-2.02,5.9-3.12,9.24-3.12s6.59,1.1,9.24,3.12c2.67,2.04,4.55,4.86,5.46,8.08,.43,1.53,.62,3.07,.71,4.65,.1,1.74,.09,3.48,.09,5.22,0,.01,0,8.82,0,8.82,0,1.77,0,3.51-.09,5.25-.09,1.58-.28,3.12-.71,4.65-.9,3.23-2.79,6.05-5.46,8.08-2.65,2.03-5.9,3.12-9.24,3.12s-6.59-1.1-9.24-3.12c-2.67-2.04-4.55-4.85-5.46-8.08-.43-1.53-.62-3.07-.71-4.65Z" style="fill:#f09436; fill-rule:evenodd;"/><g style="mask:url(#mask);"><g><path d="M733.63,480c0-7.46-6.04-13.5-13.5-13.5s-13.5,6.04-13.5,13.5,6.04,13.5,13.5,13.5,13.5-6.04,13.5-13.5Z" style="fill:#fff; fill-rule:evenodd;"/><path d="M733.88,480c0-7.59-6.16-13.75-13.75-13.75s-13.75,6.16-13.75,13.75,6.16,13.75,13.75,13.75,13.75-6.16,13.75-13.75Z" style="fill:none; stroke:rgba(0,0,0,.04); stroke-width:.5px;"/></g></g><path d="M747.55,485h10.03v-2.33h-7.26v-4.44h6.86v-2.2h-6.86v-4.2h7.26v-2.33h-10.03v15.5Zm17.33,0h2.77v-13.17h4.78v-2.33h-12.32v2.33h4.77v13.17Zm16.34,.39c3.58,0,6.15-2.07,6.55-5.18v-.08h-2.72v.05c-.41,1.71-1.87,2.8-3.84,2.8-2.64,0-4.29-2.2-4.29-5.74v-.02c0-3.52,1.64-5.73,4.28-5.73,1.95,0,3.44,1.21,3.83,3.05v.04h2.73v-.09c-.36-3.17-3.04-5.4-6.56-5.4-4.39,0-7.11,3.11-7.11,8.13v.02c0,5.01,2.73,8.12,7.12,8.12Zm15.04,0c3.68,0,5.92-3.13,5.92-8.13v-.02c0-5.01-2.23-8.12-5.92-8.12s-5.9,3.12-5.9,8.12v.02c0,5.01,2.21,8.13,5.9,8.13Zm0-2.24c-1.98,0-3.1-2.21-3.1-5.89v-.02c0-3.67,1.13-5.86,3.1-5.86s3.13,2.19,3.13,5.86v.02c0,3.67-1.15,5.89-3.13,5.89Zm8.28,4.29h6.32v-1.58h-3.75v-.07l1.54-1.26c1.57-1.31,2.1-2.12,2.1-3.04v-.02c0-1.45-1.26-2.41-3.07-2.41-1.92,0-3.24,1.08-3.24,2.71v.03h1.78v-.04c0-.69,.56-1.17,1.38-1.17s1.28,.42,1.28,1.04v.02c0,.51-.33,.91-1.56,2.02l-2.76,2.42v1.34Z" style="fill:#fff;"/><path d="M747.55,511h2.77v-5.83h3.07l3.04,5.83h3.17l-3.38-6.25c1.84-.67,2.92-2.36,2.92-4.41v-.02c0-2.96-2-4.81-5.33-4.81h-6.26v15.5Zm2.77-7.96v-5.3h3.15c1.76,0,2.83,1.01,2.83,2.63v.02c0,1.67-1.02,2.64-2.77,2.64h-3.2Zm12.18,7.96h2.77v-5.83h3.07l3.04,5.83h3.17l-3.38-6.25c1.84-.67,2.92-2.36,2.92-4.41v-.02c0-2.96-2-4.81-5.33-4.81h-6.26v15.5Zm2.77-7.96v-5.3h3.15c1.76,0,2.83,1.01,2.83,2.63v.02c0,1.67-1.02,2.64-2.77,2.64h-3.2Z" style="fill:#fff;"/><path d="M987.48,491.56c5.36,0,8.61-4.55,8.61-11.83v-.03c0-7.28-3.25-11.81-8.61-11.81s-8.58,4.53-8.58,11.81v.03c0,7.28,3.22,11.83,8.58,11.83Zm0-3.27c-2.88,0-4.52-3.22-4.52-8.56v-.03c0-5.34,1.64-8.53,4.52-8.53s4.55,3.19,4.55,8.53v.03c0,5.34-1.67,8.56-4.55,8.56Z" style="fill:#f09436;"/><line x1="960.63" y1="503" x2="1013.63" y2="503" style="fill:none; stroke:rgba(255,255,255,.5); stroke-width:2px;"/><path d="M987.48,539.56c5.36,0,8.61-4.55,8.61-11.83v-.03c0-7.28-3.25-11.81-8.61-11.81s-8.58,4.53-8.58,11.81v.03c0,7.28,3.22,11.83,8.58,11.83Zm0-3.27c-2.88,0-4.52-3.22-4.52-8.56v-.03c0-5.34,1.64-8.53,4.52-8.53s4.55,3.19,4.55,8.53v.03c0,5.34-1.67,8.56-4.55,8.56Z" style="fill:#5cbdd0;"/><circle cx="829.63" cy="621" r="117" style="fill:#202020;"/><path d="M753.63,607.84h26.2c1.25,.07,2.43,.62,3.28,1.54l2.44,2.92c.7,.85,1.47,.66,1.7-.42l2.16-10.04c.23-1.08,.59-1.08,.8,0l6.24,32c.21,1.08,.46,1.06,.56,0l4.64-50c.1-1.09,.41-1.12,.7-.06l6,22.14c.17,.53,.5,1,.94,1.34,.44,.34,.98,.54,1.54,.58h4c.61,.03,1.2,.2,1.74,.49,.54,.29,1.01,.69,1.37,1.17l1.78,2.68c.1,.21,.26,.38,.46,.5,.2,.12,.42,.19,.65,.19s.46-.06,.65-.19c.2-.12,.35-.29,.46-.5l1.78-2.68c.37-.49,.83-.89,1.37-1.17,.54-.29,1.13-.45,1.74-.49h6c.59,.03,1.17,.21,1.67,.52,.51,.31,.92,.75,1.22,1.27l2.22,4.42c.06,.21,.18,.4,.35,.54,.17,.14,.38,.22,.6,.24,.22,.01,.44-.04,.63-.16,.19-.12,.33-.29,.42-.49l3.13-4.68c.61-.91,1.29-.78,1.5,.3l4.86,24.04c.22,1.08,.5,1.07,.62,0l5.56-50c.12-1.1,.42-1.11,.67,0l5.1,22.1c.16,.53,.48,1,.92,1.34,.44,.34,.98,.54,1.53,.55h7c1.25,.07,2.43,.62,3.28,1.54l2.44,2.92c.15,.2,.34,.36,.56,.47,.22,.11,.47,.17,.72,.17s.49-.06,.72-.17c.22-.11,.41-.27,.56-.47l2.44-2.92c.85-.92,2.03-1.47,3.28-1.54h32.87" style="fill:none; stroke:#fff; stroke-linecap:round; stroke-linejoin:round; stroke-width:3px;"/><path d="M829.63,732c61.3,0,111-49.7,111-111s-49.7-111-111-111-111,49.7-111,111,49.7,111,111,111Zm0-43c37.55,0,68-30.45,68-68s-30.45-68-68-68-68,30.45-68,68,30.45,68,68,68Z" style="fill:#525252; fill-rule:evenodd;"/><path d="M873.71,722.48c-13.5,5.84-28.39,9.08-44.04,9.08s-30.54-3.24-44.04-9.08l17.06-39.48c8.27,3.58,17.39,5.56,26.98,5.56s18.71-1.98,26.98-5.56l17.06,39.48Z" style="fill:#f09436; fill-rule:evenodd;"/><path d="M834.02,684.85c33.3-2.25,59.61-29.98,59.61-63.85,0-19.33-8.57-36.65-22.11-48.39l-90.28,90.28c7.69,8.87,17.78,15.61,29.26,19.2l23.52,2.76Z" style="fill:rgba(255,255,255,.05); fill-rule:evenodd;"/><path d="M827.4,649.76c.57-2.34,3.9-2.34,4.47,0,.37,1.51,2.1,2.23,3.43,1.42,2.06-1.25,4.41,1.1,3.16,3.16-.81,1.33-.09,3.06,1.42,3.43,2.34,.57,2.34,3.9,0,4.47-1.51,.37-2.23,2.1-1.42,3.43,1.25,2.06-1.1,4.41-3.16,3.16-1.33-.81-3.06-.09-3.43,1.42-.57,2.34-3.9,2.34-4.47,0-.37-1.51-2.1-2.23-3.43-1.42-2.06,1.25-4.41-1.1-3.16-3.16,.81-1.33,.09-3.06-1.42-3.43-2.34-.57-2.34-3.9,0-4.47,1.51-.37,2.23-2.1,1.42-3.43-1.25-2.06,1.1-4.41,3.16-3.16,1.33,.81,3.06,.09,3.43-1.42Z" style="fill:none; stroke:#f09436; stroke-linecap:round; stroke-linejoin:round; stroke-width:2px;"/><path d="M833.63,660c0,2.21-1.79,4-4,4s-4-1.79-4-4,1.79-4,4-4,4,1.79,4,4Z" style="fill:none; stroke:#f09436; stroke-linecap:round; stroke-linejoin:round; stroke-width:2px;"/><g><path d="M989.63,643h0c13.81,0,25,11.19,25,25h0c0,13.81-11.19,25-25,25h0c-13.81,0-25-11.19-25-25h0c0-13.81,11.19-25,25-25Z" style="fill:#282828;"/><circle cx="986.63" cy="662" r="4" style="fill:none; stroke:#f09436; stroke-width:2px;"/><circle cx="992.63" cy="675" r="4" style="fill:none; stroke:#f09436; stroke-width:2px;"/><path d="M991.63,662h8" style="fill:none; stroke:#f09436; stroke-linecap:round; stroke-width:4px;"/><path d="M997.63,675h2" style="fill:none; stroke:#f09436; stroke-linecap:round; stroke-width:4px;"/><path d="M979.63,675h8" style="fill:none; stroke:#f09436; stroke-linecap:round; stroke-width:4px;"/><path d="M979.63,662h2" style="fill:none; stroke:#f09436; stroke-linecap:round; stroke-width:4px;"/><path d="M989.63,643.5h0c13.53,0,24.5,10.97,24.5,24.5h0c0,13.53-10.97,24.5-24.5,24.5h0c-13.53,0-24.5-10.97-24.5-24.5h0c0-13.53,10.97-24.5,24.5-24.5Z" style="fill:none; stroke:#0c0c0c;"/></g><g><path d="M989.63,699h0c13.81,0,25,11.19,25,25h0c0,13.81-11.19,25-25,25h0c-13.81,0-25-11.19-25-25h0c0-13.81,11.19-25,25-25Z" style="fill:#282828;"/><path d="M989.63,727.2c1.77,0,3.2-1.43,3.2-3.2s-1.43-3.2-3.2-3.2-3.2,1.43-3.2,3.2,1.43,3.2,3.2,3.2Z" style="fill:#f09436;"/><path d="M974.37,724c2.04-6.49,8.1-11.2,15.27-11.2s13.23,4.71,15.27,11.2c-2.04,6.49-8.11,11.2-15.27,11.2s-13.23-4.71-15.27-11.2Zm21.67,0c0,3.53-2.87,6.4-6.4,6.4s-6.4-2.87-6.4-6.4,2.87-6.4,6.4-6.4,6.4,2.87,6.4,6.4Z" style="fill:#f09436; fill-rule:evenodd;"/><path d="M989.63,699.5h0c13.53,0,24.5,10.97,24.5,24.5h0c0,13.53-10.97,24.5-24.5,24.5h0c-13.53,0-24.5-10.97-24.5-24.5h0c0-13.53,10.97-24.5,24.5-24.5Z" style="fill:none; stroke:#0c0c0c;"/></g><rect x="697.63" y="457" width="324" height="304" rx="7" ry="7" style="fill:none; stroke:#2f3136; stroke-width:2px;"/></svg>