<?xml version="1.0" encoding="UTF-8"?><svg id="BloodPressure" xmlns="http://www.w3.org/2000/svg" viewBox="0 0 1381.34 1032"><rect x="698.34" y="136" width="324" height="304" rx="7" ry="7" style="fill:#131316;"/><path d="M708.12,170h9.64c4.81,0,7.75-2.44,7.75-6.39v-.03c0-2.92-2.09-5.11-5.12-5.39v-.28c2.27-.36,4.02-2.45,4.02-4.81v-.03c0-3.45-2.58-5.61-6.86-5.61h-9.42v22.55Zm8.44-19.41c2.44,0,3.86,1.17,3.86,3.17v.03c0,2.05-1.52,3.16-4.38,3.16h-3.89v-6.36h4.41Zm.12,9.22c3.08,0,4.7,1.2,4.7,3.49v.03c0,2.3-1.58,3.53-4.55,3.53h-4.69v-7.05h4.53Zm12.97,10.19h3.89v-23.69h-3.89v23.69Zm16.19,.34c5.11,0,8.22-3.34,8.22-8.88v-.03c0-5.5-3.12-8.84-8.22-8.84s-8.22,3.36-8.22,8.84v.03c0,5.53,3.09,8.88,8.22,8.88Zm0-3.16c-2.7,0-4.25-2.11-4.25-5.7v-.03c0-3.59,1.55-5.72,4.25-5.72s4.23,2.12,4.23,5.72v.03c0,3.59-1.53,5.7-4.23,5.7Zm19.5,3.16c5.11,0,8.22-3.34,8.22-8.88v-.03c0-5.5-3.12-8.84-8.22-8.84s-8.22,3.36-8.22,8.84v.03c0,5.53,3.09,8.88,8.22,8.88Zm0-3.16c-2.7,0-4.25-2.11-4.25-5.7v-.03c0-3.59,1.55-5.72,4.25-5.72s4.23,2.12,4.23,5.72v.03c0,3.59-1.53,5.7-4.23,5.7Zm18.28,3.09c2.41,0,4.25-1.09,5.19-2.95h.27v2.67h3.91v-23.69h-3.91v9.33h-.27c-.89-1.84-2.84-3-5.19-3-4.33,0-7,3.38-7,8.81v.03c0,5.41,2.72,8.8,7,8.8Zm1.22-3.28c-2.66,0-4.27-2.08-4.27-5.52v-.03c0-3.44,1.62-5.53,4.27-5.53s4.3,2.11,4.3,5.53v.03c0,3.42-1.64,5.52-4.3,5.52Zm21.97,3h4.03v-7.45h4.97c4.58,0,7.67-3.03,7.67-7.53v-.03c0-4.51-3.09-7.53-7.67-7.53h-9v22.55Zm8.02-19.25c2.89,0,4.58,1.55,4.58,4.25v.03c0,2.7-1.69,4.27-4.58,4.27h-3.98v-8.55h3.98Zm12.7,19.25h3.89v-9.92c0-2.44,1.7-3.98,4.3-3.98,.67,0,1.31,.09,1.94,.22v-3.48c-.37-.11-.98-.19-1.58-.19-2.25,0-3.81,1.08-4.39,2.91h-.27v-2.62h-3.89v17.08Zm20.19,.34c4.64,0,6.92-2.67,7.47-4.88l.05-.14h-3.7l-.05,.11c-.38,.78-1.58,1.84-3.69,1.84-2.64,0-4.3-1.78-4.34-4.84h11.94v-1.28c0-5.16-3-8.56-7.86-8.56s-7.97,3.51-7.97,8.89v.02c0,5.44,3.08,8.84,8.16,8.84Zm-.14-14.7c2.17,0,3.75,1.39,4.02,4.19h-8.11c.3-2.72,1.92-4.19,4.09-4.19Zm18.16,14.7c4.2,0,7.25-2.17,7.25-5.42v-.03c0-2.49-1.58-3.91-4.92-4.66l-2.77-.61c-1.84-.42-2.56-1.03-2.56-2.03v-.02c0-1.28,1.25-2.12,2.98-2.12,1.83,0,2.95,.88,3.23,1.95l.02,.05h3.66v-.03c-.25-2.77-2.73-4.83-6.89-4.83s-6.84,2.12-6.84,5.2h0c0,2.53,1.55,4.06,4.8,4.78l2.77,.62c1.88,.42,2.62,1.08,2.62,2.08v.03c0,1.28-1.34,2.16-3.28,2.16s-3.08-.83-3.48-2.02l-.02-.03h-3.86v.03c.33,2.89,2.95,4.89,7.3,4.89Zm17.31,0c4.2,0,7.25-2.17,7.25-5.42v-.03c0-2.49-1.58-3.91-4.92-4.66l-2.77-.61c-1.84-.42-2.56-1.03-2.56-2.03v-.02c0-1.28,1.25-2.12,2.98-2.12,1.83,0,2.95,.88,3.23,1.95l.02,.05h3.66v-.03c-.25-2.77-2.73-4.83-6.89-4.83s-6.84,2.12-6.84,5.2h0c0,2.53,1.55,4.06,4.8,4.78l2.77,.62c1.88,.42,2.62,1.08,2.62,2.08v.03c0,1.28-1.34,2.16-3.28,2.16s-3.08-.83-3.48-2.02l-.02-.03h-3.86v.03c.33,2.89,2.95,4.89,7.3,4.89Zm16.83,0c2.47,0,4.2-1.11,5-2.94h.27v2.59h3.89v-17.08h-3.89v9.95c0,2.56-1.34,4.19-3.86,4.19-2.34,0-3.33-1.34-3.33-3.98v-10.16h-3.89v11.05c0,4.06,1.97,6.38,5.81,6.38Zm13.91-.34h3.89v-9.92c0-2.44,1.7-3.98,4.3-3.98,.67,0,1.31,.09,1.94,.22v-3.48c-.37-.11-.98-.19-1.58-.19-2.25,0-3.81,1.08-4.39,2.91h-.27v-2.62h-3.89v17.08Zm20.19,.34c4.64,0,6.92-2.67,7.47-4.88l.05-.14h-3.7l-.05,.11c-.38,.78-1.58,1.84-3.69,1.84-2.64,0-4.3-1.78-4.34-4.84h11.94v-1.28c0-5.16-3-8.56-7.86-8.56s-7.97,3.51-7.97,8.89v.02c0,5.44,3.08,8.84,8.16,8.84Zm-.14-14.7c2.17,0,3.75,1.39,4.02,4.19h-8.11c.3-2.72,1.92-4.19,4.09-4.19Z" style="fill:#fff;"/><path d="M969.96,170h4.03v-22.55h-4.02l-5.89,4.14v3.8l5.61-3.97h.27v18.58Zm10.3,0h15.66v-3.34h-10.2v-.33l4.52-4.38c4.11-3.95,5.34-5.98,5.34-8.55v-.05c0-3.8-3.16-6.47-7.55-6.47-4.7,0-7.98,2.94-7.98,7.14l.02,.05,3.75,.02,.02-.06c0-2.33,1.61-3.91,4-3.91s3.77,1.5,3.77,3.58v.05c0,1.73-.86,2.88-3.92,5.97l-7.41,7.56v2.72Zm25.64,0h4.03v-22.55h-4.01l-5.89,4.14v3.8l5.61-3.97h.26v18.58Z" style="fill:#f09436;"/><line x1="961.34" y1="182" x2="1014.34" y2="182" style="fill:none; stroke:rgba(255,255,255,.5); stroke-width:2px;"/><path d="M971.21,218h4.22l9.64-19.19v-3.36h-15.69v3.3h11.62v.25l-9.8,19Zm25.64-23.11c-4.89,0-8.38,3.34-8.38,7.92v.03c0,4.28,3.03,7.44,7.36,7.44,3.09,0,5.06-1.58,5.89-3.36h.31c0,.17-.02,.34-.02,.52-.17,4.31-1.69,7.81-5.27,7.81-1.98,0-3.38-1.03-3.97-2.61l-.05-.16h-3.97l.03,.17c.72,3.45,3.81,5.91,7.95,5.91,5.67,0,9.1-4.5,9.1-12.09v-.03c0-8.13-4.19-11.55-9-11.55Zm-.02,12.3c-2.56,0-4.42-1.88-4.42-4.49v-.03c0-2.52,1.98-4.5,4.47-4.5s4.45,2.02,4.45,4.59v.03c0,2.55-1.95,4.39-4.5,4.39Z" style="fill:#5cbdd0;"/><circle cx="830.34" cy="300" r="117" style="fill:#202020;"/><path d="M830.34,411c61.3,0,111-49.7,111-111s-49.7-111-111-111-111,49.7-111,111,49.7,111,111,111Zm0-43c37.55,0,68-30.45,68-68s-30.45-68-68-68-68,30.45-68,68,30.45,68,68,68Z" style="fill:#525252; fill-rule:evenodd;"/><path d="M874.41,401.48c-13.5,5.84-28.39,9.08-44.04,9.08s-30.54-3.24-44.04-9.08l17.06-39.48c8.27,3.58,17.39,5.56,26.98,5.56s18.71-1.98,26.98-5.56l17.06,39.48Z" style="fill:#f09436; fill-rule:evenodd;"/><path d="M834.72,363.85c33.3-2.25,59.61-29.98,59.61-63.85,0-19.33-8.57-36.65-22.11-48.39l-90.28,90.28c7.69,8.87,17.78,15.61,29.26,19.2l23.52,2.76Z" style="fill:rgba(255,255,255,.05); fill-rule:evenodd;"/><path d="M805.67,293.04v-25.56h44.14v57.05h-44.14v-9.54" style="fill:none; stroke:#fe4f4f; stroke-miterlimit:10; stroke-width:3px;"/><path d="M805.67,267.48h29.84c1.13,0,2.21,.47,3.01,1.29,.8,.82,1.25,1.94,1.25,3.1v48.27c0,1.16-.45,2.28-1.25,3.1-.8,.82-1.88,1.29-3.01,1.29h-29.84" style="fill:none; stroke:#fe4f4f; stroke-miterlimit:10; stroke-width:3px;"/><path d="M806.17,315.19c5.82,0,10.53-4.88,10.53-10.89s-4.72-10.89-10.53-10.89-10.53,4.88-10.53,10.89,4.72,10.89,10.53,10.89Z" style="fill:none; stroke:#fe4f4f; stroke-miterlimit:10; stroke-width:3px;"/><path d="M839.77,324.06c0,2.88,1.06,5.63,2.94,7.67,1.88,2.03,4.43,3.18,7.09,3.18s5.21-1.14,7.09-3.18c1.88-2.03,2.94-4.79,2.94-7.67v-20.28" style="fill:none; stroke:#fe4f4f; stroke-miterlimit:10; stroke-width:3px;"/><path d="M860.84,290.3h-1c-2.22,0-4.01,1.95-4.01,4.35v4.79c0,2.4,1.8,4.35,4.01,4.35h1c2.22,0,4.01-1.95,4.01-4.35v-4.79c0-2.4-1.8-4.35-4.01-4.35Z" style="fill:none; stroke:#fe4f4f; stroke-miterlimit:10; stroke-width:3px;"/><g><path d="M990.34,378h0c13.81,0,25,11.19,25,25h0c0,13.81-11.19,25-25,25h0c-13.81,0-25-11.19-25-25h0c0-13.81,11.19-25,25-25Z" style="fill:#282828;"/><circle cx="987.34" cy="397" r="4" style="fill:none; stroke:#f09436; stroke-width:2px;"/><circle cx="993.34" cy="410" r="4" style="fill:none; stroke:#f09436; stroke-width:2px;"/><path d="M992.34,397h8" style="fill:none; stroke:#f09436; stroke-linecap:round; stroke-width:4px;"/><path d="M998.34,410h2" style="fill:none; stroke:#f09436; stroke-linecap:round; stroke-width:4px;"/><path d="M980.34,410h8" style="fill:none; stroke:#f09436; stroke-linecap:round; stroke-width:4px;"/><path d="M980.34,397h2" style="fill:none; stroke:#f09436; stroke-linecap:round; stroke-width:4px;"/><path d="M990.34,378.5h0c13.53,0,24.5,10.97,24.5,24.5h0c0,13.53-10.97,24.5-24.5,24.5h0c-13.53,0-24.5-10.97-24.5-24.5h0c0-13.53,10.97-24.5,24.5-24.5Z" style="fill:none; stroke:#0c0c0c;"/></g><rect x="698.34" y="136" width="324" height="304" rx="7" ry="7" style="fill:none; stroke:#2f3136; stroke-width:2px;"/></svg>