<?xml version="1.0" encoding="UTF-8"?><svg id="Header" xmlns="http://www.w3.org/2000/svg" xmlns:xlink="http://www.w3.org/1999/xlink" viewBox="0 0 1381.34 1032"><defs><mask id="mask" x="1333.82" y="6.05" width="26.71" height="12.09" maskUnits="userSpaceOnUse"/></defs><polyline points="0 0 1376.67 0 1376.67 1032" style="fill:none;"/><rect x="5.34" y="4" width="1366" height="70.58" style="fill:#131316;"/><path d="M1274.96,7.68c-.08,.19-.08,.42-.08,.89v7.05c0,.47,0,.7,.08,.89,.1,.25,.29,.44,.54,.55,.18,.08,.42,.08,.89,.08s.71,0,.89-.08c.25-.1,.44-.3,.54-.55,.08-.19,.08-.42,.08-.89v-7.05c0-.47,0-.7-.08-.89-.1-.25-.29-.44-.54-.55-.18-.08-.41-.08-.89-.08s-.71,0-.89,.08c-.25,.1-.44,.3-.54,.55Zm-4.62,2.91c0-.47,0-.7,.08-.89,.1-.25,.29-.44,.54-.55,.18-.08,.42-.08,.89-.08s.71,0,.89,.08c.25,.1,.44,.3,.54,.55,.08,.19,.08,.42,.08,.89v5.04c0,.47,0,.7-.08,.89-.1,.25-.29,.44-.54,.55-.18,.08-.41,.08-.89,.08s-.71,0-.89-.08c-.25-.1-.44-.3-.54-.55-.08-.19-.08-.42-.08-.89v-5.04Zm-4.45,1.13c-.08,.19-.08,.42-.08,.89v3.02c0,.47,0,.7,.08,.89,.1,.25,.29,.44,.54,.55,.18,.08,.42,.08,.89,.08s.71,0,.89-.08c.25-.1,.44-.3,.54-.55,.08-.19,.08-.42,.08-.89v-3.02c0-.47,0-.7-.08-.89-.1-.25-.29-.44-.54-.55-.18-.08-.41-.08-.89-.08s-.71,0-.89,.08c-.25,.1-.44,.3-.54,.55Zm-4.54,1.51c-.08,.19-.08,.42-.08,.89v1.51c0,.47,0,.7,.08,.89,.1,.25,.29,.44,.54,.55,.18,.08,.42,.08,.89,.08s.71,0,.89-.08c.25-.1,.44-.3,.54-.55,.08-.19,.08-.42,.08-.89v-1.51c0-.47,0-.7-.08-.89-.1-.25-.29-.44-.54-.55-.18-.08-.41-.08-.89-.08s-.71,0-.89,.08c-.25,.1-.44,.3-.54,.55Z" style="fill:#fff; fill-rule:evenodd;"/><path d="M1295.02,11.08c.11,.11,.29,.11,.4,0l1.07-1.07c.12-.12,.12-.31,0-.42-1.82-1.73-4.28-2.78-6.99-2.78s-5.17,1.06-6.99,2.78c-.12,.11-.12,.3,0,.42l1.07,1.07c.11,.11,.29,.11,.4,0,1.45-1.36,3.39-2.19,5.52-2.19s4.07,.83,5.52,2.19Zm-2.47,2.47c.12,.1,.29,.1,.4,0l1.07-1.07c.12-.12,.12-.31,0-.42-1.19-1.09-2.78-1.76-4.53-1.76s-3.34,.67-4.53,1.76c-.12,.11-.12,.31,0,.42l1.07,1.07c.11,.11,.28,.11,.4,0,.81-.73,1.88-1.17,3.05-1.17s2.24,.44,3.05,1.17Zm-1.01,.97c.13,.11,.13,.3,.01,.42l-1.84,1.85c-.12,.11-.3,.11-.41,0l-1.85-1.85c-.12-.12-.12-.31,.01-.42,.55-.46,1.27-.74,2.05-.74s1.49,.28,2.05,.74Z" style="fill:#fff; fill-rule:evenodd;"/><path d="M1301.93,16.12h1.32V7.6h-1.32l-2.25,1.59v1.3l2.15-1.53h.1v7.16Zm6.64,.21c1.97,0,3.15-1.72,3.15-4.46h0c0-2.76-1.19-4.47-3.15-4.47s-3.14,1.71-3.14,4.46h0c0,2.76,1.18,4.48,3.14,4.48Zm0-1.1c-1.14,0-1.81-1.28-1.81-3.37h0c0-2.1,.68-3.37,1.81-3.37s1.81,1.27,1.81,3.35h0c0,2.1-.68,3.38-1.81,3.38Zm7.76,1.1c1.96,0,3.14-1.72,3.14-4.46h0c0-2.76-1.19-4.47-3.14-4.47s-3.15,1.71-3.15,4.46h0c0,2.76,1.18,4.48,3.15,4.48Zm0-1.1c-1.15,0-1.81-1.28-1.81-3.37h0c0-2.1,.67-3.37,1.81-3.37s1.8,1.27,1.8,3.35h0c0,2.1-.67,3.38-1.8,3.38Zm6.44-3.08c1.15,0,1.84-.9,1.84-2.34h0c0-1.44-.7-2.33-1.84-2.33s-1.83,.89-1.83,2.33h0c0,1.44,.7,2.34,1.83,2.34Zm.89,3.97l5.77-8.52h-1.11l-5.77,8.52h1.11Zm-.89-4.76c-.55,0-.88-.57-.88-1.55h0c0-.97,.32-1.54,.88-1.54s.89,.57,.89,1.54h0c0,.98-.32,1.55-.89,1.55Zm6.43,4.88c1.15,0,1.84-.9,1.84-2.33h0c0-1.44-.7-2.34-1.84-2.34s-1.84,.9-1.84,2.33h0c0,1.44,.7,2.34,1.84,2.34Zm0-.79c-.56,0-.88-.57-.88-1.54h0c0-.98,.31-1.55,.88-1.55s.88,.57,.88,1.54h0c0,.97-.31,1.55-.88,1.55Z" style="fill:#fff;"/><g style="opacity:.4;"><g style="mask:url(#mask);"><path d="M1354.83,7.1l-.08,1,.08-1Zm.93,.21l-.45,.9h0l.45-.9Zm.99,.99l.9-.46h0l-.9,.46Zm.21,.93l-1.01,.08h0l1.01-.08Zm0,5.75l-1.01-.08h0l1.01,.08Zm-.21,.93l.9,.46h0l-.9-.46Zm-.99,.99l-.45-.9h0l.45,.9Zm-.93,.21l.08,1-.08-1Zm-17.85,0l-.08,1h0l.08-1Zm-.92-.21l.45-.9h0l-.45,.9Zm-1-.99l-.9,.46h0l.9-.46Zm-.2-.93l1.01-.08h0l-1.01,.08Zm0-5.75l1.01,.08-1.01-.08Zm.2-.93l.9,.46h0l-.9-.46Zm1-.99l.45,.9h0l-.45-.9Zm.92-.21l.09,1h0l-.09-1Zm-2.81,.74l.9,.46-.9-.46Zm1.43-1.43l.46,.9-.46-.9Zm20.61,0l.46-.9h0l-.46,.9Zm1.43,1.43l-.9,.46h0l.9-.46Zm0,8.52l-.9-.46,.9,.46Zm-1.43,1.43l-.45-.9,.45,.9Zm-20.61,0l.46-.9h0l-.46,.9Zm-1.43-1.43l-.9,.46h0l.9-.46Zm24.84-6.21l.25-.98-1.26-.32v1.3h1.01Zm0,3.9h-1.01v1.3l1.26-.32-.25-.98Zm-6.25-8h-13.71v2.02h13.71v-2.02Zm2.15,.04c-.54-.04-1.23-.04-2.15-.04v2.02c.95,0,1.54,0,1.99,.04l.16-2.01Zm1.3,.31c-.34-.18-.76-.27-1.3-.31l-.16,2.01c.42,.03,.53,.09,.55,.1l.91-1.8Zm1.43,1.43c-.31-.62-.82-1.12-1.43-1.43l-.91,1.8c.23,.12,.42,.31,.54,.55l1.79-.92Zm.31,1.3c-.04-.55-.13-.95-.31-1.3l-1.79,.92s.07,.13,.1,.55l2.01-.16Zm.05,2.15c0-.92,0-1.6-.05-2.15l-2.01,.16c.04,.44,.04,1.04,.04,1.99h2.02Zm0,1.61v-1.61h-2.02v1.61h2.02Zm-.05,2.15c.05-.55,.05-1.23,.05-2.15h-2.02c0,.95,0,1.54-.04,1.99l2.01,.16Zm-.31,1.3c.18-.35,.27-.76,.31-1.3l-2.01-.16c-.03,.42-.09,.53-.1,.55l1.79,.92Zm-1.43,1.43c.61-.31,1.12-.82,1.43-1.43l-1.79-.92c-.12,.24-.31,.43-.54,.55l.91,1.8Zm-1.3,.31c.54-.04,.96-.13,1.3-.31l-.91-1.8s-.13,.06-.55,.1l.16,2.01Zm-2.15,.04c.92,0,1.6,0,2.15-.04l-.16-2.01c-.44,.04-1.04,.04-1.99,.04v2.02Zm-13.71,0h13.71v-2.02h-13.71v2.02Zm-2.16-.04c.54,.04,1.24,.04,2.16,.04v-2.02c-.96,0-1.54,0-1.99-.04l-.17,2.01Zm-1.3-.31c.35,.18,.76,.27,1.3,.31l.17-2.01c-.42-.03-.53-.09-.55-.1l-.92,1.8Zm-1.43-1.43c.31,.62,.82,1.12,1.43,1.43l.92-1.8c-.24-.12-.43-.31-.55-.55l-1.79,.92Zm-.31-1.3c.05,.55,.13,.95,.31,1.3l1.79-.92s-.06-.13-.09-.55l-2.02,.16Zm-.04-2.15c0,.92,0,1.61,.04,2.15l2.02-.16c-.04-.44-.04-1.04-.04-1.99h-2.02Zm0-1.61v1.61h2.02v-1.61h-2.02Zm.04-2.15c-.04,.55-.04,1.23-.04,2.15h2.02c0-.95,0-1.54,.04-1.99l-2.02-.16Zm.31-1.3c-.18,.35-.26,.76-.31,1.3l2.02,.16c.03-.42,.08-.53,.09-.55l-1.79-.92Zm1.43-1.43c-.61,.31-1.12,.82-1.43,1.43l1.79,.92c.12-.24,.31-.43,.55-.55l-.92-1.8Zm1.3-.31c-.54,.04-.95,.13-1.3,.31l.92,1.8s.13-.06,.55-.1l-.17-2.01Zm2.16-.04c-.92,0-1.61,0-2.16,.04l.17,2.01c.44-.04,1.03-.04,1.99-.04v-2.02Zm-5.78,1.33c-.26,.52-.37,1.07-.41,1.68-.05,.6-.05,1.33-.05,2.23h2.02c0-.93,0-1.57,.04-2.07,.04-.48,.11-.74,.2-.93l-1.79-.92Zm1.87-1.87c-.81,.41-1.46,1.07-1.87,1.87l1.79,.92c.22-.43,.56-.77,1-.99l-.92-1.8Zm3.91-.47c-.91,0-1.64,0-2.24,.05-.6,.05-1.16,.16-1.67,.42l.92,1.8c.18-.09,.43-.17,.92-.21,.5-.04,1.14-.04,2.08-.04v-2.02Zm13.71,0h-13.71v2.02h13.71v-2.02Zm3.91,.47c-.52-.26-1.07-.37-1.68-.42-.59-.05-1.33-.05-2.23-.05v2.02c.93,0,1.57,0,2.07,.04,.48,.04,.75,.11,.93,.21l.92-1.8Zm1.86,1.87c-.4-.81-1.06-1.46-1.86-1.87l-.92,1.8c.42,.22,.78,.56,.99,.99l1.79-.92Zm.47,3.91c0-.9,0-1.64-.05-2.23-.05-.61-.15-1.16-.42-1.68l-1.79,.92c.1,.18,.17,.44,.21,.93,.04,.5,.04,1.14,.04,2.07h2.02Zm0,1.61v-1.61h-2.02v1.61h2.02Zm-.47,3.91c.27-.52,.37-1.07,.42-1.68,.05-.6,.05-1.33,.05-2.23h-2.02c0,.93,0,1.57-.04,2.07-.04,.48-.11,.74-.21,.93l1.79,.92Zm-1.86,1.87c.81-.41,1.46-1.07,1.86-1.87l-1.79-.92c-.21,.43-.56,.77-.99,.99l.92,1.8Zm-3.91,.47c.9,0,1.63,0,2.23-.05,.61-.05,1.16-.16,1.68-.42l-.92-1.8c-.18,.09-.44,.17-.93,.21-.49,.04-1.14,.04-2.07,.04v2.02Zm-13.71,0h13.71v-2.02h-13.71v2.02Zm-3.91-.47c.51,.26,1.07,.37,1.67,.42,.59,.05,1.33,.05,2.24,.05v-2.02c-.94,0-1.57,0-2.08-.04-.48-.04-.74-.11-.92-.21l-.92,1.8Zm-1.87-1.87c.41,.81,1.07,1.46,1.87,1.87l.92-1.8c-.43-.22-.78-.56-1-.99l-1.79,.92Zm-.46-3.91c0,.9,0,1.64,.05,2.23,.04,.61,.15,1.16,.41,1.68l1.79-.92c-.09-.18-.16-.44-.2-.93-.04-.5-.04-1.14-.04-2.07h-2.02Zm0-1.61v1.61h2.02v-1.61h-2.02Zm25.95-.17c.43,.11,.76,.51,.76,.98h2.02c0-1.41-.97-2.59-2.27-2.93l-.5,1.95Zm1.26,2.93v-3.9h-2.02v3.9h2.02Zm-.5-1.95c0,.47-.32,.86-.76,.98l.5,1.95c1.3-.34,2.27-1.52,2.27-2.93h-2.02Z" style="fill:#fff;"/></g></g><rect x="1335.84" y="8.06" width="20.16" height="8.06" rx="1.51" ry="1.51" style="fill:#fff;"/><path d="M50.45,16.12h1.2v-6.25h.09l2.5,6.25h.98l2.5-6.25h.09v6.25h1.2V7.6h-1.52l-2.72,6.8h-.09l-2.72-6.8h-1.52v8.52Zm13.28,.12c1.88,0,3.03-1.26,3.03-3.32h0c0-2.08-1.16-3.34-3.03-3.34s-3.04,1.26-3.04,3.32h0c0,2.08,1.15,3.34,3.04,3.34Zm0-1.07c-1.1,0-1.72-.83-1.72-2.26h0c0-1.43,.62-2.27,1.72-2.27s1.72,.83,1.72,2.26h0c0,1.43-.63,2.27-1.72,2.27Zm4.56,.94h1.28v-3.76c0-1.03,.58-1.68,1.52-1.68s1.38,.53,1.38,1.59v3.85h1.28v-4.15c0-1.53-.79-2.39-2.23-2.39-.93,0-1.55,.41-1.86,1.1h-.09v-.97h-1.28v6.41Zm12.7,.21c1.67,0,2.66-.99,2.66-2.66V7.6h-1.32v6.05c0,.97-.47,1.49-1.35,1.49-.79,0-1.2-.51-1.25-1.16v-.05h-1.31v.07c.08,1.36,1,2.32,2.57,2.32Zm6.78-.08c.93,0,1.58-.4,1.89-1.09h.1v.97h1.28v-6.41h-1.28v3.76c0,1.03-.55,1.68-1.58,1.68-.94,0-1.33-.53-1.33-1.59v-3.85h-1.28v4.15c0,1.52,.75,2.39,2.2,2.39Zm5.11-.12h1.28v-3.76c0-1.03,.58-1.68,1.52-1.68s1.38,.53,1.38,1.59v3.85h1.28v-4.15c0-1.53-.79-2.39-2.23-2.39-.93,0-1.55,.41-1.86,1.1h-.09v-.97h-1.28v6.41Zm13.56,.16c1.81,0,3.09-1.05,3.09-2.52h0c0-1.2-.84-1.96-2.09-2.07v-.03c1.04-.22,1.79-.93,1.79-1.98h0c0-1.33-1.11-2.24-2.8-2.24s-2.8,.95-2.93,2.39v.06s1.23,0,1.23,0v-.06c.09-.8,.75-1.31,1.7-1.31s1.52,.48,1.52,1.31h0c0,.8-.66,1.38-1.64,1.38h-1v1.03h1.04c1.13,0,1.83,.54,1.83,1.5h0c0,.85-.7,1.43-1.74,1.43s-1.77-.54-1.85-1.32v-.06h-1.27v.07c.12,1.41,1.31,2.41,3.12,2.41Z" style="fill:#fff;"/><path d="M19.96,7.4c-1.79,0-3.09,1.25-3.09,2.96h0c0,1.64,1.17,2.85,2.79,2.85,1.16,0,1.93-.61,2.24-1.29h.12c0,.06,0,.13,0,.19-.07,1.7-.67,3.1-2.1,3.1-.8,0-1.35-.41-1.59-1.06l-.02-.06h-1.32l.02,.07c.28,1.29,1.4,2.17,2.91,2.17,2.11,0,3.37-1.7,3.37-4.59h0c0-3.14-1.61-4.35-3.32-4.35Zm0,4.74c-1.03,0-1.78-.76-1.78-1.8h0c0-1.03,.8-1.83,1.8-1.83s1.79,.81,1.79,1.85h0c0,1.03-.79,1.78-1.81,1.78Zm5.71-1.65c.49,0,.86-.38,.86-.86s-.37-.86-.86-.86-.87,.38-.87,.86,.38,.86,.87,.86Zm0,4.46c.49,0,.86-.38,.86-.86s-.37-.86-.86-.86-.87,.38-.87,.86,.38,.86,.87,.86Zm6.5,1.17h1.28v-1.69h1.18v-1.12h-1.18V7.6h-1.88c-1.18,1.77-2.43,3.78-3.55,5.7v1.12h4.16v1.69Zm-2.89-2.79v-.08c.87-1.49,1.91-3.15,2.83-4.53h.08v4.61h-2.91Zm8.66,2.79h1.32V7.6h-1.32l-2.24,1.59v1.3l2.14-1.53h.1v7.16Z" style="fill:#fff;"/><path d="M23.18,56.44l-7.05-7.05,7.05-7.05" style="fill:none; stroke:#f09436; stroke-linecap:round; stroke-linejoin:round; stroke-width:2px;"/><path d="M55.39,57.31c3.58,0,5.82-1.82,5.82-4.72h0c0-2.26-1.31-3.52-4.45-4.19l-1.6-.34c-1.86-.39-2.61-1.05-2.61-2.11h0c0-1.28,1.18-2.06,2.83-2.06,1.71-.01,2.81,.82,3,1.97l.02,.12h2.55v-.13c-.2-2.4-2.25-4.21-5.56-4.21s-5.52,1.8-5.52,4.46h0c0,2.23,1.32,3.66,4.37,4.3l1.6,.33c1.92,.41,2.7,1.06,2.7,2.14h0c0,1.29-1.26,2.18-3.06,2.18-1.89,0-3.22-.83-3.35-2.08v-.1h-2.59v.14c.2,2.57,2.4,4.28,5.86,4.28Zm13.39-.14c2.86,0,4.53-1.54,4.9-3.85l.02-.08h-2.43s-.02,.05-.02,.05c-.32,1.19-1.14,1.8-2.47,1.8-1.75,0-2.79-1.41-2.79-3.8v-.02c0-2.37,1.03-3.75,2.79-3.75,1.41,0,2.24,.79,2.48,1.88v.03h2.44v-.04c-.29-2.34-2.03-3.95-4.93-3.95-3.4,0-5.39,2.18-5.39,5.83v.02c0,3.69,2,5.89,5.4,5.89Zm12.2,0c3.07,0,4.58-1.77,4.94-3.22l.03-.09h-2.45l-.03,.07c-.25,.52-1.04,1.22-2.44,1.22-1.75,0-2.84-1.18-2.87-3.2h7.9v-.85c0-3.41-1.98-5.66-5.2-5.66s-5.27,2.33-5.27,5.88h0c0,3.61,2.04,5.86,5.39,5.86Zm-.09-9.72c1.44,0,2.48,.92,2.66,2.77h-5.36c.2-1.8,1.27-2.77,2.71-2.77Zm7.74,9.5h2.57v-6.58c0-1.69,.95-2.77,2.48-2.77s2.27,.89,2.27,2.65v6.71h2.57v-7.31c0-2.69-1.37-4.21-3.9-4.21-1.63,0-2.72,.73-3.26,1.94h-.18v-1.73h-2.57v11.3Zm16.02,.19c1.49,0,2.69-.64,3.31-1.74h.18v1.55h2.54v-7.72c0-2.39-1.63-3.79-4.54-3.79-2.69,0-4.5,1.26-4.75,3.16v.09s2.42,0,2.42,0v-.04c.27-.74,1.03-1.17,2.21-1.17,1.38,0,2.12,.62,2.12,1.75v.97l-2.9,.18c-2.75,.17-4.29,1.34-4.29,3.36v.02c0,2.06,1.56,3.38,3.71,3.38Zm-1.17-3.5v-.02c0-.93,.67-1.46,2.11-1.55l2.54-.17v.91c0,1.34-1.15,2.36-2.7,2.36-1.14,0-1.95-.57-1.95-1.53Zm10.28,3.32h2.57v-6.56c0-1.61,1.13-2.64,2.84-2.64,.44,0,.87,.06,1.28,.14v-2.3c-.25-.07-.65-.12-1.04-.12-1.49,0-2.52,.71-2.9,1.92h-.18v-1.74h-2.57v11.3Zm10.13-13.19c.84,0,1.53-.67,1.53-1.52s-.69-1.52-1.53-1.52-1.54,.68-1.54,1.52,.69,1.52,1.54,1.52Zm-1.29,13.19h2.57v-11.3h-2.57v11.3Zm10.61,.23c3.38,0,5.44-2.21,5.44-5.87v-.02c0-3.64-2.07-5.85-5.44-5.85s-5.44,2.22-5.44,5.85v.02c0,3.66,2.05,5.87,5.44,5.87Zm0-2.09c-1.79,0-2.81-1.4-2.81-3.77v-.02c0-2.38,1.02-3.78,2.81-3.78s2.8,1.41,2.8,3.78v.02c0,2.38-1.01,3.77-2.8,3.77Zm17.64,1.86h2.67v-12.67h4.6v-2.24h-11.85v2.24h4.59v12.67Zm10.9-13.19c.84,0,1.53-.67,1.53-1.52s-.69-1.52-1.53-1.52-1.54,.68-1.54,1.52,.69,1.52,1.54,1.52Zm-1.29,13.19h2.57v-11.3h-2.57v11.3Zm10.18,.05c.5,0,.97-.04,1.34-.11v-1.98c-.31,.03-.51,.04-.87,.04-1.08,0-1.52-.48-1.52-1.6v-5.69h2.39v-1.99h-2.39v-2.77h-2.62v2.77h-1.76v1.99h1.76v6.3c0,2.18,1.06,3.05,3.66,3.05Zm4.01-.05h2.57v-15.67h-2.57v15.67Zm10.66,.23c3.07,0,4.58-1.77,4.94-3.22l.03-.09h-2.45l-.03,.07c-.25,.52-1.04,1.22-2.44,1.22-1.75,0-2.84-1.18-2.87-3.2h7.9v-.85c0-3.41-1.98-5.66-5.2-5.66s-5.27,2.33-5.27,5.88h0c0,3.61,2.04,5.86,5.39,5.86Zm-.09-9.72c1.44,0,2.48,.92,2.66,2.77h-5.36c.2-1.8,1.27-2.77,2.71-2.77Z" style="fill:#fff;"/><path d="M357.54,39.06c.57-2.36,3.93-2.36,4.5,0,.37,1.52,2.12,2.25,3.46,1.43,2.07-1.26,4.45,1.11,3.18,3.18-.82,1.34-.09,3.09,1.43,3.46,2.36,.57,2.36,3.93,0,4.5-1.52,.37-2.25,2.12-1.43,3.46,1.26,2.07-1.11,4.45-3.18,3.18-1.34-.82-3.09-.09-3.46,1.43-.57,2.36-3.93,2.36-4.5,0-.37-1.52-2.12-2.25-3.46-1.43-2.07,1.26-4.45-1.11-3.18-3.18,.82-1.34,.09-3.09-1.43-3.46-2.36-.57-2.36-3.93,0-4.5,1.52-.37,2.25-2.12,1.43-3.46-1.26-2.07,1.11-4.45,3.18-3.18,1.34,.82,3.09,.09,3.46-1.43Z" style="fill:none; stroke:#f09436; stroke-linecap:round; stroke-linejoin:round; stroke-width:2px;"/><path d="M363.82,49.38c0,2.23-1.8,4.03-4.03,4.03s-4.03-1.8-4.03-4.03,1.8-4.03,4.03-4.03,4.03,1.8,4.03,4.03Z" style="fill:none; stroke:#f09436; stroke-linecap:round; stroke-linejoin:round; stroke-width:2px;"/><path d="M956.41,57.45h.01m-6.73,4.03h13.44c1.48,0,2.69-1.2,2.69-2.69v-18.81c0-1.48-1.2-2.69-2.69-2.69h-13.44c-1.48,0-2.69,1.2-2.69,2.69v18.81c0,1.48,1.2,2.69,2.69,2.69Z" style="fill:none; stroke:#f09436; stroke-linecap:round; stroke-linejoin:round; stroke-width:2px;"/><path d="M1012.85,46.96c-5.84-5.84-15.32-5.84-21.17,0-.53,.53-1.39,.53-1.92,0-.53-.53-.53-1.39,0-1.92,6.91-6.91,18.11-6.91,25.01,0,.53,.53,.53,1.39,0,1.92-.53,.53-1.39,.53-1.92,0Zm-3.85,3.85c-3.72-3.72-9.75-3.72-13.47,0-.53,.53-1.39,.53-1.92,0-.53-.53-.53-1.39,0-1.92,4.78-4.78,12.53-4.78,17.32,0,.53,.53,.53,1.39,0,1.92-.53,.53-1.39,.53-1.92,0Zm-3.85,3.85c-1.59-1.59-4.18-1.59-5.77,0-.53,.53-1.39,.53-1.92,0-.53-.53-.53-1.39,0-1.92,2.66-2.66,6.96-2.66,9.62,0,.53,.53,.53,1.39,0,1.92-.53,.53-1.39,.53-1.92,0Zm-4.25,2.89c0-.75,.61-1.36,1.36-1.36h.01c.75,0,1.36,.61,1.36,1.36s-.61,1.36-1.36,1.36h-.01c-.75,0-1.36-.61-1.36-1.36Z" style="fill:#f09436; fill-rule:evenodd;"/><line x1="1032.5" y1="34.77" x2="1032.5" y2="64" style="fill:none; stroke:#2f3136;"/><circle cx="1059.21" cy="43.34" r="4.03" style="fill:none; stroke:#f09436; stroke-width:2px;"/><circle cx="1065.26" cy="56.44" r="4.03" style="fill:none; stroke:#f09436; stroke-width:2px;"/><path d="M1064.25,43.34h8.06" style="fill:none; stroke:#f09436; stroke-linecap:round; stroke-width:4px;"/><path d="M1070.3,56.44h2.02" style="fill:none; stroke:#f09436; stroke-linecap:round; stroke-width:4px;"/><path d="M1052.16,56.44h8.06" style="fill:none; stroke:#f09436; stroke-linecap:round; stroke-width:4px;"/><path d="M1052.16,43.34h2.02" style="fill:none; stroke:#f09436; stroke-linecap:round; stroke-width:4px;"/><path d="M1107.92,41.32h21.51m-21.51,5.37h21.51m-21.51,5.38h21.51m-21.51,5.37h21.51" style="fill:none; stroke:#f09436; stroke-linecap:round; stroke-linejoin:round; stroke-width:2px;"/><path d="M1179.86,44.63c2.63,2.62,2.63,6.88,0,9.5m3.81-13.3c4.72,4.72,4.72,12.38,0,17.1m-17.17-4.52h-2.14c-.74,0-1.34-.6-1.34-1.34v-5.38c0-.74,.6-1.34,1.34-1.34h2.14l6.32-6.33c.85-.85,2.3-.25,2.3,.95v18.81c0,1.2-1.45,1.8-2.3,.95l-6.32-6.33Z" style="fill:none; stroke:#f09436; stroke-linecap:round; stroke-linejoin:round; stroke-width:2px;"/><path d="M1220.79,54.76l6.17-6.16c1.05-1.05,2.75-1.05,3.8,0l6.16,6.16m-2.68-2.69l2.13-2.13c1.05-1.05,2.75-1.05,3.8,0l2.14,2.13m-8.06-8.06h.01m-10.76,16.12h16.12c1.48,0,2.69-1.2,2.69-2.69v-16.12c0-1.48-1.21-2.69-2.69-2.69h-16.12c-1.48,0-2.69,1.2-2.69,2.69v16.12c0,1.48,1.21,2.69,2.69,2.69Z" style="fill:none; stroke:#f09436; stroke-linecap:round; stroke-linejoin:round; stroke-width:2px;"/><path d="M1297.96,53.99c-.37-.38-.85-.63-1.37-.73l-3.2-.64c-1.76-.35-3.59-.11-5.19,.69l-.42,.21c-1.6,.8-3.43,1.05-5.19,.69l-2.59-.52c-.89-.18-1.79,.1-2.43,.73m5.05-15.8h10.74l-1.34,1.34v6.95c0,.71,.28,1.4,.79,1.9l6.72,6.72c1.69,1.69,.49,4.59-1.9,4.59h-19.27c-2.4,0-3.6-2.89-1.9-4.59l6.72-6.72c.5-.5,.79-1.19,.79-1.9v-6.95l-1.34-1.34Z" style="fill:none; stroke:#f09436; stroke-linecap:round; stroke-linejoin:round; stroke-width:2px;"/><path d="M1341.11,51.36c-.39-.39-1.04-.39-1.43,0-.39,.39-.39,1.03,0,1.43l1.43-1.43Zm1.98,3.4l-.72,.71c.39,.39,1.03,.39,1.42,0l-.71-.71Zm6.09-4.66c.39-.39,.39-1.03,0-1.43s-1.04-.39-1.43,0l1.43,1.43Zm3.65-7.43v16.12h2.02v-16.12h-2.02Zm-1.67,17.8h-13.44v2.02h13.44v-2.02Zm-15.12-1.68v-16.12h-2.02v16.12h2.02Zm1.67-17.8h2.69v-2.02h-2.69v2.02Zm10.75,0h2.69v-2.02h-2.69v2.02Zm-10.75,19.48c-.93,0-1.67-.75-1.67-1.68h-2.02c0,2.04,1.65,3.7,3.69,3.7v-2.02Zm15.12-1.68c0,.93-.75,1.68-1.67,1.68v2.02c2.04,0,3.69-1.65,3.69-3.7h-2.02Zm2.02-16.12c0-2.04-1.65-3.7-3.69-3.7v2.02c.93,0,1.67,.75,1.67,1.68h2.02Zm-18.81,0c0-.93,.75-1.68,1.67-1.68v-2.02c-2.04,0-3.69,1.65-3.69,3.7h2.02Zm3.65,10.12l2.69,2.69,1.42-1.43-2.68-2.69-1.43,1.43Zm4.11,2.69l5.38-5.37-1.43-1.43-5.37,5.37,1.42,1.43Zm-.71-17.17h2.68v-2.02h-2.68v2.02Zm2.68,3.36h-2.68v2.02h2.68v-2.02Zm-2.68,0c-.93,0-1.68-.75-1.68-1.68h-2.02c0,2.04,1.65,3.7,3.7,3.7v-2.02Zm4.36-1.68c0,.93-.76,1.68-1.68,1.68v2.02c2.05,0,3.7-1.65,3.7-3.7h-2.02Zm-1.68-1.68c.93,0,1.68,.75,1.68,1.68h2.02c0-2.04-1.65-3.7-3.7-3.7v2.02Zm-2.68-2.02c-2.05,0-3.7,1.65-3.7,3.7h2.02c0-.93,.76-1.68,1.68-1.68v-2.02Z" style="fill:#f09436;"/><line x1="5.34" y1="74.07" x2="1371.34" y2="74.07" style="fill:none; stroke:#2f3136;"/><path d="M64.5,23.18c0,1.67-1.35,3.02-3.02,3.02s-3.02-1.35-3.02-3.02,1.35-3.02,3.02-3.02,3.02,1.35,3.02,3.02Z" style="fill:none; stroke:#111827; stroke-linecap:round; stroke-linejoin:round; stroke-width:2px;"/></svg>