<?xml version="1.0" encoding="UTF-8"?><svg id="Transport" xmlns="http://www.w3.org/2000/svg" viewBox="0 0 1381.34 1032"><rect x="5.34" y="938" width="1366" height="90" style="fill:#131316;"/><path d="M25.98,974.25c2.37,0,3.85-1.2,3.85-3.12h0c0-1.5-.87-2.33-2.95-2.77l-1.06-.23c-1.23-.26-1.73-.7-1.73-1.4h0c0-.85,.78-1.36,1.87-1.36,1.13,0,1.86,.54,1.98,1.31v.08h1.7v-.09c-.13-1.59-1.49-2.78-3.68-2.78s-3.65,1.19-3.65,2.95h0c0,1.48,.88,2.42,2.89,2.84l1.06,.22c1.27,.27,1.78,.7,1.78,1.41h0c0,.85-.83,1.44-2.02,1.44-1.25,0-2.13-.55-2.21-1.37v-.07h-1.72v.1c.13,1.7,1.59,2.83,3.88,2.83Zm8.85-.1c2.03,0,3.03-1.17,3.27-2.13l.02-.06h-1.62l-.02,.05c-.16,.34-.69,.81-1.61,.81-1.16,0-1.88-.78-1.9-2.12h5.22v-.56c0-2.26-1.31-3.75-3.44-3.75s-3.49,1.54-3.49,3.89h0c0,2.39,1.35,3.88,3.57,3.88Zm-.06-6.43c.95,0,1.64,.61,1.76,1.83h-3.55c.13-1.19,.84-1.83,1.79-1.83Zm7.94,6.43c1.84,0,3.17-.95,3.17-2.37h0c0-1.1-.69-1.72-2.15-2.05l-1.21-.27c-.81-.18-1.12-.45-1.12-.89h0c0-.57,.55-.94,1.31-.94,.8,0,1.29,.38,1.42,.85v.02h1.61c-.11-1.22-1.2-2.13-3.01-2.13s-2.99,.93-2.99,2.28h0c0,1.11,.68,1.78,2.1,2.09l1.21,.27c.82,.18,1.15,.47,1.15,.91h0c0,.57-.59,.96-1.44,.96s-1.35-.36-1.52-.88h0s-1.69-.01-1.69-.01h0c.14,1.28,1.29,2.15,3.19,2.15Zm7.57,0c1.84,0,3.17-.95,3.17-2.37h0c0-1.1-.69-1.72-2.15-2.05l-1.21-.27c-.81-.18-1.12-.45-1.12-.89h0c0-.57,.55-.94,1.31-.94,.8,0,1.29,.38,1.41,.85v.02h1.61c-.11-1.22-1.2-2.13-3.01-2.13s-2.99,.93-2.99,2.28h0c0,1.11,.68,1.78,2.1,2.09l1.21,.27c.82,.18,1.15,.47,1.15,.91h0c0,.57-.59,.96-1.44,.96s-1.35-.36-1.52-.88h0s-1.69-.01-1.69-.01h0c.14,1.28,1.29,2.15,3.19,2.15Zm5.76-8.87c.55,0,1.01-.44,1.01-1.01s-.46-1-1.01-1-1.02,.45-1.02,1,.46,1.01,1.02,1.01Zm-.85,8.72h1.7v-7.47h-1.7v7.47Zm7.02,.15c2.24,0,3.6-1.46,3.6-3.88h0c0-2.42-1.37-3.88-3.6-3.88s-3.6,1.47-3.6,3.87h0c0,2.43,1.35,3.9,3.6,3.9Zm0-1.38c-1.18,0-1.86-.92-1.86-2.5h0c0-1.59,.68-2.52,1.86-2.52s1.85,.93,1.85,2.5h0c0,1.59-.67,2.51-1.85,2.51Zm5.3,1.23h1.7v-4.35c0-1.12,.63-1.83,1.64-1.83s1.5,.59,1.5,1.75v4.44h1.7v-4.83c0-1.78-.91-2.78-2.58-2.78-1.08,0-1.8,.48-2.15,1.28h-.12v-1.14h-1.7v7.47Zm14.92,0h1.76v-8.38h3.04v-1.48h-7.84v1.48h3.04v8.38Zm7.21-8.72c.55,0,1.01-.44,1.01-1.01s-.46-1-1.01-1-1.02,.45-1.02,1,.46,1.01,1.02,1.01Zm-.85,8.72h1.7v-7.47h-1.7v7.47Zm3.79,0h1.7v-4.55c0-.93,.62-1.64,1.46-1.64s1.35,.51,1.35,1.34v4.85h1.7v-4.67c0-.85,.57-1.52,1.46-1.52s1.35,.49,1.35,1.46v4.72h1.7v-5.14c0-1.55-.9-2.47-2.41-2.47-1.04,0-1.9,.53-2.26,1.35h-.12c-.32-.83-1.06-1.35-2.07-1.35s-1.73,.47-2.05,1.3h-.12v-1.16h-1.7v7.47Zm15.94,.15c2.03,0,3.03-1.17,3.27-2.13l.02-.06h-1.62l-.02,.05c-.16,.34-.69,.81-1.61,.81-1.15,0-1.88-.78-1.9-2.12h5.22v-.56c0-2.26-1.31-3.75-3.44-3.75s-3.49,1.54-3.49,3.89h0c0,2.39,1.35,3.88,3.57,3.88Zm-.06-6.43c.95,0,1.64,.61,1.76,1.83h-3.55c.13-1.19,.84-1.83,1.79-1.83Zm-80.17,31.65c3.52,0,5.65-2.98,5.65-7.76v-.02c0-4.78-2.13-7.75-5.65-7.75s-5.63,2.97-5.63,7.75v.02c0,4.78,2.11,7.76,5.63,7.76Zm0-2.14c-1.89,0-2.96-2.11-2.96-5.62v-.02c0-3.51,1.08-5.6,2.96-5.6s2.98,2.09,2.98,5.6v.02c0,3.51-1.1,5.62-2.98,5.62Zm13.97,2.14c3.52,0,5.65-2.98,5.65-7.76v-.02c0-4.78-2.13-7.75-5.65-7.75s-5.63,2.97-5.63,7.75v.02c0,4.78,2.11,7.76,5.63,7.76Zm0-2.14c-1.89,0-2.96-2.11-2.96-5.62v-.02c0-3.51,1.08-5.6,2.96-5.6s2.98,2.09,2.98,5.6v.02c0,3.51-1.1,5.62-2.98,5.62Zm10.35-7.81c.94,0,1.63-.72,1.63-1.62s-.69-1.62-1.63-1.62-1.63,.71-1.63,1.62,.7,1.62,1.63,1.62Zm0,7.61c.94,0,1.63-.71,1.63-1.62s-.69-1.62-1.63-1.62-1.63,.71-1.63,1.62,.7,1.62,1.63,1.62Zm10.33,2.35c3.52,0,5.65-2.98,5.65-7.76v-.02c0-4.78-2.13-7.75-5.65-7.75s-5.63,2.97-5.63,7.75v.02c0,4.78,2.11,7.76,5.63,7.76Zm0-2.14c-1.89,0-2.96-2.11-2.96-5.62v-.02c0-3.51,1.08-5.6,2.96-5.6s2.98,2.09,2.98,5.6v.02c0,3.51-1.1,5.62-2.98,5.62Zm13.97,2.14c3.52,0,5.65-2.98,5.65-7.76v-.02c0-4.78-2.13-7.75-5.65-7.75s-5.63,2.97-5.63,7.75v.02c0,4.78,2.11,7.76,5.63,7.76Zm0-2.14c-1.89,0-2.96-2.11-2.96-5.62v-.02c0-3.51,1.08-5.6,2.96-5.6s2.98,2.09,2.98,5.6v.02c0,3.51-1.1,5.62-2.98,5.62Zm10.35-7.81c.94,0,1.63-.72,1.63-1.62s-.69-1.62-1.63-1.62-1.63,.71-1.63,1.62,.7,1.62,1.63,1.62Zm0,7.61c.94,0,1.63-.71,1.63-1.62s-.69-1.62-1.63-1.62-1.63,.71-1.63,1.62,.7,1.62,1.63,1.62Zm8.62,1.98h2.65v-14.8h-2.64l-3.87,2.72v2.49l3.68-2.61h.17v12.19Zm12.18,.37c3.52,0,5.65-2.98,5.65-7.76v-.02c0-4.78-2.13-7.75-5.65-7.75s-5.63,2.97-5.63,7.75v.02c0,4.78,2.11,7.76,5.63,7.76Zm0-2.14c-1.89,0-2.96-2.11-2.96-5.62v-.02c0-3.51,1.08-5.6,2.96-5.6s2.98,2.09,2.98,5.6v.02c0,3.51-1.1,5.62-2.98,5.62Zm18.99,2c3.35,0,5.39-2.2,5.39-5.83v-.02c0-3.61-2.05-5.8-5.39-5.8s-5.39,2.2-5.39,5.8v.02c0,3.63,2.03,5.83,5.39,5.83Zm0-2.07c-1.77,0-2.79-1.38-2.79-3.74v-.02c0-2.36,1.01-3.75,2.79-3.75s2.78,1.4,2.78,3.75v.02c0,2.36-1.01,3.74-2.78,3.74Zm8.78,1.85h2.55v-9.23h2.39v-1.98h-2.43v-.96c0-1.07,.46-1.64,1.66-1.64,.36,0,.68,.02,.87,.05v-1.78c-.41-.07-.87-.1-1.41-.1-2.49,0-3.63,1.1-3.63,3.33v1.11h-1.83v1.98h1.83v9.23Zm16.61,0h2.65v-14.8h-2.63l-3.87,2.72v2.49l3.68-2.61h.17v12.19Zm8.66-9.59c.94,0,1.63-.72,1.63-1.62s-.69-1.62-1.63-1.62-1.63,.71-1.63,1.62,.7,1.62,1.63,1.62Zm0,7.61c.94,0,1.63-.71,1.63-1.62s-.69-1.62-1.63-1.62-1.63,.71-1.63,1.62,.7,1.62,1.63,1.62Zm10.33,2.35c3.52,0,5.65-2.98,5.65-7.76v-.02c0-4.78-2.13-7.75-5.65-7.75s-5.63,2.97-5.63,7.75v.02c0,4.78,2.11,7.76,5.63,7.76Zm0-2.14c-1.89,0-2.96-2.11-2.96-5.62v-.02c0-3.51,1.08-5.6,2.96-5.6s2.98,2.09,2.98,5.6v.02c0,3.51-1.1,5.62-2.98,5.62Zm13.96,2.14c3.52,0,5.65-2.98,5.65-7.76v-.02c0-4.78-2.13-7.75-5.65-7.75s-5.63,2.97-5.63,7.75v.02c0,4.78,2.11,7.76,5.63,7.76Zm0-2.14c-1.89,0-2.96-2.11-2.96-5.62v-.02c0-3.51,1.08-5.6,2.96-5.6s2.98,2.09,2.98,5.6v.02c0,3.51-1.1,5.62-2.98,5.62Z" style="fill:#fff;"/><path d="M276.84,965.17v5.33l4,4m8-4c0,6.63-5.37,12-12,12s-12-5.37-12-12,5.37-12,12-12,12,5.37,12,12Z" style="fill:none; stroke:#f09436; stroke-linecap:round; stroke-linejoin:round; stroke-width:2px;"/><path d="M234.55,1007.5h1.76v-4.03h4.14v-1.44h-4.14v-2.92h4.53v-1.48h-6.29v9.86Zm9.71,.12c.98,0,1.78-.42,2.19-1.15h.12v1.03h1.68v-5.11c0-1.58-1.08-2.51-3-2.51-1.78,0-2.98,.83-3.14,2.09v.06s1.6,0,1.6,0v-.03c.18-.49,.68-.77,1.46-.77,.92,0,1.4,.41,1.4,1.16v.64l-1.92,.12c-1.82,.11-2.84,.89-2.84,2.22v.02c0,1.36,1.03,2.23,2.45,2.23Zm-.77-2.31v-.02c0-.61,.44-.96,1.4-1.02l1.68-.11v.6c0,.89-.76,1.56-1.79,1.56-.75,0-1.29-.38-1.29-1.01Zm9.62,2.34c1.84,0,3.17-.95,3.17-2.37v-.02c0-1.08-.69-1.7-2.15-2.03l-1.21-.27c-.81-.18-1.12-.45-1.12-.89h0c0-.57,.55-.94,1.31-.94,.8,0,1.29,.38,1.41,.85v.02h1.61c-.11-1.22-1.2-2.13-3.01-2.13s-2.99,.93-2.99,2.28h0c0,1.11,.68,1.78,2.1,2.09l1.21,.28c.82,.18,1.15,.47,1.15,.91h0c0,.57-.59,.95-1.43,.95s-1.35-.36-1.52-.88h0s-1.69-.01-1.69-.01h0c.14,1.28,1.29,2.15,3.19,2.15Zm7.77-.12c.33,0,.64-.02,.89-.07v-1.31c-.21,.02-.33,.02-.57,.02-.71,0-1.01-.31-1.01-1.06v-3.76h1.58v-1.32h-1.58v-1.83h-1.73v1.83h-1.16v1.32h1.16v4.17c0,1.44,.7,2.01,2.42,2.01Zm6.86-.03h1.7v-6.15h1.59v-1.32h-1.62v-.64c0-.71,.31-1.09,1.11-1.09,.24,0,.45,.01,.58,.03v-1.19c-.27-.05-.58-.07-.94-.07-1.66,0-2.42,.73-2.42,2.22v.74h-1.22v1.32h1.22v6.15Zm7.89,.15c2.24,0,3.6-1.46,3.6-3.88h0c0-2.42-1.37-3.88-3.6-3.88s-3.6,1.47-3.6,3.87h0c0,2.44,1.35,3.9,3.6,3.9Zm0-1.38c-1.18,0-1.86-.92-1.86-2.5h0c0-1.59,.68-2.52,1.86-2.52s1.85,.93,1.85,2.5h0c0,1.59-.67,2.51-1.85,2.51Zm5.3,1.23h1.7v-4.34c0-1.07,.74-1.74,1.88-1.74,.29,0,.57,.04,.85,.1v-1.53c-.16-.05-.43-.08-.69-.08-.99,0-1.67,.47-1.92,1.27h-.12v-1.15h-1.7v7.47Zm7.32,0h1.76l1.45-5.41h.12l1.46,5.41h1.78l2.02-7.47h-1.69l-1.24,5.61h-.12l-1.45-5.61h-1.62l-1.43,5.61h-.12l-1.24-5.61h-1.71l2.02,7.47Zm11.91,.12c.98,0,1.78-.42,2.19-1.15h.12v1.03h1.68v-5.11c0-1.58-1.08-2.51-3-2.51-1.78,0-2.98,.83-3.14,2.09v.06s1.6,0,1.6,0v-.03c.18-.49,.68-.77,1.46-.77,.92,0,1.4,.41,1.4,1.16v.64l-1.92,.12c-1.82,.11-2.84,.89-2.84,2.22v.02c0,1.36,1.03,2.23,2.45,2.23Zm-.77-2.31v-.02c0-.61,.44-.96,1.39-1.02l1.68-.11v.6c0,.89-.76,1.56-1.78,1.56-.75,0-1.29-.38-1.29-1.01Zm6.8,2.19h1.7v-4.34c0-1.07,.74-1.74,1.88-1.74,.29,0,.58,.04,.85,.1v-1.53c-.16-.05-.43-.08-.69-.08-.98,0-1.67,.47-1.92,1.27h-.12v-1.15h-1.7v7.47Zm8.33,.12c1.05,0,1.86-.48,2.27-1.29h.12v1.17h1.71v-10.36h-1.71v4.08h-.12c-.39-.81-1.24-1.31-2.27-1.31-1.89,0-3.06,1.48-3.06,3.86h0c0,2.38,1.19,3.86,3.06,3.86Zm.53-1.43c-1.16,0-1.87-.91-1.87-2.42h0c0-1.52,.71-2.43,1.87-2.43s1.88,.92,1.88,2.42h0c0,1.51-.72,2.43-1.88,2.43Z" style="fill:#4c4e57;"/><line x1="360.84" y1="968.5" x2="360.84" y2="997.5" style="fill:none; stroke:#4c4e57;"/><path d="M428.34,970.5c0,6.63-5.37,12-12,12s-12-5.37-12-12,5.37-12,12-12,12,5.37,12,12Z" style="fill:none; stroke:#f09436; stroke-linecap:round; stroke-linejoin:round; stroke-width:2px;"/><path d="M412.34,967.83c0-.74,.6-1.33,1.33-1.33h5.33c.74,0,1.33,.6,1.33,1.33v5.33c0,.74-.6,1.33-1.33,1.33h-5.33c-.74,0-1.33-.6-1.33-1.33v-5.33Z" style="fill:none; stroke:#f09436; stroke-linecap:round; stroke-linejoin:round; stroke-width:2px;"/><path d="M404.05,1007.5h6.38v-1.48h-4.62v-2.83h4.37v-1.4h-4.37v-2.67h4.62v-1.48h-6.38v9.86Zm8.39,0h1.7v-4.35c0-1.12,.63-1.83,1.64-1.83s1.5,.59,1.5,1.75v4.44h1.7v-4.83c0-1.78-.91-2.78-2.58-2.78-1.08,0-1.8,.48-2.15,1.28h-.12v-1.14h-1.7v7.47Zm11.25,.12c1.05,0,1.86-.48,2.27-1.29h.12v1.17h1.71v-10.36h-1.71v4.08h-.12c-.39-.81-1.24-1.31-2.27-1.31-1.89,0-3.06,1.48-3.06,3.86h0c0,2.38,1.19,3.86,3.06,3.86Zm.53-1.43c-1.16,0-1.87-.91-1.87-2.42h0c0-1.52,.71-2.43,1.87-2.43s1.88,.92,1.88,2.42h0c0,1.51-.72,2.43-1.88,2.43Z" style="fill:#4c4e57;"/><path d="M498.67,966.5v8m5.33-8v8m9.33-4c0,6.63-5.37,12-12,12s-12-5.37-12-12,5.37-12,12-12,12,5.37,12,12Z" style="fill:none; stroke:#f09436; stroke-linecap:round; stroke-linejoin:round; stroke-width:2px;"/><path d="M481.55,1007.5h1.76v-3.26h2.17c2,0,3.36-1.33,3.36-3.3h0c0-1.99-1.35-3.31-3.36-3.31h-3.94v9.86Zm3.51-8.42c1.26,0,2,.68,2,1.86h0c0,1.2-.74,1.88-2,1.88h-1.74v-3.74h1.74Zm7.32,8.54c.98,0,1.78-.42,2.19-1.15h.12v1.03h1.68v-5.11c0-1.58-1.08-2.51-3-2.51-1.78,0-2.98,.83-3.14,2.09v.06s1.6,0,1.6,0v-.03c.18-.49,.68-.77,1.46-.77,.92,0,1.4,.41,1.4,1.16v.64l-1.92,.12c-1.82,.11-2.84,.89-2.84,2.22v.02c0,1.36,1.03,2.23,2.45,2.23Zm-.77-2.31v-.02c0-.61,.45-.96,1.39-1.02l1.68-.11v.6c0,.89-.76,1.56-1.79,1.56-.75,0-1.29-.38-1.29-1.01Zm9.28,2.34c1.08,0,1.84-.48,2.19-1.28h.12v1.13h1.7v-7.47h-1.7v4.35c0,1.12-.59,1.83-1.69,1.83-1.02,0-1.46-.58-1.46-1.74v-4.44h-1.7v4.83c0,1.78,.86,2.79,2.54,2.79Zm8.91,0c1.84,0,3.17-.95,3.17-2.37v-.02c0-1.08-.69-1.7-2.15-2.03l-1.21-.27c-.81-.18-1.12-.45-1.12-.89h0c0-.57,.55-.94,1.3-.94,.8,0,1.29,.38,1.42,.85v.02h1.61c-.11-1.22-1.2-2.13-3.02-2.13s-2.99,.93-2.99,2.28h0c0,1.11,.68,1.78,2.1,2.09l1.21,.28c.82,.18,1.15,.47,1.15,.91h0c0,.57-.59,.95-1.44,.95s-1.35-.36-1.52-.88h0s-1.69-.01-1.69-.01h0c.14,1.28,1.29,2.15,3.19,2.15Zm8.09,0c2.03,0,3.03-1.17,3.27-2.13l.02-.06h-1.62l-.02,.04c-.16,.35-.69,.81-1.61,.81-1.16,0-1.88-.78-1.9-2.12h5.22v-.56c0-2.26-1.31-3.75-3.44-3.75s-3.49,1.54-3.49,3.89h0c0,2.39,1.35,3.88,3.57,3.88Zm-.06-6.43c.95,0,1.64,.61,1.76,1.83h-3.55c.13-1.19,.84-1.83,1.79-1.83Z" style="fill:#4c4e57;"/><line x1="562.84" y1="968.5" x2="562.84" y2="997.5" style="fill:none; stroke:#4c4e57;"/><path d="M643.67,965.17h13.33m-13.33,5.33h5.33m1.33,10.67l-5.33-5.33h-4c-1.47,0-2.67-1.19-2.67-2.67v-10.67c0-1.47,1.19-2.67,2.67-2.67h18.67c1.47,0,2.67,1.19,2.67,2.67v10.67c0,1.47-1.19,2.67-2.67,2.67h-4l-5.33,5.33Z" style="fill:none; stroke:#f09436; stroke-linecap:round; stroke-linejoin:round; stroke-width:2px;"/><path d="M602.82,1007.5h1.85l.82-2.55h3.65l.83,2.55h1.85l-3.5-9.86h-1.99l-3.5,9.86Zm4.44-8.03h.12l1.33,4.12h-2.77l1.33-4.12Zm8.35,8.15c1.05,0,1.86-.48,2.27-1.29h.12v1.17h1.71v-10.36h-1.71v4.08h-.12c-.39-.81-1.24-1.31-2.27-1.31-1.89,0-3.06,1.48-3.06,3.86h0c0,2.38,1.19,3.86,3.06,3.86Zm.53-1.43c-1.16,0-1.87-.91-1.87-2.42h0c0-1.52,.71-2.43,1.87-2.43s1.88,.92,1.88,2.42h0c0,1.51-.72,2.43-1.88,2.43Zm8.39,1.43c1.05,0,1.86-.48,2.27-1.29h.12v1.17h1.71v-10.36h-1.71v4.08h-.12c-.39-.81-1.24-1.31-2.27-1.31-1.89,0-3.06,1.48-3.06,3.86h0c0,2.38,1.19,3.86,3.06,3.86Zm.53-1.43c-1.16,0-1.87-.91-1.87-2.42h0c0-1.52,.71-2.43,1.87-2.43s1.88,.92,1.88,2.42h0c0,1.51-.72,2.43-1.88,2.43Zm12.64,1.46c1.89,0,2.99-1.02,3.24-2.55v-.05s-1.59,0-1.59,0v.03c-.23,.79-.77,1.19-1.65,1.19-1.15,0-1.85-.93-1.85-2.52h0c0-1.58,.68-2.5,1.85-2.5,.93,0,1.48,.52,1.64,1.24v.02h1.61v-.03c-.19-1.54-1.34-2.61-3.26-2.61-2.25,0-3.57,1.44-3.57,3.85h0c0,2.45,1.33,3.91,3.57,3.91Zm8.1,0c2.23,0,3.6-1.46,3.6-3.88h0c0-2.42-1.37-3.88-3.6-3.88s-3.6,1.47-3.6,3.87h0c0,2.44,1.35,3.9,3.6,3.9Zm0-1.38c-1.18,0-1.86-.92-1.86-2.5h0c0-1.59,.68-2.52,1.86-2.52s1.85,.93,1.85,2.5h0c0,1.59-.67,2.51-1.85,2.51Zm5.3,1.23h1.7v-4.55c0-.93,.62-1.64,1.46-1.64s1.35,.51,1.35,1.34v4.85h1.7v-4.67c0-.85,.57-1.52,1.46-1.52s1.35,.49,1.35,1.46v4.72h1.7v-5.14c0-1.55-.9-2.47-2.41-2.47-1.04,0-1.9,.53-2.26,1.35h-.12c-.32-.83-1.06-1.35-2.07-1.35s-1.73,.47-2.05,1.3h-.12v-1.16h-1.7v7.47Zm12.74,0h1.7v-4.55c0-.93,.61-1.64,1.46-1.64s1.35,.51,1.35,1.34v4.85h1.7v-4.67c0-.85,.58-1.52,1.46-1.52s1.35,.49,1.35,1.46v4.72h1.7v-5.14c0-1.55-.9-2.47-2.41-2.47-1.04,0-1.9,.53-2.26,1.35h-.12c-.32-.83-1.06-1.35-2.07-1.35s-1.73,.47-2.05,1.3h-.12v-1.16h-1.7v7.47Zm15.94,.15c2.03,0,3.03-1.17,3.27-2.13l.02-.06h-1.62l-.02,.04c-.16,.35-.69,.81-1.61,.81-1.16,0-1.88-.78-1.9-2.12h5.22v-.56c0-2.26-1.31-3.75-3.44-3.75s-3.49,1.54-3.49,3.89h0c0,2.39,1.35,3.88,3.57,3.88Zm-.06-6.43c.95,0,1.64,.61,1.76,1.83h-3.55c.13-1.19,.84-1.83,1.79-1.83Zm5.12,6.28h1.7v-4.35c0-1.12,.63-1.83,1.64-1.83s1.5,.59,1.5,1.75v4.44h1.7v-4.83c0-1.78-.91-2.78-2.58-2.78-1.08,0-1.8,.48-2.15,1.28h-.12v-1.14h-1.7v7.47Zm11.5,.03c.33,0,.64-.02,.89-.07v-1.31c-.2,.02-.33,.02-.57,.02-.71,0-1.01-.31-1.01-1.06v-3.76h1.58v-1.32h-1.58v-1.83h-1.73v1.83h-1.16v1.32h1.16v4.17c0,1.44,.7,2.01,2.42,2.01Z" style="fill:#4c4e57;"/><line x1="738.84" y1="968.5" x2="738.84" y2="997.5" style="fill:none; stroke:#4c4e57;"/><line x1="944.84" y1="968.5" x2="944.84" y2="997.5" style="fill:none; stroke:#4c4e57;"/><path d="M1009.34,970.5h-10m20,0c0,8.28-6.72,15-15,15s-15-6.72-15-15,6.72-15,15-15,15,6.72,15,15Z" style="fill:none; stroke:#f09436; stroke-linecap:round; stroke-linejoin:round; stroke-width:2px;"/><path d="M1035.22,974v-8.5h2.06v8.5h-2.06Zm7.63,0v-3.26c0-.17-.01-.33-.05-.48-.02-.15-.06-.28-.13-.4-.06-.12-.15-.21-.27-.28-.12-.07-.26-.11-.44-.11-.17,0-.33,.04-.46,.11-.13,.06-.24,.16-.33,.28-.09,.12-.15,.26-.2,.42-.04,.15-.06,.31-.06,.48v3.24h-1.98v-5.98h1.91v.83h.02c.07-.13,.16-.25,.28-.37,.12-.13,.25-.24,.4-.32,.16-.09,.34-.16,.52-.22,.18-.06,.38-.08,.59-.08,.4,0,.74,.07,1.02,.22,.28,.14,.5,.33,.67,.56,.18,.22,.3,.48,.37,.78,.08,.3,.12,.59,.12,.89v3.7h-1.98Zm6.99-4.21c-.16-.15-.35-.28-.57-.38-.21-.1-.44-.16-.68-.16-.18,0-.36,.04-.52,.11-.15,.07-.22,.2-.22,.37s.08,.29,.25,.36c.17,.07,.45,.15,.84,.24,.22,.05,.45,.12,.67,.2,.23,.09,.44,.2,.62,.35,.19,.14,.34,.32,.45,.53s.17,.46,.17,.74c0,.38-.08,.7-.23,.96-.15,.26-.35,.46-.6,.62-.24,.16-.51,.28-.82,.35-.3,.07-.61,.11-.91,.11-.49,0-.97-.08-1.44-.23-.46-.16-.85-.39-1.16-.7l1.1-1.16c.18,.19,.39,.35,.65,.48,.25,.13,.53,.19,.81,.19,.16,0,.32-.04,.47-.11,.16-.08,.24-.22,.24-.41s-.09-.32-.29-.41c-.19-.09-.49-.18-.9-.28-.2-.05-.41-.11-.62-.19-.21-.08-.4-.19-.56-.32s-.3-.3-.4-.5c-.1-.2-.16-.44-.16-.72,0-.36,.08-.66,.23-.91,.15-.26,.35-.46,.59-.62,.24-.16,.5-.28,.79-.35,.3-.08,.59-.12,.88-.12,.45,0,.88,.07,1.31,.22,.43,.14,.79,.34,1.09,.62l-1.08,1.12Zm4.28-.29v2.28c0,.28,.05,.49,.16,.64,.11,.14,.3,.2,.58,.2,.1,0,.2,0,.3-.02,.12-.02,.21-.04,.28-.07l.02,1.44c-.13,.05-.3,.09-.51,.12-.21,.04-.42,.06-.63,.06-.4,0-.73-.05-1-.14-.28-.1-.5-.25-.66-.43-.16-.19-.28-.42-.35-.67-.07-.26-.11-.56-.11-.88v-2.52h-.96v-1.48h.95v-1.57h1.93v1.57h1.4v1.48h-1.4Zm5.86,1.9h-.26c-.21,0-.43,.01-.66,.04-.21,.02-.41,.05-.58,.11-.17,.06-.31,.14-.42,.25-.12,.1-.17,.24-.17,.42,0,.11,.02,.21,.07,.29,.06,.08,.12,.14,.2,.19,.08,.05,.18,.08,.28,.11,.1,.02,.2,.02,.3,.02,.4,0,.7-.11,.91-.32,.22-.22,.33-.52,.33-.9v-.2Zm-3.62-2.56c.36-.34,.76-.59,1.23-.76,.47-.17,.95-.25,1.44-.25s.93,.06,1.27,.19c.35,.12,.64,.31,.85,.58,.22,.26,.37,.58,.47,.98,.1,.39,.16,.86,.16,1.4v3.01h-1.8v-.64h-.04c-.15,.25-.38,.44-.7,.58-.3,.14-.63,.2-.99,.2-.24,0-.49-.03-.75-.1-.25-.06-.49-.17-.7-.31-.21-.14-.38-.34-.52-.58-.14-.24-.2-.54-.2-.89,0-.43,.11-.78,.34-1.04,.24-.26,.55-.47,.92-.61,.37-.14,.79-.24,1.24-.29,.46-.05,.9-.07,1.34-.07v-.1c0-.3-.11-.51-.32-.65-.2-.14-.46-.22-.76-.22-.28,0-.56,.06-.82,.18-.26,.12-.48,.26-.66,.43l-1-1.07Zm10.81,5.16v-3.26c0-.17-.02-.33-.05-.48-.02-.15-.07-.28-.13-.4-.07-.12-.16-.21-.28-.28-.11-.07-.25-.11-.43-.11s-.33,.04-.47,.11c-.13,.06-.23,.16-.32,.28s-.16,.26-.21,.42c-.04,.15-.06,.31-.06,.48v3.24h-1.98v-5.98h1.91v.83h.03c.07-.13,.16-.25,.27-.37,.12-.13,.26-.24,.41-.32,.16-.09,.33-.16,.52-.22,.18-.06,.38-.08,.58-.08,.4,0,.74,.07,1.02,.22,.28,.14,.51,.33,.68,.56,.17,.22,.3,.48,.37,.78,.08,.3,.12,.59,.12,.89v3.7h-1.98Zm5.61-4.5v2.28c0,.28,.05,.49,.15,.64,.11,.14,.31,.2,.59,.2,.1,0,.2,0,.3-.02,.11-.02,.2-.04,.28-.07l.02,1.44c-.14,.05-.31,.09-.52,.12-.2,.04-.41,.06-.62,.06-.4,0-.74-.05-1.01-.14-.27-.1-.49-.25-.66-.43-.16-.19-.27-.42-.35-.67-.07-.26-.1-.56-.1-.88v-2.52h-.96v-1.48h.94v-1.57h1.94v1.57h1.4v1.48h-1.4Z" style="fill:#fff;"/><path d="M1104.34,965.5v5m0,0v5m0-5h5m-5,0h-5m20,0c0,8.28-6.72,15-15,15s-15-6.72-15-15,6.72-15,15-15,15,6.72,15,15Z" style="fill:none; stroke:#f09436; stroke-linecap:round; stroke-linejoin:round; stroke-width:2px;"/><path d="M1006.51,1011.5h1.76v-8.38h3.05v-1.48h-7.84v1.48h3.03v8.38Zm5.6,0h1.7v-4.34c0-1.07,.75-1.74,1.88-1.74,.3,0,.58,.04,.85,.09v-1.52c-.16-.05-.43-.08-.69-.08-.99,0-1.67,.47-1.92,1.27h-.12v-1.15h-1.7v7.47Zm7.77,.12c.98,0,1.77-.42,2.18-1.15h.12v1.03h1.68v-5.11c0-1.58-1.08-2.51-3-2.51-1.78,0-2.98,.83-3.14,2.09v.06s1.59,0,1.59,0v-.03c.18-.49,.69-.77,1.47-.77,.91,0,1.4,.41,1.4,1.15v.65l-1.92,.11c-1.82,.11-2.84,.89-2.84,2.22v.02c0,1.36,1.03,2.23,2.46,2.23Zm-.78-2.31v-.02c0-.61,.45-.96,1.4-1.02l1.68-.11v.6c0,.89-.76,1.56-1.79,1.56-.75,0-1.29-.38-1.29-1.01Zm6.8,2.19h1.71v-4.35c0-1.13,.63-1.84,1.64-1.84s1.5,.59,1.5,1.75v4.44h1.7v-4.83c0-1.78-.91-2.78-2.57-2.78-1.08,0-1.8,.48-2.16,1.28h-.11v-1.14h-1.71v7.47Zm11.39,.15c1.84,0,3.17-.95,3.17-2.37v-.02c0-1.08-.69-1.7-2.16-2.03l-1.21-.27c-.8-.18-1.12-.45-1.12-.89h0c0-.57,.55-.93,1.31-.93,.8,0,1.29,.38,1.41,.85v.02h1.61c-.11-1.22-1.2-2.12-3.01-2.12s-3,.92-3,2.27h0c0,1.11,.68,1.78,2.1,2.09l1.21,.28c.82,.18,1.15,.47,1.15,.91h0c0,.57-.59,.95-1.44,.95s-1.34-.36-1.52-.88h-.01s-1.69-.01-1.69-.01h0c.15,1.28,1.3,2.15,3.2,2.15Zm5.76-8.87c.55,0,1.01-.44,1.01-1.01s-.46-1-1.01-1-1.02,.45-1.02,1,.46,1.01,1.02,1.01Zm-.86,8.72h1.71v-7.47h-1.71v7.47Zm6.74,.03c.33,0,.64-.02,.89-.07v-1.31c-.21,.02-.34,.02-.58,.02-.71,0-1-.31-1-1.06v-3.76h1.58v-1.32h-1.58v-1.83h-1.73v1.83h-1.16v1.32h1.16v4.17c0,1.44,.7,2.01,2.42,2.01Zm3.46-8.75c.55,0,1.01-.44,1.01-1.01s-.46-1-1.01-1-1.02,.45-1.02,1,.46,1.01,1.02,1.01Zm-.86,8.72h1.7v-7.47h-1.7v7.47Zm7.02,.15c2.24,0,3.6-1.46,3.6-3.88v-.02c0-2.4-1.37-3.86-3.6-3.86s-3.59,1.46-3.59,3.86v.02c0,2.42,1.35,3.88,3.59,3.88Zm0-1.38c-1.18,0-1.86-.92-1.86-2.5h0c0-1.58,.68-2.51,1.86-2.51s1.86,.93,1.86,2.5h0c0,1.59-.67,2.51-1.86,2.51Zm5.31,1.23h1.7v-4.35c0-1.13,.63-1.84,1.64-1.84s1.5,.59,1.5,1.75v4.44h1.71v-4.83c0-1.78-.91-2.78-2.58-2.78-1.08,0-1.8,.48-2.15,1.28h-.12v-1.14h-1.7v7.47Zm15.23,.03c.33,0,.64-.02,.89-.07v-1.31c-.21,.02-.34,.02-.58,.02-.71,0-1-.31-1-1.06v-3.76h1.58v-1.32h-1.58v-1.83h-1.73v1.83h-1.16v1.32h1.16v4.17c0,1.44,.7,2.01,2.42,2.01Zm3.46-8.75c.55,0,1.01-.44,1.01-1.01s-.46-1-1.01-1-1.02,.45-1.02,1,.46,1.01,1.02,1.01Zm-.86,8.72h1.7v-7.47h-1.7v7.47Zm3.8,0h1.7v-4.55c0-.93,.61-1.64,1.45-1.64s1.35,.52,1.35,1.34v4.85h1.7v-4.67c0-.85,.58-1.52,1.47-1.52s1.35,.5,1.35,1.47v4.72h1.7v-5.14c0-1.55-.9-2.47-2.4-2.47-1.04,0-1.9,.53-2.27,1.34h-.11c-.32-.83-1.06-1.34-2.07-1.34s-1.73,.47-2.06,1.3h-.11v-1.16h-1.7v7.47Zm15.94,.15c2.03,0,3.03-1.17,3.27-2.13l.02-.06h-1.62l-.02,.04c-.17,.35-.7,.81-1.62,.81-1.15,0-1.88-.78-1.9-2.12h5.22v-.56c0-2.25-1.31-3.74-3.43-3.74s-3.49,1.53-3.49,3.89h0c0,2.39,1.35,3.88,3.57,3.88Zm-.06-6.43c.95,0,1.64,.61,1.75,1.83h-3.54c.13-1.19,.84-1.83,1.79-1.83Z" style="fill:#4c4e57;"/><path d="M1202.67,970c0,1.54-1.27,2.79-2.83,2.79s-2.83-1.25-2.83-2.79,1.27-2.79,2.83-2.79,2.83,1.25,2.83,2.79Z" style="fill:none; stroke:#f09436; stroke-linecap:round; stroke-linejoin:round; stroke-width:2px;"/><path d="M1190.84,970c1.2-3.77,4.78-6.5,9-6.5s7.8,2.73,9,6.5c-1.2,3.77-4.78,6.5-9,6.5s-7.8-2.73-9-6.5Z" style="fill:none; stroke:#f09436; stroke-linecap:round; stroke-linejoin:round; stroke-width:2px;"/><path d="M1183.84,980.5c0-.55-.45-1-1-1s-1,.45-1,1h2Zm4,6c.55,0,1-.45,1-1s-.45-1-1-1v2Zm-6-6v2h2v-2h-2Zm4,6h2v-2h-2v2Zm-4-4c0,2.21,1.79,4,4,4v-2c-1.1,0-2-.9-2-2h-2Z" style="fill:#f09436;"/><path d="M1215.84,960.5c0,.55,.45,1,1,1s1-.45,1-1h-2Zm-4-6c-.55,0-1,.45-1,1s.45,1,1,1v-2Zm6,6v-2h-2v2h2Zm-4-6h-2v2h2v-2Zm4,4c0-2.21-1.79-4-4-4v2c1.1,0,2,.9,2,2h2Z" style="fill:#f09436;"/><path d="M1211.84,984.5c-.55,0-1,.45-1,1s.45,1,1,1v-2Zm6-4c0-.55-.45-1-1-1s-1,.45-1,1h2Zm-6,6h2v-2h-2v2Zm6-4v-2h-2v2h2Zm-4,4c2.21,0,4-1.79,4-4h-2c0,1.1-.9,2-2,2v2Z" style="fill:#f09436;"/><path d="M1187.84,956.5c.55,0,1-.45,1-1s-.45-1-1-1v2Zm-6,4c0,.55,.45,1,1,1s1-.45,1-1h-2Zm6-6h-2v2h2v-2Zm-6,4v2h2v-2h-2Zm4-4c-2.21,0-4,1.79-4,4h2c0-1.1,.9-2,2-2v-2Z" style="fill:#f09436;"/><path d="M1173.56,1011.5h1.76v-3.26h2.17c2.01,0,3.36-1.33,3.36-3.3h0c0-1.98-1.35-3.3-3.36-3.3h-3.93v9.86Zm3.5-8.42c1.27,0,2.01,.68,2.01,1.86h0c0,1.19-.74,1.88-2.01,1.88h-1.74v-3.74h1.74Zm5.56,8.42h1.7v-4.34c0-1.07,.75-1.74,1.88-1.74,.3,0,.58,.04,.85,.09v-1.52c-.16-.05-.43-.08-.69-.08-.98,0-1.67,.47-1.92,1.27h-.12v-1.15h-1.7v7.47Zm8.83,.15c2.03,0,3.03-1.17,3.27-2.13l.02-.06h-1.62l-.02,.04c-.16,.35-.69,.81-1.61,.81-1.16,0-1.88-.78-1.9-2.12h5.22v-.56c0-2.25-1.31-3.74-3.44-3.74s-3.49,1.53-3.49,3.89h0c0,2.39,1.35,3.88,3.57,3.88Zm-.06-6.43c.95,0,1.64,.61,1.76,1.83h-3.55c.13-1.19,.84-1.83,1.79-1.83Zm6.95,6.28h1.87l2.65-7.47h-1.8l-1.71,5.81h-.12l-1.73-5.81h-1.82l2.66,7.47Zm6.83-8.72c.55,0,1.01-.44,1.01-1.01s-.46-1-1.01-1-1.02,.45-1.02,1,.46,1.01,1.02,1.01Zm-.86,8.72h1.7v-7.47h-1.7v7.47Zm6.99,.15c2.04,0,3.03-1.17,3.27-2.13l.02-.06h-1.62l-.02,.04c-.16,.35-.69,.81-1.61,.81-1.16,0-1.88-.78-1.9-2.12h5.22v-.56c0-2.25-1.31-3.74-3.44-3.74s-3.48,1.53-3.48,3.89h0c0,2.39,1.34,3.88,3.56,3.88Zm-.06-6.43c.95,0,1.64,.61,1.76,1.83h-3.55c.13-1.19,.84-1.83,1.79-1.83Zm6.45,6.28h1.76l1.45-5.41h.12l1.45,5.41h1.79l2.02-7.47h-1.69l-1.23,5.61h-.12l-1.45-5.61h-1.62l-1.43,5.61h-.12l-1.24-5.61h-1.71l2.02,7.47Z" style="fill:#4c4e57;"/><path d="M1315.47,969.25l-4.8-3.2c-.99-.66-2.33,.05-2.33,1.25v6.39c0,1.2,1.34,1.91,2.33,1.25l4.8-3.2c.89-.59,.89-1.9,0-2.5Z" style="fill:none; stroke:#616161; stroke-linecap:round; stroke-linejoin:round; stroke-width:2px;"/><path d="M1324.84,970.5c0,7.46-6.04,13.5-13.5,13.5s-13.5-6.04-13.5-13.5,6.04-13.5,13.5-13.5,13.5,6.04,13.5,13.5Z" style="fill:none; stroke:#616161; stroke-linecap:round; stroke-linejoin:round; stroke-width:2px;"/><path d="M1298.48,1009.75c2.37,0,3.85-1.21,3.85-3.13h0c0-1.5-.87-2.33-2.95-2.77l-1.06-.23c-1.23-.26-1.73-.7-1.73-1.4h0c0-.85,.78-1.36,1.88-1.36,1.13,0,1.86,.54,1.98,1.31v.08h1.7v-.09c-.13-1.59-1.49-2.78-3.68-2.78s-3.65,1.19-3.65,2.95h0c0,1.48,.88,2.42,2.9,2.85l1.06,.22c1.27,.27,1.78,.7,1.78,1.41h0c0,.85-.83,1.44-2.02,1.44-1.25,0-2.14-.54-2.22-1.37v-.07h-1.71v.1c.13,1.7,1.58,2.83,3.87,2.83Zm8.85-.1c2.03,0,3.03-1.17,3.27-2.13l.02-.06h-1.62l-.02,.04c-.16,.35-.69,.81-1.61,.81-1.16,0-1.88-.78-1.9-2.12h5.22v-.56c0-2.26-1.31-3.74-3.44-3.74s-3.48,1.54-3.48,3.89h0c0,2.39,1.34,3.88,3.56,3.88Zm-.06-6.43c.95,0,1.64,.61,1.76,1.83h-3.55c.13-1.19,.84-1.83,1.79-1.83Zm5.12,6.28h1.7v-4.35c0-1.13,.63-1.84,1.65-1.84s1.5,.59,1.5,1.75v4.44h1.7v-4.83c0-1.78-.91-2.78-2.58-2.78-1.08,0-1.79,.48-2.15,1.28h-.12v-1.14h-1.7v7.47Zm11.25,.12c1.06,0,1.86-.48,2.27-1.29h.12v1.17h1.71v-10.36h-1.71v4.08h-.12c-.39-.81-1.24-1.31-2.27-1.31-1.89,0-3.06,1.48-3.06,3.85h0c0,2.38,1.19,3.86,3.06,3.86Zm.54-1.43c-1.16,0-1.87-.91-1.87-2.42h0c0-1.51,.71-2.43,1.87-2.43s1.88,.92,1.88,2.42h0c0,1.51-.72,2.43-1.88,2.43Z" style="fill:#616161;"/></svg>