<?xml version="1.0" encoding="UTF-8"?><svg id="Events" xmlns="http://www.w3.org/2000/svg" xmlns:xlink="http://www.w3.org/1999/xlink" viewBox="0 0 1381.34 1032"><defs><clipPath id="clippath"><rect x="13.34" y="135" width="326" height="789" rx="8" ry="8" style="fill:none;"/></clipPath></defs><g style="clip-path:url(#clippath);"><g><rect x="13.34" y="135" width="326" height="789" rx="8" ry="8" style="fill:#131316;"/><path d="M31.16,175h9.58v-2.23h-6.93v-4.24h6.55v-2.1h-6.55v-4.01h6.93v-2.23h-9.58v14.8Zm15.61,0h2.8l3.97-11.21h-2.69l-2.57,8.72h-.17l-2.59-8.72h-2.73l3.99,11.21Zm13.27,.23c3.05,0,4.54-1.75,4.9-3.2l.03-.09h-2.43l-.03,.07c-.25,.51-1.04,1.21-2.42,1.21-1.73,0-2.82-1.17-2.85-3.18h7.83v-.84c0-3.38-1.97-5.62-5.16-5.62s-5.23,2.31-5.23,5.84h0c0,3.58,2.02,5.81,5.35,5.81Zm-.09-9.65c1.43,0,2.46,.91,2.64,2.75h-5.32c.19-1.78,1.26-2.75,2.69-2.75Zm7.68,9.42h2.55v-6.53c0-1.68,.94-2.75,2.46-2.75s2.26,.88,2.26,2.62v6.65h2.55v-7.25c0-2.67-1.36-4.17-3.87-4.17-1.62,0-2.7,.73-3.23,1.93h-.17v-1.71h-2.55v11.21Zm17.25,.05c.49,0,.96-.04,1.33-.11v-1.97c-.31,.03-.5,.04-.86,.04-1.07,0-1.51-.47-1.51-1.59v-5.65h2.37v-1.98h-2.37v-2.75h-2.59v2.75h-1.74v1.98h1.74v6.26c0,2.16,1.06,3.02,3.63,3.02Zm7.97,.18c2.76,0,4.76-1.43,4.76-3.56v-.02c0-1.63-1.04-2.56-3.23-3.06l-1.81-.4c-1.21-.28-1.68-.68-1.68-1.33h0c0-.85,.82-1.4,1.96-1.4,1.2,0,1.94,.57,2.12,1.28v.03h2.41v-.02c-.16-1.82-1.79-3.17-4.52-3.17s-4.49,1.4-4.49,3.42h0c0,1.66,1.02,2.67,3.15,3.14l1.81,.41c1.23,.28,1.72,.71,1.72,1.36v.02c0,.84-.88,1.42-2.15,1.42s-2.02-.54-2.29-1.32v-.02h-2.54v.02c.22,1.9,1.94,3.21,4.79,3.21Z" style="fill:#fff;"/><path d="M310.34,160.5h-5c-1.11,0-2,.9-2,2v11c0,1.1,.89,2,2,2h11c1.11,0,2-.9,2-2v-5m-1.41-9.41c.78-.78,2.05-.78,2.83,0s.78,2.05,0,2.83l-8.59,8.59h-2.83v-2.83l8.59-8.59Z" style="fill:none; stroke:#f09436; stroke-linecap:round; stroke-linejoin:round; stroke-width:2px;"/><rect x="13.34" y="200" width="326" height="96" style="fill:#131313;"/><line x1="13.34" y1="199.5" x2="339.34" y2="199.5" style="fill:none; stroke:#212226;"/><path d="M30.81,238h2.14v-11.98h-2.14v11.98Zm4.64,0h2.07v-5.29c0-1.36,.76-2.22,1.99-2.22s1.83,.71,1.83,2.12v5.39h2.07v-5.87c0-2.16-1.1-3.38-3.13-3.38-1.31,0-2.18,.59-2.61,1.56h-.14v-1.39h-2.07v9.07Zm11.22-10.59c.67,0,1.23-.54,1.23-1.22s-.56-1.22-1.23-1.22-1.24,.55-1.24,1.22,.56,1.22,1.24,1.22Zm-1.04,10.59h2.07v-9.07h-2.07v9.07Zm7.94,.04c.4,0,.78-.03,1.08-.09v-1.59c-.25,.02-.41,.03-.7,.03-.86,0-1.22-.38-1.22-1.29v-4.57h1.92v-1.6h-1.92v-2.22h-2.1v2.22h-1.41v1.6h1.41v5.06c0,1.75,.85,2.45,2.94,2.45Zm3.96-10.63c.67,0,1.23-.54,1.23-1.22s-.56-1.22-1.23-1.22-1.24,.55-1.24,1.22,.56,1.22,1.24,1.22Zm-1.04,10.59h2.07v-9.07h-2.07v9.07Zm6.84,.15c1.2,0,2.16-.51,2.66-1.39h.14v1.24h2.04v-6.2c0-1.92-1.31-3.05-3.64-3.05-2.16,0-3.62,1.01-3.82,2.54v.07s1.94,0,1.94,0v-.03c.22-.6,.83-.94,1.78-.94,1.11,0,1.7,.5,1.7,1.4v.78l-2.33,.14c-2.21,.13-3.44,1.08-3.44,2.7v.02c0,1.65,1.25,2.71,2.98,2.71Zm-.94-2.81v-.02c0-.75,.54-1.17,1.69-1.24l2.04-.13v.73c0,1.08-.92,1.89-2.17,1.89-.91,0-1.57-.46-1.57-1.23Zm8.1,2.66h2.07v-12.58h-2.07v12.58Zm12.16,.18c2.23,0,3.85-1.15,3.85-2.88v-.02c0-1.32-.84-2.08-2.61-2.47l-1.47-.32c-.98-.22-1.36-.55-1.36-1.08h0c0-.69,.66-1.14,1.59-1.14,.97,0,1.57,.46,1.72,1.04v.02h1.95v-.02c-.13-1.47-1.45-2.56-3.66-2.56s-3.64,1.13-3.64,2.76h0c0,1.35,.82,2.16,2.55,2.54l1.47,.33c1,.22,1.39,.57,1.39,1.1v.02c0,.68-.71,1.15-1.74,1.15s-1.64-.44-1.85-1.07v-.02h-2.06v.02c.17,1.54,1.57,2.6,3.88,2.6Zm9.59,0c2.3,0,3.64-1.24,3.93-3.1l.02-.07h-1.95s-.02,.04-.02,.04c-.26,.95-.91,1.44-1.98,1.44-1.4,0-2.24-1.13-2.24-3.05v-.02c0-1.9,.83-3.01,2.24-3.01,1.13,0,1.8,.63,1.99,1.51v.02h1.96v-.03c-.23-1.88-1.63-3.17-3.96-3.17-2.73,0-4.33,1.75-4.33,4.68v.02c0,2.96,1.61,4.73,4.34,4.73Zm5.68-.18h2.07v-5.27c0-1.29,.9-2.12,2.28-2.12,.36,0,.7,.05,1.03,.12v-1.85c-.2-.06-.52-.1-.84-.1-1.2,0-2.03,.57-2.33,1.54h-.14v-1.4h-2.07v9.07Zm10.48,.18c2.47,0,3.68-1.42,3.97-2.59l.03-.07h-1.97l-.03,.06c-.2,.41-.84,.98-1.96,.98-1.4,0-2.28-.95-2.31-2.57h6.34v-.68c0-2.74-1.59-4.55-4.18-4.55s-4.23,1.87-4.23,4.72h0c0,2.9,1.64,4.71,4.33,4.71Zm-.07-7.81c1.15,0,1.99,.74,2.13,2.22h-4.31c.16-1.44,1.02-2.22,2.18-2.22Zm9.86,7.81c2.47,0,3.68-1.42,3.97-2.59l.02-.07h-1.97l-.03,.06c-.2,.41-.84,.98-1.96,.98-1.4,0-2.28-.95-2.31-2.57h6.34v-.68c0-2.74-1.59-4.55-4.17-4.55s-4.23,1.87-4.23,4.72h0c0,2.9,1.64,4.71,4.33,4.71Zm-.07-7.81c1.15,0,1.99,.74,2.13,2.22h-4.31c.16-1.44,1.02-2.22,2.18-2.22Zm5.98,7.63h2.07v-5.29c0-1.36,.76-2.22,1.99-2.22s1.83,.71,1.83,2.12v5.39h2.07v-5.87c0-2.16-1.1-3.38-3.13-3.38-1.31,0-2.18,.59-2.61,1.56h-.14v-1.39h-2.07v9.07Z" style="fill:#fff;"/><g style="opacity:.7;"><path d="M311.34,232c0,2.21-1.79,4-4,4s-4-1.79-4-4,1.79-4,4-4,4,1.79,4,4Z" style="fill:none; stroke:#f09436; stroke-linecap:round; stroke-linejoin:round; stroke-width:2px;"/><path d="M294.61,232c1.7-5.41,6.75-9.33,12.72-9.33s11.02,3.92,12.72,9.33c-1.7,5.41-6.75,9.33-12.72,9.33s-11.02-3.92-12.72-9.33Z" style="fill:none; stroke:#f09436; stroke-linecap:round; stroke-linejoin:round; stroke-width:2px;"/></g><g style="opacity:.5;"><path d="M41.34,265c-.55,0-1-.45-1-1s.45-1,1-1h5c.55,0,1,.45,1,1v5c0,.55-.45,1-1,1s-1-.45-1-1v-2.59l-4.29,4.29c-.39,.39-1.02,.39-1.41,0l-2.29-2.29-4.29,4.29c-.39,.39-1.02,.39-1.41,0-.39-.39-.39-1.02,0-1.41l5-5c.39-.39,1.02-.39,1.41,0l2.29,2.29,3.59-3.59h-2.59Z" style="fill:#c0c2c8; fill-rule:evenodd;"/></g><path d="M54.55,272.5h1.7v-6.8h.11l4.85,6.8h1.52v-9.86h-1.7v6.8h-.11l-4.85-6.8h-1.53v9.86Zm13.67,.15c2.24,0,3.6-1.46,3.6-3.88h0c0-2.42-1.37-3.88-3.6-3.88s-3.6,1.47-3.6,3.87h0c0,2.43,1.35,3.9,3.6,3.9Zm0-1.38c-1.18,0-1.86-.92-1.86-2.5h0c0-1.59,.68-2.51,1.86-2.51s1.85,.93,1.85,2.5h0c0,1.59-.67,2.51-1.85,2.51Zm11.98,1.26c.33,0,.64-.03,.89-.07v-1.31c-.21,.02-.33,.03-.57,.03-.71,0-1-.32-1-1.06v-3.77h1.58v-1.32h-1.58v-1.83h-1.73v1.83h-1.16v1.32h1.16v4.17c0,1.44,.7,2.02,2.42,2.02Zm2.58-.03h1.7v-4.34c0-1.07,.75-1.74,1.88-1.74,.29,0,.57,.04,.85,.1v-1.52c-.16-.05-.43-.08-.69-.08-.98,0-1.67,.47-1.92,1.27h-.12v-1.15h-1.7v7.47Zm8.83,.15c2.03,0,3.03-1.17,3.27-2.13l.02-.06h-1.62l-.02,.05c-.16,.34-.69,.81-1.61,.81-1.16,0-1.88-.78-1.9-2.12h5.22v-.56c0-2.26-1.31-3.75-3.44-3.75s-3.49,1.54-3.49,3.89h0c0,2.39,1.35,3.88,3.57,3.88Zm-.06-6.43c.95,0,1.64,.61,1.76,1.83h-3.55c.13-1.19,.84-1.83,1.79-1.83Zm5.12,6.28h1.7v-4.35c0-1.12,.63-1.83,1.64-1.83s1.5,.59,1.5,1.75v4.44h1.7v-4.83c0-1.78-.91-2.78-2.58-2.78-1.08,0-1.8,.48-2.15,1.29h-.12v-1.14h-1.7v7.47Zm11.25,.12c1.05,0,1.86-.48,2.27-1.29h.12v1.17h1.71v-10.36h-1.71v4.08h-.12c-.39-.81-1.24-1.31-2.27-1.31-1.89,0-3.06,1.48-3.06,3.86h0c0,2.38,1.19,3.86,3.06,3.86Zm.53-1.43c-1.16,0-1.87-.91-1.87-2.41h0c0-1.52,.71-2.43,1.87-2.43s1.88,.92,1.88,2.42h0c0,1.51-.72,2.43-1.88,2.43Z" style="fill:#c0c2c8;"/><g style="opacity:.5;"><path d="M285.09,273l-.75,3-1,1h8l-1-1-.75-3m-11.25-4h18m-16,4h14c1.11,0,2-.89,2-2v-10c0-1.1-.89-2-2-2h-14c-1.11,0-2,.9-2,2v10c0,1.11,.89,2,2,2Z" style="fill:none; stroke:#c0c2c8; stroke-linecap:round; stroke-linejoin:round; stroke-width:2px;"/><path d="M314.64,259.05c.42,.13,.7,.52,.7,.95v5h4c.37,0,.71,.21,.89,.54,.17,.33,.15,.73-.07,1.04l-7,10c-.25,.36-.7,.51-1.12,.38-.42-.13-.7-.52-.7-.95v-5h-4c-.37,0-.71-.21-.89-.54s-.15-.73,.07-1.04l7-10c.25-.36,.7-.51,1.12-.38Z" style="fill:none; stroke:#c0c2c8; stroke-linecap:round; stroke-linejoin:round; stroke-width:2px;"/></g><rect x="13.34" y="296" width="326" height="84" style="fill:#686b78;"/><line x1="13.34" y1="295.5" x2="339.34" y2="295.5" style="fill:none; stroke:#212226;"/><path d="M35.81,328.3c2.76,0,4.75-1.6,5.06-4v-.06h-2.1v.04c-.32,1.32-1.44,2.17-2.96,2.17-2.04,0-3.31-1.7-3.31-4.43v-.02c0-2.72,1.27-4.42,3.3-4.42,1.51,0,2.66,.94,2.96,2.36v.03h2.11v-.07c-.28-2.45-2.35-4.18-5.07-4.18-3.39,0-5.5,2.4-5.5,6.28v.02c0,3.87,2.11,6.28,5.5,6.28Zm7.08-.3h2.07v-5.29c0-1.36,.76-2.22,1.99-2.22s1.83,.71,1.83,2.12v5.39h2.07v-5.87c0-2.16-1.1-3.38-3.13-3.38-1.31,0-2.18,.59-2.61,1.56h-.14v-4.9h-2.07v12.58Zm12.63,.15c1.2,0,2.16-.51,2.66-1.39h.14v1.24h2.04v-6.2c0-1.92-1.31-3.05-3.64-3.05-2.16,0-3.62,1.01-3.82,2.54v.08s1.94,0,1.94,0v-.03c.22-.6,.83-.94,1.78-.94,1.11,0,1.7,.5,1.7,1.4v.78l-2.33,.14c-2.21,.13-3.44,1.08-3.44,2.7v.02c0,1.65,1.25,2.71,2.98,2.71Zm-.94-2.81v-.02c0-.75,.54-1.17,1.69-1.24l2.04-.13v.73c0,1.08-.92,1.89-2.17,1.89-.91,0-1.57-.46-1.57-1.23Zm8.02,2.67h2.07v-5.29c0-1.36,.76-2.22,1.99-2.22s1.83,.71,1.83,2.12v5.39h2.07v-5.87c0-2.16-1.1-3.38-3.13-3.38-1.31,0-2.18,.59-2.61,1.56h-.14v-1.39h-2.07v9.07Zm14.05,3.19c2.65,0,4.32-1.32,4.32-3.41v-8.85h-2.07v1.49h-.11c-.51-1.03-1.49-1.64-2.75-1.64-2.34,0-3.77,1.81-3.77,4.43v.02c0,2.57,1.43,4.35,3.73,4.35,1.25,0,2.24-.53,2.76-1.5h.14v1.73c0,1.16-.82,1.82-2.23,1.82-1.15,0-1.84-.41-1.98-.99v-.02h-2.08v.02c.2,1.53,1.64,2.55,4.03,2.55Zm0-5.25c-1.44,0-2.25-1.1-2.25-2.71v-.02c0-1.6,.81-2.71,2.25-2.71s2.3,1.11,2.3,2.71v.02c0,1.6-.86,2.71-2.3,2.71Zm10.5,2.25c2.47,0,3.68-1.42,3.97-2.59l.02-.07h-1.97l-.02,.06c-.2,.42-.84,.98-1.96,.98-1.4,0-2.28-.95-2.31-2.57h6.34v-.68c0-2.74-1.59-4.55-4.18-4.55s-4.23,1.87-4.23,4.72h0c0,2.9,1.64,4.71,4.33,4.71Zm-.07-7.81c1.15,0,1.99,.74,2.13,2.22h-4.31c.16-1.44,1.02-2.22,2.17-2.22Zm12.71,7.63h2.27l3.21-9.07h-2.17l-2.08,7.06h-.14l-2.1-7.06h-2.21l3.23,9.07Zm9.14,.15c1.19,0,2.16-.51,2.66-1.39h.14v1.24h2.04v-6.2c0-1.92-1.31-3.05-3.64-3.05-2.16,0-3.62,1.01-3.82,2.54v.08s1.94,0,1.94,0v-.03c.22-.6,.83-.94,1.78-.94,1.11,0,1.7,.5,1.7,1.4v.78l-2.33,.14c-2.21,.13-3.44,1.08-3.44,2.7v.02c0,1.65,1.25,2.71,2.98,2.71Zm-.94-2.81v-.02c0-.75,.54-1.17,1.69-1.24l2.04-.13v.73c0,1.08-.92,1.89-2.17,1.89-.91,0-1.57-.46-1.57-1.23Zm8.1,2.67h2.07v-12.58h-2.07v12.58Zm7.45,.18c1.31,0,2.23-.59,2.66-1.56h.14v1.38h2.07v-9.07h-2.07v5.29c0,1.36-.71,2.22-2.05,2.22-1.25,0-1.77-.71-1.77-2.12v-5.4h-2.07v5.87c0,2.16,1.05,3.39,3.09,3.39Zm11.03,0c2.46,0,3.68-1.42,3.97-2.59l.02-.07h-1.97l-.02,.06c-.2,.42-.84,.98-1.96,.98-1.4,0-2.28-.95-2.31-2.57h6.34v-.68c0-2.74-1.59-4.55-4.18-4.55s-4.23,1.87-4.23,4.72h0c0,2.9,1.64,4.71,4.33,4.71Zm-.07-7.81c1.15,0,1.99,.74,2.13,2.22h-4.31c.16-1.44,1.02-2.22,2.18-2.22Zm9.41,7.81c2.23,0,3.85-1.15,3.85-2.88v-.02c0-1.32-.84-2.08-2.61-2.47l-1.47-.32c-.98-.22-1.36-.55-1.36-1.08h0c0-.69,.66-1.14,1.59-1.14,.97,0,1.57,.46,1.72,1.04v.02h1.95v-.02c-.13-1.47-1.45-2.57-3.66-2.57s-3.64,1.13-3.64,2.76h0c0,1.35,.82,2.16,2.55,2.54l1.47,.33c1,.22,1.39,.57,1.39,1.1v.02c0,.68-.71,1.14-1.74,1.14s-1.63-.44-1.85-1.07v-.02h-2.06v.02c.18,1.54,1.57,2.6,3.88,2.6Zm13.91,0c2.71,0,4.37-1.78,4.37-4.72v-.02c0-2.92-1.66-4.7-4.37-4.7s-4.37,1.79-4.37,4.7v.02c0,2.94,1.64,4.72,4.37,4.72Zm0-1.68c-1.44,0-2.26-1.12-2.26-3.03v-.02c0-1.91,.82-3.04,2.26-3.04s2.25,1.13,2.25,3.04v.02c0,1.91-.81,3.03-2.25,3.03Zm8.28,1.49h2.27l3.21-9.07h-2.18l-2.08,7.06h-.14l-2.1-7.06h-2.21l3.23,9.07Zm10.5,.18c2.46,0,3.68-1.42,3.97-2.59l.02-.07h-1.97l-.02,.06c-.2,.42-.84,.98-1.96,.98-1.4,0-2.28-.95-2.31-2.57h6.34v-.68c0-2.74-1.59-4.55-4.18-4.55s-4.23,1.87-4.23,4.72h0c0,2.9,1.63,4.71,4.33,4.71Zm-.08-7.81c1.15,0,1.99,.74,2.13,2.22h-4.31c.16-1.44,1.02-2.22,2.17-2.22Zm5.98,7.63h2.07v-5.27c0-1.3,.9-2.12,2.28-2.12,.36,0,.7,.05,1.03,.12v-1.85c-.2-.06-.52-.1-.84-.1-1.2,0-2.02,.57-2.33,1.54h-.14v-1.39h-2.07v9.07Zm14.05,0h2.14v-11.98h-2.13l-3.13,2.2v2.02l2.98-2.11h.14v9.87Zm9.62,.3c2.85,0,4.57-2.42,4.57-6.28v-.02c0-3.87-1.73-6.28-4.57-6.28s-4.56,2.41-4.56,6.28v.02c0,3.87,1.71,6.28,4.56,6.28Zm0-1.74c-1.53,0-2.4-1.71-2.4-4.55v-.02c0-2.84,.87-4.53,2.4-4.53s2.42,1.69,2.42,4.53v.02c0,2.84-.89,4.55-2.42,4.55Zm10.11,1.62c2.23,0,3.85-1.15,3.85-2.88v-.02c0-1.32-.84-2.08-2.61-2.47l-1.47-.32c-.98-.22-1.36-.55-1.36-1.08h0c0-.69,.66-1.14,1.59-1.14,.97,0,1.57,.46,1.72,1.04v.02h1.95v-.02c-.13-1.47-1.45-2.57-3.66-2.57s-3.64,1.13-3.64,2.76h0c0,1.35,.82,2.16,2.55,2.54l1.47,.33c1,.22,1.4,.57,1.4,1.1v.02c0,.68-.71,1.14-1.74,1.14s-1.63-.44-1.85-1.07v-.02h-2.06v.02c.17,1.54,1.57,2.6,3.88,2.6Z" style="fill:#fff;"/><g style="opacity:.5;"><path d="M41.34,349c-.55,0-1-.45-1-1s.45-1,1-1h5c.55,0,1,.45,1,1v5c0,.55-.45,1-1,1s-1-.45-1-1v-2.59l-4.29,4.29c-.39,.39-1.02,.39-1.41,0l-2.29-2.29-4.29,4.29c-.39,.39-1.02,.39-1.41,0-.39-.39-.39-1.02,0-1.41l5-5c.39-.39,1.02-.39,1.41,0l2.29,2.29,3.59-3.59h-2.59Z" style="fill:#fff; fill-rule:evenodd;"/></g><path d="M57.01,356.5h1.76v-8.38h3.04v-1.48h-7.84v1.48h3.04v8.38Zm5.6,0h1.7v-4.34c0-1.07,.75-1.74,1.88-1.74,.29,0,.57,.04,.85,.1v-1.52c-.16-.05-.43-.08-.69-.08-.98,0-1.67,.47-1.92,1.27h-.12v-1.15h-1.7v7.47Zm8.83,.15c2.03,0,3.03-1.17,3.27-2.13l.02-.06h-1.62l-.02,.05c-.16,.34-.69,.81-1.61,.81-1.16,0-1.88-.78-1.9-2.12h5.22v-.56c0-2.26-1.31-3.75-3.44-3.75s-3.49,1.54-3.49,3.89h0c0,2.39,1.35,3.88,3.57,3.88Zm-.06-6.43c.95,0,1.64,.61,1.76,1.83h-3.55c.13-1.19,.84-1.83,1.79-1.83Zm5.12,6.28h1.7v-4.35c0-1.12,.63-1.83,1.64-1.83s1.5,.59,1.5,1.75v4.44h1.7v-4.83c0-1.78-.91-2.78-2.58-2.78-1.08,0-1.8,.48-2.15,1.29h-.12v-1.14h-1.7v7.47Zm11.25,.12c1.05,0,1.86-.48,2.27-1.29h.12v1.17h1.71v-10.36h-1.71v4.08h-.12c-.39-.81-1.24-1.31-2.27-1.31-1.89,0-3.06,1.48-3.06,3.86h0c0,2.38,1.19,3.86,3.06,3.86Zm.53-1.43c-1.16,0-1.87-.91-1.87-2.41h0c0-1.52,.71-2.43,1.87-2.43s1.88,.92,1.88,2.42h0c0,1.51-.72,2.43-1.88,2.43Zm11.84,1.31h1.76v-9.86h-1.76l-2.58,1.81v1.66l2.45-1.74h.12v8.13Zm8.12,.25c2.35,0,3.77-1.99,3.77-5.17h0c0-3.2-1.42-5.18-3.77-5.18s-3.75,1.98-3.75,5.17h0c0,3.2,1.41,5.19,3.75,5.19Zm0-1.43c-1.26,0-1.97-1.41-1.97-3.75h0c0-2.35,.72-3.75,1.97-3.75s1.99,1.39,1.99,3.73h0c0,2.35-.73,3.76-1.99,3.76Zm8.53,1.33c1.84,0,3.17-.95,3.17-2.37h0c0-1.1-.69-1.72-2.15-2.05l-1.21-.27c-.81-.18-1.12-.45-1.12-.89h0c0-.57,.55-.94,1.31-.94,.8,0,1.29,.38,1.41,.85v.02h1.61c-.11-1.22-1.2-2.13-3.01-2.13s-2.99,.93-2.99,2.28h0c0,1.11,.68,1.78,2.1,2.09l1.21,.27c.82,.18,1.15,.47,1.15,.91h0c0,.57-.59,.96-1.44,.96s-1.35-.36-1.52-.88h0s-1.69-.01-1.69-.01h0c.14,1.28,1.29,2.15,3.19,2.15Zm8.09,0c2.03,0,3.03-1.17,3.27-2.13l.02-.06h-1.62l-.02,.05c-.16,.34-.69,.81-1.61,.81-1.16,0-1.88-.78-1.9-2.12h5.22v-.56c0-2.26-1.31-3.75-3.44-3.75s-3.49,1.54-3.49,3.89h0c0,2.39,1.35,3.88,3.57,3.88Zm-.06-6.43c.95,0,1.64,.61,1.76,1.83h-3.55c.13-1.19,.84-1.83,1.79-1.83Zm8.33,6.43c1.89,0,2.99-1.02,3.24-2.55v-.06s-1.59,0-1.59,0v.03c-.23,.79-.77,1.19-1.65,1.19-1.15,0-1.85-.93-1.85-2.52h0c0-1.58,.68-2.49,1.85-2.49,.93,0,1.48,.52,1.64,1.24v.02h1.61v-.03c-.19-1.55-1.34-2.61-3.26-2.61-2.25,0-3.57,1.44-3.57,3.85h0c0,2.45,1.33,3.91,3.57,3.91Z" style="fill:#c0c2c8;"/><g style="opacity:.5;"><path d="M258.64,343.05c.42,.13,.7,.52,.7,.95v5h4c.37,0,.71,.21,.89,.54,.17,.33,.15,.73-.07,1.04l-7,10c-.25,.36-.7,.51-1.12,.38-.42-.13-.7-.52-.7-.95v-5h-4c-.37,0-.71-.21-.89-.54-.17-.33-.15-.73,.07-1.04l7-10c.25-.36,.7-.51,1.12-.38Z" style="fill:none; stroke:#fff; stroke-linecap:round; stroke-linejoin:round; stroke-width:2px;"/><path d="M286.87,348.46c1.95,1.95,1.95,5.12,0,7.07m2.83-9.9c3.51,3.52,3.51,9.21,0,12.73m-12.78-3.36h-1.59c-.55,0-1-.45-1-1v-4c0-.55,.45-1,1-1h1.59l4.71-4.71c.63-.63,1.71-.18,1.71,.71v14c0,.89-1.08,1.34-1.71,.71l-4.71-4.71Z" style="fill:none; stroke:#fff; stroke-linecap:round; stroke-linejoin:round; stroke-width:2px;"/><path d="M318.76,355.43c-.28-.28-.64-.47-1.02-.55l-2.39-.48c-1.31-.26-2.67-.08-3.86,.52l-.32,.16c-1.19,.6-2.55,.78-3.86,.52l-1.93-.39c-.65-.13-1.33,.07-1.81,.55m3.76-11.76h8l-1,1v5.17c0,.53,.21,1.04,.59,1.41l5,5c1.26,1.26,.37,3.41-1.42,3.41h-14.34c-1.78,0-2.67-2.15-1.41-3.41l5-5c.38-.38,.59-.88,.59-1.41v-5.17l-1-1Z" style="fill:none; stroke:#fff; stroke-linecap:round; stroke-linejoin:round; stroke-width:2px;"/></g><rect x="13.34" y="380" width="326" height="96" style="fill:#131313;"/><line x1="13.34" y1="379.5" x2="339.34" y2="379.5" style="fill:none; stroke:#212226;"/><path d="M30.81,418h7.64v-1.8h-5.5v-10.18h-2.14v11.98Zm12.96,.18c2.47,0,3.68-1.42,3.97-2.59l.02-.07h-1.97l-.02,.06c-.2,.42-.84,.98-1.96,.98-1.4,0-2.28-.95-2.31-2.57h6.34v-.68c0-2.74-1.59-4.55-4.18-4.55s-4.23,1.87-4.23,4.72h0c0,2.9,1.64,4.71,4.33,4.71Zm-.07-7.81c1.15,0,1.99,.74,2.13,2.22h-4.31c.16-1.44,1.02-2.22,2.17-2.22Zm9.55,7.67c.4,0,.78-.03,1.08-.09v-1.59c-.25,.03-.41,.03-.7,.03-.86,0-1.22-.38-1.22-1.29v-4.57h1.92v-1.6h-1.92v-2.22h-2.1v2.22h-1.41v1.6h1.41v5.06c0,1.75,.85,2.45,2.94,2.45Zm3.24-7.03h1.42l1.44-4.99h-2.13l-.72,4.99Zm7.73,7.17c2.23,0,3.85-1.15,3.85-2.88v-.02c0-1.32-.84-2.08-2.61-2.47l-1.47-.32c-.98-.22-1.36-.55-1.36-1.08h0c0-.69,.66-1.14,1.59-1.14,.97,0,1.57,.46,1.72,1.04v.02h1.95v-.02c-.13-1.47-1.45-2.57-3.66-2.57s-3.64,1.13-3.64,2.76h0c0,1.35,.82,2.16,2.55,2.54l1.47,.33c1,.22,1.39,.57,1.39,1.1v.02c0,.68-.71,1.14-1.74,1.14s-1.64-.44-1.85-1.07v-.02h-2.06v.02c.17,1.54,1.57,2.6,3.88,2.6Zm13.89,3c2.65,0,4.32-1.32,4.32-3.41v-8.85h-2.07v1.49h-.11c-.51-1.03-1.49-1.64-2.75-1.64-2.34,0-3.77,1.81-3.77,4.43v.02c0,2.57,1.43,4.35,3.73,4.35,1.25,0,2.24-.53,2.76-1.5h.14v1.73c0,1.16-.82,1.82-2.23,1.82-1.15,0-1.84-.41-1.98-.99v-.02h-2.08v.02c.2,1.53,1.64,2.55,4.03,2.55Zm0-5.25c-1.44,0-2.25-1.1-2.25-2.71v-.02c0-1.6,.81-2.71,2.25-2.71s2.3,1.11,2.3,2.71v.02c0,1.6-.86,2.71-2.3,2.71Zm10.53,2.25c2.71,0,4.37-1.78,4.37-4.72v-.02c0-2.92-1.66-4.7-4.37-4.7s-4.37,1.79-4.37,4.7v.02c0,2.94,1.64,4.72,4.37,4.72Zm0-1.68c-1.44,0-2.26-1.12-2.26-3.03v-.02c0-1.91,.82-3.04,2.26-3.04s2.25,1.13,2.25,3.04v.02c0,1.91-.81,3.03-2.25,3.03Zm11.16,1.49h2.07v-7.47h1.93v-1.6h-1.97v-.78c0-.86,.37-1.33,1.34-1.33,.29,0,.55,.02,.71,.04v-1.44c-.33-.06-.71-.08-1.15-.08-2.02,0-2.94,.89-2.94,2.7v.9h-1.49v1.6h1.49v7.47Zm7.94,.15c1.19,0,2.16-.51,2.66-1.39h.14v1.24h2.04v-6.2c0-1.92-1.31-3.05-3.64-3.05-2.16,0-3.62,1.01-3.82,2.54v.08s1.94,0,1.94,0v-.03c.22-.6,.83-.94,1.78-.94,1.11,0,1.7,.5,1.7,1.4v.78l-2.33,.14c-2.21,.13-3.45,1.08-3.45,2.7v.02c0,1.65,1.25,2.71,2.98,2.71Zm-.94-2.81v-.02c0-.75,.54-1.17,1.69-1.24l2.04-.13v.73c0,1.08-.92,1.89-2.17,1.89-.91,0-1.57-.46-1.57-1.23Zm11.45,2.85c2.23,0,3.85-1.15,3.85-2.88v-.02c0-1.32-.84-2.08-2.61-2.47l-1.47-.32c-.98-.22-1.36-.55-1.36-1.08h0c0-.69,.66-1.14,1.58-1.14,.97,0,1.57,.46,1.72,1.04v.02h1.95v-.02c-.13-1.47-1.45-2.57-3.66-2.57s-3.63,1.13-3.63,2.76h0c0,1.35,.82,2.16,2.55,2.54l1.47,.33c1,.22,1.39,.57,1.39,1.1v.02c0,.68-.71,1.14-1.74,1.14s-1.64-.44-1.85-1.07v-.02h-2.06v.02c.17,1.54,1.57,2.6,3.88,2.6Zm9.2-.14c.4,0,.78-.03,1.08-.09v-1.59c-.25,.03-.41,.03-.7,.03-.86,0-1.22-.38-1.22-1.29v-4.57h1.92v-1.6h-1.92v-2.22h-2.1v2.22h-1.41v1.6h1.41v5.06c0,1.75,.86,2.45,2.94,2.45Z" style="fill:#fff;"/><g style="opacity:.7;"><path d="M311.34,412c0,2.21-1.79,4-4,4s-4-1.79-4-4,1.79-4,4-4,4,1.79,4,4Z" style="fill:none; stroke:#f09436; stroke-linecap:round; stroke-linejoin:round; stroke-width:2px;"/><path d="M294.61,412c1.7-5.41,6.75-9.33,12.72-9.33s11.02,3.92,12.72,9.33c-1.7,5.41-6.75,9.33-12.72,9.33s-11.02-3.92-12.72-9.33Z" style="fill:none; stroke:#f09436; stroke-linecap:round; stroke-linejoin:round; stroke-width:2px;"/></g><g style="opacity:.5;"><path d="M41.34,445c-.55,0-1-.45-1-1s.45-1,1-1h5c.55,0,1,.45,1,1v5c0,.55-.45,1-1,1s-1-.45-1-1v-2.59l-4.29,4.29c-.39,.39-1.02,.39-1.41,0l-2.29-2.29-4.29,4.29c-.39,.39-1.02,.39-1.41,0-.39-.39-.39-1.02,0-1.41l5-5c.39-.39,1.02-.39,1.41,0l2.29,2.29,3.59-3.59h-2.59Z" style="fill:#c0c2c8; fill-rule:evenodd;"/></g><path d="M54.55,452.5h1.7v-6.8h.11l4.85,6.8h1.52v-9.86h-1.7v6.8h-.11l-4.85-6.8h-1.53v9.86Zm13.67,.15c2.24,0,3.6-1.46,3.6-3.88h0c0-2.42-1.37-3.88-3.6-3.88s-3.6,1.47-3.6,3.87h0c0,2.43,1.35,3.9,3.6,3.9Zm0-1.38c-1.18,0-1.86-.92-1.86-2.5h0c0-1.59,.68-2.51,1.86-2.51s1.85,.93,1.85,2.5h0c0,1.59-.67,2.51-1.85,2.51Zm11.98,1.26c.33,0,.64-.03,.89-.07v-1.31c-.21,.02-.33,.03-.57,.03-.71,0-1-.32-1-1.06v-3.77h1.58v-1.32h-1.58v-1.83h-1.73v1.83h-1.16v1.32h1.16v4.17c0,1.44,.7,2.02,2.42,2.02Zm2.58-.03h1.7v-4.34c0-1.07,.75-1.74,1.88-1.74,.29,0,.57,.04,.85,.1v-1.52c-.16-.05-.43-.08-.69-.08-.98,0-1.67,.47-1.92,1.27h-.12v-1.15h-1.7v7.47Zm8.83,.15c2.03,0,3.03-1.17,3.27-2.13l.02-.06h-1.62l-.02,.05c-.16,.34-.69,.81-1.61,.81-1.16,0-1.88-.78-1.9-2.12h5.22v-.56c0-2.26-1.31-3.75-3.44-3.75s-3.49,1.54-3.49,3.89h0c0,2.39,1.35,3.88,3.57,3.88Zm-.06-6.43c.95,0,1.64,.61,1.76,1.83h-3.55c.13-1.19,.84-1.83,1.79-1.83Zm5.12,6.28h1.7v-4.35c0-1.12,.63-1.83,1.64-1.83s1.5,.59,1.5,1.75v4.44h1.7v-4.83c0-1.78-.91-2.78-2.58-2.78-1.08,0-1.8,.48-2.15,1.29h-.12v-1.14h-1.7v7.47Zm11.25,.12c1.05,0,1.86-.48,2.27-1.29h.12v1.17h1.71v-10.36h-1.71v4.08h-.12c-.39-.81-1.24-1.31-2.27-1.31-1.89,0-3.06,1.48-3.06,3.86h0c0,2.38,1.19,3.86,3.06,3.86Zm.53-1.43c-1.16,0-1.87-.91-1.87-2.41h0c0-1.52,.71-2.43,1.87-2.43s1.88,.92,1.88,2.42h0c0,1.51-.72,2.43-1.88,2.43Z" style="fill:#c0c2c8;"/><g style="opacity:.5;"><path d="M258.64,439.05c.42,.13,.7,.52,.7,.95v5h4c.37,0,.71,.21,.89,.54,.17,.33,.15,.73-.07,1.04l-7,10c-.25,.36-.7,.51-1.12,.38-.42-.13-.7-.52-.7-.95v-5h-4c-.37,0-.71-.21-.89-.54-.17-.33-.15-.73,.07-1.04l7-10c.25-.36,.7-.51,1.12-.38Z" style="fill:none; stroke:#c0c2c8; stroke-linecap:round; stroke-linejoin:round; stroke-width:2px;"/><path d="M275.34,452l4.59-4.59c.78-.78,2.05-.78,2.83,0l4.59,4.59m-2-2l1.59-1.59c.78-.78,2.05-.78,2.83,0l1.59,1.59m-6-6h.01m-8.01,12h12c1.11,0,2-.89,2-2v-12c0-1.11-.89-2-2-2h-12c-1.11,0-2,.89-2,2v12c0,1.11,.89,2,2,2Z" style="fill:none; stroke:#c0c2c8; stroke-linecap:round; stroke-linejoin:round; stroke-width:2px;"/><path d="M309.04,449.29c-.39-.39-1.02-.39-1.41,0-.39,.39-.39,1.02,0,1.41l1.41-1.41Zm1.29,2.71l-.71,.71c.39,.39,1.02,.39,1.41,0l-.71-.71Zm4.71-3.29c.39-.39,.39-1.02,0-1.41-.39-.39-1.02-.39-1.41,0l1.41,1.41Zm2.29-5.71v12h2v-12h-2Zm-1,13h-10v2h10v-2Zm-11-1v-12h-2v12h2Zm1-13h2v-2h-2v2Zm8,0h2v-2h-2v2Zm-8,14c-.55,0-1-.45-1-1h-2c0,1.66,1.34,3,3,3v-2Zm11-1c0,.55-.45,1-1,1v2c1.66,0,3-1.34,3-3h-2Zm2-12c0-1.66-1.34-3-3-3v2c.55,0,1,.45,1,1h2Zm-14,0c0-.55,.45-1,1-1v-2c-1.66,0-3,1.34-3,3h2Zm2.29,7.71l2,2,1.41-1.41-2-2-1.41,1.41Zm3.41,2l4-4-1.41-1.41-4,4,1.41,1.41Zm-.71-12.71h2v-2h-2v2Zm2,2h-2v2h2v-2Zm-2,0c-.55,0-1-.45-1-1h-2c0,1.66,1.34,3,3,3v-2Zm3-1c0,.55-.45,1-1,1v2c1.66,0,3-1.34,3-3h-2Zm-1-1c.55,0,1,.45,1,1h2c0-1.66-1.34-3-3-3v2Zm-2-2c-1.66,0-3,1.34-3,3h2c0-.55,.45-1,1-1v-2Z" style="fill:#c0c2c8;"/></g><rect x="13.34" y="476" width="326" height="92" style="fill:#131313;"/><line x1="13.34" y1="475.5" x2="339.34" y2="475.5" style="fill:none; stroke:#212226;"/><path d="M30.81,514h2.14v-3.96h2.64c2.43,0,4.08-1.61,4.08-4v-.02c0-2.4-1.64-4-4.08-4h-4.78v11.98Zm4.26-10.23c1.54,0,2.43,.82,2.43,2.26v.02c0,1.44-.9,2.27-2.43,2.27h-2.12v-4.54h2.12Zm6.51,10.23h2.07v-5.27c0-1.3,.9-2.12,2.28-2.12,.36,0,.7,.05,1.03,.12v-1.85c-.2-.06-.52-.1-.84-.1-1.2,0-2.03,.57-2.33,1.54h-.14v-1.39h-2.07v9.07Zm10.48,.18c2.47,0,3.68-1.42,3.97-2.59l.02-.07h-1.97l-.02,.06c-.2,.42-.84,.98-1.96,.98-1.4,0-2.28-.95-2.31-2.57h6.34v-.68c0-2.74-1.59-4.55-4.18-4.55s-4.23,1.87-4.23,4.72h0c0,2.9,1.64,4.71,4.33,4.71Zm-.07-7.81c1.15,0,1.99,.74,2.13,2.22h-4.31c.16-1.44,1.02-2.22,2.17-2.22Zm9.41,7.81c2.23,0,3.85-1.15,3.85-2.88v-.02c0-1.32-.84-2.08-2.61-2.47l-1.47-.32c-.98-.22-1.36-.55-1.36-1.08h0c0-.69,.66-1.14,1.59-1.14,.97,0,1.57,.46,1.72,1.04v.02h1.95v-.02c-.13-1.47-1.45-2.57-3.66-2.57s-3.64,1.13-3.64,2.76h0c0,1.35,.82,2.16,2.55,2.54l1.47,.33c1,.22,1.39,.57,1.39,1.1v.02c0,.68-.71,1.14-1.74,1.14s-1.64-.44-1.85-1.07v-.02h-2.06v.02c.17,1.54,1.57,2.6,3.88,2.6Zm8.96,0c2.23,0,3.85-1.15,3.85-2.88v-.02c0-1.32-.84-2.08-2.61-2.47l-1.47-.32c-.98-.22-1.36-.55-1.36-1.08h0c0-.69,.66-1.14,1.59-1.14,.97,0,1.57,.46,1.72,1.04v.02h1.95v-.02c-.13-1.47-1.45-2.57-3.66-2.57s-3.64,1.13-3.64,2.76h0c0,1.35,.82,2.16,2.55,2.54l1.47,.33c1,.22,1.39,.57,1.39,1.1v.02c0,.68-.71,1.14-1.74,1.14s-1.64-.44-1.85-1.07v-.02h-2.06v.02c.17,1.54,1.57,2.6,3.88,2.6Zm13.56-.14c.4,0,.78-.03,1.08-.09v-1.59c-.25,.03-.41,.03-.7,.03-.86,0-1.22-.38-1.22-1.29v-4.57h1.92v-1.6h-1.92v-2.22h-2.1v2.22h-1.41v1.6h1.41v5.06c0,1.75,.85,2.45,2.94,2.45Zm2.98-.04h2.07v-5.29c0-1.36,.76-2.22,1.99-2.22s1.83,.71,1.83,2.12v5.39h2.07v-5.87c0-2.16-1.1-3.38-3.13-3.38-1.31,0-2.18,.59-2.61,1.56h-.14v-4.9h-2.07v12.58Zm11.22-10.59c.67,0,1.23-.54,1.23-1.22s-.56-1.22-1.23-1.22-1.24,.55-1.24,1.22,.56,1.22,1.24,1.22Zm-1.04,10.59h2.07v-9.07h-2.07v9.07Zm7.8,.18c2.23,0,3.85-1.15,3.85-2.88v-.02c0-1.32-.84-2.08-2.61-2.47l-1.47-.32c-.98-.22-1.36-.55-1.36-1.08h0c0-.69,.66-1.14,1.59-1.14,.97,0,1.57,.46,1.72,1.04v.02h1.95v-.02c-.13-1.47-1.45-2.57-3.66-2.57s-3.64,1.13-3.64,2.76h0c0,1.35,.82,2.16,2.55,2.54l1.47,.33c1,.22,1.39,.57,1.39,1.1v.02c0,.68-.71,1.14-1.74,1.14s-1.64-.44-1.85-1.07v-.02h-2.06v.02c.17,1.54,1.57,2.6,3.88,2.6Zm13.56-.14c.4,0,.78-.03,1.08-.09v-1.59c-.25,.03-.41,.03-.7,.03-.86,0-1.22-.38-1.22-1.29v-4.57h1.92v-1.6h-1.92v-2.22h-2.1v2.22h-1.41v1.6h1.41v5.06c0,1.75,.86,2.45,2.94,2.45Zm6.73,.14c2.71,0,4.37-1.78,4.37-4.72v-.02c0-2.92-1.66-4.7-4.37-4.7s-4.37,1.79-4.37,4.7v.02c0,2.94,1.64,4.72,4.37,4.72Zm0-1.68c-1.44,0-2.26-1.12-2.26-3.03v-.02c0-1.91,.82-3.04,2.26-3.04s2.25,1.13,2.25,3.04v.02c0,1.91-.81,3.03-2.25,3.03Zm10.49,1.49h2.07v-5.52c0-1.13,.75-1.99,1.77-1.99s1.63,.62,1.63,1.63v5.89h2.07v-5.67c0-1.04,.7-1.84,1.78-1.84s1.64,.6,1.64,1.78v5.74h2.07v-6.24c0-1.88-1.1-3.01-2.92-3.01-1.26,0-2.31,.65-2.75,1.64h-.14c-.39-1-1.29-1.64-2.51-1.64s-2.1,.57-2.49,1.59h-.14v-1.41h-2.07v9.07Zm16.29-10.59c.67,0,1.23-.54,1.23-1.22s-.56-1.22-1.23-1.22-1.24,.55-1.24,1.22,.56,1.22,1.24,1.22Zm-1.04,10.59h2.07v-9.07h-2.07v9.07Zm4.37,0h2.07v-5.52c0-1.13,.75-1.99,1.77-1.99s1.64,.62,1.64,1.63v5.89h2.07v-5.67c0-1.04,.7-1.84,1.78-1.84s1.64,.6,1.64,1.78v5.74h2.07v-6.24c0-1.88-1.09-3.01-2.92-3.01-1.26,0-2.31,.65-2.75,1.64h-.14c-.39-1-1.29-1.64-2.51-1.64s-2.1,.57-2.49,1.59h-.14v-1.41h-2.07v9.07Zm16.3-10.59c.67,0,1.23-.54,1.23-1.22s-.56-1.22-1.23-1.22-1.24,.55-1.24,1.22,.56,1.22,1.24,1.22Zm-1.04,10.59h2.07v-9.07h-2.07v9.07Zm8.26,.18c2.3,0,3.64-1.24,3.93-3.1l.02-.07h-1.95s-.02,.04-.02,.04c-.26,.95-.91,1.44-1.98,1.44-1.4,0-2.24-1.13-2.24-3.06v-.02c0-1.9,.83-3.01,2.24-3.01,1.13,0,1.8,.63,1.99,1.51v.02h1.96v-.03c-.23-1.88-1.63-3.17-3.96-3.17-2.73,0-4.33,1.75-4.33,4.68v.02c0,2.96,1.61,4.73,4.34,4.73Zm12.44-.03c1.2,0,2.16-.51,2.66-1.39h.14v1.24h2.04v-6.2c0-1.92-1.31-3.05-3.64-3.05-2.16,0-3.62,1.01-3.82,2.54v.08s1.94,0,1.94,0v-.03c.21-.6,.83-.94,1.78-.94,1.11,0,1.7,.5,1.7,1.4v.78l-2.33,.14c-2.21,.13-3.44,1.08-3.44,2.7v.02c0,1.65,1.25,2.71,2.98,2.71Zm-.94-2.81v-.02c0-.75,.54-1.17,1.69-1.24l2.04-.13v.73c0,1.08-.92,1.89-2.17,1.89-.91,0-1.57-.46-1.57-1.23Zm11.29,2.81c1.28,0,2.26-.58,2.76-1.57h.14v1.42h2.07v-12.58h-2.07v4.96h-.14c-.47-.98-1.51-1.59-2.76-1.59-2.3,0-3.72,1.79-3.72,4.68v.02c0,2.87,1.44,4.67,3.72,4.67Zm.65-1.74c-1.41,0-2.27-1.1-2.27-2.93v-.02c0-1.83,.86-2.94,2.27-2.94s2.28,1.12,2.28,2.94v.02c0,1.82-.87,2.93-2.28,2.93Zm10.57,1.78c2.46,0,3.68-1.42,3.97-2.59l.02-.07h-1.97l-.02,.06c-.2,.42-.84,.98-1.96,.98-1.4,0-2.28-.95-2.31-2.57h6.34v-.68c0-2.74-1.59-4.55-4.18-4.55s-4.23,1.87-4.23,4.72h0c0,2.9,1.63,4.71,4.33,4.71Zm-.07-7.81c1.15,0,1.99,.74,2.13,2.22h-4.31c.16-1.44,1.02-2.22,2.17-2.22Zm5.98,7.63h2.07v-5.29c0-1.36,.76-2.22,1.99-2.22s1.83,.71,1.83,2.12v5.39h2.07v-5.87c0-2.16-1.1-3.38-3.13-3.38-1.31,0-2.18,.59-2.61,1.56h-.14v-1.39h-2.07v9.07Zm14.07,.18c2.71,0,4.37-1.78,4.37-4.72v-.02c0-2.92-1.66-4.7-4.37-4.7s-4.37,1.79-4.37,4.7v.02c0,2.94,1.64,4.72,4.37,4.72Zm0-1.68c-1.44,0-2.26-1.12-2.26-3.03v-.02c0-1.91,.82-3.04,2.26-3.04s2.25,1.13,2.25,3.04v.02c0,1.91-.81,3.03-2.25,3.03Zm9.63,1.68c2.23,0,3.85-1.15,3.85-2.88v-.02c0-1.32-.84-2.08-2.61-2.47l-1.47-.32c-.98-.22-1.36-.55-1.36-1.08h0c0-.69,.66-1.14,1.59-1.14,.97,0,1.57,.46,1.72,1.04v.02h1.95v-.02c-.13-1.47-1.45-2.57-3.66-2.57s-3.64,1.13-3.64,2.76h0c0,1.35,.82,2.16,2.55,2.54l1.47,.33c1,.22,1.39,.57,1.39,1.1v.02c0,.68-.71,1.14-1.74,1.14s-1.63-.44-1.85-1.07v-.02h-2.06v.02c.18,1.54,1.57,2.6,3.88,2.6Zm6.76-10.78c.67,0,1.23-.54,1.23-1.22s-.56-1.22-1.23-1.22-1.24,.55-1.24,1.22,.56,1.22,1.24,1.22Zm-1.04,10.59h2.07v-9.07h-2.07v9.07Zm4.37,0h2.07v-5.29c0-1.36,.76-2.22,1.99-2.22s1.83,.71,1.83,2.12v5.39h2.07v-5.87c0-2.16-1.1-3.38-3.13-3.38-1.31,0-2.18,.59-2.62,1.56h-.14v-1.39h-2.07v9.07Zm14.04,.18c2.46,0,3.68-1.42,3.97-2.59l.03-.07h-1.97l-.02,.06c-.2,.42-.84,.98-1.96,.98-1.4,0-2.28-.95-2.31-2.57h6.34v-.68c0-2.74-1.59-4.55-4.17-4.55s-4.23,1.87-4.23,4.72h0c0,2.9,1.64,4.71,4.33,4.71Zm-.08-7.81c1.15,0,1.99,.74,2.13,2.22h-4.31c.16-1.44,1.02-2.22,2.17-2.22Z" style="fill:#fff;"/><g style="opacity:.7;"><path d="M311.34,508c0,2.21-1.79,4-4,4s-4-1.79-4-4,1.79-4,4-4,4,1.79,4,4Z" style="fill:none; stroke:#f09436; stroke-linecap:round; stroke-linejoin:round; stroke-width:2px;"/><path d="M294.61,508c1.7-5.41,6.75-9.33,12.72-9.33s11.02,3.92,12.72,9.33c-1.7,5.41-6.75,9.33-12.72,9.33s-11.02-3.92-12.72-9.33Z" style="fill:none; stroke:#f09436; stroke-linecap:round; stroke-linejoin:round; stroke-width:2px;"/></g><g style="opacity:.5;"><path d="M41.34,539c-.55,0-1-.45-1-1s.45-1,1-1h5c.55,0,1,.45,1,1v5c0,.55-.45,1-1,1s-1-.45-1-1v-2.59l-4.29,4.29c-.39,.39-1.02,.39-1.41,0l-2.29-2.29-4.29,4.29c-.39,.39-1.02,.39-1.41,0-.39-.39-.39-1.02,0-1.41l5-5c.39-.39,1.02-.39,1.41,0l2.29,2.29,3.59-3.59h-2.59Z" style="fill:#c0c2c8; fill-rule:evenodd;"/></g><path d="M57.01,546.5h1.76v-8.38h3.04v-1.48h-7.84v1.48h3.04v8.38Zm5.6,0h1.7v-4.34c0-1.07,.75-1.74,1.88-1.74,.29,0,.57,.04,.85,.1v-1.53c-.16-.05-.43-.08-.69-.08-.98,0-1.67,.47-1.92,1.27h-.12v-1.15h-1.7v7.47Zm8.83,.15c2.03,0,3.03-1.17,3.27-2.13l.02-.06h-1.62l-.02,.05c-.16,.34-.69,.81-1.61,.81-1.16,0-1.88-.78-1.9-2.12h5.22v-.56c0-2.26-1.31-3.75-3.44-3.75s-3.49,1.54-3.49,3.89h0c0,2.39,1.35,3.88,3.57,3.88Zm-.06-6.43c.95,0,1.64,.61,1.76,1.83h-3.55c.13-1.19,.84-1.83,1.79-1.83Zm5.12,6.28h1.7v-4.35c0-1.12,.63-1.83,1.64-1.83s1.5,.59,1.5,1.75v4.44h1.7v-4.83c0-1.78-.91-2.78-2.58-2.78-1.08,0-1.8,.48-2.15,1.28h-.12v-1.14h-1.7v7.47Zm11.25,.12c1.05,0,1.86-.48,2.27-1.29h.12v1.17h1.71v-10.36h-1.71v4.08h-.12c-.39-.81-1.24-1.31-2.27-1.31-1.89,0-3.06,1.48-3.06,3.86h0c0,2.38,1.19,3.86,3.06,3.86Zm.53-1.43c-1.16,0-1.87-.91-1.87-2.41h0c0-1.52,.71-2.43,1.87-2.43s1.88,.92,1.88,2.42h0c0,1.51-.72,2.43-1.88,2.43Zm9.43,1.31h6.85v-1.46h-4.46v-.14l1.98-1.91c1.8-1.73,2.34-2.62,2.34-3.74v-.02c0-1.66-1.38-2.83-3.3-2.83-2.06,0-3.49,1.28-3.49,3.12v.02s1.65,0,1.65,0v-.03c0-1.02,.71-1.71,1.76-1.71s1.65,.66,1.65,1.57v.02c0,.76-.38,1.26-1.72,2.61l-3.24,3.31v1.19Zm12.42,.25c2.35,0,3.77-1.99,3.77-5.17h0c0-3.2-1.42-5.18-3.77-5.18s-3.75,1.98-3.75,5.17h0c0,3.2,1.41,5.19,3.75,5.19Zm0-1.43c-1.26,0-1.98-1.41-1.98-3.75h0c0-2.35,.72-3.75,1.98-3.75s1.99,1.39,1.99,3.73h0c0,2.35-.73,3.76-1.99,3.76Zm8.52,1.33c1.84,0,3.17-.95,3.17-2.37h0c0-1.1-.69-1.72-2.15-2.05l-1.21-.27c-.81-.18-1.12-.45-1.12-.89h0c0-.57,.55-.94,1.31-.94,.8,0,1.29,.38,1.42,.85v.02h1.61c-.11-1.22-1.2-2.13-3.01-2.13s-2.99,.93-2.99,2.28h0c0,1.11,.68,1.78,2.1,2.09l1.21,.27c.82,.18,1.15,.47,1.15,.91h0c0,.57-.59,.96-1.43,.96s-1.35-.36-1.53-.88h0s-1.69-.01-1.69-.01h0c.14,1.28,1.29,2.15,3.19,2.15Zm8.09,0c2.03,0,3.03-1.17,3.27-2.13l.02-.06h-1.62l-.02,.05c-.16,.34-.69,.81-1.61,.81-1.16,0-1.88-.78-1.9-2.12h5.22v-.56c0-2.26-1.31-3.75-3.44-3.75s-3.49,1.54-3.49,3.89h0c0,2.39,1.35,3.88,3.57,3.88Zm-.06-6.43c.95,0,1.64,.61,1.76,1.83h-3.55c.13-1.19,.84-1.83,1.79-1.83Zm8.33,6.43c1.89,0,2.99-1.02,3.24-2.55v-.05s-1.59,0-1.59,0v.03c-.22,.79-.76,1.19-1.65,1.19-1.15,0-1.85-.93-1.85-2.52h0c0-1.58,.68-2.5,1.85-2.5,.93,0,1.48,.52,1.64,1.24v.02h1.61v-.03c-.19-1.54-1.34-2.61-3.26-2.61-2.25,0-3.57,1.44-3.57,3.85h0c0,2.45,1.33,3.91,3.58,3.91Z" style="fill:#c0c2c8;"/><rect x="13.34" y="568" width="326" height="96" style="fill:#131313;"/><line x1="13.34" y1="567.5" x2="339.34" y2="567.5" style="fill:none; stroke:#212226;"/><path d="M32.13,606.17c.76,0,1.32-.57,1.32-1.31s-.56-1.31-1.32-1.31-1.32,.57-1.32,1.31,.56,1.31,1.32,1.31Zm5.35,0c.76,0,1.32-.57,1.32-1.31s-.56-1.31-1.32-1.31-1.32,.57-1.32,1.31,.56,1.31,1.32,1.31Zm5.35,0c.76,0,1.32-.57,1.32-1.31s-.56-1.31-1.32-1.31-1.32,.57-1.32,1.31,.56,1.31,1.32,1.31Zm6.29-.02c1.2,0,2.16-.51,2.66-1.39h.14v1.24h2.04v-6.2c0-1.92-1.31-3.05-3.64-3.05-2.16,0-3.62,1.01-3.82,2.54v.07s1.94,0,1.94,0v-.03c.22-.6,.83-.94,1.78-.94,1.11,0,1.7,.5,1.7,1.4v.78l-2.33,.14c-2.21,.13-3.44,1.08-3.44,2.7v.02c0,1.65,1.25,2.71,2.98,2.71Zm-.94-2.81v-.02c0-.75,.54-1.17,1.69-1.24l2.04-.13v.73c0,1.08-.92,1.89-2.17,1.89-.91,0-1.57-.46-1.57-1.23Zm8.02,2.66h2.07v-5.29c0-1.36,.76-2.22,1.99-2.22s1.83,.71,1.83,2.12v5.39h2.07v-5.87c0-2.16-1.1-3.38-3.13-3.38-1.31,0-2.18,.59-2.61,1.56h-.14v-1.39h-2.07v9.07Zm13.42,.15c1.28,0,2.26-.58,2.76-1.57h.14v1.42h2.08v-12.58h-2.08v4.96h-.14c-.47-.98-1.51-1.59-2.76-1.59-2.3,0-3.72,1.79-3.72,4.68v.02c0,2.87,1.44,4.67,3.72,4.67Zm.65-1.74c-1.41,0-2.27-1.1-2.27-2.93v-.02c0-1.83,.86-2.94,2.27-2.94s2.28,1.12,2.28,2.94v.02c0,1.82-.87,2.93-2.28,2.93Zm12.02-9c.68,0,1.24-.54,1.24-1.22s-.56-1.22-1.24-1.22-1.23,.55-1.23,1.22,.56,1.22,1.23,1.22Zm-2.03,13.69c2.03,0,3.06-.89,3.06-2.75v-9.42h-2.07v9.4c0,.84-.35,1.14-1.23,1.14-.09,0-.18,0-.27,0v1.63c.12,0,.33,.02,.5,.02Zm8.38-2.91c1.31,0,2.23-.59,2.66-1.56h.14v1.38h2.07v-9.07h-2.07v5.29c0,1.36-.71,2.22-2.05,2.22-1.25,0-1.77-.71-1.77-2.12v-5.4h-2.07v5.87c0,2.16,1.05,3.39,3.09,3.39Zm7.15-.18h2.07v-5.52c0-1.13,.75-1.99,1.77-1.99s1.64,.62,1.64,1.63v5.89h2.07v-5.67c0-1.04,.7-1.84,1.78-1.84s1.64,.6,1.64,1.78v5.74h2.07v-6.24c0-1.88-1.1-3.01-2.92-3.01-1.26,0-2.31,.65-2.75,1.64h-.14c-.39-1-1.29-1.64-2.52-1.64s-2.1,.57-2.49,1.59h-.14v-1.41h-2.07v9.07Zm15.23,3.01h2.07v-4.46h.14c.47,.98,1.51,1.59,2.75,1.59,2.3,0,3.73-1.78,3.73-4.67v-.02c0-2.87-1.45-4.68-3.73-4.68-1.27,0-2.26,.58-2.75,1.57h-.14v-1.42h-2.07v12.09Zm4.32-4.61c-1.4,0-2.27-1.12-2.27-2.94v-.02c0-1.82,.87-2.93,2.27-2.93s2.27,1.11,2.27,2.94v.02c0,1.82-.86,2.93-2.27,2.93Zm14.08,1.64c.4,0,.78-.03,1.08-.09v-1.59c-.25,.02-.41,.03-.7,.03-.86,0-1.22-.38-1.22-1.29v-4.57h1.92v-1.6h-1.92v-2.22h-2.1v2.22h-1.41v1.6h1.41v5.06c0,1.75,.85,2.45,2.94,2.45Zm6.73,.14c2.71,0,4.37-1.78,4.37-4.71v-.02c0-2.92-1.66-4.7-4.37-4.7s-4.37,1.79-4.37,4.7v.02c0,2.94,1.64,4.71,4.37,4.71Zm0-1.68c-1.44,0-2.26-1.12-2.26-3.03v-.02c0-1.91,.82-3.04,2.26-3.04s2.25,1.13,2.25,3.04v.02c0,1.91-.81,3.03-2.25,3.03Zm14.87,1.79c2.87,0,4.67-1.46,4.67-3.79h0c0-1.82-1.05-2.83-3.58-3.36l-1.29-.27c-1.49-.32-2.1-.85-2.1-1.69h0c0-1.03,.95-1.65,2.28-1.65,1.37,0,2.26,.66,2.41,1.59l.02,.1h2.05v-.11c-.16-1.93-1.81-3.38-4.47-3.38s-4.43,1.44-4.43,3.59h0c0,1.79,1.06,2.94,3.51,3.45l1.29,.27c1.54,.33,2.17,.85,2.17,1.72h0c0,1.04-1.01,1.75-2.46,1.75-1.52,0-2.59-.66-2.69-1.67v-.08h-2.08v.12c.16,2.07,1.93,3.44,4.71,3.44Zm7.69-10.89c.67,0,1.23-.54,1.23-1.22s-.56-1.22-1.23-1.22-1.24,.55-1.24,1.22,.56,1.22,1.24,1.22Zm-1.04,10.59h2.07v-9.07h-2.07v9.07Zm4.37,0h2.07v-5.29c0-1.36,.76-2.22,1.99-2.22s1.83,.71,1.83,2.12v5.39h2.07v-5.87c0-2.16-1.1-3.38-3.13-3.38-1.31,0-2.18,.59-2.61,1.56h-.14v-1.39h-2.07v9.07Zm13.16,.18c1.31,0,2.23-.59,2.66-1.56h.14v1.38h2.07v-9.07h-2.07v5.29c0,1.36-.71,2.22-2.05,2.22-1.24,0-1.77-.71-1.77-2.12v-5.4h-2.07v5.87c0,2.16,1.05,3.39,3.09,3.39Zm10.58,0c2.23,0,3.85-1.15,3.85-2.88v-.02c0-1.32-.84-2.08-2.62-2.47l-1.47-.32c-.98-.22-1.36-.55-1.36-1.08h0c0-.69,.66-1.14,1.59-1.14,.97,0,1.57,.47,1.72,1.04v.02h1.95v-.02c-.13-1.47-1.45-2.57-3.66-2.57s-3.63,1.13-3.63,2.76h0c0,1.34,.82,2.16,2.55,2.54l1.47,.33c1,.22,1.4,.57,1.4,1.1v.02c0,.68-.71,1.15-1.74,1.15s-1.63-.44-1.85-1.07v-.02h-2.06v.02c.17,1.54,1.57,2.6,3.88,2.6Z" style="fill:#fff;"/><g style="opacity:.7;"><path d="M311.34,600c0,2.21-1.79,4-4,4s-4-1.79-4-4,1.79-4,4-4,4,1.79,4,4Z" style="fill:none; stroke:#f09436; stroke-linecap:round; stroke-linejoin:round; stroke-width:2px;"/><path d="M294.61,600c1.7-5.41,6.75-9.33,12.72-9.33s11.02,3.92,12.72,9.33c-1.7,5.41-6.75,9.33-12.72,9.33s-11.02-3.92-12.72-9.33Z" style="fill:none; stroke:#f09436; stroke-linecap:round; stroke-linejoin:round; stroke-width:2px;"/></g><g style="opacity:.5;"><path d="M41.34,633c-.55,0-1-.45-1-1s.45-1,1-1h5c.55,0,1,.45,1,1v5c0,.55-.45,1-1,1s-1-.45-1-1v-2.59l-4.29,4.29c-.39,.39-1.02,.39-1.41,0l-2.29-2.29-4.29,4.29c-.39,.39-1.02,.39-1.41,0-.39-.39-.39-1.02,0-1.41l5-5c.39-.39,1.02-.39,1.41,0l2.29,2.29,3.59-3.59h-2.59Z" style="fill:#c0c2c8; fill-rule:evenodd;"/></g><path d="M54.55,640.5h1.7v-6.79h.11l4.85,6.79h1.52v-9.86h-1.7v6.8h-.11l-4.85-6.8h-1.53v9.86Zm13.67,.15c2.24,0,3.6-1.46,3.6-3.88h0c0-2.42-1.37-3.88-3.6-3.88s-3.6,1.47-3.6,3.87h0c0,2.43,1.35,3.9,3.6,3.9Zm0-1.38c-1.18,0-1.86-.92-1.86-2.5h0c0-1.59,.68-2.52,1.86-2.52s1.85,.93,1.85,2.5h0c0,1.59-.67,2.51-1.85,2.51Zm11.98,1.26c.33,0,.64-.03,.89-.08v-1.31c-.21,.02-.33,.03-.57,.03-.71,0-1-.32-1-1.06v-3.77h1.58v-1.32h-1.58v-1.83h-1.73v1.83h-1.16v1.32h1.16v4.17c0,1.44,.7,2.02,2.42,2.02Zm2.58-.03h1.7v-4.34c0-1.07,.75-1.74,1.88-1.74,.29,0,.57,.04,.85,.1v-1.53c-.16-.05-.43-.08-.69-.08-.98,0-1.67,.47-1.92,1.27h-.12v-1.15h-1.7v7.47Zm8.83,.15c2.03,0,3.03-1.17,3.27-2.13l.02-.06h-1.62l-.02,.05c-.16,.34-.69,.81-1.61,.81-1.16,0-1.88-.78-1.9-2.12h5.22v-.56c0-2.26-1.31-3.75-3.44-3.75s-3.49,1.54-3.49,3.89h0c0,2.39,1.35,3.88,3.57,3.88Zm-.06-6.43c.95,0,1.64,.61,1.76,1.83h-3.55c.13-1.19,.84-1.83,1.79-1.83Zm5.12,6.28h1.7v-4.35c0-1.12,.63-1.83,1.64-1.83s1.5,.59,1.5,1.75v4.44h1.7v-4.83c0-1.78-.91-2.78-2.58-2.78-1.08,0-1.8,.48-2.15,1.28h-.12v-1.14h-1.7v7.47Zm11.25,.12c1.05,0,1.86-.48,2.27-1.29h.12v1.17h1.71v-10.36h-1.71v4.08h-.12c-.39-.81-1.24-1.31-2.27-1.31-1.89,0-3.06,1.48-3.06,3.86h0c0,2.38,1.19,3.86,3.06,3.86Zm.53-1.43c-1.16,0-1.87-.91-1.87-2.41h0c0-1.52,.71-2.43,1.87-2.43s1.88,.92,1.88,2.42h0c0,1.51-.72,2.43-1.88,2.43Z" style="fill:#c0c2c8;"/><g style="opacity:.5;"><path d="M286.64,627.05c.42,.13,.7,.52,.7,.95v5h4c.37,0,.71,.21,.89,.54,.17,.33,.15,.73-.07,1.04l-7,10c-.25,.36-.7,.51-1.12,.38-.42-.13-.7-.52-.7-.95v-5h-4c-.37,0-.71-.21-.89-.54-.17-.33-.15-.73,.07-1.03l7-10c.25-.36,.7-.51,1.12-.38Z" style="fill:none; stroke:#c0c2c8; stroke-linecap:round; stroke-linejoin:round; stroke-width:2px;"/><path d="M314.87,632.46c1.95,1.95,1.95,5.12,0,7.07m2.83-9.9c3.51,3.52,3.51,9.21,0,12.73m-12.78-3.36h-1.59c-.55,0-1-.45-1-1v-4c0-.55,.45-1,1-1h1.59l4.71-4.71c.63-.63,1.71-.18,1.71,.71v14c0,.89-1.08,1.34-1.71,.71l-4.71-4.71Z" style="fill:none; stroke:#c0c2c8; stroke-linecap:round; stroke-linejoin:round; stroke-width:2px;"/></g><rect x="13.34" y="664" width="326" height="96" style="fill:#131313;"/><line x1="13.34" y1="663.5" x2="339.34" y2="663.5" style="fill:none; stroke:#212226;"/><path d="M30.81,702h7.64v-1.8h-5.5v-10.18h-2.14v11.98Zm12.96,.18c2.47,0,3.68-1.42,3.97-2.59l.02-.08h-1.97l-.02,.06c-.2,.42-.84,.98-1.96,.98-1.4,0-2.28-.95-2.31-2.57h6.34v-.68c0-2.74-1.59-4.55-4.18-4.55s-4.23,1.87-4.23,4.72h0c0,2.9,1.64,4.71,4.33,4.71Zm-.07-7.81c1.15,0,1.99,.74,2.13,2.22h-4.31c.16-1.44,1.02-2.22,2.17-2.22Zm9.55,7.67c.4,0,.78-.03,1.08-.09v-1.59c-.25,.02-.41,.03-.7,.03-.86,0-1.22-.38-1.22-1.29v-4.57h1.92v-1.6h-1.92v-2.22h-2.1v2.22h-1.41v1.6h1.41v5.06c0,1.75,.85,2.45,2.94,2.45Zm6.21,.14c2.23,0,3.85-1.15,3.85-2.88v-.02c0-1.32-.84-2.08-2.61-2.47l-1.47-.32c-.98-.22-1.36-.55-1.36-1.08h0c0-.69,.66-1.14,1.59-1.14,.97,0,1.57,.47,1.72,1.04v.02h1.95v-.02c-.13-1.47-1.45-2.57-3.66-2.57s-3.64,1.13-3.64,2.76h0c0,1.34,.82,2.16,2.55,2.54l1.47,.33c1,.22,1.39,.57,1.39,1.1v.02c0,.68-.71,1.15-1.74,1.15s-1.64-.44-1.85-1.07v-.02h-2.06v.02c.17,1.54,1.57,2.6,3.88,2.6Zm12.46-.03c1.2,0,2.16-.51,2.66-1.39h.14v1.24h2.04v-6.2c0-1.92-1.31-3.05-3.64-3.05-2.16,0-3.62,1.01-3.82,2.54v.07s1.94,0,1.94,0v-.03c.22-.6,.83-.94,1.78-.94,1.11,0,1.7,.5,1.7,1.4v.78l-2.33,.14c-2.21,.13-3.44,1.08-3.44,2.7v.02c0,1.65,1.25,2.71,2.98,2.71Zm-.94-2.81v-.02c0-.75,.54-1.17,1.69-1.24l2.04-.13v.73c0,1.08-.92,1.89-2.17,1.89-.91,0-1.57-.46-1.57-1.23Zm11.29,2.81c1.28,0,2.26-.58,2.76-1.57h.14v1.42h2.08v-12.58h-2.08v4.96h-.14c-.47-.98-1.51-1.59-2.76-1.59-2.3,0-3.72,1.79-3.72,4.68v.02c0,2.87,1.44,4.67,3.72,4.67Zm.65-1.74c-1.41,0-2.27-1.1-2.27-2.93v-.02c0-1.83,.86-2.94,2.27-2.94s2.28,1.12,2.28,2.94v.02c0,1.82-.87,2.93-2.28,2.93Zm9.95,1.74c1.28,0,2.26-.58,2.76-1.57h.14v1.42h2.08v-12.58h-2.08v4.96h-.14c-.47-.98-1.51-1.59-2.76-1.59-2.3,0-3.72,1.79-3.72,4.68v.02c0,2.87,1.44,4.67,3.72,4.67Zm.65-1.74c-1.41,0-2.27-1.1-2.27-2.93v-.02c0-1.83,.86-2.94,2.27-2.94s2.28,1.12,2.28,2.94v.02c0,1.82-.87,2.93-2.28,2.93Zm14.4,1.78c2.23,0,3.85-1.15,3.85-2.88v-.02c0-1.32-.84-2.08-2.61-2.47l-1.47-.32c-.98-.22-1.36-.55-1.36-1.08h0c0-.69,.66-1.14,1.58-1.14,.97,0,1.57,.47,1.72,1.04v.02h1.95v-.02c-.13-1.47-1.45-2.57-3.66-2.57s-3.64,1.13-3.64,2.76h0c0,1.34,.82,2.16,2.55,2.54l1.47,.33c1,.22,1.39,.57,1.39,1.1v.02c0,.68-.71,1.15-1.74,1.15s-1.63-.44-1.85-1.07v-.02h-2.06v.02c.17,1.54,1.57,2.6,3.88,2.6Zm9.61,0c2.71,0,4.37-1.78,4.37-4.71v-.02c0-2.92-1.66-4.7-4.37-4.7s-4.37,1.79-4.37,4.7v.02c0,2.94,1.64,4.71,4.37,4.71Zm0-1.68c-1.44,0-2.26-1.12-2.26-3.03v-.02c0-1.91,.82-3.04,2.26-3.04s2.25,1.13,2.25,3.04v.02c0,1.91-.81,3.03-2.25,3.03Zm6.2,1.49h2.07v-5.52c0-1.13,.75-1.99,1.77-1.99s1.63,.62,1.63,1.63v5.89h2.07v-5.67c0-1.04,.7-1.84,1.78-1.84s1.64,.6,1.64,1.78v5.74h2.07v-6.24c0-1.88-1.1-3.01-2.92-3.01-1.26,0-2.31,.65-2.75,1.64h-.14c-.39-1-1.29-1.64-2.52-1.64s-2.1,.57-2.49,1.59h-.14v-1.41h-2.07v9.07Zm19.12,.18c2.46,0,3.68-1.42,3.97-2.59l.02-.08h-1.97l-.02,.06c-.2,.42-.84,.98-1.96,.98-1.4,0-2.28-.95-2.31-2.57h6.34v-.68c0-2.74-1.59-4.55-4.18-4.55s-4.23,1.87-4.23,4.72h0c0,2.9,1.63,4.71,4.33,4.71Zm-.08-7.81c1.15,0,1.99,.74,2.13,2.22h-4.31c.16-1.44,1.02-2.22,2.17-2.22Zm12,7.63h2.14l1.76-6.57h.14l1.77,6.57h2.17l2.46-9.07h-2.05l-1.5,6.82h-.14l-1.76-6.82h-1.97l-1.74,6.82h-.14l-1.51-6.82h-2.07l2.46,9.07Zm14.22,.15c1.2,0,2.16-.51,2.66-1.39h.14v1.24h2.04v-6.2c0-1.92-1.31-3.05-3.64-3.05-2.16,0-3.62,1.01-3.82,2.54v.07s1.94,0,1.94,0v-.03c.22-.6,.83-.94,1.78-.94,1.11,0,1.7,.5,1.7,1.4v.78l-2.33,.14c-2.21,.13-3.44,1.08-3.44,2.7v.02c0,1.65,1.25,2.71,2.98,2.71Zm-.94-2.81v-.02c0-.75,.54-1.17,1.69-1.24l2.04-.13v.73c0,1.08-.92,1.89-2.17,1.89-.91,0-1.57-.46-1.57-1.23Zm10.18,2.66h2.27l3.21-9.07h-2.18l-2.08,7.06h-.14l-2.1-7.06h-2.21l3.23,9.07Zm10.5,.18c2.46,0,3.68-1.42,3.97-2.59l.02-.08h-1.97l-.03,.06c-.2,.42-.84,.98-1.96,.98-1.4,0-2.28-.95-2.31-2.57h6.34v-.68c0-2.74-1.59-4.55-4.17-4.55s-4.23,1.87-4.23,4.72h0c0,2.9,1.63,4.71,4.33,4.71Zm-.07-7.81c1.15,0,1.99,.74,2.13,2.22h-4.31c.16-1.44,1.02-2.22,2.18-2.22Zm6.64,7.63h2.07v-7.47h1.93v-1.6h-1.97v-.78c0-.86,.37-1.33,1.35-1.33,.29,0,.55,.02,.71,.04v-1.44c-.33-.06-.71-.08-1.15-.08-2.02,0-2.94,.89-2.94,2.7v.9h-1.49v1.6h1.49v7.47Zm9.34,.18c2.72,0,4.37-1.78,4.37-4.71v-.02c0-2.92-1.66-4.7-4.37-4.7s-4.37,1.79-4.37,4.7v.02c0,2.94,1.64,4.71,4.37,4.71Zm0-1.68c-1.44,0-2.26-1.12-2.26-3.03v-.02c0-1.91,.82-3.04,2.26-3.04s2.25,1.13,2.25,3.04v.02c0,1.91-.81,3.03-2.25,3.03Zm6.2,1.49h2.07v-5.27c0-1.29,.9-2.12,2.28-2.12,.36,0,.7,.05,1.03,.12v-1.85c-.2-.06-.52-.1-.84-.1-1.19,0-2.02,.57-2.33,1.54h-.14v-1.4h-2.07v9.07Zm6.95,0h2.07v-5.52c0-1.13,.75-1.99,1.77-1.99s1.64,.62,1.64,1.63v5.89h2.07v-5.67c0-1.04,.7-1.84,1.78-1.84s1.64,.6,1.64,1.78v5.74h2.07v-6.24c0-1.88-1.1-3.01-2.92-3.01-1.26,0-2.31,.65-2.75,1.64h-.14c-.39-1-1.29-1.64-2.52-1.64s-2.1,.57-2.49,1.59h-.14v-1.41h-2.07v9.07Zm18.66,.18c2.23,0,3.85-1.15,3.85-2.88v-.02c0-1.32-.84-2.08-2.62-2.47l-1.47-.32c-.98-.22-1.36-.55-1.36-1.08h0c0-.69,.66-1.14,1.59-1.14,.97,0,1.57,.47,1.72,1.04v.02h1.95v-.02c-.13-1.47-1.45-2.57-3.66-2.57s-3.64,1.13-3.64,2.76h0c0,1.34,.82,2.16,2.55,2.54l1.47,.33c1,.22,1.39,.57,1.39,1.1v.02c0,.68-.71,1.15-1.74,1.15s-1.64-.44-1.85-1.07v-.02h-2.06v.02c.17,1.54,1.57,2.6,3.88,2.6Z" style="fill:#fff;"/><g style="opacity:.7;"><path d="M311.34,696c0,2.21-1.79,4-4,4s-4-1.79-4-4,1.79-4,4-4,4,1.79,4,4Z" style="fill:none; stroke:#f09436; stroke-linecap:round; stroke-linejoin:round; stroke-width:2px;"/><path d="M294.61,696c1.7-5.41,6.75-9.33,12.72-9.33s11.02,3.92,12.72,9.33c-1.7,5.41-6.75,9.33-12.72,9.33s-11.02-3.92-12.72-9.33Z" style="fill:none; stroke:#f09436; stroke-linecap:round; stroke-linejoin:round; stroke-width:2px;"/></g><g style="opacity:.5;"><path d="M41.34,729c-.55,0-1-.45-1-1s.45-1,1-1h5c.55,0,1,.45,1,1v5c0,.55-.45,1-1,1s-1-.45-1-1v-2.59l-4.29,4.29c-.39,.39-1.02,.39-1.41,0l-2.29-2.29-4.29,4.29c-.39,.39-1.02,.39-1.41,0-.39-.39-.39-1.02,0-1.41l5-5c.39-.39,1.02-.39,1.41,0l2.29,2.29,3.59-3.59h-2.59Z" style="fill:#c0c2c8; fill-rule:evenodd;"/></g><path d="M54.55,736.5h1.7v-6.79h.11l4.85,6.79h1.52v-9.86h-1.7v6.8h-.11l-4.85-6.8h-1.53v9.86Zm13.67,.15c2.24,0,3.6-1.46,3.6-3.88h0c0-2.42-1.37-3.88-3.6-3.88s-3.6,1.47-3.6,3.87h0c0,2.43,1.35,3.9,3.6,3.9Zm0-1.38c-1.18,0-1.86-.92-1.86-2.5h0c0-1.59,.68-2.52,1.86-2.52s1.85,.93,1.85,2.5h0c0,1.59-.67,2.51-1.85,2.51Zm11.98,1.26c.33,0,.64-.03,.89-.08v-1.31c-.21,.02-.33,.03-.57,.03-.71,0-1-.32-1-1.06v-3.77h1.58v-1.32h-1.58v-1.83h-1.73v1.83h-1.16v1.32h1.16v4.17c0,1.44,.7,2.02,2.42,2.02Zm2.58-.03h1.7v-4.34c0-1.07,.75-1.74,1.88-1.74,.29,0,.57,.04,.85,.1v-1.53c-.16-.05-.43-.08-.69-.08-.98,0-1.67,.47-1.92,1.27h-.12v-1.15h-1.7v7.47Zm8.83,.15c2.03,0,3.03-1.17,3.27-2.13l.02-.06h-1.62l-.02,.05c-.16,.34-.69,.81-1.61,.81-1.16,0-1.88-.78-1.9-2.12h5.22v-.56c0-2.26-1.31-3.75-3.44-3.75s-3.49,1.54-3.49,3.89h0c0,2.39,1.35,3.88,3.57,3.88Zm-.06-6.43c.95,0,1.64,.61,1.76,1.83h-3.55c.13-1.19,.84-1.83,1.79-1.83Zm5.12,6.28h1.7v-4.35c0-1.12,.63-1.83,1.64-1.83s1.5,.59,1.5,1.75v4.44h1.7v-4.83c0-1.78-.91-2.78-2.58-2.78-1.08,0-1.8,.48-2.15,1.28h-.12v-1.14h-1.7v7.47Zm11.25,.12c1.05,0,1.86-.48,2.27-1.29h.12v1.17h1.71v-10.36h-1.71v4.08h-.12c-.39-.81-1.24-1.31-2.27-1.31-1.89,0-3.06,1.48-3.06,3.86h0c0,2.38,1.19,3.86,3.06,3.86Zm.53-1.43c-1.16,0-1.87-.91-1.87-2.41h0c0-1.52,.71-2.43,1.87-2.43s1.88,.92,1.88,2.42h0c0,1.51-.72,2.43-1.88,2.43Z" style="fill:#c0c2c8;"/><g style="opacity:.5;"><path d="M286.64,723.05c.42,.13,.7,.52,.7,.95v5h4c.37,0,.71,.21,.89,.54,.17,.33,.15,.73-.07,1.04l-7,10c-.25,.36-.7,.51-1.12,.38-.42-.13-.7-.52-.7-.95v-5h-4c-.37,0-.71-.21-.89-.54-.17-.33-.15-.73,.07-1.03l7-10c.25-.36,.7-.51,1.12-.38Z" style="fill:none; stroke:#c0c2c8; stroke-linecap:round; stroke-linejoin:round; stroke-width:2px;"/><path d="M309.04,733.29c-.39-.39-1.02-.39-1.41,0-.39,.39-.39,1.02,0,1.41l1.41-1.41Zm1.29,2.71l-.71,.71c.39,.39,1.02,.39,1.41,0l-.71-.71Zm4.71-3.29c.39-.39,.39-1.02,0-1.41-.39-.39-1.02-.39-1.41,0l1.41,1.41Zm2.29-5.71v12h2v-12h-2Zm-1,13h-10v2h10v-2Zm-11-1v-12h-2v12h2Zm1-13h2v-2h-2v2Zm8,0h2v-2h-2v2Zm-8,14c-.55,0-1-.45-1-1h-2c0,1.66,1.34,3,3,3v-2Zm11-1c0,.55-.45,1-1,1v2c1.66,0,3-1.34,3-3h-2Zm2-12c0-1.66-1.34-3-3-3v2c.55,0,1,.45,1,1h2Zm-14,0c0-.55,.45-1,1-1v-2c-1.66,0-3,1.34-3,3h2Zm2.29,7.71l2,2,1.41-1.41-2-2-1.41,1.41Zm3.41,2l4-4-1.41-1.41-4,4,1.41,1.41Zm-.71-12.71h2v-2h-2v2Zm2,2h-2v2h2v-2Zm-2,0c-.55,0-1-.45-1-1h-2c0,1.66,1.34,3,3,3v-2Zm3-1c0,.55-.45,1-1,1v2c1.66,0,3-1.34,3-3h-2Zm-1-1c.55,0,1,.45,1,1h2c0-1.66-1.34-3-3-3v2Zm-2-2c-1.66,0-3,1.34-3,3h2c0-.55,.45-1,1-1v-2Z" style="fill:#c0c2c8;"/></g><rect x="13.34" y="760" width="326" height="96" style="fill:#131313;"/><line x1="13.34" y1="759.5" x2="339.34" y2="759.5" style="fill:none; stroke:#212226;"/><path d="M30.81,798h2.07v-8.25h.13l5.89,8.25h1.85v-11.98h-2.06v8.25h-.13l-5.89-8.25h-1.86v11.98Zm16.36,.18c2.71,0,4.37-1.78,4.37-4.71v-.02c0-2.92-1.66-4.7-4.37-4.7s-4.37,1.79-4.37,4.7v.02c0,2.94,1.64,4.71,4.37,4.71Zm0-1.68c-1.44,0-2.26-1.12-2.26-3.03v-.02c0-1.91,.82-3.04,2.26-3.04s2.25,1.13,2.25,3.04v.02c0,1.91-.81,3.03-2.25,3.03Zm7.56,1.49h2.14l1.76-6.57h.14l1.77,6.57h2.17l2.46-9.07h-2.05l-1.5,6.82h-.14l-1.76-6.82h-1.97l-1.74,6.82h-.14l-1.51-6.82h-2.08l2.46,9.07Zm16.37,0h2.07v-12.58h-2.07v12.58Zm8.33,.18c2.47,0,3.68-1.42,3.97-2.59l.02-.08h-1.97l-.02,.06c-.2,.42-.84,.98-1.96,.98-1.4,0-2.28-.95-2.31-2.57h6.34v-.68c0-2.74-1.59-4.55-4.18-4.55s-4.23,1.87-4.23,4.72h0c0,2.9,1.64,4.71,4.33,4.71Zm-.07-7.81c1.15,0,1.99,.74,2.13,2.22h-4.31c.16-1.44,1.02-2.22,2.17-2.22Zm9.55,7.67c.4,0,.78-.03,1.08-.09v-1.59c-.25,.02-.41,.03-.7,.03-.86,0-1.22-.38-1.22-1.29v-4.57h1.92v-1.6h-1.92v-2.22h-2.1v2.22h-1.41v1.6h1.41v5.06c0,1.75,.85,2.45,2.94,2.45Zm6.21,.14c2.23,0,3.85-1.15,3.85-2.88v-.02c0-1.32-.84-2.08-2.61-2.47l-1.47-.32c-.98-.22-1.36-.55-1.36-1.08h0c0-.69,.66-1.14,1.59-1.14,.97,0,1.57,.47,1.72,1.04v.02h1.95v-.02c-.13-1.47-1.45-2.57-3.66-2.57s-3.64,1.13-3.64,2.76h0c0,1.34,.82,2.16,2.55,2.54l1.47,.33c1,.22,1.39,.57,1.39,1.1v.02c0,.68-.71,1.15-1.74,1.15s-1.64-.44-1.85-1.07v-.02h-2.06v.02c.17,1.54,1.57,2.6,3.88,2.6Zm13.88,0c2.3,0,3.64-1.24,3.93-3.1l.02-.07h-1.95s-.02,.04-.02,.04c-.26,.95-.91,1.44-1.98,1.44-1.4,0-2.24-1.13-2.24-3.05v-.02c0-1.9,.83-3.01,2.24-3.01,1.13,0,1.8,.63,1.99,1.51v.02h1.96v-.03c-.23-1.88-1.63-3.17-3.96-3.17-2.73,0-4.33,1.75-4.33,4.68v.02c0,2.96,1.61,4.73,4.34,4.73Zm5.76-.18h2.07v-5.29c0-1.36,.76-2.22,1.99-2.22s1.83,.71,1.83,2.12v5.39h2.07v-5.87c0-2.16-1.1-3.38-3.13-3.38-1.31,0-2.18,.59-2.62,1.56h-.14v-4.9h-2.07v12.58Zm12.63,.15c1.2,0,2.16-.51,2.66-1.39h.14v1.24h2.04v-6.2c0-1.92-1.31-3.05-3.64-3.05-2.16,0-3.62,1.01-3.82,2.54v.07s1.94,0,1.94,0v-.03c.22-.6,.83-.94,1.78-.94,1.11,0,1.7,.5,1.7,1.4v.78l-2.33,.14c-2.21,.13-3.44,1.08-3.44,2.7v.02c0,1.65,1.25,2.71,2.98,2.71Zm-.94-2.81v-.02c0-.75,.54-1.17,1.69-1.24l2.04-.13v.73c0,1.08-.92,1.89-2.17,1.89-.91,0-1.57-.46-1.57-1.23Zm8.02,2.66h2.07v-5.29c0-1.36,.76-2.22,1.99-2.22s1.83,.71,1.83,2.12v5.39h2.07v-5.87c0-2.16-1.1-3.38-3.13-3.38-1.31,0-2.18,.59-2.62,1.56h-.14v-1.39h-2.07v9.07Zm14.05,3.19c2.65,0,4.32-1.32,4.32-3.41v-8.85h-2.07v1.49h-.11c-.51-1.03-1.49-1.64-2.75-1.64-2.34,0-3.77,1.81-3.77,4.43v.02c0,2.57,1.43,4.35,3.73,4.35,1.25,0,2.24-.53,2.76-1.5h.14v1.74c0,1.16-.82,1.82-2.23,1.82-1.15,0-1.84-.41-1.98-.99v-.02h-2.07v.02c.2,1.53,1.63,2.55,4.03,2.55Zm0-5.26c-1.44,0-2.25-1.1-2.25-2.71v-.02c0-1.6,.81-2.71,2.25-2.71s2.3,1.11,2.3,2.71v.02c0,1.6-.86,2.71-2.3,2.71Zm10.5,2.25c2.46,0,3.68-1.42,3.97-2.59l.02-.08h-1.97l-.03,.06c-.2,.42-.84,.98-1.96,.98-1.4,0-2.28-.95-2.31-2.57h6.34v-.68c0-2.74-1.59-4.55-4.18-4.55s-4.23,1.87-4.23,4.72h0c0,2.9,1.63,4.71,4.33,4.71Zm-.07-7.81c1.15,0,1.99,.74,2.13,2.22h-4.31c.16-1.44,1.02-2.22,2.18-2.22Zm13.84,7.67c.4,0,.78-.03,1.08-.09v-1.59c-.25,.02-.41,.03-.7,.03-.86,0-1.22-.38-1.22-1.29v-4.57h1.92v-1.6h-1.92v-2.22h-2.1v2.22h-1.41v1.6h1.41v5.06c0,1.75,.85,2.45,2.94,2.45Zm2.98-.04h2.07v-5.29c0-1.36,.76-2.22,1.99-2.22s1.83,.71,1.83,2.12v5.39h2.07v-5.87c0-2.16-1.1-3.38-3.13-3.38-1.31,0-2.18,.59-2.62,1.56h-.14v-4.9h-2.07v12.58Zm14.04,.18c2.47,0,3.68-1.42,3.97-2.59l.03-.08h-1.97l-.02,.06c-.2,.42-.84,.98-1.96,.98-1.4,0-2.28-.95-2.31-2.57h6.34v-.68c0-2.74-1.59-4.55-4.18-4.55s-4.23,1.87-4.23,4.72h0c0,2.9,1.63,4.71,4.33,4.71Zm-.07-7.81c1.15,0,1.99,.74,2.13,2.22h-4.31c.16-1.44,1.02-2.22,2.17-2.22Zm5.98,7.63h2.07v-5.52c0-1.13,.75-1.99,1.77-1.99s1.63,.62,1.63,1.63v5.89h2.07v-5.67c0-1.04,.7-1.84,1.78-1.84s1.64,.6,1.64,1.78v5.74h2.07v-6.24c0-1.88-1.1-3.01-2.92-3.01-1.26,0-2.31,.65-2.75,1.64h-.14c-.39-1-1.29-1.64-2.51-1.64s-2.1,.57-2.49,1.59h-.14v-1.41h-2.07v9.07Z" style="fill:#fff;"/><g style="opacity:.7;"><path d="M311.34,792c0,2.21-1.79,4-4,4s-4-1.79-4-4,1.79-4,4-4,4,1.79,4,4Z" style="fill:none; stroke:#f09436; stroke-linecap:round; stroke-linejoin:round; stroke-width:2px;"/><path d="M294.61,792c1.7-5.41,6.75-9.33,12.72-9.33s11.02,3.92,12.72,9.33c-1.7,5.41-6.75,9.33-12.72,9.33s-11.02-3.92-12.72-9.33Z" style="fill:none; stroke:#f09436; stroke-linecap:round; stroke-linejoin:round; stroke-width:2px;"/></g><g style="opacity:.5;"><path d="M41.34,825c-.55,0-1-.45-1-1s.45-1,1-1h5c.55,0,1,.45,1,1v5c0,.55-.45,1-1,1s-1-.45-1-1v-2.59l-4.29,4.29c-.39,.39-1.02,.39-1.41,0l-2.29-2.29-4.29,4.29c-.39,.39-1.02,.39-1.41,0-.39-.39-.39-1.02,0-1.41l5-5c.39-.39,1.02-.39,1.41,0l2.29,2.29,3.59-3.59h-2.59Z" style="fill:#c0c2c8; fill-rule:evenodd;"/></g><path d="M54.55,832.5h1.7v-6.79h.11l4.85,6.79h1.52v-9.86h-1.7v6.8h-.11l-4.85-6.8h-1.53v9.86Zm13.67,.15c2.24,0,3.6-1.46,3.6-3.88h0c0-2.42-1.37-3.88-3.6-3.88s-3.6,1.47-3.6,3.87h0c0,2.43,1.35,3.9,3.6,3.9Zm0-1.38c-1.18,0-1.86-.92-1.86-2.5h0c0-1.59,.68-2.52,1.86-2.52s1.85,.93,1.85,2.5h0c0,1.59-.67,2.51-1.85,2.51Zm11.98,1.26c.33,0,.64-.03,.89-.08v-1.31c-.21,.02-.33,.03-.57,.03-.71,0-1-.32-1-1.06v-3.77h1.58v-1.32h-1.58v-1.83h-1.73v1.83h-1.16v1.32h1.16v4.17c0,1.44,.7,2.02,2.42,2.02Zm2.58-.03h1.7v-4.34c0-1.07,.75-1.74,1.88-1.74,.29,0,.57,.04,.85,.1v-1.53c-.16-.05-.43-.08-.69-.08-.98,0-1.67,.47-1.92,1.27h-.12v-1.15h-1.7v7.47Zm8.83,.15c2.03,0,3.03-1.17,3.27-2.13l.02-.06h-1.62l-.02,.05c-.16,.34-.69,.81-1.61,.81-1.16,0-1.88-.78-1.9-2.12h5.22v-.56c0-2.26-1.31-3.75-3.44-3.75s-3.49,1.54-3.49,3.89h0c0,2.39,1.35,3.88,3.57,3.88Zm-.06-6.43c.95,0,1.64,.61,1.76,1.83h-3.55c.13-1.19,.84-1.83,1.79-1.83Zm5.12,6.28h1.7v-4.35c0-1.12,.63-1.83,1.64-1.83s1.5,.59,1.5,1.75v4.44h1.7v-4.83c0-1.78-.91-2.78-2.58-2.78-1.08,0-1.8,.48-2.15,1.28h-.12v-1.14h-1.7v7.47Zm11.25,.12c1.05,0,1.86-.48,2.27-1.29h.12v1.17h1.71v-10.36h-1.71v4.08h-.12c-.39-.81-1.24-1.31-2.27-1.31-1.89,0-3.06,1.48-3.06,3.86h0c0,2.38,1.19,3.86,3.06,3.86Zm.53-1.43c-1.16,0-1.87-.91-1.87-2.41h0c0-1.52,.71-2.43,1.87-2.43s1.88,.92,1.88,2.42h0c0,1.51-.72,2.43-1.88,2.43Z" style="fill:#c0c2c8;"/><g style="opacity:.5;"><path d="M257.09,833l-.75,3-1,1h8l-1-1-.75-3m-11.25-4h18m-16,4h14c1.11,0,2-.9,2-2v-10c0-1.1-.89-2-2-2h-14c-1.1,0-2,.9-2,2v10c0,1.1,.9,2,2,2Z" style="fill:none; stroke:#c0c2c8; stroke-linecap:round; stroke-linejoin:round; stroke-width:2px;"/><path d="M286.64,819.05c.42,.13,.7,.52,.7,.95v5h4c.37,0,.71,.21,.89,.54,.17,.33,.15,.73-.07,1.04l-7,10c-.25,.36-.7,.51-1.12,.38-.42-.13-.7-.52-.7-.95v-5h-4c-.37,0-.71-.21-.89-.54-.17-.33-.15-.73,.07-1.03l7-10c.25-.36,.7-.51,1.12-.38Z" style="fill:none; stroke:#c0c2c8; stroke-linecap:round; stroke-linejoin:round; stroke-width:2px;"/><path d="M309.04,829.29c-.39-.39-1.02-.39-1.41,0-.39,.39-.39,1.02,0,1.41l1.41-1.41Zm1.29,2.71l-.71,.71c.39,.39,1.02,.39,1.41,0l-.71-.71Zm4.71-3.29c.39-.39,.39-1.02,0-1.41-.39-.39-1.02-.39-1.41,0l1.41,1.41Zm2.29-5.71v12h2v-12h-2Zm-1,13h-10v2h10v-2Zm-11-1v-12h-2v12h2Zm1-13h2v-2h-2v2Zm8,0h2v-2h-2v2Zm-8,14c-.55,0-1-.45-1-1h-2c0,1.66,1.34,3,3,3v-2Zm11-1c0,.55-.45,1-1,1v2c1.66,0,3-1.34,3-3h-2Zm2-12c0-1.66-1.34-3-3-3v2c.55,0,1,.45,1,1h2Zm-14,0c0-.55,.45-1,1-1v-2c-1.66,0-3,1.34-3,3h2Zm2.29,7.71l2,2,1.41-1.41-2-2-1.41,1.41Zm3.41,2l4-4-1.41-1.41-4,4,1.41,1.41Zm-.71-12.71h2v-2h-2v2Zm2,2h-2v2h2v-2Zm-2,0c-.55,0-1-.45-1-1h-2c0,1.66,1.34,3,3,3v-2Zm3-1c0,.55-.45,1-1,1v2c1.66,0,3-1.34,3-3h-2Zm-1-1c.55,0,1,.45,1,1h2c0-1.66-1.34-3-3-3v2Zm-2-2c-1.66,0-3,1.34-3,3h2c0-.55,.45-1,1-1v-2Z" style="fill:#c0c2c8;"/></g><rect x="13.34" y="856" width="326" height="96" style="fill:#131313;"/><line x1="13.34" y1="855.5" x2="339.34" y2="855.5" style="fill:none; stroke:#212226;"/><path d="M30.81,894h7.64v-1.8h-5.5v-10.18h-2.14v11.98Zm12.96,.18c2.47,0,3.68-1.42,3.97-2.59l.02-.08h-1.97l-.02,.06c-.2,.42-.84,.98-1.96,.98-1.4,0-2.28-.95-2.31-2.57h6.34v-.68c0-2.74-1.59-4.55-4.18-4.55s-4.23,1.87-4.23,4.72h0c0,2.9,1.64,4.71,4.33,4.71Zm-.07-7.81c1.15,0,1.99,.74,2.13,2.22h-4.31c.16-1.44,1.02-2.22,2.17-2.22Zm9.55,7.67c.4,0,.78-.03,1.08-.09v-1.59c-.25,.02-.41,.03-.7,.03-.86,0-1.22-.38-1.22-1.29v-4.57h1.92v-1.6h-1.92v-2.22h-2.1v2.22h-1.41v1.6h1.41v5.06c0,1.75,.85,2.45,2.94,2.45Zm6.21,.14c2.23,0,3.85-1.15,3.85-2.88v-.02c0-1.32-.84-2.08-2.61-2.47l-1.47-.32c-.98-.22-1.36-.55-1.36-1.08h0c0-.69,.66-1.14,1.59-1.14,.97,0,1.57,.47,1.72,1.04v.02h1.95v-.02c-.13-1.47-1.45-2.57-3.66-2.57s-3.64,1.13-3.64,2.76h0c0,1.34,.82,2.16,2.55,2.54l1.47,.33c1,.22,1.39,.57,1.39,1.1v.02c0,.68-.71,1.15-1.74,1.15s-1.64-.44-1.85-1.07v-.02h-2.06v.02c.17,1.54,1.57,2.6,3.88,2.6Zm13.42,0c2.23,0,3.85-1.15,3.85-2.88v-.02c0-1.32-.84-2.08-2.61-2.47l-1.47-.32c-.98-.22-1.36-.55-1.36-1.08h0c0-.69,.66-1.14,1.59-1.14,.97,0,1.57,.47,1.72,1.04v.02h1.95v-.02c-.13-1.47-1.45-2.57-3.66-2.57s-3.64,1.13-3.64,2.76h0c0,1.34,.82,2.16,2.55,2.54l1.47,.33c1,.22,1.39,.57,1.39,1.1v.02c0,.68-.71,1.15-1.74,1.15s-1.64-.44-1.85-1.07v-.02h-2.06v.02c.17,1.54,1.57,2.6,3.88,2.6Zm5.78-.18h2.07v-5.29c0-1.36,.76-2.22,1.99-2.22s1.83,.71,1.83,2.12v5.39h2.07v-5.87c0-2.16-1.1-3.38-3.13-3.38-1.31,0-2.18,.59-2.61,1.56h-.14v-4.9h-2.07v12.58Zm14.07,.18c2.71,0,4.37-1.78,4.37-4.71v-.02c0-2.92-1.66-4.7-4.37-4.7s-4.37,1.79-4.37,4.7v.02c0,2.94,1.64,4.71,4.37,4.71Zm0-1.68c-1.44,0-2.26-1.12-2.26-3.03v-.02c0-1.91,.82-3.04,2.26-3.04s2.25,1.13,2.25,3.04v.02c0,1.91-.81,3.03-2.25,3.03Zm10.09,1.68c2.3,0,3.64-1.24,3.94-3.1l.02-.07h-1.95s-.02,.04-.02,.04c-.26,.95-.91,1.44-1.98,1.44-1.4,0-2.24-1.13-2.24-3.05v-.02c0-1.9,.83-3.01,2.24-3.01,1.13,0,1.8,.63,1.99,1.51v.02h1.96v-.03c-.23-1.88-1.63-3.17-3.96-3.17-2.73,0-4.33,1.75-4.33,4.68v.02c0,2.96,1.61,4.73,4.34,4.73Zm5.76-.18h2.07v-3.19l.72-.74,2.91,3.93h2.49l-3.9-5.24,3.65-3.84h-2.39l-3.35,3.72h-.14v-7.23h-2.07v12.58Zm17.4,.04c.4,0,.78-.03,1.08-.09v-1.59c-.25,.02-.41,.03-.7,.03-.86,0-1.22-.38-1.22-1.29v-4.57h1.92v-1.6h-1.92v-2.22h-2.1v2.22h-1.41v1.6h1.41v5.06c0,1.75,.86,2.45,2.94,2.45Zm2.98-.04h2.07v-5.29c0-1.36,.76-2.22,1.99-2.22s1.83,.71,1.83,2.12v5.39h2.07v-5.87c0-2.16-1.1-3.38-3.13-3.38-1.31,0-2.18,.59-2.61,1.56h-.14v-4.9h-2.07v12.58Zm11.21-10.59c.67,0,1.23-.54,1.23-1.22s-.56-1.22-1.23-1.22-1.24,.55-1.24,1.22,.56,1.22,1.24,1.22Zm-1.04,10.59h2.07v-9.07h-2.07v9.07Zm7.79,.18c2.23,0,3.85-1.15,3.85-2.88v-.02c0-1.32-.84-2.08-2.62-2.47l-1.47-.32c-.98-.22-1.36-.55-1.36-1.08h0c0-.69,.66-1.14,1.59-1.14,.97,0,1.57,.47,1.72,1.04v.02h1.95v-.02c-.13-1.47-1.45-2.57-3.66-2.57s-3.64,1.13-3.64,2.76h0c0,1.34,.82,2.16,2.55,2.54l1.47,.33c1,.22,1.39,.57,1.39,1.1v.02c0,.68-.71,1.15-1.74,1.15s-1.63-.44-1.85-1.07v-.02h-2.06v.02c.18,1.54,1.57,2.6,3.88,2.6Zm13.9,0c2.71,0,4.37-1.78,4.37-4.71v-.02c0-2.92-1.66-4.7-4.37-4.7s-4.37,1.79-4.37,4.7v.02c0,2.94,1.64,4.71,4.37,4.71Zm0-1.68c-1.44,0-2.26-1.12-2.26-3.03v-.02c0-1.91,.82-3.04,2.26-3.04s2.25,1.13,2.25,3.04v.02c0,1.91-.81,3.03-2.25,3.03Zm6.2,1.49h2.07v-5.29c0-1.36,.76-2.22,1.99-2.22s1.83,.71,1.83,2.12v5.39h2.07v-5.87c0-2.16-1.1-3.38-3.13-3.38-1.31,0-2.18,.59-2.62,1.56h-.14v-1.39h-2.07v9.07Zm14.04,.18c2.46,0,3.68-1.42,3.97-2.59l.03-.08h-1.97l-.02,.06c-.2,.42-.84,.98-1.96,.98-1.4,0-2.28-.95-2.31-2.57h6.34v-.68c0-2.74-1.59-4.55-4.18-4.55s-4.23,1.87-4.23,4.72h0c0,2.9,1.64,4.71,4.33,4.71Zm-.07-7.81c1.15,0,1.99,.74,2.13,2.22h-4.31c.16-1.44,1.02-2.22,2.18-2.22Z" style="fill:#fff;"/><g style="opacity:.7;"><path d="M311.34,888c0,2.21-1.79,4-4,4s-4-1.79-4-4,1.79-4,4-4,4,1.79,4,4Z" style="fill:none; stroke:#f09436; stroke-linecap:round; stroke-linejoin:round; stroke-width:2px;"/><path d="M294.61,888c1.7-5.41,6.75-9.33,12.72-9.33s11.02,3.92,12.72,9.33c-1.7,5.41-6.75,9.33-12.72,9.33s-11.02-3.92-12.72-9.33Z" style="fill:none; stroke:#f09436; stroke-linecap:round; stroke-linejoin:round; stroke-width:2px;"/></g><g style="opacity:.5;"><path d="M41.34,921c-.55,0-1-.45-1-1s.45-1,1-1h5c.55,0,1,.45,1,1v5c0,.55-.45,1-1,1s-1-.45-1-1v-2.59l-4.29,4.29c-.39,.39-1.02,.39-1.41,0l-2.29-2.29-4.29,4.29c-.39,.39-1.02,.39-1.41,0-.39-.39-.39-1.02,0-1.41l5-5c.39-.39,1.02-.39,1.41,0l2.29,2.29,3.59-3.59h-2.59Z" style="fill:#c0c2c8; fill-rule:evenodd;"/></g><path d="M57.01,928.5h1.76v-8.38h3.04v-1.48h-7.84v1.48h3.04v8.38Zm5.6,0h1.7v-4.34c0-1.07,.75-1.74,1.88-1.74,.29,0,.57,.04,.85,.1v-1.53c-.16-.05-.43-.08-.69-.08-.98,0-1.67,.47-1.92,1.27h-.12v-1.15h-1.7v7.47Zm8.83,.15c2.03,0,3.03-1.17,3.27-2.13l.02-.06h-1.62l-.02,.05c-.16,.34-.69,.81-1.61,.81-1.16,0-1.88-.78-1.9-2.12h5.22v-.56c0-2.26-1.31-3.75-3.44-3.75s-3.49,1.54-3.49,3.89h0c0,2.39,1.35,3.88,3.57,3.88Zm-.06-6.43c.95,0,1.64,.61,1.76,1.83h-3.55c.13-1.19,.84-1.83,1.79-1.83Zm5.12,6.28h1.7v-4.35c0-1.12,.63-1.83,1.64-1.83s1.5,.59,1.5,1.75v4.44h1.7v-4.83c0-1.78-.91-2.78-2.58-2.78-1.08,0-1.8,.48-2.15,1.28h-.12v-1.14h-1.7v7.47Zm11.25,.12c1.05,0,1.86-.48,2.27-1.29h.12v1.17h1.71v-10.36h-1.71v4.08h-.12c-.39-.81-1.24-1.31-2.27-1.31-1.89,0-3.06,1.48-3.06,3.86h0c0,2.38,1.19,3.86,3.06,3.86Zm.53-1.43c-1.16,0-1.87-.91-1.87-2.41h0c0-1.52,.71-2.43,1.87-2.43s1.88,.92,1.88,2.42h0c0,1.51-.72,2.43-1.88,2.43Zm9.43,1.31h6.85v-1.46h-4.46v-.14l1.98-1.91c1.8-1.73,2.34-2.62,2.34-3.74v-.02c0-1.66-1.38-2.83-3.3-2.83-2.06,0-3.49,1.28-3.49,3.12v.02s1.65,0,1.65,0v-.03c0-1.02,.71-1.71,1.76-1.71s1.65,.66,1.65,1.57v.02c0,.76-.38,1.26-1.72,2.61l-3.24,3.31v1.19Zm12.42,.25c2.35,0,3.77-1.99,3.77-5.17h0c0-3.2-1.42-5.18-3.77-5.18s-3.75,1.98-3.75,5.17h0c0,3.2,1.41,5.19,3.75,5.19Zm0-1.43c-1.26,0-1.98-1.41-1.98-3.75h0c0-2.35,.72-3.75,1.98-3.75s1.99,1.39,1.99,3.73h0c0,2.35-.73,3.76-1.99,3.76Zm8.52,1.33c1.84,0,3.17-.95,3.17-2.37h0c0-1.1-.69-1.72-2.15-2.05l-1.21-.27c-.81-.18-1.12-.45-1.12-.89h0c0-.57,.55-.94,1.31-.94,.8,0,1.29,.38,1.42,.85v.02h1.61c-.11-1.22-1.2-2.13-3.01-2.13s-2.99,.93-2.99,2.28h0c0,1.11,.68,1.78,2.1,2.09l1.21,.27c.82,.18,1.15,.47,1.15,.91h0c0,.57-.59,.96-1.43,.96s-1.35-.36-1.53-.88h0s-1.69-.01-1.69-.01h0c.14,1.28,1.29,2.15,3.19,2.15Zm8.09,0c2.03,0,3.03-1.17,3.27-2.13l.02-.06h-1.62l-.02,.05c-.16,.34-.69,.81-1.61,.81-1.16,0-1.88-.78-1.9-2.12h5.22v-.56c0-2.26-1.31-3.75-3.44-3.75s-3.49,1.54-3.49,3.89h0c0,2.39,1.35,3.88,3.57,3.88Zm-.06-6.43c.95,0,1.64,.61,1.76,1.83h-3.55c.13-1.19,.84-1.83,1.79-1.83Zm8.33,6.43c1.89,0,2.99-1.02,3.24-2.55v-.05s-1.59,0-1.59,0v.03c-.22,.79-.76,1.19-1.65,1.19-1.15,0-1.85-.93-1.85-2.52h0c0-1.58,.68-2.5,1.85-2.5,.93,0,1.48,.52,1.64,1.24v.02h1.61v-.03c-.19-1.54-1.34-2.61-3.26-2.61-2.25,0-3.57,1.44-3.57,3.85h0c0,2.45,1.33,3.91,3.58,3.91Z" style="fill:#c0c2c8;"/><g style="opacity:.5;"><path d="M173.09,929l-.75,3-1,1h8l-1-1-.75-3m-11.25-4h18m-16,4h14c1.1,0,2-.9,2-2v-10c0-1.1-.9-2-2-2h-14c-1.1,0-2,.9-2,2v10c0,1.1,.9,2,2,2Z" style="fill:none; stroke:#c0c2c8; stroke-linecap:round; stroke-linejoin:round; stroke-width:2px;"/><path d="M202.64,915.05c.42,.13,.7,.52,.7,.95v5h4c.37,0,.71,.21,.89,.54,.17,.33,.15,.73-.07,1.04l-7,10c-.25,.36-.7,.51-1.12,.38-.42-.13-.7-.52-.7-.95v-5h-4c-.37,0-.71-.21-.89-.54-.17-.33-.15-.73,.07-1.03l7-10c.25-.36,.7-.51,1.12-.38Z" style="fill:none; stroke:#c0c2c8; stroke-linecap:round; stroke-linejoin:round; stroke-width:2px;"/><path d="M230.87,920.46c1.95,1.95,1.95,5.12,0,7.07m2.83-9.9c3.51,3.52,3.51,9.21,0,12.73m-12.78-3.36h-1.59c-.55,0-1-.45-1-1v-4c0-.55,.45-1,1-1h1.59l4.71-4.71c.63-.63,1.71-.18,1.71,.71v14c0,.89-1.08,1.34-1.71,.71l-4.71-4.71Z" style="fill:none; stroke:#c0c2c8; stroke-linecap:round; stroke-linejoin:round; stroke-width:2px;"/><path d="M247.34,928l4.59-4.59c.78-.78,2.05-.78,2.83,0l4.59,4.59m-2-2l1.59-1.59c.78-.78,2.05-.78,2.83,0l1.59,1.59m-6-6h0m-8.01,12h12c1.11,0,2-.9,2-2v-12c0-1.1-.89-2-2-2h-12c-1.1,0-2,.9-2,2v12c0,1.1,.9,2,2,2Z" style="fill:none; stroke:#c0c2c8; stroke-linecap:round; stroke-linejoin:round; stroke-width:2px;"/><path d="M290.76,927.43c-.28-.28-.64-.47-1.02-.55l-2.39-.48c-1.31-.26-2.67-.08-3.86,.52l-.32,.16c-1.19,.6-2.55,.78-3.86,.52l-1.93-.39c-.65-.13-1.33,.07-1.81,.55m3.76-11.76h8l-1,1v5.17c0,.53,.21,1.04,.59,1.41l5,5c1.26,1.26,.37,3.41-1.42,3.41h-14.34c-1.78,0-2.67-2.15-1.41-3.41l5-5c.38-.38,.59-.88,.59-1.41v-5.17l-1-1Z" style="fill:none; stroke:#c0c2c8; stroke-linecap:round; stroke-linejoin:round; stroke-width:2px;"/><path d="M309.04,925.29c-.39-.39-1.02-.39-1.41,0-.39,.39-.39,1.02,0,1.41l1.41-1.41Zm1.29,2.71l-.71,.71c.39,.39,1.02,.39,1.41,0l-.71-.71Zm4.71-3.29c.39-.39,.39-1.02,0-1.41-.39-.39-1.02-.39-1.41,0l1.41,1.41Zm2.29-5.71v12h2v-12h-2Zm-1,13h-10v2h10v-2Zm-11-1v-12h-2v12h2Zm1-13h2v-2h-2v2Zm8,0h2v-2h-2v2Zm-8,14c-.55,0-1-.45-1-1h-2c0,1.66,1.34,3,3,3v-2Zm11-1c0,.55-.45,1-1,1v2c1.66,0,3-1.34,3-3h-2Zm2-12c0-1.66-1.34-3-3-3v2c.55,0,1,.45,1,1h2Zm-14,0c0-.55,.45-1,1-1v-2c-1.66,0-3,1.34-3,3h2Zm2.29,7.71l2,2,1.41-1.41-2-2-1.41,1.41Zm3.41,2l4-4-1.41-1.41-4,4,1.41,1.41Zm-.71-12.71h2v-2h-2v2Zm2,2h-2v2h2v-2Zm-2,0c-.55,0-1-.45-1-1h-2c0,1.66,1.34,3,3,3v-2Zm3-1c0,.55-.45,1-1,1v2c1.66,0,3-1.34,3-3h-2Zm-1-1c.55,0,1,.45,1,1h2c0-1.66-1.34-3-3-3v2Zm-2-2c-1.66,0-3,1.34-3,3h2c0-.55,.45-1,1-1v-2Z" style="fill:#c0c2c8;"/></g></g></g><rect x="14.34" y="136" width="324" height="787" rx="7" ry="7" style="fill:none; stroke:#212226; stroke-width:2px;"/></svg>