<?xml version="1.0" encoding="UTF-8"?><svg id="HeartRate" xmlns="http://www.w3.org/2000/svg" viewBox="0 0 1381.34 1032"><rect x="356.34" y="136" width="324" height="304" rx="7" ry="7" style="fill:#131316;"/><path d="M366.12,170h4.03v-9.78h10.97v9.78h4.02v-22.55h-4.02v9.38h-10.97v-9.38h-4.03v22.55Zm31.5,.34c4.64,0,6.92-2.67,7.47-4.88l.05-.14h-3.7l-.05,.11c-.38,.78-1.58,1.84-3.69,1.84-2.64,0-4.3-1.78-4.34-4.84h11.94v-1.28c0-5.16-3-8.56-7.86-8.56s-7.97,3.51-7.97,8.89v.02c0,5.44,3.08,8.84,8.16,8.84Zm-.14-14.7c2.17,0,3.75,1.39,4.02,4.19h-8.11c.3-2.72,1.92-4.19,4.09-4.19Zm16.36,14.64c2.25,0,4.06-.97,5-2.62h.27v2.34h3.84v-11.67c0-3.61-2.47-5.73-6.86-5.73-4.06,0-6.81,1.91-7.19,4.78l-.02,.14h3.67l.02-.06c.39-1.12,1.55-1.76,3.33-1.76,2.09,0,3.2,.94,3.2,2.64v1.47l-4.39,.26c-4.16,.25-6.48,2.03-6.48,5.08v.03c0,3.11,2.36,5.11,5.61,5.11Zm-1.77-5.3v-.03c0-1.41,1.02-2.2,3.19-2.34l3.84-.25v1.38c0,2.03-1.73,3.56-4.08,3.56-1.72,0-2.95-.86-2.95-2.31Zm15.55,5.02h3.89v-9.92c0-2.44,1.7-3.98,4.3-3.98,.67,0,1.31,.09,1.94,.22v-3.48c-.38-.11-.98-.19-1.58-.19-2.25,0-3.81,1.08-4.39,2.91h-.27v-2.62h-3.89v17.08Zm20.41,.08c.75,0,1.47-.06,2.03-.17v-3c-.47,.05-.77,.06-1.31,.06-1.62,0-2.3-.72-2.3-2.42v-8.61h3.61v-3.02h-3.61v-4.19h-3.95v4.19h-2.66v3.02h2.66v9.53c0,3.3,1.61,4.61,5.53,4.61Zm14.84-.08h4.03v-8.48h4.47l4.42,8.48h4.61l-4.92-9.09c2.67-.97,4.25-3.44,4.25-6.42v-.03c0-4.3-2.91-7-7.75-7h-9.11v22.55Zm4.03-11.58v-7.7h4.58c2.56,0,4.11,1.47,4.11,3.83v.03c0,2.42-1.48,3.84-4.03,3.84h-4.66Zm21.91,11.86c2.25,0,4.06-.97,5-2.62h.27v2.34h3.84v-11.67c0-3.61-2.47-5.73-6.86-5.73-4.06,0-6.81,1.91-7.19,4.78l-.02,.14h3.67l.02-.06c.39-1.12,1.55-1.76,3.33-1.76,2.09,0,3.2,.94,3.2,2.64v1.47l-4.39,.26c-4.16,.25-6.48,2.03-6.48,5.08v.03c0,3.11,2.36,5.11,5.61,5.11Zm-1.77-5.3v-.03c0-1.41,1.02-2.2,3.19-2.34l3.84-.25v1.38c0,2.03-1.73,3.56-4.08,3.56-1.72,0-2.95-.86-2.95-2.31Zm22.27,5.09c.75,0,1.47-.06,2.03-.17v-3c-.47,.05-.77,.06-1.31,.06-1.63,0-2.3-.72-2.3-2.42v-8.61h3.61v-3.02h-3.61v-4.19h-3.95v4.19h-2.66v3.02h2.66v9.53c0,3.3,1.61,4.61,5.53,4.61Zm13.06,.27c4.64,0,6.92-2.67,7.47-4.88l.05-.14h-3.7l-.05,.11c-.38,.78-1.58,1.84-3.69,1.84-2.64,0-4.3-1.78-4.34-4.84h11.94v-1.28c0-5.16-3-8.56-7.86-8.56s-7.97,3.51-7.97,8.89v.02c0,5.44,3.08,8.84,8.16,8.84Zm-.14-14.7c2.17,0,3.75,1.39,4.02,4.19h-8.11c.3-2.72,1.92-4.19,4.09-4.19Z" style="fill:#fff;"/><path d="M622.55,170h4.03v-22.55h-4.02l-5.89,4.14v3.8l5.61-3.97h.27v18.58Zm18.56,.56c5.36,0,8.61-4.55,8.61-11.83v-.03c0-7.28-3.25-11.81-8.61-11.81s-8.58,4.53-8.58,11.81v.03c0,7.28,3.22,11.83,8.58,11.83Zm0-3.26c-2.88,0-4.52-3.22-4.52-8.56v-.03c0-5.34,1.64-8.53,4.52-8.53s4.55,3.19,4.55,8.53v.03c0,5.34-1.67,8.56-4.55,8.56Zm21.44,3.16c5.19,0,8.8-2.69,8.8-6.55v-.03c0-2.89-2.09-5.12-5.11-5.73v-.09c2.58-.69,4.3-2.58,4.3-5v-.03c0-3.47-3.31-6.02-7.98-6.02s-7.98,2.55-7.98,6.02v.03c0,2.42,1.72,4.31,4.3,5v.09c-3,.61-5.11,2.84-5.11,5.73v.03c0,3.86,3.61,6.55,8.8,6.55Zm0-13.69c-2.36,0-4-1.38-4-3.34v-.03c0-1.97,1.64-3.34,4-3.34s4,1.38,4,3.34v.03c0,1.97-1.64,3.34-4,3.34Zm0,10.61c-2.7,0-4.62-1.56-4.62-3.73v-.03c0-2.19,1.89-3.76,4.62-3.76s4.62,1.58,4.62,3.76v.03c0,2.17-1.92,3.73-4.62,3.73Z" style="fill:#f09436;"/><circle cx="488.34" cy="300" r="117" style="fill:#202020;"/><path d="M412.34,286.84h26.2c1.25,.07,2.43,.62,3.28,1.54l2.44,2.92c.7,.85,1.47,.66,1.7-.42l2.16-10.04c.23-1.08,.59-1.08,.8,0l6.24,32c.21,1.08,.46,1.06,.56,0l4.64-50c.1-1.09,.41-1.12,.7-.06l6,22.14c.17,.53,.5,1,.94,1.34,.44,.34,.98,.54,1.54,.58h4c.61,.03,1.2,.2,1.74,.49,.54,.29,1.01,.69,1.37,1.17l1.78,2.68c.1,.21,.26,.38,.46,.5,.2,.12,.42,.19,.65,.19s.46-.06,.65-.19c.2-.12,.35-.3,.46-.5l1.78-2.68c.37-.49,.83-.89,1.37-1.17,.54-.29,1.13-.45,1.74-.49h6c.59,.03,1.17,.21,1.67,.52,.51,.31,.92,.75,1.21,1.27l2.22,4.42c.06,.21,.18,.4,.35,.54,.17,.14,.38,.22,.6,.24,.22,.01,.44-.04,.63-.16,.19-.12,.33-.29,.42-.49l3.13-4.68c.61-.91,1.29-.78,1.5,.3l4.86,24.04c.22,1.08,.5,1.07,.62,0l5.56-50c.12-1.1,.42-1.11,.67,0l5.1,22.1c.16,.53,.48,1,.92,1.35,.44,.34,.98,.53,1.53,.55h7c1.25,.07,2.43,.62,3.28,1.54l2.44,2.92c.15,.2,.34,.36,.56,.47,.22,.11,.47,.17,.72,.17s.49-.06,.72-.17c.22-.11,.41-.27,.56-.47l2.44-2.92c.85-.92,2.03-1.47,3.28-1.54h32.87" style="fill:none; stroke:#82efb8; stroke-linecap:round; stroke-linejoin:round; stroke-width:3px;"/><path d="M488.34,411c61.3,0,111-49.7,111-111s-49.7-111-111-111-111,49.7-111,111,49.7,111,111,111Zm0-43c37.55,0,68-30.45,68-68s-30.45-68-68-68-68,30.45-68,68,30.45,68,68,68Z" style="fill:#525252; fill-rule:evenodd;"/><path d="M532.41,401.48c-13.5,5.84-28.39,9.08-44.04,9.08s-30.54-3.24-44.04-9.08l17.06-39.48c8.27,3.58,17.39,5.56,26.98,5.56s18.71-1.98,26.98-5.56l17.06,39.48Z" style="fill:#f09436; fill-rule:evenodd;"/><path d="M492.72,363.85c33.3-2.25,59.61-29.98,59.61-63.85,0-19.33-8.57-36.65-22.11-48.39l-90.28,90.28c7.69,8.87,17.78,15.61,29.26,19.2l23.52,2.76Z" style="fill:rgba(255,255,255,.05); fill-rule:evenodd;"/><path d="M486.1,328.76c.57-2.34,3.9-2.34,4.47,0,.37,1.51,2.1,2.23,3.43,1.42,2.06-1.25,4.41,1.1,3.16,3.16-.81,1.33-.09,3.06,1.42,3.43,2.34,.57,2.34,3.9,0,4.47-1.51,.37-2.23,2.1-1.42,3.43,1.25,2.06-1.1,4.41-3.16,3.16-1.33-.81-3.06-.09-3.43,1.42-.57,2.34-3.9,2.34-4.47,0-.37-1.51-2.1-2.23-3.43-1.42-2.06,1.25-4.41-1.1-3.16-3.16,.81-1.33,.09-3.06-1.42-3.43-2.34-.57-2.34-3.9,0-4.47,1.51-.37,2.23-2.1,1.42-3.43-1.25-2.06,1.1-4.41,3.16-3.16,1.33,.81,3.06,.09,3.43-1.42Z" style="fill:none; stroke:#f09436; stroke-linecap:round; stroke-linejoin:round; stroke-width:2px;"/><path d="M492.34,339c0,2.21-1.79,4-4,4s-4-1.79-4-4,1.79-4,4-4,4,1.79,4,4Z" style="fill:none; stroke:#f09436; stroke-linecap:round; stroke-linejoin:round; stroke-width:2px;"/><g><path d="M648.34,210h0c13.81,0,25,11.19,25,25h0c0,13.81-11.19,25-25,25h0c-13.81,0-25-11.19-25-25h0c0-13.81,11.19-25,25-25Z" style="fill:#282828;"/><circle cx="645.34" cy="229" r="4" style="fill:none; stroke:#f09436; stroke-width:2px;"/><circle cx="651.34" cy="242" r="4" style="fill:none; stroke:#f09436; stroke-width:2px;"/><path d="M650.34,229h8" style="fill:none; stroke:#f09436; stroke-linecap:round; stroke-width:4px;"/><path d="M656.34,242h2" style="fill:none; stroke:#f09436; stroke-linecap:round; stroke-width:4px;"/><path d="M638.34,242h8" style="fill:none; stroke:#f09436; stroke-linecap:round; stroke-width:4px;"/><path d="M638.34,229h2" style="fill:none; stroke:#f09436; stroke-linecap:round; stroke-width:4px;"/><path d="M648.34,210.5h0c13.53,0,24.5,10.97,24.5,24.5h0c0,13.53-10.97,24.5-24.5,24.5h0c-13.53,0-24.5-10.97-24.5-24.5h0c0-13.53,10.97-24.5,24.5-24.5Z" style="fill:none; stroke:#0c0c0c;"/></g><g><path d="M648.34,266h0c13.81,0,25,11.19,25,25h0c0,13.81-11.19,25-25,25h0c-13.81,0-25-11.19-25-25h0c0-13.81,11.19-25,25-25Z" style="fill:#282828;"/><path d="M647.35,278c.66-.03,1.25,.39,1.45,1.01l2.52,7.93,1.93-2.95c.29-.44,.8-.69,1.33-.65,.53,.04,.99,.36,1.21,.85l2.13,4.65h3.93c.8,0,1.46,.65,1.46,1.46s-.65,1.46-1.46,1.46h-4.86c-.57,0-1.09-.33-1.32-.85l-1.42-3.11-2.16,3.3c-.31,.47-.86,.72-1.42,.64-.56-.08-1.02-.47-1.19-1l-1.83-5.76-3.16,13.82c-.15,.65-.71,1.11-1.38,1.13-.66,.02-1.26-.41-1.44-1.05l-2.38-8.14-.5,.9c-.26,.46-.74,.74-1.27,.74h-4.72c-.8,0-1.46-.65-1.46-1.46s.65-1.46,1.46-1.46h3.86l1.78-3.18c.29-.51,.85-.8,1.43-.74,.58,.07,1.07,.48,1.23,1.04l1.78,6.1,3.1-13.56c.15-.64,.7-1.1,1.36-1.13Z" style="fill:#f09436;"/><path d="M653.6,297.73h-.1l-1.97,1.37v-1.46l2.08-1.46h1.67v8.04h-1.69v-6.49Z" style="fill:#f09436;"/><path d="M660.1,300.46l-2.59,2.56v1.09h5.82v-1.35h-3.64v-.13l1.46-1.38c1.47-1.35,1.94-2.11,1.94-3.01,0-1.38-1.16-2.33-2.81-2.33-.36-.03-.73,.01-1.08,.13-.35,.12-.67,.3-.94,.55-.27,.24-.49,.54-.65,.87-.15,.33-.24,.69-.24,1.06h1.65c0-.17,.02-.35,.09-.51,.07-.16,.16-.31,.29-.43s.27-.21,.44-.27c.16-.06,.34-.08,.51-.07,.16-.01,.32,0,.47,.06,.15,.05,.29,.14,.41,.25,.12,.11,.21,.24,.27,.39,.06,.15,.09,.31,.08,.47,0,.61-.34,.98-1.46,2.07Z" style="fill:#f09436;"/><path d="M648.34,266.5h0c13.53,0,24.5,10.97,24.5,24.5h0c0,13.53-10.97,24.5-24.5,24.5h0c-13.53,0-24.5-10.97-24.5-24.5h0c0-13.53,10.97-24.5,24.5-24.5Z" style="fill:none; stroke:#0c0c0c;"/></g><g><path d="M648.34,322h0c13.81,0,25,11.19,25,25h0c0,13.81-11.19,25-25,25h0c-13.81,0-25-11.19-25-25h0c0-13.81,11.19-25,25-25Z" style="fill:#282828;"/><path d="M648.34,322.5h0c13.53,0,24.5,10.97,24.5,24.5h0c0,13.53-10.97,24.5-24.5,24.5h0c-13.53,0-24.5-10.97-24.5-24.5h0c0-13.53,10.97-24.5,24.5-24.5Z" style="fill:none; stroke:#0c0c0c;"/></g><g><path d="M648.34,378h0c13.81,0,25,11.19,25,25h0c0,13.81-11.19,25-25,25h0c-13.81,0-25-11.19-25-25h0c0-13.81,11.19-25,25-25Z" style="fill:#282828;"/><path d="M648.34,406.2c1.77,0,3.2-1.43,3.2-3.2s-1.43-3.2-3.2-3.2-3.2,1.43-3.2,3.2,1.43,3.2,3.2,3.2Z" style="fill:#f09436;"/><path d="M633.07,403c2.04-6.49,8.1-11.2,15.27-11.2s13.23,4.71,15.27,11.2c-2.04,6.49-8.1,11.2-15.27,11.2s-13.23-4.71-15.27-11.2Zm21.67,0c0,3.53-2.87,6.4-6.4,6.4s-6.4-2.87-6.4-6.4,2.87-6.4,6.4-6.4,6.4,2.86,6.4,6.4Z" style="fill:#f09436; fill-rule:evenodd;"/><path d="M648.34,378.5h0c13.53,0,24.5,10.97,24.5,24.5h0c0,13.53-10.97,24.5-24.5,24.5h0c-13.53,0-24.5-10.97-24.5-24.5h0c0-13.53,10.97-24.5,24.5-24.5Z" style="fill:none; stroke:#0c0c0c;"/></g><rect x="356.34" y="136" width="324" height="304" rx="7" ry="7" style="fill:none; stroke:#2f3136; stroke-width:2px;"/></svg>