<?xml version="1.0" encoding="UTF-8"?><svg id="SP02" xmlns="http://www.w3.org/2000/svg" viewBox="0 0 1381.34 1032"><rect x="356.34" y="458" width="324" height="304" rx="7" ry="7" style="fill:#131316;"/><path d="M373.94,492.56c5.41,0,8.8-2.75,8.8-7.14v-.02c0-3.41-1.98-5.31-6.73-6.31l-2.42-.52c-2.81-.59-3.95-1.59-3.95-3.19v-.02c0-1.92,1.78-3.09,4.28-3.09,2.58-.02,4.25,1.23,4.53,2.98l.03,.19h3.86l-.02-.2c-.28-3.62-3.39-6.36-8.39-6.36s-8.34,2.72-8.34,6.75v.02c0,3.36,2,5.52,6.61,6.48l2.42,.5c2.91,.62,4.08,1.61,4.08,3.23v.02c0,1.94-1.91,3.28-4.62,3.28-2.86,0-4.88-1.25-5.06-3.14l-.02-.16h-3.91l.02,.22c.28,3.89,3.61,6.47,8.84,6.47Zm12.92,5.11h3.89v-8.39h.27c.89,1.84,2.84,3,5.19,3,4.33,0,7.02-3.36,7.02-8.8v-.03c0-5.41-2.73-8.81-7.02-8.81-2.39,0-4.25,1.09-5.19,2.95h-.27v-2.67h-3.89v22.75Zm8.12-8.67c-2.64,0-4.28-2.11-4.28-5.53v-.03c0-3.42,1.64-5.52,4.28-5.52s4.27,2.09,4.27,5.53v.03c0,3.42-1.61,5.52-4.27,5.52Zm22.28,3.56c6.58,0,10.66-4.58,10.66-11.83v-.03c0-7.27-4.09-11.81-10.66-11.81s-10.67,4.55-10.67,11.81v.03c0,7.25,4.06,11.83,10.67,11.83Zm0-3.48c-4.06,0-6.56-3.28-6.56-8.34v-.03c0-5.09,2.56-8.33,6.56-8.33s6.55,3.23,6.55,8.33v.03c0,5.06-2.53,8.34-6.55,8.34Zm14.86,2.92h15.66v-3.34h-10.2v-.33l4.52-4.38c4.11-3.95,5.34-5.98,5.34-8.55v-.05c0-3.8-3.16-6.47-7.55-6.47-4.7,0-7.98,2.94-7.98,7.14l.02,.05,3.75,.02,.02-.06c0-2.33,1.61-3.91,4-3.91s3.77,1.5,3.77,3.58v.05c0,1.73-.86,2.88-3.92,5.97l-7.41,7.56v2.72Z" style="fill:#fff;"/><path d="M644.04,468.89c-4.89,0-8.38,3.34-8.38,7.92v.03c0,4.28,3.03,7.44,7.36,7.44,3.09,0,5.06-1.58,5.89-3.36h.31c0,.17-.02,.34-.02,.52-.17,4.31-1.69,7.81-5.27,7.81-1.98,0-3.38-1.03-3.97-2.61l-.05-.16h-3.97l.03,.17c.72,3.45,3.81,5.91,7.95,5.91,5.67,0,9.09-4.5,9.09-12.09v-.03c0-8.13-4.19-11.55-9-11.55Zm-.02,12.3c-2.56,0-4.42-1.88-4.42-4.48v-.03c0-2.52,1.98-4.5,4.47-4.5s4.45,2.02,4.45,4.59v.03c0,2.55-1.95,4.39-4.5,4.39Zm13.72,10.81h4.22l9.64-19.19v-3.36h-15.69v3.3h11.62v.25l-9.8,19Z" style="fill:#f09436;"/><circle cx="488.34" cy="622" r="117" style="fill:#202020;"/><path d="M412.34,608.84h26.2c1.25,.07,2.43,.62,3.28,1.54l2.44,2.92c.7,.85,1.47,.66,1.7-.42l2.16-10.04c.23-1.08,.59-1.08,.8,0l6.24,32c.21,1.08,.46,1.06,.56,0l4.64-50c.1-1.09,.41-1.12,.7-.06l6,22.14c.17,.53,.5,1,.94,1.34,.44,.34,.98,.54,1.54,.58h4c.61,.03,1.2,.2,1.74,.49,.54,.29,1.01,.69,1.37,1.17l1.78,2.68c.1,.21,.26,.38,.46,.5,.2,.12,.42,.19,.65,.19s.46-.06,.65-.19c.2-.12,.35-.29,.46-.5l1.78-2.68c.37-.49,.83-.89,1.37-1.17,.54-.29,1.13-.45,1.74-.49h6c.59,.03,1.17,.21,1.67,.52,.51,.31,.92,.75,1.21,1.27l2.22,4.42c.06,.21,.18,.4,.35,.54,.17,.14,.38,.22,.6,.24,.22,.01,.44-.04,.63-.16,.19-.12,.33-.29,.42-.49l3.13-4.68c.61-.91,1.29-.78,1.5,.3l4.86,24.04c.22,1.08,.5,1.07,.62,0l5.56-50c.12-1.1,.42-1.11,.67,0l5.1,22.1c.16,.53,.48,1,.92,1.34,.44,.34,.98,.54,1.53,.55h7c1.25,.07,2.43,.62,3.28,1.54l2.44,2.92c.15,.2,.34,.36,.56,.47,.22,.11,.47,.17,.72,.17s.49-.06,.72-.17c.22-.11,.41-.27,.56-.47l2.44-2.92c.85-.92,2.03-1.47,3.28-1.54h32.87" style="fill:none; stroke:#ffd584; stroke-linecap:round; stroke-linejoin:round; stroke-width:3px;"/><path d="M488.34,733c61.3,0,111-49.7,111-111s-49.7-111-111-111-111,49.7-111,111,49.7,111,111,111Zm0-43c37.55,0,68-30.45,68-68s-30.45-68-68-68-68,30.45-68,68,30.45,68,68,68Z" style="fill:#525252; fill-rule:evenodd;"/><path d="M532.41,723.48c-13.5,5.84-28.39,9.08-44.04,9.08s-30.54-3.24-44.04-9.08l17.06-39.48c8.27,3.58,17.39,5.56,26.98,5.56s18.71-1.98,26.98-5.56l17.06,39.48Z" style="fill:#f09436; fill-rule:evenodd;"/><path d="M492.72,685.85c33.3-2.25,59.61-29.98,59.61-63.85,0-19.33-8.57-36.65-22.11-48.39l-90.28,90.28c7.69,8.87,17.78,15.61,29.26,19.2l23.52,2.76Z" style="fill:rgba(255,255,255,.05); fill-rule:evenodd;"/><path d="M486.1,650.76c.57-2.34,3.9-2.34,4.47,0,.37,1.51,2.1,2.23,3.43,1.42,2.06-1.25,4.41,1.1,3.16,3.16-.81,1.33-.09,3.06,1.42,3.43,2.34,.57,2.34,3.9,0,4.47-1.51,.37-2.23,2.1-1.42,3.43,1.25,2.06-1.1,4.41-3.16,3.16-1.33-.81-3.06-.09-3.43,1.42-.57,2.34-3.9,2.34-4.47,0-.37-1.51-2.1-2.23-3.43-1.42-2.06,1.25-4.41-1.1-3.16-3.16,.81-1.33,.09-3.06-1.42-3.43-2.34-.57-2.34-3.9,0-4.47,1.51-.37,2.23-2.1,1.42-3.43-1.25-2.06,1.1-4.41,3.16-3.16,1.33,.81,3.06,.09,3.43-1.42Z" style="fill:none; stroke:#f09436; stroke-linecap:round; stroke-linejoin:round; stroke-width:2px;"/><path d="M492.34,661c0,2.21-1.79,4-4,4s-4-1.79-4-4,1.79-4,4-4,4,1.79,4,4Z" style="fill:none; stroke:#f09436; stroke-linecap:round; stroke-linejoin:round; stroke-width:2px;"/><g><path d="M648.34,700h0c13.81,0,25,11.19,25,25h0c0,13.81-11.19,25-25,25h0c-13.81,0-25-11.19-25-25h0c0-13.81,11.19-25,25-25Z" style="fill:#282828;"/><path d="M648.34,728.2c1.77,0,3.2-1.43,3.2-3.2s-1.43-3.2-3.2-3.2-3.2,1.43-3.2,3.2,1.43,3.2,3.2,3.2Z" style="fill:#f09436;"/><path d="M633.07,725c2.04-6.49,8.1-11.2,15.27-11.2s13.23,4.71,15.27,11.2c-2.04,6.49-8.1,11.2-15.27,11.2s-13.23-4.71-15.27-11.2Zm21.67,0c0,3.53-2.87,6.4-6.4,6.4s-6.4-2.87-6.4-6.4,2.87-6.4,6.4-6.4,6.4,2.87,6.4,6.4Z" style="fill:#f09436; fill-rule:evenodd;"/><path d="M648.34,700.5h0c13.53,0,24.5,10.97,24.5,24.5h0c0,13.53-10.97,24.5-24.5,24.5h0c-13.53,0-24.5-10.97-24.5-24.5h0c0-13.53,10.97-24.5,24.5-24.5Z" style="fill:none; stroke:#0c0c0c;"/></g><rect x="356.34" y="458" width="324" height="304" rx="7" ry="7" style="fill:none; stroke:#2f3136; stroke-width:2px;"/></svg>