<?xml version="1.0" encoding="UTF-8"?><svg id="Checklists" xmlns="http://www.w3.org/2000/svg" xmlns:xlink="http://www.w3.org/1999/xlink" viewBox="0 0 1381.34 1032"><defs><clipPath id="clippath"><rect x="1039.34" y="135" width="321" height="789" rx="8" ry="8" style="fill:none;"/></clipPath></defs><rect x="1040.34" y="136" width="319" height="787" rx="7" ry="7" style="fill:#262626; stroke:#374151; stroke-width:2px;"/><rect x="1039.34" y="135" width="321" height="789" style="fill:none;"/><g style="clip-path:url(#clippath);"><g><path d="M1070.05,175.46c-.39-.39-1.03-.39-1.42,0-.39,.39-.39,1.02,0,1.41l1.42-1.41Zm1.96,3.37l-.71,.71c.39,.39,1.02,.39,1.41,0l-.7-.71Zm6.04-4.63c.39-.39,.39-1.02,0-1.41-.39-.39-1.03-.39-1.42,0l1.42,1.41Zm3.62-7.37v16h2v-16h-2Zm-1.66,17.67h-13.34v2h13.34v-2Zm-15-1.67v-16h-2v16h2Zm1.66-17.67h2.67v-2h-2.67v2Zm10.67,0h2.67v-2h-2.67v2Zm-10.67,19.33c-.92,0-1.66-.75-1.66-1.67h-2c0,2.03,1.64,3.67,3.66,3.67v-2Zm15-1.67c0,.92-.74,1.67-1.66,1.67v2c2.02,0,3.66-1.64,3.66-3.67h-2Zm2-16c0-2.02-1.64-3.67-3.66-3.67v2c.92,0,1.66,.75,1.66,1.67h2Zm-18.66,0c0-.92,.74-1.67,1.66-1.67v-2c-2.02,0-3.66,1.64-3.66,3.67h2Zm3.62,10.04l2.67,2.67,1.41-1.41-2.66-2.67-1.42,1.41Zm4.08,2.67l5.34-5.33-1.42-1.41-5.33,5.33,1.41,1.41Zm-.7-17.04h2.66v-2h-2.66v2Zm2.66,3.33h-2.66v2h2.66v-2Zm-2.66,0c-.92,0-1.67-.75-1.67-1.67h-2c0,2.02,1.64,3.67,3.67,3.67v-2Zm4.33-1.67c0,.92-.75,1.67-1.67,1.67v2c2.03,0,3.67-1.64,3.67-3.67h-2Zm-1.67-1.67c.92,0,1.67,.75,1.67,1.67h2c0-2.03-1.64-3.67-3.67-3.67v2Zm-2.66-2c-2.03,0-3.67,1.64-3.67,3.67h2c0-.92,.75-1.67,1.67-1.67v-2Z" style="fill:#fff;"/><path d="M1113.32,173.33c1.19,0,2.25-.22,3.18-.67,.93-.45,1.67-1.07,2.24-1.86,.58-.79,.91-1.71,1.02-2.75v-.12h-3.02l-.02,.1c-.11,.55-.32,1.02-.63,1.43-.31,.4-.7,.71-1.17,.92-.47,.21-1.01,.32-1.6,.32-.78,0-1.46-.21-2.03-.62-.58-.41-1.02-1-1.33-1.76-.3-.76-.46-1.68-.46-2.73h0c0-1.06,.16-1.97,.46-2.73,.31-.76,.75-1.34,1.33-1.75,.57-.41,1.25-.62,2.03-.62,.6,0,1.13,.12,1.6,.35,.47,.23,.86,.55,1.17,.96,.31,.41,.52,.89,.63,1.45l.02,.1h3.01v-.11c-.1-1.05-.43-1.97-1.01-2.78-.57-.81-1.32-1.44-2.25-1.9-.93-.46-1.99-.7-3.17-.7-1.44,0-2.68,.31-3.72,.93-1.04,.61-1.85,1.5-2.41,2.65-.57,1.16-.86,2.53-.86,4.12v.02c0,1.59,.28,2.97,.85,4.12,.56,1.15,1.37,2.04,2.42,2.67,1.04,.62,2.28,.93,3.72,.93Zm8.74-.33h3v-6.44c0-.5,.09-.93,.26-1.3,.19-.38,.45-.67,.77-.87,.33-.21,.72-.32,1.17-.32,.7,0,1.22,.21,1.57,.64,.35,.42,.52,1.02,.52,1.8v6.49h3v-7.15c0-.9-.15-1.66-.45-2.3-.3-.64-.74-1.12-1.31-1.46-.58-.34-1.28-.51-2.1-.51s-1.5,.18-2.06,.54c-.55,.35-.96,.85-1.23,1.5h-.14v-5.93h-3v15.3Zm17.79,.24c.81,0,1.51-.1,2.11-.31,.6-.21,1.1-.49,1.5-.82,.41-.34,.74-.71,.97-1.1,.24-.4,.4-.78,.49-1.16l.02-.1h-2.77l-.03,.06c-.07,.16-.2,.34-.39,.52-.18,.18-.43,.34-.74,.47-.3,.13-.66,.19-1.09,.19-.54,0-1-.12-1.39-.35-.38-.24-.67-.58-.88-1.03-.21-.44-.31-.98-.31-1.6v-1.19c0-.64,.1-1.19,.31-1.64,.21-.45,.5-.79,.87-1.03,.37-.23,.79-.35,1.26-.35s.9,.11,1.25,.34c.37,.23,.65,.56,.85,1.01,.21,.45,.31,1,.31,1.66v1.18l1.42-1.77h-7.74v1.89h9.16v-.93c0-1.13-.21-2.11-.64-2.95-.43-.84-1.05-1.49-1.84-1.96-.79-.46-1.73-.7-2.82-.7s-2.03,.24-2.84,.72c-.8,.48-1.42,1.16-1.85,2.03-.44,.87-.66,1.9-.66,3.09h0c0,1.2,.22,2.23,.66,3.1,.44,.87,1.07,1.54,1.88,2.01,.82,.47,1.8,.71,2.93,.71Zm12.28,0c.98,0,1.83-.17,2.54-.52,.72-.35,1.29-.83,1.7-1.45,.43-.62,.68-1.34,.76-2.14v-.07s-2.78,0-2.78,0v.05c-.13,.57-.38,1.01-.74,1.31-.37,.31-.85,.46-1.46,.46-.52,0-.96-.13-1.33-.4-.37-.27-.65-.67-.84-1.19-.2-.52-.29-1.15-.29-1.9h0c0-.75,.09-1.37,.29-1.89,.19-.51,.47-.9,.84-1.17,.37-.27,.81-.41,1.32-.41,.63,0,1.14,.17,1.51,.51,.37,.34,.6,.77,.69,1.31v.05h2.79v-.05c-.06-.82-.31-1.54-.73-2.16-.41-.63-.97-1.12-1.7-1.48-.72-.36-1.58-.53-2.58-.53-1.15,0-2.13,.23-2.95,.7-.82,.46-1.44,1.12-1.88,1.98-.43,.86-.65,1.9-.65,3.12v.02c0,1.22,.22,2.27,.65,3.15,.44,.87,1.07,1.54,1.89,2,.82,.46,1.8,.69,2.95,.69Zm7.1-.24h3v-15.3h-3v15.3Zm7.04,0h3.51l-4.84-6.86-2.11,1.98,3.44,4.88Zm-4.31-3.43l1.5-1.62,1.25-.74,4.8-5.38h-3.4l-3.74,4.44h-.47l.06,3.3Zm9.38,3.43h3v-15.3h-3v15.3Zm5.74,0h2.99v-11.18h-2.99v11.18Zm1.49-12.79c.46,0,.85-.16,1.17-.47,.32-.32,.48-.7,.48-1.15s-.16-.83-.48-1.15c-.32-.32-.71-.48-1.17-.48s-.84,.16-1.17,.48c-.32,.31-.48,.7-.48,1.15s.16,.83,.48,1.15c.33,.31,.72,.47,1.17,.47Zm8.63,13.02c.95,0,1.8-.15,2.54-.45,.74-.3,1.32-.73,1.73-1.27,.42-.55,.63-1.19,.63-1.92v-.02c0-.82-.26-1.47-.79-1.96-.53-.49-1.36-.86-2.49-1.1l-1.88-.4c-.57-.12-.97-.28-1.2-.46-.23-.19-.35-.43-.35-.73v-.02c0-.25,.07-.46,.22-.64,.15-.18,.35-.32,.61-.42,.26-.1,.57-.15,.92-.15,.55,0,.99,.12,1.31,.37,.33,.25,.52,.54,.59,.88v.06h2.79v-.06c-.04-.62-.24-1.19-.61-1.69s-.9-.91-1.58-1.21c-.69-.31-1.52-.46-2.5-.46s-1.76,.15-2.47,.44c-.69,.29-1.24,.69-1.63,1.22-.38,.52-.57,1.13-.57,1.84h0c0,.85,.27,1.54,.8,2.07,.54,.53,1.35,.91,2.42,1.14l1.88,.4c.56,.12,.95,.28,1.19,.47,.23,.19,.34,.44,.34,.74h0c0,.26-.07,.47-.23,.65-.16,.18-.38,.32-.66,.42-.28,.1-.61,.14-.99,.14-.59,0-1.06-.11-1.4-.34-.34-.23-.56-.54-.67-.92l-.02-.06h-2.94v.06c.08,.66,.32,1.25,.72,1.76,.4,.51,.96,.9,1.68,1.19,.72,.29,1.59,.43,2.61,.43Zm11.51-.12c.3,0,.57-.01,.82-.04,.26-.02,.48-.05,.66-.08v-2.22c-.12,.01-.25,.03-.37,.04-.12,0-.26,.01-.42,.01-.49,0-.86-.11-1.09-.33-.22-.23-.34-.6-.34-1.11v-5.31h2.22v-2.26h-2.22v-2.69h-3.02v2.69h-1.65v2.26h1.65v5.87c0,1.13,.3,1.94,.89,2.43,.6,.49,1.56,.74,2.87,.74Zm8.07,.12c.96,0,1.81-.15,2.54-.45,.74-.3,1.32-.73,1.74-1.27,.41-.55,.62-1.19,.62-1.92v-.02c0-.82-.26-1.47-.79-1.96-.52-.49-1.35-.86-2.49-1.1l-1.87-.4c-.57-.12-.97-.28-1.2-.46-.24-.19-.35-.43-.35-.73v-.02c0-.25,.07-.46,.21-.64,.15-.18,.36-.32,.62-.42,.26-.1,.56-.15,.91-.15,.55,0,.99,.12,1.31,.37,.33,.25,.53,.54,.6,.88v.06h2.79v-.06c-.04-.62-.24-1.19-.62-1.69-.37-.51-.89-.91-1.58-1.21-.68-.31-1.52-.46-2.5-.46s-1.76,.15-2.46,.44c-.7,.29-1.24,.69-1.63,1.22-.38,.52-.58,1.13-.58,1.84h0c0,.85,.27,1.54,.8,2.07,.54,.53,1.35,.91,2.42,1.14l1.88,.4c.56,.12,.96,.28,1.19,.47,.23,.19,.35,.44,.35,.74h0c0,.26-.08,.47-.24,.65-.15,.18-.37,.32-.65,.42-.28,.1-.61,.14-1,.14-.59,0-1.05-.11-1.39-.34-.34-.23-.57-.54-.68-.92l-.02-.06h-2.93v.06c.07,.66,.31,1.25,.72,1.76,.4,.51,.96,.9,1.68,1.19,.72,.29,1.58,.43,2.6,.43Z" style="fill:#fff;"/><path d="M1110.95,190h1.2v-2.04h1.4v-1.1h-1.4v-6.72h-1.79c-.27,.41-.56,.83-.84,1.27-.29,.44-.57,.88-.86,1.33-.28,.45-.57,.91-.86,1.37-.28,.46-.56,.91-.84,1.37-.28,.46-.55,.91-.82,1.35v1.12h4.81v2.04Zm-3.55-3.14v-.08c.21-.36,.43-.73,.66-1.11,.23-.38,.47-.76,.7-1.14,.24-.38,.48-.75,.72-1.13,.24-.37,.47-.74,.71-1.09,.23-.36,.46-.71,.68-1.04h.08v5.59h-3.55Zm15.15-7.16h-1.15l-3.11,12.76h1.14l3.12-12.76Zm8.27,.2c-.66,0-1.26,.15-1.78,.44-.52,.29-.93,.69-1.23,1.21-.3,.51-.44,1.09-.44,1.75h0c0,.64,.14,1.21,.42,1.71,.28,.5,.67,.89,1.15,1.18,.49,.29,1.04,.43,1.66,.43,.45,0,.84-.07,1.19-.21,.35-.14,.65-.33,.89-.56,.24-.23,.43-.48,.54-.75h.24v-1.78h-.4c0,.44-.1,.82-.3,1.16-.2,.33-.46,.59-.8,.79-.34,.19-.72,.29-1.15,.29s-.8-.1-1.13-.29c-.34-.2-.6-.46-.79-.8-.19-.34-.29-.73-.29-1.17h0c0-.44,.1-.83,.3-1.17,.2-.35,.47-.62,.81-.82,.34-.21,.71-.31,1.12-.31s.8,.1,1.13,.31c.34,.21,.6,.48,.8,.83,.2,.35,.3,.74,.3,1.17l.29,1.64v.37c-.03,.68-.13,1.32-.31,1.89-.18,.58-.46,1.04-.83,1.39-.38,.35-.86,.52-1.46,.52-.33,0-.63-.06-.9-.16-.26-.11-.48-.26-.67-.46-.18-.2-.32-.44-.42-.71l-.03-.08h-1.23l.02,.09c.11,.48,.31,.91,.61,1.27,.3,.37,.67,.65,1.11,.86,.45,.2,.94,.3,1.5,.3,.79,0,1.47-.21,2.04-.63,.56-.42,1-1.03,1.3-1.83,.3-.8,.45-1.76,.45-2.88h0c0-.94-.11-1.72-.32-2.36-.22-.64-.5-1.15-.86-1.54-.36-.39-.76-.67-1.2-.84-.44-.17-.88-.26-1.33-.26Z" style="fill:#818181;"/><line x1="1039.34" y1="211.5" x2="1381.34" y2="211.5" style="fill:none; stroke:#2e2e30;"/><rect x="1039.34" y="212" width="321" height="122" style="fill:#1c1c1d;"/><path d="M1051.28,243h2.01v-11.27h-2l-2.95,2.07v1.9l2.8-1.98h.14v9.29Zm6.18,.16c.72,0,1.24-.54,1.24-1.23s-.52-1.23-1.24-1.23-1.24,.54-1.24,1.23,.53,1.23,1.24,1.23Z" style="fill:#fff;"/><path d="M1074.81,244.3c2.77,0,4.75-1.6,5.07-4v-.06h-2.1v.04c-.32,1.32-1.45,2.17-2.97,2.17-2.04,0-3.31-1.7-3.31-4.43v-.02c0-2.72,1.27-4.42,3.31-4.42,1.51,0,2.65,.94,2.96,2.36v.03h2.11v-.07c-.28-2.45-2.35-4.17-5.07-4.17-3.4,0-5.5,2.4-5.5,6.28v.02c0,3.87,2.11,6.28,5.5,6.28Zm7.09-.3h2.06v-5.29c0-1.36,.77-2.22,1.99-2.22s1.83,.71,1.83,2.12v5.39h2.07v-5.87c0-2.16-1.11-3.38-3.13-3.38-1.31,0-2.18,.59-2.62,1.56h-.14v-4.9h-2.06v12.58Zm14.03,.18c2.47,0,3.68-1.42,3.97-2.59l.03-.07h-1.97l-.03,.06c-.2,.41-.83,.98-1.96,.98-1.4,0-2.28-.95-2.3-2.57h6.34v-.68c0-2.74-1.59-4.55-4.18-4.55s-4.23,1.87-4.23,4.72h0c0,2.9,1.64,4.71,4.33,4.71Zm-.07-7.81c1.15,0,1.99,.74,2.13,2.22h-4.31c.16-1.44,1.02-2.22,2.18-2.22Zm9.87,7.81c2.3,0,3.63-1.24,3.93-3.1l.02-.07h-1.95s-.02,.04-.02,.04c-.25,.95-.91,1.44-1.98,1.44-1.4,0-2.24-1.13-2.24-3.05v-.02c0-1.9,.83-3.01,2.24-3.01,1.13,0,1.8,.63,1.99,1.51v.02h1.96v-.03c-.23-1.88-1.63-3.17-3.96-3.17-2.73,0-4.33,1.75-4.33,4.68v.02c0,2.96,1.61,4.73,4.34,4.73Zm5.76-.18h2.07v-3.19l.72-.74,2.91,3.93h2.49l-3.9-5.24,3.65-3.83h-2.39l-3.34,3.72h-.14v-7.23h-2.07v12.58Zm9.62,0h2.07v-12.58h-2.07v12.58Zm5.51-10.59c.67,0,1.22-.54,1.22-1.22s-.55-1.22-1.22-1.22-1.24,.55-1.24,1.22,.56,1.22,1.24,1.22Zm-1.04,10.59h2.07v-9.07h-2.07v9.07Zm7.79,.18c2.24,0,3.85-1.15,3.85-2.88v-.02c0-1.32-.83-2.08-2.61-2.47l-1.47-.32c-.98-.22-1.36-.55-1.36-1.08h0c0-.69,.66-1.14,1.59-1.14s1.56,.46,1.71,1.04v.02h1.95v-.02c-.13-1.47-1.45-2.56-3.66-2.56s-3.63,1.13-3.63,2.76h0c0,1.35,.82,2.16,2.55,2.54l1.47,.33c.99,.22,1.39,.57,1.39,1.1v.02c0,.68-.71,1.15-1.74,1.15s-1.64-.44-1.85-1.07v-.02h-2.06v.02c.17,1.54,1.57,2.6,3.87,2.6Zm9.2-.14c.4,0,.78-.03,1.08-.09v-1.59c-.25,.02-.41,.03-.7,.03-.86,0-1.22-.38-1.22-1.29v-4.57h1.92v-1.6h-1.92v-2.22h-2.1v2.22h-1.41v1.6h1.41v5.06c0,1.75,.86,2.45,2.94,2.45Zm10.76,0c.4,0,.78-.03,1.08-.09v-1.59c-.25,.02-.41,.03-.7,.03-.86,0-1.22-.38-1.22-1.29v-4.57h1.92v-1.6h-1.92v-2.22h-2.1v2.22h-1.41v1.6h1.41v5.06c0,1.75,.86,2.45,2.94,2.45Zm6.7,.14c2.47,0,3.68-1.42,3.97-2.59l.02-.07h-1.96l-.03,.06c-.2,.41-.84,.98-1.96,.98-1.4,0-2.28-.95-2.31-2.57h6.35v-.68c0-2.74-1.6-4.55-4.18-4.55s-4.23,1.87-4.23,4.72h0c0,2.9,1.63,4.71,4.33,4.71Zm-.07-7.81c1.15,0,1.99,.74,2.13,2.22h-4.31c.16-1.44,1.02-2.22,2.18-2.22Zm4.92,7.63h2.22l1.85-3.15h.15l1.85,3.15h2.33l-2.96-4.59,2.93-4.48h-2.27l-1.79,3.15h-.14l-1.81-3.15h-2.39l2.97,4.57-2.94,4.5Zm13.55,.04c.39,0,.78-.03,1.08-.09v-1.59c-.25,.02-.41,.03-.7,.03-.87,0-1.22-.38-1.22-1.29v-4.57h1.92v-1.6h-1.92v-2.22h-2.1v2.22h-1.41v1.6h1.41v5.06c0,1.75,.85,2.45,2.94,2.45Zm10.76,0c.39,0,.78-.03,1.07-.09v-1.59c-.24,.02-.4,.03-.69,.03-.87,0-1.22-.38-1.22-1.29v-4.57h1.91v-1.6h-1.91v-2.22h-2.1v2.22h-1.41v1.6h1.41v5.06c0,1.75,.85,2.45,2.94,2.45Zm2.98-.04h2.06v-5.29c0-1.36,.77-2.22,2-2.22s1.82,.71,1.82,2.12v5.39h2.07v-5.87c0-2.16-1.11-3.38-3.13-3.38-1.31,0-2.18,.59-2.62,1.56h-.14v-4.9h-2.06v12.58Zm12.62,.15c1.2,0,2.16-.51,2.66-1.39h.14v1.24h2.04v-6.2c0-1.92-1.31-3.05-3.64-3.05-2.16,0-3.62,1.01-3.82,2.54v.07s1.94,0,1.94,0v-.03c.22-.6,.83-.94,1.78-.94,1.11,0,1.7,.5,1.7,1.4v.78l-2.33,.14c-2.21,.13-3.45,1.08-3.45,2.7v.02c0,1.65,1.26,2.71,2.98,2.71Zm-.94-2.81v-.02c0-.75,.54-1.17,1.7-1.24l2.04-.13v.73c0,1.08-.92,1.89-2.17,1.89-.91,0-1.57-.46-1.57-1.23Zm11.59,2.71c.4,0,.78-.03,1.08-.09v-1.59c-.25,.02-.4,.03-.7,.03-.86,0-1.22-.38-1.22-1.29v-4.57h1.92v-1.6h-1.92v-2.22h-2.1v2.22h-1.41v1.6h1.41v5.06c0,1.75,.86,2.45,2.94,2.45Zm7.19,2.97h2.07v-4.46h.14c.47,.98,1.51,1.59,2.76,1.59,2.3,0,3.72-1.78,3.72-4.67v-.02c0-2.87-1.45-4.68-3.72-4.68-1.27,0-2.26,.58-2.76,1.57h-.14v-1.42h-2.07v12.09Zm4.32-4.61c-1.4,0-2.28-1.12-2.28-2.94v-.02c0-1.82,.88-2.93,2.28-2.93s2.27,1.11,2.27,2.94v.02c0,1.82-.86,2.93-2.27,2.93Zm10.14,1.78c2.71,0,4.36-1.78,4.36-4.71v-.02c0-2.92-1.66-4.7-4.36-4.7s-4.37,1.78-4.37,4.7v.02c0,2.94,1.64,4.71,4.37,4.71Zm0-1.68c-1.44,0-2.26-1.12-2.26-3.03v-.02c0-1.91,.82-3.04,2.26-3.04s2.24,1.13,2.24,3.04v.02c0,1.91-.81,3.03-2.24,3.03Zm9.77,1.54c.39,0,.78-.03,1.08-.09v-1.59c-.25,.02-.41,.03-.7,.03-.87,0-1.22-.38-1.22-1.29v-4.57h1.92v-1.6h-1.92v-2.22h-2.1v2.22h-1.41v1.6h1.41v5.06c0,1.75,.85,2.45,2.94,2.45Zm6.7,.14c2.46,0,3.67-1.42,3.96-2.59l.03-.07h-1.97l-.02,.06c-.2,.41-.84,.98-1.96,.98-1.41,0-2.29-.95-2.31-2.57h6.34v-.68c0-2.74-1.59-4.55-4.17-4.55s-4.24,1.87-4.24,4.72h0c0,2.9,1.64,4.71,4.34,4.71Zm-.08-7.81c1.15,0,1.99,.74,2.13,2.22h-4.3c.15-1.44,1.02-2.22,2.17-2.22Zm5.98,7.63h2.06v-5.29c0-1.36,.77-2.22,2-2.22s1.82,.71,1.82,2.12v5.39h2.07v-5.87c0-2.16-1.1-3.38-3.13-3.38-1.31,0-2.18,.59-2.61,1.56h-.15v-1.39h-2.06v9.07Zm13.72,.04c.4,0,.78-.03,1.08-.09v-1.59c-.25,.02-.41,.03-.7,.03-.86,0-1.22-.38-1.22-1.29v-4.57h1.92v-1.6h-1.92v-2.22h-2.1v2.22h-1.41v1.6h1.41v5.06c0,1.75,.86,2.45,2.94,2.45Zm3.96-10.63c.67,0,1.23-.54,1.23-1.22s-.56-1.22-1.23-1.22-1.24,.55-1.24,1.22,.56,1.22,1.24,1.22Zm-1.04,10.59h2.07v-9.07h-2.07v9.07Zm6.84,.15c1.2,0,2.16-.51,2.66-1.39h.14v1.24h2.04v-6.2c0-1.92-1.31-3.05-3.64-3.05-2.16,0-3.62,1.01-3.82,2.54v.07s1.94,0,1.94,0v-.03c.22-.6,.83-.94,1.78-.94,1.11,0,1.7,.5,1.7,1.4v.78l-2.33,.14c-2.21,.13-3.45,1.08-3.45,2.7v.02c0,1.65,1.26,2.71,2.98,2.71Zm-.93-2.81v-.02c0-.75,.53-1.17,1.69-1.24l2.04-.13v.73c0,1.08-.92,1.89-2.17,1.89-.91,0-1.56-.46-1.56-1.23Zm8.1,2.66h2.06v-12.58h-2.06v12.58Zm4.52,0h2.07v-12.58h-2.07v12.58Zm5.41,3.19c2.01,0,3.05-.72,3.83-3l3.26-9.26h-2.18l-2.11,7.09h-.16l-2.11-7.09h-2.26l3.25,9.08-.11,.42c-.23,.82-.73,1.17-1.58,1.17-.22,0-.45,0-.61-.02v1.59c.25,.02,.54,.03,.78,.03Zm16.82,0c2.64,0,4.32-1.32,4.32-3.41v-8.85h-2.07v1.49h-.1c-.52-1.03-1.5-1.64-2.75-1.64-2.34,0-3.77,1.81-3.77,4.43v.02c0,2.57,1.43,4.35,3.73,4.35,1.25,0,2.24-.53,2.76-1.5h.14v1.74c0,1.16-.82,1.82-2.23,1.82-1.16,0-1.84-.41-1.99-.99v-.03h-2.07v.03c.2,1.53,1.63,2.55,4.03,2.55Zm0-5.26c-1.44,0-2.25-1.1-2.25-2.71v-.02c0-1.6,.81-2.71,2.25-2.71s2.29,1.11,2.29,2.71v.02c0,1.6-.86,2.71-2.29,2.71Zm10.53,2.25c2.71,0,4.37-1.78,4.37-4.71v-.02c0-2.92-1.66-4.7-4.37-4.7s-4.37,1.78-4.37,4.7v.02c0,2.94,1.65,4.71,4.37,4.71Zm0-1.68c-1.44,0-2.26-1.12-2.26-3.03v-.02c0-1.91,.82-3.04,2.26-3.04s2.25,1.13,2.25,3.04v.02c0,1.91-.81,3.03-2.25,3.03Zm10.09,1.68c2.46,0,3.67-1.42,3.96-2.59l.03-.07h-1.97l-.02,.06c-.2,.41-.84,.98-1.96,.98-1.41,0-2.29-.95-2.31-2.57h6.34v-.68c0-2.74-1.59-4.55-4.17-4.55s-4.24,1.87-4.24,4.72h0c0,2.9,1.64,4.71,4.34,4.71Zm-.08-7.81c1.15,0,1.99,.74,2.13,2.22h-4.3c.15-1.44,1.02-2.22,2.17-2.22Zm9.41,7.81c2.23,0,3.85-1.15,3.85-2.88v-.02c0-1.32-.84-2.08-2.62-2.47l-1.47-.32c-.98-.22-1.36-.55-1.36-1.08h0c0-.69,.67-1.14,1.59-1.14,.97,0,1.57,.46,1.72,1.04v.02h1.95v-.02c-.14-1.47-1.46-2.56-3.66-2.56s-3.64,1.13-3.64,2.76h0c0,1.35,.82,2.16,2.55,2.54l1.47,.33c.99,.22,1.39,.57,1.39,1.1v.02c0,.68-.71,1.15-1.74,1.15s-1.64-.44-1.85-1.07v-.02h-2.06v.02c.17,1.54,1.57,2.6,3.88,2.6Zm-274.73,19.97c1.19,0,2.15-.51,2.65-1.39h.14v1.24h2.04v-6.2c0-1.92-1.31-3.05-3.64-3.05-2.16,0-3.62,1.01-3.82,2.54v.07s1.94,0,1.94,0v-.03c.22-.6,.83-.94,1.78-.94,1.11,0,1.7,.5,1.7,1.4v.78l-2.33,.14c-2.21,.13-3.44,1.08-3.44,2.7v.02c0,1.65,1.25,2.71,2.98,2.71Zm-.94-2.81v-.02c0-.75,.54-1.17,1.69-1.24l2.04-.13v.73c0,1.08-.92,1.89-2.16,1.89-.92,0-1.57-.46-1.57-1.23Zm11.91,2.85c2.3,0,3.64-1.24,3.93-3.1l.02-.07h-1.95s-.02,.04-.02,.04c-.25,.95-.91,1.44-1.98,1.44-1.4,0-2.24-1.13-2.24-3.06v-.02c0-1.9,.83-3.01,2.24-3.01,1.13,0,1.8,.63,1.99,1.51v.02h1.96v-.03c-.23-1.88-1.63-3.17-3.96-3.17-2.73,0-4.33,1.75-4.33,4.68v.02c0,2.96,1.61,4.73,4.34,4.73Zm5.68-.18h2.07v-5.27c0-1.29,.9-2.12,2.28-2.12,.35,0,.7,.05,1.03,.12v-1.85c-.2-.06-.53-.1-.84-.1-1.2,0-2.03,.57-2.33,1.54h-.14v-1.4h-2.07v9.07Zm10.52,.18c2.71,0,4.36-1.78,4.36-4.72v-.02c0-2.92-1.66-4.7-4.36-4.7s-4.37,1.78-4.37,4.7v.02c0,2.94,1.64,4.72,4.37,4.72Zm0-1.68c-1.44,0-2.26-1.12-2.26-3.03v-.02c0-1.91,.82-3.04,2.26-3.04s2.25,1.13,2.25,3.04v.02c0,1.91-.82,3.03-2.25,3.03Zm9.63,1.68c2.23,0,3.85-1.15,3.85-2.88v-.02c0-1.32-.84-2.08-2.62-2.47l-1.47-.32c-.98-.22-1.36-.55-1.36-1.08h0c0-.69,.67-1.14,1.59-1.14,.97,0,1.57,.46,1.72,1.04v.02h1.95v-.02c-.14-1.47-1.46-2.56-3.66-2.56s-3.64,1.13-3.64,2.76h0c0,1.35,.82,2.16,2.55,2.54l1.47,.33c.99,.22,1.39,.57,1.39,1.1v.02c0,.68-.71,1.14-1.74,1.14s-1.64-.44-1.85-1.07v-.02h-2.06v.02c.17,1.54,1.57,2.6,3.88,2.6Zm8.95,0c2.24,0,3.85-1.15,3.85-2.88v-.02c0-1.32-.83-2.08-2.61-2.47l-1.47-.32c-.98-.22-1.36-.55-1.36-1.08h0c0-.69,.66-1.14,1.58-1.14,.98,0,1.57,.46,1.72,1.04v.02h1.95v-.02c-.13-1.47-1.45-2.56-3.66-2.56s-3.63,1.13-3.63,2.76h0c0,1.35,.82,2.16,2.55,2.54l1.46,.33c1,.22,1.4,.57,1.4,1.1v.02c0,.68-.71,1.14-1.74,1.14s-1.64-.44-1.86-1.07v-.02h-2.05v.02c.17,1.54,1.57,2.6,3.87,2.6Zm13.56-.14c.4,0,.78-.03,1.08-.09v-1.59c-.25,.03-.41,.03-.7,.03-.86,0-1.22-.38-1.22-1.29v-4.57h1.92v-1.6h-1.92v-2.22h-2.1v2.22h-1.41v1.6h1.41v5.06c0,1.75,.86,2.45,2.94,2.45Zm4.62-.04h2.15l1.76-6.57h.14l1.76,6.57h2.17l2.46-9.07h-2.05l-1.5,6.82h-.15l-1.76-6.82h-1.96l-1.75,6.82h-.14l-1.51-6.82h-2.07l2.45,9.07Zm15.55,.18c2.72,0,4.37-1.78,4.37-4.72v-.02c0-2.92-1.66-4.7-4.37-4.7s-4.36,1.78-4.36,4.7v.02c0,2.94,1.64,4.72,4.36,4.72Zm0-1.68c-1.43,0-2.26-1.12-2.26-3.03v-.02c0-1.91,.83-3.04,2.26-3.04s2.25,1.13,2.25,3.04v.02c0,1.91-.81,3.03-2.25,3.03Zm10.58,1.49h2.07v-12.58h-2.07v12.58Zm5.5-10.59c.67,0,1.23-.54,1.23-1.22s-.56-1.22-1.23-1.22-1.23,.55-1.23,1.22,.55,1.22,1.23,1.22Zm-1.03,10.59h2.06v-9.07h-2.06v9.07Zm4.36,0h2.07v-5.29c0-1.36,.76-2.22,1.99-2.22s1.83,.71,1.83,2.12v5.39h2.06v-5.87c0-2.16-1.1-3.38-3.13-3.38-1.31,0-2.18,.59-2.61,1.56h-.14v-1.39h-2.07v9.07Zm14.04,.18c2.46,0,3.68-1.42,3.97-2.59l.02-.07h-1.97l-.02,.06c-.2,.42-.84,.98-1.96,.98-1.4,0-2.28-.95-2.31-2.57h6.34v-.68c0-2.74-1.59-4.55-4.17-4.55s-4.23,1.87-4.23,4.72h0c0,2.9,1.63,4.71,4.33,4.71Zm-.08-7.81c1.16,0,2,.74,2.14,2.22h-4.31c.16-1.44,1.02-2.22,2.17-2.22Zm9.41,7.81c2.23,0,3.85-1.15,3.85-2.88v-.02c0-1.32-.84-2.08-2.61-2.47l-1.47-.32c-.98-.22-1.36-.55-1.36-1.08h0c0-.69,.66-1.14,1.58-1.14,.97,0,1.57,.46,1.72,1.04v.02h1.95v-.02c-.13-1.47-1.45-2.56-3.66-2.56s-3.64,1.13-3.64,2.76h0c0,1.35,.83,2.16,2.55,2.54l1.47,.33c1,.22,1.4,.57,1.4,1.1v.02c0,.68-.72,1.14-1.75,1.14s-1.63-.44-1.85-1.07v-.02h-2.06v.02c.18,1.54,1.57,2.6,3.88,2.6Zm12.05-5.73h1.52l-.1-2.07,1.64,1.08,.76-1.19-1.87-1,1.87-1-.76-1.19-1.64,1.08,.1-2.06h-1.52l.1,2.07-1.66-1.08-.75,1.19,1.87,.99-1.87,1,.75,1.19,1.66-1.09-.1,2.07Z" style="fill:#fff;"/><path d="M1056.67,291.67h13.34m-13.34,5.33h5.34m1.33,10.67l-5.33-5.33h-4c-1.48,0-2.67-1.19-2.67-2.67v-10.67c0-1.47,1.19-2.67,2.67-2.67h18.66c1.48,0,2.67,1.19,2.67,2.67v10.67c0,1.47-1.19,2.67-2.67,2.67h-4l-5.33,5.33Z" style="fill:none; stroke:rgba(240,148,54,.5); stroke-linecap:round; stroke-linejoin:round; stroke-width:2px;"/><path d="M1249.34,276h0c11.6,0,21,9.4,21,21h0c0,11.6-9.4,21-21,21h0c-11.6,0-21-9.4-21-21h0c0-11.6,9.4-21,21-21Z" style="fill:#39393c;"/><path d="M1243.34,303l12-12m-12,0l12,12" style="fill:none; stroke:#1e1e1e; stroke-linecap:round; stroke-linejoin:round; stroke-width:2px;"/><path d="M1331.34,276h0c11.6,0,21,9.4,21,21h0c0,11.6-9.4,21-21,21h0c-11.6,0-21-9.4-21-21h0c0-11.6,9.4-21,21-21Z" style="fill:#f09436;"/><path d="M1324.34,298l4,4,10-10" style="fill:none; stroke:#fff; stroke-linecap:round; stroke-linejoin:round; stroke-width:2px;"/><line x1="1039.34" y1="333.5" x2="1360.34" y2="333.5" style="fill:none; stroke:#414141;"/><rect x="1039.34" y="334" width="321" height="122" style="fill:#1c1c1d;"/><path d="M1048.52,365h7.83v-1.67h-5.1v-.16l2.25-2.19c2.06-1.98,2.68-2.99,2.68-4.27v-.02c0-1.9-1.58-3.23-3.78-3.23-2.35,0-3.99,1.47-3.99,3.57v.02s1.88,0,1.88,0v-.03c.01-1.16,.82-1.95,2.01-1.95s1.88,.75,1.88,1.79v.02c0,.87-.43,1.44-1.96,2.98l-3.7,3.78v1.36Zm11.36,.16c.72,0,1.24-.54,1.24-1.23s-.52-1.23-1.24-1.23-1.24,.54-1.24,1.23,.53,1.23,1.24,1.23Z" style="fill:#fff;"/><path d="M1077.81,366.3c2.77,0,4.75-1.6,5.07-4v-.06h-2.1v.04c-.32,1.32-1.45,2.17-2.97,2.17-2.04,0-3.31-1.7-3.31-4.43v-.02c0-2.72,1.27-4.42,3.31-4.42,1.51,0,2.65,.94,2.96,2.36v.03h2.11v-.07c-.28-2.45-2.35-4.18-5.07-4.18-3.4,0-5.5,2.4-5.5,6.28v.02c0,3.87,2.11,6.28,5.5,6.28Zm7.09-.3h2.06v-5.29c0-1.36,.77-2.22,1.99-2.22s1.83,.71,1.83,2.12v5.39h2.07v-5.87c0-2.16-1.11-3.38-3.13-3.38-1.31,0-2.18,.59-2.62,1.56h-.14v-4.9h-2.06v12.58Zm14.03,.18c2.47,0,3.68-1.42,3.97-2.59l.03-.07h-1.97l-.03,.06c-.2,.42-.83,.98-1.96,.98-1.4,0-2.28-.95-2.3-2.57h6.34v-.68c0-2.74-1.59-4.55-4.18-4.55s-4.23,1.87-4.23,4.72h0c0,2.9,1.64,4.71,4.33,4.71Zm-.07-7.81c1.15,0,1.99,.74,2.13,2.22h-4.31c.16-1.44,1.02-2.22,2.18-2.22Zm9.87,7.81c2.3,0,3.63-1.24,3.93-3.1l.02-.07h-1.95s-.02,.04-.02,.04c-.25,.95-.91,1.44-1.98,1.44-1.4,0-2.24-1.13-2.24-3.06v-.02c0-1.9,.83-3.01,2.24-3.01,1.13,0,1.8,.63,1.99,1.51v.02h1.96v-.03c-.23-1.88-1.63-3.17-3.96-3.17-2.73,0-4.33,1.75-4.33,4.68v.02c0,2.96,1.61,4.73,4.34,4.73Zm5.76-.18h2.07v-3.19l.72-.74,2.91,3.93h2.49l-3.9-5.24,3.65-3.83h-2.39l-3.34,3.72h-.14v-7.23h-2.07v12.58Zm9.62,0h2.07v-12.58h-2.07v12.58Zm5.51-10.59c.67,0,1.22-.54,1.22-1.22s-.55-1.22-1.22-1.22-1.24,.55-1.24,1.22,.56,1.22,1.24,1.22Zm-1.04,10.59h2.07v-9.07h-2.07v9.07Zm7.79,.18c2.24,0,3.85-1.15,3.85-2.88v-.02c0-1.32-.83-2.08-2.61-2.47l-1.47-.32c-.98-.22-1.36-.55-1.36-1.08h0c0-.69,.66-1.14,1.59-1.14s1.56,.46,1.71,1.04v.02h1.95v-.02c-.13-1.47-1.45-2.57-3.66-2.57s-3.63,1.13-3.63,2.76h0c0,1.35,.82,2.16,2.55,2.54l1.47,.33c.99,.22,1.39,.57,1.39,1.1v.02c0,.68-.71,1.14-1.74,1.14s-1.64-.44-1.85-1.07v-.02h-2.06v.02c.17,1.54,1.57,2.6,3.87,2.6Zm9.2-.14c.4,0,.78-.03,1.08-.09v-1.59c-.25,.03-.41,.03-.7,.03-.86,0-1.22-.38-1.22-1.29v-4.57h1.92v-1.6h-1.92v-2.22h-2.1v2.22h-1.41v1.6h1.41v5.06c0,1.75,.86,2.45,2.94,2.45Zm10.76,0c.4,0,.78-.03,1.08-.09v-1.59c-.25,.03-.41,.03-.7,.03-.86,0-1.22-.38-1.22-1.29v-4.57h1.92v-1.6h-1.92v-2.22h-2.1v2.22h-1.41v1.6h1.41v5.06c0,1.75,.86,2.45,2.94,2.45Zm6.7,.14c2.47,0,3.68-1.42,3.97-2.59l.02-.07h-1.96l-.03,.06c-.2,.42-.84,.98-1.96,.98-1.4,0-2.28-.95-2.31-2.57h6.35v-.68c0-2.74-1.6-4.55-4.18-4.55s-4.23,1.87-4.23,4.72h0c0,2.9,1.63,4.71,4.33,4.71Zm-.07-7.81c1.15,0,1.99,.74,2.13,2.22h-4.31c.16-1.44,1.02-2.22,2.18-2.22Zm4.92,7.63h2.22l1.85-3.15h.15l1.85,3.15h2.33l-2.96-4.59,2.93-4.48h-2.27l-1.79,3.15h-.14l-1.81-3.15h-2.39l2.97,4.57-2.94,4.5Zm13.55,.04c.39,0,.78-.03,1.08-.09v-1.59c-.25,.03-.41,.03-.7,.03-.87,0-1.22-.38-1.22-1.29v-4.57h1.92v-1.6h-1.92v-2.22h-2.1v2.22h-1.41v1.6h1.41v5.06c0,1.75,.85,2.45,2.94,2.45Zm10.76,0c.39,0,.78-.03,1.07-.09v-1.59c-.24,.03-.4,.03-.69,.03-.87,0-1.22-.38-1.22-1.29v-4.57h1.91v-1.6h-1.91v-2.22h-2.1v2.22h-1.41v1.6h1.41v5.06c0,1.75,.85,2.45,2.94,2.45Zm2.98-.04h2.06v-5.29c0-1.36,.77-2.22,2-2.22s1.82,.71,1.82,2.12v5.39h2.07v-5.87c0-2.16-1.11-3.38-3.13-3.38-1.31,0-2.18,.59-2.62,1.56h-.14v-4.9h-2.06v12.58Zm12.62,.15c1.2,0,2.16-.51,2.66-1.39h.14v1.24h2.04v-6.2c0-1.92-1.31-3.05-3.64-3.05-2.16,0-3.62,1.01-3.82,2.54v.08s1.94,0,1.94,0v-.03c.22-.6,.83-.94,1.78-.94,1.11,0,1.7,.5,1.7,1.4v.78l-2.33,.14c-2.21,.13-3.45,1.08-3.45,2.7v.02c0,1.65,1.26,2.71,2.98,2.71Zm-.94-2.81v-.02c0-.75,.54-1.17,1.7-1.24l2.04-.13v.73c0,1.08-.92,1.89-2.17,1.89-.91,0-1.57-.46-1.57-1.23Zm11.59,2.71c.4,0,.78-.03,1.08-.09v-1.59c-.25,.03-.4,.03-.7,.03-.86,0-1.22-.38-1.22-1.29v-4.57h1.92v-1.6h-1.92v-2.22h-2.1v2.22h-1.41v1.6h1.41v5.06c0,1.75,.86,2.45,2.94,2.45Zm7.19,2.97h2.07v-4.46h.14c.47,.98,1.51,1.59,2.76,1.59,2.3,0,3.72-1.78,3.72-4.67v-.02c0-2.87-1.45-4.68-3.72-4.68-1.27,0-2.26,.58-2.76,1.57h-.14v-1.42h-2.07v12.09Zm4.32-4.61c-1.4,0-2.28-1.12-2.28-2.94v-.02c0-1.82,.88-2.93,2.28-2.93s2.27,1.11,2.27,2.94v.02c0,1.82-.86,2.93-2.27,2.93Zm10.14,1.78c2.71,0,4.36-1.78,4.36-4.72v-.02c0-2.92-1.66-4.7-4.36-4.7s-4.37,1.79-4.37,4.7v.02c0,2.94,1.64,4.72,4.37,4.72Zm0-1.68c-1.44,0-2.26-1.12-2.26-3.03v-.02c0-1.91,.82-3.04,2.26-3.04s2.24,1.13,2.24,3.04v.02c0,1.91-.81,3.03-2.24,3.03Zm9.77,1.54c.39,0,.78-.03,1.08-.09v-1.59c-.25,.03-.41,.03-.7,.03-.87,0-1.22-.38-1.22-1.29v-4.57h1.92v-1.6h-1.92v-2.22h-2.1v2.22h-1.41v1.6h1.41v5.06c0,1.75,.85,2.45,2.94,2.45Zm6.7,.14c2.46,0,3.67-1.42,3.96-2.59l.03-.07h-1.97l-.02,.06c-.2,.42-.84,.98-1.96,.98-1.41,0-2.29-.95-2.31-2.57h6.34v-.68c0-2.74-1.59-4.55-4.17-4.55s-4.24,1.87-4.24,4.72h0c0,2.9,1.64,4.71,4.34,4.71Zm-.08-7.81c1.15,0,1.99,.74,2.13,2.22h-4.3c.15-1.44,1.02-2.22,2.17-2.22Zm5.98,7.63h2.06v-5.29c0-1.36,.77-2.22,2-2.22s1.82,.71,1.82,2.12v5.39h2.07v-5.87c0-2.16-1.1-3.38-3.13-3.38-1.31,0-2.18,.59-2.61,1.56h-.15v-1.39h-2.06v9.07Zm13.72,.04c.4,0,.78-.03,1.08-.09v-1.59c-.25,.03-.41,.03-.7,.03-.86,0-1.22-.38-1.22-1.29v-4.57h1.92v-1.6h-1.92v-2.22h-2.1v2.22h-1.41v1.6h1.41v5.06c0,1.75,.86,2.45,2.94,2.45Zm3.96-10.63c.67,0,1.23-.54,1.23-1.22s-.56-1.22-1.23-1.22-1.24,.55-1.24,1.22,.56,1.22,1.24,1.22Zm-1.04,10.59h2.07v-9.07h-2.07v9.07Zm6.84,.15c1.2,0,2.16-.51,2.66-1.39h.14v1.24h2.04v-6.2c0-1.92-1.31-3.05-3.64-3.05-2.16,0-3.62,1.01-3.82,2.54v.08s1.94,0,1.94,0v-.03c.22-.6,.83-.94,1.78-.94,1.11,0,1.7,.5,1.7,1.4v.78l-2.33,.14c-2.21,.13-3.45,1.08-3.45,2.7v.02c0,1.65,1.26,2.71,2.98,2.71Zm-.93-2.81v-.02c0-.75,.53-1.17,1.69-1.24l2.04-.13v.73c0,1.08-.92,1.89-2.17,1.89-.91,0-1.56-.46-1.56-1.23Zm8.1,2.67h2.06v-12.58h-2.06v12.58Zm4.52,0h2.07v-12.58h-2.07v12.58Zm5.41,3.19c2.01,0,3.05-.72,3.83-3l3.26-9.26h-2.18l-2.11,7.09h-.16l-2.11-7.09h-2.26l3.25,9.08-.11,.42c-.23,.82-.73,1.17-1.58,1.17-.22,0-.45,0-.61-.02v1.58c.25,.02,.54,.03,.78,.03Zm-226.54,20c2.65,0,4.33-1.32,4.33-3.41v-8.85h-2.07v1.49h-.11c-.51-1.03-1.49-1.64-2.74-1.64-2.35,0-3.77,1.81-3.77,4.43v.02c0,2.57,1.42,4.35,3.72,4.35,1.26,0,2.25-.53,2.77-1.5h.14v1.73c0,1.16-.82,1.82-2.23,1.82-1.16,0-1.85-.41-1.99-.99v-.02h-2.07v.02c.2,1.53,1.63,2.55,4.02,2.55Zm0-5.25c-1.43,0-2.25-1.1-2.25-2.71v-.02c0-1.6,.82-2.71,2.25-2.71s2.3,1.11,2.3,2.71v.02c0,1.6-.86,2.71-2.3,2.71Zm10.54,2.25c2.71,0,4.36-1.78,4.36-4.72v-.02c0-2.92-1.66-4.7-4.36-4.7s-4.37,1.79-4.37,4.7v.02c0,2.94,1.64,4.72,4.37,4.72Zm0-1.68c-1.44,0-2.26-1.12-2.26-3.03v-.02c0-1.91,.82-3.04,2.26-3.04s2.25,1.13,2.25,3.04v.02c0,1.91-.82,3.03-2.25,3.03Zm10.08,1.68c2.47,0,3.68-1.42,3.97-2.59l.03-.07h-1.97l-.03,.06c-.2,.42-.83,.98-1.95,.98-1.41,0-2.29-.95-2.31-2.57h6.34v-.68c0-2.74-1.59-4.55-4.18-4.55s-4.23,1.87-4.23,4.72h0c0,2.9,1.64,4.71,4.33,4.71Zm-.07-7.81c1.15,0,1.99,.74,2.13,2.22h-4.31c.16-1.44,1.03-2.22,2.18-2.22Zm9.4,7.81c2.24,0,3.86-1.15,3.86-2.88v-.02c0-1.32-.84-2.08-2.62-2.47l-1.47-.32c-.98-.22-1.36-.55-1.36-1.08h0c0-.69,.66-1.14,1.59-1.14s1.57,.46,1.71,1.04v.02h1.96v-.02c-.14-1.47-1.46-2.57-3.67-2.57s-3.63,1.13-3.63,2.76h0c0,1.35,.82,2.16,2.55,2.54l1.47,.33c.99,.22,1.39,.57,1.39,1.1v.02c0,.68-.71,1.14-1.74,1.14s-1.64-.44-1.85-1.07v-.02h-2.06v.02c.17,1.54,1.57,2.6,3.87,2.6Zm12.47-.03c1.19,0,2.15-.51,2.65-1.39h.14v1.24h2.04v-6.2c0-1.92-1.31-3.05-3.64-3.05-2.16,0-3.62,1.01-3.82,2.54v.08s1.94,0,1.94,0v-.03c.22-.6,.83-.94,1.78-.94,1.11,0,1.7,.5,1.7,1.4v.78l-2.33,.14c-2.21,.13-3.44,1.08-3.44,2.7v.02c0,1.65,1.25,2.71,2.98,2.71Zm-.94-2.81v-.02c0-.75,.54-1.17,1.69-1.24l2.04-.13v.73c0,1.08-.92,1.89-2.16,1.89-.92,0-1.57-.46-1.57-1.23Zm11.91,2.85c2.3,0,3.64-1.24,3.93-3.1l.02-.07h-1.95s-.02,.04-.02,.04c-.25,.95-.91,1.44-1.98,1.44-1.4,0-2.24-1.13-2.24-3.06v-.02c0-1.9,.83-3.01,2.24-3.01,1.13,0,1.8,.63,1.99,1.51v.02h1.96v-.03c-.23-1.88-1.63-3.17-3.96-3.17-2.73,0-4.33,1.75-4.33,4.68v.02c0,2.96,1.61,4.73,4.34,4.73Zm5.68-.18h2.07v-5.27c0-1.3,.9-2.12,2.28-2.12,.35,0,.7,.05,1.03,.12v-1.85c-.2-.06-.53-.1-.84-.1-1.2,0-2.03,.57-2.33,1.54h-.14v-1.39h-2.07v9.07Zm10.52,.18c2.71,0,4.36-1.78,4.36-4.72v-.02c0-2.92-1.66-4.7-4.36-4.7s-4.37,1.79-4.37,4.7v.02c0,2.94,1.64,4.72,4.37,4.72Zm0-1.68c-1.44,0-2.26-1.12-2.26-3.03v-.02c0-1.91,.82-3.04,2.26-3.04s2.25,1.13,2.25,3.04v.02c0,1.91-.82,3.03-2.25,3.03Zm9.63,1.68c2.23,0,3.85-1.15,3.85-2.88v-.02c0-1.32-.84-2.08-2.62-2.47l-1.47-.32c-.98-.22-1.36-.55-1.36-1.08h0c0-.69,.67-1.14,1.59-1.14,.97,0,1.57,.46,1.72,1.04v.02h1.95v-.02c-.14-1.47-1.46-2.57-3.66-2.57s-3.64,1.13-3.64,2.76h0c0,1.35,.82,2.16,2.55,2.54l1.47,.33c.99,.22,1.39,.57,1.39,1.1v.02c0,.68-.71,1.14-1.74,1.14s-1.64-.44-1.85-1.07v-.02h-2.06v.02c.17,1.54,1.57,2.6,3.88,2.6Zm8.95,0c2.24,0,3.85-1.15,3.85-2.88v-.02c0-1.32-.83-2.08-2.61-2.47l-1.47-.32c-.98-.22-1.36-.55-1.36-1.08h0c0-.69,.66-1.14,1.58-1.14,.98,0,1.57,.46,1.72,1.04v.02h1.95v-.02c-.13-1.47-1.45-2.57-3.66-2.57s-3.63,1.13-3.63,2.76h0c0,1.35,.82,2.16,2.55,2.54l1.46,.33c1,.22,1.4,.57,1.4,1.1v.02c0,.68-.71,1.14-1.74,1.14s-1.64-.44-1.85-1.07v-.02h-2.06v.02c.17,1.54,1.57,2.6,3.87,2.6Zm13.56-.14c.4,0,.78-.03,1.08-.09v-1.59c-.25,.03-.41,.03-.7,.03-.86,0-1.22-.38-1.22-1.29v-4.57h1.92v-1.6h-1.92v-2.22h-2.1v2.22h-1.41v1.6h1.41v5.06c0,1.75,.86,2.45,2.94,2.45Zm4.62-.04h2.15l1.76-6.57h.14l1.76,6.57h2.17l2.46-9.07h-2.05l-1.5,6.82h-.15l-1.76-6.82h-1.96l-1.75,6.82h-.14l-1.51-6.82h-2.07l2.45,9.07Zm15.55,.18c2.72,0,4.37-1.78,4.37-4.72v-.02c0-2.92-1.66-4.7-4.37-4.7s-4.36,1.79-4.36,4.7v.02c0,2.94,1.64,4.72,4.36,4.72Zm0-1.68c-1.43,0-2.26-1.12-2.26-3.03v-.02c0-1.91,.83-3.04,2.26-3.04s2.25,1.13,2.25,3.04v.02c0,1.91-.81,3.03-2.25,3.03Zm10.58,1.49h2.07v-12.58h-2.07v12.58Zm5.5-10.59c.68,0,1.23-.54,1.23-1.22s-.55-1.22-1.23-1.22-1.23,.55-1.23,1.22,.55,1.22,1.23,1.22Zm-1.03,10.59h2.06v-9.07h-2.06v9.07Zm4.36,0h2.07v-5.29c0-1.36,.76-2.22,1.99-2.22s1.83,.71,1.83,2.12v5.39h2.06v-5.87c0-2.16-1.1-3.38-3.13-3.38-1.31,0-2.18,.59-2.61,1.56h-.14v-1.39h-2.07v9.07Zm14.04,.18c2.46,0,3.68-1.42,3.97-2.59l.02-.07h-1.97l-.02,.06c-.2,.42-.84,.98-1.96,.98-1.4,0-2.28-.95-2.31-2.57h6.35v-.68c0-2.74-1.6-4.55-4.18-4.55s-4.23,1.87-4.23,4.72h0c0,2.9,1.63,4.71,4.33,4.71Zm-.08-7.81c1.16,0,2,.74,2.14,2.22h-4.31c.16-1.44,1.02-2.22,2.17-2.22Zm9.41,7.81c2.23,0,3.85-1.15,3.85-2.88v-.02c0-1.32-.84-2.08-2.61-2.47l-1.47-.32c-.98-.22-1.36-.55-1.36-1.08h0c0-.69,.66-1.14,1.58-1.14,.97,0,1.57,.46,1.72,1.04v.02h1.95v-.02c-.13-1.47-1.45-2.57-3.66-2.57s-3.64,1.13-3.64,2.76h0c0,1.35,.83,2.16,2.55,2.54l1.47,.33c1,.22,1.4,.57,1.4,1.1v.02c0,.68-.72,1.14-1.75,1.14s-1.63-.44-1.85-1.07v-.02h-2.06v.02c.18,1.54,1.57,2.6,3.88,2.6Zm12.05-5.73h1.52l-.1-2.07,1.64,1.08,.76-1.19-1.87-1,1.87-1-.76-1.19-1.64,1.08,.1-2.06h-1.52l.1,2.07-1.66-1.08-.75,1.19,1.87,.99-1.87,1,.75,1.19,1.66-1.09-.1,2.07Z" style="fill:#fff;"/><path d="M1056.67,413.67h13.34m-13.34,5.33h5.34m1.33,10.67l-5.33-5.33h-4c-1.48,0-2.67-1.19-2.67-2.67v-10.67c0-1.47,1.19-2.67,2.67-2.67h18.66c1.48,0,2.67,1.19,2.67,2.67v10.67c0,1.47-1.19,2.67-2.67,2.67h-4l-5.33,5.33Z" style="fill:none; stroke:rgba(240,148,54,.5); stroke-linecap:round; stroke-linejoin:round; stroke-width:2px;"/><path d="M1249.34,398h0c11.6,0,21,9.4,21,21h0c0,11.6-9.4,21-21,21h0c-11.6,0-21-9.4-21-21h0c0-11.6,9.4-21,21-21Z" style="fill:#39393c;"/><path d="M1243.34,425l12-12m-12,0l12,12" style="fill:none; stroke:rgba(240,148,54,.5); stroke-linecap:round; stroke-linejoin:round; stroke-width:2px;"/><path d="M1331.34,398h0c11.6,0,21,9.4,21,21h0c0,11.6-9.4,21-21,21h0c-11.6,0-21-9.4-21-21h0c0-11.6,9.4-21,21-21Z" style="fill:#39393c;"/><path d="M1324.34,420l4,4,10-10" style="fill:none; stroke:rgba(240,148,54,.5); stroke-linecap:round; stroke-linejoin:round; stroke-width:2px;"/><line x1="1039.34" y1="455.5" x2="1360.34" y2="455.5" style="fill:none; stroke:#414141;"/><rect x="1039.34" y="456" width="321" height="120" style="fill:#1c1c1d;"/><path d="M1052.6,487.23c2.5,0,4.21-1.38,4.21-3.37v-.02c0-1.56-1.1-2.55-2.76-2.7v-.04c1.35-.28,2.36-1.21,2.36-2.61v-.02c0-1.77-1.51-2.98-3.83-2.98s-3.81,1.28-3.98,3.23v.09s1.86,0,1.86,0v-.08c.11-1.01,.93-1.64,2.12-1.64s1.9,.61,1.9,1.64v.02c0,.98-.83,1.69-2.07,1.69h-1.29v1.5h1.33c1.44,0,2.32,.66,2.32,1.84v.02c0,1.05-.87,1.77-2.17,1.77s-2.21-.68-2.31-1.63v-.09h-1.93v.09c.15,1.93,1.77,3.27,4.24,3.27Zm7.25-.07c.72,0,1.24-.54,1.24-1.23s-.52-1.23-1.24-1.23-1.24,.54-1.24,1.23,.53,1.23,1.24,1.23Z" style="fill:#fff;"/><path d="M1077.81,488.3c2.77,0,4.75-1.6,5.07-4v-.06h-2.1v.04c-.32,1.32-1.45,2.17-2.97,2.17-2.04,0-3.31-1.7-3.31-4.43v-.02c0-2.72,1.27-4.42,3.31-4.42,1.51,0,2.65,.94,2.96,2.36v.03h2.11v-.07c-.28-2.45-2.35-4.18-5.07-4.18-3.4,0-5.5,2.4-5.5,6.28v.02c0,3.87,2.11,6.28,5.5,6.28Zm7.09-.3h2.06v-5.29c0-1.36,.77-2.22,1.99-2.22s1.83,.71,1.83,2.12v5.39h2.07v-5.87c0-2.16-1.11-3.38-3.13-3.38-1.31,0-2.18,.59-2.62,1.56h-.14v-4.9h-2.06v12.58Zm14.03,.18c2.47,0,3.68-1.42,3.97-2.59l.03-.07h-1.97l-.03,.06c-.2,.42-.83,.98-1.96,.98-1.4,0-2.28-.95-2.3-2.57h6.34v-.68c0-2.74-1.59-4.55-4.18-4.55s-4.23,1.87-4.23,4.72h0c0,2.9,1.64,4.71,4.33,4.71Zm-.07-7.81c1.15,0,1.99,.74,2.13,2.22h-4.31c.16-1.44,1.02-2.22,2.18-2.22Zm9.87,7.81c2.3,0,3.63-1.24,3.93-3.1l.02-.07h-1.95s-.02,.04-.02,.04c-.25,.95-.91,1.44-1.98,1.44-1.4,0-2.24-1.13-2.24-3.06v-.02c0-1.9,.83-3.01,2.24-3.01,1.13,0,1.8,.63,1.99,1.51v.02h1.96v-.03c-.23-1.88-1.63-3.17-3.96-3.17-2.73,0-4.33,1.75-4.33,4.68v.02c0,2.96,1.61,4.73,4.34,4.73Zm5.76-.18h2.07v-3.19l.72-.74,2.91,3.93h2.49l-3.9-5.24,3.65-3.83h-2.39l-3.34,3.72h-.14v-7.23h-2.07v12.58Zm9.62,0h2.07v-12.58h-2.07v12.58Zm5.51-10.59c.67,0,1.22-.54,1.22-1.22s-.55-1.22-1.22-1.22-1.24,.55-1.24,1.22,.56,1.22,1.24,1.22Zm-1.04,10.59h2.07v-9.07h-2.07v9.07Zm7.79,.18c2.24,0,3.85-1.15,3.85-2.88v-.02c0-1.32-.83-2.08-2.61-2.47l-1.47-.32c-.98-.22-1.36-.55-1.36-1.08h0c0-.69,.66-1.14,1.59-1.14s1.56,.46,1.71,1.04v.02h1.95v-.02c-.13-1.47-1.45-2.57-3.66-2.57s-3.63,1.13-3.63,2.76h0c0,1.35,.82,2.16,2.55,2.54l1.47,.33c.99,.22,1.39,.57,1.39,1.1v.02c0,.68-.71,1.14-1.74,1.14s-1.64-.44-1.85-1.07v-.02h-2.06v.02c.17,1.54,1.57,2.6,3.87,2.6Zm9.2-.14c.4,0,.78-.03,1.08-.09v-1.59c-.25,.03-.41,.03-.7,.03-.86,0-1.22-.38-1.22-1.29v-4.57h1.92v-1.6h-1.92v-2.22h-2.1v2.22h-1.41v1.6h1.41v5.06c0,1.75,.86,2.45,2.94,2.45Zm10.76,0c.4,0,.78-.03,1.08-.09v-1.59c-.25,.03-.41,.03-.7,.03-.86,0-1.22-.38-1.22-1.29v-4.57h1.92v-1.6h-1.92v-2.22h-2.1v2.22h-1.41v1.6h1.41v5.06c0,1.75,.86,2.45,2.94,2.45Zm6.7,.14c2.47,0,3.68-1.42,3.97-2.59l.02-.07h-1.96l-.03,.06c-.2,.42-.84,.98-1.96,.98-1.4,0-2.28-.95-2.31-2.57h6.35v-.68c0-2.74-1.6-4.55-4.18-4.55s-4.23,1.87-4.23,4.72h0c0,2.9,1.63,4.71,4.33,4.71Zm-.07-7.81c1.15,0,1.99,.74,2.13,2.22h-4.31c.16-1.44,1.02-2.22,2.18-2.22Zm4.92,7.63h2.22l1.85-3.15h.15l1.85,3.15h2.33l-2.96-4.59,2.93-4.48h-2.27l-1.79,3.15h-.14l-1.81-3.15h-2.39l2.97,4.57-2.94,4.5Zm13.55,.04c.39,0,.78-.03,1.08-.09v-1.59c-.25,.03-.41,.03-.7,.03-.87,0-1.22-.38-1.22-1.29v-4.57h1.92v-1.6h-1.92v-2.22h-2.1v2.22h-1.41v1.6h1.41v5.06c0,1.75,.85,2.45,2.94,2.45Zm10.76,0c.39,0,.78-.03,1.07-.09v-1.59c-.24,.03-.4,.03-.69,.03-.87,0-1.22-.38-1.22-1.29v-4.57h1.91v-1.6h-1.91v-2.22h-2.1v2.22h-1.41v1.6h1.41v5.06c0,1.75,.85,2.45,2.94,2.45Zm2.98-.04h2.06v-5.29c0-1.36,.77-2.22,2-2.22s1.82,.71,1.82,2.12v5.39h2.07v-5.87c0-2.16-1.11-3.38-3.13-3.38-1.31,0-2.18,.59-2.62,1.56h-.14v-4.9h-2.06v12.58Zm12.62,.15c1.2,0,2.16-.51,2.66-1.39h.14v1.24h2.04v-6.2c0-1.92-1.31-3.05-3.64-3.05-2.16,0-3.62,1.01-3.82,2.54v.08s1.94,0,1.94,0v-.03c.22-.6,.83-.94,1.78-.94,1.11,0,1.7,.5,1.7,1.4v.78l-2.33,.14c-2.21,.13-3.45,1.08-3.45,2.7v.02c0,1.65,1.26,2.71,2.98,2.71Zm-.94-2.81v-.02c0-.75,.54-1.17,1.7-1.24l2.04-.13v.73c0,1.08-.92,1.89-2.17,1.89-.91,0-1.57-.46-1.57-1.23Zm11.59,2.71c.4,0,.78-.03,1.08-.09v-1.59c-.25,.03-.4,.03-.7,.03-.86,0-1.22-.38-1.22-1.29v-4.57h1.92v-1.6h-1.92v-2.22h-2.1v2.22h-1.41v1.6h1.41v5.06c0,1.75,.86,2.45,2.94,2.45Zm7.19,2.97h2.07v-4.46h.14c.47,.98,1.51,1.59,2.76,1.59,2.3,0,3.72-1.78,3.72-4.67v-.02c0-2.87-1.45-4.68-3.72-4.68-1.27,0-2.26,.58-2.76,1.57h-.14v-1.42h-2.07v12.09Zm4.32-4.61c-1.4,0-2.28-1.12-2.28-2.94v-.02c0-1.82,.88-2.93,2.28-2.93s2.27,1.11,2.27,2.94v.02c0,1.82-.86,2.93-2.27,2.93Zm10.14,1.78c2.71,0,4.36-1.78,4.36-4.72v-.02c0-2.92-1.66-4.7-4.36-4.7s-4.37,1.79-4.37,4.7v.02c0,2.94,1.64,4.72,4.37,4.72Zm0-1.68c-1.44,0-2.26-1.12-2.26-3.03v-.02c0-1.91,.82-3.04,2.26-3.04s2.24,1.13,2.24,3.04v.02c0,1.91-.81,3.03-2.24,3.03Zm9.77,1.54c.39,0,.78-.03,1.08-.09v-1.59c-.25,.03-.41,.03-.7,.03-.87,0-1.22-.38-1.22-1.29v-4.57h1.92v-1.6h-1.92v-2.22h-2.1v2.22h-1.41v1.6h1.41v5.06c0,1.75,.85,2.45,2.94,2.45Zm6.7,.14c2.46,0,3.67-1.42,3.96-2.59l.03-.07h-1.97l-.02,.06c-.2,.42-.84,.98-1.96,.98-1.41,0-2.29-.95-2.31-2.57h6.34v-.68c0-2.74-1.59-4.55-4.17-4.55s-4.24,1.87-4.24,4.72h0c0,2.9,1.64,4.71,4.34,4.71Zm-.08-7.81c1.15,0,1.99,.74,2.13,2.22h-4.3c.15-1.44,1.02-2.22,2.17-2.22Zm5.98,7.63h2.06v-5.29c0-1.36,.77-2.22,2-2.22s1.82,.71,1.82,2.12v5.39h2.07v-5.87c0-2.16-1.1-3.38-3.13-3.38-1.31,0-2.18,.59-2.61,1.56h-.15v-1.39h-2.06v9.07Zm13.72,.04c.4,0,.78-.03,1.08-.09v-1.59c-.25,.03-.41,.03-.7,.03-.86,0-1.22-.38-1.22-1.29v-4.57h1.92v-1.6h-1.92v-2.22h-2.1v2.22h-1.41v1.6h1.41v5.06c0,1.75,.86,2.45,2.94,2.45Zm3.96-10.63c.67,0,1.23-.54,1.23-1.22s-.56-1.22-1.23-1.22-1.24,.55-1.24,1.22,.56,1.22,1.24,1.22Zm-1.04,10.59h2.07v-9.07h-2.07v9.07Zm6.84,.15c1.2,0,2.16-.51,2.66-1.39h.14v1.24h2.04v-6.2c0-1.92-1.31-3.05-3.64-3.05-2.16,0-3.62,1.01-3.82,2.54v.08s1.94,0,1.94,0v-.03c.22-.6,.83-.94,1.78-.94,1.11,0,1.7,.5,1.7,1.4v.78l-2.33,.14c-2.21,.13-3.45,1.08-3.45,2.7v.02c0,1.65,1.26,2.71,2.98,2.71Zm-.93-2.81v-.02c0-.75,.53-1.17,1.69-1.24l2.04-.13v.73c0,1.08-.92,1.89-2.17,1.89-.91,0-1.56-.46-1.56-1.23Zm8.1,2.67h2.06v-12.58h-2.06v12.58Zm4.52,0h2.07v-12.58h-2.07v12.58Zm5.41,3.19c2.01,0,3.05-.72,3.83-3l3.26-9.26h-2.18l-2.11,7.09h-.16l-2.11-7.09h-2.26l3.25,9.08-.11,.42c-.23,.82-.73,1.17-1.58,1.17-.22,0-.45,0-.61-.02v1.58c.25,.02,.54,.03,.78,.03Zm-226.54,20c2.65,0,4.33-1.32,4.33-3.41v-8.85h-2.07v1.49h-.11c-.51-1.03-1.49-1.64-2.74-1.64-2.35,0-3.77,1.81-3.77,4.43v.02c0,2.57,1.42,4.35,3.72,4.35,1.26,0,2.25-.53,2.77-1.5h.14v1.73c0,1.16-.82,1.82-2.23,1.82-1.16,0-1.85-.41-1.99-.99v-.02h-2.07v.02c.2,1.53,1.63,2.55,4.02,2.55Zm0-5.25c-1.43,0-2.25-1.1-2.25-2.71v-.02c0-1.6,.82-2.71,2.25-2.71s2.3,1.11,2.3,2.71v.02c0,1.6-.86,2.71-2.3,2.71Zm10.54,2.25c2.71,0,4.36-1.78,4.36-4.72v-.02c0-2.92-1.66-4.7-4.36-4.7s-4.37,1.79-4.37,4.7v.02c0,2.94,1.64,4.72,4.37,4.72Zm0-1.68c-1.44,0-2.26-1.12-2.26-3.03v-.02c0-1.91,.82-3.04,2.26-3.04s2.25,1.13,2.25,3.04v.02c0,1.91-.82,3.03-2.25,3.03Zm10.08,1.68c2.47,0,3.68-1.42,3.97-2.59l.03-.07h-1.97l-.03,.06c-.2,.42-.83,.98-1.95,.98-1.41,0-2.29-.95-2.31-2.57h6.34v-.68c0-2.74-1.59-4.55-4.18-4.55s-4.23,1.87-4.23,4.72h0c0,2.9,1.64,4.71,4.33,4.71Zm-.07-7.81c1.15,0,1.99,.74,2.13,2.22h-4.31c.16-1.44,1.03-2.22,2.18-2.22Zm9.4,7.81c2.24,0,3.86-1.15,3.86-2.88v-.02c0-1.32-.84-2.08-2.62-2.47l-1.47-.32c-.98-.22-1.36-.55-1.36-1.08h0c0-.69,.66-1.14,1.59-1.14s1.57,.46,1.71,1.04v.02h1.96v-.02c-.14-1.47-1.46-2.57-3.67-2.57s-3.63,1.13-3.63,2.76h0c0,1.35,.82,2.16,2.55,2.54l1.47,.33c.99,.22,1.39,.57,1.39,1.1v.02c0,.68-.71,1.14-1.74,1.14s-1.64-.44-1.85-1.07v-.02h-2.06v.02c.17,1.54,1.57,2.6,3.87,2.6Zm12.47-.03c1.19,0,2.15-.51,2.65-1.39h.14v1.24h2.04v-6.2c0-1.92-1.31-3.05-3.64-3.05-2.16,0-3.62,1.01-3.82,2.54v.08s1.94,0,1.94,0v-.03c.22-.6,.83-.94,1.78-.94,1.11,0,1.7,.5,1.7,1.4v.78l-2.33,.14c-2.21,.13-3.44,1.08-3.44,2.7v.02c0,1.65,1.25,2.71,2.98,2.71Zm-.94-2.81v-.02c0-.75,.54-1.17,1.69-1.24l2.04-.13v.73c0,1.08-.92,1.89-2.16,1.89-.92,0-1.57-.46-1.57-1.23Zm11.91,2.85c2.3,0,3.64-1.24,3.93-3.1l.02-.07h-1.95s-.02,.04-.02,.04c-.25,.95-.91,1.44-1.98,1.44-1.4,0-2.24-1.13-2.24-3.06v-.02c0-1.9,.83-3.01,2.24-3.01,1.13,0,1.8,.63,1.99,1.51v.02h1.96v-.03c-.23-1.88-1.63-3.17-3.96-3.17-2.73,0-4.33,1.75-4.33,4.68v.02c0,2.96,1.61,4.73,4.34,4.73Zm5.68-.18h2.07v-5.27c0-1.3,.9-2.12,2.28-2.12,.35,0,.7,.05,1.03,.12v-1.85c-.2-.06-.53-.1-.84-.1-1.2,0-2.03,.57-2.33,1.54h-.14v-1.39h-2.07v9.07Zm10.52,.18c2.71,0,4.36-1.78,4.36-4.72v-.02c0-2.92-1.66-4.7-4.36-4.7s-4.37,1.79-4.37,4.7v.02c0,2.94,1.64,4.72,4.37,4.72Zm0-1.68c-1.44,0-2.26-1.12-2.26-3.03v-.02c0-1.91,.82-3.04,2.26-3.04s2.25,1.13,2.25,3.04v.02c0,1.91-.82,3.03-2.25,3.03Zm9.63,1.68c2.23,0,3.85-1.15,3.85-2.88v-.02c0-1.32-.84-2.08-2.62-2.47l-1.47-.32c-.98-.22-1.36-.55-1.36-1.08h0c0-.69,.67-1.14,1.59-1.14,.97,0,1.57,.46,1.72,1.04v.02h1.95v-.02c-.14-1.47-1.46-2.57-3.66-2.57s-3.64,1.13-3.64,2.76h0c0,1.35,.82,2.16,2.55,2.54l1.47,.33c.99,.22,1.39,.57,1.39,1.1v.02c0,.68-.71,1.14-1.74,1.14s-1.64-.44-1.85-1.07v-.02h-2.06v.02c.17,1.54,1.57,2.6,3.88,2.6Zm8.95,0c2.24,0,3.85-1.15,3.85-2.88v-.02c0-1.32-.83-2.08-2.61-2.47l-1.47-.32c-.98-.22-1.36-.55-1.36-1.08h0c0-.69,.66-1.14,1.58-1.14,.98,0,1.57,.46,1.72,1.04v.02h1.95v-.02c-.13-1.47-1.45-2.57-3.66-2.57s-3.63,1.13-3.63,2.76h0c0,1.35,.82,2.16,2.55,2.54l1.46,.33c1,.22,1.4,.57,1.4,1.1v.02c0,.68-.71,1.14-1.74,1.14s-1.64-.44-1.85-1.07v-.02h-2.06v.02c.17,1.54,1.57,2.6,3.87,2.6Zm13.56-.14c.4,0,.78-.03,1.08-.09v-1.59c-.25,.03-.41,.03-.7,.03-.86,0-1.22-.38-1.22-1.29v-4.57h1.92v-1.6h-1.92v-2.22h-2.1v2.22h-1.41v1.6h1.41v5.06c0,1.75,.86,2.45,2.94,2.45Zm4.62-.04h2.15l1.76-6.57h.14l1.76,6.57h2.17l2.46-9.07h-2.05l-1.5,6.82h-.15l-1.76-6.82h-1.96l-1.75,6.82h-.14l-1.51-6.82h-2.07l2.45,9.07Zm15.55,.18c2.72,0,4.37-1.78,4.37-4.72v-.02c0-2.92-1.66-4.7-4.37-4.7s-4.36,1.79-4.36,4.7v.02c0,2.94,1.64,4.72,4.36,4.72Zm0-1.68c-1.43,0-2.26-1.12-2.26-3.03v-.02c0-1.91,.83-3.04,2.26-3.04s2.25,1.13,2.25,3.04v.02c0,1.91-.81,3.03-2.25,3.03Zm10.58,1.49h2.07v-12.58h-2.07v12.58Zm5.5-10.59c.68,0,1.23-.54,1.23-1.22s-.55-1.22-1.23-1.22-1.23,.55-1.23,1.22,.55,1.22,1.23,1.22Zm-1.03,10.59h2.06v-9.07h-2.06v9.07Zm4.36,0h2.07v-5.29c0-1.36,.76-2.22,1.99-2.22s1.83,.71,1.83,2.12v5.39h2.06v-5.87c0-2.16-1.1-3.38-3.13-3.38-1.31,0-2.18,.59-2.61,1.56h-.14v-1.39h-2.07v9.07Zm14.04,.18c2.46,0,3.68-1.42,3.97-2.59l.02-.07h-1.97l-.02,.06c-.2,.42-.84,.98-1.96,.98-1.4,0-2.28-.95-2.31-2.57h6.35v-.68c0-2.74-1.6-4.55-4.18-4.55s-4.23,1.87-4.23,4.72h0c0,2.9,1.63,4.71,4.33,4.71Zm-.08-7.81c1.16,0,2,.74,2.14,2.22h-4.31c.16-1.44,1.02-2.22,2.17-2.22Zm9.41,7.81c2.23,0,3.85-1.15,3.85-2.88v-.02c0-1.32-.84-2.08-2.61-2.47l-1.47-.32c-.98-.22-1.36-.55-1.36-1.08h0c0-.69,.66-1.14,1.58-1.14,.97,0,1.57,.46,1.72,1.04v.02h1.95v-.02c-.13-1.47-1.45-2.57-3.66-2.57s-3.64,1.13-3.64,2.76h0c0,1.35,.83,2.16,2.55,2.54l1.47,.33c1,.22,1.4,.57,1.4,1.1v.02c0,.68-.72,1.14-1.75,1.14s-1.63-.44-1.85-1.07v-.02h-2.06v.02c.18,1.54,1.57,2.6,3.88,2.6Zm12.05-5.73h1.52l-.1-2.07,1.64,1.08,.76-1.19-1.87-1,1.87-1-.76-1.19-1.64,1.08,.1-2.06h-1.52l.1,2.07-1.66-1.08-.75,1.19,1.87,.99-1.87,1,.75,1.19,1.66-1.09-.1,2.07Z" style="fill:#fff;"/><path d="M1056.67,534.67h13.34m-13.34,5.33h5.34m1.33,10.67l-5.33-5.33h-4c-1.48,0-2.67-1.19-2.67-2.67v-10.67c0-1.47,1.19-2.67,2.67-2.67h18.66c1.48,0,2.67,1.19,2.67,2.67v10.67c0,1.47-1.19,2.67-2.67,2.67h-4l-5.33,5.33Z" style="fill:none; stroke:rgba(240,148,54,.5); stroke-linecap:round; stroke-linejoin:round; stroke-width:2px;"/><path d="M1223.34,540h-16" style="fill:none; stroke:#f09436; stroke-linecap:round; stroke-linejoin:round; stroke-width:2px;"/><path d="M1215.34,521h0c10.49,0,19,8.51,19,19h0c0,10.49-8.51,19-19,19h0c-10.49,0-19-8.51-19-19h0c0-10.49,8.51-19,19-19Z" style="fill:none; stroke:#f09436; stroke-width:2px;"/><path d="M1273.84,544.75c2.44,0,3.92-2,3.92-5.18h0c0-3.21-1.48-5.19-3.92-5.19s-3.92,1.98-3.92,5.17h0c0,3.2,1.49,5.2,3.92,5.2Zm0-1.63c-1.16,0-1.83-1.32-1.83-3.55h0c0-2.25,.67-3.55,1.83-3.55s1.83,1.3,1.83,3.54h0c0,2.24-.66,3.56-1.83,3.56Z" style="fill:#fff;"/><path d="M1332.34,529.33v21.33m10.67-10.67h-21.34" style="fill:none; stroke:#f09436; stroke-linecap:round; stroke-linejoin:round; stroke-width:2px;"/><path d="M1332.34,521h0c10.49,0,19,8.51,19,19h0c0,10.49-8.51,19-19,19h0c-10.49,0-19-8.51-19-19h0c0-10.49,8.51-19,19-19Z" style="fill:none; stroke:#f09436; stroke-width:2px;"/><line x1="1039.34" y1="575.5" x2="1360.34" y2="575.5" style="fill:none; stroke:#414141;"/><rect x="1039.34" y="576" width="321" height="122" style="fill:#1c1c1d;"/><path d="M1053.72,607h1.93v-2.16h1.52v-1.66h-1.52v-7.45h-2.85c-1.53,2.33-3.13,4.92-4.59,7.46v1.65h5.51v2.16Zm-3.64-3.78v-.12c1.1-1.91,2.4-4,3.56-5.77h.11v5.88h-3.67Zm10.27,3.94c.72,0,1.24-.54,1.24-1.23s-.52-1.23-1.24-1.23-1.24,.54-1.24,1.23,.53,1.23,1.24,1.23Z" style="fill:#fff;"/><path d="M1077.81,608.3c2.77,0,4.75-1.6,5.07-4v-.06h-2.1v.04c-.32,1.32-1.45,2.17-2.97,2.17-2.04,0-3.31-1.7-3.31-4.43v-.02c0-2.72,1.27-4.43,3.31-4.43,1.51,0,2.65,.94,2.96,2.36v.03h2.11v-.07c-.28-2.45-2.35-4.17-5.07-4.17-3.4,0-5.5,2.4-5.5,6.28v.02c0,3.87,2.11,6.28,5.5,6.28Zm7.09-.3h2.06v-5.29c0-1.36,.77-2.22,1.99-2.22s1.83,.71,1.83,2.12v5.39h2.07v-5.87c0-2.16-1.11-3.38-3.13-3.38-1.31,0-2.18,.59-2.62,1.56h-.14v-4.9h-2.06v12.58Zm14.03,.18c2.47,0,3.68-1.42,3.97-2.59l.03-.08h-1.97l-.03,.06c-.2,.42-.83,.98-1.96,.98-1.4,0-2.28-.95-2.3-2.57h6.34v-.68c0-2.74-1.59-4.55-4.18-4.55s-4.23,1.87-4.23,4.72h0c0,2.9,1.64,4.71,4.33,4.71Zm-.07-7.81c1.15,0,1.99,.74,2.13,2.22h-4.31c.16-1.44,1.02-2.22,2.18-2.22Zm9.87,7.81c2.3,0,3.63-1.24,3.93-3.1l.02-.07h-1.95s-.02,.04-.02,.04c-.25,.95-.91,1.44-1.98,1.44-1.4,0-2.24-1.13-2.24-3.05v-.02c0-1.9,.83-3.01,2.24-3.01,1.13,0,1.8,.63,1.99,1.51v.02h1.96v-.03c-.23-1.88-1.63-3.17-3.96-3.17-2.73,0-4.33,1.75-4.33,4.68v.02c0,2.96,1.61,4.73,4.34,4.73Zm5.76-.18h2.07v-3.19l.72-.74,2.91,3.93h2.49l-3.9-5.24,3.65-3.84h-2.39l-3.34,3.72h-.14v-7.23h-2.07v12.58Zm9.62,0h2.07v-12.58h-2.07v12.58Zm5.51-10.59c.67,0,1.22-.54,1.22-1.22s-.55-1.22-1.22-1.22-1.24,.55-1.24,1.22,.56,1.22,1.24,1.22Zm-1.04,10.59h2.07v-9.07h-2.07v9.07Zm7.79,.18c2.24,0,3.85-1.15,3.85-2.88v-.02c0-1.32-.83-2.08-2.61-2.47l-1.47-.32c-.98-.22-1.36-.55-1.36-1.08h0c0-.69,.66-1.14,1.59-1.14s1.56,.47,1.71,1.04v.02h1.95v-.02c-.13-1.47-1.45-2.57-3.66-2.57s-3.63,1.13-3.63,2.76h0c0,1.34,.82,2.16,2.55,2.54l1.47,.33c.99,.22,1.39,.57,1.39,1.1v.02c0,.68-.71,1.15-1.74,1.15s-1.64-.44-1.85-1.07v-.02h-2.06v.02c.17,1.54,1.57,2.6,3.87,2.6Zm9.2-.14c.4,0,.78-.03,1.08-.09v-1.59c-.25,.02-.41,.03-.7,.03-.86,0-1.22-.38-1.22-1.29v-4.57h1.92v-1.6h-1.92v-2.22h-2.1v2.22h-1.41v1.6h1.41v5.06c0,1.75,.86,2.45,2.94,2.45Zm10.76,0c.4,0,.78-.03,1.08-.09v-1.59c-.25,.02-.41,.03-.7,.03-.86,0-1.22-.38-1.22-1.29v-4.57h1.92v-1.6h-1.92v-2.22h-2.1v2.22h-1.41v1.6h1.41v5.06c0,1.75,.86,2.45,2.94,2.45Zm6.7,.14c2.47,0,3.68-1.42,3.97-2.59l.02-.08h-1.96l-.03,.06c-.2,.42-.84,.98-1.96,.98-1.4,0-2.28-.95-2.31-2.57h6.35v-.68c0-2.74-1.6-4.55-4.18-4.55s-4.23,1.87-4.23,4.72h0c0,2.9,1.63,4.71,4.33,4.71Zm-.07-7.81c1.15,0,1.99,.74,2.13,2.22h-4.31c.16-1.44,1.02-2.22,2.18-2.22Zm4.92,7.63h2.22l1.85-3.15h.15l1.85,3.15h2.33l-2.96-4.59,2.93-4.48h-2.27l-1.79,3.15h-.14l-1.81-3.15h-2.39l2.97,4.57-2.94,4.5Zm13.55,.04c.39,0,.78-.03,1.08-.09v-1.59c-.25,.02-.41,.03-.7,.03-.87,0-1.22-.38-1.22-1.29v-4.57h1.92v-1.6h-1.92v-2.22h-2.1v2.22h-1.41v1.6h1.41v5.06c0,1.75,.85,2.45,2.94,2.45Zm10.76,0c.39,0,.78-.03,1.07-.09v-1.59c-.24,.02-.4,.03-.69,.03-.87,0-1.22-.38-1.22-1.29v-4.57h1.91v-1.6h-1.91v-2.22h-2.1v2.22h-1.41v1.6h1.41v5.06c0,1.75,.85,2.45,2.94,2.45Zm2.98-.04h2.06v-5.29c0-1.36,.77-2.22,2-2.22s1.82,.71,1.82,2.12v5.39h2.07v-5.87c0-2.16-1.11-3.38-3.13-3.38-1.31,0-2.18,.59-2.62,1.56h-.14v-4.9h-2.06v12.58Zm12.62,.15c1.2,0,2.16-.51,2.66-1.39h.14v1.24h2.04v-6.2c0-1.92-1.31-3.05-3.64-3.05-2.16,0-3.62,1.01-3.82,2.54v.07s1.94,0,1.94,0v-.03c.22-.6,.83-.94,1.78-.94,1.11,0,1.7,.5,1.7,1.4v.78l-2.33,.14c-2.21,.13-3.45,1.08-3.45,2.7v.02c0,1.65,1.26,2.71,2.98,2.71Zm-.94-2.81v-.02c0-.75,.54-1.17,1.7-1.24l2.04-.13v.73c0,1.08-.92,1.89-2.17,1.89-.91,0-1.57-.46-1.57-1.23Zm11.59,2.71c.4,0,.78-.03,1.08-.09v-1.59c-.25,.02-.4,.03-.7,.03-.86,0-1.22-.38-1.22-1.29v-4.57h1.92v-1.6h-1.92v-2.22h-2.1v2.22h-1.41v1.6h1.41v5.06c0,1.75,.86,2.45,2.94,2.45Zm7.19,2.97h2.07v-4.46h.14c.47,.98,1.51,1.59,2.76,1.59,2.3,0,3.72-1.78,3.72-4.67v-.02c0-2.87-1.45-4.68-3.72-4.68-1.27,0-2.26,.58-2.76,1.57h-.14v-1.42h-2.07v12.09Zm4.32-4.61c-1.4,0-2.28-1.12-2.28-2.94v-.02c0-1.82,.88-2.93,2.28-2.93s2.27,1.11,2.27,2.94v.02c0,1.82-.86,2.93-2.27,2.93Zm10.14,1.78c2.71,0,4.36-1.78,4.36-4.71v-.02c0-2.92-1.66-4.7-4.36-4.7s-4.37,1.79-4.37,4.7v.02c0,2.94,1.64,4.71,4.37,4.71Zm0-1.68c-1.44,0-2.26-1.12-2.26-3.03v-.02c0-1.91,.82-3.04,2.26-3.04s2.24,1.13,2.24,3.04v.02c0,1.91-.81,3.03-2.24,3.03Zm9.77,1.54c.39,0,.78-.03,1.08-.09v-1.59c-.25,.02-.41,.03-.7,.03-.87,0-1.22-.38-1.22-1.29v-4.57h1.92v-1.6h-1.92v-2.22h-2.1v2.22h-1.41v1.6h1.41v5.06c0,1.75,.85,2.45,2.94,2.45Zm6.7,.14c2.46,0,3.67-1.42,3.96-2.59l.03-.08h-1.97l-.02,.06c-.2,.42-.84,.98-1.96,.98-1.41,0-2.29-.95-2.31-2.57h6.34v-.68c0-2.74-1.59-4.55-4.17-4.55s-4.24,1.87-4.24,4.72h0c0,2.9,1.64,4.71,4.34,4.71Zm-.08-7.81c1.15,0,1.99,.74,2.13,2.22h-4.3c.15-1.44,1.02-2.22,2.17-2.22Zm5.98,7.63h2.06v-5.29c0-1.36,.77-2.22,2-2.22s1.82,.71,1.82,2.12v5.39h2.07v-5.87c0-2.16-1.1-3.38-3.13-3.38-1.31,0-2.18,.59-2.61,1.56h-.15v-1.39h-2.06v9.07Zm13.72,.04c.4,0,.78-.03,1.08-.09v-1.59c-.25,.02-.41,.03-.7,.03-.86,0-1.22-.38-1.22-1.29v-4.57h1.92v-1.6h-1.92v-2.22h-2.1v2.22h-1.41v1.6h1.41v5.06c0,1.75,.86,2.45,2.94,2.45Zm3.96-10.63c.67,0,1.23-.54,1.23-1.22s-.56-1.22-1.23-1.22-1.24,.55-1.24,1.22,.56,1.22,1.24,1.22Zm-1.04,10.59h2.07v-9.07h-2.07v9.07Zm6.84,.15c1.2,0,2.16-.51,2.66-1.39h.14v1.24h2.04v-6.2c0-1.92-1.31-3.05-3.64-3.05-2.16,0-3.62,1.01-3.82,2.54v.07s1.94,0,1.94,0v-.03c.22-.6,.83-.94,1.78-.94,1.11,0,1.7,.5,1.7,1.4v.78l-2.33,.14c-2.21,.13-3.45,1.08-3.45,2.7v.02c0,1.65,1.26,2.71,2.98,2.71Zm-.93-2.81v-.02c0-.75,.53-1.17,1.69-1.24l2.04-.13v.73c0,1.08-.92,1.89-2.17,1.89-.91,0-1.56-.46-1.56-1.23Zm8.1,2.66h2.06v-12.58h-2.06v12.58Zm4.52,0h2.07v-12.58h-2.07v12.58Zm5.41,3.19c2.01,0,3.05-.72,3.83-3l3.26-9.26h-2.18l-2.11,7.09h-.16l-2.11-7.09h-2.26l3.25,9.08-.11,.41c-.23,.82-.73,1.17-1.58,1.17-.22,0-.45,0-.61-.03v1.59c.25,.03,.54,.03,.78,.03Zm-226.54,20c2.65,0,4.33-1.32,4.33-3.41v-8.85h-2.07v1.49h-.11c-.51-1.03-1.49-1.64-2.74-1.64-2.35,0-3.77,1.81-3.77,4.43v.02c0,2.57,1.42,4.35,3.72,4.35,1.26,0,2.25-.53,2.77-1.5h.14v1.74c0,1.16-.82,1.82-2.23,1.82-1.16,0-1.85-.41-1.99-.99v-.02h-2.07v.02c.2,1.53,1.63,2.55,4.02,2.55Zm0-5.26c-1.43,0-2.25-1.1-2.25-2.71v-.02c0-1.6,.82-2.71,2.25-2.71s2.3,1.11,2.3,2.71v.02c0,1.6-.86,2.71-2.3,2.71Zm10.54,2.25c2.71,0,4.36-1.78,4.36-4.71v-.02c0-2.92-1.66-4.7-4.36-4.7s-4.37,1.79-4.37,4.7v.02c0,2.94,1.64,4.71,4.37,4.71Zm0-1.68c-1.44,0-2.26-1.12-2.26-3.03v-.02c0-1.91,.82-3.04,2.26-3.04s2.25,1.13,2.25,3.04v.02c0,1.91-.82,3.03-2.25,3.03Zm10.08,1.68c2.47,0,3.68-1.42,3.97-2.59l.03-.08h-1.97l-.03,.06c-.2,.42-.83,.98-1.95,.98-1.41,0-2.29-.95-2.31-2.57h6.34v-.68c0-2.74-1.59-4.55-4.18-4.55s-4.23,1.87-4.23,4.72h0c0,2.9,1.64,4.71,4.33,4.71Zm-.07-7.81c1.15,0,1.99,.74,2.13,2.22h-4.31c.16-1.44,1.03-2.22,2.18-2.22Zm9.4,7.81c2.24,0,3.86-1.15,3.86-2.88v-.02c0-1.32-.84-2.08-2.62-2.47l-1.47-.32c-.98-.22-1.36-.55-1.36-1.08h0c0-.69,.66-1.14,1.59-1.14s1.57,.47,1.71,1.04v.02h1.96v-.02c-.14-1.47-1.46-2.57-3.67-2.57s-3.63,1.13-3.63,2.76h0c0,1.34,.82,2.16,2.55,2.54l1.47,.33c.99,.22,1.39,.57,1.39,1.1v.02c0,.68-.71,1.15-1.74,1.15s-1.64-.44-1.85-1.07v-.02h-2.06v.02c.17,1.54,1.57,2.6,3.87,2.6Zm12.47-.03c1.19,0,2.15-.51,2.65-1.39h.14v1.24h2.04v-6.2c0-1.92-1.31-3.05-3.64-3.05-2.16,0-3.62,1.01-3.82,2.54v.07s1.94,0,1.94,0v-.03c.22-.6,.83-.94,1.78-.94,1.11,0,1.7,.5,1.7,1.4v.78l-2.33,.14c-2.21,.13-3.44,1.08-3.44,2.7v.02c0,1.65,1.25,2.71,2.98,2.71Zm-.94-2.81v-.02c0-.75,.54-1.17,1.69-1.24l2.04-.13v.73c0,1.08-.92,1.89-2.16,1.89-.92,0-1.57-.46-1.57-1.23Zm11.91,2.85c2.3,0,3.64-1.24,3.93-3.1l.02-.07h-1.95s-.02,.04-.02,.04c-.25,.95-.91,1.44-1.98,1.44-1.4,0-2.24-1.13-2.24-3.05v-.02c0-1.9,.83-3.01,2.24-3.01,1.13,0,1.8,.63,1.99,1.51v.02h1.96v-.03c-.23-1.88-1.63-3.17-3.96-3.17-2.73,0-4.33,1.75-4.33,4.68v.02c0,2.96,1.61,4.73,4.34,4.73Zm5.68-.18h2.07v-5.27c0-1.29,.9-2.12,2.28-2.12,.35,0,.7,.05,1.03,.12v-1.85c-.2-.06-.53-.1-.84-.1-1.2,0-2.03,.57-2.33,1.54h-.14v-1.4h-2.07v9.07Zm10.52,.18c2.71,0,4.36-1.78,4.36-4.71v-.02c0-2.92-1.66-4.7-4.36-4.7s-4.37,1.79-4.37,4.7v.02c0,2.94,1.64,4.71,4.37,4.71Zm0-1.68c-1.44,0-2.26-1.12-2.26-3.03v-.02c0-1.91,.82-3.04,2.26-3.04s2.25,1.13,2.25,3.04v.02c0,1.91-.82,3.03-2.25,3.03Zm9.63,1.68c2.23,0,3.85-1.15,3.85-2.88v-.02c0-1.32-.84-2.08-2.62-2.47l-1.47-.32c-.98-.22-1.36-.55-1.36-1.08h0c0-.69,.67-1.14,1.59-1.14,.97,0,1.57,.47,1.72,1.04v.02h1.95v-.02c-.14-1.47-1.46-2.57-3.66-2.57s-3.64,1.13-3.64,2.76h0c0,1.34,.82,2.16,2.55,2.54l1.47,.33c.99,.22,1.39,.57,1.39,1.1v.02c0,.68-.71,1.15-1.74,1.15s-1.64-.44-1.85-1.07v-.02h-2.06v.02c.17,1.54,1.57,2.6,3.88,2.6Zm8.95,0c2.24,0,3.85-1.15,3.85-2.88v-.02c0-1.32-.83-2.08-2.61-2.47l-1.47-.32c-.98-.22-1.36-.55-1.36-1.08h0c0-.69,.66-1.14,1.58-1.14,.98,0,1.57,.47,1.72,1.04v.02h1.95v-.02c-.13-1.47-1.45-2.57-3.66-2.57s-3.63,1.13-3.63,2.76h0c0,1.34,.82,2.16,2.55,2.54l1.46,.33c1,.22,1.4,.57,1.4,1.1v.02c0,.68-.71,1.15-1.74,1.15s-1.64-.44-1.85-1.07v-.02h-2.06v.02c.17,1.54,1.57,2.6,3.87,2.6Zm13.56-.14c.4,0,.78-.03,1.08-.09v-1.59c-.25,.02-.41,.03-.7,.03-.86,0-1.22-.38-1.22-1.29v-4.57h1.92v-1.6h-1.92v-2.22h-2.1v2.22h-1.41v1.6h1.41v5.06c0,1.75,.86,2.45,2.94,2.45Zm4.62-.04h2.15l1.76-6.57h.14l1.76,6.57h2.17l2.46-9.07h-2.05l-1.5,6.82h-.15l-1.76-6.82h-1.96l-1.75,6.82h-.14l-1.51-6.82h-2.07l2.45,9.07Zm15.55,.18c2.72,0,4.37-1.78,4.37-4.71v-.02c0-2.92-1.66-4.7-4.37-4.7s-4.36,1.79-4.36,4.7v.02c0,2.94,1.64,4.71,4.36,4.71Zm0-1.68c-1.43,0-2.26-1.12-2.26-3.03v-.02c0-1.91,.83-3.04,2.26-3.04s2.25,1.13,2.25,3.04v.02c0,1.91-.81,3.03-2.25,3.03Zm10.58,1.49h2.07v-12.58h-2.07v12.58Zm5.5-10.59c.68,0,1.23-.54,1.23-1.22s-.55-1.22-1.23-1.22-1.23,.55-1.23,1.22,.55,1.22,1.23,1.22Zm-1.03,10.59h2.06v-9.07h-2.06v9.07Zm4.36,0h2.07v-5.29c0-1.36,.76-2.22,1.99-2.22s1.83,.71,1.83,2.12v5.39h2.06v-5.87c0-2.16-1.1-3.38-3.13-3.38-1.31,0-2.18,.59-2.61,1.56h-.14v-1.39h-2.07v9.07Zm14.04,.18c2.46,0,3.68-1.42,3.97-2.59l.02-.08h-1.97l-.02,.06c-.2,.42-.84,.98-1.96,.98-1.4,0-2.28-.95-2.31-2.57h6.35v-.68c0-2.74-1.6-4.55-4.18-4.55s-4.23,1.87-4.23,4.72h0c0,2.9,1.63,4.71,4.33,4.71Zm-.08-7.81c1.16,0,2,.74,2.14,2.22h-4.31c.16-1.44,1.02-2.22,2.17-2.22Zm9.41,7.81c2.23,0,3.85-1.15,3.85-2.88v-.02c0-1.32-.84-2.08-2.61-2.47l-1.47-.32c-.98-.22-1.36-.55-1.36-1.08h0c0-.69,.66-1.14,1.58-1.14,.97,0,1.57,.47,1.72,1.04v.02h1.95v-.02c-.13-1.47-1.45-2.57-3.66-2.57s-3.64,1.13-3.64,2.76h0c0,1.34,.83,2.16,2.55,2.54l1.47,.33c1,.22,1.4,.57,1.4,1.1v.02c0,.68-.72,1.15-1.75,1.15s-1.63-.44-1.85-1.07v-.02h-2.06v.02c.18,1.54,1.57,2.6,3.88,2.6Zm12.05-5.73h1.52l-.1-2.07,1.64,1.08,.76-1.19-1.87-1,1.87-1-.76-1.19-1.64,1.08,.1-2.06h-1.52l.1,2.07-1.66-1.08-.75,1.19,1.87,.99-1.87,1,.75,1.19,1.66-1.09-.1,2.08Z" style="fill:#fff;"/><path d="M1056.67,655.67h13.34m-13.34,5.33h5.34m1.33,10.67l-5.33-5.33h-4c-1.48,0-2.67-1.19-2.67-2.67v-10.67c0-1.47,1.19-2.67,2.67-2.67h18.66c1.48,0,2.67,1.19,2.67,2.67v10.67c0,1.47-1.19,2.67-2.67,2.67h-4l-5.33,5.33Z" style="fill:none; stroke:rgba(240,148,54,.5); stroke-linecap:round; stroke-linejoin:round; stroke-width:2px;"/><path d="M1331.34,640h0c11.6,0,21,9.4,21,21h0c0,11.6-9.4,21-21,21h0c-11.6,0-21-9.4-21-21h0c0-11.6,9.4-21,21-21Z" style="fill:#39393c;"/><path d="M1324.34,662l4,4,10-10" style="fill:none; stroke:rgba(240,148,54,.5); stroke-linecap:round; stroke-linejoin:round; stroke-width:2px;"/><line x1="1039.34" y1="697.5" x2="1360.34" y2="697.5" style="fill:none; stroke:#414141;"/><rect x="1039.34" y="698" width="321" height="122" style="fill:#1c1c1d;"/><path d="M1052.59,729.28c2.44,0,4.15-1.6,4.15-3.95v-.02c0-2.16-1.52-3.72-3.63-3.72-1.06,0-1.93,.45-2.4,1.21h-.14l.32-3.43h5.19v-1.66h-6.76l-.55,6.6h1.73c.13-.25,.32-.47,.52-.64,.41-.38,.96-.56,1.59-.56,1.29,0,2.21,.92,2.21,2.23v.02c0,1.33-.9,2.26-2.22,2.26-1.16,0-2.01-.73-2.16-1.66v-.05h-1.87v.1c.16,1.85,1.72,3.26,4.02,3.26Zm7.15-.12c.72,0,1.24-.54,1.24-1.23s-.52-1.23-1.24-1.23-1.24,.54-1.24,1.23,.53,1.23,1.24,1.23Z" style="fill:#fff;"/><path d="M1077.81,730.3c2.77,0,4.75-1.6,5.07-4v-.06h-2.1v.04c-.32,1.32-1.45,2.17-2.97,2.17-2.04,0-3.31-1.7-3.31-4.43v-.02c0-2.72,1.27-4.43,3.31-4.43,1.51,0,2.65,.94,2.96,2.36v.03h2.11v-.07c-.28-2.45-2.35-4.17-5.07-4.17-3.4,0-5.5,2.4-5.5,6.28v.02c0,3.87,2.11,6.28,5.5,6.28Zm7.09-.3h2.06v-5.29c0-1.36,.77-2.22,1.99-2.22s1.83,.71,1.83,2.12v5.39h2.07v-5.87c0-2.16-1.11-3.38-3.13-3.38-1.31,0-2.18,.59-2.62,1.56h-.14v-4.9h-2.06v12.58Zm14.03,.18c2.47,0,3.68-1.42,3.97-2.59l.03-.08h-1.97l-.03,.06c-.2,.42-.83,.98-1.96,.98-1.4,0-2.28-.95-2.3-2.57h6.34v-.68c0-2.74-1.59-4.55-4.18-4.55s-4.23,1.87-4.23,4.72h0c0,2.9,1.64,4.71,4.33,4.71Zm-.07-7.81c1.15,0,1.99,.74,2.13,2.22h-4.31c.16-1.44,1.02-2.22,2.18-2.22Zm9.87,7.81c2.3,0,3.63-1.24,3.93-3.1l.02-.07h-1.95s-.02,.04-.02,.04c-.25,.95-.91,1.44-1.98,1.44-1.4,0-2.24-1.13-2.24-3.05v-.02c0-1.9,.83-3.01,2.24-3.01,1.13,0,1.8,.63,1.99,1.51v.02h1.96v-.03c-.23-1.88-1.63-3.17-3.96-3.17-2.73,0-4.33,1.75-4.33,4.68v.02c0,2.96,1.61,4.73,4.34,4.73Zm5.76-.18h2.07v-3.19l.72-.74,2.91,3.93h2.49l-3.9-5.24,3.65-3.84h-2.39l-3.34,3.72h-.14v-7.23h-2.07v12.58Zm9.62,0h2.07v-12.58h-2.07v12.58Zm5.51-10.59c.67,0,1.22-.54,1.22-1.22s-.55-1.22-1.22-1.22-1.24,.55-1.24,1.22,.56,1.22,1.24,1.22Zm-1.04,10.59h2.07v-9.07h-2.07v9.07Zm7.79,.18c2.24,0,3.85-1.15,3.85-2.88v-.02c0-1.32-.83-2.08-2.61-2.47l-1.47-.32c-.98-.22-1.36-.55-1.36-1.08h0c0-.69,.66-1.14,1.59-1.14s1.56,.47,1.71,1.04v.02h1.95v-.02c-.13-1.47-1.45-2.57-3.66-2.57s-3.63,1.13-3.63,2.76h0c0,1.34,.82,2.16,2.55,2.54l1.47,.33c.99,.22,1.39,.57,1.39,1.1v.02c0,.68-.71,1.15-1.74,1.15s-1.64-.44-1.85-1.07v-.02h-2.06v.02c.17,1.54,1.57,2.6,3.87,2.6Zm9.2-.14c.4,0,.78-.03,1.08-.09v-1.59c-.25,.02-.41,.03-.7,.03-.86,0-1.22-.38-1.22-1.29v-4.57h1.92v-1.6h-1.92v-2.22h-2.1v2.22h-1.41v1.6h1.41v5.06c0,1.75,.86,2.45,2.94,2.45Zm10.76,0c.4,0,.78-.03,1.08-.09v-1.59c-.25,.02-.41,.03-.7,.03-.86,0-1.22-.38-1.22-1.29v-4.57h1.92v-1.6h-1.92v-2.22h-2.1v2.22h-1.41v1.6h1.41v5.06c0,1.75,.86,2.45,2.94,2.45Zm6.7,.14c2.47,0,3.68-1.42,3.97-2.59l.02-.08h-1.96l-.03,.06c-.2,.42-.84,.98-1.96,.98-1.4,0-2.28-.95-2.31-2.57h6.35v-.68c0-2.74-1.6-4.55-4.18-4.55s-4.23,1.87-4.23,4.72h0c0,2.9,1.63,4.71,4.33,4.71Zm-.07-7.81c1.15,0,1.99,.74,2.13,2.22h-4.31c.16-1.44,1.02-2.22,2.18-2.22Zm4.92,7.63h2.22l1.85-3.15h.15l1.85,3.15h2.33l-2.96-4.59,2.93-4.48h-2.27l-1.79,3.15h-.14l-1.81-3.15h-2.39l2.97,4.57-2.94,4.5Zm13.55,.04c.39,0,.78-.03,1.08-.09v-1.59c-.25,.02-.41,.03-.7,.03-.87,0-1.22-.38-1.22-1.29v-4.57h1.92v-1.6h-1.92v-2.22h-2.1v2.22h-1.41v1.6h1.41v5.06c0,1.75,.85,2.45,2.94,2.45Zm10.76,0c.39,0,.78-.03,1.07-.09v-1.59c-.24,.02-.4,.03-.69,.03-.87,0-1.22-.38-1.22-1.29v-4.57h1.91v-1.6h-1.91v-2.22h-2.1v2.22h-1.41v1.6h1.41v5.06c0,1.75,.85,2.45,2.94,2.45Zm2.98-.04h2.06v-5.29c0-1.36,.77-2.22,2-2.22s1.82,.71,1.82,2.12v5.39h2.07v-5.87c0-2.16-1.11-3.38-3.13-3.38-1.31,0-2.18,.59-2.62,1.56h-.14v-4.9h-2.06v12.58Zm12.62,.15c1.2,0,2.16-.51,2.66-1.39h.14v1.24h2.04v-6.2c0-1.92-1.31-3.05-3.64-3.05-2.16,0-3.62,1.01-3.82,2.54v.07s1.94,0,1.94,0v-.03c.22-.6,.83-.94,1.78-.94,1.11,0,1.7,.5,1.7,1.4v.78l-2.33,.14c-2.21,.13-3.45,1.08-3.45,2.7v.02c0,1.65,1.26,2.71,2.98,2.71Zm-.94-2.81v-.02c0-.75,.54-1.17,1.7-1.24l2.04-.13v.73c0,1.08-.92,1.89-2.17,1.89-.91,0-1.57-.46-1.57-1.23Zm11.59,2.71c.4,0,.78-.03,1.08-.09v-1.59c-.25,.02-.4,.03-.7,.03-.86,0-1.22-.38-1.22-1.29v-4.57h1.92v-1.6h-1.92v-2.22h-2.1v2.22h-1.41v1.6h1.41v5.06c0,1.75,.86,2.45,2.94,2.45Zm7.19,2.97h2.07v-4.46h.14c.47,.98,1.51,1.59,2.76,1.59,2.3,0,3.72-1.78,3.72-4.67v-.02c0-2.87-1.45-4.68-3.72-4.68-1.27,0-2.26,.58-2.76,1.57h-.14v-1.42h-2.07v12.09Zm4.32-4.61c-1.4,0-2.28-1.12-2.28-2.94v-.02c0-1.82,.88-2.93,2.28-2.93s2.27,1.11,2.27,2.94v.02c0,1.82-.86,2.93-2.27,2.93Zm10.14,1.78c2.71,0,4.36-1.78,4.36-4.71v-.02c0-2.92-1.66-4.7-4.36-4.7s-4.37,1.79-4.37,4.7v.02c0,2.94,1.64,4.71,4.37,4.71Zm0-1.68c-1.44,0-2.26-1.12-2.26-3.03v-.02c0-1.91,.82-3.04,2.26-3.04s2.24,1.13,2.24,3.04v.02c0,1.91-.81,3.03-2.24,3.03Zm9.77,1.54c.39,0,.78-.03,1.08-.09v-1.59c-.25,.02-.41,.03-.7,.03-.87,0-1.22-.38-1.22-1.29v-4.57h1.92v-1.6h-1.92v-2.22h-2.1v2.22h-1.41v1.6h1.41v5.06c0,1.75,.85,2.45,2.94,2.45Zm6.7,.14c2.46,0,3.67-1.42,3.96-2.59l.03-.08h-1.97l-.02,.06c-.2,.42-.84,.98-1.96,.98-1.41,0-2.29-.95-2.31-2.57h6.34v-.68c0-2.74-1.59-4.55-4.17-4.55s-4.24,1.87-4.24,4.72h0c0,2.9,1.64,4.71,4.34,4.71Zm-.08-7.81c1.15,0,1.99,.74,2.13,2.22h-4.3c.15-1.44,1.02-2.22,2.17-2.22Zm5.98,7.63h2.06v-5.29c0-1.36,.77-2.22,2-2.22s1.82,.71,1.82,2.12v5.39h2.07v-5.87c0-2.16-1.1-3.38-3.13-3.38-1.31,0-2.18,.59-2.61,1.56h-.15v-1.39h-2.06v9.07Zm13.72,.04c.4,0,.78-.03,1.08-.09v-1.59c-.25,.02-.41,.03-.7,.03-.86,0-1.22-.38-1.22-1.29v-4.57h1.92v-1.6h-1.92v-2.22h-2.1v2.22h-1.41v1.6h1.41v5.06c0,1.75,.86,2.45,2.94,2.45Zm3.96-10.63c.67,0,1.23-.54,1.23-1.22s-.56-1.22-1.23-1.22-1.24,.55-1.24,1.22,.56,1.22,1.24,1.22Zm-1.04,10.59h2.07v-9.07h-2.07v9.07Zm6.84,.15c1.2,0,2.16-.51,2.66-1.39h.14v1.24h2.04v-6.2c0-1.92-1.31-3.05-3.64-3.05-2.16,0-3.62,1.01-3.82,2.54v.07s1.94,0,1.94,0v-.03c.22-.6,.83-.94,1.78-.94,1.11,0,1.7,.5,1.7,1.4v.78l-2.33,.14c-2.21,.13-3.45,1.08-3.45,2.7v.02c0,1.65,1.26,2.71,2.98,2.71Zm-.93-2.81v-.02c0-.75,.53-1.17,1.69-1.24l2.04-.13v.73c0,1.08-.92,1.89-2.17,1.89-.91,0-1.56-.46-1.56-1.23Zm8.1,2.66h2.06v-12.58h-2.06v12.58Zm4.52,0h2.07v-12.58h-2.07v12.58Zm5.41,3.19c2.01,0,3.05-.72,3.83-3l3.26-9.26h-2.18l-2.11,7.09h-.16l-2.11-7.09h-2.26l3.25,9.08-.11,.41c-.23,.82-.73,1.17-1.58,1.17-.22,0-.45,0-.61-.03v1.59c.25,.03,.54,.03,.78,.03Zm-226.54,20c2.65,0,4.33-1.32,4.33-3.41v-8.85h-2.07v1.49h-.11c-.51-1.03-1.49-1.64-2.74-1.64-2.35,0-3.77,1.81-3.77,4.43v.02c0,2.57,1.42,4.35,3.72,4.35,1.26,0,2.25-.53,2.77-1.5h.14v1.74c0,1.16-.82,1.82-2.23,1.82-1.16,0-1.85-.41-1.99-.99v-.02h-2.07v.02c.2,1.53,1.63,2.55,4.02,2.55Zm0-5.26c-1.43,0-2.25-1.1-2.25-2.71v-.02c0-1.6,.82-2.71,2.25-2.71s2.3,1.11,2.3,2.71v.02c0,1.6-.86,2.71-2.3,2.71Zm10.54,2.25c2.71,0,4.36-1.78,4.36-4.71v-.02c0-2.92-1.66-4.7-4.36-4.7s-4.37,1.79-4.37,4.7v.02c0,2.94,1.64,4.71,4.37,4.71Zm0-1.68c-1.44,0-2.26-1.12-2.26-3.03v-.02c0-1.91,.82-3.04,2.26-3.04s2.25,1.13,2.25,3.04v.02c0,1.91-.82,3.03-2.25,3.03Zm10.08,1.68c2.47,0,3.68-1.42,3.97-2.59l.03-.08h-1.97l-.03,.06c-.2,.42-.83,.98-1.95,.98-1.41,0-2.29-.95-2.31-2.57h6.34v-.68c0-2.74-1.59-4.55-4.18-4.55s-4.23,1.87-4.23,4.72h0c0,2.9,1.64,4.71,4.33,4.71Zm-.07-7.81c1.15,0,1.99,.74,2.13,2.22h-4.31c.16-1.44,1.03-2.22,2.18-2.22Zm9.4,7.81c2.24,0,3.86-1.15,3.86-2.88v-.02c0-1.32-.84-2.08-2.62-2.47l-1.47-.32c-.98-.22-1.36-.55-1.36-1.08h0c0-.69,.66-1.14,1.59-1.14s1.57,.47,1.71,1.04v.02h1.96v-.02c-.14-1.47-1.46-2.57-3.67-2.57s-3.63,1.13-3.63,2.76h0c0,1.34,.82,2.16,2.55,2.54l1.47,.33c.99,.22,1.39,.57,1.39,1.1v.02c0,.68-.71,1.15-1.74,1.15s-1.64-.44-1.85-1.07v-.02h-2.06v.02c.17,1.54,1.57,2.6,3.87,2.6Zm12.47-.03c1.19,0,2.15-.51,2.65-1.39h.14v1.24h2.04v-6.2c0-1.92-1.31-3.05-3.64-3.05-2.16,0-3.62,1.01-3.82,2.54v.07s1.94,0,1.94,0v-.03c.22-.6,.83-.94,1.78-.94,1.11,0,1.7,.5,1.7,1.4v.78l-2.33,.14c-2.21,.13-3.44,1.08-3.44,2.7v.02c0,1.65,1.25,2.71,2.98,2.71Zm-.94-2.81v-.02c0-.75,.54-1.17,1.69-1.24l2.04-.13v.73c0,1.08-.92,1.89-2.16,1.89-.92,0-1.57-.46-1.57-1.23Zm11.91,2.85c2.3,0,3.64-1.24,3.93-3.1l.02-.07h-1.95s-.02,.04-.02,.04c-.25,.95-.91,1.44-1.98,1.44-1.4,0-2.24-1.13-2.24-3.05v-.02c0-1.9,.83-3.01,2.24-3.01,1.13,0,1.8,.63,1.99,1.51v.02h1.96v-.03c-.23-1.88-1.63-3.17-3.96-3.17-2.73,0-4.33,1.75-4.33,4.68v.02c0,2.96,1.61,4.73,4.34,4.73Zm5.68-.18h2.07v-5.27c0-1.29,.9-2.12,2.28-2.12,.35,0,.7,.05,1.03,.12v-1.85c-.2-.06-.53-.1-.84-.1-1.2,0-2.03,.57-2.33,1.54h-.14v-1.4h-2.07v9.07Zm10.52,.18c2.71,0,4.36-1.78,4.36-4.71v-.02c0-2.92-1.66-4.7-4.36-4.7s-4.37,1.79-4.37,4.7v.02c0,2.94,1.64,4.71,4.37,4.71Zm0-1.68c-1.44,0-2.26-1.12-2.26-3.03v-.02c0-1.91,.82-3.04,2.26-3.04s2.25,1.13,2.25,3.04v.02c0,1.91-.82,3.03-2.25,3.03Zm9.63,1.68c2.23,0,3.85-1.15,3.85-2.88v-.02c0-1.32-.84-2.08-2.62-2.47l-1.47-.32c-.98-.22-1.36-.55-1.36-1.08h0c0-.69,.67-1.14,1.59-1.14,.97,0,1.57,.47,1.72,1.04v.02h1.95v-.02c-.14-1.47-1.46-2.57-3.66-2.57s-3.64,1.13-3.64,2.76h0c0,1.34,.82,2.16,2.55,2.54l1.47,.33c.99,.22,1.39,.57,1.39,1.1v.02c0,.68-.71,1.15-1.74,1.15s-1.64-.44-1.85-1.07v-.02h-2.06v.02c.17,1.54,1.57,2.6,3.88,2.6Zm8.95,0c2.24,0,3.85-1.15,3.85-2.88v-.02c0-1.32-.83-2.08-2.61-2.47l-1.47-.32c-.98-.22-1.36-.55-1.36-1.08h0c0-.69,.66-1.14,1.58-1.14,.98,0,1.57,.47,1.72,1.04v.02h1.95v-.02c-.13-1.47-1.45-2.57-3.66-2.57s-3.63,1.13-3.63,2.76h0c0,1.34,.82,2.16,2.55,2.54l1.46,.33c1,.22,1.4,.57,1.4,1.1v.02c0,.68-.71,1.15-1.74,1.15s-1.64-.44-1.85-1.07v-.02h-2.06v.02c.17,1.54,1.57,2.6,3.87,2.6Zm13.56-.14c.4,0,.78-.03,1.08-.09v-1.59c-.25,.02-.41,.03-.7,.03-.86,0-1.22-.38-1.22-1.29v-4.57h1.92v-1.6h-1.92v-2.22h-2.1v2.22h-1.41v1.6h1.41v5.06c0,1.75,.86,2.45,2.94,2.45Zm4.62-.04h2.15l1.76-6.57h.14l1.76,6.57h2.17l2.46-9.07h-2.05l-1.5,6.82h-.15l-1.76-6.82h-1.96l-1.75,6.82h-.14l-1.51-6.82h-2.07l2.45,9.07Zm15.55,.18c2.72,0,4.37-1.78,4.37-4.71v-.02c0-2.92-1.66-4.7-4.37-4.7s-4.36,1.79-4.36,4.7v.02c0,2.94,1.64,4.71,4.36,4.71Zm0-1.68c-1.43,0-2.26-1.12-2.26-3.03v-.02c0-1.91,.83-3.04,2.26-3.04s2.25,1.13,2.25,3.04v.02c0,1.91-.81,3.03-2.25,3.03Zm10.58,1.49h2.07v-12.58h-2.07v12.58Zm5.5-10.59c.68,0,1.23-.54,1.23-1.22s-.55-1.22-1.23-1.22-1.23,.55-1.23,1.22,.55,1.22,1.23,1.22Zm-1.03,10.59h2.06v-9.07h-2.06v9.07Zm4.36,0h2.07v-5.29c0-1.36,.76-2.22,1.99-2.22s1.83,.71,1.83,2.12v5.39h2.06v-5.87c0-2.16-1.1-3.38-3.13-3.38-1.31,0-2.18,.59-2.61,1.56h-.14v-1.39h-2.07v9.07Zm14.04,.18c2.46,0,3.68-1.42,3.97-2.59l.02-.08h-1.97l-.02,.06c-.2,.42-.84,.98-1.96,.98-1.4,0-2.28-.95-2.31-2.57h6.35v-.68c0-2.74-1.6-4.55-4.18-4.55s-4.23,1.87-4.23,4.72h0c0,2.9,1.63,4.71,4.33,4.71Zm-.08-7.81c1.16,0,2,.74,2.14,2.22h-4.31c.16-1.44,1.02-2.22,2.17-2.22Zm9.41,7.81c2.23,0,3.85-1.15,3.85-2.88v-.02c0-1.32-.84-2.08-2.61-2.47l-1.47-.32c-.98-.22-1.36-.55-1.36-1.08h0c0-.69,.66-1.14,1.58-1.14,.97,0,1.57,.47,1.72,1.04v.02h1.95v-.02c-.13-1.47-1.45-2.57-3.66-2.57s-3.64,1.13-3.64,2.76h0c0,1.34,.83,2.16,2.55,2.54l1.47,.33c1,.22,1.4,.57,1.4,1.1v.02c0,.68-.72,1.15-1.75,1.15s-1.63-.44-1.85-1.07v-.02h-2.06v.02c.18,1.54,1.57,2.6,3.88,2.6Zm12.05-5.73h1.52l-.1-2.07,1.64,1.08,.76-1.19-1.87-1,1.87-1-.76-1.19-1.64,1.08,.1-2.06h-1.52l.1,2.07-1.66-1.08-.75,1.19,1.87,.99-1.87,1,.75,1.19,1.66-1.09-.1,2.08Z" style="fill:#fff;"/><path d="M1064.94,790.5h-.18l-.13,.11-7.19,5.75v-5.86h-3.7c-1.49,0-2.7-1.21-2.7-2.7v-12.8c0-1.49,1.21-2.7,2.7-2.7h19.2c1.49,0,2.7,1.21,2.7,2.7v12.8c0,1.49-1.21,2.7-2.7,2.7h-8Zm-5.9-10.7v-.5h-4.2v4.2h4.2v-3.7Zm2.7-.5h-.5v4.2h4.2v-4.2h-3.7Zm10.1,.5v-.5h-4.2v4.2h4.2v-3.7Z" style="fill:#f09436; stroke:#f09436;"/><path d="M1249.34,762h0c11.6,0,21,9.4,21,21h0c0,11.6-9.4,21-21,21h0c-11.6,0-21-9.4-21-21h0c0-11.6,9.4-21,21-21Z" style="fill:#39393c;"/><path d="M1243.34,789l12-12m-12,0l12,12" style="fill:none; stroke:rgba(240,148,54,.5); stroke-linecap:round; stroke-linejoin:round; stroke-width:2px;"/><path d="M1331.34,762h0c11.6,0,21,9.4,21,21h0c0,11.6-9.4,21-21,21h0c-11.6,0-21-9.4-21-21h0c0-11.6,9.4-21,21-21Z" style="fill:#39393c;"/><path d="M1324.34,784l4,4,10-10" style="fill:none; stroke:rgba(240,148,54,.5); stroke-linecap:round; stroke-linejoin:round; stroke-width:2px;"/><line x1="1039.34" y1="819.5" x2="1360.34" y2="819.5" style="fill:none; stroke:#414141;"/><rect x="1039.34" y="820" width="321" height="122" style="fill:#1c1c1d;"/><path d="M1052.82,851.28c2.45,0,4.19-1.67,4.19-3.96v-.02c0-2.14-1.51-3.72-3.68-3.72-1.54,0-2.53,.79-2.94,1.68h-.16c0-.09,.01-.17,.01-.26,.08-2.16,.84-3.91,2.63-3.91,.99,0,1.69,.52,1.99,1.3l.03,.08h1.97v-.09c-.37-1.73-1.92-2.95-3.99-2.95-2.83,0-4.55,2.25-4.55,6.05v.02c0,4.06,2.1,5.77,4.5,5.77Zm-2.24-3.94v-.02c0-1.27,.98-2.2,2.25-2.2s2.21,.94,2.21,2.24v.02c0,1.26-.98,2.25-2.23,2.25s-2.23-1.01-2.23-2.3Zm9.47,3.81c.72,0,1.24-.54,1.24-1.23s-.52-1.23-1.24-1.23-1.24,.54-1.24,1.23,.53,1.23,1.24,1.23Z" style="fill:#fff;"/><path d="M1077.81,852.3c2.77,0,4.75-1.6,5.07-4v-.06h-2.1v.04c-.32,1.32-1.45,2.17-2.97,2.17-2.04,0-3.31-1.7-3.31-4.43v-.02c0-2.72,1.27-4.43,3.31-4.43,1.51,0,2.65,.94,2.96,2.36v.03h2.11v-.07c-.28-2.45-2.35-4.17-5.07-4.17-3.4,0-5.5,2.4-5.5,6.28v.02c0,3.87,2.11,6.28,5.5,6.28Zm7.09-.3h2.06v-5.29c0-1.36,.77-2.22,1.99-2.22s1.83,.71,1.83,2.12v5.39h2.07v-5.87c0-2.16-1.11-3.38-3.13-3.38-1.31,0-2.18,.59-2.62,1.56h-.14v-4.9h-2.06v12.58Zm14.03,.18c2.47,0,3.68-1.42,3.97-2.59l.03-.08h-1.97l-.03,.06c-.2,.42-.83,.98-1.96,.98-1.4,0-2.28-.95-2.3-2.57h6.34v-.68c0-2.74-1.59-4.55-4.18-4.55s-4.23,1.87-4.23,4.72h0c0,2.9,1.64,4.71,4.33,4.71Zm-.07-7.81c1.15,0,1.99,.74,2.13,2.22h-4.31c.16-1.44,1.02-2.22,2.18-2.22Zm9.87,7.81c2.3,0,3.63-1.24,3.93-3.1l.02-.07h-1.95s-.02,.04-.02,.04c-.25,.95-.91,1.44-1.98,1.44-1.4,0-2.24-1.13-2.24-3.05v-.02c0-1.9,.83-3.01,2.24-3.01,1.13,0,1.8,.63,1.99,1.51v.02h1.96v-.03c-.23-1.88-1.63-3.17-3.96-3.17-2.73,0-4.33,1.75-4.33,4.68v.02c0,2.96,1.61,4.73,4.34,4.73Zm5.76-.18h2.07v-3.19l.72-.74,2.91,3.93h2.49l-3.9-5.24,3.65-3.84h-2.39l-3.34,3.72h-.14v-7.23h-2.07v12.58Zm9.62,0h2.07v-12.58h-2.07v12.58Zm5.51-10.59c.67,0,1.22-.54,1.22-1.22s-.55-1.22-1.22-1.22-1.24,.55-1.24,1.22,.56,1.22,1.24,1.22Zm-1.04,10.59h2.07v-9.07h-2.07v9.07Zm7.79,.18c2.24,0,3.85-1.15,3.85-2.88v-.02c0-1.32-.83-2.08-2.61-2.47l-1.47-.32c-.98-.22-1.36-.55-1.36-1.08h0c0-.69,.66-1.14,1.59-1.14s1.56,.47,1.71,1.04v.02h1.95v-.02c-.13-1.47-1.45-2.57-3.66-2.57s-3.63,1.13-3.63,2.76h0c0,1.34,.82,2.16,2.55,2.54l1.47,.33c.99,.22,1.39,.57,1.39,1.1v.02c0,.68-.71,1.15-1.74,1.15s-1.64-.44-1.85-1.07v-.02h-2.06v.02c.17,1.54,1.57,2.6,3.87,2.6Zm9.2-.14c.4,0,.78-.03,1.08-.09v-1.59c-.25,.02-.41,.03-.7,.03-.86,0-1.22-.38-1.22-1.29v-4.57h1.92v-1.6h-1.92v-2.22h-2.1v2.22h-1.41v1.6h1.41v5.06c0,1.75,.86,2.45,2.94,2.45Zm10.76,0c.4,0,.78-.03,1.08-.09v-1.59c-.25,.02-.41,.03-.7,.03-.86,0-1.22-.38-1.22-1.29v-4.57h1.92v-1.6h-1.92v-2.22h-2.1v2.22h-1.41v1.6h1.41v5.06c0,1.75,.86,2.45,2.94,2.45Zm6.7,.14c2.47,0,3.68-1.42,3.97-2.59l.02-.08h-1.96l-.03,.06c-.2,.42-.84,.98-1.96,.98-1.4,0-2.28-.95-2.31-2.57h6.35v-.68c0-2.74-1.6-4.55-4.18-4.55s-4.23,1.87-4.23,4.72h0c0,2.9,1.63,4.71,4.33,4.71Zm-.07-7.81c1.15,0,1.99,.74,2.13,2.22h-4.31c.16-1.44,1.02-2.22,2.18-2.22Zm4.92,7.63h2.22l1.85-3.15h.15l1.85,3.15h2.33l-2.96-4.59,2.93-4.48h-2.27l-1.79,3.15h-.14l-1.81-3.15h-2.39l2.97,4.57-2.94,4.5Zm13.55,.04c.39,0,.78-.03,1.08-.09v-1.59c-.25,.02-.41,.03-.7,.03-.87,0-1.22-.38-1.22-1.29v-4.57h1.92v-1.6h-1.92v-2.22h-2.1v2.22h-1.41v1.6h1.41v5.06c0,1.75,.85,2.45,2.94,2.45Zm10.76,0c.39,0,.78-.03,1.07-.09v-1.59c-.24,.02-.4,.03-.69,.03-.87,0-1.22-.38-1.22-1.29v-4.57h1.91v-1.6h-1.91v-2.22h-2.1v2.22h-1.41v1.6h1.41v5.06c0,1.75,.85,2.45,2.94,2.45Zm2.98-.04h2.06v-5.29c0-1.36,.77-2.22,2-2.22s1.82,.71,1.82,2.12v5.39h2.07v-5.87c0-2.16-1.11-3.38-3.13-3.38-1.31,0-2.18,.59-2.62,1.56h-.14v-4.9h-2.06v12.58Zm12.62,.15c1.2,0,2.16-.51,2.66-1.39h.14v1.24h2.04v-6.2c0-1.92-1.31-3.05-3.64-3.05-2.16,0-3.62,1.01-3.82,2.54v.07s1.94,0,1.94,0v-.03c.22-.6,.83-.94,1.78-.94,1.11,0,1.7,.5,1.7,1.4v.78l-2.33,.14c-2.21,.13-3.45,1.08-3.45,2.7v.02c0,1.65,1.26,2.71,2.98,2.71Zm-.94-2.81v-.02c0-.75,.54-1.17,1.7-1.24l2.04-.13v.73c0,1.08-.92,1.89-2.17,1.89-.91,0-1.57-.46-1.57-1.23Zm11.59,2.71c.4,0,.78-.03,1.08-.09v-1.59c-.25,.02-.4,.03-.7,.03-.86,0-1.22-.38-1.22-1.29v-4.57h1.92v-1.6h-1.92v-2.22h-2.1v2.22h-1.41v1.6h1.41v5.06c0,1.75,.86,2.45,2.94,2.45Zm7.19,2.97h2.07v-4.46h.14c.47,.98,1.51,1.59,2.76,1.59,2.3,0,3.72-1.78,3.72-4.67v-.02c0-2.87-1.45-4.68-3.72-4.68-1.27,0-2.26,.58-2.76,1.57h-.14v-1.42h-2.07v12.09Zm4.32-4.61c-1.4,0-2.28-1.12-2.28-2.94v-.02c0-1.82,.88-2.93,2.28-2.93s2.27,1.11,2.27,2.94v.02c0,1.82-.86,2.93-2.27,2.93Zm10.14,1.78c2.71,0,4.36-1.78,4.36-4.71v-.02c0-2.92-1.66-4.7-4.36-4.7s-4.37,1.79-4.37,4.7v.02c0,2.94,1.64,4.71,4.37,4.71Zm0-1.68c-1.44,0-2.26-1.12-2.26-3.03v-.02c0-1.91,.82-3.04,2.26-3.04s2.24,1.13,2.24,3.04v.02c0,1.91-.81,3.03-2.24,3.03Zm9.77,1.54c.39,0,.78-.03,1.08-.09v-1.59c-.25,.02-.41,.03-.7,.03-.87,0-1.22-.38-1.22-1.29v-4.57h1.92v-1.6h-1.92v-2.22h-2.1v2.22h-1.41v1.6h1.41v5.06c0,1.75,.85,2.45,2.94,2.45Zm6.7,.14c2.46,0,3.67-1.42,3.96-2.59l.03-.08h-1.97l-.02,.06c-.2,.42-.84,.98-1.96,.98-1.41,0-2.29-.95-2.31-2.57h6.34v-.68c0-2.74-1.59-4.55-4.17-4.55s-4.24,1.87-4.24,4.72h0c0,2.9,1.64,4.71,4.34,4.71Zm-.08-7.81c1.15,0,1.99,.74,2.13,2.22h-4.3c.15-1.44,1.02-2.22,2.17-2.22Zm5.98,7.63h2.06v-5.29c0-1.36,.77-2.22,2-2.22s1.82,.71,1.82,2.12v5.39h2.07v-5.87c0-2.16-1.1-3.38-3.13-3.38-1.31,0-2.18,.59-2.61,1.56h-.15v-1.39h-2.06v9.07Zm13.72,.04c.4,0,.78-.03,1.08-.09v-1.59c-.25,.02-.41,.03-.7,.03-.86,0-1.22-.38-1.22-1.29v-4.57h1.92v-1.6h-1.92v-2.22h-2.1v2.22h-1.41v1.6h1.41v5.06c0,1.75,.86,2.45,2.94,2.45Zm3.96-10.63c.67,0,1.23-.54,1.23-1.22s-.56-1.22-1.23-1.22-1.24,.55-1.24,1.22,.56,1.22,1.24,1.22Zm-1.04,10.59h2.07v-9.07h-2.07v9.07Zm6.84,.15c1.2,0,2.16-.51,2.66-1.39h.14v1.24h2.04v-6.2c0-1.92-1.31-3.05-3.64-3.05-2.16,0-3.62,1.01-3.82,2.54v.07s1.94,0,1.94,0v-.03c.22-.6,.83-.94,1.78-.94,1.11,0,1.7,.5,1.7,1.4v.78l-2.33,.14c-2.21,.13-3.45,1.08-3.45,2.7v.02c0,1.65,1.26,2.71,2.98,2.71Zm-.93-2.81v-.02c0-.75,.53-1.17,1.69-1.24l2.04-.13v.73c0,1.08-.92,1.89-2.17,1.89-.91,0-1.56-.46-1.56-1.23Zm8.1,2.66h2.06v-12.58h-2.06v12.58Zm4.52,0h2.07v-12.58h-2.07v12.58Zm5.41,3.19c2.01,0,3.05-.72,3.83-3l3.26-9.26h-2.18l-2.11,7.09h-.16l-2.11-7.09h-2.26l3.25,9.08-.11,.41c-.23,.82-.73,1.17-1.58,1.17-.22,0-.45,0-.61-.03v1.59c.25,.03,.54,.03,.78,.03Zm-226.54,20c2.65,0,4.33-1.32,4.33-3.41v-8.85h-2.07v1.49h-.11c-.51-1.03-1.49-1.64-2.74-1.64-2.35,0-3.77,1.81-3.77,4.43v.02c0,2.57,1.42,4.35,3.72,4.35,1.26,0,2.25-.53,2.77-1.5h.14v1.74c0,1.16-.82,1.82-2.23,1.82-1.16,0-1.85-.41-1.99-.99v-.02h-2.07v.02c.2,1.53,1.63,2.55,4.02,2.55Zm0-5.26c-1.43,0-2.25-1.1-2.25-2.71v-.02c0-1.6,.82-2.71,2.25-2.71s2.3,1.11,2.3,2.71v.02c0,1.6-.86,2.71-2.3,2.71Zm10.54,2.25c2.71,0,4.36-1.78,4.36-4.71v-.02c0-2.92-1.66-4.7-4.36-4.7s-4.37,1.79-4.37,4.7v.02c0,2.94,1.64,4.71,4.37,4.71Zm0-1.68c-1.44,0-2.26-1.12-2.26-3.03v-.02c0-1.91,.82-3.04,2.26-3.04s2.25,1.13,2.25,3.04v.02c0,1.91-.82,3.03-2.25,3.03Zm10.08,1.68c2.47,0,3.68-1.42,3.97-2.59l.03-.08h-1.97l-.03,.06c-.2,.42-.83,.98-1.95,.98-1.41,0-2.29-.95-2.31-2.57h6.34v-.68c0-2.74-1.59-4.55-4.18-4.55s-4.23,1.87-4.23,4.72h0c0,2.9,1.64,4.71,4.33,4.71Zm-.07-7.81c1.15,0,1.99,.74,2.13,2.22h-4.31c.16-1.44,1.03-2.22,2.18-2.22Zm9.4,7.81c2.24,0,3.86-1.15,3.86-2.88v-.02c0-1.32-.84-2.08-2.62-2.47l-1.47-.32c-.98-.22-1.36-.55-1.36-1.08h0c0-.69,.66-1.14,1.59-1.14s1.57,.47,1.71,1.04v.02h1.96v-.02c-.14-1.47-1.46-2.57-3.67-2.57s-3.63,1.13-3.63,2.76h0c0,1.34,.82,2.16,2.55,2.54l1.47,.33c.99,.22,1.39,.57,1.39,1.1v.02c0,.68-.71,1.15-1.74,1.15s-1.64-.44-1.85-1.07v-.02h-2.06v.02c.17,1.54,1.57,2.6,3.87,2.6Zm12.47-.03c1.19,0,2.15-.51,2.65-1.39h.14v1.24h2.04v-6.2c0-1.92-1.31-3.05-3.64-3.05-2.16,0-3.62,1.01-3.82,2.54v.07s1.94,0,1.94,0v-.03c.22-.6,.83-.94,1.78-.94,1.11,0,1.7,.5,1.7,1.4v.78l-2.33,.14c-2.21,.13-3.44,1.08-3.44,2.7v.02c0,1.65,1.25,2.71,2.98,2.71Zm-.94-2.81v-.02c0-.75,.54-1.17,1.69-1.24l2.04-.13v.73c0,1.08-.92,1.89-2.16,1.89-.92,0-1.57-.46-1.57-1.23Zm11.91,2.85c2.3,0,3.64-1.24,3.93-3.1l.02-.07h-1.95s-.02,.04-.02,.04c-.25,.95-.91,1.44-1.98,1.44-1.4,0-2.24-1.13-2.24-3.05v-.02c0-1.9,.83-3.01,2.24-3.01,1.13,0,1.8,.63,1.99,1.51v.02h1.96v-.03c-.23-1.88-1.63-3.17-3.96-3.17-2.73,0-4.33,1.75-4.33,4.68v.02c0,2.96,1.61,4.73,4.34,4.73Zm5.68-.18h2.07v-5.27c0-1.29,.9-2.12,2.28-2.12,.35,0,.7,.05,1.03,.12v-1.85c-.2-.06-.53-.1-.84-.1-1.2,0-2.03,.57-2.33,1.54h-.14v-1.4h-2.07v9.07Zm10.52,.18c2.71,0,4.36-1.78,4.36-4.71v-.02c0-2.92-1.66-4.7-4.36-4.7s-4.37,1.79-4.37,4.7v.02c0,2.94,1.64,4.71,4.37,4.71Zm0-1.68c-1.44,0-2.26-1.12-2.26-3.03v-.02c0-1.91,.82-3.04,2.26-3.04s2.25,1.13,2.25,3.04v.02c0,1.91-.82,3.03-2.25,3.03Zm9.63,1.68c2.23,0,3.85-1.15,3.85-2.88v-.02c0-1.32-.84-2.08-2.62-2.47l-1.47-.32c-.98-.22-1.36-.55-1.36-1.08h0c0-.69,.67-1.14,1.59-1.14,.97,0,1.57,.47,1.72,1.04v.02h1.95v-.02c-.14-1.47-1.46-2.57-3.66-2.57s-3.64,1.13-3.64,2.76h0c0,1.34,.82,2.16,2.55,2.54l1.47,.33c.99,.22,1.39,.57,1.39,1.1v.02c0,.68-.71,1.15-1.74,1.15s-1.64-.44-1.85-1.07v-.02h-2.06v.02c.17,1.54,1.57,2.6,3.88,2.6Zm8.95,0c2.24,0,3.85-1.15,3.85-2.88v-.02c0-1.32-.83-2.08-2.61-2.47l-1.47-.32c-.98-.22-1.36-.55-1.36-1.08h0c0-.69,.66-1.14,1.58-1.14,.98,0,1.57,.47,1.72,1.04v.02h1.95v-.02c-.13-1.47-1.45-2.57-3.66-2.57s-3.63,1.13-3.63,2.76h0c0,1.34,.82,2.16,2.55,2.54l1.46,.33c1,.22,1.4,.57,1.4,1.1v.02c0,.68-.71,1.15-1.74,1.15s-1.64-.44-1.85-1.07v-.02h-2.06v.02c.17,1.54,1.57,2.6,3.87,2.6Zm13.56-.14c.4,0,.78-.03,1.08-.09v-1.59c-.25,.02-.41,.03-.7,.03-.86,0-1.22-.38-1.22-1.29v-4.57h1.92v-1.6h-1.92v-2.22h-2.1v2.22h-1.41v1.6h1.41v5.06c0,1.75,.86,2.45,2.94,2.45Zm4.62-.04h2.15l1.76-6.57h.14l1.76,6.57h2.17l2.46-9.07h-2.05l-1.5,6.82h-.15l-1.76-6.82h-1.96l-1.75,6.82h-.14l-1.51-6.82h-2.07l2.45,9.07Zm15.55,.18c2.72,0,4.37-1.78,4.37-4.71v-.02c0-2.92-1.66-4.7-4.37-4.7s-4.36,1.79-4.36,4.7v.02c0,2.94,1.64,4.71,4.36,4.71Zm0-1.68c-1.43,0-2.26-1.12-2.26-3.03v-.02c0-1.91,.83-3.04,2.26-3.04s2.25,1.13,2.25,3.04v.02c0,1.91-.81,3.03-2.25,3.03Zm10.58,1.49h2.07v-12.58h-2.07v12.58Zm5.5-10.59c.68,0,1.23-.54,1.23-1.22s-.55-1.22-1.23-1.22-1.23,.55-1.23,1.22,.55,1.22,1.23,1.22Zm-1.03,10.59h2.06v-9.07h-2.06v9.07Zm4.36,0h2.07v-5.29c0-1.36,.76-2.22,1.99-2.22s1.83,.71,1.83,2.12v5.39h2.06v-5.87c0-2.16-1.1-3.38-3.13-3.38-1.31,0-2.18,.59-2.61,1.56h-.14v-1.39h-2.07v9.07Zm14.04,.18c2.46,0,3.68-1.42,3.97-2.59l.02-.08h-1.97l-.02,.06c-.2,.42-.84,.98-1.96,.98-1.4,0-2.28-.95-2.31-2.57h6.35v-.68c0-2.74-1.6-4.55-4.18-4.55s-4.23,1.87-4.23,4.72h0c0,2.9,1.63,4.71,4.33,4.71Zm-.08-7.81c1.16,0,2,.74,2.14,2.22h-4.31c.16-1.44,1.02-2.22,2.17-2.22Zm9.41,7.81c2.23,0,3.85-1.15,3.85-2.88v-.02c0-1.32-.84-2.08-2.61-2.47l-1.47-.32c-.98-.22-1.36-.55-1.36-1.08h0c0-.69,.66-1.14,1.58-1.14,.97,0,1.57,.47,1.72,1.04v.02h1.95v-.02c-.13-1.47-1.45-2.57-3.66-2.57s-3.64,1.13-3.64,2.76h0c0,1.34,.83,2.16,2.55,2.54l1.47,.33c1,.22,1.4,.57,1.4,1.1v.02c0,.68-.72,1.15-1.75,1.15s-1.63-.44-1.85-1.07v-.02h-2.06v.02c.18,1.54,1.57,2.6,3.88,2.6Zm12.05-5.73h1.52l-.1-2.07,1.64,1.08,.76-1.19-1.87-1,1.87-1-.76-1.19-1.64,1.08,.1-2.06h-1.52l.1,2.07-1.66-1.08-.75,1.19,1.87,.99-1.87,1,.75,1.19,1.66-1.09-.1,2.08Z" style="fill:#fff;"/><path d="M1056.67,899.67h13.34m-13.34,5.33h5.34m1.33,10.67l-5.33-5.33h-4c-1.48,0-2.67-1.19-2.67-2.67v-10.67c0-1.47,1.19-2.67,2.67-2.67h18.66c1.48,0,2.67,1.19,2.67,2.67v10.67c0,1.47-1.19,2.67-2.67,2.67h-4l-5.33,5.33Z" style="fill:none; stroke:rgba(240,148,54,.5); stroke-linecap:round; stroke-linejoin:round; stroke-width:2px;"/><path d="M1331.34,884h0c11.6,0,21,9.4,21,21h0c0,11.6-9.4,21-21,21h0c-11.6,0-21-9.4-21-21h0c0-11.6,9.4-21,21-21Z" style="fill:#39393c;"/><path d="M1324.34,906l4,4,10-10" style="fill:none; stroke:rgba(240,148,54,.5); stroke-linecap:round; stroke-linejoin:round; stroke-width:2px;"/></g></g></svg>