<?xml version="1.0" encoding="UTF-8"?><svg id="Layout_tabs" xmlns="http://www.w3.org/2000/svg" xmlns:xlink="http://www.w3.org/1999/xlink" viewBox="0 0 1381.34 1032"><defs><clipPath id="clippath"><rect x="14.34" y="90" width="529" height="33" rx="8" ry="8" style="fill:none;"/></clipPath></defs><g style="clip-path:url(#clippath);"><g><rect x="14.34" y="90" width="529" height="33" rx="8" ry="8" style="fill:#2f3136;"/><path d="M31.55,111h3.7c2.95,0,4.64-1.81,4.64-4.97h0c0-3.1-1.71-4.89-4.64-4.89h-3.7v9.86Zm1.76-1.48v-6.9h1.7c1.93,0,3.08,1.26,3.08,3.42h0c0,2.23-1.11,3.47-3.08,3.47h-1.7Zm11.62,1.63c2.03,0,3.03-1.17,3.27-2.13l.02-.06h-1.62l-.02,.05c-.16,.34-.69,.81-1.61,.81-1.16,0-1.88-.78-1.9-2.12h5.22v-.56c0-2.26-1.31-3.75-3.44-3.75s-3.49,1.54-3.49,3.89h0c0,2.39,1.35,3.88,3.57,3.88Zm-.06-6.43c.95,0,1.64,.61,1.76,1.83h-3.55c.13-1.19,.84-1.83,1.79-1.83Zm5.67,6.28h1.7v-6.15h1.59v-1.32h-1.62v-.64c0-.71,.31-1.09,1.11-1.09,.24,0,.45,.01,.58,.03v-1.19c-.27-.05-.58-.07-.94-.07-1.66,0-2.42,.73-2.42,2.22v.74h-1.22v1.32h1.22v6.15Zm6.74,.12c.98,0,1.78-.42,2.19-1.15h.12v1.03h1.68v-5.11c0-1.58-1.08-2.51-3-2.51-1.78,0-2.98,.83-3.14,2.09v.06s1.6,0,1.6,0v-.03c.18-.49,.68-.77,1.46-.77,.92,0,1.4,.41,1.4,1.16v.64l-1.92,.12c-1.82,.11-2.84,.89-2.84,2.22h0c0,1.37,1.03,2.25,2.45,2.25Zm-.77-2.32h0c0-.63,.44-.98,1.39-1.04l1.68-.11v.6c0,.89-.76,1.56-1.78,1.56-.75,0-1.29-.38-1.29-1.01Zm9.28,2.34c1.08,0,1.84-.49,2.19-1.29h.12v1.14h1.7v-7.47h-1.7v4.35c0,1.12-.59,1.83-1.69,1.83-1.03,0-1.46-.59-1.46-1.74v-4.44h-1.7v4.83c0,1.78,.86,2.79,2.54,2.79Zm6.15-.15h1.7v-10.36h-1.7v10.36Zm6.79,.03c.33,0,.64-.03,.89-.07v-1.31c-.21,.02-.33,.03-.57,.03-.71,0-1-.32-1-1.06v-3.77h1.58v-1.32h-1.58v-1.83h-1.73v1.83h-1.16v1.32h1.16v4.17c0,1.44,.7,2.02,2.42,2.02Zm6.49-.03h6.29v-1.48h-4.53v-8.38h-1.76v9.86Zm10.05,.12c.98,0,1.78-.42,2.19-1.15h.12v1.03h1.68v-5.11c0-1.58-1.08-2.51-3-2.51-1.78,0-2.98,.83-3.14,2.09v.06s1.6,0,1.6,0v-.03c.18-.49,.68-.77,1.46-.77,.92,0,1.4,.41,1.4,1.16v.64l-1.92,.12c-1.82,.11-2.84,.89-2.84,2.22h0c0,1.37,1.03,2.25,2.45,2.25Zm-.77-2.32h0c0-.63,.44-.98,1.39-1.04l1.68-.11v.6c0,.89-.76,1.56-1.78,1.56-.75,0-1.29-.38-1.29-1.01Zm7.37,4.82c1.65,0,2.51-.6,3.15-2.47l2.68-7.63h-1.79l-1.74,5.84h-.13l-1.74-5.84h-1.86l2.67,7.48-.09,.34c-.18,.68-.6,.96-1.3,.96-.18,0-.37,0-.51-.02v1.31c.21,.02,.44,.03,.65,.03Zm10.22-2.47c2.23,0,3.6-1.46,3.6-3.88h0c0-2.42-1.37-3.88-3.6-3.88s-3.6,1.47-3.6,3.87h0c0,2.43,1.35,3.9,3.6,3.9Zm0-1.38c-1.18,0-1.86-.92-1.86-2.5h0c0-1.59,.68-2.51,1.86-2.51s1.85,.93,1.85,2.5h0c0,1.59-.67,2.51-1.85,2.51Zm7.78,1.38c1.08,0,1.84-.49,2.19-1.29h.12v1.14h1.7v-7.47h-1.7v4.35c0,1.12-.59,1.83-1.69,1.83-1.03,0-1.46-.59-1.46-1.74v-4.44h-1.7v4.83c0,1.78,.86,2.79,2.54,2.79Zm9.02-.12c.33,0,.64-.03,.89-.07v-1.31c-.2,.02-.33,.03-.57,.03-.71,0-1-.32-1-1.06v-3.77h1.58v-1.32h-1.58v-1.83h-1.73v1.83h-1.16v1.32h1.16v4.17c0,1.44,.7,2.02,2.42,2.02Z" style="fill:#fff;"/><path d="M147.34,98c0-4.42,3.58-8,8-8h127c4.42,0,8,3.58,8,8v17c0,4.42-3.58,8-8,8h-127c-4.42,0-8-3.58-8-8v-17Z" style="fill:#f09436;"/><path d="M163.82,111h1.85l.82-2.55h3.65l.83,2.55h1.85l-3.5-9.86h-1.99l-3.5,9.86Zm4.44-8.03h.12l1.33,4.12h-2.77l1.33-4.12Zm6.07,8.03h1.7v-4.35c0-1.12,.63-1.83,1.64-1.83s1.5,.59,1.5,1.75v4.44h1.7v-4.83c0-1.78-.91-2.78-2.58-2.78-1.08,0-1.8,.49-2.15,1.29h-.12v-1.14h-1.7v7.47Zm11.25,.12c1.05,0,1.86-.48,2.27-1.29h.12v1.17h1.71v-10.36h-1.71v4.08h-.12c-.39-.81-1.24-1.31-2.27-1.31-1.89,0-3.06,1.48-3.06,3.86h0c0,2.38,1.19,3.86,3.06,3.86Zm.53-1.43c-1.16,0-1.87-.91-1.87-2.41h0c0-1.52,.71-2.43,1.87-2.43s1.88,.92,1.88,2.42h0c0,1.51-.72,2.43-1.88,2.43Zm5.7,1.31h1.7v-4.34c0-1.07,.74-1.74,1.88-1.74,.29,0,.57,.04,.85,.1v-1.52c-.16-.05-.43-.08-.69-.08-.99,0-1.67,.47-1.92,1.27h-.12v-1.15h-1.7v7.47Zm8.83,.15c2.03,0,3.03-1.17,3.27-2.13l.02-.06h-1.62l-.02,.05c-.16,.34-.69,.81-1.61,.81-1.16,0-1.88-.78-1.9-2.12h5.22v-.56c0-2.26-1.31-3.75-3.44-3.75s-3.49,1.54-3.49,3.89h0c0,2.39,1.35,3.88,3.57,3.88Zm-.06-6.43c.95,0,1.64,.61,1.76,1.83h-3.55c.13-1.19,.84-1.83,1.79-1.83Zm6.45,6.28h1.76l1.45-5.41h.12l1.46,5.41h1.79l2.02-7.47h-1.69l-1.24,5.61h-.12l-1.45-5.61h-1.62l-1.44,5.61h-.12l-1.24-5.61h-1.71l2.02,7.47Zm12.69,.15c1.84,0,3.17-.95,3.17-2.37h0c0-1.1-.69-1.72-2.15-2.05l-1.21-.27c-.81-.18-1.12-.45-1.12-.89h0c0-.57,.55-.94,1.31-.94,.8,0,1.29,.38,1.42,.85v.02h1.61c-.11-1.22-1.2-2.13-3.01-2.13s-2.99,.93-2.99,2.28h0c0,1.11,.68,1.78,2.1,2.09l1.21,.27c.82,.18,1.15,.47,1.15,.91h0c0,.57-.59,.96-1.44,.96s-1.35-.36-1.52-.88h0s-1.69-.01-1.69-.01h0c.14,1.28,1.29,2.15,3.19,2.15Zm8.8-.15h6.29v-1.48h-4.53v-8.38h-1.76v9.86Zm10.05,.12c.99,0,1.78-.42,2.19-1.15h.12v1.03h1.68v-5.11c0-1.58-1.08-2.51-3-2.51-1.78,0-2.98,.83-3.14,2.09v.06s1.6,0,1.6,0v-.03c.18-.49,.68-.77,1.46-.77,.92,0,1.4,.41,1.4,1.16v.64l-1.92,.12c-1.82,.11-2.84,.89-2.84,2.22h0c0,1.37,1.03,2.25,2.45,2.25Zm-.77-2.32h0c0-.63,.44-.98,1.39-1.04l1.68-.11v.6c0,.89-.76,1.56-1.78,1.56-.75,0-1.29-.38-1.29-1.01Zm7.37,4.82c1.65,0,2.51-.6,3.15-2.47l2.68-7.63h-1.79l-1.74,5.84h-.13l-1.74-5.84h-1.86l2.67,7.48-.09,.34c-.18,.68-.6,.96-1.3,.96-.18,0-.37,0-.5-.02v1.31c.21,.02,.44,.03,.65,.03Zm10.22-2.47c2.24,0,3.6-1.46,3.6-3.88h0c0-2.42-1.37-3.88-3.6-3.88s-3.6,1.47-3.6,3.87h0c0,2.43,1.35,3.9,3.6,3.9Zm0-1.38c-1.18,0-1.86-.92-1.86-2.5h0c0-1.59,.68-2.51,1.86-2.51s1.85,.93,1.85,2.5h0c0,1.59-.67,2.51-1.85,2.51Zm7.78,1.38c1.08,0,1.84-.49,2.19-1.29h.12v1.14h1.7v-7.47h-1.7v4.35c0,1.12-.59,1.83-1.69,1.83-1.02,0-1.46-.59-1.46-1.74v-4.44h-1.7v4.83c0,1.78,.86,2.79,2.54,2.79Zm9.02-.12c.33,0,.64-.03,.89-.07v-1.31c-.2,.02-.33,.03-.57,.03-.71,0-1.01-.32-1.01-1.06v-3.77h1.58v-1.32h-1.58v-1.83h-1.73v1.83h-1.16v1.32h1.16v4.17c0,1.44,.7,2.02,2.42,2.02Z" style="fill:#fff;"/><path d="M307.55,111h4.22c2.11,0,3.39-1.07,3.39-2.8h0c0-1.29-.92-2.25-2.24-2.37v-.12c.99-.16,1.76-1.07,1.76-2.11h0c0-1.52-1.13-2.47-3-2.47h-4.12v9.86Zm3.69-8.49c1.07,0,1.69,.51,1.69,1.39h0c0,.91-.66,1.39-1.91,1.39h-1.7v-2.78h1.93Zm.06,4.03c1.35,0,2.06,.53,2.06,1.52h0c0,1.02-.69,1.56-1.99,1.56h-2.05v-3.08h1.98Zm5.6,4.46h1.7v-4.34c0-1.07,.74-1.74,1.88-1.74,.29,0,.58,.04,.85,.1v-1.52c-.16-.05-.43-.08-.69-.08-.99,0-1.67,.47-1.92,1.27h-.12v-1.15h-1.7v7.47Zm8.83,.15c2.03,0,3.03-1.17,3.27-2.13l.02-.06h-1.62l-.02,.05c-.16,.34-.69,.81-1.61,.81-1.16,0-1.88-.78-1.9-2.12h5.22v-.56c0-2.26-1.31-3.75-3.44-3.75s-3.49,1.54-3.49,3.89h0c0,2.39,1.35,3.88,3.57,3.88Zm-.06-6.43c.95,0,1.64,.61,1.76,1.83h-3.55c.13-1.19,.84-1.83,1.79-1.83Zm5.12,6.28h1.7v-4.35c0-1.12,.63-1.83,1.64-1.83s1.5,.59,1.5,1.75v4.44h1.7v-4.83c0-1.78-.91-2.78-2.58-2.78-1.08,0-1.8,.49-2.15,1.29h-.12v-1.14h-1.7v7.47Zm11.5,.03c.33,0,.64-.03,.89-.07v-1.31c-.21,.02-.34,.03-.58,.03-.71,0-1-.32-1-1.06v-3.77h1.58v-1.32h-1.58v-1.83h-1.73v1.83h-1.16v1.32h1.16v4.17c0,1.44,.7,2.02,2.42,2.02Zm5.31,.12c1.84,0,3.17-.95,3.17-2.37h0c0-1.1-.69-1.72-2.15-2.05l-1.21-.27c-.81-.18-1.12-.45-1.12-.89h0c0-.57,.55-.94,1.31-.94,.8,0,1.29,.38,1.42,.85v.02h1.61c-.11-1.22-1.2-2.13-3.01-2.13s-3,.93-3,2.28h0c0,1.11,.68,1.78,2.1,2.09l1.21,.27c.82,.18,1.15,.47,1.15,.91h0c0,.57-.59,.96-1.43,.96s-1.35-.36-1.52-.88h0s-1.69-.01-1.69-.01h0c.14,1.28,1.29,2.15,3.19,2.15Zm8.8-.15h6.29v-1.48h-4.53v-8.38h-1.76v9.86Zm10.05,.12c.99,0,1.78-.42,2.19-1.15h.12v1.03h1.68v-5.11c0-1.58-1.08-2.51-3-2.51-1.78,0-2.98,.83-3.15,2.09v.06s1.6,0,1.6,0v-.03c.18-.49,.68-.77,1.46-.77,.92,0,1.4,.41,1.4,1.16v.64l-1.92,.12c-1.82,.11-2.84,.89-2.84,2.22h0c0,1.37,1.03,2.25,2.45,2.25Zm-.77-2.32h0c0-.63,.44-.98,1.39-1.04l1.68-.11v.6c0,.89-.76,1.56-1.78,1.56-.75,0-1.29-.38-1.29-1.01Zm7.37,4.82c1.65,0,2.51-.6,3.15-2.47l2.68-7.63h-1.79l-1.74,5.84h-.13l-1.74-5.84h-1.86l2.67,7.48-.09,.34c-.18,.68-.6,.96-1.3,.96-.18,0-.37,0-.51-.02v1.31c.21,.02,.44,.03,.65,.03Zm10.22-2.47c2.23,0,3.6-1.46,3.6-3.88h0c0-2.42-1.37-3.88-3.6-3.88s-3.6,1.47-3.6,3.87h0c0,2.43,1.35,3.9,3.6,3.9Zm0-1.38c-1.18,0-1.86-.92-1.86-2.5h0c0-1.59,.68-2.51,1.86-2.51s1.85,.93,1.85,2.5h0c0,1.59-.67,2.51-1.85,2.51Zm7.78,1.38c1.08,0,1.84-.49,2.19-1.29h.12v1.14h1.7v-7.47h-1.7v4.35c0,1.12-.59,1.83-1.69,1.83-1.02,0-1.46-.59-1.46-1.74v-4.44h-1.7v4.83c0,1.78,.86,2.79,2.54,2.79Zm9.02-.12c.33,0,.64-.03,.89-.07v-1.31c-.2,.02-.33,.03-.57,.03-.71,0-1.01-.32-1.01-1.06v-3.77h1.58v-1.32h-1.58v-1.83h-1.73v1.83h-1.16v1.32h1.16v4.17c0,1.44,.71,2.02,2.42,2.02Z" style="fill:#fff;"/><path d="M435.55,111h1.59v-7.01h.12l2.73,7.01h1.2l2.73-7.01h.12v7.01h1.59v-9.86h-2.02l-2.96,7.59h-.12l-2.97-7.59h-2.02v9.86Zm14.38,.12c.98,0,1.78-.42,2.19-1.15h.12v1.03h1.68v-5.11c0-1.58-1.08-2.51-3-2.51-1.78,0-2.98,.83-3.15,2.09v.06s1.6,0,1.6,0v-.03c.18-.49,.68-.77,1.46-.77,.92,0,1.4,.41,1.4,1.16v.64l-1.92,.12c-1.82,.11-2.84,.89-2.84,2.22h0c0,1.37,1.03,2.25,2.45,2.25Zm-.77-2.32h0c0-.63,.44-.98,1.39-1.04l1.68-.11v.6c0,.89-.76,1.56-1.78,1.56-.75,0-1.29-.38-1.29-1.01Zm6.8,2.19h1.7v-4.34c0-1.07,.74-1.74,1.88-1.74,.29,0,.57,.04,.85,.1v-1.52c-.16-.05-.43-.08-.69-.08-.98,0-1.67,.47-1.92,1.27h-.12v-1.15h-1.7v7.47Zm6.73,2.62c1.65,0,2.51-.6,3.15-2.47l2.68-7.63h-1.79l-1.74,5.84h-.13l-1.74-5.84h-1.86l2.67,7.48-.09,.34c-.18,.68-.6,.96-1.3,.96-.18,0-.37,0-.51-.02v1.31c.2,.02,.44,.03,.65,.03Zm9.91-2.47c1.84,0,3.17-.95,3.17-2.37h0c0-1.1-.69-1.72-2.15-2.05l-1.21-.27c-.81-.18-1.12-.45-1.12-.89h0c0-.57,.55-.94,1.31-.94,.8,0,1.29,.38,1.42,.85v.02h1.61c-.11-1.22-1.2-2.13-3.02-2.13s-2.99,.93-2.99,2.28h0c0,1.11,.68,1.78,2.1,2.09l1.21,.27c.82,.18,1.15,.47,1.15,.91h0c0,.57-.59,.96-1.43,.96s-1.35-.36-1.52-.88h0s-1.69-.01-1.69-.01h0c.14,1.28,1.29,2.15,3.19,2.15Zm8.8-.15h6.29v-1.48h-4.52v-8.38h-1.76v9.86Zm10.05,.12c.98,0,1.78-.42,2.19-1.15h.12v1.03h1.68v-5.11c0-1.58-1.08-2.51-3-2.51-1.78,0-2.98,.83-3.14,2.09v.06s1.6,0,1.6,0v-.03c.18-.49,.68-.77,1.46-.77,.92,0,1.4,.41,1.4,1.16v.64l-1.92,.12c-1.82,.11-2.84,.89-2.84,2.22h0c0,1.37,1.03,2.25,2.45,2.25Zm-.77-2.32h0c0-.63,.44-.98,1.39-1.04l1.68-.11v.6c0,.89-.76,1.56-1.78,1.56-.75,0-1.29-.38-1.29-1.01Zm7.37,4.82c1.65,0,2.51-.6,3.15-2.47l2.68-7.63h-1.79l-1.74,5.84h-.13l-1.74-5.84h-1.86l2.67,7.48-.09,.34c-.18,.68-.6,.96-1.3,.96-.18,0-.37,0-.51-.02v1.31c.21,.02,.45,.03,.65,.03Zm10.22-2.47c2.24,0,3.6-1.46,3.6-3.88h0c0-2.42-1.37-3.88-3.6-3.88s-3.6,1.47-3.6,3.87h0c0,2.43,1.35,3.9,3.6,3.9Zm0-1.38c-1.18,0-1.86-.92-1.86-2.5h0c0-1.59,.68-2.51,1.86-2.51s1.85,.93,1.85,2.5h0c0,1.59-.67,2.51-1.85,2.51Zm7.78,1.38c1.08,0,1.84-.49,2.19-1.29h.12v1.14h1.7v-7.47h-1.7v4.35c0,1.12-.59,1.83-1.69,1.83-1.02,0-1.46-.59-1.46-1.74v-4.44h-1.7v4.83c0,1.78,.86,2.79,2.54,2.79Zm9.02-.12c.33,0,.64-.03,.89-.07v-1.31c-.21,.02-.34,.03-.57,.03-.71,0-1.01-.32-1.01-1.06v-3.77h1.58v-1.32h-1.58v-1.83h-1.73v1.83h-1.16v1.32h1.16v4.17c0,1.44,.7,2.02,2.42,2.02Z" style="fill:#fff;"/></g></g><path d="M570.34,99.5h-5c-1.1,0-2,.9-2,2v11c0,1.11,.9,2,2,2h11c1.1,0,2-.89,2-2v-5m-1.41-9.41c.78-.78,2.05-.78,2.83,0,.78,.78,.78,2.05,0,2.83l-8.59,8.59h-2.83v-2.83l8.59-8.59Z" style="fill:none; stroke:#f09436; stroke-linecap:round; stroke-linejoin:round; stroke-width:2px;"/></svg>