<?xml version="1.0" encoding="UTF-8"?><svg id="Edit_layout_button" xmlns="http://www.w3.org/2000/svg" viewBox="0 0 1381.34 1032"><path d="M1269.78,112.5h7.43v-1.35h-5.93v-4.12h5.62v-1.33h-5.62v-3.84h5.93v-1.34h-7.43v11.98Zm13.01,.16c1.25,0,2.24-.59,2.79-1.59h.13v1.43h1.45v-12.5h-1.45v4.96h-.13c-.49-.95-1.56-1.57-2.79-1.57-2.27,0-3.75,1.82-3.75,4.62v.02c0,2.79,1.49,4.62,3.75,4.62Zm.34-1.28c-1.64,0-2.61-1.26-2.61-3.35v-.02c0-2.08,.97-3.35,2.61-3.35s2.62,1.28,2.62,3.35v.02c0,2.07-1,3.35-2.62,3.35Zm7.33-9.55c.54,0,.99-.45,.99-1s-.45-1-.99-1-1,.45-1,1,.45,1,1,1Zm-.74,10.67h1.45v-8.95h-1.45v8.95Zm7.11,.07c.28,0,.56-.03,.84-.08v-1.23c-.27,.03-.41,.03-.66,.03-.93,0-1.3-.42-1.3-1.48v-5.06h1.96v-1.2h-1.96v-2.32h-1.49v2.32h-1.41v1.2h1.41v5.43c0,1.71,.77,2.39,2.61,2.39Zm7.48-.07h7.27v-1.35h-5.77v-10.63h-1.5v11.98Zm11.7,.16c1.2,0,2.14-.52,2.7-1.48h.14v1.32h1.44v-6.13c0-1.86-1.22-2.98-3.4-2.98-1.91,0-3.27,.95-3.51,2.35v.05h1.44v-.03c.24-.7,.95-1.1,2.02-1.1,1.33,0,2.01,.6,2.01,1.7v.81l-2.57,.16c-2.08,.12-3.26,1.05-3.26,2.64v.02c0,1.63,1.29,2.66,2.99,2.66Zm-1.51-2.69v-.02c0-.89,.59-1.37,1.96-1.45l2.39-.15v.81c0,1.28-1.07,2.24-2.54,2.24-1.04,0-1.81-.53-1.81-1.44Zm8.62,5.67c1.59,0,2.33-.58,3.07-2.59l3.49-9.5h-1.52l-2.45,7.36h-.13l-2.46-7.36h-1.54l3.31,8.96-.17,.53c-.32,1.03-.82,1.4-1.64,1.4-.2,0-.42,0-.6-.04v1.19c.2,.03,.45,.05,.64,.05Zm11.57-2.98c2.55,0,4.13-1.76,4.13-4.62v-.02c0-2.87-1.58-4.62-4.13-4.62s-4.12,1.75-4.12,4.62v.02c0,2.86,1.58,4.62,4.12,4.62Zm0-1.28c-1.69,0-2.64-1.24-2.64-3.35v-.02c0-2.12,.95-3.35,2.64-3.35s2.65,1.23,2.65,3.35v.02c0,2.11-.95,3.35-2.65,3.35Zm9.13,1.28c1.31,0,2.21-.54,2.65-1.49h.14v1.34h1.44v-8.95h-1.44v5.3c0,1.57-.84,2.53-2.42,2.53-1.43,0-2.01-.77-2.01-2.38v-5.45h-1.44v5.79c0,2.12,1.04,3.31,3.08,3.31Zm9.87-.09c.28,0,.55-.03,.84-.08v-1.23c-.27,.03-.41,.03-.67,.03-.93,0-1.29-.42-1.29-1.48v-5.06h1.96v-1.2h-1.96v-2.32h-1.5v2.32h-1.41v1.2h1.41v5.43c0,1.71,.78,2.39,2.62,2.39Z" style="fill:#f09436;"/></svg>