<svg width="1304" height="692" viewBox="0 0 1304 692" fill="none" xmlns="http://www.w3.org/2000/svg">
<path fill-rule="evenodd" clip-rule="evenodd" d="M99.9722 565.211C100.243 568.077 99.6889 570.815 98.3684 573.129L97.9387 573.882L98.7565 574.172C100.245 574.7 101.9 574.956 103.816 574.956C105.789 574.956 107.84 574.678 109.488 574.454L110.543 574.311L110.025 573.382C109.608 572.636 109.531 571.731 109.449 570.773C109.427 570.516 109.404 570.25 109.374 569.987C107.813 555.843 105.839 541.514 103.93 527.657C103.428 524.01 102.908 520.24 102.404 516.531L100.959 516.587C100.57 523.453 100.193 530.434 99.8278 537.185C99.6674 540.154 99.5068 543.123 99.345 546.091C98.7682 553.596 98.9674 559.673 99.9722 565.211M100.562 650.028C98.4393 650.028 96.3125 649.804 94.2409 649.363C87.7581 647.984 81.8685 644.73 76.8569 641.789C76.6011 641.642 76.3414 641.495 76.0749 641.344C74.1128 640.231 71.6711 638.847 70.1409 637.159C68.4623 635.307 68.1733 633.461 69.2318 631.35L69.3993 631.016L69.2243 630.686C68.1283 628.619 68.2098 626.061 69.4225 624.467L70.4416 623.127L68.766 623.307C67.0764 623.488 65.3735 623.735 63.7266 623.973C61.8993 624.237 60.0096 624.51 58.1486 624.693L57.6313 624.744L57.5124 625.249C57.4462 625.53 57.3644 625.7 56.7903 625.7C56.2925 625.7 55.6234 625.553 54.9153 625.396C54.0365 625.202 53.0404 624.982 52.0798 624.982C51.6573 624.982 51.2773 625.023 50.9179 625.107L50.7087 625.156L50.5599 625.311C50.4647 625.409 50.3027 625.471 50.1372 625.471C50.0119 625.471 49.8958 625.435 49.8182 625.374L49.5835 625.188L49.2857 625.221C44.0975 625.798 39.6238 626.811 35.6093 628.318L35.5912 628.325L35.5041 628.363C34.0525 628.998 32.5517 629.654 31.1849 629.654C30.1857 629.654 29.3743 629.31 28.6313 628.57L28.4213 628.361L28.1251 628.358C25.1197 628.33 23.7464 624.779 23.5565 622.399L23.5327 622.099L23.3036 621.904C18.0658 617.45 14.9737 611.333 13.8501 603.202C12.8268 595.797 13.6125 587.988 14.5161 581.327C16.6061 564.064 18.786 548.588 24.3272 533.91L24.5861 533.224L23.8962 532.973C21.5029 532.102 19.6739 531.062 18.3044 529.794L18.2096 529.706L18.0902 529.657C16.1274 528.84 15.1661 525.823 14.9182 524.918L14.8984 524.845L14.8637 524.778C14.4633 523.999 14.3709 522.917 14.6104 521.807L14.6361 521.687L14.6212 521.566C14.4918 520.512 14.9211 519.411 15.3756 518.244C15.5833 517.711 15.7979 517.161 15.9547 516.612C16.4938 515.045 17.0324 513.449 17.5533 511.906C18.7222 508.445 19.9306 504.865 21.218 501.383L21.3941 500.906L21.0062 500.578C20.344 500.018 20.5652 499.358 21.52 497.78C21.7456 497.408 21.959 497.055 22.1213 496.708C23.3452 494.565 24.657 492.507 26.0208 490.592L26.0489 490.553L26.0713 490.511C33.0694 477.266 45.4829 469.972 61.0248 469.972L61.3416 469.973L61.5167 469.866C64.4296 468.091 66.5089 465.045 67.8736 460.555L67.9172 460.412L67.9004 460.263C67.8536 459.849 67.8024 459.307 67.82 458.78C67.8644 457.447 68.3802 456.257 69.2349 455.516C70.8565 454.109 73.3183 453.991 75.7009 453.991L76.043 453.992C79.0893 454.001 81.2399 454.537 82.8112 455.679C84.6369 457.006 85.6459 459.148 85.896 462.227C85.9707 463.149 85.9681 464.103 85.9658 465.027L85.9652 465.284L85.9959 465.387C86.2148 466.118 86.4713 466.822 86.7581 467.477L87.0531 468.151L87.7239 467.847C88.1578 467.651 88.7079 467.55 89.4059 467.538C89.6071 467.534 89.8035 467.531 90.0014 467.531C91.6221 467.531 93.3558 467.681 95.0325 467.826C96.2958 467.936 97.6022 468.049 98.8667 468.099L98.884 468.1C98.884 468.1 99.0586 468.098 99.137 468.098C102.21 468.098 104.438 468.588 106.148 469.64C107.99 470.772 109.314 472.589 110.315 475.359C115.684 491.233 117.892 508.332 119.839 523.418C120.944 531.306 121.28 539.394 121.605 547.215C121.948 555.47 122.302 564.007 123.558 572.351L123.657 573.011L124.324 572.967C127.258 572.775 130.429 572.362 133.786 571.924C138.887 571.259 144.161 570.572 149.26 570.572C156.389 570.572 161.795 571.993 165.782 574.917C168.563 577.572 170.001 581.166 169.942 585.314C169.858 591.176 166.799 597.656 162.148 601.823L162.13 601.839C156.251 607.467 145.52 612.349 130.235 616.348C116.179 620.025 101.64 622.024 94.224 622.888L92.3887 623.102L93.8784 624.193C94.4814 624.635 95.0315 625.024 95.5603 625.382L95.9015 625.614L96.2752 625.44C97.3409 624.945 98.0177 624.841 98.398 624.841C98.7355 624.841 99.1427 624.915 99.1651 625.269C99.1797 625.501 99.017 625.845 98.6734 625.888L96.8492 626.119L98.3387 627.196C99.3337 627.915 100.818 628.781 102.537 629.785C108.161 633.068 116.659 638.031 115.198 642.388L115.102 642.674L115.238 642.944C115.63 643.724 115.664 644.449 115.34 645.158C114.646 646.679 112.475 647.833 110.632 648.303L110.6 648.311L110.569 648.322C107.362 649.454 103.995 650.028 100.562 650.028" fill="white"/>
<path fill-rule="evenodd" clip-rule="evenodd" d="M94.3911 622.035C94.6127 621.806 94.706 621.507 94.4989 621.155C93.6984 620.119 92.0381 620.827 91.0052 621.066C90.6152 620.738 90.2278 620.408 89.8548 620.06C89.9843 619.245 89.018 618.703 88.6208 618.075C88.2308 617.612 87.8639 617.086 87.3964 616.698C86.2569 615.797 84.6778 616.407 83.3554 616.366C82.337 615.053 81.2883 613.781 80.3195 612.425C81.436 610.523 81.5147 608.296 81.1442 606.177C98.2711 599.591 113.096 587.122 131.619 584.241C132.256 584.133 132.613 583.349 132.455 582.773C131.163 579.648 112.595 587.711 109.819 589.171C101.633 593.143 93.9647 598.095 86.0087 602.463C84.3496 603.356 82.5247 603.836 80.7106 604.301C77.9229 595.029 73.2072 586.53 69.5914 577.591C69.8262 577.179 70.0261 576.746 70.1957 576.301C70.0758 581.217 74.7938 581.149 75.4453 576.485C75.1764 578.916 76.9905 584.122 79.6086 580.706C80.2226 579.848 80.4406 578.749 80.5446 577.641C80.6791 578.407 80.8317 579.17 81.0013 579.93C81.6732 581.436 83.508 579.605 83.9341 578.819C84.1801 578.774 84.4102 578.661 84.5785 578.522C89.2081 579.173 94.6611 579.136 98.058 575.432C103.82 577.672 110.197 575.665 116.024 574.771C127.882 573.389 139.787 571.283 151.752 571.444C157.093 571.759 163.395 572.633 166.774 577.251C171.108 583.909 168.658 592.902 163.877 598.665C152.377 613.421 112.9 619.837 94.3911 622.035M94.7145 627.35C94.9238 627.293 95.1347 627.241 95.3442 627.192C98.701 630.024 114.51 637.378 113.308 641.771C112.883 642.317 111.866 642.442 111.222 642.618C110.102 642.925 108.971 643.191 107.829 643.401C104.138 644.082 100.315 644.2 96.6289 643.424C95.2727 643.215 94.0484 642.629 92.8132 642.062C88.8218 640.283 84.4259 638.317 80.4538 636.552C75.4076 634.525 66.5565 630.53 70.1969 623.789C73.6457 627.72 78.0235 627.376 80.2287 622.491C80.9892 621.007 81.6528 619.008 83.439 618.408C84.3811 617.763 85.5861 617.629 86.3732 618.348C86.4301 618.259 86.481 618.133 86.5087 618.022C87.3964 619.302 88.1618 620.65 89.2019 621.82C88.8448 621.839 85.1271 624.628 86.2242 624.629C87.5442 623.94 88.8557 623.366 90.281 622.994C91.314 624.047 92.4499 625.027 93.627 625.932C92.4838 626.697 91.4569 627.634 90.631 628.65C90.5596 628.74 90.6468 628.856 90.7533 628.808C92.0358 628.229 93.3545 627.72 94.7145 627.35M111.731 646.345C98.891 652.189 85.2977 645.681 74.348 638.743C71.8208 637.313 68.4966 635.286 69.0077 631.919C70.869 634.679 73.9376 636.25 76.8827 637.613C81.8308 639.879 86.8114 642.073 91.7718 644.312C92.2403 645.887 94.4806 645.947 95.8346 646.296C101.862 647.481 108.34 646.892 114.013 644.53C113.684 645.516 112.61 645.968 111.731 646.345M60.5016 623.587C60.1844 623.628 59.867 623.665 59.5499 623.702C59.5826 623.276 59.3295 622.851 58.9226 622.719C59.1055 621.817 59.1733 620.885 59.0752 619.97C59.6056 621.359 61.3179 620.937 62.4054 620.537C63.9591 620.109 65.5031 619.649 67.0386 619.158C67.6441 620.298 68.2859 621.421 69.0743 622.453C66.2041 622.712 63.3608 623.225 60.5016 623.587M59.2387 619.218C59.1624 619.381 59.0534 619.554 59.051 619.75C58.9735 619.074 58.8221 618.407 58.592 617.768C58.8074 618.251 59.0231 618.735 59.2387 619.218M57.427 615.595C56.015 613.73 53.4053 612.206 50.9931 612.726C50.8381 612.76 50.8343 613.012 50.9931 613.044C54.2337 613.49 57.0795 616.095 57.192 619.462C57.4476 620.987 56.4013 622.483 56.7537 623.946C56.6835 623.951 56.6132 623.954 56.5442 623.959C56.5188 624.057 56.4957 624.144 56.4654 624.22C56.8155 624.279 56.9184 624.85 56.5053 624.952C56.2608 625.012 56.0053 625.043 55.745 625.057C54.4238 624.695 53.0299 624.612 51.7669 624.078C50.5171 623.518 50.8296 621.945 50.3888 620.856C50.0655 619.6 49.6936 618.349 49.225 617.144C49.1911 617.047 49.0615 617.069 49.0506 617.167C48.72 619.571 48.7309 622.017 48.8109 624.44C48.3773 624.485 47.9462 624.535 47.5138 624.589C47.5418 623.912 45.5376 615.664 44.4816 617.781C45.0132 620.108 45.0774 622.539 45.1343 624.933C41.9991 625.457 38.9099 626.237 35.9042 627.298C33.7862 627.948 31.2672 629.873 29.2111 628.133C27.6186 626.799 27.0822 624.47 27.2323 622.489C29.3031 610.768 45.6587 609.398 55.3139 610.265C56.2257 612.397 57.1546 614.522 58.0955 616.642C57.9005 616.277 57.6777 615.927 57.427 615.595M24.4967 622.261C24.3199 619.599 24.7619 616.286 26.708 614.302C31.162 610.486 37.3986 609.286 42.9642 607.904C45.5568 607.385 48.1848 607.041 50.8235 606.869C51.7596 606.794 52.9488 607.009 53.6099 606.233C53.9503 607.051 54.2953 607.867 54.6406 608.682C43.56 607.211 20.4423 612.322 26.9163 627.704C25.5453 626.199 24.6371 624.367 24.4967 622.261M79.5469 613.462C80.0567 614.753 80.6804 615.982 81.4953 617.106C80.5689 617.721 79.8133 618.628 79.2805 619.604C75.8655 628.658 72.2131 623.808 67.6756 618.95C71.5156 617.481 76.6018 616.381 79.5469 613.462M22.7045 620.419C13.8243 611.529 12.1011 596.72 15.3816 585.08C15.6735 580.763 17.163 576.649 18.4975 572.562C22.7469 560.165 28.3355 548.238 35.0383 536.977C43.3542 539.292 51.6555 541.668 59.9907 543.907C61.1386 544.159 62.2878 544.659 63.4662 544.731C63.8876 545.003 64.3103 545.303 64.7486 545.566C64.1105 548.735 64.699 551.969 64.8479 555.157C64.9834 557.667 64.7159 560.124 64.3876 562.607C64.0208 566.219 62.5106 577.967 65.537 580.117C66.5627 580.619 67.4794 579.133 67.9214 579.542C68.3198 579.26 68.6916 578.894 68.9944 578.49C70.163 582.32 72.0727 585.873 73.2522 589.706C74.8215 595.338 79.9756 604.457 78.8312 609.829C77.9459 613.148 74.0732 613.863 71.2783 614.948C68.0486 616.086 64.7825 617.132 61.4632 617.98C59.8429 614.496 58.2941 610.978 56.7743 607.447C49.8281 591.156 43.6763 574.526 38.1784 557.697C38.0755 557.323 36.8112 553.276 36.5799 554.405C36.5606 554.289 36.4164 553.989 36.362 554.246C37.2944 558.197 38.2401 562.148 39.2635 566.077C36.7495 565.721 34.0465 565.582 31.7457 566.83C31.627 566.894 31.7142 567.053 31.8315 567.033C34.5563 566.555 37.1842 567.459 39.8011 568.108C43.4765 580.786 48.2187 593.142 53.2382 605.344C51.6857 604.842 49.8838 605.397 48.2635 605.437C43.1604 605.971 38.1155 607.103 33.2945 608.862C27.2348 610.853 22.9503 613.45 22.7045 620.419M17.8156 527.904C16.3238 526.275 15.1514 524.196 15.378 521.99C16.2741 520.779 16.5708 519.199 17.0928 517.799C19.1333 511.941 21.0273 506.039 23.2482 500.244C27.9722 501.716 32.6199 503.482 37.0038 505.802C37.8103 506.219 38.6083 506.652 39.3967 507.1C40.2226 507.569 41.1235 508.384 42.1141 508.151C41.0315 509.704 38.8021 511.32 38.4255 513.115C38.3443 513.683 38.7415 514.21 39.3519 514.083C48.9053 520.96 58.7712 527.692 67.8015 535.352C74.5637 540.777 79.7552 545.177 82.0742 553.98C83.6376 559.682 83.6423 565.641 83.4123 571.504C83.3675 572.643 83.3663 573.81 83.2755 574.957C83.4111 575.815 83.1532 577.562 82.2013 577.593C82.2231 577.801 82.291 577.994 82.3987 578.163C82.3685 578.204 82.337 578.243 82.3043 578.283C82.2571 578.048 82.211 577.815 82.1674 577.58C81.4263 574.254 81.327 570.394 81.4505 566.852C81.5025 565.837 79.9659 565.861 79.8799 566.852C79.6486 569.53 79.4173 572.207 79.186 574.883C78.9086 576.618 79.3458 578.887 77.9774 580.206C76.586 578.903 77.0462 576.333 77.114 574.651C77.2229 571.909 77.3405 569.167 77.441 566.424C77.4725 565.555 76.052 565.331 75.8908 566.215C75.4344 568.734 74.9403 571.246 74.4085 573.751C74.0878 574.719 73.8674 579.063 72.264 578.309C71.3085 577.648 71.9976 573.771 71.8717 572.488C71.931 569.947 71.966 567.409 72.1502 564.875C72.2253 563.852 70.582 563.634 70.3567 564.633C69.991 566.249 69.641 567.865 69.3237 569.492C68.6274 572.235 68.8805 575.953 66.3665 577.776C65.382 570.651 66.7987 563.576 66.9974 556.477C66.8788 554.177 66.4888 551.899 66.1449 549.627C65.7647 547.114 65.543 544.378 66.4331 541.955C66.1897 540.869 65.233 543.805 65.1434 544.049C64.4229 542.611 62.6682 542.5 61.2804 542.051C58.196 541.04 55.0365 540.277 51.9158 539.377C43.6398 537.048 35.3543 534.755 27.0664 532.467C23.7556 531.538 20.2704 530.44 17.8156 527.904M100.689 565.8C99.5475 559.528 99.579 553.172 100.067 546.831C100.603 536.996 101.124 527.159 101.681 517.325C104.1 535.124 106.678 552.901 108.649 570.757C108.79 571.999 108.768 573.314 109.387 574.423C105.967 574.887 102.322 575.355 98.9965 574.176C100.456 571.62 100.97 568.709 100.689 565.8M117.969 521.62C120.554 538.489 119.079 555.654 121.587 572.503C118.108 572.899 114.656 573.484 111.213 574.127C111.59 572.045 110.875 569.896 110.752 567.8C108.882 552.849 106.817 537.909 104.081 523.089C103.41 519.542 102.732 516.01 101.955 512.483C102.072 510.347 102.175 508.211 102.243 506.074C106.04 503.655 110.32 502.09 114.748 501.3C115.944 508.055 117.139 514.805 117.969 521.62M88.0395 468.612C87.8881 468.35 87.744 468.082 87.606 467.81C88.0734 467.828 88.5287 467.845 88.9889 467.922C88.9683 468.673 89.0095 469.429 89.018 470.186C88.7878 469.633 88.3374 469.127 88.0395 468.612M166.126 574.322C155.083 566.185 136.945 571.369 124.152 572.206C121.713 555.999 122.709 539.529 120.436 523.296C118.342 507.079 116.134 490.635 110.876 475.097C108.706 469.09 104.952 467.306 98.7712 467.354C95.6348 467.229 92.3179 466.721 89.2699 466.793C88.6014 466.804 87.9027 466.893 87.2996 467.167C86.4519 465.23 85.9917 463.151 85.7592 461.056C85.7447 460.923 85.5776 460.899 85.5279 461.026C84.811 462.85 84.7347 464.841 85.1245 466.751C85.4068 468.119 87.0865 473.504 89.0374 471.397C89.1922 475.815 88.2344 481.092 83.9633 483.385C76.5 486.683 66.1835 483.68 61.8604 476.681C61.0249 475.282 60.3043 473.794 59.3791 472.451C65.8252 470.602 69.4435 462.775 67.9251 456.814C66.9865 461.45 65.2753 466.63 61.014 469.226C45.4963 469.191 32.5946 476.353 25.3045 490.148C23.8779 492.151 22.5591 494.233 21.3506 496.35C20.7002 497.767 18.7954 499.738 20.4121 501.106C18.5447 506.156 16.8881 511.277 15.137 516.367C14.6561 518.063 13.5566 519.842 13.7759 521.625C13.5385 522.724 13.5494 524.023 14.0932 525.08C14.609 526.963 15.7666 529.497 17.6861 530.296C19.3149 531.803 21.3748 532.842 23.5231 533.624C17.7938 548.796 15.6129 565.16 13.6717 581.191C11.7692 595.215 10.7872 612.275 22.7081 622.411C22.9394 625.311 24.6371 629.006 27.994 629.037C30.319 631.351 33.1528 630.082 35.7407 628.95C40.1087 627.311 44.6899 626.402 49.242 625.896C49.73 626.282 50.5244 626.218 50.9592 625.768C53.7166 625.123 57.5384 627.732 58.0955 625.369C61.6509 625.019 65.1676 624.364 68.7195 623.982C67.2226 625.95 67.3305 628.852 68.4579 630.979C65.5866 636.702 72.2749 640.017 76.3644 642.365C81.8852 645.605 87.6508 648.679 93.9647 650.022C99.5159 651.205 105.331 650.846 110.687 648.956C113.502 648.239 117.433 645.885 115.762 642.57C117.879 636.26 103.013 629.721 98.6405 626.562C100.428 626.336 100.493 622.576 95.8443 624.736C95.2824 624.356 94.7302 623.963 94.184 623.563C112.988 621.372 148.9 615.347 162.509 602.321C169.985 595.623 174.299 582.074 166.126 574.322" fill="black"/>
<path fill-rule="evenodd" clip-rule="evenodd" d="M73.9819 418.52C91.9273 417.626 100.025 430.432 100.549 436.152C100.913 440.122 98.5981 444.699 98.5981 448.247C98.5981 450.058 100.786 453.946 99.7674 456.585C97.5005 462.46 92.7007 468.981 86.5842 468.981C80.4678 468.981 72.5077 470.695 65.7493 460.887C65.1152 459.967 57.0945 454.737 56.3153 449.767C54.3743 437.387 61.177 419.158 73.9819 418.52Z" fill="white"/>
<path fill-rule="evenodd" clip-rule="evenodd" d="M73.1368 410.551C73.7785 409.807 74.8618 409.509 75.8244 409.567C77.2226 409.651 78.4387 410.525 79.8299 410.59C81.2884 410.659 82.6961 410.146 84.1583 410.384C85.0546 410.53 85.9426 410.951 86.5168 411.662C88.5059 411.085 90.6654 411.849 91.9323 413.518C93.4951 413.272 95.1953 414.321 95.6736 415.847C97.6592 415.912 99.5334 417.529 99.7548 419.554C100.548 419.767 101.237 420.321 101.66 421.054C102.151 421.904 102.233 422.878 102.144 423.836C103.078 424.319 103.553 425.359 103.677 426.458C104.531 427.103 104.902 428.264 104.727 429.359C105.381 429.733 105.719 430.601 105.715 431.377C105.711 432.1 105.522 432.741 105.788 433.439C106.026 434.061 106.111 434.58 105.98 435.231L105.967 435.295C105.944 435.401 105.925 435.503 105.907 435.603C106.084 435.76 106.233 435.957 106.346 436.186C106.755 437.024 106.694 437.979 106.382 438.829C106.519 439.37 106.501 439.941 106.299 440.461C106.678 441.014 106.877 441.692 106.818 442.395C106.753 443.182 106.398 443.887 105.86 444.408C106.003 445.484 105.572 446.646 104.792 447.403C104.902 448.047 104.807 448.722 104.459 449.332C104.212 449.767 103.878 450.091 103.494 450.317C103.506 450.676 103.458 451.043 103.34 451.411C103.177 451.922 102.899 452.392 102.535 452.771C102.752 454.182 101.919 455.748 100.452 456.144C100.328 456.177 100.211 456.192 100.098 456.195C99.9525 457.552 99.6343 458.89 99.1415 460.161C97.8889 463.397 95.6109 466.227 92.6403 467.992C91.171 468.865 89.5205 469.462 87.8358 469.712C86.6234 469.892 85.4572 469.847 84.2402 469.725C82.7127 469.57 81.1783 469.339 79.6936 468.94L79.4548 468.876C78.8393 468.709 78.1904 468.516 77.6572 468.179C77.0604 467.803 76.7504 467.222 76.613 466.538C76.5364 466.157 76.7743 465.748 77.1855 465.74L77.212 465.74C77.302 465.742 77.3912 465.738 77.4815 465.732L77.5495 465.728H77.553C77.5577 465.727 77.5602 465.727 77.5648 465.727C77.6051 465.721 77.6441 465.709 77.6832 465.703C78.1356 465.625 78.5312 465.702 78.956 465.845L79.0093 465.863C79.7244 466.113 80.4336 466.345 81.1724 466.516C81.936 466.693 82.7092 466.833 83.4847 466.943L83.5616 466.953L83.5853 466.957L83.5971 466.958V466.958C83.5995 466.958 83.6019 466.958 83.6042 466.959L83.8327 466.988V466.988C84.0128 467.009 84.1927 467.029 84.3726 467.048C84.7042 467.081 85.0357 467.108 85.3672 467.127C91.0893 467.453 95.895 462.887 97.3454 457.413C97.8711 455.432 97.9054 453.455 97.7503 451.478C97.7006 451.334 97.671 451.174 97.6722 450.999C97.6722 450.908 97.677 450.818 97.6828 450.727C97.49 448.814 97.1549 446.9 96.9452 444.98C96.7003 442.737 96.564 440.481 96.6137 438.224C96.6386 437.109 96.7558 436.005 96.9097 434.901L96.9654 434.504V434.504C96.2698 434.367 95.6231 434.032 95.1082 433.549C93.9907 434.203 92.5445 434.26 91.4415 433.57C90.2055 434.356 88.4785 434.427 87.2338 433.659C86.4815 434.203 85.5336 434.438 84.6032 434.231C84.1846 434.138 83.7685 433.937 83.4121 433.659C83.1577 433.705 82.8999 433.722 82.6436 433.709L82.5906 433.739V433.739C81.9998 434.054 81.3453 434.262 80.6718 434.239C80.1731 434.222 79.6594 434.122 79.1838 433.933C78.6757 434.244 78.1197 434.456 77.5249 434.532C76.6562 434.643 75.7188 434.449 74.9963 433.949C73.6761 434.711 72.0521 434.829 70.6271 434.317C70.3352 434.818 69.9314 435.25 69.4585 435.583C69.5432 435.89 69.5702 436.218 69.541 436.533C69.4932 437.052 69.3649 437.517 69.1549 437.935C69.3762 438.402 69.4428 438.975 69.3189 439.55C69.1424 440.37 68.6716 441.083 68.0621 441.639C68.0084 442.947 67.3003 444.175 66.1478 444.856C66.0894 444.891 66.0314 444.919 65.9735 444.944C65.9226 445.015 65.8617 445.077 65.7922 445.129C65.0594 445.815 63.8995 445.761 62.9809 445.373C62.9631 445.374 62.9455 445.375 62.9275 445.376C62.5994 445.384 62.3758 445.255 62.243 445.064C62.1094 445.071 61.9766 445.085 61.843 445.111C61.3551 445.203 60.8199 445.381 60.3783 445.611C59.2322 446.209 58.7018 447.265 58.5431 448.534C58.3704 449.919 58.7634 451.33 59.8208 452.267C60.3345 452.723 60.9916 453.009 61.6593 453.129C62.397 453.262 63.1855 452.935 63.7301 453.577C63.839 453.704 63.9136 453.881 63.8544 454.053C63.6697 454.588 63.3654 454.793 62.8895 454.868C63.5774 455.695 64.283 456.494 65.0644 457.237C65.9098 458.042 66.7836 458.822 67.5462 459.71C68.3523 460.649 69.0805 461.645 69.586 462.785C69.8749 463.441 70.107 464.116 70.3569 464.787L70.4015 464.904C70.6802 465.617 71.0509 466.304 70.622 467.048C70.4515 467.341 70.0655 467.624 69.7103 467.577C68.71 467.447 68.3749 466.762 68.067 465.869C67.8349 465.195 67.6573 464.501 67.4076 463.833C67.3609 463.709 67.31 463.587 67.2566 463.465C66.6797 463.628 66.0455 463.498 65.5307 463.165C64.9806 463.412 64.3712 463.535 63.7827 463.525C62.9946 463.511 62.2747 463.289 61.6557 462.889C61.6064 462.876 61.5569 462.863 61.5078 462.849C60.5662 463.214 59.4634 463.149 58.6109 462.556C58.0588 462.173 57.6813 461.661 57.4668 461.091C56.7534 461.077 56.0478 460.821 55.5367 460.308C55.0674 459.837 54.793 459.229 54.7116 458.598C54.0976 458.475 53.5219 458.174 53.0705 457.667C52.6935 457.244 52.4644 456.705 52.387 456.145C51.6392 455.929 50.9648 455.434 50.5964 454.744C50.2537 454.102 50.2042 453.405 50.3718 452.771L50.3284 452.708V452.708C49.5581 452.299 48.9703 451.63 48.9099 450.675C48.8928 450.403 48.9217 450.13 48.9945 449.873C48.9682 449.585 48.9851 449.297 49.0595 449.019C48.0236 447.998 47.6482 446.357 48.2106 445.001C47.1983 443.897 46.9307 442.151 47.6731 440.841C47.164 440.217 46.9023 439.421 46.9461 438.572C47.0006 437.511 47.4801 436.585 48.0543 435.727C47.6281 435.249 47.4008 434.583 47.4175 433.94C47.441 433.007 47.93 432.205 48.5423 431.54C48.0082 429.898 48.6049 428.117 49.9155 427.078C49.6503 426.635 49.5521 426.087 49.6386 425.531C49.79 424.561 50.5087 423.899 51.2842 423.376C51.122 422.841 51.1646 422.264 51.4227 421.711C51.7673 420.973 52.4173 420.505 53.0957 420.109C53.2709 418.472 55.0753 417.074 56.5884 417.919C56.2131 416.701 57.2942 415.385 58.5373 415.246C59.1458 413.377 61.245 412.198 63.1322 412.663C64.0971 411.326 65.8932 410.811 67.4182 411.385C69.0948 410.083 71.1749 409.889 73.1368 410.551ZM61.194 447.26C62.3721 447.195 63.2553 448.169 63.8759 449.061C64.4583 449.897 62.9641 450.781 62.5284 449.859C62.3721 449.53 62.1945 449.182 61.9565 448.894C61.9166 448.951 61.8813 449.01 61.8461 449.07L61.8109 449.131C61.7848 449.175 61.7576 449.221 61.7351 449.267C61.7375 449.276 61.702 449.386 61.7008 449.391C61.6037 449.69 61.3918 449.882 61.103 449.985C60.7299 450.117 60.3771 449.833 60.2575 449.499C60.067 448.966 60.5097 448.502 60.9703 448.291C60.518 448.216 60.0728 448.372 59.746 448.725C59.7012 448.774 59.6253 448.735 59.623 448.673C59.585 447.837 60.4481 447.301 61.194 447.26Z" fill="black"/>
<path fill-rule="evenodd" clip-rule="evenodd" d="M87.0257 459.831C86.2298 459.502 85.5196 458.953 85.0005 458.252C84.82 458.008 84.7732 457.751 84.811 457.515C84.8536 457.251 85.0081 457.011 85.2189 456.85C85.4303 456.688 85.6947 456.609 85.9504 456.649C86.1725 456.685 86.3937 456.808 86.5687 457.064L86.6052 457.115C86.9139 457.538 87.3161 457.885 87.7744 458.109C88.2161 458.325 88.7102 458.425 89.2214 458.367C90.1951 458.255 90.8662 457.722 91.5795 456.997C91.6679 456.905 91.7564 456.811 91.8453 456.715C91.9014 456.628 91.9793 456.572 92.0659 456.543C92.1619 456.511 92.2706 456.512 92.3701 456.548C92.4661 456.582 92.5519 456.646 92.6094 456.731C92.6641 456.813 92.6951 456.913 92.685 457.029C92.6197 457.78 92.2323 458.45 91.682 458.977C91.0707 459.561 90.2605 459.966 89.4977 460.108C88.6574 460.264 87.8011 460.152 87.0257 459.831V459.831ZM89.8942 448.244C90.7882 448.795 92.1505 450.079 91.1887 451.445C90.0566 452.649 88.4266 451.268 87.6233 450.644C86.8785 450.16 86.0417 451.405 86.7327 451.97C92.537 456.325 94.8925 448.388 90.3464 447.597C89.8458 447.509 89.6599 448.074 89.8942 448.244ZM79.4929 443.178C79.5917 441.935 81.4591 441.653 81.6449 442.882C81.8112 443.984 81.6154 444.996 81.1258 445.988C80.658 446.935 79.4823 446.493 79.3934 445.631C79.2742 444.474 79.4314 443.951 79.4929 443.178ZM93.7081 442.628C93.9684 442.282 94.3443 442.046 94.7947 442.179C96.2019 442.596 95.7871 444.621 95.2929 445.606C95.0244 446.142 94.1564 446.277 93.7642 445.806C93.1248 445.038 92.8187 443.503 93.6315 442.746C93.6535 442.707 93.678 442.667 93.7081 442.628ZM81.106 437.74L81.3283 437.7C82.0159 437.58 82.8709 437.464 83.3573 438.024C83.6153 438.321 83.7041 438.874 83.3573 439.158C82.7473 439.658 82.0729 439.465 81.342 439.507C80.7395 439.542 80.1606 439.643 79.5803 439.811C78.3073 440.18 77.27 440.853 76.1828 441.592C76.0401 441.689 75.8945 441.504 75.9626 441.369C76.5902 440.123 77.8065 439.1 79.0248 438.476C79.675 438.143 80.3866 437.867 81.106 437.74ZM92.4253 437.182L92.5955 437.217C94.4469 437.609 96.8523 438.393 97.729 440.236C97.7624 440.496 97.7271 440.552 97.6984 440.589L97.6888 440.601C97.6652 440.632 97.6463 440.675 97.5349 440.711C97.5039 440.703 97.4727 440.695 97.4411 440.687C97.0393 440.58 96.7213 440.433 96.4135 440.28L96.0797 440.114C95.6925 439.921 95.3018 439.736 94.8879 439.599C94.0044 439.307 93.0956 439.101 92.1728 438.991C91.9728 438.968 91.7802 438.899 91.6282 438.782C91.484 438.671 91.3738 438.516 91.3236 438.312C91.2585 438.046 91.2772 437.846 91.4175 437.607C91.523 437.427 91.674 437.303 91.8474 437.231C92.0241 437.158 92.2253 437.141 92.4253 437.182Z" fill="black"/>
<ellipse cx="1210" cy="216" rx="94" ry="91" fill="#FFBCBC" fill-opacity="0.2"/>
<path fill-rule="evenodd" clip-rule="evenodd" d="M808.007 117.728C808.675 117.537 809.51 117.488 810.242 117.453C812.826 117.301 815.462 118.528 817.996 119.08C819.106 119.353 820.28 119.675 821.467 119.914C822.521 120.056 823.611 120.163 824.706 120.231C825.592 120.257 826.622 120.19 826.925 121.116C828.704 121.46 830.28 121.602 831.976 121.311C831.818 120.773 831.727 120.21 831.891 119.631C831.808 119.494 831.696 119.308 831.635 119.183H831.839C834.817 117.997 838.037 117.187 841.031 115.958C844.938 114.556 850.693 111.849 855.207 110C854.901 108.332 854.788 106.638 854.917 104.99L854.736 104.845C854.676 104.521 854.584 104.133 854.416 103.84C854.203 103.278 854.198 102.51 854.113 101.875C853.937 100.632 853.819 98.7599 854.14 97.2839C854.281 95.2824 855.636 93.7395 857.098 92.5018C858.894 90.7352 860.691 89.0117 862.443 87.177C872.142 77.3385 872.909 64.9469 888.092 61.1808L888.099 61.1224C888.219 60.9896 888.268 60.8842 888.404 61.0941C888.905 60.9029 889.53 60.9189 889.95 60.5958C890.696 59.9193 891.224 59.1384 891.57 58.2116C891.836 56.4598 891.648 53.7597 893.19 52.6388C894.904 51.6177 904.006 50.8906 904.791 53.1232C905.278 53.5783 905.499 54.1566 905.652 54.8645C906.159 55.8191 906.479 56.8776 906.99 57.8468C908.076 60.0207 908.78 59.5389 910.697 60.0357C910.906 59.5741 911.537 59.6671 911.998 59.7341C917.575 60.514 924.374 62.6422 926.762 67.858L926.558 67.8322C930.68 75.5374 928.007 85.3364 927.27 93.5018C926.674 100.76 927.355 108.053 928.976 114.823C930.965 122.005 931.079 130.039 927.133 136.54C926.732 137.284 926.243 138.336 925.379 137.869C924.906 138.226 924.374 138.472 923.639 138.686C923.436 138.832 923.227 139.078 923.015 139.183C923.005 139.197 922.663 139.001 922.645 138.996C922 139.912 886.575 142.974 882.899 143.449C879.66 143.838 875.381 144.83 872.742 142.505C870.56 141.885 868.278 140.271 866.535 138.668C865.477 153.932 864.892 185.193 863.948 185.411C863.535 185.55 862.978 185.717 862.51 185.85C862.508 186.947 862.426 188.193 862.512 189.271C862.657 190.489 863.024 191.927 863.19 193.207C863.904 193.159 864.114 193.872 864.197 194.356C864.814 198.355 864.796 201.579 864.751 205.974C857.504 210.222 849.01 212.559 840.854 215.304C840.073 215.888 838.381 215.256 837.479 215.098C834.347 214.485 830.789 212.67 831.58 209.343C832.158 206.838 834.588 205.396 836.634 203.922C838.872 202.309 841.231 200.697 843.289 198.776C844.94 197.229 846.173 196.028 847.549 194.282C848.16 193.469 848.811 192.135 849.633 191.536C848.765 190.512 850.519 191.472 851.183 191.531C851.573 189.702 852.057 187.945 852.637 186.191L852.073 186.216C850.222 184.496 849.185 176.24 849.056 173.79C848.128 157.822 848.15 139.418 851.872 125.971C849.045 127.703 845.945 129.15 843.134 130.863C841.361 131.896 839.563 133.331 837.576 133.832C837.446 134.202 836.972 134.346 836.714 133.984C836.358 134.027 835.9 133.88 835.861 133.719C835.497 132.979 834.97 132.181 835.033 131.377C835.033 131.377 835.521 130.25 835.521 130.25C834.428 130.693 833.239 131.623 832.072 131.709C829.715 139.542 825.07 135.154 820.6 132.105C817.902 130.23 814.952 128.159 812.113 126.159C809.704 124.252 805.002 122.443 807.307 118.667" fill="white"/>
<path fill-rule="evenodd" clip-rule="evenodd" d="M909.33 59.5568C907.053 59.0062 906.664 53.5742 905.289 54.3477C904.494 55.0355 905.794 56.3332 906.024 57.1095L906.125 57.3067C906.592 58.2109 907.119 59.1121 908.038 59.6335C908.629 60.2526 910.395 59.6447 910.136 60.6308C909.229 63.6024 904.416 65.6602 901.58 66.5855C897.171 68.2336 890.039 67.6759 889.003 62.1512C891.421 61.7106 893.209 57.3681 891.718 55.5601C891.668 57.3163 891.186 59.1288 889.8 60.3187L889.724 60.3885C889.48 60.6099 889.165 60.8742 888.85 60.825C888.543 60.3998 887.948 60.6416 887.772 61.0905C874.003 63.4592 870.936 78.2386 862.265 86.9378C860.533 88.7526 858.722 90.4903 856.935 92.2499C855.11 93.6913 853.818 95.7008 853.728 98.0603C853.565 99.3726 853.646 100.686 853.82 102L853.832 102.119C853.913 102.934 853.961 103.809 854.351 104.532C854.418 104.777 854.391 105.087 854.604 105.26C854.511 106.759 854.599 108.286 854.854 109.781L854.19 110.076C846.88 113.316 839.485 116.37 831.863 118.799C831.212 118.681 831.265 119.435 831.58 119.778C831.497 120.181 831.488 120.6 831.585 120.999C830.19 121.198 828.772 121.032 827.394 120.779C826.958 119.824 825.8 119.875 824.905 119.848C823.792 119.779 822.682 119.671 821.578 119.517C818.857 118.912 816.185 118.116 813.49 117.417C811.686 116.912 809.742 116.936 807.933 117.4C807.625 117.743 807.341 118.109 807.102 118.498C805.448 121.05 807.078 123.388 809.386 124.728C813.089 127.341 816.794 129.95 820.514 132.538L820.784 132.73C825.21 135.883 830.189 139.873 832.553 132.2C833.347 132.108 834.043 131.577 834.783 131.264C834.584 132.185 835.179 133.115 835.589 133.904C835.765 134.354 836.248 134.502 836.693 134.498C837.075 134.87 837.791 134.724 838.04 134.282C840.063 133.706 841.735 132.36 843.526 131.314C846.072 129.775 848.743 128.463 851.326 126.989C847.035 144.67 848.085 163.086 849.227 181.084L849.235 181.246C849.376 183.874 849.982 185.117 852.172 186.727C851.79 187.885 851.449 189.048 851.189 190.24C851.097 190.516 850.674 190.256 850.67 190.635C849.892 190.454 848.311 190.648 848.863 191.719C847.301 193.023 846.243 194.791 844.874 196.278C842.463 199.154 839.31 201.295 836.22 203.405C829.115 207.008 828.707 213.252 837.02 215.385L837.104 215.404C838.248 215.678 839.627 216.305 840.737 215.777C842.397 215.459 844.044 214.815 845.669 214.325C852.209 212.171 858.605 209.649 864.803 206.751C865.027 206.646 865.155 206.405 865.16 206.164C865.091 204.176 865.634 193.278 863.562 193.044C863.099 190.818 863.027 188.519 863.111 186.247C863.783 186.037 864.462 185.834 865.159 185.702C865.835 185.49 866.892 185.443 867.344 184.898C867.507 184.839 867.626 184.695 867.602 184.466C867.236 181.051 866.958 177.627 866.756 174.199C866.062 162.702 866.298 151.169 867.087 139.684C868.715 141.084 870.569 142.311 872.634 142.963C873.773 144.099 875.6 144.343 877.156 144.481C879.156 144.604 881.121 144.206 883.095 143.959C886.447 143.539 889.776 143.911 893.104 144.322L894.241 144.464C902.388 145.353 911.193 145.537 918.786 142.071C920.216 142.198 921.991 140.66 922.882 139.633C923.276 139.875 923.663 139.402 923.977 139.153C924.495 138.997 925.083 138.772 925.553 138.443C926.745 138.832 927.388 137.291 927.841 136.453C935.03 124.202 927.024 112.008 927.626 99.0165C927.262 88.8314 931.93 78.2203 927.418 68.4518C926.505 64.3181 921.167 61.4612 917.149 60.4105C915.854 60.1978 910.952 58.4341 910.412 59.9172C910.157 59.5834 909.721 59.5584 909.33 59.5568ZM849.698 192.196C850.372 192.268 851.029 192.309 851.694 192.431C854.125 192.828 856.443 193.764 858.532 195.065C859.208 195.485 859.812 196.014 860.588 196.248C862.184 196.824 863.751 195.393 863.634 193.846C864.079 197.734 864.003 201.735 863.772 205.643C857.533 208.452 851.154 210.957 844.659 213.132C843.196 213.742 841.465 213.938 840.121 214.762C837.831 214.618 835.525 213.818 833.601 212.567C830.41 210.363 832.529 206.869 835.174 205.331C840.998 202.716 845.954 197.423 849.698 192.196ZM862.457 186.446C862.579 187.598 861.699 189.394 861.823 191.691C861.918 192.409 862.143 193.16 862.065 193.88C861.707 196.552 858.8 193.157 857.599 192.785C855.893 191.852 854.04 191.216 852.136 190.869C852.147 190.252 852.557 190.007 852.611 189.398C852.688 188.501 852.685 187.639 852.725 186.734C855.202 187.855 859.829 187.062 862.457 186.446ZM849.111 192.022C849.154 192.051 849.2 192.075 849.246 192.097C848.902 192.512 848.604 192.972 848.196 193.329L848.369 193.06C848.602 192.702 848.84 192.345 849.111 192.022ZM926.042 96.4424C926.166 96.9472 926.394 97.4218 926.734 97.8255C924.976 112.014 934.023 123.841 925.705 137.033C925.6 137.082 925.504 137.142 925.411 137.218C925.363 137.186 925.314 137.152 925.266 137.118C921.367 130.252 915.817 124.33 911.395 117.761C910.546 116.111 909.149 114.452 908.614 112.546C917.501 109.055 921.05 103.96 926.042 96.4424ZM809.095 117.963C809.472 118.097 809.891 117.986 810.293 117.979C811.721 117.949 813.116 118.32 814.481 118.694C818.452 119.775 822.445 120.732 826.513 121.372C826.595 121.457 826.674 121.543 826.745 121.634C826.675 121.753 826.664 121.902 826.766 122.049C827.38 123.216 826.884 124.644 827.33 125.893C827.976 128.422 829.694 131.274 832.259 132.171C831.404 132.982 830.791 134.026 829.91 134.809C827.744 136.286 825.36 134.084 823.592 132.904C820.226 130.538 816.852 128.188 813.468 125.848C811.952 124.598 808.599 123.022 807.873 121.366C807.409 120.096 808.254 118.859 809.095 117.963ZM832.29 121.187C833.738 124.127 834.575 127.253 835.411 130.41C834.541 130.648 833.74 131.021 832.884 131.272C831.68 131.542 829.979 129.225 829.375 128.305C828.752 127.277 828.316 126.147 828.114 124.963C827.943 123.803 828.125 122.599 827.618 121.525C829.188 121.684 830.78 121.718 832.29 121.187ZM918.416 115.12C917.055 114.741 920.15 117.804 920.328 118.131C922.341 120.495 924.184 122.992 926.014 125.497L926.569 126.257C926.622 126.334 926.989 126.875 926.724 126.806C926.699 126.8 926.688 126.831 926.707 126.845C928.399 127.142 919.232 115.328 918.416 115.12ZM885.25 113.675C885.14 113.345 885.662 113.204 885.772 113.532L886.119 114.571C887.428 118.498 888.729 122.43 890.293 126.265C890.424 126.587 889.9 126.727 889.77 126.409C888.069 122.236 886.679 117.947 885.25 113.675ZM870.037 112.3C870.514 114.553 871.72 116.584 872.451 118.737C871.078 118.436 870.021 117.164 869.221 116.069L869.197 116.032C868.82 115.454 868.381 114.551 867.524 114.959C866.223 115.711 867.155 118.379 867.179 119.643C867.344 121.376 867.91 122.997 868.296 124.681C867.304 124.006 867.019 122.676 866.536 121.64L864.675 117.198V117.198C863.308 115.333 863.943 120.918 864.014 121.445C864.125 122.603 864.615 123.768 864.423 124.933C863.651 124.107 863.165 123.069 862.757 122.016C862.191 120.551 861.674 119.068 861.135 117.593C860.949 117.121 860.242 117.287 860.345 117.807C860.38 119.48 860.407 121.154 860.434 122.827L860.454 124.082C860.458 124.32 860.576 125.015 860.163 124.823C857.994 122.557 857.438 118.028 857.72 114.984C861.984 115.087 866.333 114.536 870.037 112.3ZM832.099 120.751C832.116 120.806 832.136 120.862 832.157 120.917C832.144 120.92 832.131 120.922 832.119 120.925C832.111 120.867 832.104 120.809 832.099 120.751ZM926.72 120.751C927.193 120.403 919.244 110.247 919.759 113.179C921.976 115.79 924.562 118.078 926.72 120.751ZM856.522 98.3079C863.956 96.5702 870.502 103.062 877.967 102.081C877.881 104.407 877.761 106.748 877.808 109.074C867.894 109.888 869.022 114.087 857.61 113.664C856.135 112.681 855.53 106.657 855.654 104.838C855.559 102.688 857.418 101.722 859.27 101.345C859.94 101.747 861.14 100.547 860.147 100.125C858.839 99.7338 857.615 99.1181 856.522 98.3079ZM911.362 60.1972C914.007 60.4566 916.626 61.1739 919.057 62.2824C928.042 64.8638 929.337 75.3309 928.257 83.2629C927.809 89.2949 926.081 95.1943 922.447 100.099C912.772 114.783 896.747 112.458 881.569 110.516C881.022 110.137 880.095 110.406 879.567 109.906C879.623 109.887 879.672 109.861 879.715 109.828C879.461 109.632 879.265 109.286 879.207 108.92L879.098 108.93V108.93C878.99 106.653 879.076 104.42 879.041 102.161C884.029 100.8 889.378 100.104 894.432 98.7483C895.007 99.1471 895.669 98.6882 896.23 98.4715C897.685 97.8556 899.153 97.2706 900.632 96.7136L901.002 96.5749C901.965 96.2154 902.929 95.8466 903.883 95.4623L904.241 95.3174C904.788 95.0948 906.169 94.2707 906.766 94.7852L906.718 94.8885C906.364 95.6568 905.145 98.4996 906.644 97.9374C907.86 97.0871 908.491 91.1578 909.696 91.1054C910.111 92.2093 910.408 93.3551 910.475 94.5351C910.5 94.8006 910.85 95.0245 911.061 94.7764C912.49 92.9031 910.332 90.8626 910.274 88.8854C910.138 86.5862 911.16 84.435 911.669 82.2344L911.7 82.0826C911.999 80.6549 912.463 78.9239 912.34 77.6435L912.044 78.755C911.746 79.8671 911.441 80.9795 911.092 82.0761C910.224 84.8148 908.658 87.6365 909.528 90.567C907.782 90.6249 907.486 93.3684 906.83 94.6214C905.769 93.2506 898.3 96.5375 896.595 97.0648L896.267 96.6936C890.929 90.6696 887.075 86.5928 878.802 91.3579C880.231 86.7692 880.37 81.8954 880.613 77.1304C880.53 76.2239 881.056 73.8327 880.314 73.3379C880.185 73.3566 880.06 73.3954 879.941 73.447L879.941 73.9166C879.938 74.8265 879.895 76.3352 879.512 76.6779L879.336 78.4794C878.875 83.1639 878.353 87.8448 876.947 92.3591C873.574 94.2365 870.495 96.5871 867.599 99.1231L867.269 99.0033C863.69 97.6993 859.385 96.0279 855.726 97.6553C855.787 96.7365 856.143 95.8572 856.64 95.0801C857.469 94.8755 858.012 94.0055 858.605 93.4262C860.486 91.4155 862.416 89.4508 864.254 87.3996C872.094 79.0051 875.429 65.2208 887.741 61.9648C888.555 68.7481 897.274 69.8305 902.528 67.509L902.727 67.433C905.994 66.1783 909.685 64.2846 910.832 60.8347L910.879 60.7349C910.997 60.4916 911.138 60.2435 911.362 60.1972ZM909.424 98.7986C909.415 98.7881 909.396 98.8021 909.404 98.8138C910.935 100.726 912.181 103.334 910.66 105.617C910.378 106.132 911.036 106.626 911.456 106.234C913.568 103.847 911.225 100.612 909.424 98.7986ZM856.166 99.2305C857.008 99.8287 857.91 100.326 858.867 100.717C858.864 100.827 858.917 100.944 858.966 101.03C857.707 101.13 856.396 101.454 855.513 102.367C855.47 102.033 855.428 101.698 855.396 101.363C855.314 100.501 855.463 99.7291 856.166 99.2305ZM914.05 90.7786L914.04 90.7325C914.033 90.6803 913.953 90.6767 913.956 90.7325C913.985 91.416 914.485 91.9022 914.908 92.3889C915.536 93.1109 916.164 93.8327 916.792 94.5545C917.842 95.8123 919.39 97.0768 919.042 98.899C919.035 99.5462 919.85 99.685 920.181 99.209C921.496 96.713 917.357 94.5894 915.961 92.9791C915.306 92.2822 914.274 91.7693 914.05 90.7786V90.7786ZM894.341 98.2721C894.322 98.3032 894.308 98.3368 894.3 98.3713C894.08 98.3946 893.86 98.4196 893.641 98.4464L894.341 98.2721V98.2721ZM927.265 92.4345C927.226 92.6953 927.189 92.9567 927.154 93.2184L927.119 93.4801L927.114 93.4572C927.096 93.3893 927.062 93.3303 927.018 93.2832L927.003 93.2679C927.094 92.9915 927.181 92.7137 927.265 92.4345ZM866.835 89.7349C866.307 89.6789 868.697 91.3892 868.829 91.6009C869.022 91.7676 869.247 91.4714 869.042 91.327C868.299 90.8055 867.567 90.2703 866.835 89.7349ZM871.485 84.7036C871.117 84.554 870.868 85.1623 871.216 85.3318C872.484 85.9492 873.825 86.3859 874.993 87.1982C875.045 87.2338 875.109 87.1508 875.06 87.1126L874.92 87.0021C873.844 86.1515 872.769 85.227 871.485 84.7036ZM926.828 77.0129C926.473 78.6739 924.556 79.2194 923.068 79.6618L922.603 79.8381C921.289 80.3386 919.928 80.9017 918.982 81.9594C918.612 83.1524 921.256 81.0742 921.625 80.969C923.43 79.8547 926.692 79.6654 926.828 77.0129ZM887.687 61.5041C887.677 61.5885 887.672 61.6748 887.669 61.761C887.558 61.761 887.448 61.7619 887.336 61.7655C887.466 61.6899 887.585 61.6037 887.687 61.5041Z" fill="black"/>
<path fill-rule="evenodd" clip-rule="evenodd" d="M893.861 58.7431C895.761 58.7543 897.376 58.2177 898.609 57.33C900.146 56.7843 902.001 55.9426 903.128 55.059C903.567 55.1706 904.093 54.706 904.429 54.4608C906.52 52.9068 908.162 50.6322 908.648 48.3538C909.399 49.297 910.467 49.3362 911.491 48.8674C913.636 47.6566 913.556 45.1069 912.784 43.202C914.407 39.5762 915.533 30.0043 913.054 26.1412C912.547 25.5633 911.803 25.2175 911.267 24.6248C910.791 24.1071 910.337 23.5776 909.783 23.1679C908.091 21.8862 905.176 21.2037 903.351 20.8828C895.733 19.2437 889.88 22.1898 882.98 24.6748C883.377 25.6631 883.927 26.5644 884.556 27.4049C882.843 28.0412 883.63 29.472 884.959 30.1973L885.75 29.8146C884.517 34.2063 881.678 45.1274 882.903 48.6345C883.88 54.106 888.166 58.7828 893.861 58.7431" fill="white"/>
<path fill-rule="evenodd" clip-rule="evenodd" d="M892.758 59.2141C895.225 59.4662 898.156 58.8857 899.801 56.891C899.85 56.8313 899.872 56.7637 899.873 56.6985C899.874 56.6259 899.85 56.5557 899.808 56.5012C899.763 56.4438 899.7 56.4039 899.627 56.3909C899.566 56.38 899.497 56.387 899.425 56.4271L899.274 56.5109C898.15 57.1283 896.984 57.6549 895.711 57.8803C894.4 58.1123 893.065 58.0863 891.766 57.7917C889.4 57.2551 887.485 55.8863 886.075 54.0815C884.502 52.0675 883.557 49.5108 883.317 46.9539C883.025 43.8553 883.702 40.7756 884.402 37.7753C885.138 34.6229 885.942 31.4865 886.876 28.3864C886.904 28.2931 886.912 28.2058 886.904 28.1253C887.179 28.0179 887.473 28.0477 887.764 28.1458C888.298 28.325 888.829 28.7291 889.272 29.0627C889.433 29.1835 889.582 29.2958 889.716 29.3872C890.266 29.7613 890.866 30.0305 891.538 30.0729C892.236 30.1168 892.921 29.9008 893.555 29.6304C893.878 29.493 894.195 29.3505 894.511 29.2086C895.41 28.8045 896.299 28.4044 897.27 28.1443C898.571 27.7958 899.915 27.6241 901.263 27.6364C903.668 27.6583 906.08 28.2744 907.555 30.299C908.152 31.1191 908.541 32.0616 908.237 33.0738C908.072 33.6244 907.761 34.1242 907.42 34.5839L907.304 34.7405C907.117 34.9928 906.955 35.2442 906.906 35.5117C906.865 35.7359 906.897 35.973 907.058 36.233C907.159 36.3966 907.288 36.5433 907.417 36.6895C907.511 36.795 907.605 36.9003 907.685 37.0137C907.848 37.2423 907.992 37.4884 908.104 37.7452C908.325 38.2478 908.419 38.7884 908.439 39.3337C908.462 39.9915 908.369 40.635 908.277 41.2794C908.212 41.7364 908.147 42.1938 908.12 42.6567C908.116 42.7375 908.141 42.7977 908.175 42.8423C908.218 42.8968 908.28 42.9311 908.351 42.9406C908.372 42.9435 908.394 42.944 908.417 42.942C908.406 42.9866 908.396 43.0313 908.388 43.0762C908.432 43.0191 908.48 42.9636 908.53 42.91C908.533 42.9084 908.536 42.9068 908.539 42.9051C908.591 42.8768 908.635 42.8337 908.662 42.7783C908.733 42.7126 908.809 42.6503 908.888 42.5917C909.298 42.287 909.777 42.1064 910.258 42.1004C910.721 42.0946 911.186 42.2516 911.543 42.5833C912.253 43.2425 912.461 44.3187 912.469 45.2426C912.476 46.1858 912.257 47.3177 911.43 47.9033C911.099 48.1382 910.694 48.2794 910.286 48.2834C909.948 48.2868 909.625 48.1678 909.306 48.0544C909.208 48.0194 909.11 47.9846 909.013 47.9531C908.902 47.9172 908.801 47.9195 908.713 47.9457C908.614 47.9753 908.53 48.0363 908.467 48.1178C908.404 48.1989 908.363 48.3004 908.35 48.4068C908.338 48.5098 908.352 48.6167 908.396 48.7131C908.407 48.7374 908.419 48.7609 908.431 48.784L908.249 49.0814C907.553 50.2172 906.845 51.3323 905.916 52.3086C905.384 52.8689 904.819 53.3977 904.199 53.8606L904.11 53.9266C904.056 53.9657 903.997 54.0139 903.934 54.0654C903.753 54.2125 903.536 54.4099 903.334 54.4176C903.274 54.42 903.222 54.4125 903.174 54.4063C903.059 54.3912 902.962 54.3868 902.867 54.4254C902.791 54.4564 902.712 54.5142 902.63 54.6338C902.575 54.7147 902.547 54.8162 902.547 54.9192C902.547 55.0226 902.575 55.1261 902.626 55.2079C902.732 55.3773 902.859 55.4821 902.997 55.5417C903.151 55.6081 903.321 55.6182 903.498 55.5854C903.934 55.5044 904.417 55.1451 904.724 54.9105L904.784 54.8652C905.464 54.3487 906.109 53.7771 906.676 53.1378C907.641 52.0493 908.509 50.7665 908.954 49.3649C909.268 49.5701 909.656 49.6676 910.061 49.6829C910.652 49.7053 911.277 49.554 911.738 49.3365C912.754 48.8573 913.37 47.9508 913.66 46.9084C913.995 45.6979 913.886 44.3062 913.461 43.2187C913.449 43.1871 913.436 43.1556 913.423 43.1236C914.731 39.8249 915.133 36.162 915.021 32.6416C914.969 30.9938 914.856 29.265 914.465 27.6579C914.29 26.9377 913.986 26.2517 913.5 25.6846C913.224 25.3613 912.884 25.1095 912.542 24.8585C912.247 24.641 911.95 24.4241 911.7 24.1526L911.582 24.0236C911.557 23.9956 911.531 23.9676 911.506 23.9396C911.074 23.4666 910.655 23.0077 910.131 22.6197C909.524 22.17 908.855 21.8179 908.159 21.5256C906.66 20.8959 905.046 20.5184 903.45 20.2263C899.997 19.5945 896.452 19.5634 893.041 20.4514C891.455 20.8643 889.916 21.4293 888.38 21.9938C888.237 22.0462 888.095 22.0986 887.952 22.1508C886.758 22.5883 885.564 23.024 884.369 23.4597C883.814 23.6621 883.259 23.8646 882.703 24.0673C882.583 24.1112 882.465 24.206 882.398 24.3237C882.332 24.4386 882.313 24.5725 882.366 24.7059C882.706 25.5648 883.136 26.3706 883.659 27.1231C883.477 27.2462 883.323 27.4099 883.206 27.6014C883.058 27.8437 882.97 28.1305 882.964 28.4348C882.944 29.4539 883.876 30.1447 884.649 30.6444C884.721 30.691 884.793 30.7185 884.861 30.7311C884.112 33.5817 883.395 36.4419 882.786 39.3248L882.744 39.5246C882.116 42.5417 881.711 45.6207 882.305 48.6779C882.816 51.3104 884.004 53.8512 885.859 55.8123C887.678 57.7344 890.118 58.9444 892.758 59.2141ZM909.004 41.8579C909.327 40.8376 909.498 39.7275 909.375 38.6932C909.297 38.0431 909.1 37.4172 908.781 36.8441C908.597 36.5159 908.374 36.2121 908.131 35.926L908.047 35.8298C908.004 35.7808 907.962 35.7356 907.949 35.6791C907.941 35.6462 907.949 35.6103 907.969 35.5673C908.013 35.4722 908.096 35.3805 908.173 35.2911C908.222 35.2342 908.27 35.1784 908.311 35.1241C909.019 34.1702 909.547 33.0346 909.375 31.825C909.208 30.6448 908.431 29.5447 907.603 28.7157C905.781 26.8902 902.957 26.4707 900.483 26.5714C899.042 26.63 897.604 26.8826 896.232 27.3239C895.556 27.5416 894.895 27.8066 894.252 28.1105L894.11 28.1785C894.033 28.2155 893.956 28.2529 893.879 28.2904C893.377 28.5356 892.873 28.7831 892.328 28.9164C891.263 29.1767 890.54 28.6285 889.781 28.0757C889.521 27.8863 889.256 27.6942 888.975 27.5256L888.918 27.4916C888.411 27.1994 887.805 27.0027 887.223 27.0115C886.717 27.0191 886.229 27.1798 885.832 27.5595C885.751 27.6375 885.704 27.7227 885.682 27.8074C885.638 27.8687 885.602 27.9418 885.579 28.0282C885.437 28.5594 885.295 29.0911 885.154 29.6229L885.039 29.5489C884.697 29.3279 884.325 29.0753 884.157 28.7055C884.093 28.5632 884.102 28.3261 884.183 28.1518C884.212 28.0909 884.249 28.0367 884.301 28.0029C884.339 27.9783 884.385 27.9668 884.438 27.971C884.567 27.9876 884.685 27.9688 884.785 27.9266C884.901 27.8779 884.993 27.7979 885.053 27.7014C885.114 27.6025 885.142 27.4864 885.127 27.3659C885.115 27.2623 885.07 27.1541 884.981 27.0525C884.398 26.3833 883.907 25.6452 883.533 24.844L886.003 23.9347C886.883 23.6107 887.764 23.2871 888.645 22.9647L889.127 22.7883C890.73 22.2034 892.341 21.6319 894.007 21.2554C897.318 20.5072 900.771 20.683 904.073 21.3873L904.273 21.4302C905.658 21.7309 907.063 22.0947 908.334 22.7271C908.959 23.0375 909.552 23.4149 910.062 23.8918C910.287 24.1024 910.49 24.3329 910.694 24.5632C910.979 24.8859 911.265 25.2077 911.604 25.4795L911.918 25.7304C912.387 26.1059 912.809 26.4718 913.073 27.0543C913.35 27.6632 913.482 28.3359 913.589 28.9913C913.861 30.6423 913.968 32.3198 913.958 33.9921C913.94 36.8002 913.512 39.551 912.97 42.2922C912.536 41.6733 911.925 41.1936 911.142 41.0913C910.631 41.0246 910.125 41.1194 909.686 41.3441C909.432 41.474 909.201 41.6473 909.004 41.8579V41.8579ZM909.825 45.1923C910.397 44.9717 910.997 44.8995 911.603 45.005C911.666 45.0159 911.726 45.0028 911.777 44.9734C911.829 44.9436 911.869 44.8965 911.892 44.8445C911.917 44.7843 911.918 44.7192 911.896 44.6614C911.876 44.6112 911.839 44.5625 911.771 44.5299C911.115 44.2187 910.387 44.0814 909.664 44.1791L909.593 44.1892C909.223 44.2437 908.703 44.3586 908.313 44.5845C908.007 44.7621 907.783 45.0069 907.727 45.3266C907.698 45.4932 907.74 45.6672 907.836 45.7933C907.93 45.9152 908.072 45.9964 908.257 45.9912C908.582 45.982 908.775 45.845 909.007 45.6676C909.035 45.6461 909.064 45.6241 909.094 45.6017C909.318 45.4348 909.563 45.293 909.825 45.1923Z" fill="black"/>
<path fill-rule="evenodd" clip-rule="evenodd" d="M896.859 47.0715C895.392 46.8943 893.969 47.3414 892.535 47.5668C891.777 47.6857 891.019 47.7745 890.252 47.8075C890.098 47.8143 889.944 47.8182 889.79 47.8213C889.775 47.6861 889.699 47.562 889.534 47.4877C889.197 47.3354 888.927 47.2667 888.556 47.2814C888.217 47.2947 887.876 47.3294 887.542 47.3903C886.935 47.501 886.326 47.7522 885.882 48.1886C884.855 49.1985 885.011 50.8207 885.805 51.9206C887.445 54.1935 890.437 54.299 893 54.2694L893.237 54.2663C895.57 54.2331 898.909 54.5794 899.969 51.937C900.359 50.9653 900.305 49.839 899.828 48.9071C899.258 47.7955 898.06 47.2165 896.859 47.0715ZM889.57 50.856L889.591 50.8568C890.667 50.8981 891.742 50.9271 892.819 50.946C892.787 51.2212 892.754 51.4964 892.716 51.771C892.687 51.987 892.655 52.2028 892.622 52.4183C892.608 52.5096 892.557 52.6513 892.572 52.7417L892.577 52.7774V52.7774C892.522 52.8023 892.472 52.8424 892.434 52.9005C892.421 52.9207 892.412 52.9409 892.402 52.9612C891.567 52.9677 890.667 52.9516 889.815 52.8004L889.813 52.7819V52.7819C889.798 52.6736 889.753 52.6007 889.693 52.5507C889.633 52.2053 889.638 51.8372 889.615 51.4945C889.601 51.2815 889.585 51.0688 889.57 50.856ZM893.641 50.9606C894.417 50.9738 895.193 50.9839 895.968 50.9745L896.32 50.9691V50.9691C896.246 51.3659 896.165 51.7614 896.097 52.161C896.027 52.5774 896.396 52.842 896.714 52.8314C896.679 52.8372 896.643 52.8432 896.607 52.8482C895.611 52.9884 894.577 52.9512 893.567 52.9501C893.621 52.6343 893.599 52.2779 893.607 52.0143L893.609 51.9735C893.624 51.6357 893.635 51.2982 893.641 50.9606ZM898.909 50.8878C898.882 51.0942 898.83 51.2961 898.751 51.4842C898.42 52.2786 897.661 52.6493 896.858 52.8055C896.998 52.7576 897.108 52.6425 897.136 52.4455C897.206 51.9556 897.231 51.4575 897.233 50.9601C897.792 50.9549 898.356 50.943 898.909 50.8878ZM886.651 50.7182C887.05 50.8117 887.513 50.7689 887.904 50.7865C888.27 50.8031 888.636 50.8175 889.003 50.8323C888.985 51.0811 888.969 51.3298 888.95 51.5785C888.927 51.8999 888.924 52.2396 888.863 52.5596C888.126 52.3093 887.465 51.9078 886.97 51.2658C886.846 51.1059 886.736 50.9182 886.651 50.7182ZM897.028 48.375C897.691 48.5313 898.319 48.8614 898.656 49.4654C898.856 49.8238 898.944 50.2486 898.927 50.6673C898.367 50.6023 897.797 50.5777 897.229 50.5573C897.227 50.4556 897.225 50.354 897.222 50.2527L897.213 49.9928C897.198 49.4973 897.19 48.875 897.028 48.375ZM893.595 48.4354L893.887 48.4028C894.698 48.3108 895.508 48.2143 896.319 48.2696C896.437 48.2777 896.556 48.2904 896.675 48.3078C896.532 48.8226 896.544 49.4272 896.484 49.9368C896.461 50.1339 896.432 50.3293 896.399 50.524L896.259 50.5174V50.5174C895.388 50.4705 894.517 50.4416 893.646 50.4072C893.647 50.2445 893.646 50.0817 893.643 49.9188L893.64 49.7558C893.63 49.3398 893.657 48.8711 893.595 48.4354ZM889.522 48.3694C890.372 48.5058 891.25 48.5348 892.084 48.5358C892.417 48.5363 892.75 48.5159 893.083 48.4865C893.062 48.6629 893.05 48.8414 893.034 49.0153C893.001 49.3668 892.963 49.7178 892.923 50.0685L892.886 50.3753V50.3753C891.816 50.327 890.745 50.2748 889.675 50.2207L889.524 50.2127V50.2127L889.482 49.623C889.453 49.2298 889.421 48.8367 889.377 48.4453L889.41 48.4332V48.4332C889.45 48.4171 889.487 48.3948 889.522 48.3694ZM889.154 48.5157C889.107 49.0717 889.081 49.6299 889.046 50.1868L888.341 50.1493C888.223 50.143 888.106 50.1364 887.988 50.1297C887.531 50.1035 886.943 49.9657 886.491 50.0942C886.457 49.6853 886.574 49.2869 886.945 49.0122C887.596 48.5296 888.425 48.7015 889.154 48.5157ZM891.564 43.5457C890.513 42.9469 887.877 42.3349 887.71 44.2166C887.634 45.0825 888.281 45.7999 889.036 46.12L889.064 46.1319C889.773 46.4217 891.028 46.7491 891.641 46.1205C892.152 45.5974 891.475 44.6594 890.841 45.088C890.515 45.3082 889.829 45.1459 889.466 45.0412L889.443 45.0346C889.05 44.9198 888.527 44.5525 888.69 44.0717C888.833 43.6464 889.444 43.5687 889.827 43.5549C890.398 43.5345 890.954 43.6665 891.519 43.7095C891.609 43.7163 891.637 43.5871 891.564 43.5457ZM887.212 40.52C885.786 40.4536 884.899 42.003 885.227 43.2726C885.284 43.4916 885.53 43.7067 885.768 43.6821L885.827 43.6766C885.858 43.6737 885.888 43.6698 885.917 43.6621C886.142 43.5999 886.344 43.3663 886.328 43.1242L886.324 43.0536C886.29 42.4539 886.356 41.7629 887.072 41.6177C887.679 41.4945 888.018 42.0763 888.026 42.6119C888.027 42.7069 888.134 42.7733 888.219 42.7222C888.658 42.4563 888.734 41.9273 888.566 41.4717C888.354 40.8945 887.822 40.5484 887.212 40.52ZM897.794 40.8523C896.756 40.5078 895.637 41.0583 895.134 41.9713C894.958 42.022 894.782 42.1573 894.806 42.3643C894.842 42.6622 894.895 42.8499 895.102 43.0758C895.427 43.4291 896.035 43.2485 896.17 42.8135L896.176 42.7939C896.329 42.2316 896.951 41.8607 897.517 42.0575C898.179 42.2874 898.16 42.9829 898.624 43.3881C898.678 43.4358 898.744 43.4434 898.809 43.4119C899.302 43.1748 899.214 42.4612 899.038 42.0527C898.807 41.5167 898.359 41.04 897.794 40.8523ZM899.207 37.7164C898.366 36.8625 896.173 36.0362 895.598 37.613C895.489 37.9133 895.722 38.3183 896.036 38.3806C896.551 38.4825 897.007 38.2602 897.518 38.3001C897.932 38.3325 898.364 38.4701 898.694 38.7252C899.611 39.4317 899.812 40.6266 900.45 41.5258C900.482 41.5696 900.542 41.5512 900.548 41.4996C900.693 40.1905 900.128 38.6515 899.207 37.7164ZM888.241 36.8758C887.683 36.6797 887.051 36.6964 886.49 36.8704C885.925 37.0458 885.406 37.3787 885.007 37.8137C884.825 38.0112 884.657 38.2292 884.523 38.4612C884.451 38.5841 884.376 38.8381 884.295 38.9893C883.855 39.2419 883.667 39.8174 884.061 40.2269L884.079 40.2448L884.131 40.2968C884.343 40.5052 884.662 40.5955 884.951 40.5123C885.597 40.3262 885.675 39.8197 885.899 39.2821C886.047 38.927 886.3 38.6128 886.607 38.3819C887.332 37.8367 888.522 37.6629 889.395 37.9199C889.441 37.9336 889.496 37.8747 889.463 37.8319C889.297 37.6186 889.202 37.4435 888.981 37.2714C888.756 37.0967 888.51 36.9705 888.241 36.8758Z" fill="black"/>
<circle cx="1196.5" cy="272" r="35" fill="#1B2C66"/>
<ellipse cx="603" cy="574" rx="53" ry="51" fill="#FFD976"/>
</svg>
