<svg width="1364" height="854" viewBox="0 0 1364 854" fill="none" xmlns="http://www.w3.org/2000/svg">
<path d="M179.929 480.421C165.93 467.183 174.503 443.622 193.735 442.475L624.462 416.795C671.865 413.969 718.005 400.393 759.385 377.097L1123.99 171.832C1188.46 135.536 1266.75 188.212 1257.42 261.608L1222.21 538.6C1214.45 599.649 1166.1 647.563 1104.99 654.777L592.346 715.285C499.92 726.195 407.417 695.542 339.796 631.597L179.929 480.421Z" fill="#B5D8DF" fill-opacity="0.4"/>
<rect x="931" y="217" width="226" height="66" rx="10" fill="#3143A1"/>
<rect x="931" y="293" width="224" height="65" rx="10" fill="#B5D8DF"/>
<path d="M947.296 260H949.492L950.284 256.67H952.606L951.814 260H954.046L954.838 256.67H957.394V254.744H955.288L955.864 252.332H957.898V250.406H956.314L957.106 247.076H954.91L954.118 250.406H951.796L952.588 247.076H950.374L949.582 250.406H947.026V252.332H949.114L948.556 254.744H946.504V256.67H948.088L947.296 260ZM950.752 254.744L951.328 252.332H953.65L953.074 254.744H950.752ZM963.27 260.198C966.15 260.198 967.95 258.434 967.95 256.328C967.95 254.69 967.014 253.736 965.808 253.322C966.834 252.926 967.608 251.864 967.608 250.55C967.608 248.426 966.006 246.878 963.342 246.878C960.624 246.878 958.896 248.66 958.572 250.856L960.984 251.216C961.2 249.956 962.01 249.074 963.252 249.074C964.404 249.074 965.07 249.704 965.07 250.712C965.07 251.774 964.296 252.278 963.036 252.278H961.83V254.456H963.072C964.422 254.456 965.376 254.96 965.376 256.148C965.376 257.354 964.476 258.002 963.234 258.002C961.992 258.002 961.002 257.192 960.804 255.77L958.23 256.22C958.608 258.812 960.642 260.198 963.27 260.198ZM971.807 247.004C971.663 248.498 970.961 249.074 969.305 249.2L968.135 249.308V251.288H971.177V260H973.841V247.004H971.807ZM983.243 260V256.904H985.493V254.744H983.279V247.076H979.931L974.783 254.888V256.904H980.795V260H983.243ZM977.321 254.744L980.759 249.524V254.744H977.321ZM990.537 260.198C993.417 260.198 995.217 258.434 995.217 256.328C995.217 254.69 994.281 253.736 993.075 253.322C994.101 252.926 994.875 251.864 994.875 250.55C994.875 248.426 993.273 246.878 990.609 246.878C987.891 246.878 986.163 248.66 985.839 250.856L988.251 251.216C988.467 249.956 989.277 249.074 990.519 249.074C991.671 249.074 992.337 249.704 992.337 250.712C992.337 251.774 991.563 252.278 990.303 252.278H989.097V254.456H990.339C991.689 254.456 992.643 254.96 992.643 256.148C992.643 257.354 991.743 258.002 990.501 258.002C989.259 258.002 988.269 257.192 988.071 255.77L985.497 256.22C985.875 258.812 987.909 260.198 990.537 260.198ZM1000.19 247.076L995.363 260H997.991L999.017 257.228H1004.34L1005.37 260H1008.05L1003.21 247.076H1000.19ZM1001.66 250.01L1003.5 254.978H999.845L1001.66 250.01ZM1011.74 247.004C1011.59 248.498 1010.89 249.074 1009.24 249.2L1008.07 249.308V251.288H1011.11V260H1013.77V247.004H1011.74Z" fill="white"/>
<path d="M947.296 336H949.492L950.284 332.67H952.606L951.814 336H954.046L954.838 332.67H957.394V330.744H955.288L955.864 328.332H957.898V326.406H956.314L957.106 323.076H954.91L954.118 326.406H951.796L952.588 323.076H950.374L949.582 326.406H947.026V328.332H949.114L948.556 330.744H946.504V332.67H948.088L947.296 336ZM950.752 330.744L951.328 328.332H953.65L953.074 330.744H950.752ZM959.094 336H964.746C967.482 336 969.12 334.65 969.12 332.382C969.12 330.816 968.22 329.718 966.924 329.286C967.806 328.908 968.724 328.062 968.724 326.514C968.724 324.3 967.23 323.076 964.422 323.076H959.094V336ZM961.632 328.332V325.272H964.17C965.484 325.272 966.222 325.794 966.222 326.802C966.222 327.828 965.484 328.332 964.17 328.332H961.632ZM961.632 330.474H964.566C965.862 330.474 966.564 331.158 966.564 332.13C966.564 333.12 965.862 333.786 964.566 333.786H961.632V330.474ZM972.604 330.33C972.928 329.862 973.558 329.466 974.404 329.466C975.718 329.466 976.546 330.474 976.546 331.77C976.546 333.066 975.556 334.02 974.296 334.02C973.036 334.02 972.154 333.174 971.974 331.842L969.418 332.274C969.814 334.812 971.704 336.198 974.296 336.198C977.014 336.198 979.048 334.29 979.048 331.698C979.048 329.214 977.41 327.342 974.8 327.342C973.828 327.342 973.054 327.702 972.55 328.152L972.802 325.362H978.238V323.076H970.768L970.192 330.024L972.604 330.33ZM980.22 336H984.666C988.734 336 991.218 333.48 991.218 329.538C991.218 325.596 988.734 323.076 984.666 323.076H980.22V336ZM982.812 333.732V325.344H984.648C987.168 325.344 988.608 326.982 988.608 329.538C988.608 332.076 987.168 333.732 984.666 333.732H982.812ZM996.728 322.878C994.334 322.878 992.39 324.264 992.39 326.514C992.39 327.738 993.038 328.692 994.172 329.25C992.822 329.718 991.76 330.852 991.76 332.4C991.76 334.722 993.902 336.198 996.728 336.198C999.554 336.198 1001.68 334.722 1001.68 332.4C1001.68 330.852 1000.63 329.718 999.284 329.25C1000.4 328.692 1001.07 327.738 1001.07 326.514C1001.07 324.264 999.122 322.878 996.728 322.878ZM996.728 328.206C995.558 328.206 994.766 327.54 994.766 326.55C994.766 325.56 995.558 324.894 996.728 324.894C997.898 324.894 998.69 325.56 998.69 326.55C998.69 327.54 997.898 328.206 996.728 328.206ZM996.728 330.294C998.114 330.294 999.086 331.086 999.086 332.202C999.086 333.372 998.114 334.128 996.728 334.128C995.324 334.128 994.37 333.372 994.37 332.202C994.37 331.086 995.324 330.294 996.728 330.294ZM1002.87 336H1007.32C1011.39 336 1013.87 333.48 1013.87 329.538C1013.87 325.596 1011.39 323.076 1007.32 323.076H1002.87V336ZM1005.47 333.732V325.344H1007.3C1009.82 325.344 1011.26 326.982 1011.26 329.538C1011.26 332.076 1009.82 333.732 1007.32 333.732H1005.47ZM1017.67 336V330.87H1022.86V328.584H1017.67V325.362H1023.88V323.076H1015.06V336H1017.67Z" fill="white"/>
<rect x="931" y="370" width="224" height="66" rx="10" fill="#FFBCBC"/>
<rect x="931" y="446" width="224" height="65" rx="10" fill="black"/>
<rect x="931" y="521" width="224" height="66" rx="10" fill="#FFD976"/>
<path d="M946.296 413H948.492L949.284 409.67H951.606L950.814 413H953.046L953.838 409.67H956.394V407.744H954.288L954.864 405.332H956.898V403.406H955.314L956.106 400.076H953.91L953.118 403.406H950.796L951.588 400.076H949.374L948.582 403.406H946.026V405.332H948.114L947.556 407.744H945.504V409.67H947.088L946.296 413ZM949.752 407.744L950.328 405.332H952.65L952.074 407.744H949.752ZM960.704 413V407.87H965.888V405.584H960.704V402.362H966.914V400.076H958.094V413H960.704ZM970.713 413V407.87H975.897V405.584H970.713V402.362H976.923V400.076H968.103V413H970.713ZM978.112 413H983.764C986.5 413 988.138 411.65 988.138 409.382C988.138 407.816 987.238 406.718 985.942 406.286C986.824 405.908 987.742 405.062 987.742 403.514C987.742 401.3 986.248 400.076 983.44 400.076H978.112V413ZM980.65 405.332V402.272H983.188C984.502 402.272 985.24 402.794 985.24 403.802C985.24 404.828 984.502 405.332 983.188 405.332H980.65ZM980.65 407.474H983.584C984.88 407.474 985.582 408.158 985.582 409.13C985.582 410.12 984.88 410.786 983.584 410.786H980.65V407.474ZM991.262 406.538C991.262 403.91 992.648 402.2 994.628 402.2C996.032 402.2 997.058 403.082 997.418 404.522L999.902 403.694C999.146 401.354 997.31 399.878 994.628 399.878C991.136 399.878 988.598 402.632 988.598 406.538C988.598 410.444 991.136 413.198 994.628 413.198C997.31 413.198 999.146 411.722 999.902 409.382L997.418 408.554C997.058 409.994 996.032 410.876 994.628 410.876C992.648 410.876 991.262 409.166 991.262 406.538ZM1000.87 413H1006.52C1009.26 413 1010.9 411.65 1010.9 409.382C1010.9 407.816 1010 406.718 1008.7 406.286C1009.58 405.908 1010.5 405.062 1010.5 403.514C1010.5 401.3 1009.01 400.076 1006.2 400.076H1000.87V413ZM1003.41 405.332V402.272H1005.95C1007.26 402.272 1008 402.794 1008 403.802C1008 404.828 1007.26 405.332 1005.95 405.332H1003.41ZM1003.41 407.474H1006.34C1007.64 407.474 1008.34 408.158 1008.34 409.13C1008.34 410.12 1007.64 410.786 1006.34 410.786H1003.41V407.474ZM1014.02 406.538C1014.02 403.91 1015.41 402.2 1017.39 402.2C1018.79 402.2 1019.82 403.082 1020.18 404.522L1022.66 403.694C1021.91 401.354 1020.07 399.878 1017.39 399.878C1013.9 399.878 1011.36 402.632 1011.36 406.538C1011.36 410.444 1013.9 413.198 1017.39 413.198C1020.07 413.198 1021.91 411.722 1022.66 409.382L1020.18 408.554C1019.82 409.994 1018.79 410.876 1017.39 410.876C1015.41 410.876 1014.02 409.166 1014.02 406.538Z" fill="white"/>
<path d="M946.296 488H948.492L949.284 484.67H951.606L950.814 488H953.046L953.838 484.67H956.394V482.744H954.288L954.864 480.332H956.898V478.406H955.314L956.106 475.076H953.91L953.118 478.406H950.796L951.588 475.076H949.374L948.582 478.406H946.026V480.332H948.114L947.556 482.744H945.504V484.67H947.088L946.296 488ZM949.752 482.744L950.328 480.332H952.65L952.074 482.744H949.752ZM957.518 481.538C957.518 485.48 959.408 488.198 962.72 488.198C966.014 488.198 967.904 485.48 967.904 481.538C967.904 477.596 966.014 474.878 962.72 474.878C959.408 474.878 957.518 477.596 957.518 481.538ZM960.182 481.538C960.182 478.964 960.938 477.146 962.72 477.146C964.484 477.146 965.24 478.964 965.24 481.538C965.24 484.112 964.484 485.93 962.72 485.93C960.938 485.93 960.182 484.112 960.182 481.538ZM968.564 481.538C968.564 485.48 970.454 488.198 973.766 488.198C977.06 488.198 978.95 485.48 978.95 481.538C978.95 477.596 977.06 474.878 973.766 474.878C970.454 474.878 968.564 477.596 968.564 481.538ZM971.228 481.538C971.228 478.964 971.984 477.146 973.766 477.146C975.53 477.146 976.286 478.964 976.286 481.538C976.286 484.112 975.53 485.93 973.766 485.93C971.984 485.93 971.228 484.112 971.228 481.538ZM979.61 481.538C979.61 485.48 981.5 488.198 984.812 488.198C988.106 488.198 989.996 485.48 989.996 481.538C989.996 477.596 988.106 474.878 984.812 474.878C981.5 474.878 979.61 477.596 979.61 481.538ZM982.274 481.538C982.274 478.964 983.03 477.146 984.812 477.146C986.576 477.146 987.332 478.964 987.332 481.538C987.332 484.112 986.576 485.93 984.812 485.93C983.03 485.93 982.274 484.112 982.274 481.538ZM990.656 481.538C990.656 485.48 992.546 488.198 995.858 488.198C999.152 488.198 1001.04 485.48 1001.04 481.538C1001.04 477.596 999.152 474.878 995.858 474.878C992.546 474.878 990.656 477.596 990.656 481.538ZM993.32 481.538C993.32 478.964 994.076 477.146 995.858 477.146C997.622 477.146 998.378 478.964 998.378 481.538C998.378 484.112 997.622 485.93 995.858 485.93C994.076 485.93 993.32 484.112 993.32 481.538ZM1001.7 481.538C1001.7 485.48 1003.59 488.198 1006.9 488.198C1010.2 488.198 1012.09 485.48 1012.09 481.538C1012.09 477.596 1010.2 474.878 1006.9 474.878C1003.59 474.878 1001.7 477.596 1001.7 481.538ZM1004.37 481.538C1004.37 478.964 1005.12 477.146 1006.9 477.146C1008.67 477.146 1009.42 478.964 1009.42 481.538C1009.42 484.112 1008.67 485.93 1006.9 485.93C1005.12 485.93 1004.37 484.112 1004.37 481.538ZM1012.75 481.538C1012.75 485.48 1014.64 488.198 1017.95 488.198C1021.24 488.198 1023.13 485.48 1023.13 481.538C1023.13 477.596 1021.24 474.878 1017.95 474.878C1014.64 474.878 1012.75 477.596 1012.75 481.538ZM1015.41 481.538C1015.41 478.964 1016.17 477.146 1017.95 477.146C1019.71 477.146 1020.47 478.964 1020.47 481.538C1020.47 484.112 1019.71 485.93 1017.95 485.93C1016.17 485.93 1015.41 484.112 1015.41 481.538Z" fill="white"/>
<path d="M946.296 564H948.492L949.284 560.67H951.606L950.814 564H953.046L953.838 560.67H956.394V558.744H954.288L954.864 556.332H956.898V554.406H955.314L956.106 551.076H953.91L953.118 554.406H950.796L951.588 551.076H949.374L948.582 554.406H946.026V556.332H948.114L947.556 558.744H945.504V560.67H947.088L946.296 564ZM949.752 558.744L950.328 556.332H952.65L952.074 558.744H949.752ZM960.704 564V558.87H965.888V556.584H960.704V553.362H966.914V551.076H958.094V564H960.704ZM970.713 564V558.87H975.897V556.584H970.713V553.362H976.923V551.076H968.103V564H970.713ZM978.112 564H982.558C986.626 564 989.11 561.48 989.11 557.538C989.11 553.596 986.626 551.076 982.558 551.076H978.112V564ZM980.704 561.732V553.344H982.54C985.06 553.344 986.5 554.982 986.5 557.538C986.5 560.076 985.06 561.732 982.558 561.732H980.704ZM989.653 561.246C990.265 563.01 991.615 564.198 993.955 564.198C997.285 564.198 999.391 561.336 999.391 557.34C999.391 553.758 997.717 550.878 994.387 550.878C991.633 550.878 989.689 552.804 989.689 555.396C989.689 557.79 991.453 559.644 993.919 559.644C995.305 559.644 996.349 559.014 996.925 558.258C996.925 560.328 995.791 562.038 994.045 562.038C992.803 562.038 992.065 561.3 991.759 560.328L989.653 561.246ZM992.083 555.27C992.083 553.956 993.091 552.984 994.387 552.984C995.683 552.984 996.691 553.956 996.691 555.27C996.691 556.566 995.665 557.556 994.369 557.556C993.073 557.556 992.083 556.566 992.083 555.27ZM1006.57 553.326C1004.12 555.99 1002.8 559.248 1002.8 564H1005.5C1005.5 559.68 1006.24 556.656 1009.32 553.362V551.076H999.655V555.324H1001.92V553.326H1006.57ZM1018.8 553.83C1018.18 552.066 1016.83 550.878 1014.49 550.878C1011.16 550.878 1009.06 553.74 1009.06 557.736C1009.06 561.318 1010.73 564.198 1014.06 564.198C1016.82 564.198 1018.76 562.272 1018.76 559.68C1018.76 557.286 1017 555.432 1014.53 555.432C1013.14 555.432 1012.1 556.062 1011.52 556.818C1011.52 554.748 1012.66 553.038 1014.4 553.038C1015.65 553.038 1016.38 553.776 1016.69 554.748L1018.8 553.83ZM1016.37 559.806C1016.37 561.12 1015.36 562.092 1014.06 562.092C1012.77 562.092 1011.76 561.12 1011.76 559.806C1011.76 558.51 1012.78 557.52 1014.08 557.52C1015.38 557.52 1016.37 558.51 1016.37 559.806Z" fill="white"/>
<path fill-rule="evenodd" clip-rule="evenodd" d="M862.007 192.728C862.675 192.537 863.51 192.488 864.242 192.453C866.826 192.301 869.462 193.528 871.996 194.08C873.106 194.353 874.28 194.675 875.467 194.914C876.521 195.056 877.611 195.163 878.706 195.231C879.592 195.257 880.622 195.19 880.925 196.116C882.704 196.46 884.28 196.602 885.976 196.311C885.818 195.773 885.727 195.21 885.891 194.631C885.808 194.494 885.696 194.308 885.635 194.183H885.839C888.817 192.997 892.037 192.187 895.031 190.958C898.938 189.556 904.693 186.849 909.207 185C908.901 183.332 908.788 181.638 908.917 179.99L908.736 179.845C908.676 179.521 908.584 179.133 908.416 178.84C908.203 178.278 908.198 177.51 908.113 176.875C907.937 175.632 907.819 173.76 908.14 172.284C908.281 170.282 909.636 168.739 911.098 167.502C912.894 165.735 914.691 164.012 916.443 162.177C926.142 152.339 926.909 139.947 942.092 136.181L942.099 136.122C942.219 135.99 942.268 135.884 942.404 136.094C942.905 135.903 943.53 135.919 943.95 135.596C944.696 134.919 945.224 134.138 945.57 133.212C945.836 131.46 945.648 128.76 947.19 127.639C948.904 126.618 958.006 125.891 958.791 128.123C959.278 128.578 959.499 129.157 959.652 129.865C960.159 130.819 960.479 131.878 960.99 132.847C962.076 135.021 962.78 134.539 964.697 135.036C964.906 134.574 965.537 134.667 965.998 134.734C971.575 135.514 978.374 137.642 980.762 142.858L980.558 142.832C984.68 150.537 982.007 160.336 981.27 168.502C980.674 175.76 981.355 183.053 982.976 189.823C984.965 197.005 985.079 205.039 981.133 211.54C980.732 212.284 980.243 213.336 979.379 212.869C978.906 213.226 978.374 213.472 977.639 213.686C977.436 213.832 977.227 214.078 977.015 214.183C977.005 214.197 976.663 214.001 976.645 213.996C976 214.912 940.575 217.974 936.899 218.449C933.66 218.838 929.381 219.83 926.742 217.505C924.56 216.885 922.278 215.271 920.535 213.668C919.477 228.932 918.892 260.193 917.948 260.411C917.535 260.55 916.978 260.717 916.51 260.85C916.508 261.947 916.426 263.193 916.512 264.271C916.657 265.489 917.024 266.927 917.19 268.207C917.904 268.159 918.114 268.872 918.197 269.356C918.814 273.355 918.796 276.579 918.751 280.974C911.504 285.222 903.01 287.559 894.854 290.304C894.073 290.888 892.381 290.256 891.479 290.098C888.347 289.485 884.789 287.67 885.58 284.343C886.158 281.838 888.588 280.396 890.634 278.922C892.872 277.309 895.231 275.697 897.289 273.776C898.94 272.229 900.173 271.028 901.549 269.282C902.16 268.469 902.811 267.135 903.633 266.536C902.765 265.512 904.519 266.472 905.183 266.531C905.573 264.702 906.057 262.945 906.637 261.191L906.073 261.216C904.222 259.496 903.185 251.24 903.056 248.79C902.128 232.822 902.15 214.418 905.872 200.971C903.045 202.703 899.945 204.15 897.134 205.863C895.361 206.896 893.563 208.331 891.576 208.832C891.446 209.202 890.972 209.346 890.714 208.984C890.358 209.027 889.9 208.88 889.861 208.719C889.497 207.979 888.97 207.181 889.033 206.377C889.033 206.377 889.521 205.25 889.521 205.25C888.428 205.693 887.239 206.623 886.072 206.709C883.715 214.542 879.07 210.154 874.6 207.105C871.902 205.23 868.952 203.159 866.113 201.159C863.704 199.252 859.002 197.443 861.307 193.667" fill="white"/>
<path fill-rule="evenodd" clip-rule="evenodd" d="M963.33 134.557C961.053 134.006 960.664 128.574 959.289 129.348C958.494 130.036 959.794 131.333 960.024 132.11L960.125 132.307C960.592 133.211 961.119 134.112 962.038 134.633C962.629 135.253 964.395 134.645 964.136 135.631C963.229 138.602 958.416 140.66 955.58 141.585C951.171 143.234 944.039 142.676 943.003 137.151C945.421 136.711 947.209 132.368 945.718 130.56C945.668 132.316 945.186 134.129 943.8 135.319L943.724 135.389C943.48 135.61 943.165 135.874 942.85 135.825C942.543 135.4 941.948 135.642 941.772 136.09C928.003 138.459 924.936 153.239 916.265 161.938C914.533 163.753 912.722 165.49 910.935 167.25C909.11 168.691 907.818 170.701 907.728 173.06C907.565 174.373 907.646 175.686 907.82 177L907.832 177.119C907.913 177.934 907.961 178.809 908.351 179.532C908.418 179.777 908.391 180.087 908.604 180.26C908.511 181.759 908.599 183.286 908.854 184.781L908.19 185.076C900.88 188.316 893.485 191.37 885.863 193.799C885.212 193.681 885.265 194.435 885.58 194.778C885.497 195.181 885.488 195.6 885.585 195.999C884.19 196.198 882.772 196.032 881.394 195.779C880.958 194.824 879.8 194.875 878.905 194.848C877.792 194.779 876.682 194.671 875.578 194.517C872.857 193.912 870.185 193.116 867.49 192.417C865.686 191.912 863.742 191.936 861.933 192.4C861.625 192.743 861.341 193.109 861.102 193.498C859.448 196.05 861.078 198.388 863.386 199.728C867.089 202.341 870.794 204.95 874.514 207.538L874.784 207.73C879.21 210.883 884.189 214.873 886.553 207.2C887.347 207.108 888.043 206.577 888.783 206.264C888.584 207.185 889.179 208.115 889.589 208.904C889.765 209.354 890.248 209.502 890.693 209.498C891.075 209.87 891.791 209.724 892.04 209.282C894.063 208.706 895.735 207.36 897.526 206.314C900.072 204.775 902.743 203.463 905.326 201.989C901.035 219.67 902.085 238.086 903.227 256.084L903.235 256.246C903.376 258.874 903.982 260.117 906.172 261.727C905.79 262.885 905.449 264.048 905.189 265.24C905.097 265.516 904.674 265.256 904.67 265.635C903.892 265.454 902.311 265.648 902.863 266.719C901.301 268.023 900.243 269.791 898.874 271.278C896.463 274.154 893.31 276.295 890.22 278.405C883.115 282.008 882.707 288.252 891.02 290.385L891.104 290.404C892.248 290.678 893.627 291.305 894.737 290.777C896.397 290.459 898.044 289.815 899.669 289.325C906.209 287.171 912.605 284.649 918.803 281.751C919.027 281.646 919.155 281.405 919.16 281.164C919.091 279.176 919.634 268.278 917.562 268.044C917.099 265.818 917.027 263.519 917.111 261.247C917.783 261.037 918.462 260.834 919.159 260.702C919.835 260.49 920.892 260.443 921.344 259.898C921.507 259.839 921.626 259.695 921.602 259.466C921.236 256.051 920.958 252.627 920.756 249.199C920.062 237.702 920.298 226.169 921.087 214.684C922.715 216.084 924.569 217.311 926.634 217.963C927.773 219.099 929.6 219.343 931.156 219.481C933.156 219.604 935.121 219.206 937.095 218.959C940.447 218.539 943.776 218.911 947.104 219.322L948.241 219.464C956.388 220.353 965.193 220.537 972.786 217.071C974.216 217.198 975.991 215.66 976.882 214.633C977.276 214.875 977.663 214.402 977.977 214.153C978.495 213.997 979.083 213.772 979.553 213.443C980.745 213.832 981.388 212.291 981.841 211.453C989.03 199.202 981.024 187.008 981.626 174.017C981.262 163.831 985.93 153.22 981.418 143.452C980.505 139.318 975.167 136.461 971.149 135.411C969.854 135.198 964.952 133.434 964.412 134.917C964.157 134.583 963.721 134.558 963.33 134.557ZM903.698 267.196C904.372 267.268 905.029 267.309 905.694 267.431C908.125 267.828 910.443 268.764 912.532 270.065C913.208 270.485 913.812 271.014 914.588 271.248C916.184 271.824 917.751 270.393 917.634 268.846C918.079 272.734 918.003 276.735 917.772 280.643C911.533 283.452 905.154 285.957 898.659 288.132C897.196 288.742 895.465 288.938 894.121 289.762C891.831 289.618 889.525 288.818 887.601 287.567C884.41 285.363 886.529 281.869 889.174 280.331C894.998 277.716 899.954 272.423 903.698 267.196ZM916.457 261.446C916.579 262.598 915.699 264.394 915.823 266.691C915.918 267.409 916.143 268.16 916.065 268.88C915.707 271.552 912.8 268.157 911.599 267.785C909.893 266.852 908.04 266.216 906.136 265.869C906.147 265.252 906.557 265.007 906.611 264.398C906.688 263.501 906.685 262.639 906.725 261.734C909.202 262.855 913.829 262.062 916.457 261.446ZM903.111 267.022C903.154 267.051 903.2 267.075 903.246 267.097C902.902 267.512 902.604 267.972 902.196 268.329L902.369 268.06C902.602 267.702 902.84 267.345 903.111 267.022ZM980.042 171.442C980.166 171.947 980.394 172.422 980.734 172.826C978.976 187.014 988.023 198.841 979.705 212.033C979.6 212.082 979.504 212.142 979.411 212.218C979.363 212.186 979.314 212.152 979.266 212.118C975.367 205.252 969.817 199.33 965.395 192.761C964.546 191.111 963.149 189.452 962.614 187.546C971.501 184.055 975.05 178.96 980.042 171.442ZM863.095 192.963C863.472 193.097 863.891 192.986 864.293 192.979C865.721 192.949 867.116 193.32 868.481 193.694C872.452 194.775 876.445 195.732 880.513 196.372C880.595 196.457 880.674 196.543 880.745 196.634C880.675 196.753 880.664 196.902 880.766 197.049C881.38 198.216 880.884 199.644 881.33 200.893C881.976 203.422 883.694 206.274 886.259 207.171C885.404 207.982 884.791 209.026 883.91 209.809C881.744 211.286 879.36 209.084 877.592 207.904C874.226 205.538 870.852 203.188 867.468 200.848C865.952 199.598 862.599 198.022 861.873 196.366C861.409 195.096 862.254 193.859 863.095 192.963ZM886.29 196.187C887.738 199.127 888.575 202.253 889.411 205.41C888.541 205.648 887.74 206.021 886.884 206.272C885.68 206.542 883.979 204.225 883.375 203.305C882.752 202.277 882.316 201.147 882.114 199.963C881.943 198.803 882.125 197.599 881.618 196.525C883.188 196.684 884.78 196.718 886.29 196.187ZM972.416 190.12C971.055 189.741 974.15 192.804 974.328 193.131C976.341 195.495 978.184 197.992 980.014 200.497L980.569 201.257C980.622 201.334 980.989 201.875 980.724 201.806C980.699 201.8 980.688 201.831 980.707 201.845C982.399 202.142 973.232 190.328 972.416 190.12ZM939.25 188.675C939.14 188.345 939.662 188.204 939.772 188.532L940.119 189.571C941.428 193.498 942.729 197.43 944.293 201.265C944.424 201.587 943.9 201.727 943.77 201.409C942.069 197.236 940.679 192.947 939.25 188.675ZM924.037 187.3C924.514 189.553 925.72 191.584 926.451 193.737C925.078 193.436 924.021 192.164 923.221 191.069L923.197 191.032C922.82 190.454 922.381 189.551 921.524 189.959C920.223 190.711 921.155 193.379 921.179 194.643C921.344 196.376 921.91 197.997 922.296 199.681C921.304 199.006 921.019 197.676 920.536 196.64L918.675 192.198V192.198C917.308 190.333 917.943 195.918 918.014 196.445C918.125 197.603 918.615 198.768 918.423 199.933C917.651 199.107 917.165 198.069 916.757 197.016C916.191 195.551 915.674 194.068 915.135 192.593C914.949 192.121 914.242 192.287 914.345 192.807C914.38 194.48 914.407 196.154 914.434 197.827L914.454 199.082C914.458 199.32 914.576 200.015 914.163 199.823C911.994 197.557 911.438 193.028 911.72 189.984C915.984 190.087 920.333 189.536 924.037 187.3ZM886.099 195.751C886.116 195.806 886.136 195.862 886.157 195.917C886.144 195.92 886.131 195.922 886.119 195.925C886.111 195.867 886.104 195.809 886.099 195.751ZM980.72 195.751C981.193 195.403 973.244 185.247 973.759 188.179C975.976 190.79 978.562 193.078 980.72 195.751ZM910.522 173.308C917.956 171.57 924.502 178.062 931.967 177.081C931.881 179.407 931.761 181.748 931.808 184.074C921.894 184.888 923.022 189.087 911.61 188.664C910.135 187.681 909.53 181.657 909.654 179.838C909.559 177.688 911.418 176.722 913.27 176.345C913.94 176.747 915.14 175.547 914.147 175.125C912.839 174.734 911.615 174.118 910.522 173.308ZM965.362 135.197C968.007 135.457 970.626 136.174 973.057 137.282C982.042 139.864 983.337 150.331 982.257 158.263C981.809 164.295 980.081 170.194 976.447 175.099C966.772 189.783 950.747 187.458 935.569 185.516C935.022 185.137 934.095 185.406 933.567 184.906C933.623 184.887 933.672 184.861 933.715 184.828C933.461 184.632 933.265 184.286 933.207 183.92L933.098 183.93V183.93C932.99 181.653 933.076 179.42 933.041 177.161C938.029 175.8 943.378 175.104 948.432 173.748C949.007 174.147 949.669 173.688 950.23 173.471C951.685 172.856 953.153 172.271 954.632 171.714L955.002 171.575C955.965 171.215 956.929 170.847 957.883 170.462L958.241 170.317C958.788 170.095 960.169 169.271 960.766 169.785L960.718 169.888C960.364 170.657 959.145 173.5 960.644 172.937C961.86 172.087 962.491 166.158 963.696 166.105C964.111 167.209 964.408 168.355 964.475 169.535C964.5 169.801 964.85 170.024 965.061 169.776C966.49 167.903 964.332 165.863 964.274 163.885C964.138 161.586 965.16 159.435 965.669 157.234L965.7 157.083C965.999 155.655 966.463 153.924 966.34 152.643L966.044 153.755C965.746 154.867 965.441 155.98 965.092 157.076C964.224 159.815 962.658 162.637 963.528 165.567C961.782 165.625 961.486 168.368 960.83 169.621C959.769 168.251 952.3 171.538 950.595 172.065L950.267 171.694C944.929 165.67 941.075 161.593 932.802 166.358C934.231 161.769 934.37 156.895 934.613 152.13C934.53 151.224 935.056 148.833 934.314 148.338C934.185 148.357 934.06 148.395 933.941 148.447L933.941 148.917C933.938 149.826 933.895 151.335 933.512 151.678L933.336 153.479C932.875 158.164 932.353 162.845 930.947 167.359C927.574 169.236 924.495 171.587 921.599 174.123L921.269 174.003C917.69 172.699 913.385 171.028 909.726 172.655C909.787 171.737 910.143 170.857 910.64 170.08C911.469 169.875 912.012 169.005 912.605 168.426C914.486 166.416 916.416 164.451 918.254 162.4C926.094 154.005 929.429 140.221 941.741 136.965C942.555 143.748 951.274 144.83 956.528 142.509L956.727 142.433C959.994 141.178 963.685 139.285 964.832 135.835L964.879 135.735C964.997 135.492 965.138 135.244 965.362 135.197ZM963.424 173.799C963.415 173.788 963.396 173.802 963.404 173.814C964.935 175.726 966.181 178.334 964.66 180.617C964.378 181.132 965.036 181.626 965.456 181.234C967.568 178.847 965.225 175.612 963.424 173.799ZM910.166 174.231C911.008 174.829 911.91 175.326 912.867 175.717C912.864 175.827 912.917 175.944 912.966 176.03C911.707 176.13 910.396 176.454 909.513 177.367C909.47 177.033 909.428 176.698 909.396 176.363C909.314 175.501 909.463 174.729 910.166 174.231ZM968.05 165.779L968.04 165.733C968.033 165.68 967.953 165.677 967.956 165.733C967.985 166.416 968.485 166.902 968.908 167.389C969.536 168.111 970.164 168.833 970.792 169.554C971.842 170.812 973.39 172.077 973.042 173.899C973.035 174.546 973.85 174.685 974.181 174.209C975.496 171.713 971.357 169.589 969.961 167.979C969.306 167.282 968.274 166.769 968.05 165.779V165.779ZM948.341 173.272C948.322 173.303 948.308 173.337 948.3 173.371C948.08 173.395 947.86 173.42 947.641 173.446L948.341 173.272V173.272ZM981.265 167.435C981.226 167.695 981.189 167.957 981.154 168.218L981.119 168.48L981.114 168.457C981.096 168.389 981.062 168.33 981.018 168.283L981.003 168.268C981.094 167.991 981.181 167.714 981.265 167.435ZM920.835 164.735C920.307 164.679 922.697 166.389 922.829 166.601C923.022 166.768 923.247 166.471 923.042 166.327C922.299 165.805 921.567 165.27 920.835 164.735ZM925.485 159.704C925.117 159.554 924.868 160.162 925.216 160.332C926.484 160.949 927.825 161.386 928.993 162.198C929.045 162.234 929.109 162.151 929.06 162.113L928.92 162.002C927.844 161.151 926.769 160.227 925.485 159.704ZM980.828 152.013C980.473 153.674 978.556 154.219 977.068 154.662L976.603 154.838C975.289 155.339 973.928 155.902 972.982 156.959C972.612 158.152 975.256 156.074 975.625 155.969C977.43 154.855 980.692 154.665 980.828 152.013ZM941.687 136.504C941.677 136.589 941.672 136.675 941.669 136.761C941.558 136.761 941.448 136.762 941.336 136.765C941.466 136.69 941.585 136.604 941.687 136.504Z" fill="black"/>
<path fill-rule="evenodd" clip-rule="evenodd" d="M947.861 133.743C949.761 133.754 951.376 133.218 952.609 132.33C954.146 131.784 956.001 130.943 957.128 130.059C957.567 130.171 958.093 129.706 958.429 129.461C960.52 127.907 962.162 125.632 962.648 123.354C963.399 124.297 964.467 124.336 965.491 123.867C967.636 122.657 967.556 120.107 966.784 118.202C968.407 114.576 969.533 105.004 967.054 101.141C966.547 100.563 965.803 100.218 965.267 99.6248C964.791 99.1071 964.337 98.5776 963.783 98.1679C962.091 96.8862 959.176 96.2037 957.351 95.8828C949.733 94.2437 943.88 97.1898 936.98 99.6748C937.377 100.663 937.927 101.564 938.556 102.405C936.843 103.041 937.63 104.472 938.959 105.197L939.75 104.815C938.517 109.206 935.678 120.127 936.903 123.634C937.88 129.106 942.166 133.783 947.861 133.743" fill="white"/>
<path fill-rule="evenodd" clip-rule="evenodd" d="M946.758 134.214C949.225 134.466 952.156 133.886 953.801 131.891C953.85 131.831 953.872 131.764 953.873 131.698C953.874 131.626 953.85 131.556 953.808 131.501C953.763 131.444 953.7 131.404 953.627 131.391C953.566 131.38 953.497 131.387 953.425 131.427L953.274 131.511C952.15 132.128 950.984 132.655 949.711 132.88C948.4 133.112 947.065 133.086 945.766 132.792C943.4 132.255 941.485 130.886 940.075 129.082C938.502 127.067 937.557 124.511 937.317 121.954C937.025 118.855 937.702 115.776 938.402 112.775C939.138 109.623 939.942 106.486 940.876 103.386C940.904 103.293 940.912 103.206 940.904 103.125C941.179 103.018 941.473 103.048 941.764 103.146C942.298 103.325 942.829 103.729 943.272 104.063C943.433 104.183 943.582 104.296 943.716 104.387C944.266 104.761 944.866 105.031 945.538 105.073C946.236 105.117 946.921 104.901 947.555 104.63C947.878 104.493 948.195 104.351 948.511 104.209C949.41 103.804 950.299 103.404 951.27 103.144C952.571 102.796 953.915 102.624 955.263 102.636C957.668 102.658 960.08 103.274 961.555 105.299C962.152 106.119 962.541 107.062 962.237 108.074C962.072 108.624 961.761 109.124 961.42 109.584L961.304 109.74C961.117 109.993 960.955 110.244 960.906 110.512C960.865 110.736 960.897 110.973 961.058 111.233C961.159 111.397 961.288 111.543 961.417 111.69C961.511 111.795 961.605 111.9 961.685 112.014C961.848 112.242 961.992 112.488 962.104 112.745C962.325 113.248 962.419 113.788 962.439 114.334C962.462 114.991 962.369 115.635 962.277 116.279C962.212 116.736 962.147 117.194 962.12 117.657C962.116 117.738 962.141 117.798 962.175 117.842C962.218 117.897 962.28 117.931 962.351 117.941C962.372 117.944 962.394 117.944 962.417 117.942C962.406 117.987 962.396 118.031 962.388 118.076C962.432 118.019 962.48 117.964 962.53 117.91C962.533 117.908 962.536 117.907 962.539 117.905C962.591 117.877 962.635 117.834 962.662 117.778C962.733 117.713 962.809 117.65 962.888 117.592C963.298 117.287 963.777 117.106 964.258 117.1C964.721 117.095 965.186 117.252 965.543 117.583C966.253 118.243 966.461 119.319 966.469 120.243C966.476 121.186 966.257 122.318 965.43 122.903C965.099 123.138 964.694 123.279 964.286 123.283C963.948 123.287 963.625 123.168 963.306 123.054C963.208 123.019 963.11 122.985 963.013 122.953C962.902 122.917 962.801 122.919 962.713 122.946C962.614 122.975 962.53 123.036 962.467 123.118C962.404 123.199 962.363 123.3 962.35 123.407C962.338 123.51 962.352 123.617 962.396 123.713C962.407 123.737 962.419 123.761 962.431 123.784L962.249 124.081C961.553 125.217 960.845 126.332 959.916 127.309C959.384 127.869 958.819 128.398 958.199 128.861L958.11 128.927C958.056 128.966 957.997 129.014 957.934 129.065C957.753 129.213 957.536 129.41 957.334 129.418C957.274 129.42 957.222 129.412 957.174 129.406C957.059 129.391 956.962 129.387 956.867 129.425C956.791 129.456 956.712 129.514 956.63 129.634C956.575 129.715 956.547 129.816 956.547 129.919C956.547 130.023 956.575 130.126 956.626 130.208C956.732 130.377 956.859 130.482 956.997 130.542C957.151 130.608 957.321 130.618 957.498 130.585C957.934 130.504 958.417 130.145 958.724 129.911L958.784 129.865C959.464 129.349 960.109 128.777 960.676 128.138C961.641 127.049 962.509 125.767 962.954 124.365C963.268 124.57 963.656 124.668 964.061 124.683C964.652 124.705 965.277 124.554 965.738 124.337C966.754 123.857 967.37 122.951 967.66 121.908C967.995 120.698 967.886 119.306 967.461 118.219C967.449 118.187 967.436 118.156 967.423 118.124C968.731 114.825 969.133 111.162 969.021 107.642C968.969 105.994 968.856 104.265 968.465 102.658C968.29 101.938 967.986 101.252 967.5 100.685C967.224 100.361 966.884 100.11 966.542 99.8585C966.247 99.641 965.95 99.4241 965.7 99.1526L965.582 99.0236C965.557 98.9956 965.531 98.9676 965.506 98.9396C965.074 98.4666 964.655 98.0077 964.131 97.6197C963.524 97.17 962.855 96.8179 962.159 96.5256C960.66 95.8959 959.046 95.5184 957.45 95.2263C953.997 94.5945 950.452 94.5634 947.041 95.4514C945.455 95.8643 943.916 96.4293 942.38 96.9938C942.237 97.0462 942.095 97.0986 941.952 97.1508C940.758 97.5883 939.564 98.024 938.369 98.4597C937.814 98.6621 937.259 98.8646 936.703 99.0673C936.583 99.1112 936.465 99.206 936.398 99.3237C936.332 99.4386 936.313 99.5725 936.366 99.7059C936.706 100.565 937.136 101.371 937.659 102.123C937.477 102.246 937.323 102.41 937.206 102.601C937.058 102.844 936.97 103.131 936.964 103.435C936.944 104.454 937.876 105.145 938.649 105.644C938.721 105.691 938.793 105.719 938.861 105.731C938.112 108.582 937.395 111.442 936.786 114.325L936.744 114.525C936.116 117.542 935.711 120.621 936.305 123.678C936.816 126.31 938.004 128.851 939.859 130.812C941.678 132.734 944.118 133.944 946.758 134.214ZM963.004 116.858C963.327 115.838 963.498 114.727 963.375 113.693C963.297 113.043 963.1 112.417 962.781 111.844C962.597 111.516 962.374 111.212 962.131 110.926L962.047 110.83C962.004 110.781 961.962 110.736 961.949 110.679C961.941 110.646 961.949 110.61 961.969 110.567C962.013 110.472 962.096 110.381 962.173 110.291C962.222 110.234 962.27 110.178 962.311 110.124C963.019 109.17 963.547 108.035 963.375 106.825C963.208 105.645 962.431 104.545 961.603 103.716C959.781 101.89 956.957 101.471 954.483 101.571C953.042 101.63 951.604 101.883 950.232 102.324C949.556 102.542 948.895 102.807 948.252 103.11L948.11 103.178C948.033 103.215 947.956 103.253 947.879 103.29C947.377 103.536 946.873 103.783 946.328 103.916C945.263 104.177 944.54 103.629 943.781 103.076C943.521 102.886 943.256 102.694 942.975 102.526L942.918 102.492C942.411 102.199 941.805 102.003 941.223 102.011C940.717 102.019 940.229 102.18 939.832 102.56C939.751 102.638 939.704 102.723 939.682 102.807C939.638 102.869 939.602 102.942 939.579 103.028C939.437 103.559 939.295 104.091 939.154 104.623L939.039 104.549C938.697 104.328 938.325 104.075 938.157 103.706C938.093 103.563 938.102 103.326 938.183 103.152C938.212 103.091 938.249 103.037 938.301 103.003C938.339 102.978 938.385 102.967 938.438 102.971C938.567 102.988 938.685 102.969 938.785 102.927C938.901 102.878 938.993 102.798 939.053 102.701C939.114 102.603 939.142 102.486 939.127 102.366C939.115 102.262 939.07 102.154 938.981 102.052C938.398 101.383 937.907 100.645 937.533 99.844L940.003 98.9347C940.883 98.6107 941.764 98.2871 942.645 97.9647L943.127 97.7883C944.73 97.2034 946.341 96.6319 948.007 96.2554C951.318 95.5072 954.771 95.683 958.073 96.3873L958.273 96.4302C959.658 96.7309 961.063 97.0947 962.334 97.7271C962.959 98.0375 963.552 98.4149 964.062 98.8918C964.287 99.1024 964.49 99.3329 964.694 99.5632C964.979 99.8859 965.265 100.208 965.604 100.48L965.918 100.73C966.387 101.106 966.809 101.472 967.073 102.054C967.35 102.663 967.482 103.336 967.589 103.991C967.861 105.642 967.968 107.32 967.958 108.992C967.94 111.8 967.512 114.551 966.97 117.292C966.536 116.673 965.925 116.194 965.142 116.091C964.631 116.025 964.125 116.119 963.686 116.344C963.432 116.474 963.201 116.647 963.004 116.858V116.858ZM963.825 120.192C964.397 119.972 964.997 119.899 965.603 120.005C965.666 120.016 965.726 120.003 965.777 119.973C965.829 119.944 965.869 119.896 965.892 119.844C965.917 119.784 965.918 119.719 965.896 119.661C965.876 119.611 965.839 119.562 965.771 119.53C965.115 119.219 964.387 119.081 963.664 119.179L963.593 119.189C963.223 119.244 962.703 119.359 962.313 119.585C962.007 119.762 961.783 120.007 961.727 120.327C961.698 120.493 961.74 120.667 961.836 120.793C961.93 120.915 962.072 120.996 962.257 120.991C962.582 120.982 962.775 120.845 963.007 120.668C963.035 120.646 963.064 120.624 963.094 120.602C963.318 120.435 963.563 120.293 963.825 120.192Z" fill="black"/>
<path fill-rule="evenodd" clip-rule="evenodd" d="M950.859 122.072C949.392 121.894 947.969 122.341 946.535 122.567C945.777 122.686 945.019 122.775 944.252 122.808C944.098 122.814 943.944 122.818 943.79 122.821C943.775 122.686 943.699 122.562 943.534 122.488C943.197 122.335 942.927 122.267 942.556 122.281C942.217 122.295 941.876 122.329 941.542 122.39C940.935 122.501 940.326 122.752 939.882 123.189C938.855 124.199 939.011 125.821 939.805 126.921C941.445 129.194 944.437 129.299 947 129.269L947.237 129.266C949.57 129.233 952.909 129.579 953.969 126.937C954.359 125.965 954.305 124.839 953.828 123.907C953.258 122.795 952.06 122.217 950.859 122.072ZM943.57 125.856L943.591 125.857C944.667 125.898 945.742 125.927 946.819 125.946C946.787 126.221 946.754 126.496 946.716 126.771C946.687 126.987 946.655 127.203 946.622 127.418C946.608 127.51 946.557 127.651 946.572 127.742L946.577 127.777V127.777C946.522 127.802 946.472 127.842 946.434 127.901C946.421 127.921 946.412 127.941 946.402 127.961C945.567 127.968 944.667 127.952 943.815 127.8L943.813 127.782V127.782C943.798 127.674 943.753 127.601 943.693 127.551C943.633 127.205 943.638 126.837 943.615 126.494C943.601 126.282 943.585 126.069 943.57 125.856ZM947.641 125.961C948.417 125.974 949.193 125.984 949.968 125.974L950.32 125.969V125.969C950.246 126.366 950.165 126.761 950.097 127.161C950.027 127.577 950.396 127.842 950.714 127.831C950.679 127.837 950.643 127.843 950.607 127.848C949.611 127.988 948.577 127.951 947.567 127.95C947.621 127.634 947.599 127.278 947.607 127.014L947.609 126.974C947.624 126.636 947.635 126.298 947.641 125.961ZM952.909 125.888C952.882 126.094 952.83 126.296 952.751 126.484C952.42 127.279 951.661 127.649 950.858 127.805C950.998 127.758 951.108 127.643 951.136 127.446C951.206 126.956 951.231 126.458 951.233 125.96C951.792 125.955 952.356 125.943 952.909 125.888ZM940.651 125.718C941.05 125.812 941.513 125.769 941.904 125.787C942.27 125.803 942.636 125.818 943.003 125.832C942.985 126.081 942.969 126.33 942.95 126.578C942.927 126.9 942.924 127.24 942.863 127.56C942.126 127.309 941.465 126.908 940.97 126.266C940.846 126.106 940.736 125.918 940.651 125.718ZM951.028 123.375C951.691 123.531 952.319 123.861 952.656 124.465C952.856 124.824 952.944 125.249 952.927 125.667C952.367 125.602 951.797 125.578 951.229 125.557C951.227 125.456 951.225 125.354 951.222 125.253L951.213 124.993C951.198 124.497 951.19 123.875 951.028 123.375ZM947.595 123.435L947.887 123.403C948.698 123.311 949.508 123.214 950.319 123.27C950.437 123.278 950.556 123.29 950.675 123.308C950.532 123.823 950.544 124.427 950.484 124.937C950.461 125.134 950.432 125.329 950.399 125.524L950.259 125.517V125.517C949.388 125.47 948.517 125.442 947.646 125.407C947.647 125.244 947.646 125.082 947.643 124.919L947.64 124.756C947.63 124.34 947.657 123.871 947.595 123.435ZM943.522 123.369C944.372 123.506 945.25 123.535 946.084 123.536C946.417 123.536 946.75 123.516 947.083 123.487C947.062 123.663 947.05 123.841 947.034 124.015C947.001 124.367 946.963 124.718 946.923 125.068L946.886 125.375V125.375C945.816 125.327 944.745 125.275 943.675 125.221L943.524 125.213V125.213L943.482 124.623C943.453 124.23 943.421 123.837 943.377 123.445L943.41 123.433V123.433C943.45 123.417 943.487 123.395 943.522 123.369ZM943.154 123.516C943.107 124.072 943.081 124.63 943.046 125.187L942.341 125.149C942.223 125.143 942.106 125.136 941.988 125.13C941.531 125.103 940.943 124.966 940.491 125.094C940.457 124.685 940.574 124.287 940.945 124.012C941.596 123.53 942.425 123.701 943.154 123.516ZM945.564 118.546C944.513 117.947 941.877 117.335 941.71 119.217C941.634 120.082 942.281 120.8 943.036 121.12L943.064 121.132C943.773 121.422 945.028 121.749 945.641 121.121C946.152 120.597 945.475 119.659 944.841 120.088C944.515 120.308 943.829 120.146 943.466 120.041L943.443 120.035C943.05 119.92 942.527 119.553 942.69 119.072C942.833 118.646 943.444 118.569 943.827 118.555C944.398 118.535 944.954 118.667 945.519 118.709C945.609 118.716 945.637 118.587 945.564 118.546ZM941.212 115.52C939.786 115.454 938.899 117.003 939.227 118.273C939.284 118.492 939.53 118.707 939.768 118.682L939.827 118.677C939.858 118.674 939.888 118.67 939.917 118.662C940.142 118.6 940.344 118.366 940.328 118.124L940.324 118.054C940.29 117.454 940.356 116.763 941.072 116.618C941.679 116.494 942.018 117.076 942.026 117.612C942.027 117.707 942.134 117.773 942.219 117.722C942.658 117.456 942.734 116.927 942.566 116.472C942.354 115.894 941.822 115.548 941.212 115.52ZM951.794 115.852C950.756 115.508 949.637 116.058 949.134 116.971C948.958 117.022 948.782 117.157 948.806 117.364C948.842 117.662 948.895 117.85 949.102 118.076C949.427 118.429 950.035 118.248 950.17 117.814L950.176 117.794C950.329 117.232 950.951 116.861 951.517 117.057C952.179 117.287 952.16 117.983 952.624 118.388C952.678 118.436 952.744 118.443 952.809 118.412C953.302 118.175 953.214 117.461 953.038 117.053C952.807 116.517 952.359 116.04 951.794 115.852ZM953.207 112.716C952.366 111.862 950.173 111.036 949.598 112.613C949.489 112.913 949.722 113.318 950.036 113.381C950.551 113.482 951.007 113.26 951.518 113.3C951.932 113.333 952.364 113.47 952.694 113.725C953.611 114.432 953.812 115.627 954.45 116.526C954.482 116.57 954.542 116.551 954.548 116.5C954.693 115.19 954.128 113.652 953.207 112.716ZM942.241 111.876C941.683 111.68 941.051 111.696 940.49 111.87C939.925 112.046 939.406 112.379 939.007 112.814C938.825 113.011 938.657 113.229 938.523 113.461C938.451 113.584 938.376 113.838 938.295 113.989C937.855 114.242 937.667 114.817 938.061 115.227L938.079 115.245L938.131 115.297C938.343 115.505 938.662 115.596 938.951 115.512C939.597 115.326 939.675 114.82 939.899 114.282C940.047 113.927 940.3 113.613 940.607 113.382C941.332 112.837 942.522 112.663 943.395 112.92C943.441 112.934 943.496 112.875 943.463 112.832C943.297 112.619 943.202 112.443 942.981 112.271C942.756 112.097 942.51 111.971 942.241 111.876Z" fill="black"/>
<path fill-rule="evenodd" clip-rule="evenodd" d="M159.972 727.211C160.243 730.077 159.689 732.815 158.368 735.129L157.939 735.882L158.756 736.172C160.245 736.7 161.9 736.956 163.816 736.956C165.789 736.956 167.84 736.678 169.488 736.454L170.543 736.311L170.025 735.382C169.608 734.636 169.531 733.731 169.449 732.773C169.427 732.516 169.404 732.25 169.374 731.987C167.813 717.843 165.839 703.514 163.93 689.657C163.428 686.01 162.908 682.24 162.404 678.531L160.959 678.587C160.57 685.453 160.193 692.434 159.828 699.185C159.667 702.154 159.507 705.123 159.345 708.091C158.768 715.596 158.967 721.673 159.972 727.211M160.562 812.028C158.439 812.028 156.312 811.804 154.241 811.363C147.758 809.984 141.868 806.73 136.857 803.789C136.601 803.642 136.341 803.495 136.075 803.344C134.113 802.231 131.671 800.847 130.141 799.159C128.462 797.307 128.173 795.461 129.232 793.35L129.399 793.016L129.224 792.686C128.128 790.619 128.21 788.061 129.422 786.467L130.442 785.127L128.766 785.307C127.076 785.488 125.374 785.735 123.727 785.973C121.899 786.237 120.01 786.51 118.149 786.693L117.631 786.744L117.512 787.249C117.446 787.53 117.364 787.7 116.79 787.7C116.292 787.7 115.623 787.553 114.915 787.396C114.037 787.202 113.04 786.982 112.08 786.982C111.657 786.982 111.277 787.023 110.918 787.107L110.709 787.156L110.56 787.311C110.465 787.409 110.303 787.471 110.137 787.471C110.012 787.471 109.896 787.435 109.818 787.374L109.584 787.188L109.286 787.221C104.097 787.798 99.6238 788.811 95.6093 790.318L95.5912 790.325L95.5041 790.363C94.0525 790.998 92.5517 791.654 91.1849 791.654C90.1857 791.654 89.3743 791.31 88.6313 790.57L88.4213 790.361L88.1251 790.358C85.1197 790.33 83.7464 786.779 83.5565 784.399L83.5327 784.099L83.3036 783.904C78.0658 779.45 74.9737 773.333 73.8501 765.202C72.8268 757.797 73.6125 749.988 74.5161 743.327C76.6061 726.064 78.786 710.588 84.3272 695.91L84.5861 695.224L83.8962 694.973C81.5029 694.102 79.6739 693.062 78.3044 691.794L78.2096 691.706L78.0902 691.657C76.1274 690.84 75.1661 687.823 74.9182 686.918L74.8984 686.845L74.8637 686.778C74.4633 685.999 74.3709 684.917 74.6104 683.807L74.6361 683.687L74.6212 683.566C74.4918 682.512 74.9211 681.411 75.3756 680.244C75.5833 679.711 75.7979 679.161 75.9547 678.612C76.4938 677.045 77.0324 675.449 77.5533 673.906C78.7222 670.445 79.9306 666.865 81.218 663.383L81.3941 662.906L81.0062 662.578C80.344 662.018 80.5652 661.358 81.52 659.78C81.7456 659.408 81.959 659.055 82.1213 658.708C83.3452 656.565 84.657 654.507 86.0208 652.592L86.0489 652.553L86.0713 652.511C93.0694 639.266 105.483 631.972 121.025 631.972L121.342 631.973L121.517 631.866C124.43 630.091 126.509 627.045 127.874 622.555L127.917 622.412L127.9 622.263C127.854 621.849 127.802 621.307 127.82 620.78C127.864 619.447 128.38 618.257 129.235 617.516C130.857 616.109 133.318 615.991 135.701 615.991L136.043 615.992C139.089 616.001 141.24 616.537 142.811 617.679C144.637 619.006 145.646 621.148 145.896 624.227C145.971 625.149 145.968 626.103 145.966 627.027L145.965 627.284L145.996 627.387C146.215 628.118 146.471 628.822 146.758 629.477L147.053 630.151L147.724 629.847C148.158 629.651 148.708 629.55 149.406 629.538C149.607 629.534 149.803 629.531 150.001 629.531C151.622 629.531 153.356 629.681 155.032 629.826C156.296 629.936 157.602 630.049 158.867 630.099L158.884 630.1C158.884 630.1 159.059 630.098 159.137 630.098C162.21 630.098 164.438 630.588 166.148 631.64C167.99 632.772 169.314 634.589 170.315 637.359C175.684 653.233 177.892 670.332 179.839 685.418C180.944 693.306 181.28 701.394 181.605 709.215C181.948 717.47 182.302 726.007 183.558 734.351L183.657 735.011L184.324 734.967C187.258 734.775 190.429 734.362 193.786 733.924C198.887 733.259 204.161 732.572 209.26 732.572C216.389 732.572 221.795 733.993 225.782 736.917C228.563 739.572 230.001 743.166 229.942 747.314C229.858 753.176 226.799 759.656 222.148 763.823L222.13 763.839C216.251 769.467 205.52 774.349 190.235 778.348C176.179 782.025 161.64 784.024 154.224 784.888L152.389 785.102L153.878 786.193C154.481 786.635 155.032 787.024 155.56 787.382L155.901 787.614L156.275 787.44C157.341 786.945 158.018 786.841 158.398 786.841C158.736 786.841 159.143 786.915 159.165 787.269C159.18 787.501 159.017 787.845 158.673 787.888L156.849 788.119L158.339 789.196C159.334 789.915 160.818 790.781 162.537 791.785C168.161 795.068 176.659 800.031 175.198 804.388L175.102 804.674L175.238 804.944C175.63 805.724 175.664 806.449 175.34 807.158C174.646 808.679 172.475 809.833 170.632 810.303L170.6 810.311L170.569 810.322C167.362 811.454 163.995 812.028 160.562 812.028" fill="white"/>
<path fill-rule="evenodd" clip-rule="evenodd" d="M154.391 784.035C154.613 783.806 154.706 783.507 154.499 783.155C153.698 782.119 152.038 782.827 151.005 783.066C150.615 782.738 150.228 782.408 149.855 782.06C149.984 781.245 149.018 780.703 148.621 780.075C148.231 779.612 147.864 779.086 147.396 778.698C146.257 777.797 144.678 778.407 143.355 778.366C142.337 777.053 141.288 775.781 140.319 774.425C141.436 772.523 141.515 770.296 141.144 768.177C158.271 761.591 173.096 749.122 191.619 746.241C192.256 746.133 192.613 745.349 192.455 744.773C191.163 741.648 172.595 749.711 169.819 751.171C161.633 755.143 153.965 760.095 146.009 764.463C144.35 765.356 142.525 765.836 140.711 766.301C137.923 757.029 133.207 748.53 129.591 739.591C129.826 739.179 130.026 738.746 130.196 738.301C130.076 743.217 134.794 743.149 135.445 738.485C135.176 740.916 136.99 746.122 139.609 742.706C140.223 741.848 140.441 740.749 140.545 739.641C140.679 740.407 140.832 741.17 141.001 741.93C141.673 743.436 143.508 741.605 143.934 740.819C144.18 740.774 144.41 740.661 144.579 740.522C149.208 741.173 154.661 741.136 158.058 737.432C163.82 739.672 170.197 737.665 176.024 736.771C187.882 735.389 199.787 733.283 211.752 733.444C217.093 733.759 223.395 734.633 226.774 739.251C231.108 745.909 228.658 754.902 223.877 760.665C212.377 775.421 172.9 781.837 154.391 784.035M154.714 789.35C154.924 789.293 155.135 789.241 155.344 789.192C158.701 792.024 174.51 799.378 173.308 803.771C172.883 804.317 171.866 804.442 171.222 804.618C170.102 804.925 168.971 805.191 167.829 805.401C164.138 806.082 160.315 806.2 156.629 805.424C155.273 805.215 154.048 804.629 152.813 804.062C148.822 802.283 144.426 800.317 140.454 798.552C135.408 796.525 126.557 792.53 130.197 785.789C133.646 789.72 138.023 789.376 140.229 784.491C140.989 783.007 141.653 781.008 143.439 780.408C144.381 779.763 145.586 779.629 146.373 780.348C146.43 780.259 146.481 780.133 146.509 780.022C147.396 781.302 148.162 782.65 149.202 783.82C148.845 783.839 145.127 786.628 146.224 786.629C147.544 785.94 148.856 785.366 150.281 784.994C151.314 786.047 152.45 787.027 153.627 787.932C152.484 788.697 151.457 789.634 150.631 790.65C150.56 790.74 150.647 790.856 150.753 790.808C152.036 790.229 153.355 789.72 154.714 789.35M171.731 808.345C158.891 814.189 145.298 807.681 134.348 800.743C131.821 799.313 128.497 797.286 129.008 793.919C130.869 796.679 133.938 798.25 136.883 799.613C141.831 801.879 146.811 804.073 151.772 806.312C152.24 807.887 154.481 807.947 155.835 808.296C161.862 809.481 168.34 808.892 174.013 806.53C173.684 807.516 172.61 807.968 171.731 808.345M120.502 785.587C120.184 785.628 119.867 785.665 119.55 785.702C119.583 785.276 119.329 784.851 118.923 784.719C119.105 783.817 119.173 782.885 119.075 781.97C119.606 783.359 121.318 782.937 122.405 782.537C123.959 782.109 125.503 781.649 127.039 781.158C127.644 782.298 128.286 783.421 129.074 784.453C126.204 784.712 123.361 785.225 120.502 785.587M119.239 781.218C119.162 781.381 119.053 781.554 119.051 781.75C118.973 781.074 118.822 780.407 118.592 779.768C118.807 780.251 119.023 780.735 119.239 781.218M117.427 777.595C116.015 775.73 113.405 774.206 110.993 774.726C110.838 774.76 110.834 775.012 110.993 775.044C114.234 775.49 117.079 778.095 117.192 781.462C117.448 782.987 116.401 784.483 116.754 785.946C116.683 785.951 116.613 785.954 116.544 785.959C116.519 786.057 116.496 786.144 116.465 786.22C116.815 786.279 116.918 786.85 116.505 786.952C116.261 787.012 116.005 787.043 115.745 787.057C114.424 786.695 113.03 786.612 111.767 786.078C110.517 785.518 110.83 783.945 110.389 782.856C110.065 781.6 109.694 780.349 109.225 779.144C109.191 779.047 109.062 779.069 109.051 779.167C108.72 781.571 108.731 784.017 108.811 786.44C108.377 786.485 107.946 786.535 107.514 786.589C107.542 785.912 105.538 777.664 104.482 779.781C105.013 782.108 105.077 784.539 105.134 786.933C101.999 787.457 98.9099 788.237 95.9042 789.298C93.7862 789.948 91.2672 791.873 89.2111 790.133C87.6186 788.799 87.0822 786.47 87.2323 784.489C89.3031 772.768 105.659 771.398 115.314 772.265C116.226 774.397 117.155 776.522 118.095 778.642C117.901 778.277 117.678 777.927 117.427 777.595M84.4967 784.261C84.3199 781.599 84.7619 778.286 86.708 776.302C91.162 772.486 97.3986 771.286 102.964 769.904C105.557 769.385 108.185 769.041 110.824 768.869C111.76 768.794 112.949 769.009 113.61 768.233C113.95 769.051 114.295 769.867 114.641 770.682C103.56 769.211 80.4423 774.322 86.9163 789.704C85.5453 788.199 84.6371 786.367 84.4967 784.261M139.547 775.462C140.057 776.753 140.68 777.982 141.495 779.106C140.569 779.721 139.813 780.628 139.28 781.604C135.865 790.658 132.213 785.808 127.676 780.95C131.516 779.481 136.602 778.381 139.547 775.462M82.7045 782.419C73.8243 773.529 72.1011 758.72 75.3816 747.08C75.6735 742.763 77.163 738.649 78.4975 734.562C82.7469 722.165 88.3355 710.238 95.0383 698.977C103.354 701.292 111.655 703.668 119.991 705.907C121.139 706.159 122.288 706.659 123.466 706.731C123.888 707.003 124.31 707.303 124.749 707.566C124.11 710.735 124.699 713.969 124.848 717.157C124.983 719.667 124.716 722.124 124.388 724.607C124.021 728.219 122.511 739.967 125.537 742.117C126.563 742.619 127.479 741.133 127.921 741.542C128.32 741.26 128.692 740.894 128.994 740.49C130.163 744.32 132.073 747.873 133.252 751.706C134.821 757.338 139.976 766.457 138.831 771.829C137.946 775.148 134.073 775.863 131.278 776.948C128.049 778.086 124.783 779.132 121.463 779.98C119.843 776.496 118.294 772.978 116.774 769.447C109.828 753.156 103.676 736.526 98.1784 719.697C98.0755 719.323 96.8112 715.276 96.5799 716.405C96.5606 716.289 96.4164 715.989 96.362 716.246C97.2944 720.197 98.2401 724.148 99.2635 728.077C96.7495 727.721 94.0465 727.582 91.7457 728.83C91.627 728.894 91.7142 729.053 91.8315 729.033C94.5563 728.555 97.1842 729.459 99.8011 730.108C103.476 742.786 108.219 755.142 113.238 767.344C111.686 766.842 109.884 767.397 108.264 767.437C103.16 767.971 98.1155 769.103 93.2945 770.862C87.2348 772.853 82.9503 775.45 82.7045 782.419M77.8156 689.904C76.3238 688.275 75.1514 686.196 75.378 683.99C76.2741 682.779 76.5708 681.199 77.0928 679.799C79.1333 673.941 81.0273 668.039 83.2482 662.244C87.9722 663.716 92.6199 665.482 97.0038 667.802C97.8103 668.219 98.6083 668.652 99.3967 669.1C100.223 669.569 101.124 670.384 102.114 670.151C101.032 671.704 98.8021 673.32 98.4255 675.115C98.3443 675.683 98.7415 676.21 99.3519 676.083C108.905 682.96 118.771 689.692 127.802 697.352C134.564 702.777 139.755 707.177 142.074 715.98C143.638 721.682 143.642 727.641 143.412 733.504C143.368 734.643 143.366 735.81 143.275 736.957C143.411 737.815 143.153 739.562 142.201 739.593C142.223 739.801 142.291 739.994 142.399 740.163C142.368 740.204 142.337 740.243 142.304 740.283C142.257 740.048 142.211 739.815 142.167 739.58C141.426 736.254 141.327 732.394 141.451 728.852C141.502 727.837 139.966 727.861 139.88 728.852C139.649 731.53 139.417 734.207 139.186 736.883C138.909 738.618 139.346 740.887 137.977 742.206C136.586 740.903 137.046 738.333 137.114 736.651C137.223 733.909 137.34 731.167 137.441 728.424C137.472 727.555 136.052 727.331 135.891 728.215C135.434 730.734 134.94 733.246 134.409 735.751C134.088 736.719 133.867 741.063 132.264 740.309C131.309 739.648 131.998 735.771 131.872 734.488C131.931 731.947 131.966 729.409 132.15 726.875C132.225 725.852 130.582 725.634 130.357 726.633C129.991 728.249 129.641 729.865 129.324 731.492C128.627 734.235 128.881 737.953 126.367 739.776C125.382 732.651 126.799 725.576 126.997 718.477C126.879 716.177 126.489 713.899 126.145 711.627C125.765 709.114 125.543 706.378 126.433 703.955C126.19 702.869 125.233 705.805 125.143 706.049C124.423 704.611 122.668 704.5 121.28 704.051C118.196 703.04 115.037 702.277 111.916 701.377C103.64 699.048 95.3543 696.755 87.0664 694.467C83.7556 693.538 80.2704 692.44 77.8156 689.904M160.689 727.8C159.547 721.528 159.579 715.172 160.067 708.831C160.603 698.996 161.124 689.159 161.681 679.325C164.1 697.124 166.678 714.901 168.649 732.757C168.79 733.999 168.768 735.314 169.387 736.423C165.967 736.887 162.322 737.355 158.996 736.176C160.456 733.62 160.97 730.709 160.689 727.8M177.969 683.62C180.554 700.489 179.079 717.654 181.587 734.503C178.108 734.899 174.656 735.484 171.213 736.127C171.59 734.045 170.875 731.896 170.752 729.8C168.882 714.849 166.817 699.909 164.081 685.089C163.41 681.542 162.732 678.01 161.955 674.483C162.072 672.347 162.175 670.211 162.243 668.074C166.04 665.655 170.32 664.09 174.748 663.3C175.944 670.055 177.139 676.805 177.969 683.62M148.04 630.612C147.888 630.35 147.744 630.082 147.606 629.81C148.073 629.828 148.529 629.845 148.989 629.922C148.968 630.673 149.009 631.429 149.018 632.186C148.788 631.633 148.337 631.127 148.04 630.612M226.126 736.322C215.083 728.185 196.945 733.369 184.152 734.206C181.713 717.999 182.709 701.529 180.436 685.296C178.342 669.079 176.134 652.635 170.876 637.097C168.706 631.09 164.952 629.306 158.771 629.354C155.635 629.229 152.318 628.721 149.27 628.793C148.601 628.804 147.903 628.893 147.3 629.167C146.452 627.23 145.992 625.151 145.759 623.056C145.745 622.923 145.578 622.899 145.528 623.026C144.811 624.85 144.735 626.841 145.125 628.751C145.407 630.119 147.086 635.504 149.037 633.397C149.192 637.815 148.234 643.092 143.963 645.385C136.5 648.683 126.184 645.68 121.86 638.681C121.025 637.282 120.304 635.794 119.379 634.451C125.825 632.602 129.444 624.775 127.925 618.814C126.987 623.45 125.275 628.63 121.014 631.226C105.496 631.191 92.5946 638.353 85.3045 652.148C83.8779 654.151 82.5591 656.233 81.3506 658.35C80.7002 659.767 78.7954 661.738 80.4121 663.106C78.5447 668.156 76.8881 673.277 75.137 678.367C74.6561 680.063 73.5566 681.842 73.7759 683.625C73.5385 684.724 73.5494 686.023 74.0932 687.08C74.609 688.963 75.7666 691.497 77.6861 692.296C79.3149 693.803 81.3748 694.842 83.5231 695.624C77.7938 710.796 75.6129 727.16 73.6717 743.191C71.7692 757.215 70.7872 774.275 82.7081 784.411C82.9394 787.311 84.6371 791.006 87.994 791.037C90.319 793.351 93.1528 792.082 95.7407 790.95C100.109 789.311 104.69 788.402 109.242 787.896C109.73 788.282 110.524 788.218 110.959 787.768C113.717 787.123 117.538 789.732 118.095 787.369C121.651 787.019 125.168 786.364 128.719 785.982C127.223 787.95 127.33 790.852 128.458 792.979C125.587 798.702 132.275 802.017 136.364 804.365C141.885 807.605 147.651 810.679 153.965 812.022C159.516 813.205 165.331 812.846 170.687 810.956C173.502 810.239 177.433 807.885 175.762 804.57C177.879 798.26 163.013 791.721 158.64 788.562C160.428 788.336 160.493 784.576 155.844 786.736C155.282 786.356 154.73 785.963 154.184 785.563C172.988 783.372 208.9 777.347 222.509 764.321C229.985 757.623 234.299 744.074 226.126 736.322" fill="black"/>
<path fill-rule="evenodd" clip-rule="evenodd" d="M133.982 580.52C151.927 579.626 160.025 592.432 160.549 598.152C160.913 602.122 158.598 606.699 158.598 610.247C158.598 612.058 160.786 615.946 159.767 618.585C157.5 624.46 152.701 630.981 146.584 630.981C140.468 630.981 132.508 632.695 125.749 622.887C125.115 621.967 117.094 616.737 116.315 611.767C114.374 599.387 121.177 581.158 133.982 580.52Z" fill="white"/>
<path fill-rule="evenodd" clip-rule="evenodd" d="M133.137 572.551C133.778 571.807 134.862 571.509 135.824 571.567C137.223 571.651 138.439 572.525 139.83 572.59C141.288 572.659 142.696 572.146 144.158 572.384C145.055 572.53 145.943 572.951 146.517 573.662C148.506 573.085 150.665 573.849 151.932 575.518C153.495 575.272 155.195 576.321 155.674 577.847C157.659 577.912 159.533 579.529 159.755 581.554C160.548 581.767 161.237 582.321 161.66 583.054C162.151 583.904 162.233 584.878 162.144 585.836C163.078 586.319 163.553 587.359 163.677 588.458C164.531 589.103 164.902 590.264 164.727 591.359C165.381 591.733 165.719 592.601 165.715 593.377C165.711 594.1 165.522 594.741 165.788 595.439C166.026 596.061 166.111 596.58 165.98 597.231L165.967 597.295C165.944 597.401 165.925 597.503 165.907 597.603C166.084 597.76 166.233 597.957 166.346 598.186C166.755 599.024 166.694 599.979 166.382 600.829C166.519 601.37 166.501 601.941 166.299 602.461C166.678 603.014 166.877 603.692 166.818 604.395C166.753 605.182 166.398 605.887 165.86 606.408C166.003 607.484 165.572 608.646 164.792 609.403C164.902 610.047 164.807 610.722 164.459 611.332C164.212 611.767 163.878 612.091 163.494 612.317C163.506 612.676 163.458 613.043 163.34 613.411C163.177 613.922 162.899 614.392 162.535 614.771C162.752 616.182 161.919 617.748 160.452 618.144C160.328 618.177 160.211 618.192 160.098 618.195C159.953 619.552 159.634 620.89 159.141 622.161C157.889 625.397 155.611 628.227 152.64 629.992C151.171 630.865 149.521 631.462 147.836 631.712C146.623 631.892 145.457 631.847 144.24 631.725C142.713 631.57 141.178 631.339 139.694 630.94L139.455 630.876C138.839 630.709 138.19 630.516 137.657 630.179C137.06 629.803 136.75 629.222 136.613 628.538C136.536 628.157 136.774 627.748 137.186 627.74L137.212 627.74C137.302 627.742 137.391 627.738 137.482 627.732L137.55 627.728H137.553C137.558 627.727 137.56 627.727 137.565 627.727C137.605 627.721 137.644 627.709 137.683 627.703C138.136 627.625 138.531 627.702 138.956 627.845L139.009 627.863C139.724 628.113 140.434 628.345 141.172 628.516C141.936 628.693 142.709 628.833 143.485 628.943L143.562 628.953L143.585 628.957L143.597 628.958V628.958C143.6 628.958 143.602 628.958 143.604 628.959L143.833 628.988V628.988C144.013 629.009 144.193 629.029 144.373 629.048C144.704 629.081 145.036 629.108 145.367 629.127C151.089 629.453 155.895 624.887 157.345 619.413C157.871 617.432 157.905 615.455 157.75 613.478C157.701 613.334 157.671 613.174 157.672 612.999C157.672 612.908 157.677 612.818 157.683 612.727C157.49 610.814 157.155 608.9 156.945 606.98C156.7 604.737 156.564 602.481 156.614 600.224C156.639 599.109 156.756 598.005 156.91 596.901L156.965 596.504V596.504C156.27 596.367 155.623 596.032 155.108 595.549C153.991 596.203 152.545 596.26 151.442 595.57C150.205 596.356 148.479 596.427 147.234 595.659C146.482 596.203 145.534 596.438 144.603 596.231C144.185 596.138 143.768 595.937 143.412 595.659C143.158 595.705 142.9 595.722 142.644 595.709L142.591 595.739V595.739C142 596.054 141.345 596.262 140.672 596.239C140.173 596.222 139.659 596.122 139.184 595.933C138.676 596.244 138.12 596.456 137.525 596.532C136.656 596.643 135.719 596.449 134.996 595.949C133.676 596.711 132.052 596.829 130.627 596.317C130.335 596.818 129.931 597.25 129.459 597.583C129.543 597.89 129.57 598.218 129.541 598.533C129.493 599.052 129.365 599.517 129.155 599.935C129.376 600.402 129.443 600.975 129.319 601.55C129.142 602.37 128.672 603.083 128.062 603.639C128.008 604.947 127.3 606.175 126.148 606.856C126.089 606.891 126.031 606.919 125.973 606.944C125.923 607.015 125.862 607.077 125.792 607.129C125.059 607.815 123.9 607.761 122.981 607.373C122.963 607.374 122.945 607.375 122.927 607.376C122.599 607.384 122.376 607.255 122.243 607.064C122.109 607.071 121.977 607.085 121.843 607.111C121.355 607.203 120.82 607.381 120.378 607.611C119.232 608.209 118.702 609.265 118.543 610.534C118.37 611.919 118.763 613.33 119.821 614.267C120.334 614.723 120.992 615.009 121.659 615.129C122.397 615.262 123.185 614.935 123.73 615.577C123.839 615.704 123.914 615.881 123.854 616.053C123.67 616.588 123.365 616.793 122.889 616.868C123.577 617.695 124.283 618.494 125.064 619.237C125.91 620.042 126.784 620.822 127.546 621.71C128.352 622.649 129.08 623.645 129.586 624.785C129.875 625.441 130.107 626.116 130.357 626.787L130.402 626.904C130.68 627.617 131.051 628.304 130.622 629.048C130.452 629.341 130.066 629.624 129.71 629.577C128.71 629.447 128.375 628.762 128.067 627.869C127.835 627.195 127.657 626.501 127.408 625.833C127.361 625.709 127.31 625.587 127.257 625.465C126.68 625.628 126.045 625.498 125.531 625.165C124.981 625.412 124.371 625.535 123.783 625.525C122.995 625.511 122.275 625.289 121.656 624.889C121.606 624.876 121.557 624.863 121.508 624.849C120.566 625.214 119.463 625.149 118.611 624.556C118.059 624.173 117.681 623.661 117.467 623.091C116.753 623.077 116.048 622.821 115.537 622.308C115.067 621.837 114.793 621.229 114.712 620.598C114.098 620.475 113.522 620.174 113.07 619.667C112.693 619.244 112.464 618.705 112.387 618.145C111.639 617.929 110.965 617.434 110.596 616.744C110.254 616.102 110.204 615.405 110.372 614.771L110.328 614.708V614.708C109.558 614.299 108.97 613.63 108.91 612.675C108.893 612.403 108.922 612.13 108.995 611.873C108.968 611.585 108.985 611.297 109.06 611.019C108.024 609.998 107.648 608.357 108.211 607.001C107.198 605.897 106.931 604.151 107.673 602.841C107.164 602.217 106.902 601.421 106.946 600.572C107.001 599.511 107.48 598.585 108.054 597.727C107.628 597.249 107.401 596.583 107.417 595.94C107.441 595.007 107.93 594.205 108.542 593.54C108.008 591.898 108.605 590.117 109.916 589.078C109.65 588.635 109.552 588.087 109.639 587.531C109.79 586.561 110.509 585.899 111.284 585.376C111.122 584.841 111.165 584.264 111.423 583.711C111.767 582.973 112.417 582.505 113.096 582.109C113.271 580.472 115.075 579.074 116.588 579.919C116.213 578.701 117.294 577.385 118.537 577.246C119.146 575.377 121.245 574.198 123.132 574.663C124.097 573.326 125.893 572.811 127.418 573.385C129.095 572.083 131.175 571.889 133.137 572.551ZM121.194 609.26C122.372 609.195 123.255 610.169 123.876 611.061C124.458 611.897 122.964 612.781 122.528 611.859C122.372 611.53 122.195 611.182 121.957 610.894C121.917 610.951 121.881 611.01 121.846 611.07L121.811 611.131C121.785 611.175 121.758 611.221 121.735 611.267C121.737 611.276 121.702 611.386 121.701 611.391C121.604 611.69 121.392 611.882 121.103 611.985C120.73 612.117 120.377 611.833 120.258 611.499C120.067 610.966 120.51 610.502 120.97 610.291C120.518 610.216 120.073 610.372 119.746 610.725C119.701 610.774 119.625 610.735 119.623 610.673C119.585 609.837 120.448 609.301 121.194 609.26Z" fill="black"/>
<path fill-rule="evenodd" clip-rule="evenodd" d="M147.026 621.831C146.23 621.502 145.52 620.953 145 620.252C144.82 620.008 144.773 619.751 144.811 619.515C144.854 619.251 145.008 619.011 145.219 618.85C145.43 618.688 145.695 618.609 145.95 618.649C146.173 618.685 146.394 618.808 146.569 619.064L146.605 619.115C146.914 619.538 147.316 619.885 147.774 620.109C148.216 620.325 148.71 620.425 149.221 620.367C150.195 620.255 150.866 619.722 151.579 618.997C151.668 618.905 151.756 618.811 151.845 618.715C151.901 618.628 151.979 618.572 152.066 618.543C152.162 618.511 152.271 618.512 152.37 618.548C152.466 618.582 152.552 618.646 152.609 618.731C152.664 618.813 152.695 618.913 152.685 619.029C152.62 619.78 152.232 620.45 151.682 620.977C151.071 621.561 150.261 621.966 149.498 622.108C148.657 622.264 147.801 622.152 147.026 621.831V621.831ZM149.894 610.244C150.788 610.795 152.151 612.079 151.189 613.445C150.057 614.649 148.427 613.268 147.623 612.644C146.879 612.16 146.042 613.405 146.733 613.97C152.537 618.325 154.892 610.388 150.346 609.597C149.846 609.509 149.66 610.074 149.894 610.244ZM139.493 605.178C139.592 603.935 141.459 603.653 141.645 604.882C141.811 605.984 141.615 606.996 141.126 607.988C140.658 608.935 139.482 608.493 139.393 607.631C139.274 606.474 139.431 605.951 139.493 605.178ZM153.708 604.628C153.968 604.282 154.344 604.046 154.795 604.179C156.202 604.596 155.787 606.621 155.293 607.606C155.024 608.142 154.156 608.277 153.764 607.806C153.125 607.038 152.819 605.503 153.631 604.746C153.653 604.707 153.678 604.667 153.708 604.628ZM141.106 599.74L141.328 599.7C142.016 599.58 142.871 599.464 143.357 600.024C143.615 600.321 143.704 600.874 143.357 601.158C142.747 601.658 142.073 601.465 141.342 601.507C140.74 601.542 140.161 601.643 139.58 601.811C138.307 602.18 137.27 602.853 136.183 603.592C136.04 603.689 135.895 603.504 135.963 603.369C136.59 602.123 137.806 601.1 139.025 600.476C139.675 600.143 140.387 599.867 141.106 599.74ZM152.425 599.182L152.595 599.217C154.447 599.609 156.852 600.393 157.729 602.236C157.762 602.496 157.727 602.552 157.698 602.589L157.689 602.601C157.665 602.632 157.646 602.675 157.535 602.711C157.504 602.703 157.473 602.695 157.441 602.687C157.039 602.58 156.721 602.433 156.413 602.28L156.08 602.114C155.692 601.921 155.302 601.736 154.888 601.599C154.004 601.307 153.096 601.101 152.173 600.991C151.973 600.968 151.78 600.899 151.628 600.782C151.484 600.671 151.374 600.516 151.324 600.312C151.258 600.046 151.277 599.846 151.417 599.607C151.523 599.427 151.674 599.303 151.847 599.231C152.024 599.158 152.225 599.141 152.425 599.182Z" fill="black"/>
<ellipse cx="1270" cy="305" rx="94" ry="91" fill="#FFBCBC" fill-opacity="0.2"/>
<circle cx="1245" cy="387" r="35" fill="#1B2C66"/>
<ellipse cx="663" cy="663" rx="53" ry="51" fill="#FFD976"/>
</svg>
