<?xml version="1.0" encoding="utf-8"?>
<!-- Generator: Adobe Illustrator 27.3.0, SVG Export Plug-In . SVG Version: 6.00 Build 0)  -->
<svg version="1.1" id="Layer_1" xmlns="http://www.w3.org/2000/svg" xmlns:xlink="http://www.w3.org/1999/xlink" x="0px" y="0px"
	 viewBox="0 0 803 72" style="enable-background:new 0 0 803 72;" xml:space="preserve">
<style type="text/css">
	.st0{fill:#E8EFFC;}
	.st1{fill:#171D3F;}
	.st2{fill:#F2F4F7;}
	.st3{fill:#344054;}
	.st4{fill:#F0F9FF;}
	.st5{fill:#667085;}
	.st6{clip-path:url(#SVGID_00000109743845936171181120000013931366122987122872_);}
	.st7{fill:#0052B4;}
	.st8{fill:#F0F0F0;}
	.st9{fill:#D80027;}
	.st10{clip-path:url(#SVGID_00000160151299115009184790000003565766091839477142_);}
	.st11{clip-path:url(#SVGID_00000006679964634255488930000018095072608429899906_);}
	.st12{clip-path:url(#SVGID_00000060737108410056573100000017863486234560281742_);}
	.st13{clip-path:url(#SVGID_00000178900474157841341420000010202824657839320498_);}
	.st14{clip-path:url(#SVGID_00000155827367548587661780000006750283999309913481_);}
</style>
<path class="st0" d="M11,44h23c6.1,0,11,4.9,11,11l0,0c0,6.1-4.9,11-11,11H11C4.9,66,0,61.1,0,55l0,0C0,48.9,4.9,44,11,44z"/>
<path class="st1" d="M14.4,58.9V60H9.5v-8.6h1.3v7.5H14.4z M18.7,57.3c-0.5,0-0.9,0.1-1.2,0.1c-0.3,0.1-0.6,0.1-0.8,0.2
	c-0.2,0.1-0.4,0.2-0.5,0.3c-0.1,0.1-0.1,0.3-0.1,0.4c0,0.2,0,0.3,0.1,0.4c0.1,0.1,0.1,0.2,0.2,0.3c0.1,0.1,0.2,0.1,0.3,0.2
	c0.1,0,0.2,0,0.4,0c0.2,0,0.3,0,0.5-0.1c0.2,0,0.3-0.1,0.4-0.2c0.1-0.1,0.3-0.2,0.4-0.2c0.1-0.1,0.2-0.2,0.4-0.3V57.3z M15.3,54.8
	c0.3-0.3,0.7-0.6,1.1-0.7c0.4-0.2,0.8-0.2,1.3-0.2c0.3,0,0.7,0.1,0.9,0.2c0.3,0.1,0.5,0.3,0.7,0.5s0.3,0.4,0.4,0.7
	c0.1,0.3,0.1,0.6,0.1,0.9V60h-0.5c-0.1,0-0.2,0-0.3-0.1c-0.1,0-0.1-0.1-0.1-0.2l-0.1-0.5c-0.2,0.1-0.3,0.3-0.5,0.4
	c-0.2,0.1-0.3,0.2-0.5,0.3c-0.2,0.1-0.3,0.1-0.5,0.2c-0.2,0-0.4,0.1-0.6,0.1c-0.2,0-0.5,0-0.7-0.1c-0.2-0.1-0.4-0.2-0.5-0.3
	s-0.3-0.3-0.4-0.5C15,59,15,58.7,15,58.5c0-0.2,0.1-0.5,0.2-0.7c0.1-0.2,0.3-0.4,0.6-0.6c0.3-0.2,0.7-0.3,1.2-0.4
	c0.5-0.1,1.1-0.2,1.8-0.2v-0.4c0-0.5-0.1-0.8-0.3-1c-0.2-0.2-0.5-0.3-0.9-0.3c-0.3,0-0.5,0-0.6,0.1c-0.2,0.1-0.3,0.1-0.5,0.2
	c-0.1,0.1-0.2,0.1-0.3,0.2c-0.1,0.1-0.2,0.1-0.3,0.1c-0.1,0-0.2,0-0.2-0.1c-0.1,0-0.1-0.1-0.1-0.2L15.3,54.8z M22.6,58.5
	c0.2,0.3,0.4,0.4,0.6,0.5c0.2,0.1,0.5,0.2,0.7,0.2c0.5,0,1-0.2,1.3-0.6c0.3-0.4,0.4-1,0.4-1.8c0-0.7-0.1-1.3-0.4-1.6
	c-0.3-0.3-0.6-0.5-1.1-0.5c-0.3,0-0.6,0.1-0.9,0.2c-0.2,0.2-0.5,0.4-0.7,0.6V58.5z M22.6,54.7c0.3-0.3,0.5-0.5,0.9-0.7
	c0.3-0.2,0.7-0.3,1.1-0.3c0.4,0,0.7,0.1,1,0.2c0.3,0.1,0.5,0.3,0.7,0.6c0.2,0.3,0.4,0.6,0.5,0.9s0.2,0.8,0.2,1.2
	c0,0.5-0.1,0.9-0.2,1.3c-0.1,0.4-0.3,0.8-0.5,1c-0.2,0.3-0.5,0.5-0.8,0.7c-0.3,0.2-0.7,0.2-1.1,0.2c-0.2,0-0.4,0-0.5-0.1
	c-0.2,0-0.3-0.1-0.5-0.2c-0.1-0.1-0.3-0.2-0.4-0.3c-0.1-0.1-0.2-0.2-0.3-0.4l-0.1,0.5c0,0.2-0.1,0.2-0.3,0.2h-0.8v-8.9h1.2V54.7z
	 M32.2,56.3c0-0.2,0-0.4-0.1-0.6c-0.1-0.2-0.2-0.4-0.3-0.5c-0.1-0.1-0.3-0.3-0.5-0.3c-0.2-0.1-0.4-0.1-0.6-0.1
	c-0.5,0-0.9,0.1-1.2,0.4c-0.3,0.3-0.5,0.7-0.5,1.2H32.2z M33.2,59.1c-0.1,0.2-0.3,0.3-0.5,0.4c-0.2,0.1-0.4,0.2-0.6,0.3
	c-0.2,0.1-0.4,0.1-0.7,0.2c-0.2,0-0.4,0.1-0.7,0.1c-0.4,0-0.8-0.1-1.2-0.2c-0.4-0.1-0.7-0.4-0.9-0.6c-0.3-0.3-0.5-0.6-0.6-1
	c-0.1-0.4-0.2-0.9-0.2-1.4c0-0.4,0.1-0.8,0.2-1.2c0.1-0.4,0.3-0.7,0.6-1c0.2-0.3,0.5-0.5,0.9-0.6c0.4-0.2,0.8-0.2,1.2-0.2
	c0.4,0,0.7,0.1,1,0.2c0.3,0.1,0.6,0.3,0.8,0.5c0.2,0.2,0.4,0.5,0.5,0.9c0.1,0.3,0.2,0.7,0.2,1.2c0,0.2,0,0.3-0.1,0.4
	c0,0.1-0.1,0.1-0.2,0.1h-4c0,0.4,0.1,0.7,0.2,1c0.1,0.3,0.2,0.5,0.4,0.7c0.2,0.2,0.4,0.3,0.6,0.4c0.2,0.1,0.5,0.1,0.8,0.1
	c0.3,0,0.5,0,0.7-0.1c0.2-0.1,0.4-0.1,0.5-0.2c0.1-0.1,0.3-0.1,0.3-0.2c0.1-0.1,0.2-0.1,0.3-0.1c0.1,0,0.2,0,0.2,0.1L33.2,59.1z
	 M35.7,51.1V60h-1.2v-8.9H35.7z"/>
<path class="st2" d="M11,0h23c6.1,0,11,4.9,11,11l0,0c0,6.1-4.9,11-11,11H11C4.9,22,0,17.1,0,11l0,0C0,4.9,4.9,0,11,0z"/>
<path class="st3" d="M14.4,14.9V16H9.5V7.4h1.3v7.5H14.4z M18.7,13.3c-0.5,0-0.9,0.1-1.2,0.1c-0.3,0.1-0.6,0.1-0.8,0.2
	c-0.2,0.1-0.4,0.2-0.5,0.3c-0.1,0.1-0.1,0.3-0.1,0.4c0,0.2,0,0.3,0.1,0.4c0.1,0.1,0.1,0.2,0.2,0.3c0.1,0.1,0.2,0.1,0.3,0.1
	c0.1,0,0.2,0,0.4,0c0.2,0,0.3,0,0.5-0.1c0.2,0,0.3-0.1,0.4-0.2c0.1-0.1,0.3-0.1,0.4-0.2c0.1-0.1,0.2-0.2,0.4-0.3V13.3z M15.3,10.8
	c0.3-0.3,0.7-0.6,1.1-0.7c0.4-0.2,0.8-0.2,1.3-0.2c0.3,0,0.7,0.1,0.9,0.2c0.3,0.1,0.5,0.3,0.7,0.5c0.2,0.2,0.3,0.4,0.4,0.7
	c0.1,0.3,0.1,0.6,0.1,0.9V16h-0.5c-0.1,0-0.2,0-0.3-0.1c-0.1,0-0.1-0.1-0.1-0.2l-0.1-0.5c-0.2,0.1-0.3,0.3-0.5,0.4
	c-0.2,0.1-0.3,0.2-0.5,0.3c-0.2,0.1-0.3,0.1-0.5,0.2c-0.2,0-0.4,0.1-0.6,0.1c-0.2,0-0.5,0-0.7-0.1c-0.2-0.1-0.4-0.2-0.5-0.3
	c-0.2-0.1-0.3-0.3-0.4-0.5C15,15,15,14.7,15,14.5c0-0.2,0.1-0.5,0.2-0.7c0.1-0.2,0.3-0.4,0.6-0.6c0.3-0.2,0.7-0.3,1.2-0.4
	c0.5-0.1,1.1-0.2,1.8-0.2v-0.4c0-0.5-0.1-0.8-0.3-1c-0.2-0.2-0.5-0.3-0.9-0.3c-0.3,0-0.5,0-0.6,0.1c-0.2,0.1-0.3,0.1-0.5,0.2
	c-0.1,0.1-0.2,0.1-0.3,0.2c-0.1,0.1-0.2,0.1-0.3,0.1c-0.1,0-0.2,0-0.2-0.1c-0.1,0-0.1-0.1-0.1-0.2L15.3,10.8z M22.6,14.5
	c0.2,0.3,0.4,0.4,0.6,0.5c0.2,0.1,0.5,0.2,0.7,0.2c0.5,0,1-0.2,1.3-0.6c0.3-0.4,0.4-1,0.4-1.8c0-0.7-0.1-1.3-0.4-1.6
	c-0.3-0.3-0.6-0.5-1.1-0.5c-0.3,0-0.6,0.1-0.9,0.2c-0.2,0.2-0.5,0.4-0.7,0.6V14.5z M22.6,10.7c0.3-0.3,0.5-0.5,0.9-0.7
	c0.3-0.2,0.7-0.3,1.1-0.3c0.4,0,0.7,0.1,1,0.2c0.3,0.1,0.5,0.3,0.7,0.6c0.2,0.3,0.4,0.6,0.5,0.9s0.2,0.8,0.2,1.2
	c0,0.5-0.1,0.9-0.2,1.3c-0.1,0.4-0.3,0.8-0.5,1c-0.2,0.3-0.5,0.5-0.8,0.7c-0.3,0.2-0.7,0.2-1.1,0.2c-0.2,0-0.4,0-0.5-0.1
	c-0.2,0-0.3-0.1-0.5-0.2c-0.1-0.1-0.3-0.2-0.4-0.3c-0.1-0.1-0.2-0.2-0.3-0.4l-0.1,0.5c0,0.2-0.1,0.2-0.3,0.2h-0.8V7.1h1.2V10.7z
	 M32.2,12.3c0-0.2,0-0.4-0.1-0.6c-0.1-0.2-0.2-0.4-0.3-0.5c-0.1-0.1-0.3-0.3-0.5-0.3s-0.4-0.1-0.6-0.1c-0.5,0-0.9,0.1-1.2,0.4
	c-0.3,0.3-0.5,0.7-0.5,1.2H32.2z M33.2,15.1c-0.1,0.2-0.3,0.3-0.5,0.4c-0.2,0.1-0.4,0.2-0.6,0.3c-0.2,0.1-0.4,0.1-0.7,0.2
	c-0.2,0-0.4,0.1-0.7,0.1c-0.4,0-0.8-0.1-1.2-0.2c-0.4-0.1-0.7-0.4-0.9-0.6c-0.3-0.3-0.5-0.6-0.6-1c-0.1-0.4-0.2-0.9-0.2-1.4
	c0-0.4,0.1-0.8,0.2-1.2c0.1-0.4,0.3-0.7,0.6-1c0.2-0.3,0.5-0.5,0.9-0.6c0.4-0.2,0.8-0.2,1.2-0.2c0.4,0,0.7,0.1,1,0.2
	c0.3,0.1,0.6,0.3,0.8,0.5c0.2,0.2,0.4,0.5,0.5,0.9c0.1,0.3,0.2,0.7,0.2,1.2c0,0.2,0,0.3-0.1,0.4c0,0.1-0.1,0.1-0.2,0.1h-4
	c0,0.4,0.1,0.7,0.2,1c0.1,0.3,0.2,0.5,0.4,0.7c0.2,0.2,0.4,0.3,0.6,0.4c0.2,0.1,0.5,0.1,0.8,0.1c0.3,0,0.5,0,0.7-0.1
	c0.2-0.1,0.4-0.1,0.5-0.2c0.1-0.1,0.3-0.1,0.3-0.2c0.1-0.1,0.2-0.1,0.3-0.1c0.1,0,0.2,0,0.2,0.1L33.2,15.1z M35.7,7.1V16h-1.2V7.1
	H35.7z"/>
<path class="st0" d="M273,44h35c6.1,0,11,4.9,11,11l0,0c0,6.1-4.9,11-11,11h-35c-6.1,0-11-4.9-11-11l0,0C262,48.9,266.9,44,273,44z"
	/>
<circle class="st4" cx="272" cy="55" r="3"/>
<path class="st1" d="M288.4,58.9V60h-4.9v-8.6h1.3v7.5H288.4z M292.7,57.3c-0.5,0-0.9,0.1-1.2,0.1c-0.3,0.1-0.6,0.1-0.8,0.2
	c-0.2,0.1-0.4,0.2-0.4,0.3c-0.1,0.1-0.1,0.3-0.1,0.4c0,0.2,0,0.3,0.1,0.4c0.1,0.1,0.1,0.2,0.2,0.3c0.1,0.1,0.2,0.1,0.3,0.2
	c0.1,0,0.2,0,0.4,0c0.2,0,0.3,0,0.5-0.1c0.2,0,0.3-0.1,0.4-0.2c0.1-0.1,0.3-0.2,0.4-0.2c0.1-0.1,0.2-0.2,0.4-0.3V57.3z M289.3,54.8
	c0.3-0.3,0.7-0.6,1.1-0.7c0.4-0.2,0.8-0.2,1.3-0.2c0.3,0,0.7,0.1,0.9,0.2c0.3,0.1,0.5,0.3,0.7,0.5c0.2,0.2,0.3,0.4,0.4,0.7
	c0.1,0.3,0.1,0.6,0.1,0.9V60h-0.5c-0.1,0-0.2,0-0.3-0.1c-0.1,0-0.1-0.1-0.1-0.2l-0.1-0.5c-0.2,0.1-0.3,0.3-0.5,0.4
	c-0.2,0.1-0.3,0.2-0.5,0.3c-0.2,0.1-0.3,0.1-0.5,0.2c-0.2,0-0.4,0.1-0.6,0.1c-0.2,0-0.5,0-0.7-0.1c-0.2-0.1-0.4-0.2-0.5-0.3
	s-0.3-0.3-0.4-0.5c-0.1-0.2-0.1-0.4-0.1-0.7c0-0.2,0.1-0.5,0.2-0.7c0.1-0.2,0.3-0.4,0.6-0.6c0.3-0.2,0.7-0.3,1.2-0.4
	c0.5-0.1,1.1-0.2,1.8-0.2v-0.4c0-0.5-0.1-0.8-0.3-1c-0.2-0.2-0.5-0.3-0.9-0.3c-0.3,0-0.5,0-0.6,0.1c-0.2,0.1-0.3,0.1-0.5,0.2
	c-0.1,0.1-0.2,0.1-0.3,0.2c-0.1,0.1-0.2,0.1-0.3,0.1c-0.1,0-0.1,0-0.2-0.1c-0.1,0-0.1-0.1-0.1-0.2L289.3,54.8z M296.6,58.5
	c0.2,0.3,0.4,0.4,0.6,0.5s0.5,0.2,0.7,0.2c0.5,0,1-0.2,1.3-0.6c0.3-0.4,0.4-1,0.4-1.8c0-0.7-0.1-1.3-0.4-1.6
	c-0.3-0.3-0.6-0.5-1.1-0.5c-0.3,0-0.6,0.1-0.9,0.2c-0.2,0.2-0.5,0.4-0.7,0.6V58.5z M296.6,54.7c0.3-0.3,0.5-0.5,0.9-0.7
	c0.3-0.2,0.7-0.3,1.1-0.3c0.4,0,0.7,0.1,1,0.2c0.3,0.1,0.5,0.3,0.7,0.6c0.2,0.3,0.4,0.6,0.5,0.9s0.2,0.8,0.2,1.2
	c0,0.5-0.1,0.9-0.2,1.3c-0.1,0.4-0.3,0.8-0.5,1c-0.2,0.3-0.5,0.5-0.8,0.7c-0.3,0.2-0.7,0.2-1.1,0.2c-0.2,0-0.4,0-0.5-0.1
	c-0.2,0-0.3-0.1-0.5-0.2c-0.1-0.1-0.3-0.2-0.4-0.3c-0.1-0.1-0.2-0.2-0.3-0.4l-0.1,0.5c0,0.2-0.1,0.2-0.3,0.2h-0.8v-8.9h1.2V54.7z
	 M306.2,56.3c0-0.2,0-0.4-0.1-0.6c-0.1-0.2-0.2-0.4-0.3-0.5c-0.1-0.1-0.3-0.3-0.5-0.3c-0.2-0.1-0.4-0.1-0.6-0.1
	c-0.5,0-0.9,0.1-1.2,0.4c-0.3,0.3-0.5,0.7-0.5,1.2H306.2z M307.2,59.1c-0.1,0.2-0.3,0.3-0.5,0.4c-0.2,0.1-0.4,0.2-0.6,0.3
	s-0.4,0.1-0.7,0.2c-0.2,0-0.4,0.1-0.7,0.1c-0.4,0-0.8-0.1-1.2-0.2c-0.4-0.1-0.7-0.4-0.9-0.6c-0.3-0.3-0.5-0.6-0.6-1
	c-0.1-0.4-0.2-0.9-0.2-1.4c0-0.4,0.1-0.8,0.2-1.2c0.1-0.4,0.3-0.7,0.6-1c0.2-0.3,0.6-0.5,0.9-0.6c0.4-0.2,0.8-0.2,1.2-0.2
	c0.4,0,0.7,0.1,1,0.2c0.3,0.1,0.6,0.3,0.8,0.5c0.2,0.2,0.4,0.5,0.5,0.9c0.1,0.3,0.2,0.7,0.2,1.2c0,0.2,0,0.3-0.1,0.4
	c0,0.1-0.1,0.1-0.2,0.1h-4c0,0.4,0.1,0.7,0.2,1c0.1,0.3,0.2,0.5,0.4,0.7c0.2,0.2,0.4,0.3,0.6,0.4s0.5,0.1,0.8,0.1
	c0.3,0,0.5,0,0.7-0.1c0.2-0.1,0.4-0.1,0.5-0.2c0.1-0.1,0.3-0.1,0.3-0.2c0.1-0.1,0.2-0.1,0.3-0.1c0.1,0,0.2,0,0.2,0.1L307.2,59.1z
	 M309.7,51.1V60h-1.2v-8.9H309.7z"/>
<path class="st2" d="M273,0h35c6.1,0,11,4.9,11,11l0,0c0,6.1-4.9,11-11,11h-35c-6.1,0-11-4.9-11-11l0,0C262,4.9,266.9,0,273,0z"/>
<circle class="st5" cx="272" cy="11" r="3"/>
<path class="st3" d="M288.4,14.9V16h-4.9V7.4h1.3v7.5H288.4z M292.7,13.3c-0.5,0-0.9,0.1-1.2,0.1c-0.3,0.1-0.6,0.1-0.8,0.2
	c-0.2,0.1-0.4,0.2-0.4,0.3c-0.1,0.1-0.1,0.3-0.1,0.4c0,0.2,0,0.3,0.1,0.4c0.1,0.1,0.1,0.2,0.2,0.3c0.1,0.1,0.2,0.1,0.3,0.1
	c0.1,0,0.2,0,0.4,0c0.2,0,0.3,0,0.5-0.1c0.2,0,0.3-0.1,0.4-0.2c0.1-0.1,0.3-0.1,0.4-0.2c0.1-0.1,0.2-0.2,0.4-0.3V13.3z M289.3,10.8
	c0.3-0.3,0.7-0.6,1.1-0.7c0.4-0.2,0.8-0.2,1.3-0.2c0.3,0,0.7,0.1,0.9,0.2c0.3,0.1,0.5,0.3,0.7,0.5c0.2,0.2,0.3,0.4,0.4,0.7
	c0.1,0.3,0.1,0.6,0.1,0.9V16h-0.5c-0.1,0-0.2,0-0.3-0.1c-0.1,0-0.1-0.1-0.1-0.2l-0.1-0.5c-0.2,0.1-0.3,0.3-0.5,0.4
	c-0.2,0.1-0.3,0.2-0.5,0.3c-0.2,0.1-0.3,0.1-0.5,0.2c-0.2,0-0.4,0.1-0.6,0.1c-0.2,0-0.5,0-0.7-0.1c-0.2-0.1-0.4-0.2-0.5-0.3
	c-0.2-0.1-0.3-0.3-0.4-0.5c-0.1-0.2-0.1-0.4-0.1-0.7c0-0.2,0.1-0.5,0.2-0.7c0.1-0.2,0.3-0.4,0.6-0.6c0.3-0.2,0.7-0.3,1.2-0.4
	c0.5-0.1,1.1-0.2,1.8-0.2v-0.4c0-0.5-0.1-0.8-0.3-1c-0.2-0.2-0.5-0.3-0.9-0.3c-0.3,0-0.5,0-0.6,0.1c-0.2,0.1-0.3,0.1-0.5,0.2
	c-0.1,0.1-0.2,0.1-0.3,0.2c-0.1,0.1-0.2,0.1-0.3,0.1c-0.1,0-0.1,0-0.2-0.1c-0.1,0-0.1-0.1-0.1-0.2L289.3,10.8z M296.6,14.5
	c0.2,0.3,0.4,0.4,0.6,0.5c0.2,0.1,0.5,0.2,0.7,0.2c0.5,0,1-0.2,1.3-0.6c0.3-0.4,0.4-1,0.4-1.8c0-0.7-0.1-1.3-0.4-1.6
	c-0.3-0.3-0.6-0.5-1.1-0.5c-0.3,0-0.6,0.1-0.9,0.2c-0.2,0.2-0.5,0.4-0.7,0.6V14.5z M296.6,10.7c0.3-0.3,0.5-0.5,0.9-0.7
	s0.7-0.3,1.1-0.3c0.4,0,0.7,0.1,1,0.2c0.3,0.1,0.5,0.3,0.7,0.6c0.2,0.3,0.4,0.6,0.5,0.9s0.2,0.8,0.2,1.2c0,0.5-0.1,0.9-0.2,1.3
	c-0.1,0.4-0.3,0.8-0.5,1c-0.2,0.3-0.5,0.5-0.8,0.7c-0.3,0.2-0.7,0.2-1.1,0.2c-0.2,0-0.4,0-0.5-0.1c-0.2,0-0.3-0.1-0.5-0.2
	c-0.1-0.1-0.3-0.2-0.4-0.3c-0.1-0.1-0.2-0.2-0.3-0.4l-0.1,0.5c0,0.2-0.1,0.2-0.3,0.2h-0.8V7.1h1.2V10.7z M306.2,12.3
	c0-0.2,0-0.4-0.1-0.6c-0.1-0.2-0.2-0.4-0.3-0.5s-0.3-0.3-0.5-0.3c-0.2-0.1-0.4-0.1-0.6-0.1c-0.5,0-0.9,0.1-1.2,0.4
	c-0.3,0.3-0.5,0.7-0.5,1.2H306.2z M307.2,15.1c-0.1,0.2-0.3,0.3-0.5,0.4c-0.2,0.1-0.4,0.2-0.6,0.3c-0.2,0.1-0.4,0.1-0.7,0.2
	c-0.2,0-0.4,0.1-0.7,0.1c-0.4,0-0.8-0.1-1.2-0.2c-0.4-0.1-0.7-0.4-0.9-0.6c-0.3-0.3-0.5-0.6-0.6-1c-0.1-0.4-0.2-0.9-0.2-1.4
	c0-0.4,0.1-0.8,0.2-1.2c0.1-0.4,0.3-0.7,0.6-1c0.2-0.3,0.6-0.5,0.9-0.6c0.4-0.2,0.8-0.2,1.2-0.2c0.4,0,0.7,0.1,1,0.2
	c0.3,0.1,0.6,0.3,0.8,0.5c0.2,0.2,0.4,0.5,0.5,0.9c0.1,0.3,0.2,0.7,0.2,1.2c0,0.2,0,0.3-0.1,0.4c0,0.1-0.1,0.1-0.2,0.1h-4
	c0,0.4,0.1,0.7,0.2,1c0.1,0.3,0.2,0.5,0.4,0.7c0.2,0.2,0.4,0.3,0.6,0.4s0.5,0.1,0.8,0.1c0.3,0,0.5,0,0.7-0.1
	c0.2-0.1,0.4-0.1,0.5-0.2c0.1-0.1,0.3-0.1,0.3-0.2c0.1-0.1,0.2-0.1,0.3-0.1c0.1,0,0.2,0,0.2,0.1L307.2,15.1z M309.7,7.1V16h-1.2V7.1
	H309.7z"/>
<path class="st0" d="M571,44h40c6.1,0,11,4.9,11,11l0,0c0,6.1-4.9,11-11,11h-40c-6.1,0-11-4.9-11-11l0,0C560,48.9,564.9,44,571,44z"
	/>
<g>
	<defs>
		<rect id="SVGID_1_" x="563" y="47" width="16" height="16"/>
	</defs>
	<clipPath id="SVGID_00000183928172367428122820000003405106484243676302_">
		<use xlink:href="#SVGID_1_"  style="overflow:visible;"/>
	</clipPath>
	<g style="clip-path:url(#SVGID_00000183928172367428122820000003405106484243676302_);">
		<path class="st7" d="M579,55c0,4.4-3.6,8-8,8s-8-3.6-8-8c0,0,8-8,8-8C575.4,47,579,50.6,579,55z"/>
		<path class="st8" d="M571,55L571,55C571,55,571,55,571,55C571,55,571,55,571,55z"/>
		<path class="st8" d="M571,51.2c0-1.4,0-2.3,0-4.2h0c-4.4,0-8,3.6-8,8h4.2v-2.4l2.3,2.4h1.5c0,0,0,0,0,0c0-0.5,0-1,0-1.5l-2.3-2.4
			H571z"/>
		<path class="st9" d="M567,48c-1.3,0.7-2.3,1.8-3,3v4h2.1v-4.9l0,0h4.9c0-0.7,0-1.3,0-2.1H567z"/>
		<path class="st9" d="M571,54l-2.8-2.8h-1l0,0L571,55l0,0C571,55,571,54.3,571,54z"/>
		<path class="st8" d="M567.8,56.4l0.4,0.9l1-0.2l-0.4,0.9l0.8,0.6l-1,0.2l0,1l-0.8-0.6l-0.8,0.6l0-1l-1-0.2l0.8-0.6l-0.4-0.9l1,0.2
			L567.8,56.4z"/>
		<path class="st8" d="M575,58.1l0.2,0.5l0.5-0.1l-0.2,0.5l0.4,0.3l-0.5,0.1l0,0.5l-0.4-0.3l-0.4,0.3l0-0.5l-0.5-0.1l0.4-0.3
			l-0.2-0.5l0.5,0.1L575,58.1z"/>
		<path class="st8" d="M572.9,53.3l0.2,0.5l0.5-0.1l-0.2,0.5l0.4,0.3l-0.5,0.1l0,0.5l-0.4-0.3l-0.4,0.3l0-0.5l-0.5-0.1l0.4-0.3
			l-0.2-0.5l0.5,0.1L572.9,53.3z"/>
		<path class="st8" d="M575,50.5l0.2,0.5l0.5-0.1l-0.2,0.5l0.4,0.3l-0.5,0.1l0,0.5l-0.4-0.3l-0.4,0.3l0-0.5l-0.5-0.1l0.4-0.3
			l-0.2-0.5l0.5,0.1L575,50.5z"/>
		<path class="st8" d="M576.8,52.6L577,53l0.5-0.1l-0.2,0.5l0.4,0.3l-0.5,0.1l0,0.5l-0.4-0.3l-0.4,0.3l0-0.5l-0.5-0.1l0.4-0.3
			l-0.2-0.5l0.5,0.1L576.8,52.6z"/>
		<path class="st8" d="M575.5,55l0.2,0.5h0.6l-0.5,0.3l0.2,0.5l-0.5-0.3l-0.5,0.3l0.2-0.5l-0.5-0.3h0.6L575.5,55z"/>
	</g>
</g>
<path class="st1" d="M591.4,58.9V60h-4.9v-8.6h1.3v7.5H591.4z M595.7,57.3c-0.5,0-0.9,0.1-1.2,0.1c-0.3,0.1-0.6,0.1-0.8,0.2
	c-0.2,0.1-0.4,0.2-0.5,0.3c-0.1,0.1-0.1,0.3-0.1,0.4c0,0.2,0,0.3,0.1,0.4c0.1,0.1,0.1,0.2,0.2,0.3c0.1,0.1,0.2,0.1,0.3,0.2
	c0.1,0,0.2,0,0.4,0c0.2,0,0.3,0,0.5-0.1c0.2,0,0.3-0.1,0.4-0.2c0.1-0.1,0.3-0.2,0.4-0.2c0.1-0.1,0.2-0.2,0.4-0.3V57.3z M592.3,54.8
	c0.3-0.3,0.7-0.6,1.1-0.7c0.4-0.2,0.8-0.2,1.3-0.2c0.3,0,0.7,0.1,0.9,0.2c0.3,0.1,0.5,0.3,0.7,0.5c0.2,0.2,0.3,0.4,0.4,0.7
	c0.1,0.3,0.1,0.6,0.1,0.9V60h-0.5c-0.1,0-0.2,0-0.3-0.1c-0.1,0-0.1-0.1-0.1-0.2l-0.1-0.5c-0.2,0.1-0.3,0.3-0.5,0.4
	c-0.2,0.1-0.3,0.2-0.5,0.3c-0.2,0.1-0.3,0.1-0.5,0.2s-0.4,0.1-0.6,0.1c-0.2,0-0.5,0-0.7-0.1c-0.2-0.1-0.4-0.2-0.5-0.3
	c-0.2-0.1-0.3-0.3-0.4-0.5c-0.1-0.2-0.1-0.4-0.1-0.7c0-0.2,0.1-0.5,0.2-0.7c0.1-0.2,0.3-0.4,0.6-0.6c0.3-0.2,0.7-0.3,1.2-0.4
	c0.5-0.1,1.1-0.2,1.8-0.2v-0.4c0-0.5-0.1-0.8-0.3-1c-0.2-0.2-0.5-0.3-0.9-0.3c-0.3,0-0.5,0-0.6,0.1c-0.2,0.1-0.3,0.1-0.5,0.2
	c-0.1,0.1-0.2,0.1-0.3,0.2c-0.1,0.1-0.2,0.1-0.3,0.1c-0.1,0-0.1,0-0.2-0.1c-0.1,0-0.1-0.1-0.1-0.2L592.3,54.8z M599.6,58.5
	c0.2,0.3,0.4,0.4,0.6,0.5s0.5,0.2,0.7,0.2c0.5,0,1-0.2,1.3-0.6c0.3-0.4,0.4-1,0.4-1.8c0-0.7-0.1-1.3-0.4-1.6
	c-0.3-0.3-0.6-0.5-1.1-0.5c-0.3,0-0.6,0.1-0.9,0.2c-0.2,0.2-0.5,0.4-0.7,0.6V58.5z M599.6,54.7c0.3-0.3,0.5-0.5,0.9-0.7
	c0.3-0.2,0.7-0.3,1.1-0.3c0.4,0,0.7,0.1,1,0.2c0.3,0.1,0.5,0.3,0.7,0.6c0.2,0.3,0.4,0.6,0.5,0.9c0.1,0.4,0.2,0.8,0.2,1.2
	c0,0.5-0.1,0.9-0.2,1.3c-0.1,0.4-0.3,0.8-0.5,1c-0.2,0.3-0.5,0.5-0.8,0.7c-0.3,0.2-0.7,0.2-1.1,0.2c-0.2,0-0.4,0-0.5-0.1
	c-0.2,0-0.3-0.1-0.5-0.2c-0.1-0.1-0.3-0.2-0.4-0.3c-0.1-0.1-0.2-0.2-0.3-0.4l-0.1,0.5c0,0.2-0.1,0.2-0.3,0.2h-0.8v-8.9h1.2V54.7z
	 M609.2,56.3c0-0.2,0-0.4-0.1-0.6c-0.1-0.2-0.2-0.4-0.3-0.5c-0.1-0.1-0.3-0.3-0.5-0.3c-0.2-0.1-0.4-0.1-0.6-0.1
	c-0.5,0-0.9,0.1-1.2,0.4c-0.3,0.3-0.5,0.7-0.5,1.2H609.2z M610.2,59.1c-0.1,0.2-0.3,0.3-0.5,0.4c-0.2,0.1-0.4,0.2-0.6,0.3
	c-0.2,0.1-0.4,0.1-0.7,0.2c-0.2,0-0.4,0.1-0.7,0.1c-0.4,0-0.8-0.1-1.2-0.2c-0.4-0.1-0.7-0.4-0.9-0.6c-0.3-0.3-0.5-0.6-0.6-1
	c-0.1-0.4-0.2-0.9-0.2-1.4c0-0.4,0.1-0.8,0.2-1.2c0.1-0.4,0.3-0.7,0.6-1c0.2-0.3,0.5-0.5,0.9-0.6c0.4-0.2,0.8-0.2,1.2-0.2
	c0.4,0,0.7,0.1,1,0.2c0.3,0.1,0.6,0.3,0.8,0.5c0.2,0.2,0.4,0.5,0.5,0.9c0.1,0.3,0.2,0.7,0.2,1.2c0,0.2,0,0.3-0.1,0.4
	c0,0.1-0.1,0.1-0.2,0.1h-4c0,0.4,0.1,0.7,0.2,1c0.1,0.3,0.2,0.5,0.4,0.7c0.2,0.2,0.4,0.3,0.6,0.4s0.5,0.1,0.8,0.1
	c0.3,0,0.5,0,0.7-0.1c0.2-0.1,0.4-0.1,0.5-0.2c0.1-0.1,0.3-0.1,0.3-0.2c0.1-0.1,0.2-0.1,0.3-0.1c0.1,0,0.2,0,0.2,0.1L610.2,59.1z
	 M612.7,51.1V60h-1.2v-8.9H612.7z"/>
<path class="st2" d="M571,0h40c6.1,0,11,4.9,11,11l0,0c0,6.1-4.9,11-11,11h-40c-6.1,0-11-4.9-11-11l0,0C560,4.9,564.9,0,571,0z"/>
<g>
	<defs>
		<rect id="SVGID_00000171719163118896627940000001099029666430940553_" x="563" y="3" width="16" height="16"/>
	</defs>
	<clipPath id="SVGID_00000168835770875518712910000007837075778834662025_">
		<use xlink:href="#SVGID_00000171719163118896627940000001099029666430940553_"  style="overflow:visible;"/>
	</clipPath>
	<g style="clip-path:url(#SVGID_00000168835770875518712910000007837075778834662025_);">
		<path class="st7" d="M579,11c0,4.4-3.6,8-8,8s-8-3.6-8-8c0,0,8-8,8-8C575.4,3,579,6.6,579,11z"/>
		<path class="st8" d="M571,11L571,11C571,11,571,11,571,11C571,11,571,11,571,11z"/>
		<path class="st8" d="M571,7.2c0-1.4,0-2.3,0-4.2h0c-4.4,0-8,3.6-8,8h4.2V8.7l2.3,2.4h1.5c0,0,0,0,0,0c0-0.5,0-1,0-1.5l-2.3-2.4
			H571z"/>
		<path class="st9" d="M567,4c-1.3,0.7-2.3,1.8-3,3v4h2.1V6.1v0h4.9c0-0.7,0-1.3,0-2.1H567z"/>
		<path class="st9" d="M571,10l-2.8-2.8h-1c0,0,0,0,0,0L571,11l0,0C571,11,571,10.3,571,10z"/>
		<path class="st8" d="M567.8,12.4l0.4,0.9l1-0.2l-0.4,0.9l0.8,0.6l-1,0.2l0,1l-0.8-0.6l-0.8,0.6l0-1l-1-0.2l0.8-0.6l-0.4-0.9l1,0.2
			L567.8,12.4z"/>
		<path class="st8" d="M575,14.1l0.2,0.5l0.5-0.1l-0.2,0.5l0.4,0.3l-0.5,0.1l0,0.5l-0.4-0.3l-0.4,0.3l0-0.5l-0.5-0.1l0.4-0.3
			l-0.2-0.5l0.5,0.1L575,14.1z"/>
		<path class="st8" d="M572.9,9.3l0.2,0.5l0.5-0.1l-0.2,0.5l0.4,0.3l-0.5,0.1l0,0.5l-0.4-0.3l-0.4,0.3l0-0.5l-0.5-0.1l0.4-0.3
			l-0.2-0.5l0.5,0.1L572.9,9.3z"/>
		<path class="st8" d="M575,6.5l0.2,0.5l0.5-0.1l-0.2,0.5l0.4,0.3l-0.5,0.1l0,0.5L575,7.9l-0.4,0.3l0-0.5l-0.5-0.1l0.4-0.3l-0.2-0.5
			l0.5,0.1L575,6.5z"/>
		<path class="st8" d="M576.8,8.6L577,9l0.5-0.1l-0.2,0.5l0.4,0.3l-0.5,0.1l0,0.5l-0.4-0.3l-0.4,0.3l0-0.5l-0.5-0.1l0.4-0.3L576,8.9
			l0.5,0.1L576.8,8.6z"/>
		<path class="st8" d="M575.5,11l0.2,0.5h0.6l-0.5,0.3l0.2,0.5l-0.5-0.3l-0.5,0.3l0.2-0.5l-0.5-0.3h0.6L575.5,11z"/>
	</g>
</g>
<path class="st3" d="M591.4,14.9V16h-4.9V7.4h1.3v7.5H591.4z M595.7,13.3c-0.5,0-0.9,0.1-1.2,0.1c-0.3,0.1-0.6,0.1-0.8,0.2
	c-0.2,0.1-0.4,0.2-0.5,0.3c-0.1,0.1-0.1,0.3-0.1,0.4c0,0.2,0,0.3,0.1,0.4c0.1,0.1,0.1,0.2,0.2,0.3c0.1,0.1,0.2,0.1,0.3,0.1
	c0.1,0,0.2,0,0.4,0c0.2,0,0.3,0,0.5-0.1c0.2,0,0.3-0.1,0.4-0.2c0.1-0.1,0.3-0.1,0.4-0.2c0.1-0.1,0.2-0.2,0.4-0.3V13.3z M592.3,10.8
	c0.3-0.3,0.7-0.6,1.1-0.7c0.4-0.2,0.8-0.2,1.3-0.2c0.3,0,0.7,0.1,0.9,0.2c0.3,0.1,0.5,0.3,0.7,0.5c0.2,0.2,0.3,0.4,0.4,0.7
	c0.1,0.3,0.1,0.6,0.1,0.9V16h-0.5c-0.1,0-0.2,0-0.3-0.1c-0.1,0-0.1-0.1-0.1-0.2l-0.1-0.5c-0.2,0.1-0.3,0.3-0.5,0.4
	c-0.2,0.1-0.3,0.2-0.5,0.3c-0.2,0.1-0.3,0.1-0.5,0.2c-0.2,0-0.4,0.1-0.6,0.1c-0.2,0-0.5,0-0.7-0.1c-0.2-0.1-0.4-0.2-0.5-0.3
	c-0.2-0.1-0.3-0.3-0.4-0.5c-0.1-0.2-0.1-0.4-0.1-0.7c0-0.2,0.1-0.5,0.2-0.7c0.1-0.2,0.3-0.4,0.6-0.6c0.3-0.2,0.7-0.3,1.2-0.4
	c0.5-0.1,1.1-0.2,1.8-0.2v-0.4c0-0.5-0.1-0.8-0.3-1s-0.5-0.3-0.9-0.3c-0.3,0-0.5,0-0.6,0.1c-0.2,0.1-0.3,0.1-0.5,0.2
	c-0.1,0.1-0.2,0.1-0.3,0.2c-0.1,0.1-0.2,0.1-0.3,0.1c-0.1,0-0.1,0-0.2-0.1c-0.1,0-0.1-0.1-0.1-0.2L592.3,10.8z M599.6,14.5
	c0.2,0.3,0.4,0.4,0.6,0.5c0.2,0.1,0.5,0.2,0.7,0.2c0.5,0,1-0.2,1.3-0.6c0.3-0.4,0.4-1,0.4-1.8c0-0.7-0.1-1.3-0.4-1.6
	c-0.3-0.3-0.6-0.5-1.1-0.5c-0.3,0-0.6,0.1-0.9,0.2c-0.2,0.2-0.5,0.4-0.7,0.6V14.5z M599.6,10.7c0.3-0.3,0.5-0.5,0.9-0.7
	c0.3-0.2,0.7-0.3,1.1-0.3c0.4,0,0.7,0.1,1,0.2c0.3,0.1,0.5,0.3,0.7,0.6c0.2,0.3,0.4,0.6,0.5,0.9c0.1,0.4,0.2,0.8,0.2,1.2
	c0,0.5-0.1,0.9-0.2,1.3c-0.1,0.4-0.3,0.8-0.5,1c-0.2,0.3-0.5,0.5-0.8,0.7c-0.3,0.2-0.7,0.2-1.1,0.2c-0.2,0-0.4,0-0.5-0.1
	c-0.2,0-0.3-0.1-0.5-0.2c-0.1-0.1-0.3-0.2-0.4-0.3c-0.1-0.1-0.2-0.2-0.3-0.4l-0.1,0.5c0,0.2-0.1,0.2-0.3,0.2h-0.8V7.1h1.2V10.7z
	 M609.2,12.3c0-0.2,0-0.4-0.1-0.6c-0.1-0.2-0.2-0.4-0.3-0.5s-0.3-0.3-0.5-0.3c-0.2-0.1-0.4-0.1-0.6-0.1c-0.5,0-0.9,0.1-1.2,0.4
	c-0.3,0.3-0.5,0.7-0.5,1.2H609.2z M610.2,15.1c-0.1,0.2-0.3,0.3-0.5,0.4c-0.2,0.1-0.4,0.2-0.6,0.3c-0.2,0.1-0.4,0.1-0.7,0.2
	c-0.2,0-0.4,0.1-0.7,0.1c-0.4,0-0.8-0.1-1.2-0.2c-0.4-0.1-0.7-0.4-0.9-0.6c-0.3-0.3-0.5-0.6-0.6-1c-0.1-0.4-0.2-0.9-0.2-1.4
	c0-0.4,0.1-0.8,0.2-1.2c0.1-0.4,0.3-0.7,0.6-1c0.2-0.3,0.5-0.5,0.9-0.6s0.8-0.2,1.2-0.2c0.4,0,0.7,0.1,1,0.2
	c0.3,0.1,0.6,0.3,0.8,0.5c0.2,0.2,0.4,0.5,0.5,0.9c0.1,0.3,0.2,0.7,0.2,1.2c0,0.2,0,0.3-0.1,0.4c0,0.1-0.1,0.1-0.2,0.1h-4
	c0,0.4,0.1,0.7,0.2,1c0.1,0.3,0.2,0.5,0.4,0.7c0.2,0.2,0.4,0.3,0.6,0.4s0.5,0.1,0.8,0.1c0.3,0,0.5,0,0.7-0.1
	c0.2-0.1,0.4-0.1,0.5-0.2c0.1-0.1,0.3-0.1,0.3-0.2c0.1-0.1,0.2-0.1,0.3-0.1c0.1,0,0.2,0,0.2,0.1L610.2,15.1z M612.7,7.1V16h-1.2V7.1
	H612.7z"/>
<path class="st0" d="M76,44h29c6.6,0,12,5.4,12,12l0,0c0,6.6-5.4,12-12,12H76c-6.6,0-12-5.4-12-12l0,0C64,49.4,69.4,44,76,44z"/>
<path class="st1" d="M81.1,59.7V61h-5.8V50.9h1.5v8.8H81.1z M86.1,57.8c-0.6,0-1,0.1-1.4,0.1c-0.4,0.1-0.7,0.2-0.9,0.3
	c-0.2,0.1-0.4,0.2-0.5,0.4C83.1,58.8,83,59,83,59.1c0,0.2,0,0.3,0.1,0.5c0.1,0.1,0.1,0.2,0.2,0.3c0.1,0.1,0.2,0.1,0.4,0.2
	c0.1,0,0.3,0.1,0.4,0.1c0.2,0,0.4,0,0.6-0.1c0.2,0,0.3-0.1,0.5-0.2c0.2-0.1,0.3-0.2,0.4-0.3c0.1-0.1,0.3-0.2,0.4-0.4V57.8z
	 M82.1,54.9c0.4-0.4,0.8-0.7,1.3-0.8c0.5-0.2,1-0.3,1.5-0.3c0.4,0,0.8,0.1,1.1,0.2c0.3,0.1,0.6,0.3,0.8,0.6c0.2,0.2,0.4,0.5,0.5,0.9
	c0.1,0.3,0.2,0.7,0.2,1.1V61h-0.6c-0.1,0-0.2,0-0.3-0.1c-0.1,0-0.1-0.1-0.2-0.3l-0.1-0.6c-0.2,0.2-0.4,0.3-0.5,0.4
	c-0.2,0.1-0.4,0.2-0.6,0.3c-0.2,0.1-0.4,0.2-0.6,0.2c-0.2,0-0.5,0.1-0.7,0.1c-0.3,0-0.5,0-0.8-0.1c-0.2-0.1-0.5-0.2-0.6-0.4
	c-0.2-0.2-0.3-0.4-0.4-0.6c-0.1-0.2-0.2-0.5-0.2-0.8c0-0.3,0.1-0.5,0.2-0.8c0.2-0.3,0.4-0.5,0.7-0.7c0.3-0.2,0.8-0.4,1.3-0.5
	c0.6-0.1,1.2-0.2,2-0.2v-0.5c0-0.5-0.1-0.9-0.3-1.2c-0.2-0.3-0.6-0.4-1-0.4c-0.3,0-0.6,0-0.8,0.1c-0.2,0.1-0.4,0.2-0.5,0.3
	c-0.1,0.1-0.3,0.2-0.4,0.2c-0.1,0.1-0.2,0.1-0.3,0.1c-0.1,0-0.2,0-0.2-0.1c-0.1-0.1-0.1-0.1-0.2-0.2L82.1,54.9z M90.6,59.2
	c0.2,0.3,0.5,0.5,0.7,0.6c0.3,0.1,0.5,0.2,0.9,0.2c0.6,0,1.1-0.2,1.5-0.7c0.3-0.5,0.5-1.1,0.5-2.1c0-0.8-0.2-1.5-0.5-1.9
	c-0.3-0.4-0.7-0.6-1.3-0.6c-0.4,0-0.7,0.1-1,0.3c-0.3,0.2-0.6,0.4-0.8,0.8V59.2z M90.6,54.9c0.3-0.3,0.6-0.6,1-0.8
	c0.4-0.2,0.8-0.3,1.3-0.3c0.4,0,0.8,0.1,1.1,0.2c0.3,0.2,0.6,0.4,0.9,0.7c0.2,0.3,0.4,0.7,0.5,1.1s0.2,0.9,0.2,1.5
	c0,0.6-0.1,1.1-0.2,1.6c-0.1,0.5-0.3,0.9-0.6,1.2c-0.3,0.3-0.6,0.6-1,0.8c-0.4,0.2-0.8,0.3-1.3,0.3c-0.2,0-0.4,0-0.6-0.1
	c-0.2,0-0.4-0.1-0.5-0.2c-0.2-0.1-0.3-0.2-0.4-0.3c-0.1-0.1-0.3-0.3-0.4-0.4l-0.1,0.6c0,0.2-0.2,0.3-0.3,0.3h-0.9V50.7h1.4V54.9z
	 M101.8,56.7c0-0.3,0-0.5-0.1-0.7c-0.1-0.2-0.2-0.4-0.3-0.6c-0.1-0.2-0.3-0.3-0.5-0.4c-0.2-0.1-0.5-0.1-0.7-0.1
	c-0.6,0-1,0.2-1.4,0.5c-0.3,0.3-0.5,0.8-0.6,1.4H101.8z M102.9,60c-0.2,0.2-0.4,0.4-0.6,0.5c-0.2,0.1-0.5,0.3-0.7,0.3
	c-0.2,0.1-0.5,0.2-0.8,0.2c-0.3,0-0.5,0.1-0.8,0.1c-0.5,0-0.9-0.1-1.4-0.2c-0.4-0.2-0.8-0.4-1.1-0.7c-0.3-0.3-0.5-0.7-0.7-1.2
	c-0.2-0.5-0.3-1-0.3-1.6c0-0.5,0.1-1,0.2-1.4c0.2-0.4,0.4-0.8,0.7-1.1c0.3-0.3,0.6-0.6,1.1-0.7s0.9-0.3,1.4-0.3
	c0.4,0,0.8,0.1,1.2,0.2c0.4,0.1,0.7,0.3,1,0.6c0.3,0.3,0.5,0.6,0.6,1C103,56,103,56.5,103,57c0,0.2,0,0.4-0.1,0.4
	c0,0.1-0.1,0.1-0.3,0.1h-4.7c0,0.4,0.1,0.8,0.2,1.1c0.1,0.3,0.3,0.6,0.4,0.8c0.2,0.2,0.4,0.4,0.7,0.5s0.6,0.2,0.9,0.2
	c0.3,0,0.6,0,0.8-0.1c0.2-0.1,0.4-0.1,0.6-0.2c0.2-0.1,0.3-0.2,0.4-0.2c0.1-0.1,0.2-0.1,0.3-0.1c0.1,0,0.2,0,0.3,0.1L102.9,60z
	 M105.9,50.7V61h-1.4V50.7H105.9z"/>
<path class="st2" d="M76,0h29c6.6,0,12,5.4,12,12l0,0c0,6.6-5.4,12-12,12H76c-6.6,0-12-5.4-12-12l0,0C64,5.4,69.4,0,76,0z"/>
<path class="st3" d="M81.1,15.7V17h-5.8V6.9h1.5v8.8H81.1z M86.1,13.8c-0.6,0-1,0.1-1.4,0.1c-0.4,0.1-0.7,0.2-0.9,0.3
	c-0.2,0.1-0.4,0.2-0.5,0.4C83.1,14.8,83,15,83,15.1c0,0.2,0,0.3,0.1,0.5c0.1,0.1,0.1,0.2,0.2,0.3c0.1,0.1,0.2,0.1,0.4,0.2
	c0.1,0,0.3,0.1,0.4,0.1c0.2,0,0.4,0,0.6-0.1c0.2,0,0.3-0.1,0.5-0.2c0.2-0.1,0.3-0.2,0.4-0.3c0.1-0.1,0.3-0.2,0.4-0.4V13.8z
	 M82.1,10.9c0.4-0.4,0.8-0.7,1.3-0.8c0.5-0.2,1-0.3,1.5-0.3c0.4,0,0.8,0.1,1.1,0.2c0.3,0.1,0.6,0.3,0.8,0.6c0.2,0.2,0.4,0.5,0.5,0.9
	c0.1,0.3,0.2,0.7,0.2,1.1V17h-0.6c-0.1,0-0.2,0-0.3-0.1c-0.1,0-0.1-0.1-0.2-0.3l-0.1-0.6c-0.2,0.2-0.4,0.3-0.5,0.4
	c-0.2,0.1-0.4,0.2-0.6,0.3c-0.2,0.1-0.4,0.2-0.6,0.2c-0.2,0-0.5,0.1-0.7,0.1c-0.3,0-0.5,0-0.8-0.1c-0.2-0.1-0.5-0.2-0.6-0.4
	c-0.2-0.2-0.3-0.4-0.4-0.6c-0.1-0.2-0.2-0.5-0.2-0.8c0-0.3,0.1-0.5,0.2-0.8c0.2-0.3,0.4-0.5,0.7-0.7c0.3-0.2,0.8-0.4,1.3-0.5
	c0.6-0.1,1.2-0.2,2-0.2v-0.5c0-0.5-0.1-0.9-0.3-1.2c-0.2-0.3-0.6-0.4-1-0.4c-0.3,0-0.6,0-0.8,0.1c-0.2,0.1-0.4,0.2-0.5,0.3
	c-0.1,0.1-0.3,0.2-0.4,0.2c-0.1,0.1-0.2,0.1-0.3,0.1c-0.1,0-0.2,0-0.2-0.1c-0.1-0.1-0.1-0.1-0.2-0.2L82.1,10.9z M90.6,15.2
	c0.2,0.3,0.5,0.5,0.7,0.6c0.3,0.1,0.5,0.2,0.9,0.2c0.6,0,1.1-0.2,1.5-0.7c0.3-0.5,0.5-1.1,0.5-2.1c0-0.8-0.2-1.5-0.5-1.9
	c-0.3-0.4-0.7-0.6-1.3-0.6c-0.4,0-0.7,0.1-1,0.3c-0.3,0.2-0.6,0.4-0.8,0.8V15.2z M90.6,10.9c0.3-0.3,0.6-0.6,1-0.8
	c0.4-0.2,0.8-0.3,1.3-0.3c0.4,0,0.8,0.1,1.1,0.2c0.3,0.2,0.6,0.4,0.9,0.7c0.2,0.3,0.4,0.7,0.5,1.1c0.1,0.4,0.2,0.9,0.2,1.5
	c0,0.6-0.1,1.1-0.2,1.6c-0.1,0.5-0.3,0.9-0.6,1.2c-0.3,0.3-0.6,0.6-1,0.8c-0.4,0.2-0.8,0.3-1.3,0.3c-0.2,0-0.4,0-0.6-0.1
	c-0.2,0-0.4-0.1-0.5-0.2c-0.2-0.1-0.3-0.2-0.4-0.3c-0.1-0.1-0.3-0.3-0.4-0.4l-0.1,0.6c0,0.2-0.2,0.3-0.3,0.3h-0.9V6.7h1.4V10.9z
	 M101.8,12.7c0-0.3,0-0.5-0.1-0.7c-0.1-0.2-0.2-0.4-0.3-0.6c-0.1-0.2-0.3-0.3-0.5-0.4c-0.2-0.1-0.5-0.1-0.7-0.1
	c-0.6,0-1,0.2-1.4,0.5c-0.3,0.3-0.5,0.8-0.6,1.4H101.8z M102.9,16c-0.2,0.2-0.4,0.4-0.6,0.5c-0.2,0.1-0.5,0.3-0.7,0.3
	c-0.2,0.1-0.5,0.2-0.8,0.2c-0.3,0-0.5,0.1-0.8,0.1c-0.5,0-0.9-0.1-1.4-0.2c-0.4-0.2-0.8-0.4-1.1-0.7c-0.3-0.3-0.5-0.7-0.7-1.2
	c-0.2-0.5-0.3-1-0.3-1.6c0-0.5,0.1-1,0.2-1.4c0.2-0.4,0.4-0.8,0.7-1.1c0.3-0.3,0.6-0.6,1.1-0.7s0.9-0.3,1.4-0.3
	c0.4,0,0.8,0.1,1.2,0.2c0.4,0.1,0.7,0.3,1,0.6c0.3,0.3,0.5,0.6,0.6,1C103,12,103,12.5,103,13c0,0.2,0,0.4-0.1,0.4
	c0,0.1-0.1,0.1-0.3,0.1h-4.7c0,0.4,0.1,0.8,0.2,1.1c0.1,0.3,0.3,0.6,0.4,0.8c0.2,0.2,0.4,0.4,0.7,0.5s0.6,0.2,0.9,0.2
	c0.3,0,0.6,0,0.8-0.1c0.2-0.1,0.4-0.1,0.6-0.2c0.2-0.1,0.3-0.2,0.4-0.2c0.1-0.1,0.2-0.1,0.3-0.1c0.1,0,0.2,0,0.3,0.1L102.9,16z
	 M105.9,6.7V17h-1.4V6.7H105.9z"/>
<path class="st0" d="M350,44h41c6.6,0,12,5.4,12,12l0,0c0,6.6-5.4,12-12,12h-41c-6.6,0-12-5.4-12-12l0,0C338,49.4,343.4,44,350,44z"
	/>
<circle class="st4" cx="350" cy="56" r="3"/>
<path class="st1" d="M367.1,59.7V61h-5.8V50.9h1.5v8.8H367.1z M372.1,57.8c-0.6,0-1,0.1-1.4,0.1c-0.4,0.1-0.7,0.2-0.9,0.3
	c-0.2,0.1-0.4,0.2-0.5,0.4c-0.1,0.1-0.2,0.3-0.2,0.5c0,0.2,0,0.3,0.1,0.5c0.1,0.1,0.1,0.2,0.2,0.3c0.1,0.1,0.2,0.1,0.4,0.2
	c0.1,0,0.3,0.1,0.4,0.1c0.2,0,0.4,0,0.6-0.1c0.2,0,0.3-0.1,0.5-0.2c0.2-0.1,0.3-0.2,0.4-0.3c0.1-0.1,0.3-0.2,0.4-0.4V57.8z
	 M368.1,54.9c0.4-0.4,0.8-0.7,1.3-0.8c0.5-0.2,1-0.3,1.5-0.3c0.4,0,0.8,0.1,1.1,0.2c0.3,0.1,0.6,0.3,0.8,0.6
	c0.2,0.2,0.4,0.5,0.5,0.9c0.1,0.3,0.2,0.7,0.2,1.1V61h-0.6c-0.1,0-0.2,0-0.3-0.1c-0.1,0-0.1-0.1-0.2-0.3l-0.1-0.6
	c-0.2,0.2-0.4,0.3-0.5,0.4c-0.2,0.1-0.4,0.2-0.6,0.3c-0.2,0.1-0.4,0.2-0.6,0.2c-0.2,0-0.5,0.1-0.7,0.1c-0.3,0-0.5,0-0.8-0.1
	c-0.2-0.1-0.5-0.2-0.6-0.4c-0.2-0.2-0.3-0.4-0.4-0.6c-0.1-0.2-0.2-0.5-0.2-0.8c0-0.3,0.1-0.5,0.2-0.8c0.2-0.3,0.4-0.5,0.7-0.7
	c0.3-0.2,0.8-0.4,1.3-0.5c0.6-0.1,1.2-0.2,2-0.2v-0.5c0-0.5-0.1-0.9-0.3-1.2c-0.2-0.3-0.6-0.4-1-0.4c-0.3,0-0.6,0-0.8,0.1
	c-0.2,0.1-0.4,0.2-0.5,0.3c-0.1,0.1-0.3,0.2-0.4,0.2c-0.1,0.1-0.2,0.1-0.3,0.1c-0.1,0-0.2,0-0.2-0.1c-0.1-0.1-0.1-0.1-0.2-0.2
	L368.1,54.9z M376.6,59.2c0.2,0.3,0.5,0.5,0.7,0.6c0.3,0.1,0.5,0.2,0.9,0.2c0.6,0,1.1-0.2,1.5-0.7c0.3-0.5,0.5-1.1,0.5-2.1
	c0-0.8-0.2-1.5-0.5-1.9c-0.3-0.4-0.7-0.6-1.3-0.6c-0.4,0-0.7,0.1-1,0.3c-0.3,0.2-0.6,0.4-0.8,0.8V59.2z M376.6,54.9
	c0.3-0.3,0.6-0.6,1-0.8c0.4-0.2,0.8-0.3,1.3-0.3c0.4,0,0.8,0.1,1.1,0.2c0.3,0.2,0.6,0.4,0.9,0.7c0.2,0.3,0.4,0.7,0.5,1.1
	s0.2,0.9,0.2,1.5c0,0.6-0.1,1.1-0.2,1.6c-0.1,0.5-0.3,0.9-0.6,1.2c-0.3,0.3-0.6,0.6-1,0.8c-0.4,0.2-0.8,0.3-1.3,0.3
	c-0.2,0-0.4,0-0.6-0.1c-0.2,0-0.4-0.1-0.5-0.2c-0.2-0.1-0.3-0.2-0.4-0.3c-0.1-0.1-0.3-0.3-0.4-0.4l-0.1,0.6c0,0.2-0.2,0.3-0.4,0.3
	h-0.9V50.7h1.4V54.9z M387.8,56.7c0-0.3,0-0.5-0.1-0.7c-0.1-0.2-0.2-0.4-0.3-0.6c-0.1-0.2-0.3-0.3-0.5-0.4c-0.2-0.1-0.5-0.1-0.7-0.1
	c-0.6,0-1,0.2-1.4,0.5c-0.3,0.3-0.5,0.8-0.6,1.4H387.8z M388.9,60c-0.2,0.2-0.4,0.4-0.6,0.5c-0.2,0.1-0.5,0.3-0.7,0.3
	c-0.2,0.1-0.5,0.2-0.8,0.2c-0.3,0-0.5,0.1-0.8,0.1c-0.5,0-0.9-0.1-1.4-0.2c-0.4-0.2-0.8-0.4-1.1-0.7c-0.3-0.3-0.5-0.7-0.7-1.2
	c-0.2-0.5-0.3-1-0.3-1.6c0-0.5,0.1-1,0.2-1.4c0.2-0.4,0.4-0.8,0.7-1.1c0.3-0.3,0.6-0.6,1.1-0.7c0.4-0.2,0.9-0.3,1.4-0.3
	c0.4,0,0.8,0.1,1.2,0.2c0.4,0.1,0.7,0.3,1,0.6c0.3,0.3,0.5,0.6,0.6,1C389,56,389,56.5,389,57c0,0.2,0,0.4-0.1,0.4
	c0,0.1-0.1,0.1-0.3,0.1h-4.7c0,0.4,0.1,0.8,0.2,1.1c0.1,0.3,0.3,0.6,0.4,0.8c0.2,0.2,0.4,0.4,0.7,0.5c0.3,0.1,0.6,0.2,0.9,0.2
	c0.3,0,0.6,0,0.8-0.1c0.2-0.1,0.4-0.1,0.6-0.2c0.2-0.1,0.3-0.2,0.4-0.2c0.1-0.1,0.2-0.1,0.3-0.1c0.1,0,0.2,0,0.3,0.1L388.9,60z
	 M391.9,50.7V61h-1.4V50.7H391.9z"/>
<path class="st2" d="M350,0h41c6.6,0,12,5.4,12,12l0,0c0,6.6-5.4,12-12,12h-41c-6.6,0-12-5.4-12-12l0,0C338,5.4,343.4,0,350,0z"/>
<circle class="st5" cx="350" cy="12" r="3"/>
<path class="st3" d="M367.1,15.7V17h-5.8V6.9h1.5v8.8H367.1z M372.1,13.8c-0.6,0-1,0.1-1.4,0.1c-0.4,0.1-0.7,0.2-0.9,0.3
	c-0.2,0.1-0.4,0.2-0.5,0.4c-0.1,0.1-0.2,0.3-0.2,0.5c0,0.2,0,0.3,0.1,0.5c0.1,0.1,0.1,0.2,0.2,0.3c0.1,0.1,0.2,0.1,0.4,0.2
	c0.1,0,0.3,0.1,0.4,0.1c0.2,0,0.4,0,0.6-0.1c0.2,0,0.3-0.1,0.5-0.2c0.2-0.1,0.3-0.2,0.4-0.3c0.1-0.1,0.3-0.2,0.4-0.4V13.8z
	 M368.1,10.9c0.4-0.4,0.8-0.7,1.3-0.8c0.5-0.2,1-0.3,1.5-0.3c0.4,0,0.8,0.1,1.1,0.2c0.3,0.1,0.6,0.3,0.8,0.6
	c0.2,0.2,0.4,0.5,0.5,0.9c0.1,0.3,0.2,0.7,0.2,1.1V17h-0.6c-0.1,0-0.2,0-0.3-0.1c-0.1,0-0.1-0.1-0.2-0.3l-0.1-0.6
	c-0.2,0.2-0.4,0.3-0.5,0.4c-0.2,0.1-0.4,0.2-0.6,0.3c-0.2,0.1-0.4,0.2-0.6,0.2c-0.2,0-0.5,0.1-0.7,0.1c-0.3,0-0.5,0-0.8-0.1
	c-0.2-0.1-0.5-0.2-0.6-0.4c-0.2-0.2-0.3-0.4-0.4-0.6c-0.1-0.2-0.2-0.5-0.2-0.8c0-0.3,0.1-0.5,0.2-0.8c0.2-0.3,0.4-0.5,0.7-0.7
	c0.3-0.2,0.8-0.4,1.3-0.5c0.6-0.1,1.2-0.2,2-0.2v-0.5c0-0.5-0.1-0.9-0.3-1.2c-0.2-0.3-0.6-0.4-1-0.4c-0.3,0-0.6,0-0.8,0.1
	c-0.2,0.1-0.4,0.2-0.5,0.3c-0.1,0.1-0.3,0.2-0.4,0.2c-0.1,0.1-0.2,0.1-0.3,0.1c-0.1,0-0.2,0-0.2-0.1c-0.1-0.1-0.1-0.1-0.2-0.2
	L368.1,10.9z M376.6,15.2c0.2,0.3,0.5,0.5,0.7,0.6c0.3,0.1,0.5,0.2,0.9,0.2c0.6,0,1.1-0.2,1.5-0.7c0.3-0.5,0.5-1.1,0.5-2.1
	c0-0.8-0.2-1.5-0.5-1.9c-0.3-0.4-0.7-0.6-1.3-0.6c-0.4,0-0.7,0.1-1,0.3c-0.3,0.2-0.6,0.4-0.8,0.8V15.2z M376.6,10.9
	c0.3-0.3,0.6-0.6,1-0.8c0.4-0.2,0.8-0.3,1.3-0.3c0.4,0,0.8,0.1,1.1,0.2c0.3,0.2,0.6,0.4,0.9,0.7c0.2,0.3,0.4,0.7,0.5,1.1
	c0.1,0.4,0.2,0.9,0.2,1.5c0,0.6-0.1,1.1-0.2,1.6c-0.1,0.5-0.3,0.9-0.6,1.2c-0.3,0.3-0.6,0.6-1,0.8c-0.4,0.2-0.8,0.3-1.3,0.3
	c-0.2,0-0.4,0-0.6-0.1c-0.2,0-0.4-0.1-0.5-0.2c-0.2-0.1-0.3-0.2-0.4-0.3c-0.1-0.1-0.3-0.3-0.4-0.4l-0.1,0.6c0,0.2-0.2,0.3-0.4,0.3
	h-0.9V6.7h1.4V10.9z M387.8,12.7c0-0.3,0-0.5-0.1-0.7c-0.1-0.2-0.2-0.4-0.3-0.6c-0.1-0.2-0.3-0.3-0.5-0.4c-0.2-0.1-0.5-0.1-0.7-0.1
	c-0.6,0-1,0.2-1.4,0.5c-0.3,0.3-0.5,0.8-0.6,1.4H387.8z M388.9,16c-0.2,0.2-0.4,0.4-0.6,0.5c-0.2,0.1-0.5,0.3-0.7,0.3
	c-0.2,0.1-0.5,0.2-0.8,0.2c-0.3,0-0.5,0.1-0.8,0.1c-0.5,0-0.9-0.1-1.4-0.2c-0.4-0.2-0.8-0.4-1.1-0.7c-0.3-0.3-0.5-0.7-0.7-1.2
	c-0.2-0.5-0.3-1-0.3-1.6c0-0.5,0.1-1,0.2-1.4c0.2-0.4,0.4-0.8,0.7-1.1c0.3-0.3,0.6-0.6,1.1-0.7c0.4-0.2,0.9-0.3,1.4-0.3
	c0.4,0,0.8,0.1,1.2,0.2c0.4,0.1,0.7,0.3,1,0.6c0.3,0.3,0.5,0.6,0.6,1C389,12,389,12.5,389,13c0,0.2,0,0.4-0.1,0.4
	c0,0.1-0.1,0.1-0.3,0.1h-4.7c0,0.4,0.1,0.8,0.2,1.1c0.1,0.3,0.3,0.6,0.4,0.8c0.2,0.2,0.4,0.4,0.7,0.5c0.3,0.1,0.6,0.2,0.9,0.2
	c0.3,0,0.6,0,0.8-0.1c0.2-0.1,0.4-0.1,0.6-0.2c0.2-0.1,0.3-0.2,0.4-0.2c0.1-0.1,0.2-0.1,0.3-0.1c0.1,0,0.2,0,0.3,0.1L388.9,16z
	 M391.9,6.7V17h-1.4V6.7H391.9z"/>
<path class="st0" d="M653,44h45c6.6,0,12,5.4,12,12l0,0c0,6.6-5.4,12-12,12h-45c-6.6,0-12-5.4-12-12l0,0C641,49.4,646.4,44,653,44z"
	/>
<g>
	<defs>
		<rect id="SVGID_00000021083271544364920230000002806724791264162451_" x="645" y="48" width="16" height="16"/>
	</defs>
	<clipPath id="SVGID_00000114047667334479931080000003439609775766118322_">
		<use xlink:href="#SVGID_00000021083271544364920230000002806724791264162451_"  style="overflow:visible;"/>
	</clipPath>
	<g style="clip-path:url(#SVGID_00000114047667334479931080000003439609775766118322_);">
		<path class="st7" d="M661,56c0,4.4-3.6,8-8,8s-8-3.6-8-8c0,0,8-8,8-8C657.4,48,661,51.6,661,56z"/>
		<path class="st8" d="M653,56L653,56C653,56,653,56,653,56C653,56,653,56,653,56z"/>
		<path class="st8" d="M653,52.2c0-1.4,0-2.3,0-4.2h0c-4.4,0-8,3.6-8,8h4.2v-2.4l2.3,2.4h1.5c0,0,0,0,0,0c0-0.5,0-1,0-1.5l-2.3-2.4
			H653z"/>
		<path class="st9" d="M649,49c-1.3,0.7-2.3,1.8-3,3v4h2.1v-4.9l0,0h4.9c0-0.7,0-1.3,0-2.1H649z"/>
		<path class="st9" d="M653,55l-2.8-2.8h-1l0,0L653,56l0,0C653,56,653,55.3,653,55z"/>
		<path class="st8" d="M649.8,57.4l0.4,0.9l1-0.2l-0.4,0.9l0.8,0.6l-1,0.2l0,1l-0.8-0.6l-0.8,0.6l0-1l-1-0.2l0.8-0.6l-0.4-0.9l1,0.2
			L649.8,57.4z"/>
		<path class="st8" d="M657,59.1l0.2,0.5l0.5-0.1l-0.2,0.5l0.4,0.3l-0.5,0.1l0,0.5l-0.4-0.3l-0.4,0.3l0-0.5l-0.5-0.1l0.4-0.3
			l-0.2-0.5l0.5,0.1L657,59.1z"/>
		<path class="st8" d="M654.9,54.3l0.2,0.5l0.5-0.1l-0.2,0.5l0.4,0.3l-0.5,0.1l0,0.5l-0.4-0.3l-0.4,0.3l0-0.5l-0.5-0.1l0.4-0.3
			l-0.2-0.5l0.5,0.1L654.9,54.3z"/>
		<path class="st8" d="M657,51.5l0.2,0.5l0.5-0.1l-0.2,0.5l0.4,0.3l-0.5,0.1l0,0.5l-0.4-0.3l-0.4,0.3l0-0.5l-0.5-0.1l0.4-0.3
			l-0.2-0.5l0.5,0.1L657,51.5z"/>
		<path class="st8" d="M658.8,53.6L659,54l0.5-0.1l-0.2,0.5l0.4,0.3l-0.5,0.1l0,0.5l-0.4-0.3l-0.4,0.3l0-0.5l-0.5-0.1l0.4-0.3
			l-0.2-0.5l0.5,0.1L658.8,53.6z"/>
		<path class="st8" d="M657.5,56l0.2,0.5h0.6l-0.5,0.3l0.2,0.5l-0.5-0.3l-0.5,0.3l0.2-0.5l-0.5-0.3h0.6L657.5,56z"/>
	</g>
</g>
<path class="st1" d="M674.1,59.7V61h-5.8V50.9h1.5v8.8H674.1z M679.1,57.8c-0.6,0-1,0.1-1.4,0.1c-0.4,0.1-0.7,0.2-0.9,0.3
	c-0.2,0.1-0.4,0.2-0.5,0.4c-0.1,0.1-0.2,0.3-0.2,0.5c0,0.2,0,0.3,0.1,0.5c0.1,0.1,0.1,0.2,0.2,0.3c0.1,0.1,0.2,0.1,0.4,0.2
	c0.1,0,0.3,0.1,0.4,0.1c0.2,0,0.4,0,0.6-0.1c0.2,0,0.3-0.1,0.5-0.2c0.2-0.1,0.3-0.2,0.4-0.3c0.1-0.1,0.3-0.2,0.4-0.4V57.8z
	 M675.1,54.9c0.4-0.4,0.8-0.7,1.3-0.8c0.5-0.2,1-0.3,1.5-0.3c0.4,0,0.8,0.1,1.1,0.2c0.3,0.1,0.6,0.3,0.8,0.6
	c0.2,0.2,0.4,0.5,0.5,0.9c0.1,0.3,0.2,0.7,0.2,1.1V61h-0.6c-0.1,0-0.2,0-0.3-0.1c-0.1,0-0.1-0.1-0.2-0.3l-0.1-0.6
	c-0.2,0.2-0.4,0.3-0.5,0.4c-0.2,0.1-0.4,0.2-0.6,0.3c-0.2,0.1-0.4,0.2-0.6,0.2c-0.2,0-0.5,0.1-0.7,0.1c-0.3,0-0.5,0-0.8-0.1
	c-0.2-0.1-0.5-0.2-0.6-0.4c-0.2-0.2-0.3-0.4-0.4-0.6c-0.1-0.2-0.2-0.5-0.2-0.8c0-0.3,0.1-0.5,0.2-0.8c0.2-0.3,0.4-0.5,0.7-0.7
	c0.3-0.2,0.8-0.4,1.3-0.5c0.6-0.1,1.2-0.2,2-0.2v-0.5c0-0.5-0.1-0.9-0.3-1.2c-0.2-0.3-0.6-0.4-1-0.4c-0.3,0-0.6,0-0.8,0.1
	c-0.2,0.1-0.4,0.2-0.5,0.3c-0.1,0.1-0.3,0.2-0.4,0.2c-0.1,0.1-0.2,0.1-0.3,0.1c-0.1,0-0.2,0-0.2-0.1c-0.1-0.1-0.1-0.1-0.2-0.2
	L675.1,54.9z M683.6,59.2c0.2,0.3,0.5,0.5,0.7,0.6c0.3,0.1,0.5,0.2,0.9,0.2c0.6,0,1.1-0.2,1.5-0.7c0.3-0.5,0.5-1.1,0.5-2.1
	c0-0.8-0.2-1.5-0.5-1.9c-0.3-0.4-0.7-0.6-1.3-0.6c-0.4,0-0.7,0.1-1,0.3c-0.3,0.2-0.6,0.4-0.8,0.8V59.2z M683.6,54.9
	c0.3-0.3,0.6-0.6,1-0.8s0.8-0.3,1.3-0.3c0.4,0,0.8,0.1,1.1,0.2c0.3,0.2,0.6,0.4,0.9,0.7c0.2,0.3,0.4,0.7,0.5,1.1
	c0.1,0.4,0.2,0.9,0.2,1.5c0,0.6-0.1,1.1-0.2,1.6c-0.1,0.5-0.3,0.9-0.6,1.2c-0.3,0.3-0.6,0.6-1,0.8c-0.4,0.2-0.8,0.3-1.3,0.3
	c-0.2,0-0.4,0-0.6-0.1c-0.2,0-0.4-0.1-0.5-0.2c-0.2-0.1-0.3-0.2-0.4-0.3c-0.1-0.1-0.3-0.3-0.4-0.4l-0.1,0.6c0,0.2-0.2,0.3-0.4,0.3
	h-0.9V50.7h1.4V54.9z M694.8,56.7c0-0.3,0-0.5-0.1-0.7c-0.1-0.2-0.2-0.4-0.3-0.6c-0.1-0.2-0.3-0.3-0.5-0.4c-0.2-0.1-0.5-0.1-0.7-0.1
	c-0.6,0-1,0.2-1.4,0.5c-0.3,0.3-0.5,0.8-0.6,1.4H694.8z M695.9,60c-0.2,0.2-0.4,0.4-0.6,0.5c-0.2,0.1-0.5,0.3-0.7,0.3
	c-0.2,0.1-0.5,0.2-0.8,0.2c-0.3,0-0.5,0.1-0.8,0.1c-0.5,0-0.9-0.1-1.4-0.2c-0.4-0.2-0.8-0.4-1.1-0.7c-0.3-0.3-0.5-0.7-0.7-1.2
	c-0.2-0.5-0.3-1-0.3-1.6c0-0.5,0.1-1,0.2-1.4c0.2-0.4,0.4-0.8,0.7-1.1c0.3-0.3,0.6-0.6,1.1-0.7c0.4-0.2,0.9-0.3,1.4-0.3
	c0.4,0,0.8,0.1,1.2,0.2c0.4,0.1,0.7,0.3,1,0.6c0.3,0.3,0.5,0.6,0.6,1C696,56,696,56.5,696,57c0,0.2,0,0.4-0.1,0.4
	c0,0.1-0.1,0.1-0.3,0.1h-4.7c0,0.4,0.1,0.8,0.2,1.1c0.1,0.3,0.3,0.6,0.4,0.8c0.2,0.2,0.4,0.4,0.7,0.5c0.3,0.1,0.6,0.2,0.9,0.2
	c0.3,0,0.6,0,0.8-0.1c0.2-0.1,0.4-0.1,0.6-0.2c0.2-0.1,0.3-0.2,0.4-0.2c0.1-0.1,0.2-0.1,0.3-0.1c0.1,0,0.2,0,0.3,0.1L695.9,60z
	 M698.9,50.7V61h-1.4V50.7H698.9z"/>
<path class="st2" d="M653,0h45c6.6,0,12,5.4,12,12l0,0c0,6.6-5.4,12-12,12h-45c-6.6,0-12-5.4-12-12l0,0C641,5.4,646.4,0,653,0z"/>
<g>
	<defs>
		<rect id="SVGID_00000170270516945060618810000013896868375576382625_" x="645" y="4" width="16" height="16"/>
	</defs>
	<clipPath id="SVGID_00000059280438593970947980000016669886879077140637_">
		<use xlink:href="#SVGID_00000170270516945060618810000013896868375576382625_"  style="overflow:visible;"/>
	</clipPath>
	<g style="clip-path:url(#SVGID_00000059280438593970947980000016669886879077140637_);">
		<path class="st7" d="M661,12c0,4.4-3.6,8-8,8s-8-3.6-8-8c0,0,8-8,8-8C657.4,4,661,7.6,661,12z"/>
		<path class="st8" d="M653,12L653,12C653,12,653,12,653,12C653,12,653,12,653,12z"/>
		<path class="st8" d="M653,8.2c0-1.4,0-2.3,0-4.2h0c-4.4,0-8,3.6-8,8h4.2V9.7l2.3,2.4h1.5c0,0,0,0,0,0c0-0.5,0-1,0-1.5l-2.3-2.4
			H653z"/>
		<path class="st9" d="M649,5c-1.3,0.7-2.3,1.8-3,3v4h2.1V7.1v0h4.9c0-0.7,0-1.3,0-2.1H649z"/>
		<path class="st9" d="M653,11l-2.8-2.8h-1c0,0,0,0,0,0L653,12l0,0C653,12,653,11.3,653,11z"/>
		<path class="st8" d="M649.8,13.4l0.4,0.9l1-0.2l-0.4,0.9l0.8,0.6l-1,0.2l0,1l-0.8-0.6l-0.8,0.6l0-1l-1-0.2l0.8-0.6l-0.4-0.9l1,0.2
			L649.8,13.4z"/>
		<path class="st8" d="M657,15.1l0.2,0.5l0.5-0.1l-0.2,0.5l0.4,0.3l-0.5,0.1l0,0.5l-0.4-0.3l-0.4,0.3l0-0.5l-0.5-0.1l0.4-0.3
			l-0.2-0.5l0.5,0.1L657,15.1z"/>
		<path class="st8" d="M654.9,10.3l0.2,0.5l0.5-0.1l-0.2,0.5l0.4,0.3l-0.5,0.1l0,0.5l-0.4-0.3l-0.4,0.3l0-0.5l-0.5-0.1l0.4-0.3
			l-0.2-0.5l0.5,0.1L654.9,10.3z"/>
		<path class="st8" d="M657,7.5l0.2,0.5l0.5-0.1l-0.2,0.5l0.4,0.3l-0.5,0.1l0,0.5L657,8.9l-0.4,0.3l0-0.5l-0.5-0.1l0.4-0.3l-0.2-0.5
			l0.5,0.1L657,7.5z"/>
		<path class="st8" d="M658.8,9.6L659,10l0.5-0.1l-0.2,0.5l0.4,0.3l-0.5,0.1l0,0.5l-0.4-0.3l-0.4,0.3l0-0.5l-0.5-0.1l0.4-0.3
			L658,9.9l0.5,0.1L658.8,9.6z"/>
		<path class="st8" d="M657.5,12l0.2,0.5h0.6l-0.5,0.3l0.2,0.5l-0.5-0.3l-0.5,0.3l0.2-0.5l-0.5-0.3h0.6L657.5,12z"/>
	</g>
</g>
<path class="st3" d="M674.1,15.7V17h-5.8V6.9h1.5v8.8H674.1z M679.1,13.8c-0.6,0-1,0.1-1.4,0.1c-0.4,0.1-0.7,0.2-0.9,0.3
	c-0.2,0.1-0.4,0.2-0.5,0.4c-0.1,0.1-0.2,0.3-0.2,0.5c0,0.2,0,0.3,0.1,0.5c0.1,0.1,0.1,0.2,0.2,0.3c0.1,0.1,0.2,0.1,0.4,0.2
	c0.1,0,0.3,0.1,0.4,0.1c0.2,0,0.4,0,0.6-0.1c0.2,0,0.3-0.1,0.5-0.2c0.2-0.1,0.3-0.2,0.4-0.3c0.1-0.1,0.3-0.2,0.4-0.4V13.8z
	 M675.1,10.9c0.4-0.4,0.8-0.7,1.3-0.8c0.5-0.2,1-0.3,1.5-0.3c0.4,0,0.8,0.1,1.1,0.2c0.3,0.1,0.6,0.3,0.8,0.6
	c0.2,0.2,0.4,0.5,0.5,0.9c0.1,0.3,0.2,0.7,0.2,1.1V17h-0.6c-0.1,0-0.2,0-0.3-0.1c-0.1,0-0.1-0.1-0.2-0.3l-0.1-0.6
	c-0.2,0.2-0.4,0.3-0.5,0.4c-0.2,0.1-0.4,0.2-0.6,0.3c-0.2,0.1-0.4,0.2-0.6,0.2c-0.2,0-0.5,0.1-0.7,0.1c-0.3,0-0.5,0-0.8-0.1
	c-0.2-0.1-0.5-0.2-0.6-0.4c-0.2-0.2-0.3-0.4-0.4-0.6c-0.1-0.2-0.2-0.5-0.2-0.8c0-0.3,0.1-0.5,0.2-0.8c0.2-0.3,0.4-0.5,0.7-0.7
	c0.3-0.2,0.8-0.4,1.3-0.5c0.6-0.1,1.2-0.2,2-0.2v-0.5c0-0.5-0.1-0.9-0.3-1.2c-0.2-0.3-0.6-0.4-1-0.4c-0.3,0-0.6,0-0.8,0.1
	c-0.2,0.1-0.4,0.2-0.5,0.3c-0.1,0.1-0.3,0.2-0.4,0.2c-0.1,0.1-0.2,0.1-0.3,0.1c-0.1,0-0.2,0-0.2-0.1c-0.1-0.1-0.1-0.1-0.2-0.2
	L675.1,10.9z M683.6,15.2c0.2,0.3,0.5,0.5,0.7,0.6c0.3,0.1,0.5,0.2,0.9,0.2c0.6,0,1.1-0.2,1.5-0.7c0.3-0.5,0.5-1.1,0.5-2.1
	c0-0.8-0.2-1.5-0.5-1.9c-0.3-0.4-0.7-0.6-1.3-0.6c-0.4,0-0.7,0.1-1,0.3c-0.3,0.2-0.6,0.4-0.8,0.8V15.2z M683.6,10.9
	c0.3-0.3,0.6-0.6,1-0.8c0.4-0.2,0.8-0.3,1.3-0.3c0.4,0,0.8,0.1,1.1,0.2c0.3,0.2,0.6,0.4,0.9,0.7c0.2,0.3,0.4,0.7,0.5,1.1
	c0.1,0.4,0.2,0.9,0.2,1.5c0,0.6-0.1,1.1-0.2,1.6c-0.1,0.5-0.3,0.9-0.6,1.2c-0.3,0.3-0.6,0.6-1,0.8c-0.4,0.2-0.8,0.3-1.3,0.3
	c-0.2,0-0.4,0-0.6-0.1c-0.2,0-0.4-0.1-0.5-0.2c-0.2-0.1-0.3-0.2-0.4-0.3s-0.3-0.3-0.4-0.4l-0.1,0.6c0,0.2-0.2,0.3-0.4,0.3h-0.9V6.7
	h1.4V10.9z M694.8,12.7c0-0.3,0-0.5-0.1-0.7c-0.1-0.2-0.2-0.4-0.3-0.6c-0.1-0.2-0.3-0.3-0.5-0.4c-0.2-0.1-0.5-0.1-0.7-0.1
	c-0.6,0-1,0.2-1.4,0.5c-0.3,0.3-0.5,0.8-0.6,1.4H694.8z M695.9,16c-0.2,0.2-0.4,0.4-0.6,0.5c-0.2,0.1-0.5,0.3-0.7,0.3
	c-0.2,0.1-0.5,0.2-0.8,0.2c-0.3,0-0.5,0.1-0.8,0.1c-0.5,0-0.9-0.1-1.4-0.2c-0.4-0.2-0.8-0.4-1.1-0.7c-0.3-0.3-0.5-0.7-0.7-1.2
	c-0.2-0.5-0.3-1-0.3-1.6c0-0.5,0.1-1,0.2-1.4c0.2-0.4,0.4-0.8,0.7-1.1c0.3-0.3,0.6-0.6,1.1-0.7c0.4-0.2,0.9-0.3,1.4-0.3
	c0.4,0,0.8,0.1,1.2,0.2c0.4,0.1,0.7,0.3,1,0.6c0.3,0.3,0.5,0.6,0.6,1C696,12,696,12.5,696,13c0,0.2,0,0.4-0.1,0.4
	c0,0.1-0.1,0.1-0.3,0.1h-4.7c0,0.4,0.1,0.8,0.2,1.1c0.1,0.3,0.3,0.6,0.4,0.8c0.2,0.2,0.4,0.4,0.7,0.5c0.3,0.1,0.6,0.2,0.9,0.2
	c0.3,0,0.6,0,0.8-0.1c0.2-0.1,0.4-0.1,0.6-0.2c0.2-0.1,0.3-0.2,0.4-0.2c0.1-0.1,0.2-0.1,0.3-0.1c0.1,0,0.2,0,0.3,0.1L695.9,16z
	 M698.9,6.7V17h-1.4V6.7H698.9z"/>
<path class="st0" d="M151,44h29c7.7,0,14,6.3,14,14l0,0c0,7.7-6.3,14-14,14h-29c-7.7,0-14-6.3-14-14l0,0C137,50.3,143.3,44,151,44z"
	/>
<path class="st1" d="M156.1,61.7V63h-5.8V52.9h1.5v8.8H156.1z M161.1,59.8c-0.6,0-1,0.1-1.4,0.1c-0.4,0.1-0.7,0.2-0.9,0.3
	c-0.2,0.1-0.4,0.2-0.5,0.4c-0.1,0.1-0.2,0.3-0.2,0.5c0,0.2,0,0.3,0.1,0.5c0.1,0.1,0.1,0.2,0.2,0.3c0.1,0.1,0.2,0.1,0.4,0.2
	c0.1,0,0.3,0.1,0.4,0.1c0.2,0,0.4,0,0.6-0.1c0.2,0,0.3-0.1,0.5-0.2c0.2-0.1,0.3-0.2,0.4-0.3c0.1-0.1,0.3-0.2,0.4-0.4V59.8z
	 M157.1,56.9c0.4-0.4,0.8-0.7,1.3-0.8c0.5-0.2,1-0.3,1.5-0.3c0.4,0,0.8,0.1,1.1,0.2c0.3,0.1,0.6,0.3,0.8,0.6
	c0.2,0.2,0.4,0.5,0.5,0.9c0.1,0.3,0.2,0.7,0.2,1.1V63h-0.6c-0.1,0-0.2,0-0.3-0.1c-0.1,0-0.1-0.1-0.2-0.3l-0.1-0.6
	c-0.2,0.2-0.4,0.3-0.5,0.4c-0.2,0.1-0.4,0.2-0.6,0.3c-0.2,0.1-0.4,0.2-0.6,0.2c-0.2,0-0.5,0.1-0.7,0.1c-0.3,0-0.5,0-0.8-0.1
	c-0.2-0.1-0.5-0.2-0.6-0.4c-0.2-0.2-0.3-0.4-0.4-0.6c-0.1-0.2-0.2-0.5-0.2-0.8c0-0.3,0.1-0.5,0.2-0.8c0.2-0.3,0.4-0.5,0.7-0.7
	c0.3-0.2,0.8-0.4,1.3-0.5c0.6-0.1,1.2-0.2,2-0.2v-0.5c0-0.5-0.1-0.9-0.3-1.2c-0.2-0.3-0.6-0.4-1-0.4c-0.3,0-0.6,0-0.8,0.1
	c-0.2,0.1-0.4,0.2-0.5,0.3c-0.1,0.1-0.3,0.2-0.4,0.2c-0.1,0.1-0.2,0.1-0.3,0.1c-0.1,0-0.2,0-0.2-0.1c-0.1-0.1-0.1-0.1-0.2-0.2
	L157.1,56.9z M165.6,61.2c0.2,0.3,0.5,0.5,0.7,0.6c0.3,0.1,0.5,0.2,0.9,0.2c0.6,0,1.1-0.2,1.5-0.7c0.3-0.5,0.5-1.1,0.5-2.1
	c0-0.8-0.2-1.5-0.5-1.9c-0.3-0.4-0.7-0.6-1.3-0.6c-0.4,0-0.7,0.1-1,0.3c-0.3,0.2-0.6,0.4-0.8,0.8V61.2z M165.6,56.9
	c0.3-0.3,0.6-0.6,1-0.8s0.8-0.3,1.3-0.3c0.4,0,0.8,0.1,1.1,0.2c0.3,0.2,0.6,0.4,0.9,0.7c0.2,0.3,0.4,0.7,0.5,1.1
	c0.1,0.4,0.2,0.9,0.2,1.5c0,0.6-0.1,1.1-0.2,1.6c-0.1,0.5-0.3,0.9-0.6,1.2c-0.3,0.3-0.6,0.6-1,0.8c-0.4,0.2-0.8,0.3-1.3,0.3
	c-0.2,0-0.4,0-0.6-0.1c-0.2,0-0.4-0.1-0.5-0.2c-0.2-0.1-0.3-0.2-0.4-0.3c-0.1-0.1-0.3-0.3-0.4-0.4l-0.1,0.6c0,0.2-0.2,0.3-0.3,0.3
	h-0.9V52.7h1.4V56.9z M176.8,58.7c0-0.3,0-0.5-0.1-0.7c-0.1-0.2-0.2-0.4-0.3-0.6c-0.1-0.2-0.3-0.3-0.5-0.4c-0.2-0.1-0.5-0.1-0.7-0.1
	c-0.6,0-1,0.2-1.4,0.5c-0.3,0.3-0.5,0.8-0.6,1.4H176.8z M177.9,62c-0.2,0.2-0.4,0.4-0.6,0.5c-0.2,0.1-0.5,0.3-0.7,0.3
	c-0.2,0.1-0.5,0.2-0.8,0.2c-0.3,0-0.5,0.1-0.8,0.1c-0.5,0-0.9-0.1-1.4-0.2c-0.4-0.2-0.8-0.4-1.1-0.7c-0.3-0.3-0.5-0.7-0.7-1.2
	c-0.2-0.5-0.3-1-0.3-1.6c0-0.5,0.1-1,0.2-1.4c0.2-0.4,0.4-0.8,0.7-1.1c0.3-0.3,0.6-0.6,1.1-0.7c0.4-0.2,0.9-0.3,1.4-0.3
	c0.4,0,0.8,0.1,1.2,0.2c0.4,0.1,0.7,0.3,1,0.6c0.3,0.3,0.5,0.6,0.6,1C178,58,178,58.5,178,59c0,0.2,0,0.4-0.1,0.4
	c0,0.1-0.1,0.1-0.3,0.1h-4.7c0,0.4,0.1,0.8,0.2,1.1c0.1,0.3,0.3,0.6,0.4,0.8c0.2,0.2,0.4,0.4,0.7,0.5c0.3,0.1,0.6,0.2,0.9,0.2
	c0.3,0,0.6,0,0.8-0.1c0.2-0.1,0.4-0.1,0.6-0.2c0.2-0.1,0.3-0.2,0.4-0.2c0.1-0.1,0.2-0.1,0.3-0.1c0.1,0,0.2,0,0.3,0.1L177.9,62z
	 M180.9,52.7V63h-1.4V52.7H180.9z"/>
<path class="st2" d="M151,0h29c7.7,0,14,6.3,14,14l0,0c0,7.7-6.3,14-14,14h-29c-7.7,0-14-6.3-14-14l0,0C137,6.3,143.3,0,151,0z"/>
<path class="st3" d="M156.1,17.7V19h-5.8V8.9h1.5v8.8H156.1z M161.1,15.8c-0.6,0-1,0.1-1.4,0.1c-0.4,0.1-0.7,0.2-0.9,0.3
	c-0.2,0.1-0.4,0.2-0.5,0.4c-0.1,0.1-0.2,0.3-0.2,0.5c0,0.2,0,0.3,0.1,0.5c0.1,0.1,0.1,0.2,0.2,0.3c0.1,0.1,0.2,0.1,0.4,0.2
	c0.1,0,0.3,0.1,0.4,0.1c0.2,0,0.4,0,0.6-0.1c0.2,0,0.3-0.1,0.5-0.2c0.2-0.1,0.3-0.2,0.4-0.3c0.1-0.1,0.3-0.2,0.4-0.4V15.8z
	 M157.1,12.9c0.4-0.4,0.8-0.7,1.3-0.8c0.5-0.2,1-0.3,1.5-0.3c0.4,0,0.8,0.1,1.1,0.2c0.3,0.1,0.6,0.3,0.8,0.6
	c0.2,0.2,0.4,0.5,0.5,0.9c0.1,0.3,0.2,0.7,0.2,1.1V19h-0.6c-0.1,0-0.2,0-0.3-0.1c-0.1,0-0.1-0.1-0.2-0.3l-0.1-0.6
	c-0.2,0.2-0.4,0.3-0.5,0.4c-0.2,0.1-0.4,0.2-0.6,0.3c-0.2,0.1-0.4,0.2-0.6,0.2c-0.2,0-0.5,0.1-0.7,0.1c-0.3,0-0.5,0-0.8-0.1
	c-0.2-0.1-0.5-0.2-0.6-0.4c-0.2-0.2-0.3-0.4-0.4-0.6c-0.1-0.2-0.2-0.5-0.2-0.8c0-0.3,0.1-0.5,0.2-0.8c0.2-0.3,0.4-0.5,0.7-0.7
	c0.3-0.2,0.8-0.4,1.3-0.5c0.6-0.1,1.2-0.2,2-0.2v-0.5c0-0.5-0.1-0.9-0.3-1.2c-0.2-0.3-0.6-0.4-1-0.4c-0.3,0-0.6,0-0.8,0.1
	c-0.2,0.1-0.4,0.2-0.5,0.3c-0.1,0.1-0.3,0.2-0.4,0.2c-0.1,0.1-0.2,0.1-0.3,0.1c-0.1,0-0.2,0-0.2-0.1c-0.1-0.1-0.1-0.1-0.2-0.2
	L157.1,12.9z M165.6,17.2c0.2,0.3,0.5,0.5,0.7,0.6c0.3,0.1,0.5,0.2,0.9,0.2c0.6,0,1.1-0.2,1.5-0.7c0.3-0.5,0.5-1.1,0.5-2.1
	c0-0.8-0.2-1.5-0.5-1.9c-0.3-0.4-0.7-0.6-1.3-0.6c-0.4,0-0.7,0.1-1,0.3c-0.3,0.2-0.6,0.4-0.8,0.8V17.2z M165.6,12.9
	c0.3-0.3,0.6-0.6,1-0.8c0.4-0.2,0.8-0.3,1.3-0.3c0.4,0,0.8,0.1,1.1,0.2c0.3,0.2,0.6,0.4,0.9,0.7c0.2,0.3,0.4,0.7,0.5,1.1
	c0.1,0.4,0.2,0.9,0.2,1.5c0,0.6-0.1,1.1-0.2,1.6c-0.1,0.5-0.3,0.9-0.6,1.2c-0.3,0.3-0.6,0.6-1,0.8c-0.4,0.2-0.8,0.3-1.3,0.3
	c-0.2,0-0.4,0-0.6-0.1c-0.2,0-0.4-0.1-0.5-0.2c-0.2-0.1-0.3-0.2-0.4-0.3c-0.1-0.1-0.3-0.3-0.4-0.4l-0.1,0.6c0,0.2-0.2,0.3-0.3,0.3
	h-0.9V8.7h1.4V12.9z M176.8,14.7c0-0.3,0-0.5-0.1-0.7c-0.1-0.2-0.2-0.4-0.3-0.6c-0.1-0.2-0.3-0.3-0.5-0.4c-0.2-0.1-0.5-0.1-0.7-0.1
	c-0.6,0-1,0.2-1.4,0.5c-0.3,0.3-0.5,0.8-0.6,1.4H176.8z M177.9,18c-0.2,0.2-0.4,0.4-0.6,0.5c-0.2,0.1-0.5,0.3-0.7,0.3
	c-0.2,0.1-0.5,0.2-0.8,0.2c-0.3,0-0.5,0.1-0.8,0.1c-0.5,0-0.9-0.1-1.4-0.2c-0.4-0.2-0.8-0.4-1.1-0.7c-0.3-0.3-0.5-0.7-0.7-1.2
	c-0.2-0.5-0.3-1-0.3-1.6c0-0.5,0.1-1,0.2-1.4c0.2-0.4,0.4-0.8,0.7-1.1c0.3-0.3,0.6-0.6,1.1-0.7c0.4-0.2,0.9-0.3,1.4-0.3
	c0.4,0,0.8,0.1,1.2,0.2c0.4,0.1,0.7,0.3,1,0.6c0.3,0.3,0.5,0.6,0.6,1C178,14,178,14.5,178,15c0,0.2,0,0.4-0.1,0.4
	c0,0.1-0.1,0.1-0.3,0.1h-4.7c0,0.4,0.1,0.8,0.2,1.1c0.1,0.3,0.3,0.6,0.4,0.8c0.2,0.2,0.4,0.4,0.7,0.5c0.3,0.1,0.6,0.2,0.9,0.2
	c0.3,0,0.6,0,0.8-0.1c0.2-0.1,0.4-0.1,0.6-0.2c0.2-0.1,0.3-0.2,0.4-0.2c0.1-0.1,0.2-0.1,0.3-0.1c0.1,0,0.2,0,0.3,0.1L177.9,18z
	 M180.9,8.7V19h-1.4V8.7H180.9z"/>
<path class="st0" d="M437,44h41c7.7,0,14,6.3,14,14l0,0c0,7.7-6.3,14-14,14h-41c-7.7,0-14-6.3-14-14l0,0C423,50.3,429.3,44,437,44z"
	/>
<circle class="st4" cx="437" cy="58" r="3"/>
<path class="st1" d="M454.1,61.7V63h-5.8V52.9h1.5v8.8H454.1z M459.1,59.8c-0.6,0-1,0.1-1.4,0.1c-0.4,0.1-0.7,0.2-0.9,0.3
	c-0.2,0.1-0.4,0.2-0.5,0.4c-0.1,0.1-0.2,0.3-0.2,0.5c0,0.2,0,0.3,0.1,0.5c0.1,0.1,0.1,0.2,0.2,0.3c0.1,0.1,0.2,0.1,0.4,0.2
	c0.1,0,0.3,0.1,0.4,0.1c0.2,0,0.4,0,0.6-0.1c0.2,0,0.3-0.1,0.5-0.2c0.2-0.1,0.3-0.2,0.4-0.3c0.1-0.1,0.3-0.2,0.4-0.4V59.8z
	 M455.1,56.9c0.4-0.4,0.8-0.7,1.3-0.8c0.5-0.2,1-0.3,1.5-0.3c0.4,0,0.8,0.1,1.1,0.2c0.3,0.1,0.6,0.3,0.8,0.6
	c0.2,0.2,0.4,0.5,0.5,0.9c0.1,0.3,0.2,0.7,0.2,1.1V63h-0.6c-0.1,0-0.2,0-0.3-0.1c-0.1,0-0.1-0.1-0.2-0.3l-0.1-0.6
	c-0.2,0.2-0.4,0.3-0.5,0.4c-0.2,0.1-0.4,0.2-0.6,0.3c-0.2,0.1-0.4,0.2-0.6,0.2c-0.2,0-0.5,0.1-0.7,0.1c-0.3,0-0.5,0-0.8-0.1
	c-0.2-0.1-0.5-0.2-0.6-0.4c-0.2-0.2-0.3-0.4-0.4-0.6c-0.1-0.2-0.2-0.5-0.2-0.8c0-0.3,0.1-0.5,0.2-0.8c0.2-0.3,0.4-0.5,0.7-0.7
	c0.3-0.2,0.8-0.4,1.3-0.5c0.6-0.1,1.2-0.2,2-0.2v-0.5c0-0.5-0.1-0.9-0.3-1.2c-0.2-0.3-0.6-0.4-1-0.4c-0.3,0-0.6,0-0.8,0.1
	c-0.2,0.1-0.4,0.2-0.5,0.3c-0.1,0.1-0.3,0.2-0.4,0.2c-0.1,0.1-0.2,0.1-0.3,0.1c-0.1,0-0.2,0-0.2-0.1c-0.1-0.1-0.1-0.1-0.2-0.2
	L455.1,56.9z M463.6,61.2c0.2,0.3,0.5,0.5,0.7,0.6c0.3,0.1,0.5,0.2,0.9,0.2c0.6,0,1.1-0.2,1.5-0.7c0.3-0.5,0.5-1.1,0.5-2.1
	c0-0.8-0.2-1.5-0.5-1.9c-0.3-0.4-0.7-0.6-1.3-0.6c-0.4,0-0.7,0.1-1,0.3c-0.3,0.2-0.6,0.4-0.8,0.8V61.2z M463.6,56.9
	c0.3-0.3,0.6-0.6,1-0.8c0.4-0.2,0.8-0.3,1.3-0.3c0.4,0,0.8,0.1,1.1,0.2c0.3,0.2,0.6,0.4,0.9,0.7c0.2,0.3,0.4,0.7,0.5,1.1
	s0.2,0.9,0.2,1.5c0,0.6-0.1,1.1-0.2,1.6c-0.1,0.5-0.3,0.9-0.6,1.2c-0.3,0.3-0.6,0.6-1,0.8c-0.4,0.2-0.8,0.3-1.3,0.3
	c-0.2,0-0.4,0-0.6-0.1c-0.2,0-0.4-0.1-0.5-0.2c-0.2-0.1-0.3-0.2-0.4-0.3c-0.1-0.1-0.3-0.3-0.4-0.4l-0.1,0.6c0,0.2-0.2,0.3-0.4,0.3
	h-0.9V52.7h1.4V56.9z M474.8,58.7c0-0.3,0-0.5-0.1-0.7c-0.1-0.2-0.2-0.4-0.3-0.6c-0.1-0.2-0.3-0.3-0.5-0.4c-0.2-0.1-0.5-0.1-0.7-0.1
	c-0.6,0-1,0.2-1.4,0.5c-0.3,0.3-0.5,0.8-0.6,1.4H474.8z M475.9,62c-0.2,0.2-0.4,0.4-0.6,0.5c-0.2,0.1-0.5,0.3-0.7,0.3
	c-0.2,0.1-0.5,0.2-0.8,0.2c-0.3,0-0.5,0.1-0.8,0.1c-0.5,0-0.9-0.1-1.4-0.2c-0.4-0.2-0.8-0.4-1.1-0.7c-0.3-0.3-0.5-0.7-0.7-1.2
	c-0.2-0.5-0.3-1-0.3-1.6c0-0.5,0.1-1,0.2-1.4c0.2-0.4,0.4-0.8,0.7-1.1c0.3-0.3,0.6-0.6,1.1-0.7c0.4-0.2,0.9-0.3,1.4-0.3
	c0.4,0,0.8,0.1,1.2,0.2c0.4,0.1,0.7,0.3,1,0.6c0.3,0.3,0.5,0.6,0.6,1C476,58,476,58.5,476,59c0,0.2,0,0.4-0.1,0.4
	c0,0.1-0.1,0.1-0.3,0.1h-4.7c0,0.4,0.1,0.8,0.2,1.1c0.1,0.3,0.3,0.6,0.4,0.8c0.2,0.2,0.4,0.4,0.7,0.5c0.3,0.1,0.6,0.2,0.9,0.2
	c0.3,0,0.6,0,0.8-0.1c0.2-0.1,0.4-0.1,0.6-0.2c0.2-0.1,0.3-0.2,0.4-0.2c0.1-0.1,0.2-0.1,0.3-0.1c0.1,0,0.2,0,0.3,0.1L475.9,62z
	 M478.9,52.7V63h-1.4V52.7H478.9z"/>
<path class="st2" d="M437,0h41c7.7,0,14,6.3,14,14l0,0c0,7.7-6.3,14-14,14h-41c-7.7,0-14-6.3-14-14l0,0C423,6.3,429.3,0,437,0z"/>
<circle class="st5" cx="437" cy="14" r="3"/>
<path class="st3" d="M454.1,17.7V19h-5.8V8.9h1.5v8.8H454.1z M459.1,15.8c-0.6,0-1,0.1-1.4,0.1c-0.4,0.1-0.7,0.2-0.9,0.3
	c-0.2,0.1-0.4,0.2-0.5,0.4c-0.1,0.1-0.2,0.3-0.2,0.5c0,0.2,0,0.3,0.1,0.5c0.1,0.1,0.1,0.2,0.2,0.3c0.1,0.1,0.2,0.1,0.4,0.2
	c0.1,0,0.3,0.1,0.4,0.1c0.2,0,0.4,0,0.6-0.1c0.2,0,0.3-0.1,0.5-0.2c0.2-0.1,0.3-0.2,0.4-0.3c0.1-0.1,0.3-0.2,0.4-0.4V15.8z
	 M455.1,12.9c0.4-0.4,0.8-0.7,1.3-0.8c0.5-0.2,1-0.3,1.5-0.3c0.4,0,0.8,0.1,1.1,0.2c0.3,0.1,0.6,0.3,0.8,0.6
	c0.2,0.2,0.4,0.5,0.5,0.9c0.1,0.3,0.2,0.7,0.2,1.1V19h-0.6c-0.1,0-0.2,0-0.3-0.1c-0.1,0-0.1-0.1-0.2-0.3l-0.1-0.6
	c-0.2,0.2-0.4,0.3-0.5,0.4c-0.2,0.1-0.4,0.2-0.6,0.3c-0.2,0.1-0.4,0.2-0.6,0.2c-0.2,0-0.5,0.1-0.7,0.1c-0.3,0-0.5,0-0.8-0.1
	c-0.2-0.1-0.5-0.2-0.6-0.4c-0.2-0.2-0.3-0.4-0.4-0.6c-0.1-0.2-0.2-0.5-0.2-0.8c0-0.3,0.1-0.5,0.2-0.8c0.2-0.3,0.4-0.5,0.7-0.7
	c0.3-0.2,0.8-0.4,1.3-0.5c0.6-0.1,1.2-0.2,2-0.2v-0.5c0-0.5-0.1-0.9-0.3-1.2c-0.2-0.3-0.6-0.4-1-0.4c-0.3,0-0.6,0-0.8,0.1
	c-0.2,0.1-0.4,0.2-0.5,0.3c-0.1,0.1-0.3,0.2-0.4,0.2c-0.1,0.1-0.2,0.1-0.3,0.1c-0.1,0-0.2,0-0.2-0.1c-0.1-0.1-0.1-0.1-0.2-0.2
	L455.1,12.9z M463.6,17.2c0.2,0.3,0.5,0.5,0.7,0.6c0.3,0.1,0.5,0.2,0.9,0.2c0.6,0,1.1-0.2,1.5-0.7c0.3-0.5,0.5-1.1,0.5-2.1
	c0-0.8-0.2-1.5-0.5-1.9c-0.3-0.4-0.7-0.6-1.3-0.6c-0.4,0-0.7,0.1-1,0.3c-0.3,0.2-0.6,0.4-0.8,0.8V17.2z M463.6,12.9
	c0.3-0.3,0.6-0.6,1-0.8c0.4-0.2,0.8-0.3,1.3-0.3c0.4,0,0.8,0.1,1.1,0.2c0.3,0.2,0.6,0.4,0.9,0.7c0.2,0.3,0.4,0.7,0.5,1.1
	c0.1,0.4,0.2,0.9,0.2,1.5c0,0.6-0.1,1.1-0.2,1.6c-0.1,0.5-0.3,0.9-0.6,1.2c-0.3,0.3-0.6,0.6-1,0.8c-0.4,0.2-0.8,0.3-1.3,0.3
	c-0.2,0-0.4,0-0.6-0.1c-0.2,0-0.4-0.1-0.5-0.2c-0.2-0.1-0.3-0.2-0.4-0.3c-0.1-0.1-0.3-0.3-0.4-0.4l-0.1,0.6c0,0.2-0.2,0.3-0.4,0.3
	h-0.9V8.7h1.4V12.9z M474.8,14.7c0-0.3,0-0.5-0.1-0.7c-0.1-0.2-0.2-0.4-0.3-0.6c-0.1-0.2-0.3-0.3-0.5-0.4c-0.2-0.1-0.5-0.1-0.7-0.1
	c-0.6,0-1,0.2-1.4,0.5c-0.3,0.3-0.5,0.8-0.6,1.4H474.8z M475.9,18c-0.2,0.2-0.4,0.4-0.6,0.5c-0.2,0.1-0.5,0.3-0.7,0.3
	c-0.2,0.1-0.5,0.2-0.8,0.2c-0.3,0-0.5,0.1-0.8,0.1c-0.5,0-0.9-0.1-1.4-0.2c-0.4-0.2-0.8-0.4-1.1-0.7c-0.3-0.3-0.5-0.7-0.7-1.2
	c-0.2-0.5-0.3-1-0.3-1.6c0-0.5,0.1-1,0.2-1.4c0.2-0.4,0.4-0.8,0.7-1.1c0.3-0.3,0.6-0.6,1.1-0.7c0.4-0.2,0.9-0.3,1.4-0.3
	c0.4,0,0.8,0.1,1.2,0.2c0.4,0.1,0.7,0.3,1,0.6c0.3,0.3,0.5,0.6,0.6,1C476,14,476,14.5,476,15c0,0.2,0,0.4-0.1,0.4
	c0,0.1-0.1,0.1-0.3,0.1h-4.7c0,0.4,0.1,0.8,0.2,1.1c0.1,0.3,0.3,0.6,0.4,0.8c0.2,0.2,0.4,0.4,0.7,0.5c0.3,0.1,0.6,0.2,0.9,0.2
	c0.3,0,0.6,0,0.8-0.1c0.2-0.1,0.4-0.1,0.6-0.2c0.2-0.1,0.3-0.2,0.4-0.2c0.1-0.1,0.2-0.1,0.3-0.1c0.1,0,0.2,0,0.3,0.1L475.9,18z
	 M478.9,8.7V19h-1.4V8.7H478.9z"/>
<path class="st0" d="M744,44h45c7.7,0,14,6.3,14,14l0,0c0,7.7-6.3,14-14,14h-45c-7.7,0-14-6.3-14-14l0,0C730,50.3,736.3,44,744,44z"
	/>
<g>
	<defs>
		<rect id="SVGID_00000160910404455009809520000017390731747374927520_" x="736" y="50" width="16" height="16"/>
	</defs>
	<clipPath id="SVGID_00000041985532472944388310000012953624965976939924_">
		<use xlink:href="#SVGID_00000160910404455009809520000017390731747374927520_"  style="overflow:visible;"/>
	</clipPath>
	<g style="clip-path:url(#SVGID_00000041985532472944388310000012953624965976939924_);">
		<path class="st7" d="M752,58c0,4.4-3.6,8-8,8s-8-3.6-8-8c0,0,8-8,8-8C748.4,50,752,53.6,752,58z"/>
		<path class="st8" d="M744,58L744,58C744,58,744,58,744,58C744,58,744,58,744,58z"/>
		<path class="st8" d="M744,54.2c0-1.4,0-2.3,0-4.2h0c-4.4,0-8,3.6-8,8h4.2v-2.4l2.3,2.4h1.5c0,0,0,0,0,0c0-0.5,0-1,0-1.5l-2.3-2.4
			H744z"/>
		<path class="st9" d="M740,51c-1.3,0.7-2.3,1.8-3,3v4h2.1v-4.9l0,0h4.9c0-0.7,0-1.3,0-2.1H740z"/>
		<path class="st9" d="M744,57l-2.8-2.8h-1l0,0L744,58l0,0C744,58,744,57.3,744,57z"/>
		<path class="st8" d="M740.8,59.4l0.4,0.9l1-0.2l-0.4,0.9l0.8,0.6l-1,0.2l0,1l-0.8-0.6l-0.8,0.6l0-1l-1-0.2l0.8-0.6l-0.4-0.9l1,0.2
			L740.8,59.4z"/>
		<path class="st8" d="M748,61.1l0.2,0.5l0.5-0.1l-0.2,0.5l0.4,0.3l-0.5,0.1l0,0.5l-0.4-0.3l-0.4,0.3l0-0.5l-0.5-0.1l0.4-0.3
			l-0.2-0.5l0.5,0.1L748,61.1z"/>
		<path class="st8" d="M745.9,56.3l0.2,0.5l0.5-0.1l-0.2,0.5l0.4,0.3l-0.5,0.1l0,0.5l-0.4-0.3l-0.4,0.3l0-0.5l-0.5-0.1l0.4-0.3
			l-0.2-0.5l0.5,0.1L745.9,56.3z"/>
		<path class="st8" d="M748,53.5l0.2,0.5l0.5-0.1l-0.2,0.5l0.4,0.3l-0.5,0.1l0,0.5l-0.4-0.3l-0.4,0.3l0-0.5l-0.5-0.1l0.4-0.3
			l-0.2-0.5l0.5,0.1L748,53.5z"/>
		<path class="st8" d="M749.8,55.6L750,56l0.5-0.1l-0.2,0.5l0.4,0.3l-0.5,0.1l0,0.5l-0.4-0.3l-0.4,0.3l0-0.5l-0.5-0.1l0.4-0.3
			l-0.2-0.5l0.5,0.1L749.8,55.6z"/>
		<path class="st8" d="M748.5,58l0.2,0.5h0.6l-0.5,0.3l0.2,0.5l-0.5-0.3l-0.5,0.3l0.2-0.5l-0.5-0.3h0.6L748.5,58z"/>
	</g>
</g>
<path class="st1" d="M765.1,61.7V63h-5.8V52.9h1.5v8.8H765.1z M770.1,59.8c-0.6,0-1,0.1-1.4,0.1c-0.4,0.1-0.7,0.2-0.9,0.3
	c-0.2,0.1-0.4,0.2-0.5,0.4c-0.1,0.1-0.2,0.3-0.2,0.5c0,0.2,0,0.3,0.1,0.5c0.1,0.1,0.1,0.2,0.2,0.3c0.1,0.1,0.2,0.1,0.4,0.2
	c0.1,0,0.3,0.1,0.4,0.1c0.2,0,0.4,0,0.6-0.1c0.2,0,0.3-0.1,0.5-0.2c0.2-0.1,0.3-0.2,0.4-0.3c0.1-0.1,0.3-0.2,0.4-0.4V59.8z
	 M766.1,56.9c0.4-0.4,0.8-0.7,1.3-0.8c0.5-0.2,1-0.3,1.5-0.3c0.4,0,0.8,0.1,1.1,0.2c0.3,0.1,0.6,0.3,0.8,0.6
	c0.2,0.2,0.4,0.5,0.5,0.9c0.1,0.3,0.2,0.7,0.2,1.1V63h-0.6c-0.1,0-0.2,0-0.3-0.1c-0.1,0-0.1-0.1-0.2-0.3l-0.1-0.6
	c-0.2,0.2-0.4,0.3-0.5,0.4c-0.2,0.1-0.4,0.2-0.6,0.3c-0.2,0.1-0.4,0.2-0.6,0.2c-0.2,0-0.5,0.1-0.7,0.1c-0.3,0-0.5,0-0.8-0.1
	c-0.2-0.1-0.5-0.2-0.6-0.4c-0.2-0.2-0.3-0.4-0.4-0.6c-0.1-0.2-0.2-0.5-0.2-0.8c0-0.3,0.1-0.5,0.2-0.8c0.2-0.3,0.4-0.5,0.7-0.7
	c0.3-0.2,0.8-0.4,1.3-0.5c0.6-0.1,1.2-0.2,2-0.2v-0.5c0-0.5-0.1-0.9-0.3-1.2c-0.2-0.3-0.6-0.4-1-0.4c-0.3,0-0.6,0-0.8,0.1
	c-0.2,0.1-0.4,0.2-0.5,0.3c-0.1,0.1-0.3,0.2-0.4,0.2c-0.1,0.1-0.2,0.1-0.3,0.1c-0.1,0-0.2,0-0.2-0.1c-0.1-0.1-0.1-0.1-0.2-0.2
	L766.1,56.9z M774.6,61.2c0.2,0.3,0.5,0.5,0.7,0.6c0.3,0.1,0.5,0.2,0.9,0.2c0.6,0,1.1-0.2,1.5-0.7c0.3-0.5,0.5-1.1,0.5-2.1
	c0-0.8-0.2-1.5-0.5-1.9c-0.3-0.4-0.7-0.6-1.3-0.6c-0.4,0-0.7,0.1-1,0.3c-0.3,0.2-0.6,0.4-0.8,0.8V61.2z M774.6,56.9
	c0.3-0.3,0.6-0.6,1-0.8s0.8-0.3,1.3-0.3c0.4,0,0.8,0.1,1.1,0.2c0.3,0.2,0.6,0.4,0.9,0.7c0.2,0.3,0.4,0.7,0.5,1.1
	c0.1,0.4,0.2,0.9,0.2,1.5c0,0.6-0.1,1.1-0.2,1.6c-0.1,0.5-0.3,0.9-0.6,1.2c-0.3,0.3-0.6,0.6-1,0.8c-0.4,0.2-0.8,0.3-1.3,0.3
	c-0.2,0-0.4,0-0.6-0.1c-0.2,0-0.4-0.1-0.5-0.2c-0.2-0.1-0.3-0.2-0.4-0.3c-0.1-0.1-0.3-0.3-0.4-0.4l-0.1,0.6c0,0.2-0.2,0.3-0.4,0.3
	h-0.9V52.7h1.4V56.9z M785.8,58.7c0-0.3,0-0.5-0.1-0.7c-0.1-0.2-0.2-0.4-0.3-0.6c-0.1-0.2-0.3-0.3-0.5-0.4c-0.2-0.1-0.5-0.1-0.7-0.1
	c-0.6,0-1,0.2-1.4,0.5c-0.3,0.3-0.5,0.8-0.6,1.4H785.8z M786.9,62c-0.2,0.2-0.4,0.4-0.6,0.5c-0.2,0.1-0.5,0.3-0.7,0.3
	c-0.2,0.1-0.5,0.2-0.8,0.2c-0.3,0-0.5,0.1-0.8,0.1c-0.5,0-0.9-0.1-1.4-0.2c-0.4-0.2-0.8-0.4-1.1-0.7c-0.3-0.3-0.5-0.7-0.7-1.2
	c-0.2-0.5-0.3-1-0.3-1.6c0-0.5,0.1-1,0.2-1.4c0.2-0.4,0.4-0.8,0.7-1.1c0.3-0.3,0.6-0.6,1.1-0.7c0.4-0.2,0.9-0.3,1.4-0.3
	c0.4,0,0.8,0.1,1.2,0.2c0.4,0.1,0.7,0.3,1,0.6c0.3,0.3,0.5,0.6,0.6,1C787,58,787,58.5,787,59c0,0.2,0,0.4-0.1,0.4
	c0,0.1-0.1,0.1-0.3,0.1h-4.7c0,0.4,0.1,0.8,0.2,1.1c0.1,0.3,0.3,0.6,0.4,0.8c0.2,0.2,0.4,0.4,0.7,0.5c0.3,0.1,0.6,0.2,0.9,0.2
	c0.3,0,0.6,0,0.8-0.1c0.2-0.1,0.4-0.1,0.6-0.2c0.2-0.1,0.3-0.2,0.4-0.2c0.1-0.1,0.2-0.1,0.3-0.1c0.1,0,0.2,0,0.3,0.1L786.9,62z
	 M789.9,52.7V63h-1.4V52.7H789.9z"/>
<path class="st2" d="M744,0h45c7.7,0,14,6.3,14,14l0,0c0,7.7-6.3,14-14,14h-45c-7.7,0-14-6.3-14-14l0,0C730,6.3,736.3,0,744,0z"/>
<g>
	<defs>
		<rect id="SVGID_00000060717296782981728250000004694594669319412391_" x="736" y="6" width="16" height="16"/>
	</defs>
	<clipPath id="SVGID_00000093891057267382847680000011049352825150527126_">
		<use xlink:href="#SVGID_00000060717296782981728250000004694594669319412391_"  style="overflow:visible;"/>
	</clipPath>
	<g style="clip-path:url(#SVGID_00000093891057267382847680000011049352825150527126_);">
		<path class="st7" d="M752,14c0,4.4-3.6,8-8,8s-8-3.6-8-8c0,0,8-8,8-8C748.4,6,752,9.6,752,14z"/>
		<path class="st8" d="M744,14L744,14C744,14,744,14,744,14C744,14,744,14,744,14z"/>
		<path class="st8" d="M744,10.2c0-1.4,0-2.3,0-4.2h0c-4.4,0-8,3.6-8,8h4.2v-2.4l2.3,2.4h1.5c0,0,0,0,0,0c0-0.5,0-1,0-1.5l-2.3-2.4
			H744z"/>
		<path class="st9" d="M740,7c-1.3,0.7-2.3,1.8-3,3v4h2.1V9.1v0h4.9c0-0.7,0-1.3,0-2.1H740z"/>
		<path class="st9" d="M744,13l-2.8-2.8h-1l0,0L744,14l0,0C744,14,744,13.3,744,13z"/>
		<path class="st8" d="M740.8,15.4l0.4,0.9l1-0.2l-0.4,0.9l0.8,0.6l-1,0.2l0,1l-0.8-0.6l-0.8,0.6l0-1l-1-0.2l0.8-0.6l-0.4-0.9l1,0.2
			L740.8,15.4z"/>
		<path class="st8" d="M748,17.1l0.2,0.5l0.5-0.1l-0.2,0.5l0.4,0.3l-0.5,0.1l0,0.5l-0.4-0.3l-0.4,0.3l0-0.5l-0.5-0.1l0.4-0.3
			l-0.2-0.5l0.5,0.1L748,17.1z"/>
		<path class="st8" d="M745.9,12.3l0.2,0.5l0.5-0.1l-0.2,0.5l0.4,0.3l-0.5,0.1l0,0.5l-0.4-0.3l-0.4,0.3l0-0.5l-0.5-0.1l0.4-0.3
			l-0.2-0.5l0.5,0.1L745.9,12.3z"/>
		<path class="st8" d="M748,9.5l0.2,0.5l0.5-0.1l-0.2,0.5l0.4,0.3l-0.5,0.1l0,0.5l-0.4-0.3l-0.4,0.3l0-0.5l-0.5-0.1l0.4-0.3
			l-0.2-0.5l0.5,0.1L748,9.5z"/>
		<path class="st8" d="M749.8,11.6L750,12l0.5-0.1l-0.2,0.5l0.4,0.3l-0.5,0.1l0,0.5l-0.4-0.3l-0.4,0.3l0-0.5l-0.5-0.1l0.4-0.3
			l-0.2-0.5l0.5,0.1L749.8,11.6z"/>
		<path class="st8" d="M748.5,14l0.2,0.5h0.6l-0.5,0.3l0.2,0.5l-0.5-0.3l-0.5,0.3l0.2-0.5l-0.5-0.3h0.6L748.5,14z"/>
	</g>
</g>
<path class="st3" d="M765.1,17.7V19h-5.8V8.9h1.5v8.8H765.1z M770.1,15.8c-0.6,0-1,0.1-1.4,0.1c-0.4,0.1-0.7,0.2-0.9,0.3
	c-0.2,0.1-0.4,0.2-0.5,0.4c-0.1,0.1-0.2,0.3-0.2,0.5c0,0.2,0,0.3,0.1,0.5c0.1,0.1,0.1,0.2,0.2,0.3c0.1,0.1,0.2,0.1,0.4,0.2
	c0.1,0,0.3,0.1,0.4,0.1c0.2,0,0.4,0,0.6-0.1c0.2,0,0.3-0.1,0.5-0.2c0.2-0.1,0.3-0.2,0.4-0.3s0.3-0.2,0.4-0.4V15.8z M766.1,12.9
	c0.4-0.4,0.8-0.7,1.3-0.8c0.5-0.2,1-0.3,1.5-0.3c0.4,0,0.8,0.1,1.1,0.2c0.3,0.1,0.6,0.3,0.8,0.6c0.2,0.2,0.4,0.5,0.5,0.9
	c0.1,0.3,0.2,0.7,0.2,1.1V19h-0.6c-0.1,0-0.2,0-0.3-0.1c-0.1,0-0.1-0.1-0.2-0.3l-0.1-0.6c-0.2,0.2-0.4,0.3-0.5,0.4
	c-0.2,0.1-0.4,0.2-0.6,0.3c-0.2,0.1-0.4,0.2-0.6,0.2c-0.2,0-0.5,0.1-0.7,0.1c-0.3,0-0.5,0-0.8-0.1c-0.2-0.1-0.5-0.2-0.6-0.4
	c-0.2-0.2-0.3-0.4-0.4-0.6c-0.1-0.2-0.2-0.5-0.2-0.8c0-0.3,0.1-0.5,0.2-0.8c0.2-0.3,0.4-0.5,0.7-0.7c0.3-0.2,0.8-0.4,1.3-0.5
	c0.6-0.1,1.2-0.2,2-0.2v-0.5c0-0.5-0.1-0.9-0.3-1.2c-0.2-0.3-0.6-0.4-1-0.4c-0.3,0-0.6,0-0.8,0.1c-0.2,0.1-0.4,0.2-0.5,0.3
	c-0.1,0.1-0.3,0.2-0.4,0.2c-0.1,0.1-0.2,0.1-0.3,0.1c-0.1,0-0.2,0-0.2-0.1c-0.1-0.1-0.1-0.1-0.2-0.2L766.1,12.9z M774.6,17.2
	c0.2,0.3,0.5,0.5,0.7,0.6c0.3,0.1,0.5,0.2,0.9,0.2c0.6,0,1.1-0.2,1.5-0.7c0.3-0.5,0.5-1.1,0.5-2.1c0-0.8-0.2-1.5-0.5-1.9
	c-0.3-0.4-0.7-0.6-1.3-0.6c-0.4,0-0.7,0.1-1,0.3c-0.3,0.2-0.6,0.4-0.8,0.8V17.2z M774.6,12.9c0.3-0.3,0.6-0.6,1-0.8
	c0.4-0.2,0.8-0.3,1.3-0.3c0.4,0,0.8,0.1,1.1,0.2c0.3,0.2,0.6,0.4,0.9,0.7c0.2,0.3,0.4,0.7,0.5,1.1c0.1,0.4,0.2,0.9,0.2,1.5
	c0,0.6-0.1,1.1-0.2,1.6c-0.1,0.5-0.3,0.9-0.6,1.2c-0.3,0.3-0.6,0.6-1,0.8c-0.4,0.2-0.8,0.3-1.3,0.3c-0.2,0-0.4,0-0.6-0.1
	c-0.2,0-0.4-0.1-0.5-0.2c-0.2-0.1-0.3-0.2-0.4-0.3s-0.3-0.3-0.4-0.4l-0.1,0.6c0,0.2-0.2,0.3-0.4,0.3h-0.9V8.7h1.4V12.9z M785.8,14.7
	c0-0.3,0-0.5-0.1-0.7c-0.1-0.2-0.2-0.4-0.3-0.6c-0.1-0.2-0.3-0.3-0.5-0.4c-0.2-0.1-0.5-0.1-0.7-0.1c-0.6,0-1,0.2-1.4,0.5
	c-0.3,0.3-0.5,0.8-0.6,1.4H785.8z M786.9,18c-0.2,0.2-0.4,0.4-0.6,0.5c-0.2,0.1-0.5,0.3-0.7,0.3c-0.2,0.1-0.5,0.2-0.8,0.2
	c-0.3,0-0.5,0.1-0.8,0.1c-0.5,0-0.9-0.1-1.4-0.2c-0.4-0.2-0.8-0.4-1.1-0.7c-0.3-0.3-0.5-0.7-0.7-1.2c-0.2-0.5-0.3-1-0.3-1.6
	c0-0.5,0.1-1,0.2-1.4c0.2-0.4,0.4-0.8,0.7-1.1c0.3-0.3,0.6-0.6,1.1-0.7c0.4-0.2,0.9-0.3,1.4-0.3c0.4,0,0.8,0.1,1.2,0.2
	c0.4,0.1,0.7,0.3,1,0.6c0.3,0.3,0.5,0.6,0.6,1C787,14,787,14.5,787,15c0,0.2,0,0.4-0.1,0.4c0,0.1-0.1,0.1-0.3,0.1h-4.7
	c0,0.4,0.1,0.8,0.2,1.1c0.1,0.3,0.3,0.6,0.4,0.8c0.2,0.2,0.4,0.4,0.7,0.5c0.3,0.1,0.6,0.2,0.9,0.2c0.3,0,0.6,0,0.8-0.1
	c0.2-0.1,0.4-0.1,0.6-0.2c0.2-0.1,0.3-0.2,0.4-0.2c0.1-0.1,0.2-0.1,0.3-0.1c0.1,0,0.2,0,0.3,0.1L786.9,18z M789.9,8.7V19h-1.4V8.7
	H789.9z"/>
</svg>
