<?xml version="1.0" encoding="utf-8"?>
<!-- Generator: Adobe Illustrator 27.3.0, SVG Export Plug-In . SVG Version: 6.00 Build 0)  -->
<svg version="1.1" id="Layer_1" xmlns="http://www.w3.org/2000/svg" xmlns:xlink="http://www.w3.org/1999/xlink" x="0px" y="0px"
	 viewBox="0 0 936 102" style="enable-background:new 0 0 936 102;" xml:space="preserve">
<style type="text/css">
	.st0{fill:#FFFFFF;}
	.st1{fill:#344054;}
	.st2{fill:none;stroke:#D0D5DD;}
	.st3{fill:#D0D5DD;}
	.st4{clip-path:url(#SVGID_00000132805883790874712960000013559477538727353261_);}
	.st5{fill:none;stroke:#667085;stroke-width:1.67;stroke-linecap:round;stroke-linejoin:round;}
	.st6{clip-path:url(#SVGID_00000075870110158380969900000009317299022179992728_);}
	.st7{clip-path:url(#SVGID_00000054250870201943254550000005070790184200088752_);}
	.st8{clip-path:url(#SVGID_00000120517603315017714970000007234150689674431918_);}
	.st9{clip-path:url(#SVGID_00000052802534677732344640000003725765820469918607_);}
	.st10{clip-path:url(#SVGID_00000181802408146487456000000015957130769702372489_);}
	.st11{clip-path:url(#SVGID_00000181777860180053921680000007006359846049321125_);}
	.st12{clip-path:url(#SVGID_00000101083210677765918960000013296955264666078622_);}
	.st13{clip-path:url(#SVGID_00000025433758774010980450000018359808665110445204_);}
</style>
<g>
	<path class="st0" d="M246.5,67c0-4.1,3.4-7.5,7.5-7.5h71.5v39H254c-4.1,0-7.5-3.4-7.5-7.5V67z"/>
	<path class="st1" d="M269,82.7V84h-5.8V73.9h1.5v8.8H269z M274.4,79.7c0-0.3,0-0.5-0.1-0.7c-0.1-0.2-0.2-0.4-0.3-0.6
		c-0.1-0.2-0.3-0.3-0.5-0.4c-0.2-0.1-0.5-0.1-0.7-0.1c-0.6,0-1,0.2-1.4,0.5c-0.3,0.3-0.5,0.8-0.6,1.4H274.4z M275.5,83
		c-0.2,0.2-0.4,0.4-0.6,0.5c-0.2,0.1-0.5,0.3-0.7,0.3c-0.2,0.1-0.5,0.2-0.8,0.2c-0.3,0-0.5,0.1-0.8,0.1c-0.5,0-0.9-0.1-1.4-0.2
		c-0.4-0.2-0.8-0.4-1.1-0.7c-0.3-0.3-0.5-0.7-0.7-1.2c-0.2-0.5-0.3-1-0.3-1.6c0-0.5,0.1-1,0.2-1.4c0.2-0.4,0.4-0.8,0.7-1.1
		c0.3-0.3,0.6-0.6,1.1-0.7c0.4-0.2,0.9-0.3,1.4-0.3c0.4,0,0.8,0.1,1.2,0.2c0.4,0.1,0.7,0.3,1,0.6s0.5,0.6,0.6,1
		c0.2,0.4,0.2,0.8,0.2,1.4c0,0.2,0,0.4-0.1,0.4c0,0.1-0.1,0.1-0.3,0.1h-4.7c0,0.4,0.1,0.8,0.2,1.1c0.1,0.3,0.3,0.6,0.4,0.8
		c0.2,0.2,0.4,0.4,0.7,0.5c0.3,0.1,0.6,0.2,0.9,0.2c0.3,0,0.6,0,0.8-0.1c0.2-0.1,0.4-0.1,0.6-0.2c0.2-0.1,0.3-0.2,0.4-0.2
		c0.1-0.1,0.2-0.1,0.3-0.1c0.1,0,0.2,0,0.3,0.1L275.5,83z M280.9,80.8c-0.6,0-1,0.1-1.4,0.1c-0.4,0.1-0.7,0.2-0.9,0.3
		c-0.2,0.1-0.4,0.2-0.5,0.4c-0.1,0.1-0.2,0.3-0.2,0.5c0,0.2,0,0.3,0.1,0.5c0.1,0.1,0.1,0.2,0.2,0.3c0.1,0.1,0.2,0.1,0.4,0.2
		c0.1,0,0.3,0.1,0.4,0.1c0.2,0,0.4,0,0.6-0.1c0.2,0,0.3-0.1,0.5-0.2c0.2-0.1,0.3-0.2,0.4-0.3c0.1-0.1,0.3-0.2,0.4-0.4V80.8z
		 M276.9,77.9c0.4-0.4,0.8-0.7,1.3-0.8c0.5-0.2,1-0.3,1.5-0.3c0.4,0,0.8,0.1,1.1,0.2c0.3,0.1,0.6,0.3,0.8,0.6
		c0.2,0.2,0.4,0.5,0.5,0.9c0.1,0.3,0.2,0.7,0.2,1.1V84h-0.6c-0.1,0-0.2,0-0.3-0.1c-0.1,0-0.1-0.1-0.2-0.3l-0.1-0.6
		c-0.2,0.2-0.4,0.3-0.5,0.4c-0.2,0.1-0.4,0.2-0.6,0.3c-0.2,0.1-0.4,0.2-0.6,0.2c-0.2,0-0.5,0.1-0.7,0.1c-0.3,0-0.5,0-0.8-0.1
		c-0.2-0.1-0.5-0.2-0.6-0.4c-0.2-0.2-0.3-0.4-0.4-0.6c-0.1-0.2-0.2-0.5-0.2-0.8c0-0.3,0.1-0.5,0.2-0.8c0.2-0.3,0.4-0.5,0.7-0.7
		c0.3-0.2,0.8-0.4,1.3-0.5c0.6-0.1,1.2-0.2,2-0.2v-0.5c0-0.5-0.1-0.9-0.3-1.2c-0.2-0.3-0.6-0.4-1-0.4c-0.3,0-0.5,0-0.8,0.1
		c-0.2,0.1-0.4,0.2-0.5,0.3c-0.1,0.1-0.3,0.2-0.4,0.2c-0.1,0.1-0.2,0.1-0.3,0.1c-0.1,0-0.2,0-0.2-0.1c-0.1-0.1-0.1-0.1-0.2-0.2
		L276.9,77.9z M288.7,78.6c-0.2-0.3-0.5-0.5-0.7-0.6c-0.3-0.1-0.5-0.2-0.9-0.2c-0.6,0-1.1,0.2-1.5,0.7c-0.3,0.4-0.5,1.1-0.5,2
		c0,0.5,0,0.8,0.1,1.2c0.1,0.3,0.2,0.6,0.3,0.8c0.1,0.2,0.3,0.3,0.5,0.4c0.2,0.1,0.5,0.1,0.7,0.1c0.4,0,0.7-0.1,1-0.3
		c0.3-0.2,0.6-0.4,0.8-0.7V78.6z M290.1,73.7V84h-0.8c-0.2,0-0.3-0.1-0.4-0.3l-0.1-0.8c-0.3,0.4-0.6,0.6-1,0.9
		c-0.4,0.2-0.8,0.3-1.3,0.3c-0.4,0-0.8-0.1-1.1-0.2c-0.3-0.2-0.6-0.4-0.8-0.7c-0.2-0.3-0.4-0.7-0.5-1.1s-0.2-1-0.2-1.6
		c0-0.5,0.1-1,0.2-1.5c0.1-0.5,0.3-0.8,0.6-1.2s0.6-0.6,1-0.8c0.4-0.2,0.8-0.3,1.3-0.3c0.4,0,0.8,0.1,1.1,0.2
		c0.3,0.1,0.6,0.3,0.8,0.6v-3.9H290.1z M293.4,76.9V84H292v-7.1H293.4z M293.6,74.7c0,0.1,0,0.2-0.1,0.4c-0.1,0.1-0.1,0.2-0.2,0.3
		c-0.1,0.1-0.2,0.2-0.3,0.2c-0.1,0-0.2,0.1-0.4,0.1c-0.1,0-0.2,0-0.4-0.1c-0.1-0.1-0.2-0.1-0.3-0.2c-0.1-0.1-0.2-0.2-0.2-0.3
		c0-0.1-0.1-0.2-0.1-0.4c0-0.1,0-0.3,0.1-0.4c0.1-0.1,0.1-0.2,0.2-0.3c0.1-0.1,0.2-0.2,0.3-0.2c0.1-0.1,0.2-0.1,0.4-0.1
		c0.1,0,0.2,0,0.4,0.1c0.1,0,0.2,0.1,0.3,0.2c0.1,0.1,0.2,0.2,0.2,0.3C293.6,74.4,293.6,74.6,293.6,74.7z M296.6,77.9
		c0.2-0.2,0.3-0.3,0.5-0.4s0.3-0.2,0.5-0.3c0.2-0.1,0.4-0.2,0.6-0.2c0.2-0.1,0.5-0.1,0.7-0.1c0.4,0,0.7,0.1,1,0.2
		c0.3,0.1,0.5,0.3,0.7,0.6c0.2,0.2,0.4,0.5,0.5,0.8c0.1,0.3,0.2,0.7,0.2,1.1V84H300v-4.5c0-0.5-0.1-0.9-0.3-1.2
		c-0.2-0.3-0.6-0.4-1.1-0.4c-0.4,0-0.7,0.1-1,0.3c-0.3,0.2-0.6,0.4-0.8,0.7V84h-1.4v-7.1h0.8c0.2,0,0.3,0.1,0.4,0.3L296.6,77.9z
		 M305.7,80.5c0.2,0,0.5,0,0.6-0.1c0.2-0.1,0.3-0.2,0.5-0.3c0.1-0.1,0.2-0.3,0.3-0.4c0.1-0.2,0.1-0.4,0.1-0.6c0-0.4-0.1-0.7-0.4-1
		c-0.2-0.2-0.6-0.4-1.1-0.4c-0.5,0-0.8,0.1-1.1,0.4c-0.2,0.2-0.4,0.6-0.4,1c0,0.2,0,0.4,0.1,0.6c0.1,0.2,0.2,0.3,0.3,0.4
		c0.1,0.1,0.3,0.2,0.5,0.3C305.2,80.4,305.5,80.5,305.7,80.5z M307.9,84.4c0-0.2,0-0.3-0.1-0.4c-0.1-0.1-0.2-0.2-0.4-0.2
		c-0.2-0.1-0.3-0.1-0.6-0.1c-0.2,0-0.4,0-0.7-0.1c-0.2,0-0.5,0-0.7,0c-0.2,0-0.5,0-0.7-0.1c-0.2,0.1-0.4,0.3-0.6,0.4
		c-0.2,0.2-0.2,0.4-0.2,0.6c0,0.1,0,0.3,0.1,0.4c0.1,0.1,0.2,0.2,0.4,0.3c0.2,0.1,0.4,0.2,0.6,0.2c0.2,0.1,0.5,0.1,0.9,0.1
		c0.3,0,0.6,0,0.9-0.1c0.3-0.1,0.5-0.1,0.6-0.2c0.2-0.1,0.3-0.2,0.4-0.4C307.8,84.7,307.9,84.5,307.9,84.4z M309.3,77.2v0.5
		c0,0.2-0.1,0.3-0.3,0.3l-0.8,0.1c0.1,0.1,0.1,0.3,0.2,0.5c0,0.2,0.1,0.3,0.1,0.5c0,0.3-0.1,0.7-0.2,1c-0.1,0.3-0.3,0.5-0.6,0.7
		c-0.2,0.2-0.5,0.4-0.9,0.5c-0.3,0.1-0.7,0.2-1.1,0.2c-0.3,0-0.6,0-0.9-0.1c-0.1,0.1-0.2,0.2-0.3,0.3c-0.1,0.1-0.1,0.2-0.1,0.3
		c0,0.2,0.1,0.3,0.2,0.4c0.1,0.1,0.3,0.1,0.5,0.2c0.2,0,0.5,0.1,0.8,0.1c0.3,0,0.6,0,0.9,0c0.3,0,0.6,0.1,0.9,0.1
		c0.3,0.1,0.5,0.1,0.8,0.3c0.2,0.1,0.4,0.3,0.5,0.5c0.1,0.2,0.2,0.5,0.2,0.8c0,0.3-0.1,0.6-0.2,0.9c-0.1,0.3-0.4,0.5-0.7,0.8
		c-0.3,0.2-0.6,0.4-1.1,0.5c-0.4,0.1-0.9,0.2-1.4,0.2c-0.5,0-1-0.1-1.4-0.2c-0.4-0.1-0.7-0.2-1-0.4c-0.3-0.2-0.5-0.4-0.6-0.6
		c-0.1-0.2-0.2-0.5-0.2-0.7c0-0.3,0.1-0.6,0.3-0.9c0.2-0.2,0.5-0.4,0.9-0.6c-0.2-0.1-0.4-0.2-0.5-0.4c-0.1-0.2-0.2-0.4-0.2-0.6
		c0-0.1,0-0.2,0.1-0.3c0-0.1,0.1-0.2,0.2-0.3c0.1-0.1,0.2-0.2,0.3-0.3c0.1-0.1,0.2-0.2,0.4-0.3c-0.4-0.2-0.6-0.5-0.8-0.8
		c-0.2-0.3-0.3-0.7-0.3-1.1c0-0.3,0.1-0.7,0.2-0.9c0.1-0.3,0.3-0.5,0.6-0.7c0.2-0.2,0.5-0.4,0.9-0.5c0.3-0.1,0.7-0.2,1.1-0.2
		c0.6,0,1.1,0.1,1.6,0.4H309.3z"/>
	<path class="st2" d="M246.5,67c0-4.1,3.4-7.5,7.5-7.5h71.5v39H254c-4.1,0-7.5-3.4-7.5-7.5V67z"/>
	<rect x="326" y="59" class="st0" width="75" height="40"/>
	<rect x="326" y="59" class="st3" width="75" height="1"/>
	<path class="st1" d="M353.8,73.9V84h-1.3v-7.2c0-0.1,0-0.2,0-0.3c0-0.1,0-0.2,0-0.4l-3.3,6.1c-0.1,0.2-0.3,0.3-0.5,0.3h-0.2
		c-0.2,0-0.4-0.1-0.5-0.3l-3.4-6.2c0,0.3,0,0.5,0,0.7V84h-1.3V73.9h1.1c0.1,0,0.2,0,0.3,0c0.1,0,0.1,0.1,0.2,0.2l3.4,6
		c0.1,0.1,0.1,0.2,0.2,0.4s0.1,0.3,0.2,0.4c0.1-0.3,0.2-0.5,0.3-0.8l3.3-6c0.1-0.1,0.1-0.2,0.2-0.2c0.1,0,0.2,0,0.3,0H353.8z
		 M357.3,76.9V84H356v-7.1H357.3z M357.6,74.7c0,0.1,0,0.2-0.1,0.4c-0.1,0.1-0.1,0.2-0.2,0.3c-0.1,0.1-0.2,0.2-0.3,0.2
		c-0.1,0-0.2,0.1-0.4,0.1c-0.1,0-0.2,0-0.4-0.1c-0.1-0.1-0.2-0.1-0.3-0.2c-0.1-0.1-0.2-0.2-0.2-0.3c0-0.1-0.1-0.2-0.1-0.4
		c0-0.1,0-0.3,0.1-0.4c0.1-0.1,0.1-0.2,0.2-0.3c0.1-0.1,0.2-0.2,0.3-0.2c0.1-0.1,0.2-0.1,0.4-0.1c0.1,0,0.2,0,0.4,0.1
		c0.1,0,0.2,0.1,0.3,0.2c0.1,0.1,0.2,0.2,0.2,0.3C357.6,74.4,357.6,74.6,357.6,74.7z M363.9,78.6c-0.2-0.3-0.5-0.5-0.7-0.6
		c-0.3-0.1-0.5-0.2-0.9-0.2c-0.6,0-1.1,0.2-1.5,0.7c-0.3,0.4-0.5,1.1-0.5,2c0,0.5,0,0.8,0.1,1.2c0.1,0.3,0.2,0.6,0.3,0.8
		c0.1,0.2,0.3,0.3,0.5,0.4c0.2,0.1,0.5,0.1,0.7,0.1c0.4,0,0.7-0.1,1-0.3c0.3-0.2,0.6-0.4,0.8-0.7V78.6z M365.3,73.7V84h-0.8
		c-0.2,0-0.3-0.1-0.4-0.3l-0.1-0.8c-0.3,0.4-0.6,0.6-1,0.9c-0.4,0.2-0.8,0.3-1.3,0.3c-0.4,0-0.8-0.1-1.1-0.2
		c-0.3-0.2-0.6-0.4-0.8-0.7c-0.2-0.3-0.4-0.7-0.5-1.1c-0.1-0.5-0.2-1-0.2-1.6c0-0.5,0.1-1,0.2-1.5c0.1-0.5,0.3-0.8,0.6-1.2
		s0.6-0.6,1-0.8c0.4-0.2,0.8-0.3,1.3-0.3c0.4,0,0.8,0.1,1.1,0.2c0.3,0.1,0.6,0.3,0.8,0.6v-3.9H365.3z M371.8,78.6
		c-0.2-0.3-0.5-0.5-0.7-0.6c-0.3-0.1-0.5-0.2-0.9-0.2c-0.6,0-1.1,0.2-1.5,0.7c-0.3,0.4-0.5,1.1-0.5,2c0,0.5,0,0.8,0.1,1.2
		c0.1,0.3,0.2,0.6,0.3,0.8c0.1,0.2,0.3,0.3,0.5,0.4c0.2,0.1,0.5,0.1,0.7,0.1c0.4,0,0.7-0.1,1-0.3s0.6-0.4,0.8-0.7V78.6z M373.1,73.7
		V84h-0.8c-0.2,0-0.3-0.1-0.4-0.3l-0.1-0.8c-0.3,0.4-0.6,0.6-1,0.9c-0.4,0.2-0.8,0.3-1.3,0.3c-0.4,0-0.8-0.1-1.1-0.2
		c-0.3-0.2-0.6-0.4-0.8-0.7c-0.2-0.3-0.4-0.7-0.5-1.1c-0.1-0.5-0.2-1-0.2-1.6c0-0.5,0.1-1,0.2-1.5c0.1-0.5,0.3-0.8,0.6-1.2
		c0.3-0.3,0.6-0.6,1-0.8c0.4-0.2,0.8-0.3,1.3-0.3c0.4,0,0.8,0.1,1.1,0.2c0.3,0.1,0.6,0.3,0.8,0.6v-3.9H373.1z M376.4,73.7V84h-1.4
		V73.7H376.4z M383.1,79.7c0-0.3,0-0.5-0.1-0.7c-0.1-0.2-0.2-0.4-0.3-0.6c-0.1-0.2-0.3-0.3-0.5-0.4c-0.2-0.1-0.5-0.1-0.7-0.1
		c-0.6,0-1,0.2-1.4,0.5c-0.3,0.3-0.5,0.8-0.6,1.4H383.1z M384.2,83c-0.2,0.2-0.4,0.4-0.6,0.5c-0.2,0.1-0.5,0.3-0.7,0.3
		c-0.2,0.1-0.5,0.2-0.8,0.2c-0.3,0-0.5,0.1-0.8,0.1c-0.5,0-0.9-0.1-1.4-0.2c-0.4-0.2-0.8-0.4-1.1-0.7c-0.3-0.3-0.5-0.7-0.7-1.2
		c-0.2-0.5-0.3-1-0.3-1.6c0-0.5,0.1-1,0.2-1.4c0.2-0.4,0.4-0.8,0.7-1.1c0.3-0.3,0.6-0.6,1.1-0.7c0.4-0.2,0.9-0.3,1.4-0.3
		c0.4,0,0.8,0.1,1.2,0.2c0.4,0.1,0.7,0.3,1,0.6c0.3,0.3,0.5,0.6,0.6,1c0.2,0.4,0.2,0.8,0.2,1.4c0,0.2,0,0.4-0.1,0.4
		c0,0.1-0.1,0.1-0.3,0.1h-4.7c0,0.4,0.1,0.8,0.2,1.1c0.1,0.3,0.3,0.6,0.4,0.8c0.2,0.2,0.4,0.4,0.7,0.5c0.3,0.1,0.6,0.2,0.9,0.2
		c0.3,0,0.6,0,0.8-0.1c0.2-0.1,0.4-0.1,0.6-0.2c0.2-0.1,0.3-0.2,0.4-0.2c0.1-0.1,0.2-0.1,0.3-0.1c0.1,0,0.2,0,0.3,0.1L384.2,83z"/>
	<rect x="326" y="98" class="st3" width="75" height="1"/>
	<rect x="401" y="59" class="st3" width="1" height="40"/>
	<rect x="402" y="59" class="st0" width="75" height="40"/>
	<rect x="402" y="59" class="st3" width="75" height="1"/>
	<path class="st1" d="M429.8,73.9V84h-1.3v-7.2c0-0.1,0-0.2,0-0.3c0-0.1,0-0.2,0-0.4l-3.3,6.1c-0.1,0.2-0.3,0.3-0.5,0.3h-0.2
		c-0.2,0-0.4-0.1-0.5-0.3l-3.4-6.2c0,0.3,0,0.5,0,0.7V84h-1.3V73.9h1.1c0.1,0,0.2,0,0.3,0c0.1,0,0.1,0.1,0.2,0.2l3.4,6
		c0.1,0.1,0.1,0.2,0.2,0.4s0.1,0.3,0.2,0.4c0.1-0.3,0.2-0.5,0.3-0.8l3.3-6c0.1-0.1,0.1-0.2,0.2-0.2c0.1,0,0.2,0,0.3,0H429.8z
		 M433.3,76.9V84H432v-7.1H433.3z M433.6,74.7c0,0.1,0,0.2-0.1,0.4c-0.1,0.1-0.1,0.2-0.2,0.3c-0.1,0.1-0.2,0.2-0.3,0.2
		c-0.1,0-0.2,0.1-0.4,0.1c-0.1,0-0.2,0-0.4-0.1c-0.1-0.1-0.2-0.1-0.3-0.2c-0.1-0.1-0.2-0.2-0.2-0.3c0-0.1-0.1-0.2-0.1-0.4
		c0-0.1,0-0.3,0.1-0.4c0.1-0.1,0.1-0.2,0.2-0.3c0.1-0.1,0.2-0.2,0.3-0.2c0.1-0.1,0.2-0.1,0.4-0.1c0.1,0,0.2,0,0.4,0.1
		c0.1,0,0.2,0.1,0.3,0.2c0.1,0.1,0.2,0.2,0.2,0.3C433.6,74.4,433.6,74.6,433.6,74.7z M439.9,78.6c-0.2-0.3-0.5-0.5-0.7-0.6
		c-0.3-0.1-0.5-0.2-0.9-0.2c-0.6,0-1.1,0.2-1.5,0.7c-0.3,0.4-0.5,1.1-0.5,2c0,0.5,0,0.8,0.1,1.2c0.1,0.3,0.2,0.6,0.3,0.8
		c0.1,0.2,0.3,0.3,0.5,0.4c0.2,0.1,0.5,0.1,0.7,0.1c0.4,0,0.7-0.1,1-0.3c0.3-0.2,0.6-0.4,0.8-0.7V78.6z M441.3,73.7V84h-0.8
		c-0.2,0-0.3-0.1-0.4-0.3l-0.1-0.8c-0.3,0.4-0.6,0.6-1,0.9c-0.4,0.2-0.8,0.3-1.3,0.3c-0.4,0-0.8-0.1-1.1-0.2
		c-0.3-0.2-0.6-0.4-0.8-0.7c-0.2-0.3-0.4-0.7-0.5-1.1c-0.1-0.5-0.2-1-0.2-1.6c0-0.5,0.1-1,0.2-1.5c0.1-0.5,0.3-0.8,0.6-1.2
		s0.6-0.6,1-0.8c0.4-0.2,0.8-0.3,1.3-0.3c0.4,0,0.8,0.1,1.1,0.2c0.3,0.1,0.6,0.3,0.8,0.6v-3.9H441.3z M447.8,78.6
		c-0.2-0.3-0.5-0.5-0.7-0.6c-0.3-0.1-0.5-0.2-0.9-0.2c-0.6,0-1.1,0.2-1.5,0.7c-0.3,0.4-0.5,1.1-0.5,2c0,0.5,0,0.8,0.1,1.2
		c0.1,0.3,0.2,0.6,0.3,0.8c0.1,0.2,0.3,0.3,0.5,0.4c0.2,0.1,0.5,0.1,0.7,0.1c0.4,0,0.7-0.1,1-0.3s0.6-0.4,0.8-0.7V78.6z M449.1,73.7
		V84h-0.8c-0.2,0-0.3-0.1-0.4-0.3l-0.1-0.8c-0.3,0.4-0.6,0.6-1,0.9c-0.4,0.2-0.8,0.3-1.3,0.3c-0.4,0-0.8-0.1-1.1-0.2
		c-0.3-0.2-0.6-0.4-0.8-0.7c-0.2-0.3-0.4-0.7-0.5-1.1c-0.1-0.5-0.2-1-0.2-1.6c0-0.5,0.1-1,0.2-1.5c0.1-0.5,0.3-0.8,0.6-1.2
		c0.3-0.3,0.6-0.6,1-0.8c0.4-0.2,0.8-0.3,1.3-0.3c0.4,0,0.8,0.1,1.1,0.2c0.3,0.1,0.6,0.3,0.8,0.6v-3.9H449.1z M452.4,73.7V84h-1.4
		V73.7H452.4z M459.1,79.7c0-0.3,0-0.5-0.1-0.7c-0.1-0.2-0.2-0.4-0.3-0.6c-0.1-0.2-0.3-0.3-0.5-0.4c-0.2-0.1-0.5-0.1-0.7-0.1
		c-0.6,0-1,0.2-1.4,0.5c-0.3,0.3-0.5,0.8-0.6,1.4H459.1z M460.2,83c-0.2,0.2-0.4,0.4-0.6,0.5c-0.2,0.1-0.5,0.3-0.7,0.3
		c-0.2,0.1-0.5,0.2-0.8,0.2c-0.3,0-0.5,0.1-0.8,0.1c-0.5,0-0.9-0.1-1.4-0.2c-0.4-0.2-0.8-0.4-1.1-0.7c-0.3-0.3-0.5-0.7-0.7-1.2
		c-0.2-0.5-0.3-1-0.3-1.6c0-0.5,0.1-1,0.2-1.4c0.2-0.4,0.4-0.8,0.7-1.1c0.3-0.3,0.6-0.6,1.1-0.7c0.4-0.2,0.9-0.3,1.4-0.3
		c0.4,0,0.8,0.1,1.2,0.2c0.4,0.1,0.7,0.3,1,0.6c0.3,0.3,0.5,0.6,0.6,1c0.2,0.4,0.2,0.8,0.2,1.4c0,0.2,0,0.4-0.1,0.4
		c0,0.1-0.1,0.1-0.3,0.1h-4.7c0,0.4,0.1,0.8,0.2,1.1c0.1,0.3,0.3,0.6,0.4,0.8c0.2,0.2,0.4,0.4,0.7,0.5c0.3,0.1,0.6,0.2,0.9,0.2
		c0.3,0,0.6,0,0.8-0.1c0.2-0.1,0.4-0.1,0.6-0.2c0.2-0.1,0.3-0.2,0.4-0.2c0.1-0.1,0.2-0.1,0.3-0.1c0.1,0,0.2,0,0.3,0.1L460.2,83z"/>
	<rect x="402" y="98" class="st3" width="75" height="1"/>
	<rect x="477" y="59" class="st3" width="1" height="40"/>
	<rect x="478" y="59" class="st0" width="75" height="40"/>
	<rect x="478" y="59" class="st3" width="75" height="1"/>
	<path class="st1" d="M505.8,73.9V84h-1.3v-7.2c0-0.1,0-0.2,0-0.3c0-0.1,0-0.2,0-0.4l-3.3,6.1c-0.1,0.2-0.3,0.3-0.5,0.3h-0.2
		c-0.2,0-0.4-0.1-0.5-0.3l-3.4-6.2c0,0.3,0,0.5,0,0.7V84h-1.3V73.9h1.1c0.1,0,0.2,0,0.3,0c0.1,0,0.1,0.1,0.2,0.2l3.4,6
		c0.1,0.1,0.1,0.2,0.2,0.4s0.1,0.3,0.2,0.4c0.1-0.3,0.2-0.5,0.3-0.8l3.3-6c0.1-0.1,0.1-0.2,0.2-0.2c0.1,0,0.2,0,0.3,0H505.8z
		 M509.3,76.9V84H508v-7.1H509.3z M509.6,74.7c0,0.1,0,0.2-0.1,0.4c-0.1,0.1-0.1,0.2-0.2,0.3c-0.1,0.1-0.2,0.2-0.3,0.2
		c-0.1,0-0.2,0.1-0.4,0.1c-0.1,0-0.2,0-0.4-0.1c-0.1-0.1-0.2-0.1-0.3-0.2c-0.1-0.1-0.2-0.2-0.2-0.3c0-0.1-0.1-0.2-0.1-0.4
		c0-0.1,0-0.3,0.1-0.4c0.1-0.1,0.1-0.2,0.2-0.3c0.1-0.1,0.2-0.2,0.3-0.2c0.1-0.1,0.2-0.1,0.4-0.1c0.1,0,0.2,0,0.4,0.1
		c0.1,0,0.2,0.1,0.3,0.2c0.1,0.1,0.2,0.2,0.2,0.3C509.6,74.4,509.6,74.6,509.6,74.7z M515.9,78.6c-0.2-0.3-0.5-0.5-0.7-0.6
		c-0.3-0.1-0.5-0.2-0.9-0.2c-0.6,0-1.1,0.2-1.5,0.7c-0.3,0.4-0.5,1.1-0.5,2c0,0.5,0,0.8,0.1,1.2c0.1,0.3,0.2,0.6,0.3,0.8
		c0.1,0.2,0.3,0.3,0.5,0.4c0.2,0.1,0.5,0.1,0.7,0.1c0.4,0,0.7-0.1,1-0.3c0.3-0.2,0.6-0.4,0.8-0.7V78.6z M517.3,73.7V84h-0.8
		c-0.2,0-0.3-0.1-0.4-0.3l-0.1-0.8c-0.3,0.4-0.6,0.6-1,0.9c-0.4,0.2-0.8,0.3-1.3,0.3c-0.4,0-0.8-0.1-1.1-0.2
		c-0.3-0.2-0.6-0.4-0.8-0.7c-0.2-0.3-0.4-0.7-0.5-1.1c-0.1-0.5-0.2-1-0.2-1.6c0-0.5,0.1-1,0.2-1.5c0.1-0.5,0.3-0.8,0.6-1.2
		s0.6-0.6,1-0.8c0.4-0.2,0.8-0.3,1.3-0.3c0.4,0,0.8,0.1,1.1,0.2c0.3,0.1,0.6,0.3,0.8,0.6v-3.9H517.3z M523.8,78.6
		c-0.2-0.3-0.5-0.5-0.7-0.6c-0.3-0.1-0.5-0.2-0.9-0.2c-0.6,0-1.1,0.2-1.5,0.7c-0.3,0.4-0.5,1.1-0.5,2c0,0.5,0,0.8,0.1,1.2
		c0.1,0.3,0.2,0.6,0.3,0.8c0.1,0.2,0.3,0.3,0.5,0.4c0.2,0.1,0.5,0.1,0.7,0.1c0.4,0,0.7-0.1,1-0.3s0.6-0.4,0.8-0.7V78.6z M525.1,73.7
		V84h-0.8c-0.2,0-0.3-0.1-0.4-0.3l-0.1-0.8c-0.3,0.4-0.6,0.6-1,0.9c-0.4,0.2-0.8,0.3-1.3,0.3c-0.4,0-0.8-0.1-1.1-0.2
		c-0.3-0.2-0.6-0.4-0.8-0.7c-0.2-0.3-0.4-0.7-0.5-1.1c-0.1-0.5-0.2-1-0.2-1.6c0-0.5,0.1-1,0.2-1.5c0.1-0.5,0.3-0.8,0.6-1.2
		s0.6-0.6,1-0.8c0.4-0.2,0.8-0.3,1.3-0.3c0.4,0,0.8,0.1,1.1,0.2c0.3,0.1,0.6,0.3,0.8,0.6v-3.9H525.1z M528.4,73.7V84h-1.4V73.7
		H528.4z M535.1,79.7c0-0.3,0-0.5-0.1-0.7c-0.1-0.2-0.2-0.4-0.3-0.6c-0.1-0.2-0.3-0.3-0.5-0.4c-0.2-0.1-0.5-0.1-0.7-0.1
		c-0.6,0-1,0.2-1.4,0.5c-0.3,0.3-0.5,0.8-0.6,1.4H535.1z M536.2,83c-0.2,0.2-0.4,0.4-0.6,0.5c-0.2,0.1-0.5,0.3-0.7,0.3
		c-0.2,0.1-0.5,0.2-0.8,0.2c-0.3,0-0.5,0.1-0.8,0.1c-0.5,0-0.9-0.1-1.4-0.2c-0.4-0.2-0.8-0.4-1.1-0.7c-0.3-0.3-0.5-0.7-0.7-1.2
		c-0.2-0.5-0.3-1-0.3-1.6c0-0.5,0.1-1,0.2-1.4c0.2-0.4,0.4-0.8,0.7-1.1c0.3-0.3,0.6-0.6,1.1-0.7c0.4-0.2,0.9-0.3,1.4-0.3
		c0.4,0,0.8,0.1,1.2,0.2c0.4,0.1,0.7,0.3,1,0.6s0.5,0.6,0.6,1c0.2,0.4,0.2,0.8,0.2,1.4c0,0.2,0,0.4-0.1,0.4c0,0.1-0.1,0.1-0.3,0.1
		h-4.7c0,0.4,0.1,0.8,0.2,1.1c0.1,0.3,0.3,0.6,0.4,0.8c0.2,0.2,0.4,0.4,0.7,0.5c0.3,0.1,0.6,0.2,0.9,0.2c0.3,0,0.6,0,0.8-0.1
		c0.2-0.1,0.4-0.1,0.6-0.2c0.2-0.1,0.3-0.2,0.4-0.2c0.1-0.1,0.2-0.1,0.3-0.1c0.1,0,0.2,0,0.3,0.1L536.2,83z"/>
	<rect x="478" y="98" class="st3" width="75" height="1"/>
	<rect x="553" y="59" class="st3" width="1" height="40"/>
	<rect x="554" y="59" class="st0" width="75" height="40"/>
	<rect x="554" y="59" class="st3" width="75" height="1"/>
	<path class="st1" d="M581.8,73.9V84h-1.3v-7.2c0-0.1,0-0.2,0-0.3c0-0.1,0-0.2,0-0.4l-3.3,6.1c-0.1,0.2-0.3,0.3-0.5,0.3h-0.2
		c-0.2,0-0.4-0.1-0.5-0.3l-3.4-6.2c0,0.3,0,0.5,0,0.7V84h-1.3V73.9h1.1c0.1,0,0.2,0,0.3,0c0.1,0,0.1,0.1,0.2,0.2l3.4,6
		c0.1,0.1,0.1,0.2,0.2,0.4c0.1,0.1,0.1,0.3,0.2,0.4c0.1-0.3,0.2-0.5,0.3-0.8l3.3-6c0.1-0.1,0.1-0.2,0.2-0.2c0.1,0,0.2,0,0.3,0H581.8
		z M585.3,76.9V84H584v-7.1H585.3z M585.6,74.7c0,0.1,0,0.2-0.1,0.4c-0.1,0.1-0.1,0.2-0.2,0.3c-0.1,0.1-0.2,0.2-0.3,0.2
		c-0.1,0-0.2,0.1-0.4,0.1c-0.1,0-0.2,0-0.4-0.1c-0.1-0.1-0.2-0.1-0.3-0.2c-0.1-0.1-0.2-0.2-0.2-0.3c0-0.1-0.1-0.2-0.1-0.4
		c0-0.1,0-0.3,0.1-0.4c0.1-0.1,0.1-0.2,0.2-0.3c0.1-0.1,0.2-0.2,0.3-0.2c0.1-0.1,0.2-0.1,0.4-0.1c0.1,0,0.2,0,0.4,0.1
		c0.1,0,0.2,0.1,0.3,0.2c0.1,0.1,0.2,0.2,0.2,0.3C585.6,74.4,585.6,74.6,585.6,74.7z M591.9,78.6c-0.2-0.3-0.5-0.5-0.7-0.6
		c-0.3-0.1-0.5-0.2-0.9-0.2c-0.6,0-1.1,0.2-1.5,0.7c-0.3,0.4-0.5,1.1-0.5,2c0,0.5,0,0.8,0.1,1.2c0.1,0.3,0.2,0.6,0.3,0.8
		c0.1,0.2,0.3,0.3,0.5,0.4c0.2,0.1,0.5,0.1,0.7,0.1c0.4,0,0.7-0.1,1-0.3c0.3-0.2,0.6-0.4,0.8-0.7V78.6z M593.3,73.7V84h-0.8
		c-0.2,0-0.3-0.1-0.4-0.3l-0.1-0.8c-0.3,0.4-0.6,0.6-1,0.9c-0.4,0.2-0.8,0.3-1.3,0.3c-0.4,0-0.8-0.1-1.1-0.2
		c-0.3-0.2-0.6-0.4-0.8-0.7c-0.2-0.3-0.4-0.7-0.5-1.1c-0.1-0.5-0.2-1-0.2-1.6c0-0.5,0.1-1,0.2-1.5c0.1-0.5,0.3-0.8,0.6-1.2
		s0.6-0.6,1-0.8c0.4-0.2,0.8-0.3,1.3-0.3c0.4,0,0.8,0.1,1.1,0.2c0.3,0.1,0.6,0.3,0.8,0.6v-3.9H593.3z M599.8,78.6
		c-0.2-0.3-0.5-0.5-0.7-0.6c-0.3-0.1-0.5-0.2-0.9-0.2c-0.6,0-1.1,0.2-1.5,0.7c-0.3,0.4-0.5,1.1-0.5,2c0,0.5,0,0.8,0.1,1.2
		c0.1,0.3,0.2,0.6,0.3,0.8c0.1,0.2,0.3,0.3,0.5,0.4c0.2,0.1,0.5,0.1,0.7,0.1c0.4,0,0.7-0.1,1-0.3s0.6-0.4,0.8-0.7V78.6z M601.1,73.7
		V84h-0.8c-0.2,0-0.3-0.1-0.4-0.3l-0.1-0.8c-0.3,0.4-0.6,0.6-1,0.9c-0.4,0.2-0.8,0.3-1.3,0.3c-0.4,0-0.8-0.1-1.1-0.2
		c-0.3-0.2-0.6-0.4-0.8-0.7c-0.2-0.3-0.4-0.7-0.5-1.1c-0.1-0.5-0.2-1-0.2-1.6c0-0.5,0.1-1,0.2-1.5c0.1-0.5,0.3-0.8,0.6-1.2
		s0.6-0.6,1-0.8c0.4-0.2,0.8-0.3,1.3-0.3c0.4,0,0.8,0.1,1.1,0.2c0.3,0.1,0.6,0.3,0.8,0.6v-3.9H601.1z M604.4,73.7V84h-1.4V73.7
		H604.4z M611.1,79.7c0-0.3,0-0.5-0.1-0.7c-0.1-0.2-0.2-0.4-0.3-0.6c-0.1-0.2-0.3-0.3-0.5-0.4c-0.2-0.1-0.5-0.1-0.7-0.1
		c-0.6,0-1,0.2-1.4,0.5c-0.3,0.3-0.5,0.8-0.6,1.4H611.1z M612.2,83c-0.2,0.2-0.4,0.4-0.6,0.5c-0.2,0.1-0.5,0.3-0.7,0.3
		c-0.2,0.1-0.5,0.2-0.8,0.2c-0.3,0-0.5,0.1-0.8,0.1c-0.5,0-0.9-0.1-1.4-0.2c-0.4-0.2-0.8-0.4-1.1-0.7c-0.3-0.3-0.5-0.7-0.7-1.2
		c-0.2-0.5-0.3-1-0.3-1.6c0-0.5,0.1-1,0.2-1.4c0.2-0.4,0.4-0.8,0.7-1.1c0.3-0.3,0.6-0.6,1.1-0.7c0.4-0.2,0.9-0.3,1.4-0.3
		c0.4,0,0.8,0.1,1.2,0.2c0.4,0.1,0.7,0.3,1,0.6s0.5,0.6,0.6,1c0.2,0.4,0.2,0.8,0.2,1.4c0,0.2,0,0.4-0.1,0.4c0,0.1-0.1,0.1-0.3,0.1
		h-4.7c0,0.4,0.1,0.8,0.2,1.1c0.1,0.3,0.3,0.6,0.4,0.8c0.2,0.2,0.4,0.4,0.7,0.5c0.3,0.1,0.6,0.2,0.9,0.2c0.3,0,0.6,0,0.8-0.1
		c0.2-0.1,0.4-0.1,0.6-0.2c0.2-0.1,0.3-0.2,0.4-0.2c0.1-0.1,0.2-0.1,0.3-0.1c0.1,0,0.2,0,0.3,0.1L612.2,83z"/>
	<rect x="554" y="98" class="st3" width="75" height="1"/>
	<rect x="629" y="59" class="st3" width="1" height="40"/>
	<rect x="630" y="59" class="st0" width="75" height="40"/>
	<rect x="630" y="59" class="st3" width="75" height="1"/>
	<path class="st1" d="M657.8,73.9V84h-1.3v-7.2c0-0.1,0-0.2,0-0.3c0-0.1,0-0.2,0-0.4l-3.3,6.1c-0.1,0.2-0.3,0.3-0.5,0.3h-0.2
		c-0.2,0-0.4-0.1-0.5-0.3l-3.4-6.2c0,0.3,0,0.5,0,0.7V84h-1.3V73.9h1.1c0.1,0,0.2,0,0.3,0c0.1,0,0.1,0.1,0.2,0.2l3.4,6
		c0.1,0.1,0.1,0.2,0.2,0.4c0.1,0.1,0.1,0.3,0.2,0.4c0.1-0.3,0.2-0.5,0.3-0.8l3.3-6c0.1-0.1,0.1-0.2,0.2-0.2c0.1,0,0.2,0,0.3,0H657.8
		z M661.3,76.9V84H660v-7.1H661.3z M661.6,74.7c0,0.1,0,0.2-0.1,0.4c-0.1,0.1-0.1,0.2-0.2,0.3c-0.1,0.1-0.2,0.2-0.3,0.2
		c-0.1,0-0.2,0.1-0.4,0.1c-0.1,0-0.2,0-0.4-0.1c-0.1-0.1-0.2-0.1-0.3-0.2c-0.1-0.1-0.2-0.2-0.2-0.3c0-0.1-0.1-0.2-0.1-0.4
		c0-0.1,0-0.3,0.1-0.4c0.1-0.1,0.1-0.2,0.2-0.3c0.1-0.1,0.2-0.2,0.3-0.2c0.1-0.1,0.2-0.1,0.4-0.1c0.1,0,0.2,0,0.4,0.1
		c0.1,0,0.2,0.1,0.3,0.2c0.1,0.1,0.2,0.2,0.2,0.3C661.6,74.4,661.6,74.6,661.6,74.7z M667.9,78.6c-0.2-0.3-0.5-0.5-0.7-0.6
		c-0.3-0.1-0.5-0.2-0.9-0.2c-0.6,0-1.1,0.2-1.5,0.7c-0.3,0.4-0.5,1.1-0.5,2c0,0.5,0,0.8,0.1,1.2c0.1,0.3,0.2,0.6,0.3,0.8
		c0.1,0.2,0.3,0.3,0.5,0.4c0.2,0.1,0.5,0.1,0.7,0.1c0.4,0,0.7-0.1,1-0.3c0.3-0.2,0.6-0.4,0.8-0.7V78.6z M669.3,73.7V84h-0.8
		c-0.2,0-0.3-0.1-0.4-0.3l-0.1-0.8c-0.3,0.4-0.6,0.6-1,0.9c-0.4,0.2-0.8,0.3-1.3,0.3c-0.4,0-0.8-0.1-1.1-0.2
		c-0.3-0.2-0.6-0.4-0.8-0.7c-0.2-0.3-0.4-0.7-0.5-1.1c-0.1-0.5-0.2-1-0.2-1.6c0-0.5,0.1-1,0.2-1.5c0.1-0.5,0.3-0.8,0.6-1.2
		s0.6-0.6,1-0.8c0.4-0.2,0.8-0.3,1.3-0.3c0.4,0,0.8,0.1,1.1,0.2c0.3,0.1,0.6,0.3,0.8,0.6v-3.9H669.3z M675.8,78.6
		c-0.2-0.3-0.5-0.5-0.7-0.6c-0.3-0.1-0.5-0.2-0.9-0.2c-0.6,0-1.1,0.2-1.5,0.7c-0.3,0.4-0.5,1.1-0.5,2c0,0.5,0,0.8,0.1,1.2
		c0.1,0.3,0.2,0.6,0.3,0.8c0.1,0.2,0.3,0.3,0.5,0.4c0.2,0.1,0.5,0.1,0.7,0.1c0.4,0,0.7-0.1,1-0.3s0.6-0.4,0.8-0.7V78.6z M677.1,73.7
		V84h-0.8c-0.2,0-0.3-0.1-0.4-0.3l-0.1-0.8c-0.3,0.4-0.6,0.6-1,0.9c-0.4,0.2-0.8,0.3-1.3,0.3c-0.4,0-0.8-0.1-1.1-0.2
		c-0.3-0.2-0.6-0.4-0.8-0.7c-0.2-0.3-0.4-0.7-0.5-1.1c-0.1-0.5-0.2-1-0.2-1.6c0-0.5,0.1-1,0.2-1.5c0.1-0.5,0.3-0.8,0.6-1.2
		s0.6-0.6,1-0.8c0.4-0.2,0.8-0.3,1.3-0.3c0.4,0,0.8,0.1,1.1,0.2c0.3,0.1,0.6,0.3,0.8,0.6v-3.9H677.1z M680.4,73.7V84h-1.4V73.7
		H680.4z M687.1,79.7c0-0.3,0-0.5-0.1-0.7c-0.1-0.2-0.2-0.4-0.3-0.6c-0.1-0.2-0.3-0.3-0.5-0.4c-0.2-0.1-0.5-0.1-0.7-0.1
		c-0.6,0-1,0.2-1.4,0.5c-0.3,0.3-0.5,0.8-0.6,1.4H687.1z M688.2,83c-0.2,0.2-0.4,0.4-0.6,0.5c-0.2,0.1-0.5,0.3-0.7,0.3
		c-0.2,0.1-0.5,0.2-0.8,0.2c-0.3,0-0.5,0.1-0.8,0.1c-0.5,0-0.9-0.1-1.4-0.2c-0.4-0.2-0.8-0.4-1.1-0.7c-0.3-0.3-0.5-0.7-0.7-1.2
		c-0.2-0.5-0.3-1-0.3-1.6c0-0.5,0.1-1,0.2-1.4c0.2-0.4,0.4-0.8,0.7-1.1c0.3-0.3,0.6-0.6,1.1-0.7c0.4-0.2,0.9-0.3,1.4-0.3
		c0.4,0,0.8,0.1,1.2,0.2c0.4,0.1,0.7,0.3,1,0.6s0.5,0.6,0.6,1c0.2,0.4,0.2,0.8,0.2,1.4c0,0.2,0,0.4-0.1,0.4c0,0.1-0.1,0.1-0.3,0.1
		h-4.7c0,0.4,0.1,0.8,0.2,1.1c0.1,0.3,0.3,0.6,0.4,0.8c0.2,0.2,0.4,0.4,0.7,0.5c0.3,0.1,0.6,0.2,0.9,0.2c0.3,0,0.6,0,0.8-0.1
		c0.2-0.1,0.4-0.1,0.6-0.2c0.2-0.1,0.3-0.2,0.4-0.2c0.1-0.1,0.2-0.1,0.3-0.1c0.1,0,0.2,0,0.3,0.1L688.2,83z"/>
	<rect x="630" y="98" class="st3" width="75" height="1"/>
	<rect x="705" y="59" class="st3" width="1" height="40"/>
	<rect x="706" y="59" class="st0" width="75" height="40"/>
	<rect x="706" y="59" class="st3" width="75" height="1"/>
	<path class="st1" d="M733.8,73.9V84h-1.3v-7.2c0-0.1,0-0.2,0-0.3c0-0.1,0-0.2,0-0.4l-3.3,6.1c-0.1,0.2-0.3,0.3-0.5,0.3h-0.2
		c-0.2,0-0.4-0.1-0.5-0.3l-3.4-6.2c0,0.3,0,0.5,0,0.7V84h-1.3V73.9h1.1c0.1,0,0.2,0,0.3,0c0.1,0,0.1,0.1,0.2,0.2l3.4,6
		c0.1,0.1,0.1,0.2,0.2,0.4c0.1,0.1,0.1,0.3,0.2,0.4c0.1-0.3,0.2-0.5,0.3-0.8l3.3-6c0.1-0.1,0.1-0.2,0.2-0.2c0.1,0,0.2,0,0.3,0H733.8
		z M737.3,76.9V84H736v-7.1H737.3z M737.6,74.7c0,0.1,0,0.2-0.1,0.4c-0.1,0.1-0.1,0.2-0.2,0.3c-0.1,0.1-0.2,0.2-0.3,0.2
		c-0.1,0-0.2,0.1-0.4,0.1c-0.1,0-0.2,0-0.4-0.1c-0.1-0.1-0.2-0.1-0.3-0.2c-0.1-0.1-0.2-0.2-0.2-0.3c0-0.1-0.1-0.2-0.1-0.4
		c0-0.1,0-0.3,0.1-0.4c0.1-0.1,0.1-0.2,0.2-0.3c0.1-0.1,0.2-0.2,0.3-0.2c0.1-0.1,0.2-0.1,0.4-0.1c0.1,0,0.2,0,0.4,0.1
		c0.1,0,0.2,0.1,0.3,0.2c0.1,0.1,0.2,0.2,0.2,0.3C737.6,74.4,737.6,74.6,737.6,74.7z M743.9,78.6c-0.2-0.3-0.5-0.5-0.7-0.6
		c-0.3-0.1-0.5-0.2-0.9-0.2c-0.6,0-1.1,0.2-1.5,0.7c-0.3,0.4-0.5,1.1-0.5,2c0,0.5,0,0.8,0.1,1.2c0.1,0.3,0.2,0.6,0.3,0.8
		c0.1,0.2,0.3,0.3,0.5,0.4c0.2,0.1,0.5,0.1,0.7,0.1c0.4,0,0.7-0.1,1-0.3c0.3-0.2,0.6-0.4,0.8-0.7V78.6z M745.3,73.7V84h-0.8
		c-0.2,0-0.3-0.1-0.4-0.3l-0.1-0.8c-0.3,0.4-0.6,0.6-1,0.9c-0.4,0.2-0.8,0.3-1.3,0.3c-0.4,0-0.8-0.1-1.1-0.2
		c-0.3-0.2-0.6-0.4-0.8-0.7c-0.2-0.3-0.4-0.7-0.5-1.1c-0.1-0.5-0.2-1-0.2-1.6c0-0.5,0.1-1,0.2-1.5c0.1-0.5,0.3-0.8,0.6-1.2
		s0.6-0.6,1-0.8c0.4-0.2,0.8-0.3,1.3-0.3c0.4,0,0.8,0.1,1.1,0.2c0.3,0.1,0.6,0.3,0.8,0.6v-3.9H745.3z M751.8,78.6
		c-0.2-0.3-0.5-0.5-0.7-0.6c-0.3-0.1-0.5-0.2-0.9-0.2c-0.6,0-1.1,0.2-1.5,0.7c-0.3,0.4-0.5,1.1-0.5,2c0,0.5,0,0.8,0.1,1.2
		c0.1,0.3,0.2,0.6,0.3,0.8c0.1,0.2,0.3,0.3,0.5,0.4c0.2,0.1,0.5,0.1,0.7,0.1c0.4,0,0.7-0.1,1-0.3s0.6-0.4,0.8-0.7V78.6z M753.1,73.7
		V84h-0.8c-0.2,0-0.3-0.1-0.4-0.3l-0.1-0.8c-0.3,0.4-0.6,0.6-1,0.9c-0.4,0.2-0.8,0.3-1.3,0.3c-0.4,0-0.8-0.1-1.1-0.2
		c-0.3-0.2-0.6-0.4-0.8-0.7c-0.2-0.3-0.4-0.7-0.5-1.1c-0.1-0.5-0.2-1-0.2-1.6c0-0.5,0.1-1,0.2-1.5c0.1-0.5,0.3-0.8,0.6-1.2
		s0.6-0.6,1-0.8c0.4-0.2,0.8-0.3,1.3-0.3c0.4,0,0.8,0.1,1.1,0.2c0.3,0.1,0.6,0.3,0.8,0.6v-3.9H753.1z M756.4,73.7V84h-1.4V73.7
		H756.4z M763.1,79.7c0-0.3,0-0.5-0.1-0.7c-0.1-0.2-0.2-0.4-0.3-0.6c-0.1-0.2-0.3-0.3-0.5-0.4c-0.2-0.1-0.5-0.1-0.7-0.1
		c-0.6,0-1,0.2-1.4,0.5c-0.3,0.3-0.5,0.8-0.6,1.4H763.1z M764.2,83c-0.2,0.2-0.4,0.4-0.6,0.5c-0.2,0.1-0.5,0.3-0.7,0.3
		c-0.2,0.1-0.5,0.2-0.8,0.2c-0.3,0-0.5,0.1-0.8,0.1c-0.5,0-0.9-0.1-1.4-0.2c-0.4-0.2-0.8-0.4-1.1-0.7c-0.3-0.3-0.5-0.7-0.7-1.2
		c-0.2-0.5-0.3-1-0.3-1.6c0-0.5,0.1-1,0.2-1.4c0.2-0.4,0.4-0.8,0.7-1.1c0.3-0.3,0.6-0.6,1.1-0.7c0.4-0.2,0.9-0.3,1.4-0.3
		c0.4,0,0.8,0.1,1.2,0.2c0.4,0.1,0.7,0.3,1,0.6s0.5,0.6,0.6,1c0.2,0.4,0.2,0.8,0.2,1.4c0,0.2,0,0.4-0.1,0.4c0,0.1-0.1,0.1-0.3,0.1
		h-4.7c0,0.4,0.1,0.8,0.2,1.1c0.1,0.3,0.3,0.6,0.4,0.8c0.2,0.2,0.4,0.4,0.7,0.5c0.3,0.1,0.6,0.2,0.9,0.2c0.3,0,0.6,0,0.8-0.1
		c0.2-0.1,0.4-0.1,0.6-0.2c0.2-0.1,0.3-0.2,0.4-0.2c0.1-0.1,0.2-0.1,0.3-0.1c0.1,0,0.2,0,0.3,0.1L764.2,83z"/>
	<rect x="706" y="98" class="st3" width="75" height="1"/>
	<rect x="781" y="59" class="st3" width="1" height="40"/>
	<rect x="782" y="59" class="st0" width="75" height="40"/>
	<rect x="782" y="59" class="st3" width="75" height="1"/>
	<path class="st1" d="M809.8,73.9V84h-1.3v-7.2c0-0.1,0-0.2,0-0.3c0-0.1,0-0.2,0-0.4l-3.3,6.1c-0.1,0.2-0.3,0.3-0.5,0.3h-0.2
		c-0.2,0-0.4-0.1-0.5-0.3l-3.4-6.2c0,0.3,0,0.5,0,0.7V84h-1.3V73.9h1.1c0.1,0,0.2,0,0.3,0c0.1,0,0.1,0.1,0.2,0.2l3.4,6
		c0.1,0.1,0.1,0.2,0.2,0.4c0.1,0.1,0.1,0.3,0.2,0.4c0.1-0.3,0.2-0.5,0.3-0.8l3.3-6c0.1-0.1,0.1-0.2,0.2-0.2c0.1,0,0.2,0,0.3,0H809.8
		z M813.3,76.9V84H812v-7.1H813.3z M813.6,74.7c0,0.1,0,0.2-0.1,0.4c-0.1,0.1-0.1,0.2-0.2,0.3c-0.1,0.1-0.2,0.2-0.3,0.2
		c-0.1,0-0.2,0.1-0.4,0.1c-0.1,0-0.2,0-0.4-0.1c-0.1-0.1-0.2-0.1-0.3-0.2c-0.1-0.1-0.2-0.2-0.2-0.3c0-0.1-0.1-0.2-0.1-0.4
		c0-0.1,0-0.3,0.1-0.4c0.1-0.1,0.1-0.2,0.2-0.3c0.1-0.1,0.2-0.2,0.3-0.2c0.1-0.1,0.2-0.1,0.4-0.1c0.1,0,0.2,0,0.4,0.1
		c0.1,0,0.2,0.1,0.3,0.2c0.1,0.1,0.2,0.2,0.2,0.3C813.6,74.4,813.6,74.6,813.6,74.7z M819.9,78.6c-0.2-0.3-0.5-0.5-0.7-0.6
		c-0.3-0.1-0.5-0.2-0.9-0.2c-0.6,0-1.1,0.2-1.5,0.7c-0.3,0.4-0.5,1.1-0.5,2c0,0.5,0,0.8,0.1,1.2c0.1,0.3,0.2,0.6,0.3,0.8
		c0.1,0.2,0.3,0.3,0.5,0.4c0.2,0.1,0.5,0.1,0.7,0.1c0.4,0,0.7-0.1,1-0.3c0.3-0.2,0.6-0.4,0.8-0.7V78.6z M821.3,73.7V84h-0.8
		c-0.2,0-0.3-0.1-0.4-0.3l-0.1-0.8c-0.3,0.4-0.6,0.6-1,0.9c-0.4,0.2-0.8,0.3-1.3,0.3c-0.4,0-0.8-0.1-1.1-0.2
		c-0.3-0.2-0.6-0.4-0.8-0.7c-0.2-0.3-0.4-0.7-0.5-1.1c-0.1-0.5-0.2-1-0.2-1.6c0-0.5,0.1-1,0.2-1.5c0.1-0.5,0.3-0.8,0.6-1.2
		s0.6-0.6,1-0.8c0.4-0.2,0.8-0.3,1.3-0.3c0.4,0,0.8,0.1,1.1,0.2c0.3,0.1,0.6,0.3,0.8,0.6v-3.9H821.3z M827.8,78.6
		c-0.2-0.3-0.5-0.5-0.7-0.6c-0.3-0.1-0.5-0.2-0.9-0.2c-0.6,0-1.1,0.2-1.5,0.7c-0.3,0.4-0.5,1.1-0.5,2c0,0.5,0,0.8,0.1,1.2
		c0.1,0.3,0.2,0.6,0.3,0.8c0.1,0.2,0.3,0.3,0.5,0.4c0.2,0.1,0.5,0.1,0.7,0.1c0.4,0,0.7-0.1,1-0.3s0.6-0.4,0.8-0.7V78.6z M829.1,73.7
		V84h-0.8c-0.2,0-0.3-0.1-0.4-0.3l-0.1-0.8c-0.3,0.4-0.6,0.6-1,0.9c-0.4,0.2-0.8,0.3-1.3,0.3c-0.4,0-0.8-0.1-1.1-0.2
		c-0.3-0.2-0.6-0.4-0.8-0.7c-0.2-0.3-0.4-0.7-0.5-1.1c-0.1-0.5-0.2-1-0.2-1.6c0-0.5,0.1-1,0.2-1.5c0.1-0.5,0.3-0.8,0.6-1.2
		s0.6-0.6,1-0.8c0.4-0.2,0.8-0.3,1.3-0.3c0.4,0,0.8,0.1,1.1,0.2c0.3,0.1,0.6,0.3,0.8,0.6v-3.9H829.1z M832.4,73.7V84h-1.4V73.7
		H832.4z M839.1,79.7c0-0.3,0-0.5-0.1-0.7c-0.1-0.2-0.2-0.4-0.3-0.6c-0.1-0.2-0.3-0.3-0.5-0.4c-0.2-0.1-0.5-0.1-0.7-0.1
		c-0.6,0-1,0.2-1.4,0.5c-0.3,0.3-0.5,0.8-0.6,1.4H839.1z M840.2,83c-0.2,0.2-0.4,0.4-0.6,0.5c-0.2,0.1-0.5,0.3-0.7,0.3
		c-0.2,0.1-0.5,0.2-0.8,0.2c-0.3,0-0.5,0.1-0.8,0.1c-0.5,0-0.9-0.1-1.4-0.2c-0.4-0.2-0.8-0.4-1.1-0.7c-0.3-0.3-0.5-0.7-0.7-1.2
		c-0.2-0.5-0.3-1-0.3-1.6c0-0.5,0.1-1,0.2-1.4c0.2-0.4,0.4-0.8,0.7-1.1c0.3-0.3,0.6-0.6,1.1-0.7c0.4-0.2,0.9-0.3,1.4-0.3
		c0.4,0,0.8,0.1,1.2,0.2c0.4,0.1,0.7,0.3,1,0.6s0.5,0.6,0.6,1c0.2,0.4,0.2,0.8,0.2,1.4c0,0.2,0,0.4-0.1,0.4c0,0.1-0.1,0.1-0.3,0.1
		h-4.7c0,0.4,0.1,0.8,0.2,1.1c0.1,0.3,0.3,0.6,0.4,0.8c0.2,0.2,0.4,0.4,0.7,0.5c0.3,0.1,0.6,0.2,0.9,0.2c0.3,0,0.6,0,0.8-0.1
		c0.2-0.1,0.4-0.1,0.6-0.2c0.2-0.1,0.3-0.2,0.4-0.2c0.1-0.1,0.2-0.1,0.3-0.1c0.1,0,0.2,0,0.3,0.1L840.2,83z"/>
	<rect x="782" y="98" class="st3" width="75" height="1"/>
	<path class="st0" d="M857.5,59.5H926c4.1,0,7.5,3.4,7.5,7.5v24c0,4.1-3.4,7.5-7.5,7.5h-68.5V59.5z"/>
	<path class="st1" d="M881.1,75.2h-3.2V84h-1.5v-8.8h-3.2v-1.2h7.9V75.2z M882,78.3c0.2-0.5,0.5-0.8,0.8-1.1
		c0.3-0.3,0.7-0.4,1.2-0.4c0.2,0,0.3,0,0.4,0.1c0.1,0,0.3,0.1,0.4,0.2l-0.1,1c0,0.1-0.1,0.2-0.2,0.2c-0.1,0-0.2,0-0.3,0
		c-0.1,0-0.3,0-0.4,0c-0.2,0-0.4,0-0.6,0.1c-0.2,0.1-0.3,0.2-0.5,0.3c-0.1,0.1-0.2,0.3-0.3,0.5c-0.1,0.2-0.2,0.4-0.3,0.6V84h-1.4
		v-7.1h0.8c0.1,0,0.2,0,0.3,0.1c0.1,0.1,0.1,0.1,0.1,0.3L882,78.3z M889.6,80.8c-0.6,0-1,0.1-1.4,0.1c-0.4,0.1-0.7,0.2-0.9,0.3
		c-0.2,0.1-0.4,0.2-0.5,0.4c-0.1,0.1-0.2,0.3-0.2,0.5c0,0.2,0,0.3,0.1,0.5c0.1,0.1,0.1,0.2,0.2,0.3c0.1,0.1,0.2,0.1,0.4,0.2
		c0.1,0,0.3,0.1,0.4,0.1c0.2,0,0.4,0,0.6-0.1c0.2,0,0.3-0.1,0.5-0.2c0.2-0.1,0.3-0.2,0.4-0.3c0.1-0.1,0.3-0.2,0.4-0.4V80.8z
		 M885.6,77.9c0.4-0.4,0.8-0.7,1.3-0.8c0.5-0.2,1-0.3,1.5-0.3c0.4,0,0.8,0.1,1.1,0.2c0.3,0.1,0.6,0.3,0.8,0.6
		c0.2,0.2,0.4,0.5,0.5,0.9c0.1,0.3,0.2,0.7,0.2,1.1V84h-0.6c-0.1,0-0.2,0-0.3-0.1c-0.1,0-0.1-0.1-0.2-0.3l-0.1-0.6
		c-0.2,0.2-0.4,0.3-0.5,0.4c-0.2,0.1-0.4,0.2-0.6,0.3c-0.2,0.1-0.4,0.2-0.6,0.2c-0.2,0-0.5,0.1-0.7,0.1c-0.3,0-0.5,0-0.8-0.1
		c-0.2-0.1-0.5-0.2-0.6-0.4s-0.3-0.4-0.4-0.6c-0.1-0.2-0.2-0.5-0.2-0.8c0-0.3,0.1-0.5,0.2-0.8c0.2-0.3,0.4-0.5,0.7-0.7
		c0.3-0.2,0.8-0.4,1.3-0.5c0.6-0.1,1.2-0.2,2-0.2v-0.5c0-0.5-0.1-0.9-0.3-1.2c-0.2-0.3-0.6-0.4-1-0.4c-0.3,0-0.6,0-0.8,0.1
		c-0.2,0.1-0.4,0.2-0.5,0.3c-0.1,0.1-0.3,0.2-0.4,0.2c-0.1,0.1-0.2,0.1-0.3,0.1c-0.1,0-0.2,0-0.2-0.1c-0.1-0.1-0.1-0.1-0.2-0.2
		L885.6,77.9z M894.2,76.9V84h-1.4v-7.1H894.2z M894.4,74.7c0,0.1,0,0.2-0.1,0.4c-0.1,0.1-0.1,0.2-0.2,0.3c-0.1,0.1-0.2,0.2-0.3,0.2
		c-0.1,0-0.2,0.1-0.4,0.1c-0.1,0-0.2,0-0.4-0.1c-0.1-0.1-0.2-0.1-0.3-0.2c-0.1-0.1-0.2-0.2-0.2-0.3c0-0.1-0.1-0.2-0.1-0.4
		c0-0.1,0-0.3,0.1-0.4c0.1-0.1,0.1-0.2,0.2-0.3c0.1-0.1,0.2-0.2,0.3-0.2c0.1-0.1,0.2-0.1,0.4-0.1c0.1,0,0.2,0,0.4,0.1
		c0.1,0,0.2,0.1,0.3,0.2c0.1,0.1,0.2,0.2,0.2,0.3C894.4,74.4,894.4,74.6,894.4,74.7z M897.6,73.7V84h-1.4V73.7H897.6z M900.9,76.9
		V84h-1.4v-7.1H900.9z M901.2,74.7c0,0.1,0,0.2-0.1,0.4c-0.1,0.1-0.1,0.2-0.2,0.3c-0.1,0.1-0.2,0.2-0.3,0.2c-0.1,0-0.2,0.1-0.4,0.1
		c-0.1,0-0.2,0-0.4-0.1c-0.1-0.1-0.2-0.1-0.3-0.2c-0.1-0.1-0.2-0.2-0.2-0.3c0-0.1-0.1-0.2-0.1-0.4c0-0.1,0-0.3,0.1-0.4
		c0.1-0.1,0.1-0.2,0.2-0.3c0.1-0.1,0.2-0.2,0.3-0.2c0.1-0.1,0.2-0.1,0.4-0.1c0.1,0,0.2,0,0.4,0.1c0.1,0,0.2,0.1,0.3,0.2
		c0.1,0.1,0.2,0.2,0.2,0.3C901.2,74.4,901.2,74.6,901.2,74.7z M904.2,77.9c0.2-0.2,0.3-0.3,0.5-0.4c0.2-0.1,0.3-0.2,0.5-0.3
		c0.2-0.1,0.4-0.2,0.6-0.2c0.2-0.1,0.5-0.1,0.7-0.1c0.4,0,0.7,0.1,1,0.2c0.3,0.1,0.5,0.3,0.7,0.6c0.2,0.2,0.4,0.5,0.5,0.8
		c0.1,0.3,0.2,0.7,0.2,1.1V84h-1.4v-4.5c0-0.5-0.1-0.9-0.4-1.2c-0.2-0.3-0.6-0.4-1.1-0.4c-0.3,0-0.7,0.1-1,0.3
		c-0.3,0.2-0.6,0.4-0.8,0.7V84h-1.4v-7.1h0.8c0.2,0,0.3,0.1,0.4,0.3L904.2,77.9z M913.2,80.5c0.2,0,0.5,0,0.6-0.1
		c0.2-0.1,0.3-0.2,0.5-0.3c0.1-0.1,0.2-0.3,0.3-0.4c0.1-0.2,0.1-0.4,0.1-0.6c0-0.4-0.1-0.7-0.4-1c-0.2-0.2-0.6-0.4-1.1-0.4
		c-0.5,0-0.8,0.1-1.1,0.4c-0.2,0.2-0.4,0.6-0.4,1c0,0.2,0,0.4,0.1,0.6c0.1,0.2,0.2,0.3,0.3,0.4c0.1,0.1,0.3,0.2,0.5,0.3
		C912.8,80.4,913,80.5,913.2,80.5z M915.4,84.4c0-0.2,0-0.3-0.1-0.4c-0.1-0.1-0.2-0.2-0.4-0.2c-0.2-0.1-0.3-0.1-0.6-0.1
		c-0.2,0-0.4,0-0.7-0.1c-0.2,0-0.5,0-0.7,0c-0.2,0-0.5,0-0.7-0.1c-0.2,0.1-0.4,0.3-0.6,0.4c-0.2,0.2-0.2,0.4-0.2,0.6
		c0,0.1,0,0.3,0.1,0.4c0.1,0.1,0.2,0.2,0.4,0.3c0.2,0.1,0.4,0.2,0.6,0.2c0.2,0.1,0.5,0.1,0.9,0.1c0.3,0,0.6,0,0.9-0.1
		c0.3-0.1,0.5-0.1,0.6-0.2c0.2-0.1,0.3-0.2,0.4-0.4C915.4,84.7,915.4,84.5,915.4,84.4z M916.8,77.2v0.5c0,0.2-0.1,0.3-0.3,0.3
		l-0.8,0.1c0.1,0.1,0.1,0.3,0.2,0.5c0,0.2,0.1,0.3,0.1,0.5c0,0.3-0.1,0.7-0.2,1c-0.1,0.3-0.3,0.5-0.6,0.7c-0.2,0.2-0.5,0.4-0.9,0.5
		c-0.3,0.1-0.7,0.2-1.1,0.2c-0.3,0-0.6,0-0.9-0.1c-0.1,0.1-0.2,0.2-0.3,0.3c-0.1,0.1-0.1,0.2-0.1,0.3c0,0.2,0.1,0.3,0.2,0.4
		c0.1,0.1,0.3,0.1,0.5,0.2c0.2,0,0.5,0.1,0.8,0.1c0.3,0,0.6,0,0.9,0c0.3,0,0.6,0.1,0.9,0.1c0.3,0.1,0.5,0.1,0.8,0.3
		c0.2,0.1,0.4,0.3,0.5,0.5c0.1,0.2,0.2,0.5,0.2,0.8c0,0.3-0.1,0.6-0.2,0.9c-0.1,0.3-0.4,0.5-0.7,0.8s-0.6,0.4-1.1,0.5
		c-0.4,0.1-0.9,0.2-1.4,0.2c-0.5,0-1-0.1-1.4-0.2c-0.4-0.1-0.7-0.2-1-0.4c-0.3-0.2-0.5-0.4-0.6-0.6c-0.1-0.2-0.2-0.5-0.2-0.7
		c0-0.3,0.1-0.6,0.3-0.9c0.2-0.2,0.5-0.4,0.9-0.6c-0.2-0.1-0.4-0.2-0.5-0.4c-0.1-0.2-0.2-0.4-0.2-0.6c0-0.1,0-0.2,0.1-0.3
		c0-0.1,0.1-0.2,0.2-0.3c0.1-0.1,0.2-0.2,0.3-0.3c0.1-0.1,0.2-0.2,0.4-0.3c-0.4-0.2-0.6-0.5-0.8-0.8c-0.2-0.3-0.3-0.7-0.3-1.1
		c0-0.3,0.1-0.7,0.2-0.9s0.3-0.5,0.6-0.7c0.2-0.2,0.5-0.4,0.9-0.5c0.3-0.1,0.7-0.2,1.1-0.2c0.6,0,1.1,0.1,1.6,0.4H916.8z"/>
	<path class="st2" d="M857.5,59.5H926c4.1,0,7.5,3.4,7.5,7.5v24c0,4.1-3.4,7.5-7.5,7.5h-68.5V59.5z"/>
</g>
<g>
	<path class="st0" d="M2.5,9c0-4.1,3.4-7.5,7.5-7.5h91.5v39H10c-4.1,0-7.5-3.4-7.5-7.5V9z"/>
	<g>
		<defs>
			<rect id="SVGID_1_" x="18" y="11" width="20" height="20"/>
		</defs>
		<clipPath id="SVGID_00000056387411273888275840000004934917236384378249_">
			<use xlink:href="#SVGID_1_"  style="overflow:visible;"/>
		</clipPath>
		<g style="clip-path:url(#SVGID_00000056387411273888275840000004934917236384378249_);">
			<path class="st5" d="M28,29.3c4.6,0,8.3-3.7,8.3-8.3c0-4.6-3.7-8.3-8.3-8.3s-8.3,3.7-8.3,8.3C19.7,25.6,23.4,29.3,28,29.3z"/>
		</g>
	</g>
	<path class="st1" d="M52.6,22.3l-1.5-3.9c-0.1-0.3-0.2-0.6-0.3-1c-0.1,0.2-0.1,0.4-0.2,0.6c-0.1,0.2-0.1,0.3-0.2,0.5L49,22.3H52.6z
		 M55.5,26h-1.1c-0.1,0-0.2,0-0.3-0.1s-0.1-0.1-0.2-0.3L53,23.3h-4.4l-0.9,2.3c0,0.1-0.1,0.2-0.2,0.2C47.4,26,47.3,26,47.2,26H46
		l4-10.1h1.5L55.5,26z M61.3,20.2c0,0.1-0.1,0.1-0.1,0.1c0,0-0.1,0-0.2,0c-0.1,0-0.2,0-0.2-0.1c-0.1-0.1-0.2-0.1-0.3-0.2
		C60.3,20,60.2,20,60,19.9c-0.2-0.1-0.4-0.1-0.6-0.1c-0.3,0-0.6,0.1-0.9,0.2c-0.3,0.1-0.5,0.3-0.6,0.5c-0.2,0.2-0.3,0.5-0.4,0.8
		c-0.1,0.3-0.1,0.7-0.1,1.1c0,0.4,0,0.8,0.1,1.1c0.1,0.3,0.2,0.6,0.4,0.8c0.2,0.2,0.4,0.4,0.6,0.5C58.7,25,59,25,59.3,25
		c0.3,0,0.5,0,0.7-0.1c0.2-0.1,0.4-0.2,0.5-0.2s0.2-0.2,0.3-0.2c0.1-0.1,0.2-0.1,0.3-0.1c0.1,0,0.2,0,0.3,0.1l0.4,0.5
		c-0.2,0.2-0.3,0.4-0.6,0.5c-0.2,0.1-0.4,0.3-0.6,0.3c-0.2,0.1-0.5,0.2-0.7,0.2c-0.2,0-0.5,0.1-0.8,0.1c-0.4,0-0.9-0.1-1.2-0.2
		c-0.4-0.2-0.7-0.4-1-0.7c-0.3-0.3-0.5-0.7-0.7-1.1c-0.2-0.5-0.2-1-0.2-1.6c0-0.5,0.1-1,0.2-1.5c0.1-0.4,0.4-0.8,0.7-1.2
		c0.3-0.3,0.6-0.6,1.1-0.8c0.4-0.2,0.9-0.3,1.4-0.3c0.5,0,1,0.1,1.3,0.2c0.4,0.2,0.7,0.4,1,0.7L61.3,20.2z M69.8,26h-1.4v-6h-3.6
		v4.2c0,0.3,0.1,0.5,0.2,0.6c0.1,0.1,0.3,0.2,0.5,0.2c0.1,0,0.2,0,0.3,0c0.1,0,0.2-0.1,0.2-0.1c0.1,0,0.1-0.1,0.2-0.1
		c0,0,0.1,0,0.1,0c0,0,0.1,0,0.1,0c0,0,0.1,0.1,0.1,0.1l0.4,0.7c-0.2,0.2-0.5,0.4-0.8,0.5s-0.6,0.2-1,0.2c-0.6,0-1-0.2-1.3-0.5
		c-0.3-0.3-0.5-0.8-0.5-1.4V20h-0.8c-0.1,0-0.1,0-0.2-0.1c-0.1-0.1-0.1-0.1-0.1-0.2v-0.6l1.2-0.2l0.3-2.1c0-0.1,0.1-0.1,0.1-0.2
		c0.1,0,0.1-0.1,0.2-0.1h0.7V19h4.9V26z M70.1,16.6c0,0.1,0,0.2-0.1,0.4c-0.1,0.1-0.1,0.2-0.2,0.3c-0.1,0.1-0.2,0.2-0.3,0.2
		c-0.1,0-0.2,0.1-0.4,0.1c-0.1,0-0.2,0-0.4-0.1c-0.1-0.1-0.2-0.1-0.3-0.2c-0.1-0.1-0.2-0.2-0.2-0.3c0-0.1-0.1-0.2-0.1-0.4
		c0-0.1,0-0.3,0.1-0.4c0.1-0.1,0.1-0.2,0.2-0.3c0.1-0.1,0.2-0.2,0.3-0.2c0.1-0.1,0.2-0.1,0.4-0.1c0.1,0,0.2,0,0.4,0.1
		c0.1,0,0.2,0.1,0.3,0.2c0.1,0.1,0.2,0.2,0.2,0.3C70,16.4,70.1,16.5,70.1,16.6z M77.9,18.9L75,26h-1.2l-2.9-7.1H72
		c0.1,0,0.2,0,0.3,0.1s0.1,0.1,0.1,0.2l1.7,4.4c0.1,0.2,0.1,0.4,0.2,0.5c0,0.2,0.1,0.4,0.1,0.5c0-0.2,0.1-0.4,0.1-0.5
		c0-0.2,0.1-0.4,0.2-0.5l1.7-4.4c0-0.1,0.1-0.1,0.1-0.2s0.2-0.1,0.3-0.1H77.9z M83.5,21.7c0-0.3,0-0.5-0.1-0.7
		c-0.1-0.2-0.2-0.4-0.3-0.6c-0.1-0.2-0.3-0.3-0.5-0.4c-0.2-0.1-0.5-0.1-0.7-0.1c-0.6,0-1,0.2-1.4,0.5c-0.3,0.3-0.5,0.8-0.6,1.4H83.5
		z M84.6,25c-0.2,0.2-0.4,0.4-0.6,0.5c-0.2,0.1-0.5,0.3-0.7,0.3c-0.2,0.1-0.5,0.2-0.8,0.2c-0.3,0-0.5,0.1-0.8,0.1
		c-0.5,0-0.9-0.1-1.4-0.2c-0.4-0.2-0.8-0.4-1.1-0.7c-0.3-0.3-0.5-0.7-0.7-1.2c-0.2-0.5-0.3-1-0.3-1.6c0-0.5,0.1-1,0.2-1.4
		c0.2-0.4,0.4-0.8,0.7-1.1c0.3-0.3,0.6-0.6,1.1-0.7c0.4-0.2,0.9-0.3,1.4-0.3c0.4,0,0.8,0.1,1.2,0.2c0.4,0.1,0.7,0.3,1,0.6
		c0.3,0.3,0.5,0.6,0.6,1c0.2,0.4,0.2,0.8,0.2,1.4c0,0.2,0,0.4-0.1,0.4c0,0.1-0.1,0.1-0.3,0.1h-4.7c0,0.4,0.1,0.8,0.2,1.1
		c0.1,0.3,0.3,0.6,0.4,0.8c0.2,0.2,0.4,0.4,0.7,0.5c0.3,0.1,0.6,0.2,0.9,0.2c0.3,0,0.6,0,0.8-0.1c0.2-0.1,0.4-0.1,0.6-0.2
		c0.2-0.1,0.3-0.2,0.4-0.2c0.1-0.1,0.2-0.1,0.3-0.1c0.1,0,0.2,0,0.3,0.1L84.6,25z"/>
	<path class="st2" d="M2.5,9c0-4.1,3.4-7.5,7.5-7.5h91.5v39H10c-4.1,0-7.5-3.4-7.5-7.5V9z"/>
	<rect x="102" y="1" class="st0" width="103" height="40"/>
	<rect x="102" y="1" class="st3" width="103" height="1"/>
	<g>
		<defs>
			<rect id="SVGID_00000136392851405034217170000013660647679939584917_" x="118" y="11" width="20" height="20"/>
		</defs>
		<clipPath id="SVGID_00000007410063591690374380000013458243434614769032_">
			<use xlink:href="#SVGID_00000136392851405034217170000013660647679939584917_"  style="overflow:visible;"/>
		</clipPath>
		<g style="clip-path:url(#SVGID_00000007410063591690374380000013458243434614769032_);">
			<path class="st5" d="M128,29.3c4.6,0,8.3-3.7,8.3-8.3c0-4.6-3.7-8.3-8.3-8.3c-4.6,0-8.3,3.7-8.3,8.3
				C119.7,25.6,123.4,29.3,128,29.3z"/>
		</g>
	</g>
	<path class="st1" d="M157.8,15.9V26h-1.3v-7.2c0-0.1,0-0.2,0-0.3c0-0.1,0-0.2,0-0.4l-3.3,6.1c-0.1,0.2-0.3,0.3-0.5,0.3h-0.2
		c-0.2,0-0.4-0.1-0.5-0.3l-3.4-6.2c0,0.3,0,0.5,0,0.7V26h-1.3V15.9h1.1c0.1,0,0.2,0,0.3,0c0.1,0,0.1,0.1,0.2,0.2l3.4,6
		c0.1,0.1,0.1,0.2,0.2,0.4s0.1,0.3,0.2,0.4c0.1-0.3,0.2-0.5,0.3-0.8l3.3-6c0.1-0.1,0.1-0.2,0.2-0.2c0.1,0,0.2,0,0.3,0H157.8z
		 M161.3,18.9V26H160v-7.1H161.3z M161.6,16.7c0,0.1,0,0.2-0.1,0.4c-0.1,0.1-0.1,0.2-0.2,0.3c-0.1,0.1-0.2,0.2-0.3,0.2
		c-0.1,0-0.2,0.1-0.4,0.1c-0.1,0-0.2,0-0.4-0.1c-0.1-0.1-0.2-0.1-0.3-0.2c-0.1-0.1-0.2-0.2-0.2-0.3c0-0.1-0.1-0.2-0.1-0.4
		c0-0.1,0-0.3,0.1-0.4c0.1-0.1,0.1-0.2,0.2-0.3c0.1-0.1,0.2-0.2,0.3-0.2c0.1-0.1,0.2-0.1,0.4-0.1c0.1,0,0.2,0,0.4,0.1
		c0.1,0,0.2,0.1,0.3,0.2c0.1,0.1,0.2,0.2,0.2,0.3C161.6,16.4,161.6,16.6,161.6,16.7z M167.9,20.6c-0.2-0.3-0.5-0.5-0.7-0.6
		c-0.3-0.1-0.5-0.2-0.9-0.2c-0.6,0-1.1,0.2-1.5,0.7c-0.3,0.4-0.5,1.1-0.5,2c0,0.5,0,0.8,0.1,1.2c0.1,0.3,0.2,0.6,0.3,0.8
		c0.1,0.2,0.3,0.4,0.5,0.4c0.2,0.1,0.5,0.1,0.7,0.1c0.4,0,0.7-0.1,1-0.3c0.3-0.2,0.6-0.4,0.8-0.7V20.6z M169.3,15.7V26h-0.8
		c-0.2,0-0.3-0.1-0.4-0.3l-0.1-0.8c-0.3,0.4-0.6,0.6-1,0.9c-0.4,0.2-0.8,0.3-1.3,0.3c-0.4,0-0.8-0.1-1.1-0.2
		c-0.3-0.2-0.6-0.4-0.8-0.7c-0.2-0.3-0.4-0.7-0.5-1.1c-0.1-0.5-0.2-1-0.2-1.6c0-0.5,0.1-1,0.2-1.5c0.1-0.5,0.3-0.8,0.6-1.2
		c0.3-0.3,0.6-0.6,1-0.8c0.4-0.2,0.8-0.3,1.3-0.3c0.4,0,0.8,0.1,1.1,0.2c0.3,0.1,0.6,0.3,0.8,0.6v-3.9H169.3z M175.8,20.6
		c-0.2-0.3-0.5-0.5-0.7-0.6c-0.3-0.1-0.5-0.2-0.9-0.2c-0.6,0-1.1,0.2-1.5,0.7c-0.3,0.4-0.5,1.1-0.5,2c0,0.5,0,0.8,0.1,1.2
		c0.1,0.3,0.2,0.6,0.3,0.8c0.1,0.2,0.3,0.4,0.5,0.4c0.2,0.1,0.5,0.1,0.7,0.1c0.4,0,0.7-0.1,1-0.3c0.3-0.2,0.6-0.4,0.8-0.7V20.6z
		 M177.1,15.7V26h-0.8c-0.2,0-0.3-0.1-0.4-0.3l-0.1-0.8c-0.3,0.4-0.6,0.6-1,0.9c-0.4,0.2-0.8,0.3-1.3,0.3c-0.4,0-0.8-0.1-1.1-0.2
		c-0.3-0.2-0.6-0.4-0.8-0.7c-0.2-0.3-0.4-0.7-0.5-1.1c-0.1-0.5-0.2-1-0.2-1.6c0-0.5,0.1-1,0.2-1.5c0.1-0.5,0.3-0.8,0.6-1.2
		c0.3-0.3,0.6-0.6,1-0.8c0.4-0.2,0.8-0.3,1.3-0.3c0.4,0,0.8,0.1,1.1,0.2c0.3,0.1,0.6,0.3,0.8,0.6v-3.9H177.1z M180.4,15.7V26h-1.4
		V15.7H180.4z M187.1,21.7c0-0.3,0-0.5-0.1-0.7c-0.1-0.2-0.2-0.4-0.3-0.6c-0.2-0.2-0.3-0.3-0.5-0.4c-0.2-0.1-0.5-0.1-0.7-0.1
		c-0.6,0-1,0.2-1.4,0.5c-0.3,0.3-0.5,0.8-0.6,1.4H187.1z M188.2,25c-0.2,0.2-0.4,0.4-0.6,0.5c-0.2,0.1-0.5,0.3-0.7,0.3
		c-0.2,0.1-0.5,0.2-0.8,0.2c-0.3,0-0.5,0.1-0.8,0.1c-0.5,0-0.9-0.1-1.4-0.2c-0.4-0.2-0.8-0.4-1.1-0.7c-0.3-0.3-0.5-0.7-0.7-1.2
		c-0.2-0.5-0.3-1-0.3-1.6c0-0.5,0.1-1,0.2-1.4c0.2-0.4,0.4-0.8,0.7-1.1c0.3-0.3,0.6-0.6,1.1-0.7c0.4-0.2,0.9-0.3,1.4-0.3
		c0.4,0,0.8,0.1,1.2,0.2c0.4,0.1,0.7,0.3,1,0.6c0.3,0.3,0.5,0.6,0.6,1c0.2,0.4,0.2,0.8,0.2,1.4c0,0.2,0,0.4-0.1,0.4
		c0,0.1-0.1,0.1-0.3,0.1h-4.7c0,0.4,0.1,0.8,0.2,1.1c0.1,0.3,0.3,0.6,0.4,0.8c0.2,0.2,0.4,0.4,0.7,0.5c0.3,0.1,0.6,0.2,0.9,0.2
		c0.3,0,0.6,0,0.8-0.1c0.2-0.1,0.4-0.1,0.6-0.2c0.2-0.1,0.3-0.2,0.4-0.2c0.1-0.1,0.2-0.1,0.3-0.1c0.1,0,0.2,0,0.3,0.1L188.2,25z"/>
	<rect x="102" y="40" class="st3" width="103" height="1"/>
	<rect x="205" y="1" class="st3" width="1" height="40"/>
	<rect x="206" y="1" class="st0" width="103" height="40"/>
	<rect x="206" y="1" class="st3" width="103" height="1"/>
	<g>
		<defs>
			<rect id="SVGID_00000072987788541952742570000004011612151707089807_" x="222" y="11" width="20" height="20"/>
		</defs>
		<clipPath id="SVGID_00000098920884347184413090000016540182146407393434_">
			<use xlink:href="#SVGID_00000072987788541952742570000004011612151707089807_"  style="overflow:visible;"/>
		</clipPath>
		<g style="clip-path:url(#SVGID_00000098920884347184413090000016540182146407393434_);">
			<path class="st5" d="M232,29.3c4.6,0,8.3-3.7,8.3-8.3c0-4.6-3.7-8.3-8.3-8.3c-4.6,0-8.3,3.7-8.3,8.3
				C223.7,25.6,227.4,29.3,232,29.3z"/>
		</g>
	</g>
	<path class="st1" d="M261.8,15.9V26h-1.3v-7.2c0-0.1,0-0.2,0-0.3c0-0.1,0-0.2,0-0.4l-3.3,6.1c-0.1,0.2-0.3,0.3-0.5,0.3h-0.2
		c-0.2,0-0.4-0.1-0.5-0.3l-3.4-6.2c0,0.3,0,0.5,0,0.7V26h-1.3V15.9h1.1c0.1,0,0.2,0,0.3,0c0.1,0,0.1,0.1,0.2,0.2l3.4,6
		c0.1,0.1,0.1,0.2,0.2,0.4s0.1,0.3,0.2,0.4c0.1-0.3,0.2-0.5,0.3-0.8l3.3-6c0.1-0.1,0.1-0.2,0.2-0.2c0.1,0,0.2,0,0.3,0H261.8z
		 M265.3,18.9V26H264v-7.1H265.3z M265.6,16.7c0,0.1,0,0.2-0.1,0.4c-0.1,0.1-0.1,0.2-0.2,0.3c-0.1,0.1-0.2,0.2-0.3,0.2
		c-0.1,0-0.2,0.1-0.4,0.1c-0.1,0-0.2,0-0.4-0.1c-0.1-0.1-0.2-0.1-0.3-0.2c-0.1-0.1-0.2-0.2-0.2-0.3c0-0.1-0.1-0.2-0.1-0.4
		c0-0.1,0-0.3,0.1-0.4c0.1-0.1,0.1-0.2,0.2-0.3c0.1-0.1,0.2-0.2,0.3-0.2c0.1-0.1,0.2-0.1,0.4-0.1c0.1,0,0.2,0,0.4,0.1
		c0.1,0,0.2,0.1,0.3,0.2c0.1,0.1,0.2,0.2,0.2,0.3C265.6,16.4,265.6,16.6,265.6,16.7z M271.9,20.6c-0.2-0.3-0.5-0.5-0.7-0.6
		c-0.3-0.1-0.5-0.2-0.9-0.2c-0.6,0-1.1,0.2-1.5,0.7c-0.3,0.4-0.5,1.1-0.5,2c0,0.5,0,0.8,0.1,1.2c0.1,0.3,0.2,0.6,0.3,0.8
		c0.1,0.2,0.3,0.4,0.5,0.4c0.2,0.1,0.5,0.1,0.7,0.1c0.4,0,0.7-0.1,1-0.3c0.3-0.2,0.6-0.4,0.8-0.7V20.6z M273.3,15.7V26h-0.8
		c-0.2,0-0.3-0.1-0.4-0.3l-0.1-0.8c-0.3,0.4-0.6,0.6-1,0.9c-0.4,0.2-0.8,0.3-1.3,0.3c-0.4,0-0.8-0.1-1.1-0.2
		c-0.3-0.2-0.6-0.4-0.8-0.7c-0.2-0.3-0.4-0.7-0.5-1.1c-0.1-0.5-0.2-1-0.2-1.6c0-0.5,0.1-1,0.2-1.5c0.1-0.5,0.3-0.8,0.6-1.2
		c0.3-0.3,0.6-0.6,1-0.8c0.4-0.2,0.8-0.3,1.3-0.3c0.4,0,0.8,0.1,1.1,0.2c0.3,0.1,0.6,0.3,0.8,0.6v-3.9H273.3z M279.8,20.6
		c-0.2-0.3-0.5-0.5-0.7-0.6c-0.3-0.1-0.5-0.2-0.9-0.2c-0.6,0-1.1,0.2-1.5,0.7c-0.3,0.4-0.5,1.1-0.5,2c0,0.5,0,0.8,0.1,1.2
		c0.1,0.3,0.2,0.6,0.3,0.8c0.1,0.2,0.3,0.4,0.5,0.4c0.2,0.1,0.5,0.1,0.7,0.1c0.4,0,0.7-0.1,1-0.3s0.6-0.4,0.8-0.7V20.6z M281.1,15.7
		V26h-0.8c-0.2,0-0.3-0.1-0.4-0.3l-0.1-0.8c-0.3,0.4-0.6,0.6-1,0.9c-0.4,0.2-0.8,0.3-1.3,0.3c-0.4,0-0.8-0.1-1.1-0.2
		c-0.3-0.2-0.6-0.4-0.8-0.7c-0.2-0.3-0.4-0.7-0.5-1.1c-0.1-0.5-0.2-1-0.2-1.6c0-0.5,0.1-1,0.2-1.5c0.1-0.5,0.3-0.8,0.6-1.2
		c0.3-0.3,0.6-0.6,1-0.8c0.4-0.2,0.8-0.3,1.3-0.3c0.4,0,0.8,0.1,1.1,0.2c0.3,0.1,0.6,0.3,0.8,0.6v-3.9H281.1z M284.4,15.7V26h-1.4
		V15.7H284.4z M291.1,21.7c0-0.3,0-0.5-0.1-0.7c-0.1-0.2-0.2-0.4-0.3-0.6c-0.1-0.2-0.3-0.3-0.5-0.4c-0.2-0.1-0.5-0.1-0.7-0.1
		c-0.6,0-1,0.2-1.4,0.5c-0.3,0.3-0.5,0.8-0.6,1.4H291.1z M292.2,25c-0.2,0.2-0.4,0.4-0.6,0.5c-0.2,0.1-0.5,0.3-0.7,0.3
		c-0.2,0.1-0.5,0.2-0.8,0.2c-0.3,0-0.5,0.1-0.8,0.1c-0.5,0-0.9-0.1-1.4-0.2c-0.4-0.2-0.8-0.4-1.1-0.7c-0.3-0.3-0.5-0.7-0.7-1.2
		c-0.2-0.5-0.3-1-0.3-1.6c0-0.5,0.1-1,0.2-1.4c0.2-0.4,0.4-0.8,0.7-1.1c0.3-0.3,0.6-0.6,1.1-0.7c0.4-0.2,0.9-0.3,1.4-0.3
		c0.4,0,0.8,0.1,1.2,0.2c0.4,0.1,0.7,0.3,1,0.6c0.3,0.3,0.5,0.6,0.6,1c0.2,0.4,0.2,0.8,0.2,1.4c0,0.2,0,0.4-0.1,0.4
		c0,0.1-0.1,0.1-0.3,0.1h-4.7c0,0.4,0.1,0.8,0.2,1.1c0.1,0.3,0.3,0.6,0.4,0.8c0.2,0.2,0.4,0.4,0.7,0.5c0.3,0.1,0.6,0.2,0.9,0.2
		c0.3,0,0.6,0,0.8-0.1c0.2-0.1,0.4-0.1,0.6-0.2c0.2-0.1,0.3-0.2,0.4-0.2c0.1-0.1,0.2-0.1,0.3-0.1c0.1,0,0.2,0,0.3,0.1L292.2,25z"/>
	<rect x="206" y="40" class="st3" width="103" height="1"/>
	<rect x="309" y="1" class="st3" width="1" height="40"/>
	<rect x="310" y="1" class="st0" width="103" height="40"/>
	<rect x="310" y="1" class="st3" width="103" height="1"/>
	<g>
		<defs>
			<rect id="SVGID_00000155128376701633128920000002924668236579253146_" x="326" y="11" width="20" height="20"/>
		</defs>
		<clipPath id="SVGID_00000137817319308929150780000011784202170656545706_">
			<use xlink:href="#SVGID_00000155128376701633128920000002924668236579253146_"  style="overflow:visible;"/>
		</clipPath>
		<g style="clip-path:url(#SVGID_00000137817319308929150780000011784202170656545706_);">
			<path class="st5" d="M336,29.3c4.6,0,8.3-3.7,8.3-8.3c0-4.6-3.7-8.3-8.3-8.3c-4.6,0-8.3,3.7-8.3,8.3
				C327.7,25.6,331.4,29.3,336,29.3z"/>
		</g>
	</g>
	<path class="st1" d="M365.8,15.9V26h-1.3v-7.2c0-0.1,0-0.2,0-0.3c0-0.1,0-0.2,0-0.4l-3.3,6.1c-0.1,0.2-0.3,0.3-0.5,0.3h-0.2
		c-0.2,0-0.4-0.1-0.5-0.3l-3.4-6.2c0,0.3,0,0.5,0,0.7V26h-1.3V15.9h1.1c0.1,0,0.2,0,0.3,0c0.1,0,0.1,0.1,0.2,0.2l3.4,6
		c0.1,0.1,0.1,0.2,0.2,0.4s0.1,0.3,0.2,0.4c0.1-0.3,0.2-0.5,0.3-0.8l3.3-6c0.1-0.1,0.1-0.2,0.2-0.2c0.1,0,0.2,0,0.3,0H365.8z
		 M369.3,18.9V26H368v-7.1H369.3z M369.6,16.7c0,0.1,0,0.2-0.1,0.4c-0.1,0.1-0.1,0.2-0.2,0.3c-0.1,0.1-0.2,0.2-0.3,0.2
		c-0.1,0-0.2,0.1-0.4,0.1c-0.1,0-0.2,0-0.4-0.1c-0.1-0.1-0.2-0.1-0.3-0.2c-0.1-0.1-0.2-0.2-0.2-0.3c0-0.1-0.1-0.2-0.1-0.4
		c0-0.1,0-0.3,0.1-0.4c0.1-0.1,0.1-0.2,0.2-0.3c0.1-0.1,0.2-0.2,0.3-0.2c0.1-0.1,0.2-0.1,0.4-0.1c0.1,0,0.2,0,0.4,0.1
		c0.1,0,0.2,0.1,0.3,0.2c0.1,0.1,0.2,0.2,0.2,0.3C369.6,16.4,369.6,16.6,369.6,16.7z M375.9,20.6c-0.2-0.3-0.5-0.5-0.7-0.6
		c-0.3-0.1-0.5-0.2-0.9-0.2c-0.6,0-1.1,0.2-1.5,0.7c-0.3,0.4-0.5,1.1-0.5,2c0,0.5,0,0.8,0.1,1.2c0.1,0.3,0.2,0.6,0.3,0.8
		c0.1,0.2,0.3,0.4,0.5,0.4c0.2,0.1,0.5,0.1,0.7,0.1c0.4,0,0.7-0.1,1-0.3c0.3-0.2,0.6-0.4,0.8-0.7V20.6z M377.3,15.7V26h-0.8
		c-0.2,0-0.3-0.1-0.4-0.3l-0.1-0.8c-0.3,0.4-0.6,0.6-1,0.9c-0.4,0.2-0.8,0.3-1.3,0.3c-0.4,0-0.8-0.1-1.1-0.2
		c-0.3-0.2-0.6-0.4-0.8-0.7c-0.2-0.3-0.4-0.7-0.5-1.1c-0.1-0.5-0.2-1-0.2-1.6c0-0.5,0.1-1,0.2-1.5c0.1-0.5,0.3-0.8,0.6-1.2
		c0.3-0.3,0.6-0.6,1-0.8c0.4-0.2,0.8-0.3,1.3-0.3c0.4,0,0.8,0.1,1.1,0.2c0.3,0.1,0.6,0.3,0.8,0.6v-3.9H377.3z M383.8,20.6
		c-0.2-0.3-0.5-0.5-0.7-0.6c-0.3-0.1-0.5-0.2-0.9-0.2c-0.6,0-1.1,0.2-1.5,0.7c-0.3,0.4-0.5,1.1-0.5,2c0,0.5,0,0.8,0.1,1.2
		c0.1,0.3,0.2,0.6,0.3,0.8c0.1,0.2,0.3,0.4,0.5,0.4c0.2,0.1,0.5,0.1,0.7,0.1c0.4,0,0.7-0.1,1-0.3s0.6-0.4,0.8-0.7V20.6z M385.1,15.7
		V26h-0.8c-0.2,0-0.3-0.1-0.4-0.3l-0.1-0.8c-0.3,0.4-0.6,0.6-1,0.9c-0.4,0.2-0.8,0.3-1.3,0.3c-0.4,0-0.8-0.1-1.1-0.2
		c-0.3-0.2-0.6-0.4-0.8-0.7c-0.2-0.3-0.4-0.7-0.5-1.1c-0.1-0.5-0.2-1-0.2-1.6c0-0.5,0.1-1,0.2-1.5c0.1-0.5,0.3-0.8,0.6-1.2
		c0.3-0.3,0.6-0.6,1-0.8c0.4-0.2,0.8-0.3,1.3-0.3c0.4,0,0.8,0.1,1.1,0.2c0.3,0.1,0.6,0.3,0.8,0.6v-3.9H385.1z M388.4,15.7V26h-1.4
		V15.7H388.4z M395.1,21.7c0-0.3,0-0.5-0.1-0.7c-0.1-0.2-0.2-0.4-0.3-0.6c-0.1-0.2-0.3-0.3-0.5-0.4c-0.2-0.1-0.5-0.1-0.7-0.1
		c-0.6,0-1,0.2-1.4,0.5c-0.3,0.3-0.5,0.8-0.6,1.4H395.1z M396.2,25c-0.2,0.2-0.4,0.4-0.6,0.5c-0.2,0.1-0.5,0.3-0.7,0.3
		c-0.2,0.1-0.5,0.2-0.8,0.2c-0.3,0-0.5,0.1-0.8,0.1c-0.5,0-0.9-0.1-1.4-0.2c-0.4-0.2-0.8-0.4-1.1-0.7c-0.3-0.3-0.5-0.7-0.7-1.2
		c-0.2-0.5-0.3-1-0.3-1.6c0-0.5,0.1-1,0.2-1.4c0.2-0.4,0.4-0.8,0.7-1.1c0.3-0.3,0.6-0.6,1.1-0.7c0.4-0.2,0.9-0.3,1.4-0.3
		c0.4,0,0.8,0.1,1.2,0.2c0.4,0.1,0.7,0.3,1,0.6c0.3,0.3,0.5,0.6,0.6,1c0.2,0.4,0.2,0.8,0.2,1.4c0,0.2,0,0.4-0.1,0.4
		c0,0.1-0.1,0.1-0.3,0.1h-4.7c0,0.4,0.1,0.8,0.2,1.1c0.1,0.3,0.3,0.6,0.4,0.8c0.2,0.2,0.4,0.4,0.7,0.5c0.3,0.1,0.6,0.2,0.9,0.2
		c0.3,0,0.6,0,0.8-0.1c0.2-0.1,0.4-0.1,0.6-0.2c0.2-0.1,0.3-0.2,0.4-0.2c0.1-0.1,0.2-0.1,0.3-0.1c0.1,0,0.2,0,0.3,0.1L396.2,25z"/>
	<rect x="310" y="40" class="st3" width="103" height="1"/>
	<rect x="413" y="1" class="st3" width="1" height="40"/>
	<rect x="414" y="1" class="st0" width="103" height="40"/>
	<rect x="414" y="1" class="st3" width="103" height="1"/>
	<g>
		<defs>
			<rect id="SVGID_00000004521000299154668310000015193126480112791707_" x="430" y="11" width="20" height="20"/>
		</defs>
		<clipPath id="SVGID_00000140708888237691989880000016485900520563533459_">
			<use xlink:href="#SVGID_00000004521000299154668310000015193126480112791707_"  style="overflow:visible;"/>
		</clipPath>
		<g style="clip-path:url(#SVGID_00000140708888237691989880000016485900520563533459_);">
			<path class="st5" d="M440,29.3c4.6,0,8.3-3.7,8.3-8.3c0-4.6-3.7-8.3-8.3-8.3c-4.6,0-8.3,3.7-8.3,8.3
				C431.7,25.6,435.4,29.3,440,29.3z"/>
		</g>
	</g>
	<path class="st1" d="M469.8,15.9V26h-1.3v-7.2c0-0.1,0-0.2,0-0.3c0-0.1,0-0.2,0-0.4l-3.3,6.1c-0.1,0.2-0.3,0.3-0.5,0.3h-0.2
		c-0.2,0-0.4-0.1-0.5-0.3l-3.4-6.2c0,0.3,0,0.5,0,0.7V26h-1.3V15.9h1.1c0.1,0,0.2,0,0.3,0c0.1,0,0.1,0.1,0.2,0.2l3.4,6
		c0.1,0.1,0.1,0.2,0.2,0.4s0.1,0.3,0.2,0.4c0.1-0.3,0.2-0.5,0.3-0.8l3.3-6c0.1-0.1,0.1-0.2,0.2-0.2c0.1,0,0.2,0,0.3,0H469.8z
		 M473.3,18.9V26H472v-7.1H473.3z M473.6,16.7c0,0.1,0,0.2-0.1,0.4c-0.1,0.1-0.1,0.2-0.2,0.3c-0.1,0.1-0.2,0.2-0.3,0.2
		c-0.1,0-0.2,0.1-0.4,0.1c-0.1,0-0.2,0-0.4-0.1c-0.1-0.1-0.2-0.1-0.3-0.2c-0.1-0.1-0.2-0.2-0.2-0.3c0-0.1-0.1-0.2-0.1-0.4
		c0-0.1,0-0.3,0.1-0.4c0.1-0.1,0.1-0.2,0.2-0.3c0.1-0.1,0.2-0.2,0.3-0.2c0.1-0.1,0.2-0.1,0.4-0.1c0.1,0,0.2,0,0.4,0.1
		c0.1,0,0.2,0.1,0.3,0.2c0.1,0.1,0.2,0.2,0.2,0.3C473.6,16.4,473.6,16.6,473.6,16.7z M479.9,20.6c-0.2-0.3-0.5-0.5-0.7-0.6
		c-0.3-0.1-0.5-0.2-0.9-0.2c-0.6,0-1.1,0.2-1.5,0.7c-0.3,0.4-0.5,1.1-0.5,2c0,0.5,0,0.8,0.1,1.2c0.1,0.3,0.2,0.6,0.3,0.8
		c0.1,0.2,0.3,0.4,0.5,0.4c0.2,0.1,0.5,0.1,0.7,0.1c0.4,0,0.7-0.1,1-0.3c0.3-0.2,0.6-0.4,0.8-0.7V20.6z M481.3,15.7V26h-0.8
		c-0.2,0-0.3-0.1-0.4-0.3l-0.1-0.8c-0.3,0.4-0.6,0.6-1,0.9c-0.4,0.2-0.8,0.3-1.3,0.3c-0.4,0-0.8-0.1-1.1-0.2
		c-0.3-0.2-0.6-0.4-0.8-0.7c-0.2-0.3-0.4-0.7-0.5-1.1c-0.1-0.5-0.2-1-0.2-1.6c0-0.5,0.1-1,0.2-1.5c0.1-0.5,0.3-0.8,0.6-1.2
		c0.3-0.3,0.6-0.6,1-0.8c0.4-0.2,0.8-0.3,1.3-0.3c0.4,0,0.8,0.1,1.1,0.2c0.3,0.1,0.6,0.3,0.8,0.6v-3.9H481.3z M487.8,20.6
		c-0.2-0.3-0.5-0.5-0.7-0.6c-0.3-0.1-0.5-0.2-0.9-0.2c-0.6,0-1.1,0.2-1.5,0.7c-0.3,0.4-0.5,1.1-0.5,2c0,0.5,0,0.8,0.1,1.2
		c0.1,0.3,0.2,0.6,0.3,0.8c0.1,0.2,0.3,0.4,0.5,0.4c0.2,0.1,0.5,0.1,0.7,0.1c0.4,0,0.7-0.1,1-0.3s0.6-0.4,0.8-0.7V20.6z M489.1,15.7
		V26h-0.8c-0.2,0-0.3-0.1-0.4-0.3l-0.1-0.8c-0.3,0.4-0.6,0.6-1,0.9c-0.4,0.2-0.8,0.3-1.3,0.3c-0.4,0-0.8-0.1-1.1-0.2
		c-0.3-0.2-0.6-0.4-0.8-0.7c-0.2-0.3-0.4-0.7-0.5-1.1c-0.1-0.5-0.2-1-0.2-1.6c0-0.5,0.1-1,0.2-1.5c0.1-0.5,0.3-0.8,0.6-1.2
		c0.3-0.3,0.6-0.6,1-0.8c0.4-0.2,0.8-0.3,1.3-0.3c0.4,0,0.8,0.1,1.1,0.2c0.3,0.1,0.6,0.3,0.8,0.6v-3.9H489.1z M492.4,15.7V26h-1.4
		V15.7H492.4z M499.1,21.7c0-0.3,0-0.5-0.1-0.7c-0.1-0.2-0.2-0.4-0.3-0.6c-0.1-0.2-0.3-0.3-0.5-0.4c-0.2-0.1-0.5-0.1-0.7-0.1
		c-0.6,0-1,0.2-1.4,0.5c-0.3,0.3-0.5,0.8-0.6,1.4H499.1z M500.2,25c-0.2,0.2-0.4,0.4-0.6,0.5c-0.2,0.1-0.5,0.3-0.7,0.3
		c-0.2,0.1-0.5,0.2-0.8,0.2c-0.3,0-0.5,0.1-0.8,0.1c-0.5,0-0.9-0.1-1.4-0.2c-0.4-0.2-0.8-0.4-1.1-0.7c-0.3-0.3-0.5-0.7-0.7-1.2
		c-0.2-0.5-0.3-1-0.3-1.6c0-0.5,0.1-1,0.2-1.4c0.2-0.4,0.4-0.8,0.7-1.1c0.3-0.3,0.6-0.6,1.1-0.7c0.4-0.2,0.9-0.3,1.4-0.3
		c0.4,0,0.8,0.1,1.2,0.2c0.4,0.1,0.7,0.3,1,0.6c0.3,0.3,0.5,0.6,0.6,1c0.2,0.4,0.2,0.8,0.2,1.4c0,0.2,0,0.4-0.1,0.4
		c0,0.1-0.1,0.1-0.3,0.1h-4.7c0,0.4,0.1,0.8,0.2,1.1c0.1,0.3,0.3,0.6,0.4,0.8c0.2,0.2,0.4,0.4,0.7,0.5c0.3,0.1,0.6,0.2,0.9,0.2
		c0.3,0,0.6,0,0.8-0.1c0.2-0.1,0.4-0.1,0.6-0.2c0.2-0.1,0.3-0.2,0.4-0.2c0.1-0.1,0.2-0.1,0.3-0.1c0.1,0,0.2,0,0.3,0.1L500.2,25z"/>
	<rect x="414" y="40" class="st3" width="103" height="1"/>
	<rect x="517" y="1" class="st3" width="1" height="40"/>
	<rect x="518" y="1" class="st0" width="103" height="40"/>
	<rect x="518" y="1" class="st3" width="103" height="1"/>
	<g>
		<defs>
			<rect id="SVGID_00000040536593764785476100000014187511144076261553_" x="534" y="11" width="20" height="20"/>
		</defs>
		<clipPath id="SVGID_00000093877566955128676290000007004254679654311100_">
			<use xlink:href="#SVGID_00000040536593764785476100000014187511144076261553_"  style="overflow:visible;"/>
		</clipPath>
		<g style="clip-path:url(#SVGID_00000093877566955128676290000007004254679654311100_);">
			<path class="st5" d="M544,29.3c4.6,0,8.3-3.7,8.3-8.3c0-4.6-3.7-8.3-8.3-8.3c-4.6,0-8.3,3.7-8.3,8.3
				C535.7,25.6,539.4,29.3,544,29.3z"/>
		</g>
	</g>
	<path class="st1" d="M573.8,15.9V26h-1.3v-7.2c0-0.1,0-0.2,0-0.3c0-0.1,0-0.2,0-0.4l-3.3,6.1c-0.1,0.2-0.3,0.3-0.5,0.3h-0.2
		c-0.2,0-0.4-0.1-0.5-0.3l-3.4-6.2c0,0.3,0,0.5,0,0.7V26h-1.3V15.9h1.1c0.1,0,0.2,0,0.3,0c0.1,0,0.1,0.1,0.2,0.2l3.4,6
		c0.1,0.1,0.1,0.2,0.2,0.4c0.1,0.1,0.1,0.3,0.2,0.4c0.1-0.3,0.2-0.5,0.3-0.8l3.3-6c0.1-0.1,0.1-0.2,0.2-0.2c0.1,0,0.2,0,0.3,0H573.8
		z M577.3,18.9V26H576v-7.1H577.3z M577.6,16.7c0,0.1,0,0.2-0.1,0.4c-0.1,0.1-0.1,0.2-0.2,0.3c-0.1,0.1-0.2,0.2-0.3,0.2
		c-0.1,0-0.2,0.1-0.4,0.1c-0.1,0-0.2,0-0.4-0.1c-0.1-0.1-0.2-0.1-0.3-0.2c-0.1-0.1-0.2-0.2-0.2-0.3c0-0.1-0.1-0.2-0.1-0.4
		c0-0.1,0-0.3,0.1-0.4c0.1-0.1,0.1-0.2,0.2-0.3c0.1-0.1,0.2-0.2,0.3-0.2c0.1-0.1,0.2-0.1,0.4-0.1c0.1,0,0.2,0,0.4,0.1
		c0.1,0,0.2,0.1,0.3,0.2c0.1,0.1,0.2,0.2,0.2,0.3C577.6,16.4,577.6,16.6,577.6,16.7z M583.9,20.6c-0.2-0.3-0.5-0.5-0.7-0.6
		c-0.3-0.1-0.5-0.2-0.9-0.2c-0.6,0-1.1,0.2-1.5,0.7c-0.3,0.4-0.5,1.1-0.5,2c0,0.5,0,0.8,0.1,1.2c0.1,0.3,0.2,0.6,0.3,0.8
		c0.1,0.2,0.3,0.4,0.5,0.4c0.2,0.1,0.5,0.1,0.7,0.1c0.4,0,0.7-0.1,1-0.3c0.3-0.2,0.6-0.4,0.8-0.7V20.6z M585.3,15.7V26h-0.8
		c-0.2,0-0.3-0.1-0.4-0.3l-0.1-0.8c-0.3,0.4-0.6,0.6-1,0.9c-0.4,0.2-0.8,0.3-1.3,0.3c-0.4,0-0.8-0.1-1.1-0.2
		c-0.3-0.2-0.6-0.4-0.8-0.7c-0.2-0.3-0.4-0.7-0.5-1.1c-0.1-0.5-0.2-1-0.2-1.6c0-0.5,0.1-1,0.2-1.5c0.1-0.5,0.3-0.8,0.6-1.2
		c0.3-0.3,0.6-0.6,1-0.8c0.4-0.2,0.8-0.3,1.3-0.3c0.4,0,0.8,0.1,1.1,0.2c0.3,0.1,0.6,0.3,0.8,0.6v-3.9H585.3z M591.8,20.6
		c-0.2-0.3-0.5-0.5-0.7-0.6c-0.3-0.1-0.5-0.2-0.9-0.2c-0.6,0-1.1,0.2-1.5,0.7c-0.3,0.4-0.5,1.1-0.5,2c0,0.5,0,0.8,0.1,1.2
		c0.1,0.3,0.2,0.6,0.3,0.8c0.1,0.2,0.3,0.4,0.5,0.4c0.2,0.1,0.5,0.1,0.7,0.1c0.4,0,0.7-0.1,1-0.3s0.6-0.4,0.8-0.7V20.6z M593.1,15.7
		V26h-0.8c-0.2,0-0.3-0.1-0.4-0.3l-0.1-0.8c-0.3,0.4-0.6,0.6-1,0.9c-0.4,0.2-0.8,0.3-1.3,0.3c-0.4,0-0.8-0.1-1.1-0.2
		c-0.3-0.2-0.6-0.4-0.8-0.7c-0.2-0.3-0.4-0.7-0.5-1.1c-0.1-0.5-0.2-1-0.2-1.6c0-0.5,0.1-1,0.2-1.5c0.1-0.5,0.3-0.8,0.6-1.2
		c0.3-0.3,0.6-0.6,1-0.8c0.4-0.2,0.8-0.3,1.3-0.3c0.4,0,0.8,0.1,1.1,0.2c0.3,0.1,0.6,0.3,0.8,0.6v-3.9H593.1z M596.4,15.7V26h-1.4
		V15.7H596.4z M603.1,21.7c0-0.3,0-0.5-0.1-0.7c-0.1-0.2-0.2-0.4-0.3-0.6c-0.1-0.2-0.3-0.3-0.5-0.4c-0.2-0.1-0.5-0.1-0.7-0.1
		c-0.6,0-1,0.2-1.4,0.5c-0.3,0.3-0.5,0.8-0.6,1.4H603.1z M604.2,25c-0.2,0.2-0.4,0.4-0.6,0.5c-0.2,0.1-0.5,0.3-0.7,0.3
		c-0.2,0.1-0.5,0.2-0.8,0.2c-0.3,0-0.5,0.1-0.8,0.1c-0.5,0-0.9-0.1-1.4-0.2c-0.4-0.2-0.8-0.4-1.1-0.7c-0.3-0.3-0.5-0.7-0.7-1.2
		c-0.2-0.5-0.3-1-0.3-1.6c0-0.5,0.1-1,0.2-1.4c0.2-0.4,0.4-0.8,0.7-1.1c0.3-0.3,0.6-0.6,1.1-0.7c0.4-0.2,0.9-0.3,1.4-0.3
		c0.4,0,0.8,0.1,1.2,0.2c0.4,0.1,0.7,0.3,1,0.6c0.3,0.3,0.5,0.6,0.6,1c0.2,0.4,0.2,0.8,0.2,1.4c0,0.2,0,0.4-0.1,0.4
		c0,0.1-0.1,0.1-0.3,0.1h-4.7c0,0.4,0.1,0.8,0.2,1.1c0.1,0.3,0.3,0.6,0.4,0.8c0.2,0.2,0.4,0.4,0.7,0.5c0.3,0.1,0.6,0.2,0.9,0.2
		c0.3,0,0.6,0,0.8-0.1c0.2-0.1,0.4-0.1,0.6-0.2c0.2-0.1,0.3-0.2,0.4-0.2c0.1-0.1,0.2-0.1,0.3-0.1c0.1,0,0.2,0,0.3,0.1L604.2,25z"/>
	<rect x="518" y="40" class="st3" width="103" height="1"/>
	<rect x="621" y="1" class="st3" width="1" height="40"/>
	<rect x="622" y="1" class="st0" width="103" height="40"/>
	<rect x="622" y="1" class="st3" width="103" height="1"/>
	<g>
		<defs>
			<rect id="SVGID_00000021805009582874112470000002895638166721405630_" x="638" y="11" width="20" height="20"/>
		</defs>
		<clipPath id="SVGID_00000091737113813730976280000003278980793939305656_">
			<use xlink:href="#SVGID_00000021805009582874112470000002895638166721405630_"  style="overflow:visible;"/>
		</clipPath>
		<g style="clip-path:url(#SVGID_00000091737113813730976280000003278980793939305656_);">
			<path class="st5" d="M648,29.3c4.6,0,8.3-3.7,8.3-8.3c0-4.6-3.7-8.3-8.3-8.3c-4.6,0-8.3,3.7-8.3,8.3
				C639.7,25.6,643.4,29.3,648,29.3z"/>
		</g>
	</g>
	<path class="st1" d="M677.8,15.9V26h-1.3v-7.2c0-0.1,0-0.2,0-0.3c0-0.1,0-0.2,0-0.4l-3.3,6.1c-0.1,0.2-0.3,0.3-0.5,0.3h-0.2
		c-0.2,0-0.4-0.1-0.5-0.3l-3.4-6.2c0,0.3,0,0.5,0,0.7V26h-1.3V15.9h1.1c0.1,0,0.2,0,0.3,0c0.1,0,0.1,0.1,0.2,0.2l3.4,6
		c0.1,0.1,0.1,0.2,0.2,0.4c0.1,0.1,0.1,0.3,0.2,0.4c0.1-0.3,0.2-0.5,0.3-0.8l3.3-6c0.1-0.1,0.1-0.2,0.2-0.2c0.1,0,0.2,0,0.3,0H677.8
		z M681.3,18.9V26H680v-7.1H681.3z M681.6,16.7c0,0.1,0,0.2-0.1,0.4c-0.1,0.1-0.1,0.2-0.2,0.3c-0.1,0.1-0.2,0.2-0.3,0.2
		c-0.1,0-0.2,0.1-0.4,0.1c-0.1,0-0.2,0-0.4-0.1c-0.1-0.1-0.2-0.1-0.3-0.2c-0.1-0.1-0.2-0.2-0.2-0.3c0-0.1-0.1-0.2-0.1-0.4
		c0-0.1,0-0.3,0.1-0.4c0.1-0.1,0.1-0.2,0.2-0.3c0.1-0.1,0.2-0.2,0.3-0.2c0.1-0.1,0.2-0.1,0.4-0.1c0.1,0,0.2,0,0.4,0.1
		c0.1,0,0.2,0.1,0.3,0.2c0.1,0.1,0.2,0.2,0.2,0.3C681.6,16.4,681.6,16.6,681.6,16.7z M687.9,20.6c-0.2-0.3-0.5-0.5-0.7-0.6
		c-0.3-0.1-0.5-0.2-0.9-0.2c-0.6,0-1.1,0.2-1.5,0.7c-0.3,0.4-0.5,1.1-0.5,2c0,0.5,0,0.8,0.1,1.2c0.1,0.3,0.2,0.6,0.3,0.8
		c0.1,0.2,0.3,0.4,0.5,0.4c0.2,0.1,0.5,0.1,0.7,0.1c0.4,0,0.7-0.1,1-0.3c0.3-0.2,0.6-0.4,0.8-0.7V20.6z M689.3,15.7V26h-0.8
		c-0.2,0-0.3-0.1-0.4-0.3l-0.1-0.8c-0.3,0.4-0.6,0.6-1,0.9c-0.4,0.2-0.8,0.3-1.3,0.3c-0.4,0-0.8-0.1-1.1-0.2
		c-0.3-0.2-0.6-0.4-0.8-0.7c-0.2-0.3-0.4-0.7-0.5-1.1c-0.1-0.5-0.2-1-0.2-1.6c0-0.5,0.1-1,0.2-1.5c0.1-0.5,0.3-0.8,0.6-1.2
		c0.3-0.3,0.6-0.6,1-0.8c0.4-0.2,0.8-0.3,1.3-0.3c0.4,0,0.8,0.1,1.1,0.2c0.3,0.1,0.6,0.3,0.8,0.6v-3.9H689.3z M695.8,20.6
		c-0.2-0.3-0.5-0.5-0.7-0.6c-0.3-0.1-0.5-0.2-0.9-0.2c-0.6,0-1.1,0.2-1.5,0.7c-0.3,0.4-0.5,1.1-0.5,2c0,0.5,0,0.8,0.1,1.2
		c0.1,0.3,0.2,0.6,0.3,0.8c0.1,0.2,0.3,0.4,0.5,0.4c0.2,0.1,0.5,0.1,0.7,0.1c0.4,0,0.7-0.1,1-0.3s0.6-0.4,0.8-0.7V20.6z M697.1,15.7
		V26h-0.8c-0.2,0-0.3-0.1-0.4-0.3l-0.1-0.8c-0.3,0.4-0.6,0.6-1,0.9c-0.4,0.2-0.8,0.3-1.3,0.3c-0.4,0-0.8-0.1-1.1-0.2
		c-0.3-0.2-0.6-0.4-0.8-0.7c-0.2-0.3-0.4-0.7-0.5-1.1c-0.1-0.5-0.2-1-0.2-1.6c0-0.5,0.1-1,0.2-1.5c0.1-0.5,0.3-0.8,0.6-1.2
		c0.3-0.3,0.6-0.6,1-0.8c0.4-0.2,0.8-0.3,1.3-0.3c0.4,0,0.8,0.1,1.1,0.2c0.3,0.1,0.6,0.3,0.8,0.6v-3.9H697.1z M700.4,15.7V26h-1.4
		V15.7H700.4z M707.1,21.7c0-0.3,0-0.5-0.1-0.7c-0.1-0.2-0.2-0.4-0.3-0.6c-0.1-0.2-0.3-0.3-0.5-0.4c-0.2-0.1-0.5-0.1-0.7-0.1
		c-0.6,0-1,0.2-1.4,0.5c-0.3,0.3-0.5,0.8-0.6,1.4H707.1z M708.2,25c-0.2,0.2-0.4,0.4-0.6,0.5c-0.2,0.1-0.5,0.3-0.7,0.3
		c-0.2,0.1-0.5,0.2-0.8,0.2c-0.3,0-0.5,0.1-0.8,0.1c-0.5,0-0.9-0.1-1.4-0.2c-0.4-0.2-0.8-0.4-1.1-0.7c-0.3-0.3-0.5-0.7-0.7-1.2
		c-0.2-0.5-0.3-1-0.3-1.6c0-0.5,0.1-1,0.2-1.4c0.2-0.4,0.4-0.8,0.7-1.1c0.3-0.3,0.6-0.6,1.1-0.7c0.4-0.2,0.9-0.3,1.4-0.3
		c0.4,0,0.8,0.1,1.2,0.2c0.4,0.1,0.7,0.3,1,0.6c0.3,0.3,0.5,0.6,0.6,1c0.2,0.4,0.2,0.8,0.2,1.4c0,0.2,0,0.4-0.1,0.4
		c0,0.1-0.1,0.1-0.3,0.1h-4.7c0,0.4,0.1,0.8,0.2,1.1c0.1,0.3,0.3,0.6,0.4,0.8c0.2,0.2,0.4,0.4,0.7,0.5c0.3,0.1,0.6,0.2,0.9,0.2
		c0.3,0,0.6,0,0.8-0.1c0.2-0.1,0.4-0.1,0.6-0.2c0.2-0.1,0.3-0.2,0.4-0.2c0.1-0.1,0.2-0.1,0.3-0.1c0.1,0,0.2,0,0.3,0.1L708.2,25z"/>
	<rect x="622" y="40" class="st3" width="103" height="1"/>
	<rect x="725" y="1" class="st3" width="1" height="40"/>
	<rect x="726" y="1" class="st0" width="103" height="40"/>
	<rect x="726" y="1" class="st3" width="103" height="1"/>
	<g>
		<defs>
			<rect id="SVGID_00000034091562479226755680000015762217141311974044_" x="742" y="11" width="20" height="20"/>
		</defs>
		<clipPath id="SVGID_00000177471649199217696620000009332571713486751142_">
			<use xlink:href="#SVGID_00000034091562479226755680000015762217141311974044_"  style="overflow:visible;"/>
		</clipPath>
		<g style="clip-path:url(#SVGID_00000177471649199217696620000009332571713486751142_);">
			<path class="st5" d="M752,29.3c4.6,0,8.3-3.7,8.3-8.3c0-4.6-3.7-8.3-8.3-8.3c-4.6,0-8.3,3.7-8.3,8.3
				C743.7,25.6,747.4,29.3,752,29.3z"/>
		</g>
	</g>
	<path class="st1" d="M781.8,15.9V26h-1.3v-7.2c0-0.1,0-0.2,0-0.3c0-0.1,0-0.2,0-0.4l-3.3,6.1c-0.1,0.2-0.3,0.3-0.5,0.3h-0.2
		c-0.2,0-0.4-0.1-0.5-0.3l-3.4-6.2c0,0.3,0,0.5,0,0.7V26h-1.3V15.9h1.1c0.1,0,0.2,0,0.3,0c0.1,0,0.1,0.1,0.2,0.2l3.4,6
		c0.1,0.1,0.1,0.2,0.2,0.4c0.1,0.1,0.1,0.3,0.2,0.4c0.1-0.3,0.2-0.5,0.3-0.8l3.3-6c0.1-0.1,0.1-0.2,0.2-0.2c0.1,0,0.2,0,0.3,0H781.8
		z M785.3,18.9V26H784v-7.1H785.3z M785.6,16.7c0,0.1,0,0.2-0.1,0.4c-0.1,0.1-0.1,0.2-0.2,0.3c-0.1,0.1-0.2,0.2-0.3,0.2
		c-0.1,0-0.2,0.1-0.4,0.1c-0.1,0-0.2,0-0.4-0.1c-0.1-0.1-0.2-0.1-0.3-0.2c-0.1-0.1-0.2-0.2-0.2-0.3c0-0.1-0.1-0.2-0.1-0.4
		c0-0.1,0-0.3,0.1-0.4c0.1-0.1,0.1-0.2,0.2-0.3c0.1-0.1,0.2-0.2,0.3-0.2c0.1-0.1,0.2-0.1,0.4-0.1c0.1,0,0.2,0,0.4,0.1
		c0.1,0,0.2,0.1,0.3,0.2c0.1,0.1,0.2,0.2,0.2,0.3C785.6,16.4,785.6,16.6,785.6,16.7z M791.9,20.6c-0.2-0.3-0.5-0.5-0.7-0.6
		c-0.3-0.1-0.5-0.2-0.9-0.2c-0.6,0-1.1,0.2-1.5,0.7c-0.3,0.4-0.5,1.1-0.5,2c0,0.5,0,0.8,0.1,1.2c0.1,0.3,0.2,0.6,0.3,0.8
		c0.1,0.2,0.3,0.4,0.5,0.4c0.2,0.1,0.5,0.1,0.7,0.1c0.4,0,0.7-0.1,1-0.3c0.3-0.2,0.6-0.4,0.8-0.7V20.6z M793.3,15.7V26h-0.8
		c-0.2,0-0.3-0.1-0.4-0.3l-0.1-0.8c-0.3,0.4-0.6,0.6-1,0.9c-0.4,0.2-0.8,0.3-1.3,0.3c-0.4,0-0.8-0.1-1.1-0.2
		c-0.3-0.2-0.6-0.4-0.8-0.7c-0.2-0.3-0.4-0.7-0.5-1.1c-0.1-0.5-0.2-1-0.2-1.6c0-0.5,0.1-1,0.2-1.5c0.1-0.5,0.3-0.8,0.6-1.2
		c0.3-0.3,0.6-0.6,1-0.8c0.4-0.2,0.8-0.3,1.3-0.3c0.4,0,0.8,0.1,1.1,0.2c0.3,0.1,0.6,0.3,0.8,0.6v-3.9H793.3z M799.8,20.6
		c-0.2-0.3-0.5-0.5-0.7-0.6c-0.3-0.1-0.5-0.2-0.9-0.2c-0.6,0-1.1,0.2-1.5,0.7c-0.3,0.4-0.5,1.1-0.5,2c0,0.5,0,0.8,0.1,1.2
		c0.1,0.3,0.2,0.6,0.3,0.8c0.1,0.2,0.3,0.4,0.5,0.4c0.2,0.1,0.5,0.1,0.7,0.1c0.4,0,0.7-0.1,1-0.3s0.6-0.4,0.8-0.7V20.6z M801.1,15.7
		V26h-0.8c-0.2,0-0.3-0.1-0.4-0.3l-0.1-0.8c-0.3,0.4-0.6,0.6-1,0.9c-0.4,0.2-0.8,0.3-1.3,0.3c-0.4,0-0.8-0.1-1.1-0.2
		c-0.3-0.2-0.6-0.4-0.8-0.7c-0.2-0.3-0.4-0.7-0.5-1.1c-0.1-0.5-0.2-1-0.2-1.6c0-0.5,0.1-1,0.2-1.5c0.1-0.5,0.3-0.8,0.6-1.2
		c0.3-0.3,0.6-0.6,1-0.8c0.4-0.2,0.8-0.3,1.3-0.3c0.4,0,0.8,0.1,1.1,0.2c0.3,0.1,0.6,0.3,0.8,0.6v-3.9H801.1z M804.4,15.7V26h-1.4
		V15.7H804.4z M811.1,21.7c0-0.3,0-0.5-0.1-0.7c-0.1-0.2-0.2-0.4-0.3-0.6c-0.1-0.2-0.3-0.3-0.5-0.4c-0.2-0.1-0.5-0.1-0.7-0.1
		c-0.6,0-1,0.2-1.4,0.5c-0.3,0.3-0.5,0.8-0.6,1.4H811.1z M812.2,25c-0.2,0.2-0.4,0.4-0.6,0.5c-0.2,0.1-0.5,0.3-0.7,0.3
		c-0.2,0.1-0.5,0.2-0.8,0.2c-0.3,0-0.5,0.1-0.8,0.1c-0.5,0-0.9-0.1-1.4-0.2c-0.4-0.2-0.8-0.4-1.1-0.7c-0.3-0.3-0.5-0.7-0.7-1.2
		c-0.2-0.5-0.3-1-0.3-1.6c0-0.5,0.1-1,0.2-1.4c0.2-0.4,0.4-0.8,0.7-1.1c0.3-0.3,0.6-0.6,1.1-0.7c0.4-0.2,0.9-0.3,1.4-0.3
		c0.4,0,0.8,0.1,1.2,0.2c0.4,0.1,0.7,0.3,1,0.6c0.3,0.3,0.5,0.6,0.6,1c0.2,0.4,0.2,0.8,0.2,1.4c0,0.2,0,0.4-0.1,0.4
		c0,0.1-0.1,0.1-0.3,0.1h-4.7c0,0.4,0.1,0.8,0.2,1.1c0.1,0.3,0.3,0.6,0.4,0.8c0.2,0.2,0.4,0.4,0.7,0.5c0.3,0.1,0.6,0.2,0.9,0.2
		c0.3,0,0.6,0,0.8-0.1c0.2-0.1,0.4-0.1,0.6-0.2c0.2-0.1,0.3-0.2,0.4-0.2c0.1-0.1,0.2-0.1,0.3-0.1c0.1,0,0.2,0,0.3,0.1L812.2,25z"/>
	<rect x="726" y="40" class="st3" width="103" height="1"/>
	<path class="st0" d="M829.5,1.5H926c4.1,0,7.5,3.4,7.5,7.5v24c0,4.1-3.4,7.5-7.5,7.5h-96.5V1.5z"/>
	<g>
		<defs>
			<rect id="SVGID_00000017501449530094209250000007413600575353289402_" x="845" y="11" width="20" height="20"/>
		</defs>
		<clipPath id="SVGID_00000067931399219311817360000001542974911917673870_">
			<use xlink:href="#SVGID_00000017501449530094209250000007413600575353289402_"  style="overflow:visible;"/>
		</clipPath>
		<g style="clip-path:url(#SVGID_00000067931399219311817360000001542974911917673870_);">
			<path class="st5" d="M855,29.3c4.6,0,8.3-3.7,8.3-8.3c0-4.6-3.7-8.3-8.3-8.3c-4.6,0-8.3,3.7-8.3,8.3
				C846.7,25.6,850.4,29.3,855,29.3z"/>
		</g>
	</g>
	<path class="st1" d="M881.1,17.2h-3.2V26h-1.5v-8.8h-3.2v-1.2h7.9V17.2z M882,20.3c0.2-0.5,0.5-0.8,0.8-1.1
		c0.3-0.3,0.7-0.4,1.2-0.4c0.2,0,0.3,0,0.4,0.1c0.1,0,0.3,0.1,0.4,0.2l-0.1,1c0,0.1-0.1,0.2-0.2,0.2c-0.1,0-0.2,0-0.3,0
		c-0.1,0-0.3,0-0.4,0c-0.2,0-0.4,0-0.6,0.1c-0.2,0.1-0.3,0.2-0.5,0.3c-0.1,0.1-0.2,0.3-0.3,0.5c-0.1,0.2-0.2,0.4-0.3,0.6V26h-1.4
		v-7.1h0.8c0.1,0,0.2,0,0.3,0.1c0.1,0.1,0.1,0.1,0.1,0.3L882,20.3z M889.6,22.8c-0.6,0-1,0.1-1.4,0.1c-0.4,0.1-0.7,0.2-0.9,0.3
		c-0.2,0.1-0.4,0.2-0.5,0.4c-0.1,0.1-0.2,0.3-0.2,0.5c0,0.2,0,0.3,0.1,0.5c0.1,0.1,0.1,0.2,0.2,0.3c0.1,0.1,0.2,0.1,0.4,0.2
		c0.1,0,0.3,0.1,0.4,0.1c0.2,0,0.4,0,0.6-0.1c0.2,0,0.3-0.1,0.5-0.2c0.2-0.1,0.3-0.2,0.4-0.3c0.1-0.1,0.3-0.2,0.4-0.4V22.8z
		 M885.6,19.9c0.4-0.4,0.8-0.7,1.3-0.8c0.5-0.2,1-0.3,1.5-0.3c0.4,0,0.8,0.1,1.1,0.2c0.3,0.1,0.6,0.3,0.8,0.6
		c0.2,0.2,0.4,0.5,0.5,0.9c0.1,0.3,0.2,0.7,0.2,1.1V26h-0.6c-0.1,0-0.2,0-0.3-0.1c-0.1,0-0.1-0.1-0.2-0.3l-0.1-0.6
		c-0.2,0.2-0.4,0.3-0.5,0.4c-0.2,0.1-0.4,0.2-0.6,0.3c-0.2,0.1-0.4,0.2-0.6,0.2c-0.2,0-0.5,0.1-0.7,0.1c-0.3,0-0.5,0-0.8-0.1
		c-0.2-0.1-0.5-0.2-0.6-0.4c-0.2-0.2-0.3-0.4-0.4-0.6c-0.1-0.2-0.2-0.5-0.2-0.8c0-0.3,0.1-0.5,0.2-0.8c0.2-0.3,0.4-0.5,0.7-0.7
		c0.3-0.2,0.8-0.4,1.3-0.5c0.6-0.1,1.2-0.2,2-0.2v-0.5c0-0.5-0.1-0.9-0.3-1.2c-0.2-0.3-0.6-0.4-1-0.4c-0.3,0-0.6,0-0.8,0.1
		c-0.2,0.1-0.4,0.2-0.5,0.3c-0.1,0.1-0.3,0.2-0.4,0.2c-0.1,0.1-0.2,0.1-0.3,0.1c-0.1,0-0.2,0-0.2-0.1c-0.1-0.1-0.1-0.1-0.2-0.2
		L885.6,19.9z M894.2,18.9V26h-1.4v-7.1H894.2z M894.4,16.7c0,0.1,0,0.2-0.1,0.4c-0.1,0.1-0.1,0.2-0.2,0.3c-0.1,0.1-0.2,0.2-0.3,0.2
		c-0.1,0-0.2,0.1-0.4,0.1c-0.1,0-0.2,0-0.4-0.1c-0.1-0.1-0.2-0.1-0.3-0.2c-0.1-0.1-0.2-0.2-0.2-0.3c0-0.1-0.1-0.2-0.1-0.4
		c0-0.1,0-0.3,0.1-0.4c0.1-0.1,0.1-0.2,0.2-0.3c0.1-0.1,0.2-0.2,0.3-0.2c0.1-0.1,0.2-0.1,0.4-0.1c0.1,0,0.2,0,0.4,0.1
		c0.1,0,0.2,0.1,0.3,0.2c0.1,0.1,0.2,0.2,0.2,0.3C894.4,16.4,894.4,16.6,894.4,16.7z M897.6,15.7V26h-1.4V15.7H897.6z M900.9,18.9
		V26h-1.4v-7.1H900.9z M901.2,16.7c0,0.1,0,0.2-0.1,0.4c-0.1,0.1-0.1,0.2-0.2,0.3c-0.1,0.1-0.2,0.2-0.3,0.2c-0.1,0-0.2,0.1-0.4,0.1
		c-0.1,0-0.2,0-0.4-0.1c-0.1-0.1-0.2-0.1-0.3-0.2c-0.1-0.1-0.2-0.2-0.2-0.3c0-0.1-0.1-0.2-0.1-0.4c0-0.1,0-0.3,0.1-0.4
		c0.1-0.1,0.1-0.2,0.2-0.3c0.1-0.1,0.2-0.2,0.3-0.2c0.1-0.1,0.2-0.1,0.4-0.1c0.1,0,0.2,0,0.4,0.1c0.1,0,0.2,0.1,0.3,0.2
		c0.1,0.1,0.2,0.2,0.2,0.3C901.2,16.4,901.2,16.6,901.2,16.7z M904.2,19.9c0.2-0.2,0.3-0.3,0.5-0.4c0.2-0.1,0.3-0.2,0.5-0.3
		c0.2-0.1,0.4-0.2,0.6-0.2c0.2-0.1,0.5-0.1,0.7-0.1c0.4,0,0.7,0.1,1,0.2c0.3,0.1,0.5,0.3,0.7,0.6c0.2,0.2,0.4,0.5,0.5,0.8
		c0.1,0.3,0.2,0.7,0.2,1.1V26h-1.4v-4.5c0-0.5-0.1-0.9-0.4-1.2c-0.2-0.3-0.6-0.4-1.1-0.4c-0.3,0-0.7,0.1-1,0.3
		c-0.3,0.2-0.6,0.4-0.8,0.7V26h-1.4v-7.1h0.8c0.2,0,0.3,0.1,0.4,0.3L904.2,19.9z M913.2,22.5c0.2,0,0.5,0,0.6-0.1
		c0.2-0.1,0.3-0.2,0.5-0.3c0.1-0.1,0.2-0.3,0.3-0.4c0.1-0.2,0.1-0.4,0.1-0.6c0-0.4-0.1-0.7-0.4-1c-0.2-0.2-0.6-0.4-1.1-0.4
		c-0.5,0-0.8,0.1-1.1,0.4c-0.2,0.2-0.4,0.6-0.4,1c0,0.2,0,0.4,0.1,0.6c0.1,0.2,0.2,0.3,0.3,0.4c0.1,0.1,0.3,0.2,0.5,0.3
		C912.8,22.4,913,22.5,913.2,22.5z M915.4,26.4c0-0.2,0-0.3-0.1-0.4c-0.1-0.1-0.2-0.2-0.4-0.2c-0.2-0.1-0.3-0.1-0.6-0.1
		c-0.2,0-0.4,0-0.7-0.1c-0.2,0-0.5,0-0.7,0c-0.2,0-0.5,0-0.7-0.1c-0.2,0.1-0.4,0.3-0.6,0.4c-0.2,0.2-0.2,0.4-0.2,0.6
		c0,0.1,0,0.3,0.1,0.4c0.1,0.1,0.2,0.2,0.4,0.3c0.2,0.1,0.4,0.2,0.6,0.2c0.2,0.1,0.5,0.1,0.9,0.1c0.3,0,0.6,0,0.9-0.1
		c0.3-0.1,0.5-0.1,0.6-0.2c0.2-0.1,0.3-0.2,0.4-0.4C915.4,26.7,915.4,26.5,915.4,26.4z M916.8,19.2v0.5c0,0.2-0.1,0.3-0.3,0.3
		l-0.8,0.1c0.1,0.1,0.1,0.3,0.2,0.5c0,0.2,0.1,0.3,0.1,0.5c0,0.4-0.1,0.7-0.2,1c-0.1,0.3-0.3,0.5-0.6,0.7c-0.2,0.2-0.5,0.4-0.9,0.5
		c-0.3,0.1-0.7,0.2-1.1,0.2c-0.3,0-0.6,0-0.9-0.1c-0.1,0.1-0.2,0.2-0.3,0.3c-0.1,0.1-0.1,0.2-0.1,0.3c0,0.2,0.1,0.3,0.2,0.4
		c0.1,0.1,0.3,0.1,0.5,0.2c0.2,0,0.5,0.1,0.8,0.1c0.3,0,0.6,0,0.9,0c0.3,0,0.6,0.1,0.9,0.1c0.3,0.1,0.5,0.1,0.8,0.3
		c0.2,0.1,0.4,0.3,0.5,0.5c0.1,0.2,0.2,0.5,0.2,0.8c0,0.3-0.1,0.6-0.2,0.9c-0.1,0.3-0.4,0.5-0.7,0.8c-0.3,0.2-0.6,0.4-1.1,0.5
		c-0.4,0.1-0.9,0.2-1.4,0.2c-0.5,0-1-0.1-1.4-0.2c-0.4-0.1-0.7-0.2-1-0.4c-0.3-0.2-0.5-0.4-0.6-0.6c-0.1-0.2-0.2-0.5-0.2-0.7
		c0-0.3,0.1-0.6,0.3-0.9c0.2-0.2,0.5-0.4,0.9-0.6c-0.2-0.1-0.4-0.2-0.5-0.4c-0.1-0.2-0.2-0.4-0.2-0.6c0-0.1,0-0.2,0.1-0.3
		c0-0.1,0.1-0.2,0.2-0.3c0.1-0.1,0.2-0.2,0.3-0.3c0.1-0.1,0.2-0.2,0.4-0.3c-0.4-0.2-0.6-0.5-0.8-0.8c-0.2-0.3-0.3-0.7-0.3-1.1
		c0-0.4,0.1-0.7,0.2-0.9c0.1-0.3,0.3-0.5,0.6-0.7c0.2-0.2,0.5-0.4,0.9-0.5c0.3-0.1,0.7-0.2,1.1-0.2c0.6,0,1.1,0.1,1.6,0.4H916.8z"/>
	<path class="st2" d="M829.5,1.5H926c4.1,0,7.5,3.4,7.5,7.5v24c0,4.1-3.4,7.5-7.5,7.5h-96.5V1.5z"/>
</g>
</svg>
