<svg width="554" height="524" viewBox="0 0 554 524" width="554" heught="253" fill="none" xmlns="http://www.w3.org/2000/svg">
<rect x="127.434" y="159.515" width="72.6528" height="65.0287" rx="16" fill="#C4C4C4"/>
<rect x="127.434" y="87.3096" width="72.6528" height="65.0287" rx="16" fill="#C4C4C4"/>
<rect x="127.434" y="15.1055" width="72.6528" height="65.0287" rx="16" fill="#C4C4C4"/>
<rect x="204.57" y="87.3096" width="72.6528" height="65.0287" rx="16" fill="#C4C4C4"/>
<rect x="204.57" y="159.515" width="72.6528" height="65.0287" rx="16" fill="#C4C4C4"/>
<rect x="281.707" y="87.3096" width="72.6528" height="65.0287" rx="16" fill="#C4C4C4"/>
<rect x="204.57" y="15.1055" width="72.6528" height="65.0287" rx="16" fill="#C4C4C4"/>
<rect x="358.848" y="87.3096" width="72.6528" height="65.0287" rx="16" fill="#C4C4C4"/>
<rect x="281.707" y="159.515" width="72.6528" height="65.0287" rx="16" fill="#656565"/>
<rect x="281.707" y="15.1055" width="72.6528" height="65.0287" rx="16" fill="#C4C4C4"/>
<rect x="358.848" y="159.515" width="72.6528" height="65.0287" rx="16" fill="#C4C4C4"/>
<rect x="358.848" y="15.1055" width="72.6528" height="65.0287" rx="16" fill="#C4C4C4"/>
<rect x="281.707" y="15.1055" width="149.79" height="137.233" rx="16" fill="#656565"/>
<rect x="124.5" y="12.6211" width="155.208" height="141.306" rx="14" fill="#F09436" fill-opacity="0.3" stroke="#F09436" stroke-width="4" stroke-dasharray="8 8"/>
<rect x="122.5" y="447.294" width="73.8314" height="66.0837" rx="16" fill="#C4C4C4"/>
<rect x="200.891" y="373.919" width="73.8314" height="66.0837" rx="16" fill="#C4C4C4"/>
<rect x="200.891" y="447.294" width="73.8314" height="66.0837" rx="16" fill="#C4C4C4"/>
<rect x="279.281" y="373.919" width="73.8314" height="66.0837" rx="16" fill="#C4C4C4"/>
<rect x="200.891" y="300.543" width="73.8314" height="66.0837" rx="16" fill="#C4C4C4"/>
<rect x="357.668" y="373.919" width="73.8314" height="66.0837" rx="16" fill="#C4C4C4"/>
<rect x="279.281" y="447.294" width="73.8314" height="66.0837" rx="16" fill="#656565"/>
<rect x="279.281" y="300.543" width="73.8314" height="66.0837" rx="16" fill="#C4C4C4"/>
<rect x="357.668" y="447.294" width="73.8314" height="66.0837" rx="16" fill="#C4C4C4"/>
<rect x="357.668" y="300.543" width="73.8314" height="66.0837" rx="16" fill="#C4C4C4"/>
<rect x="279.281" y="300.543" width="152.22" height="139.459" rx="16" fill="#656565"/>
<rect x="122.5" y="300.543" width="152.22" height="139.459" rx="16" fill="#F09436"/>
</svg>
