<?xml version="1.0" encoding="UTF-8"?><svg xmlns="http://www.w3.org/2000/svg" xmlns:xlink="http://www.w3.org/1999/xlink" viewBox="0 0 2287.04 1197.27"><defs><linearGradient id="linear-gradient" x1="1127.67" y1="655.2" x2="211.72" y2="1193.75" gradientTransform="translate(1060.26 1425.88) rotate(-30) scale(1 -.87) skewX(-26.57)" gradientUnits="userSpaceOnUse"><stop offset="0" stop-color="#000"/><stop offset="1" stop-color="#000" stop-opacity="0"/></linearGradient></defs><g id="Base"><polygon points="1.59 684.78 1185.83 1.12 2073.57 513.61 889.34 1197.27 1.59 684.78" style="fill:#131313;"/><polygon points="1.59 684.78 1185.83 1.12 2073.57 513.61 889.34 1197.27 1.59 684.78" style="fill:url(#linear-gradient); fill-opacity:.7;"/><path d="M103.27,730.41l1.85-1.07-8.81-5.09,3.2-1.85-1.56-.9-8.25,4.76,1.56,.9,3.19-1.84,8.81,5.09Zm7.45-4.15c1.04-.6,1.42-1.34,1.09-2.02l.12-.07,1.08,.62,1.77-1.02-5.37-3.1c-1.66-.96-3.77-.87-5.79,.3-1.87,1.08-2.26,2.32-1.11,3.18l.06,.04,1.69-.98-.02-.02c-.34-.4-.1-.88,.72-1.35,.96-.56,1.9-.6,2.69-.15l.68,.39-1.9,1.24c-1.8,1.17-2.05,2.26-.65,3.07h.01c1.43,.83,3.44,.74,4.93-.12Zm-3.25-.94h-.01c-.65-.38-.55-.86,.39-1.48l1.65-1.09,.63,.37c.93,.54,.84,1.41-.24,2.03-.79,.46-1.75,.56-2.42,.17Zm11.86-1.17l1.79-1.03-3.86-2.23,.12-.07c1.26,.25,2.69,.04,3.77-.58,1.99-1.15,1.68-2.76-.82-4.2h-.01c-2.49-1.44-5.31-1.62-7.28-.49-1.1,.64-1.45,1.42-1.03,2.16l-.12,.07-1.23-.71-1.79,1.03,10.47,6.04Zm-.25-4.46c-1.22,.7-2.94,.58-4.51-.33h-.01c-1.57-.92-1.78-1.91-.57-2.61,1.22-.71,2.93-.58,4.51,.34h.01c1.58,.92,1.8,1.9,.58,2.61Zm13.61-6.22c.34-.2,.65-.41,.86-.58l-1.38-.8c-.19,.14-.32,.22-.57,.37-.75,.43-1.39,.42-2.17-.03l-3.96-2.29,1.66-.96-1.39-.8-1.66,.96-1.93-1.11-1.82,1.05,1.93,1.11-1.22,.7,1.39,.8,1.22-.71,4.39,2.53c1.52,.88,2.86,.8,4.67-.24Zm5.95-3.29c2.35-1.36,2.24-3.07-.3-4.54h-.01c-2.53-1.47-5.51-1.53-7.85-.17-2.34,1.35-2.24,3.08,.29,4.53h.01c2.54,1.48,5.51,1.54,7.86,.18Zm-1.45-.84c-1.24,.72-2.93,.57-4.58-.39h-.01c-1.65-.96-1.92-1.94-.68-2.66,1.24-.71,2.93-.56,4.58,.39h.01c1.65,.96,1.92,1.93,.68,2.65Zm12.65-5.66c1.03-.6,1.42-1.34,1.09-2.03l.12-.07,1.08,.62,1.77-1.02-5.37-3.1c-1.66-.96-3.77-.87-5.79,.3-1.87,1.08-2.26,2.32-1.11,3.18l.06,.04,1.69-.97-.02-.02c-.34-.4-.1-.88,.72-1.35,.96-.56,1.9-.6,2.69-.15l.68,.39-1.9,1.24c-1.8,1.17-2.05,2.26-.65,3.07h.01c1.43,.83,3.44,.74,4.93-.12Zm-3.25-.94h-.01c-.65-.38-.55-.86,.39-1.48l1.65-1.09,.63,.36c.94,.54,.84,1.41-.24,2.03-.79,.46-1.75,.56-2.42,.17Zm12.21-4.24c1.11-.64,1.45-1.42,1.03-2.16l.12-.07,1.23,.71,1.8-1.04-10.9-6.29-1.8,1.04,4.29,2.48-.12,.07c-1.26-.25-2.69-.04-3.77,.58-1.99,1.15-1.67,2.76,.83,4.2h.01c2.49,1.44,5.3,1.62,7.27,.48Zm-.95-1.2c-1.22,.71-2.92,.58-4.5-.33h-.01c-1.58-.92-1.8-1.91-.58-2.61,1.21-.7,2.95-.58,4.52,.33h.01c1.57,.92,1.78,1.91,.56,2.61Zm10.13-4.1c1.11-.64,1.45-1.42,1.03-2.16l.12-.07,1.23,.71,1.8-1.04-10.9-6.29-1.8,1.04,4.29,2.48-.12,.07c-1.26-.25-2.69-.04-3.77,.58-1.99,1.15-1.67,2.76,.83,4.2h.01c2.49,1.44,5.3,1.62,7.27,.48Zm-.95-1.2c-1.22,.71-2.92,.58-4.5-.33h-.01c-1.58-.92-1.8-1.91-.58-2.61,1.21-.7,2.95-.58,4.52,.33h.01c1.57,.92,1.78,1.91,.56,2.61Zm10.89-4.69l1.79-1.03-4.58-2.64c-1.18-.68-1.26-1.49-.2-2.11,1.09-.63,2.2-.56,3.42,.15l4.67,2.69,1.79-1.03-5.08-2.93c-1.87-1.08-3.88-1.14-5.64-.12-1.14,.66-1.38,1.39-.91,2.09l-.12,.07-1.2-.69-1.79,1.03,7.86,4.54Zm12.31-6.93c2.14-1.23,1.96-2.55,1.19-3.28l-.04-.05-1.7,.98,.03,.04c.19,.31,.12,.91-.85,1.47-1.22,.7-2.8,.67-4.23-.13l5.49-3.17-.59-.34c-2.37-1.37-5.32-1.48-7.55-.19-2.24,1.29-2.05,3.05,.42,4.48h0c2.5,1.45,5.49,1.54,7.82,.19Zm-6.83-3.87c1-.58,2.37-.63,3.77,.05l-3.73,2.15c-1.11-.8-1.04-1.62-.04-2.2Zm13.18,.02l1.85-1.07-4.17-4.17,.12-.07,7.22,2.4,1.88-1.08-5.73-5.76-1.78,1.03,4.6,4.16-.12,.07-7.43-2.53-1.7,.98,4.39,4.28-.12,.07-7.21-2.65-1.8,1.04,9.99,3.31Zm15.6-9.01l1.85-1.07-4.17-4.17,.12-.07,7.22,2.4,1.88-1.08-5.73-5.76-1.77,1.03,4.6,4.16-.12,.07-7.43-2.53-1.7,.98,4.39,4.28-.12,.07-7.21-2.65-1.8,1.04,9.99,3.31Zm2.14-11.82c.58-.34,.6-.88,0-1.22-.58-.34-1.54-.33-2.12,0-.59,.34-.6,.89-.01,1.23,.59,.34,1.54,.33,2.13,0Zm8.27,5.81l1.79-1.03-7.86-4.54-1.79,1.03,7.86,4.54Zm6.74-3.74c1.11-.64,1.45-1.42,1.03-2.16l.12-.07,1.23,.71,1.8-1.04-10.9-6.29-1.8,1.04,4.29,2.48-.12,.07c-1.26-.25-2.69-.04-3.77,.58-1.99,1.15-1.67,2.76,.83,4.2h.01c2.49,1.44,5.3,1.62,7.27,.48Zm-.95-1.2c-1.22,.71-2.92,.58-4.5-.33h-.01c-1.58-.92-1.8-1.91-.58-2.61,1.21-.7,2.95-.58,4.52,.33h.01c1.57,.92,1.78,1.91,.56,2.61Zm13.31-2.9c2.29-1.32,2.6-2.82,.79-3.87l-7.66-4.42-1.79,1.03,1.29,.75-.09,.05c-1.34-.26-2.72-.08-3.8,.55-2.03,1.17-1.7,2.79,.57,4.1h.02c2.23,1.3,5,1.47,6.99,.32,1.08-.63,1.48-1.39,1.09-2.13l.12-.07,1.5,.87c1.01,.58,.86,1.32-.36,2.03-1,.58-1.95,.72-2.57,.5h-.03s-1.79,1.03-1.79,1.03l.02,.02c1.5,.66,3.63,.45,5.7-.74Zm-4.55-2.63c-1.24,.72-2.9,.57-4.29-.23h-.01c-1.39-.81-1.65-1.77-.4-2.49,1.24-.71,2.96-.59,4.34,.21h.01c1.39,.81,1.6,1.79,.35,2.51Zm11.04-4.13c2.14-1.23,1.96-2.55,1.19-3.28l-.04-.05-1.7,.98,.03,.04c.19,.31,.12,.91-.85,1.47-1.21,.7-2.8,.67-4.23-.13l5.49-3.17-.59-.34c-2.37-1.37-5.32-1.48-7.55-.19-2.24,1.29-2.05,3.05,.42,4.48h0c2.5,1.45,5.48,1.54,7.82,.19Zm-6.83-3.87c1-.58,2.37-.63,3.77,.05l-3.73,2.15c-1.11-.8-1.04-1.62-.04-2.2Zm14.91-.94c.35-.2,.65-.41,.86-.58l-1.38-.8c-.2,.14-.32,.22-.58,.36-.75,.43-1.39,.42-2.17-.03l-3.96-2.29,1.66-.96-1.39-.8-1.66,.96-1.93-1.11-1.82,1.05,1.93,1.11-1.22,.71,1.39,.8,1.22-.71,4.39,2.53c1.52,.88,2.86,.8,4.66-.24Zm5.5-3.03c1.93-1.12,2.34-2.5,.84-3.37h-.02c-1.14-.67-2.52-.63-4.41,.06l-1.55,.57c-1.04,.38-1.65,.41-2.11,.14h0c-.59-.34-.4-.9,.39-1.36,.84-.49,1.76-.55,2.39-.34h.03s1.68-.96,1.68-.96h-.01c-1.39-.68-3.48-.57-5.39,.54-1.86,1.07-2.17,2.38-.76,3.2h0c1.16,.67,2.57,.67,4.4,0l1.56-.57c1.06-.39,1.7-.41,2.16-.14h.01c.59,.35,.37,.94-.52,1.45-.89,.51-1.8,.6-2.53,.39h-.02s-1.78,1.02-1.78,1.02h.01c1.48,.69,3.61,.52,5.61-.63Zm7.28-1.22l1.22-.7-3.07-3.22-1.85,1.07,3.69,2.85Zm8.82-8.1c1.11-.64,1.45-1.42,1.03-2.16l.12-.07,1.23,.71,1.8-1.04-10.9-6.29-1.8,1.04,4.29,2.48-.12,.07c-1.26-.25-2.69-.04-3.77,.58-1.99,1.15-1.67,2.76,.83,4.2h.01c2.49,1.44,5.3,1.62,7.27,.49Zm-.95-1.2c-1.22,.71-2.92,.58-4.5-.33h-.01c-1.58-.92-1.8-1.91-.58-2.61,1.21-.7,2.95-.58,4.52,.33h.01c1.57,.92,1.78,1.91,.56,2.61Zm7.17-2.54l1.79-1.03-4.57-2.64c-1.12-.65-1.05-1.51,.14-2.2,.31-.18,.65-.32,.99-.46l-1.6-.93c-.22,.07-.54,.21-.81,.37-1.04,.6-1.26,1.3-.68,1.94l-.12,.07-1.21-.7-1.79,1.03,7.86,4.54Zm8.09-4.52c1.04-.6,1.42-1.34,1.09-2.03l.12-.07,1.08,.62,1.77-1.02-5.37-3.1c-1.66-.96-3.77-.87-5.79,.3-1.87,1.08-2.26,2.32-1.11,3.18l.06,.04,1.69-.97-.02-.02c-.34-.4-.1-.88,.72-1.35,.96-.56,1.91-.6,2.69-.15l.68,.39-1.9,1.24c-1.8,1.17-2.05,2.26-.65,3.07h.01c1.43,.83,3.44,.74,4.93-.12Zm-3.25-.94h-.02c-.65-.38-.55-.86,.39-1.48l1.65-1.09,.63,.37c.93,.54,.84,1.41-.24,2.03-.79,.46-1.75,.56-2.42,.17Zm15.39-3.03c2.29-1.32,2.6-2.82,.79-3.87l-7.66-4.42-1.79,1.03,1.29,.75-.09,.05c-1.34-.26-2.72-.07-3.8,.55-2.03,1.17-1.7,2.79,.58,4.1h.01c2.23,1.3,5,1.47,6.99,.32,1.08-.63,1.48-1.39,1.09-2.13l.12-.07,1.5,.87c1.01,.58,.86,1.32-.36,2.02-1,.58-1.95,.72-2.57,.5h-.03s-1.79,1.02-1.79,1.02v.02c1.52,.66,3.64,.45,5.72-.74Zm-4.55-2.63c-1.24,.72-2.9,.57-4.29-.23h-.01c-1.39-.81-1.65-1.77-.4-2.49,1.24-.71,2.96-.59,4.34,.21h.01c1.39,.81,1.6,1.79,.35,2.51Zm14.36-6.18c.35-.2,.65-.41,.86-.59l-1.38-.8c-.19,.14-.32,.22-.58,.37-.75,.43-1.39,.42-2.17-.03l-3.96-2.29,1.66-.96-1.39-.8-1.66,.96-1.93-1.11-1.82,1.05,1.93,1.11-1.22,.71,1.39,.8,1.22-.71,4.38,2.53c1.52,.88,2.86,.8,4.67-.24Zm5.95-3.3c2.35-1.36,2.24-3.07-.3-4.54h-.02c-2.53-1.47-5.51-1.53-7.85-.17-2.34,1.35-2.24,3.08,.29,4.53h.01c2.54,1.48,5.51,1.54,7.86,.18Zm-1.45-.84c-1.24,.72-2.92,.57-4.58-.39h-.01c-1.65-.96-1.92-1.94-.68-2.66,1.24-.71,2.93-.56,4.58,.39h.02c1.65,.96,1.92,1.93,.67,2.65Zm13.91-6.36c1.99-1.15,2.08-2.44,.73-3.51l-.04-.04-1.68,.98v.02c.62,.61,.47,1.18-.45,1.71-1.21,.7-2.92,.56-4.59-.41h-.01c-1.65-.96-1.89-1.93-.67-2.64,.98-.57,2.11-.58,3.03-.24h.03s1.69-.97,1.69-.97l-.03-.02c-1.83-.82-4.16-.77-6.18,.39-2.37,1.36-2.24,3.04,.3,4.51h.01c2.57,1.49,5.49,1.57,7.86,.2Zm4.83-2.97l1.79-1.03-4.58-2.64c-1.18-.68-1.27-1.49-.2-2.11,1.09-.63,2.2-.56,3.42,.15l4.67,2.69,1.79-1.03-5.08-2.93c-1.87-1.08-3.88-1.14-5.64-.12-1.14,.66-1.38,1.39-.91,2.09l-.12,.07-4.24-2.45-1.79,1.03,10.9,6.29Zm11.06-6.24c1.03-.6,1.42-1.34,1.09-2.03l.12-.07,1.08,.62,1.77-1.02-5.37-3.1c-1.66-.96-3.77-.87-5.8,.3-1.87,1.08-2.26,2.32-1.11,3.18l.06,.04,1.69-.98-.02-.02c-.34-.4-.1-.88,.72-1.35,.96-.56,1.9-.6,2.69-.15l.68,.39-1.9,1.24c-1.8,1.17-2.05,2.26-.65,3.07h.01c1.43,.83,3.44,.74,4.93-.12Zm-3.25-.94h-.01c-.65-.38-.55-.86,.39-1.48l1.65-1.09,.63,.36c.93,.54,.84,1.41-.24,2.03-.79,.46-1.75,.56-2.42,.17Zm9.25-2.68l1.79-1.03-4.58-2.64c-1.18-.68-1.27-1.49-.2-2.11,1.08-.63,2.2-.56,3.42,.15l4.66,2.69,1.79-1.03-5.08-2.93c-1.87-1.08-3.88-1.14-5.64-.12-1.14,.66-1.38,1.39-.91,2.09l-.12,.07-1.2-.69-1.79,1.03,7.86,4.54Zm14.93-5.43c2.29-1.32,2.6-2.82,.79-3.87l-7.66-4.42-1.79,1.03,1.29,.75-.09,.05c-1.34-.26-2.72-.08-3.8,.55-2.03,1.17-1.7,2.79,.58,4.1h.01c2.23,1.29,5,1.47,6.99,.32,1.09-.63,1.48-1.39,1.09-2.13l.12-.07,1.5,.87c1.01,.58,.86,1.32-.36,2.03-1,.58-1.95,.72-2.57,.5h-.03s-1.79,1.02-1.79,1.02v.02c1.52,.66,3.65,.45,5.72-.74Zm-4.55-2.63c-1.24,.72-2.9,.57-4.29-.23h-.02c-1.39-.81-1.65-1.77-.4-2.49,1.24-.71,2.95-.59,4.34,.21h.01c1.39,.81,1.6,1.79,.35,2.51Zm11.04-4.12c2.14-1.23,1.96-2.55,1.19-3.28l-.04-.05-1.7,.98,.03,.04c.19,.31,.12,.91-.85,1.47-1.21,.7-2.8,.67-4.23-.13l5.49-3.17-.59-.34c-2.37-1.37-5.32-1.48-7.56-.19-2.23,1.29-2.05,3.05,.43,4.48h0c2.5,1.45,5.48,1.54,7.82,.19Zm-6.83-3.87c1-.58,2.36-.63,3.77,.05l-3.73,2.15c-1.11-.8-1.04-1.62-.04-2.2Zm18.63-2.94c1.93-1.12,2.34-2.5,.84-3.37h-.01c-1.14-.67-2.52-.63-4.41,.06l-1.55,.57c-1.04,.38-1.65,.41-2.11,.14h0c-.59-.34-.4-.9,.39-1.36,.84-.49,1.76-.55,2.39-.34h.03s1.68-.96,1.68-.96h-.02c-1.39-.68-3.48-.57-5.39,.54-1.86,1.07-2.17,2.38-.76,3.2h0c1.16,.67,2.57,.67,4.4,0l1.56-.57c1.06-.39,1.7-.41,2.16-.14h.01c.59,.35,.37,.94-.52,1.45-.89,.52-1.8,.6-2.53,.39h-.02s-1.78,1.02-1.78,1.02h.01c1.48,.69,3.61,.52,5.61-.63Zm-3.48-8.77c.58-.34,.6-.88,0-1.22-.58-.34-1.54-.33-2.12,0-.59,.34-.6,.89-.01,1.23,.59,.34,1.54,.33,2.13,0Zm8.27,5.82l1.79-1.03-7.86-4.54-1.79,1.03,7.86,4.54Zm3.6-2.08l6.37-3.68-1.38-.8-4.11,2.37-.13-.08-1.11-5.31-1.19-.69-6.27,3.62,1.39,.8,4.15-2.4,.12,.07,1.06,5.45,1.09,.63Zm11.49-6.45c2.13-1.23,1.95-2.55,1.19-3.28l-.04-.05-1.7,.98,.03,.04c.19,.31,.12,.91-.85,1.47-1.21,.7-2.8,.67-4.23-.13l5.49-3.17-.59-.34c-2.37-1.37-5.32-1.48-7.55-.19-2.24,1.29-2.05,3.05,.42,4.48h0c2.5,1.45,5.49,1.53,7.82,.19Zm-6.83-3.87c1-.58,2.36-.63,3.77,.05l-3.73,2.15c-1.11-.8-1.04-1.62-.04-2.2Zm17.77-2.48c1.04-.6,1.42-1.34,1.09-2.03l.12-.07,1.08,.62,1.77-1.02-5.37-3.1c-1.66-.96-3.77-.87-5.79,.3-1.87,1.08-2.26,2.32-1.11,3.18l.06,.04,1.69-.97-.02-.02c-.34-.4-.1-.88,.72-1.35,.96-.56,1.91-.6,2.69-.15l.68,.39-1.9,1.24c-1.8,1.17-2.05,2.26-.65,3.07h.02c1.43,.83,3.44,.74,4.93-.12Zm-3.25-.94h-.01c-.65-.38-.55-.86,.39-1.48l1.65-1.09,.63,.37c.93,.54,.84,1.41-.24,2.03-.79,.46-1.76,.56-2.42,.17Zm9.25-2.68l1.79-1.03-4.58-2.64c-1.18-.68-1.26-1.49-.2-2.11,1.09-.63,2.2-.56,3.42,.15l4.67,2.69,1.79-1.03-5.08-2.93c-1.87-1.08-3.88-1.14-5.64-.12-1.14,.66-1.38,1.39-.91,2.09l-.12,.07-1.2-.69-1.79,1.03,7.86,4.54Zm11.75-6.64c1.11-.64,1.45-1.42,1.03-2.16l.12-.07,1.23,.71,1.8-1.04-10.9-6.29-1.8,1.04,4.29,2.48-.12,.07c-1.26-.25-2.69-.04-3.77,.58-1.99,1.15-1.67,2.76,.83,4.2h.01c2.49,1.44,5.3,1.62,7.27,.48Zm-.95-1.2c-1.22,.71-2.92,.58-4.5-.33h-.01c-1.58-.92-1.8-1.91-.58-2.61,1.21-.7,2.95-.58,4.52,.33h.01c1.58,.92,1.78,1.91,.56,2.61Zm13.49-3.18l1.79-1.03-3.86-2.23,.12-.07c1.26,.25,2.69,.04,3.77-.58,1.99-1.15,1.68-2.76-.82-4.2h-.01c-2.49-1.44-5.31-1.62-7.28-.49-1.1,.63-1.45,1.42-1.03,2.16l-.12,.07-1.23-.71-1.79,1.03,10.47,6.04Zm-.25-4.46c-1.21,.7-2.94,.58-4.51-.33h-.01c-1.57-.92-1.78-1.91-.57-2.61,1.22-.71,2.93-.58,4.51,.34h.01c1.57,.92,1.8,1.9,.58,2.61Zm10.32-4.18c2.35-1.36,2.24-3.07-.3-4.54h-.01c-2.53-1.47-5.51-1.53-7.85-.17-2.34,1.35-2.24,3.08,.29,4.53h.01c2.55,1.48,5.51,1.54,7.86,.18Zm-1.45-.84c-1.24,.72-2.93,.57-4.58-.39h-.01c-1.65-.96-1.92-1.94-.68-2.66,1.24-.71,2.93-.56,4.58,.39h.01c1.65,.96,1.92,1.93,.68,2.65Zm9.79-3.98c1.93-1.12,2.34-2.5,.84-3.37h-.01c-1.14-.67-2.52-.63-4.41,.06l-1.55,.57c-1.04,.38-1.65,.41-2.11,.14h0c-.59-.34-.4-.9,.4-1.36,.84-.49,1.76-.55,2.39-.34h.03s1.68-.96,1.68-.96h-.01c-1.39-.68-3.48-.56-5.39,.54-1.85,1.07-2.17,2.38-.76,3.2h0c1.16,.67,2.57,.67,4.4,0l1.56-.57c1.06-.39,1.7-.41,2.16-.15h.01c.59,.35,.37,.94-.52,1.45-.89,.51-1.8,.6-2.53,.39h-.02s-1.77,1.02-1.77,1.02h.01c1.48,.69,3.61,.52,5.61-.63Zm-3.48-8.77c.58-.34,.6-.88,0-1.22-.58-.34-1.54-.33-2.12,0-.59,.34-.6,.89-.01,1.23,.59,.34,1.54,.33,2.13,0Zm8.27,5.81l1.79-1.03-7.86-4.54-1.79,1.03,7.86,4.54Zm6.91-3.95c.35-.2,.65-.41,.86-.59l-1.38-.8c-.19,.14-.32,.22-.57,.37-.75,.43-1.39,.42-2.17-.03l-3.96-2.29,1.66-.96-1.39-.8-1.66,.96-1.93-1.11-1.82,1.05,1.93,1.11-1.22,.71,1.39,.8,1.22-.71,4.39,2.53c1.52,.88,2.86,.8,4.66-.24Zm-5.78-7.3c.58-.34,.6-.88,0-1.22-.58-.34-1.54-.33-2.12,0-.59,.34-.6,.89-.01,1.23,.59,.34,1.54,.33,2.13,0Zm8.27,5.82l1.79-1.03-7.86-4.54-1.79,1.03,7.86,4.54Zm7.33-4.05c2.35-1.36,2.24-3.07-.3-4.54h-.01c-2.53-1.47-5.51-1.53-7.85-.17-2.34,1.35-2.24,3.08,.29,4.53h.01c2.55,1.48,5.51,1.54,7.86,.18Zm-1.45-.84c-1.24,.72-2.92,.57-4.58-.39h-.01c-1.65-.96-1.92-1.94-.68-2.66,1.24-.71,2.93-.56,4.58,.39h.01c1.65,.96,1.92,1.93,.67,2.65Zm6.67-2.35l1.79-1.03-4.58-2.64c-1.18-.68-1.27-1.49-.2-2.11,1.09-.63,2.2-.56,3.42,.15l4.67,2.69,1.79-1.03-5.08-2.93c-1.87-1.08-3.88-1.14-5.64-.12-1.13,.65-1.38,1.39-.91,2.09l-.12,.07-1.2-.69-1.79,1.03,7.86,4.54Z" style="fill:#d1d1d1;"/></g><g id="Blanks"><g><path d="M121.93,737.64l120.16-69.37c3.35-1.93,8.78-1.93,12.12,0l111.72,64.5c3.35,1.93,3.35,5.07,0,7l-120.16,69.37c-3.35,1.93-8.78,1.93-12.12,0l-111.72-64.5c-3.35-1.93-3.35-5.07,0-7Z" style="fill:#202020;"/><path d="M234.7,733.36l18.48,10.67m0-10.67l-18.48,10.67" style="fill:none; stroke:#f09436; stroke-linecap:round; stroke-linejoin:round; stroke-width:2px;"/><path d="M121.93,737.64l120.16-69.37c3.35-1.93,8.78-1.93,12.12,0l111.72,64.5c3.35,1.93,3.35,5.07,0,7l-120.16,69.37c-3.35,1.93-8.78,1.93-12.12,0l-111.72-64.5c-3.35-1.93-3.35-5.07,0-7Z" style="fill:none; stroke:#374151; stroke-width:2px;"/><path d="M269.81,652.27l120.16-69.37c3.35-1.93,8.78-1.93,12.12,0l111.72,64.5c3.35,1.93,3.35,5.07,0,7l-120.16,69.37c-3.35,1.93-8.78,1.93-12.12,0l-111.72-64.5c-3.35-1.93-3.35-5.07,0-7Z" style="fill:#202020;"/><path d="M418.81,565.27l120.16-69.37c3.35-1.93,8.78-1.93,12.12,0l111.72,64.5c3.35,1.93,3.35,5.07,0,7l-120.16,69.37c-3.35,1.93-8.78,1.93-12.12,0l-111.72-64.5c-3.35-1.93-3.35-5.07,0-7Z" style="fill:#202020;"/><path d="M559.81,645.27l120.16-69.37c3.35-1.93,8.78-1.93,12.12,0l111.72,64.5c3.35,1.93,3.35,5.07,0,7l-120.16,69.37c-3.35,1.93-8.78,1.93-12.12,0l-111.72-64.5c-3.35-1.93-3.35-5.07,0-7Z" style="fill:#202020;"/><path d="M704.81,559.27l120.16-69.37c3.35-1.93,8.78-1.93,12.12,0l111.72,64.5c3.35,1.93,3.35,5.07,0,7l-120.16,69.37c-3.35,1.93-8.78,1.93-12.12,0l-111.72-64.5c-3.35-1.93-3.35-5.07,0-7Z" style="fill:#202020;"/><path d="M564.81,479.27l120.16-69.37c3.35-1.93,8.78-1.93,12.12,0l111.72,64.5c3.35,1.93,3.35,5.07,0,7l-120.16,69.37c-3.35,1.93-8.78,1.93-12.12,0l-111.72-64.5c-3.35-1.93-3.35-5.07,0-7Z" style="fill:#202020;"/><path d="M382.57,647.99l18.48,10.67m0-10.67l-18.48,10.67" style="fill:none; stroke:#f09436; stroke-linecap:round; stroke-linejoin:round; stroke-width:2px;"/><path d="M531.57,560.99l18.48,10.67m0-10.67l-18.48,10.67" style="fill:none; stroke:#f09436; stroke-linecap:round; stroke-linejoin:round; stroke-width:2px;"/><path d="M672.57,640.99l18.48,10.67m0-10.67l-18.48,10.67" style="fill:none; stroke:#f09436; stroke-linecap:round; stroke-linejoin:round; stroke-width:2px;"/><path d="M817.57,554.99l18.48,10.67m0-10.67l-18.48,10.67" style="fill:none; stroke:#f09436; stroke-linecap:round; stroke-linejoin:round; stroke-width:2px;"/><path d="M677.57,474.99l18.48,10.67m0-10.67l-18.48,10.67" style="fill:none; stroke:#f09436; stroke-linecap:round; stroke-linejoin:round; stroke-width:2px;"/><path d="M269.81,652.27l120.16-69.37c3.35-1.93,8.78-1.93,12.12,0l111.72,64.5c3.35,1.93,3.35,5.07,0,7l-120.16,69.37c-3.35,1.93-8.78,1.93-12.12,0l-111.72-64.5c-3.35-1.93-3.35-5.07,0-7Z" style="fill:none; stroke:#374151; stroke-width:2px;"/><path d="M418.81,565.27l120.16-69.37c3.35-1.93,8.78-1.93,12.12,0l111.72,64.5c3.35,1.93,3.35,5.07,0,7l-120.16,69.37c-3.35,1.93-8.78,1.93-12.12,0l-111.72-64.5c-3.35-1.93-3.35-5.07,0-7Z" style="fill:none; stroke:#374151; stroke-width:2px;"/><path d="M559.81,645.27l120.16-69.37c3.35-1.93,8.78-1.93,12.12,0l111.72,64.5c3.35,1.93,3.35,5.07,0,7l-120.16,69.37c-3.35,1.93-8.78,1.93-12.12,0l-111.72-64.5c-3.35-1.93-3.35-5.07,0-7Z" style="fill:none; stroke:#374151; stroke-width:2px;"/><path d="M704.81,559.27l120.16-69.37c3.35-1.93,8.78-1.93,12.12,0l111.72,64.5c3.35,1.93,3.35,5.07,0,7l-120.16,69.37c-3.35,1.93-8.78,1.93-12.12,0l-111.72-64.5c-3.35-1.93-3.35-5.07,0-7Z" style="fill:none; stroke:#374151; stroke-width:2px;"/><path d="M564.81,479.27l120.16-69.37c3.35-1.93,8.78-1.93,12.12,0l111.72,64.5c3.35,1.93,3.35,5.07,0,7l-120.16,69.37c-3.35,1.93-8.78,1.93-12.12,0l-111.72-64.5c-3.35-1.93-3.35-5.07,0-7Z" style="fill:none; stroke:#374151; stroke-width:2px;"/><path d="M713.44,396.16l120.16-69.37c3.35-1.93,8.78-1.93,12.12,0l111.72,64.5c3.35,1.93,3.35,5.07,0,7l-120.16,69.37c-3.35,1.93-8.78,1.93-12.12,0l-111.72-64.5c-3.35-1.93-3.35-5.07,0-7Z" style="fill:#202020;"/><path d="M826.2,391.89l18.48,10.67m0-10.67l-18.48,10.67" style="fill:none; stroke:#f09436; stroke-linecap:round; stroke-linejoin:round; stroke-width:2px;"/><path d="M713.44,396.16l120.16-69.37c3.35-1.93,8.78-1.93,12.12,0l111.72,64.5c3.35,1.93,3.35,5.07,0,7l-120.16,69.37c-3.35,1.93-8.78,1.93-12.12,0l-111.72-64.5c-3.35-1.93-3.35-5.07,0-7Z" style="fill:none; stroke:#374151; stroke-width:2px;"/><path d="M861.32,310.79l120.16-69.37c3.35-1.93,8.78-1.93,12.12,0l111.72,64.5c3.35,1.93,3.35,5.07,0,7l-120.16,69.37c-3.35,1.93-8.78,1.93-12.12,0l-111.72-64.5c-3.35-1.93-3.35-5.07,0-7Z" style="fill:#202020;"/><path d="M974.09,306.52l18.47,10.67m0-10.67l-18.47,10.67" style="fill:none; stroke:#f09436; stroke-linecap:round; stroke-linejoin:round; stroke-width:2px;"/><path d="M861.32,310.79l120.16-69.37c3.35-1.93,8.78-1.93,12.12,0l111.72,64.5c3.35,1.93,3.35,5.07,0,7l-120.16,69.37c-3.35,1.93-8.78,1.93-12.12,0l-111.72-64.5c-3.35-1.93-3.35-5.07,0-7Z" style="fill:none; stroke:#374151; stroke-width:2px;"/><path d="M1009.19,225.42l120.16-69.37c3.35-1.93,8.78-1.93,12.12,0l111.72,64.5c3.35,1.93,3.35,5.07,0,7l-120.16,69.37c-3.35,1.93-8.78,1.93-12.12,0l-111.72-64.5c-3.35-1.93-3.35-5.07,0-7Z" style="fill:#202020;"/><path d="M1121.96,221.15l18.48,10.67m0-10.67l-18.48,10.67" style="fill:none; stroke:#f09436; stroke-linecap:round; stroke-linejoin:round; stroke-width:2px;"/><path d="M1009.19,225.42l120.16-69.37c3.35-1.93,8.78-1.93,12.12,0l111.72,64.5c3.35,1.93,3.35,5.07,0,7l-120.16,69.37c-3.35,1.93-8.78,1.93-12.12,0l-111.72-64.5c-3.35-1.93-3.35-5.07,0-7Z" style="fill:none; stroke:#374151; stroke-width:2px;"/><path d="M1157.07,140.05l120.16-69.37c3.35-1.93,8.78-1.93,12.12,0l111.72,64.5c3.35,1.93,3.35,5.07,0,7l-120.16,69.37c-3.35,1.93-8.78,1.93-12.12,0l-111.72-64.5c-3.35-1.93-3.35-5.07,0-7Z" style="fill:#202020;"/><path d="M1269.84,135.78l18.47,10.67m0-10.67l-18.47,10.67" style="fill:none; stroke:#f09436; stroke-linecap:round; stroke-linejoin:round; stroke-width:2px;"/><path d="M1157.07,140.05l120.16-69.37c3.35-1.93,8.78-1.93,12.12,0l111.72,64.5c3.35,1.93,3.35,5.07,0,7l-120.16,69.37c-3.35,1.93-8.78,1.93-12.12,0l-111.72-64.5c-3.35-1.93-3.35-5.07,0-7Z" style="fill:none; stroke:#374151; stroke-width:2px;"/><path d="M261.36,818.13l120.16-69.37c3.35-1.93,8.78-1.93,12.12,0l111.72,64.5c3.35,1.93,3.35,5.07,0,7l-120.16,69.37c-3.35,1.93-8.78,1.93-12.12,0l-111.72-64.5c-3.35-1.93-3.35-5.07,0-7Z" style="fill:#202020;"/><path d="M374.13,813.86l18.48,10.67m0-10.67l-18.48,10.67" style="fill:none; stroke:#f09436; stroke-linecap:round; stroke-linejoin:round; stroke-width:2px;"/><path d="M261.36,818.13l120.16-69.37c3.35-1.93,8.78-1.93,12.12,0l111.72,64.5c3.35,1.93,3.35,5.07,0,7l-120.16,69.37c-3.35,1.93-8.78,1.93-12.12,0l-111.72-64.5c-3.35-1.93-3.35-5.07,0-7Z" style="fill:none; stroke:#374151; stroke-width:2px;"/><path d="M409.24,732.76l120.16-69.37c3.35-1.93,8.78-1.93,12.12,0l111.72,64.5c3.35,1.93,3.35,5.07,0,7l-120.16,69.37c-3.35,1.93-8.78,1.93-12.12,0l-111.72-64.5c-3.35-1.93-3.35-5.07,0-7Z" style="fill:#202020;"/><path d="M522.01,728.49l18.48,10.67m0-10.67l-18.48,10.67" style="fill:none; stroke:#f09436; stroke-linecap:round; stroke-linejoin:round; stroke-width:2px;"/><path d="M409.24,732.76l120.16-69.37c3.35-1.93,8.78-1.93,12.12,0l111.72,64.5c3.35,1.93,3.35,5.07,0,7l-120.16,69.37c-3.35,1.93-8.78,1.93-12.12,0l-111.72-64.5c-3.35-1.93-3.35-5.07,0-7Z" style="fill:none; stroke:#374151; stroke-width:2px;"/><path d="M852.87,476.65l120.16-69.37c3.35-1.93,8.78-1.93,12.12,0l111.72,64.5c3.35,1.93,3.35,5.07,0,7l-120.16,69.37c-3.35,1.93-8.78,1.93-12.12,0l-111.72-64.5c-3.35-1.93-3.35-5.07,0-7Z" style="fill:#202020;"/><path d="M965.64,472.38l18.48,10.67m0-10.67l-18.48,10.67" style="fill:none; stroke:#f09436; stroke-linecap:round; stroke-linejoin:round; stroke-width:2px;"/><path d="M852.87,476.65l120.16-69.37c3.35-1.93,8.78-1.93,12.12,0l111.72,64.5c3.35,1.93,3.35,5.07,0,7l-120.16,69.37c-3.35,1.93-8.78,1.93-12.12,0l-111.72-64.5c-3.35-1.93-3.35-5.07,0-7Z" style="fill:none; stroke:#374151; stroke-width:2px;"/><path d="M1000.75,391.28l120.16-69.37c3.35-1.93,8.78-1.93,12.12,0l111.72,64.5c3.35,1.93,3.35,5.07,0,7l-120.16,69.37c-3.35,1.93-8.78,1.93-12.12,0l-111.72-64.5c-3.35-1.93-3.35-5.07,0-7Z" style="fill:#202020;"/><path d="M1113.52,387.01l18.47,10.67m0-10.67l-18.47,10.67" style="fill:none; stroke:#f09436; stroke-linecap:round; stroke-linejoin:round; stroke-width:2px;"/><path d="M1000.75,391.28l120.16-69.37c3.35-1.93,8.78-1.93,12.12,0l111.72,64.5c3.35,1.93,3.35,5.07,0,7l-120.16,69.37c-3.35,1.93-8.78,1.93-12.12,0l-111.72-64.5c-3.35-1.93-3.35-5.07,0-7Z" style="fill:none; stroke:#374151; stroke-width:2px;"/><path d="M1148.63,305.91l120.16-69.37c3.35-1.93,8.78-1.93,12.12,0l111.72,64.5c3.35,1.93,3.35,5.07,0,7l-120.16,69.37c-3.35,1.93-8.78,1.93-12.12,0l-111.72-64.5c-3.35-1.93-3.35-5.07,0-7Z" style="fill:#202020;"/><path d="M1261.4,301.64l18.47,10.67m0-10.67l-18.47,10.67" style="fill:none; stroke:#f09436; stroke-linecap:round; stroke-linejoin:round; stroke-width:2px;"/><path d="M1148.63,305.91l120.16-69.37c3.35-1.93,8.78-1.93,12.12,0l111.72,64.5c3.35,1.93,3.35,5.07,0,7l-120.16,69.37c-3.35,1.93-8.78,1.93-12.12,0l-111.72-64.5c-3.35-1.93-3.35-5.07,0-7Z" style="fill:none; stroke:#374151; stroke-width:2px;"/><path d="M1296.5,220.54l120.16-69.37c3.35-1.93,8.78-1.93,12.12,0l111.72,64.5c3.35,1.93,3.35,5.07,0,7l-120.16,69.37c-3.35,1.93-8.78,1.93-12.12,0l-111.72-64.5c-3.35-1.93-3.35-5.07,0-7Z" style="fill:#202020;"/><path d="M1409.27,216.27l18.48,10.67m0-10.67l-18.48,10.67" style="fill:none; stroke:#f09436; stroke-linecap:round; stroke-linejoin:round; stroke-width:2px;"/><path d="M1296.5,220.54l120.16-69.37c3.35-1.93,8.78-1.93,12.12,0l111.72,64.5c3.35,1.93,3.35,5.07,0,7l-120.16,69.37c-3.35,1.93-8.78,1.93-12.12,0l-111.72-64.5c-3.35-1.93-3.35-5.07,0-7Z" style="fill:none; stroke:#374151; stroke-width:2px;"/><path d="M400.79,898.62l120.16-69.37c3.35-1.93,8.78-1.93,12.12,0l111.72,64.5c3.35,1.93,3.35,5.07,0,7l-120.16,69.37c-3.35,1.93-8.78,1.93-12.12,0l-111.72-64.5c-3.35-1.93-3.35-5.07,0-7Z" style="fill:#202020;"/><path d="M513.56,894.35l18.48,10.67m0-10.67l-18.48,10.67" style="fill:none; stroke:#f09436; stroke-linecap:round; stroke-linejoin:round; stroke-width:2px;"/><path d="M400.79,898.62l120.16-69.37c3.35-1.93,8.78-1.93,12.12,0l111.72,64.5c3.35,1.93,3.35,5.07,0,7l-120.16,69.37c-3.35,1.93-8.78,1.93-12.12,0l-111.72-64.5c-3.35-1.93-3.35-5.07,0-7Z" style="fill:none; stroke:#374151; stroke-width:2px;"/><path d="M548.67,813.26l120.16-69.37c3.35-1.93,8.78-1.93,12.12,0l111.72,64.5c3.35,1.93,3.35,5.07,0,7l-120.16,69.37c-3.35,1.93-8.78,1.93-12.12,0l-111.72-64.5c-3.35-1.93-3.35-5.07,0-7Z" style="fill:#202020;"/><path d="M661.44,808.98l18.48,10.67m0-10.67l-18.48,10.67" style="fill:none; stroke:#f09436; stroke-linecap:round; stroke-linejoin:round; stroke-width:2px;"/><path d="M548.67,813.26l120.16-69.37c3.35-1.93,8.78-1.93,12.12,0l111.72,64.5c3.35,1.93,3.35,5.07,0,7l-120.16,69.37c-3.35,1.93-8.78,1.93-12.12,0l-111.72-64.5c-3.35-1.93-3.35-5.07,0-7Z" style="fill:none; stroke:#374151; stroke-width:2px;"/><path d="M696.55,727.89l120.16-69.37c3.35-1.93,8.78-1.93,12.12,0l111.72,64.5c3.35,1.93,3.35,5.07,0,7l-120.16,69.37c-3.35,1.93-8.78,1.93-12.12,0l-111.72-64.5c-3.35-1.93-3.35-5.07,0-7Z" style="fill:#202020;"/><path d="M809.32,723.61l18.48,10.67m0-10.67l-18.48,10.67" style="fill:none; stroke:#f09436; stroke-linecap:round; stroke-linejoin:round; stroke-width:2px;"/><path d="M696.55,727.89l120.16-69.37c3.35-1.93,8.78-1.93,12.12,0l111.72,64.5c3.35,1.93,3.35,5.07,0,7l-120.16,69.37c-3.35,1.93-8.78,1.93-12.12,0l-111.72-64.5c-3.35-1.93-3.35-5.07,0-7Z" style="fill:none; stroke:#374151; stroke-width:2px;"/><path d="M844.43,642.52l120.16-69.37c3.35-1.93,8.78-1.93,12.12,0l111.72,64.5c3.35,1.93,3.35,5.07,0,7l-120.16,69.37c-3.35,1.93-8.78,1.93-12.12,0l-111.72-64.5c-3.35-1.93-3.35-5.07,0-7Z" style="fill:#202020;"/><path d="M957.19,638.24l18.47,10.67m0-10.67l-18.47,10.67" style="fill:none; stroke:#f09436; stroke-linecap:round; stroke-linejoin:round; stroke-width:2px;"/><path d="M844.43,642.52l120.16-69.37c3.35-1.93,8.78-1.93,12.12,0l111.72,64.5c3.35,1.93,3.35,5.07,0,7l-120.16,69.37c-3.35,1.93-8.78,1.93-12.12,0l-111.72-64.5c-3.35-1.93-3.35-5.07,0-7Z" style="fill:none; stroke:#374151; stroke-width:2px;"/><path d="M992.31,557.15l120.16-69.37c3.35-1.93,8.78-1.93,12.12,0l111.72,64.5c3.35,1.93,3.35,5.07,0,7l-120.16,69.37c-3.35,1.93-8.78,1.93-12.12,0l-111.72-64.5c-3.35-1.93-3.35-5.07,0-7Z" style="fill:#202020;"/><path d="M1105.07,552.88l18.48,10.67m0-10.67l-18.48,10.67" style="fill:none; stroke:#f09436; stroke-linecap:round; stroke-linejoin:round; stroke-width:2px;"/><path d="M992.31,557.15l120.16-69.37c3.35-1.93,8.78-1.93,12.12,0l111.72,64.5c3.35,1.93,3.35,5.07,0,7l-120.16,69.37c-3.35,1.93-8.78,1.93-12.12,0l-111.72-64.5c-3.35-1.93-3.35-5.07,0-7Z" style="fill:none; stroke:#374151; stroke-width:2px;"/><path d="M1140.18,471.78l120.16-69.37c3.35-1.93,8.78-1.93,12.12,0l111.72,64.5c3.35,1.93,3.35,5.07,0,7l-120.16,69.37c-3.35,1.93-8.78,1.93-12.12,0l-111.72-64.5c-3.35-1.93-3.35-5.07,0-7Z" style="fill:#202020;"/><path d="M1252.95,467.51l18.48,10.67m0-10.67l-18.48,10.67" style="fill:none; stroke:#f09436; stroke-linecap:round; stroke-linejoin:round; stroke-width:2px;"/><path d="M1140.18,471.78l120.16-69.37c3.35-1.93,8.78-1.93,12.12,0l111.72,64.5c3.35,1.93,3.35,5.07,0,7l-120.16,69.37c-3.35,1.93-8.78,1.93-12.12,0l-111.72-64.5c-3.35-1.93-3.35-5.07,0-7Z" style="fill:none; stroke:#374151; stroke-width:2px;"/><path d="M1288.06,386.41l120.16-69.37c3.35-1.93,8.78-1.93,12.12,0l111.72,64.5c3.35,1.93,3.35,5.07,0,7l-120.16,69.37c-3.35,1.93-8.78,1.93-12.12,0l-111.72-64.5c-3.35-1.93-3.35-5.07,0-7Z" style="fill:#202020;"/><path d="M1400.83,382.14l18.47,10.67m0-10.67l-18.47,10.67" style="fill:none; stroke:#f09436; stroke-linecap:round; stroke-linejoin:round; stroke-width:2px;"/><path d="M1288.06,386.41l120.16-69.37c3.35-1.93,8.78-1.93,12.12,0l111.72,64.5c3.35,1.93,3.35,5.07,0,7l-120.16,69.37c-3.35,1.93-8.78,1.93-12.12,0l-111.72-64.5c-3.35-1.93-3.35-5.07,0-7Z" style="fill:none; stroke:#374151; stroke-width:2px;"/><path d="M1435.94,301.04l120.16-69.37c3.35-1.93,8.78-1.93,12.12,0l111.72,64.5c3.35,1.93,3.35,5.07,0,7l-120.16,69.37c-3.35,1.93-8.78,1.93-12.12,0l-111.72-64.5c-3.35-1.93-3.35-5.07,0-7Z" style="fill:#202020;"/><path d="M1548.71,296.77l18.47,10.67m0-10.67l-18.47,10.67" style="fill:none; stroke:#f09436; stroke-linecap:round; stroke-linejoin:round; stroke-width:2px;"/><path d="M1435.94,301.04l120.16-69.37c3.35-1.93,8.78-1.93,12.12,0l111.72,64.5c3.35,1.93,3.35,5.07,0,7l-120.16,69.37c-3.35,1.93-8.78,1.93-12.12,0l-111.72-64.5c-3.35-1.93-3.35-5.07,0-7Z" style="fill:none; stroke:#374151; stroke-width:2px;"/><path d="M540.23,979.12l120.16-69.37c3.35-1.93,8.78-1.93,12.12,0l111.72,64.5c3.35,1.93,3.35,5.07,0,7l-120.16,69.37c-3.35,1.93-8.78,1.93-12.12,0l-111.72-64.5c-3.35-1.93-3.35-5.07,0-7Z" style="fill:#202020;"/><path d="M652.99,974.85l18.48,10.67m0-10.67l-18.48,10.67" style="fill:none; stroke:#f09436; stroke-linecap:round; stroke-linejoin:round; stroke-width:2px;"/><path d="M540.23,979.12l120.16-69.37c3.35-1.93,8.78-1.93,12.12,0l111.72,64.5c3.35,1.93,3.35,5.07,0,7l-120.16,69.37c-3.35,1.93-8.78,1.93-12.12,0l-111.72-64.5c-3.35-1.93-3.35-5.07,0-7Z" style="fill:none; stroke:#374151; stroke-width:2px;"/><path d="M688.11,893.75l120.16-69.37c3.35-1.93,8.78-1.93,12.12,0l111.72,64.5c3.35,1.93,3.35,5.07,0,7l-120.16,69.37c-3.35,1.93-8.78,1.93-12.12,0l-111.72-64.5c-3.35-1.93-3.35-5.07,0-7Z" style="fill:#202020;"/><path d="M800.87,889.48l18.48,10.67m0-10.67l-18.48,10.67" style="fill:none; stroke:#f09436; stroke-linecap:round; stroke-linejoin:round; stroke-width:2px;"/><path d="M688.11,893.75l120.16-69.37c3.35-1.93,8.78-1.93,12.12,0l111.72,64.5c3.35,1.93,3.35,5.07,0,7l-120.16,69.37c-3.35,1.93-8.78,1.93-12.12,0l-111.72-64.5c-3.35-1.93-3.35-5.07,0-7Z" style="fill:none; stroke:#374151; stroke-width:2px;"/><path d="M835.98,808.38l120.16-69.37c3.35-1.93,8.78-1.93,12.12,0l111.72,64.5c3.35,1.93,3.35,5.07,0,7l-120.16,69.37c-3.35,1.93-8.78,1.93-12.12,0l-111.72-64.5c-3.35-1.93-3.35-5.07,0-7Z" style="fill:#202020;"/><path d="M948.75,804.11l18.48,10.67m0-10.67l-18.48,10.67" style="fill:none; stroke:#f09436; stroke-linecap:round; stroke-linejoin:round; stroke-width:2px;"/><path d="M835.98,808.38l120.16-69.37c3.35-1.93,8.78-1.93,12.12,0l111.72,64.5c3.35,1.93,3.35,5.07,0,7l-120.16,69.37c-3.35,1.93-8.78,1.93-12.12,0l-111.72-64.5c-3.35-1.93-3.35-5.07,0-7Z" style="fill:none; stroke:#374151; stroke-width:2px;"/><path d="M983.86,723.01l120.16-69.37c3.35-1.93,8.78-1.93,12.12,0l111.72,64.5c3.35,1.93,3.35,5.07,0,7l-120.16,69.37c-3.35,1.93-8.78,1.93-12.12,0l-111.72-64.5c-3.35-1.93-3.35-5.07,0-7Z" style="fill:#202020;"/><path d="M1096.63,718.74l18.48,10.67m0-10.67l-18.48,10.67" style="fill:none; stroke:#f09436; stroke-linecap:round; stroke-linejoin:round; stroke-width:2px;"/><path d="M983.86,723.01l120.16-69.37c3.35-1.93,8.78-1.93,12.12,0l111.72,64.5c3.35,1.93,3.35,5.07,0,7l-120.16,69.37c-3.35,1.93-8.78,1.93-12.12,0l-111.72-64.5c-3.35-1.93-3.35-5.07,0-7Z" style="fill:none; stroke:#374151; stroke-width:2px;"/><path d="M1131.74,637.64l120.16-69.37c3.35-1.93,8.78-1.93,12.12,0l111.72,64.5c3.35,1.93,3.35,5.07,0,7l-120.16,69.37c-3.35,1.93-8.78,1.93-12.12,0l-111.72-64.5c-3.35-1.93-3.35-5.07,0-7Z" style="fill:#202020;"/><path d="M1244.51,633.37l18.47,10.67m0-10.67l-18.47,10.67" style="fill:none; stroke:#f09436; stroke-linecap:round; stroke-linejoin:round; stroke-width:2px;"/><path d="M1131.74,637.64l120.16-69.37c3.35-1.93,8.78-1.93,12.12,0l111.72,64.5c3.35,1.93,3.35,5.07,0,7l-120.16,69.37c-3.35,1.93-8.78,1.93-12.12,0l-111.72-64.5c-3.35-1.93-3.35-5.07,0-7Z" style="fill:none; stroke:#374151; stroke-width:2px;"/><path d="M1279.62,552.27l120.16-69.37c3.35-1.93,8.78-1.93,12.12,0l111.72,64.5c3.35,1.93,3.35,5.07,0,7l-120.16,69.37c-3.35,1.93-8.78,1.93-12.12,0l-111.72-64.5c-3.35-1.93-3.35-5.07,0-7Z" style="fill:#202020;"/><path d="M1392.38,548l18.48,10.67m0-10.67l-18.48,10.67" style="fill:none; stroke:#f09436; stroke-linecap:round; stroke-linejoin:round; stroke-width:2px;"/><path d="M1279.62,552.27l120.16-69.37c3.35-1.93,8.78-1.93,12.12,0l111.72,64.5c3.35,1.93,3.35,5.07,0,7l-120.16,69.37c-3.35,1.93-8.78,1.93-12.12,0l-111.72-64.5c-3.35-1.93-3.35-5.07,0-7Z" style="fill:none; stroke:#374151; stroke-width:2px;"/><path d="M1427.49,466.9l120.16-69.37c3.35-1.93,8.78-1.93,12.12,0l111.72,64.5c3.35,1.93,3.35,5.07,0,7l-120.16,69.37c-3.35,1.93-8.78,1.93-12.12,0l-111.72-64.5c-3.35-1.93-3.35-5.07,0-7Z" style="fill:#202020;"/><path d="M1540.26,462.63l18.48,10.67m0-10.67l-18.48,10.67" style="fill:none; stroke:#f09436; stroke-linecap:round; stroke-linejoin:round; stroke-width:2px;"/><path d="M1427.49,466.9l120.16-69.37c3.35-1.93,8.78-1.93,12.12,0l111.72,64.5c3.35,1.93,3.35,5.07,0,7l-120.16,69.37c-3.35,1.93-8.78,1.93-12.12,0l-111.72-64.5c-3.35-1.93-3.35-5.07,0-7Z" style="fill:none; stroke:#374151; stroke-width:2px;"/><path d="M1575.37,381.53l120.16-69.37c3.35-1.93,8.78-1.93,12.12,0l111.72,64.5c3.35,1.93,3.35,5.07,0,7l-120.16,69.37c-3.35,1.93-8.78,1.93-12.12,0l-111.72-64.5c-3.35-1.93-3.35-5.07,0-7Z" style="fill:#202020;"/><path d="M1688.14,377.26l18.47,10.67m0-10.67l-18.47,10.67" style="fill:none; stroke:#f09436; stroke-linecap:round; stroke-linejoin:round; stroke-width:2px;"/><path d="M1575.37,381.53l120.16-69.37c3.35-1.93,8.78-1.93,12.12,0l111.72,64.5c3.35,1.93,3.35,5.07,0,7l-120.16,69.37c-3.35,1.93-8.78,1.93-12.12,0l-111.72-64.5c-3.35-1.93-3.35-5.07,0-7Z" style="fill:none; stroke:#374151; stroke-width:2px;"/><path d="M679.66,1059.61l120.16-69.37c3.35-1.93,8.78-1.93,12.12,0l111.72,64.5c3.35,1.93,3.35,5.07,0,7l-120.16,69.37c-3.35,1.93-8.78,1.93-12.12,0l-111.72-64.5c-3.35-1.93-3.35-5.07,0-7Z" style="fill:#202020;"/><path d="M792.43,1055.34l18.48,10.67m0-10.67l-18.48,10.67" style="fill:none; stroke:#f09436; stroke-linecap:round; stroke-linejoin:round; stroke-width:2px;"/><path d="M679.66,1059.61l120.16-69.37c3.35-1.93,8.78-1.93,12.12,0l111.72,64.5c3.35,1.93,3.35,5.07,0,7l-120.16,69.37c-3.35,1.93-8.78,1.93-12.12,0l-111.72-64.5c-3.35-1.93-3.35-5.07,0-7Z" style="fill:none; stroke:#374151; stroke-width:2px;"/><path d="M827.54,974.24l120.16-69.37c3.35-1.93,8.78-1.93,12.12,0l111.72,64.5c3.35,1.93,3.35,5.07,0,7l-120.16,69.37c-3.35,1.93-8.78,1.93-12.12,0l-111.72-64.5c-3.35-1.93-3.35-5.07,0-7Z" style="fill:#202020;"/><path d="M940.3,969.97l18.48,10.67m0-10.67l-18.48,10.67" style="fill:none; stroke:#f09436; stroke-linecap:round; stroke-linejoin:round; stroke-width:2px;"/><path d="M827.54,974.24l120.16-69.37c3.35-1.93,8.78-1.93,12.12,0l111.72,64.5c3.35,1.93,3.35,5.07,0,7l-120.16,69.37c-3.35,1.93-8.78,1.93-12.12,0l-111.72-64.5c-3.35-1.93-3.35-5.07,0-7Z" style="fill:none; stroke:#374151; stroke-width:2px;"/><path d="M975.42,888.88l120.16-69.37c3.35-1.93,8.78-1.93,12.12,0l111.72,64.5c3.35,1.93,3.35,5.07,0,7l-120.16,69.37c-3.35,1.93-8.78,1.93-12.12,0l-111.72-64.5c-3.35-1.93-3.35-5.07,0-7Z" style="fill:#202020;"/><path d="M1088.19,884.6l18.47,10.67m0-10.67l-18.47,10.67" style="fill:none; stroke:#f09436; stroke-linecap:round; stroke-linejoin:round; stroke-width:2px;"/><path d="M975.42,888.88l120.16-69.37c3.35-1.93,8.78-1.93,12.12,0l111.72,64.5c3.35,1.93,3.35,5.07,0,7l-120.16,69.37c-3.35,1.93-8.78,1.93-12.12,0l-111.72-64.5c-3.35-1.93-3.35-5.07,0-7Z" style="fill:none; stroke:#374151; stroke-width:2px;"/><path d="M1123.29,803.51l120.16-69.37c3.35-1.93,8.78-1.93,12.12,0l111.72,64.5c3.35,1.93,3.35,5.07,0,7l-120.16,69.37c-3.35,1.93-8.78,1.93-12.12,0l-111.72-64.5c-3.35-1.93-3.35-5.07,0-7Z" style="fill:#202020;"/><path d="M1236.06,799.23l18.48,10.67m0-10.67l-18.48,10.67" style="fill:none; stroke:#f09436; stroke-linecap:round; stroke-linejoin:round; stroke-width:2px;"/><path d="M1123.29,803.51l120.16-69.37c3.35-1.93,8.78-1.93,12.12,0l111.72,64.5c3.35,1.93,3.35,5.07,0,7l-120.16,69.37c-3.35,1.93-8.78,1.93-12.12,0l-111.72-64.5c-3.35-1.93-3.35-5.07,0-7Z" style="fill:none; stroke:#374151; stroke-width:2px;"/><path d="M1271.17,718.14l120.16-69.37c3.35-1.93,8.78-1.93,12.12,0l111.72,64.5c3.35,1.93,3.35,5.07,0,7l-120.16,69.37c-3.35,1.93-8.78,1.93-12.12,0l-111.72-64.5c-3.35-1.93-3.35-5.07,0-7Z" style="fill:#202020;"/><path d="M1383.94,713.87l18.48,10.66m0-10.66l-18.48,10.66" style="fill:none; stroke:#f09436; stroke-linecap:round; stroke-linejoin:round; stroke-width:2px;"/><path d="M1271.17,718.14l120.16-69.37c3.35-1.93,8.78-1.93,12.12,0l111.72,64.5c3.35,1.93,3.35,5.07,0,7l-120.16,69.37c-3.35,1.93-8.78,1.93-12.12,0l-111.72-64.5c-3.35-1.93-3.35-5.07,0-7Z" style="fill:none; stroke:#374151; stroke-width:2px;"/><path d="M1419.05,632.77l120.16-69.37c3.35-1.93,8.78-1.93,12.12,0l111.72,64.5c3.35,1.93,3.35,5.07,0,7l-120.16,69.37c-3.35,1.93-8.78,1.93-12.12,0l-111.72-64.5c-3.35-1.93-3.35-5.07,0-7Z" style="fill:#202020;"/><path d="M1531.82,628.5l18.47,10.67m0-10.67l-18.47,10.67" style="fill:none; stroke:#f09436; stroke-linecap:round; stroke-linejoin:round; stroke-width:2px;"/><path d="M1419.05,632.77l120.16-69.37c3.35-1.93,8.78-1.93,12.12,0l111.72,64.5c3.35,1.93,3.35,5.07,0,7l-120.16,69.37c-3.35,1.93-8.78,1.93-12.12,0l-111.72-64.5c-3.35-1.93-3.35-5.07,0-7Z" style="fill:none; stroke:#374151; stroke-width:2px;"/><path d="M1566.93,547.4l120.16-69.37c3.35-1.93,8.78-1.93,12.12,0l111.72,64.5c3.35,1.93,3.35,5.07,0,7l-120.16,69.37c-3.35,1.93-8.78,1.93-12.12,0l-111.72-64.5c-3.35-1.93-3.35-5.07,0-7Z" style="fill:#202020;"/><path d="M1679.69,543.13l18.48,10.67m0-10.67l-18.48,10.67" style="fill:none; stroke:#f09436; stroke-linecap:round; stroke-linejoin:round; stroke-width:2px;"/><path d="M1566.93,547.4l120.16-69.37c3.35-1.93,8.78-1.93,12.12,0l111.72,64.5c3.35,1.93,3.35,5.07,0,7l-120.16,69.37c-3.35,1.93-8.78,1.93-12.12,0l-111.72-64.5c-3.35-1.93-3.35-5.07,0-7Z" style="fill:none; stroke:#374151; stroke-width:2px;"/><path d="M1714.8,462.03l120.16-69.37c3.35-1.93,8.78-1.93,12.12,0l111.72,64.5c3.35,1.93,3.35,5.07,0,7l-120.16,69.37c-3.35,1.93-8.78,1.93-12.12,0l-111.72-64.5c-3.35-1.93-3.35-5.07,0-7Z" style="fill:#202020;"/><path d="M1827.57,457.76l18.48,10.67m0-10.67l-18.48,10.67" style="fill:none; stroke:#f09436; stroke-linecap:round; stroke-linejoin:round; stroke-width:2px;"/><path d="M1714.8,462.03l120.16-69.37c3.35-1.93,8.78-1.93,12.12,0l111.72,64.5c3.35,1.93,3.35,5.07,0,7l-120.16,69.37c-3.35,1.93-8.78,1.93-12.12,0l-111.72-64.5c-3.35-1.93-3.35-5.07,0-7Z" style="fill:none; stroke:#374151; stroke-width:2px;"/></g></g></svg>