<?xml version="1.0" encoding="UTF-8"?><svg id="Overlay" xmlns="http://www.w3.org/2000/svg" viewBox="0 0 2287.04 1197.27"><g style="opacity:.5;"><path d="M419.12,561.65l267.61-154.49c3.35-1.93,8.78-1.93,12.12,0l265.01,152.99c3.35,1.93,3.35,5.07,0,7l-267.61,154.49c-3.35,1.93-8.78,1.93-12.12,0l-265.01-152.99c-3.35-1.93-3.35-5.07,0-7Z" style="fill:rgba(240,148,54,.15);"/><path d="M419.12,561.65l267.61-154.49c3.35-1.93,8.78-1.93,12.12,0l265.01,152.99c3.35,1.93,3.35,5.07,0,7l-267.61,154.49c-3.35,1.93-8.78,1.93-12.12,0l-265.01-152.99c-3.35-1.93-3.35-5.07,0-7Z" style="fill:none;"/><path d="M419.12,561.65l267.61-154.49c3.35-1.93,8.78-1.93,12.12,0l265.01,152.99c3.35,1.93,3.35,5.07,0,7l-267.61,154.49c-3.35,1.93-8.78,1.93-12.12,0l-265.01-152.99c-3.35-1.93-3.35-5.07,0-7Z" style="fill:none; stroke:#f09436; stroke-width:2px;"/></g></svg>