<?xml version="1.0" encoding="UTF-8"?><svg id="Blanks" xmlns="http://www.w3.org/2000/svg" viewBox="0 0 2287.04 1197.27"><path d="M121.93,737.64l120.16-69.37c3.35-1.93,8.78-1.93,12.12,0l111.72,64.5c3.35,1.93,3.35,5.07,0,7l-120.16,69.37c-3.35,1.93-8.78,1.93-12.12,0l-111.72-64.5c-3.35-1.93-3.35-5.07,0-7Z" style="fill:#202020;"/><path d="M234.7,733.36l18.48,10.67m0-10.67l-18.48,10.67" style="fill:none; stroke:#f09436; stroke-linecap:round; stroke-linejoin:round; stroke-width:2px;"/><path d="M121.93,737.64l120.16-69.37c3.35-1.93,8.78-1.93,12.12,0l111.72,64.5c3.35,1.93,3.35,5.07,0,7l-120.16,69.37c-3.35,1.93-8.78,1.93-12.12,0l-111.72-64.5c-3.35-1.93-3.35-5.07,0-7Z" style="fill:none; stroke:#374151; stroke-width:2px;"/><path d="M269.81,652.27l120.16-69.37c3.35-1.93,8.78-1.93,12.12,0l111.72,64.5c3.35,1.93,3.35,5.07,0,7l-120.16,69.37c-3.35,1.93-8.78,1.93-12.12,0l-111.72-64.5c-3.35-1.93-3.35-5.07,0-7Z" style="fill:#202020;"/><path d="M418.81,565.27l120.16-69.37c3.35-1.93,8.78-1.93,12.12,0l111.72,64.5c3.35,1.93,3.35,5.07,0,7l-120.16,69.37c-3.35,1.93-8.78,1.93-12.12,0l-111.72-64.5c-3.35-1.93-3.35-5.07,0-7Z" style="fill:#202020;"/><path d="M559.81,645.27l120.16-69.37c3.35-1.93,8.78-1.93,12.12,0l111.72,64.5c3.35,1.93,3.35,5.07,0,7l-120.16,69.37c-3.35,1.93-8.78,1.93-12.12,0l-111.72-64.5c-3.35-1.93-3.35-5.07,0-7Z" style="fill:#202020;"/><path d="M704.81,559.27l120.16-69.37c3.35-1.93,8.78-1.93,12.12,0l111.72,64.5c3.35,1.93,3.35,5.07,0,7l-120.16,69.37c-3.35,1.93-8.78,1.93-12.12,0l-111.72-64.5c-3.35-1.93-3.35-5.07,0-7Z" style="fill:#202020;"/><path d="M564.81,479.27l120.16-69.37c3.35-1.93,8.78-1.93,12.12,0l111.72,64.5c3.35,1.93,3.35,5.07,0,7l-120.16,69.37c-3.35,1.93-8.78,1.93-12.12,0l-111.72-64.5c-3.35-1.93-3.35-5.07,0-7Z" style="fill:#202020;"/><path d="M382.57,647.99l18.48,10.67m0-10.67l-18.48,10.67" style="fill:none; stroke:#f09436; stroke-linecap:round; stroke-linejoin:round; stroke-width:2px;"/><path d="M531.57,560.99l18.48,10.67m0-10.67l-18.48,10.67" style="fill:none; stroke:#f09436; stroke-linecap:round; stroke-linejoin:round; stroke-width:2px;"/><path d="M672.57,640.99l18.48,10.67m0-10.67l-18.48,10.67" style="fill:none; stroke:#f09436; stroke-linecap:round; stroke-linejoin:round; stroke-width:2px;"/><path d="M817.57,554.99l18.48,10.67m0-10.67l-18.48,10.67" style="fill:none; stroke:#f09436; stroke-linecap:round; stroke-linejoin:round; stroke-width:2px;"/><path d="M677.57,474.99l18.48,10.67m0-10.67l-18.48,10.67" style="fill:none; stroke:#f09436; stroke-linecap:round; stroke-linejoin:round; stroke-width:2px;"/><path d="M269.81,652.27l120.16-69.37c3.35-1.93,8.78-1.93,12.12,0l111.72,64.5c3.35,1.93,3.35,5.07,0,7l-120.16,69.37c-3.35,1.93-8.78,1.93-12.12,0l-111.72-64.5c-3.35-1.93-3.35-5.07,0-7Z" style="fill:none; stroke:#374151; stroke-width:2px;"/><path d="M418.81,565.27l120.16-69.37c3.35-1.93,8.78-1.93,12.12,0l111.72,64.5c3.35,1.93,3.35,5.07,0,7l-120.16,69.37c-3.35,1.93-8.78,1.93-12.12,0l-111.72-64.5c-3.35-1.93-3.35-5.07,0-7Z" style="fill:none; stroke:#374151; stroke-width:2px;"/><path d="M559.81,645.27l120.16-69.37c3.35-1.93,8.78-1.93,12.12,0l111.72,64.5c3.35,1.93,3.35,5.07,0,7l-120.16,69.37c-3.35,1.93-8.78,1.93-12.12,0l-111.72-64.5c-3.35-1.93-3.35-5.07,0-7Z" style="fill:none; stroke:#374151; stroke-width:2px;"/><path d="M704.81,559.27l120.16-69.37c3.35-1.93,8.78-1.93,12.12,0l111.72,64.5c3.35,1.93,3.35,5.07,0,7l-120.16,69.37c-3.35,1.93-8.78,1.93-12.12,0l-111.72-64.5c-3.35-1.93-3.35-5.07,0-7Z" style="fill:none; stroke:#374151; stroke-width:2px;"/><path d="M564.81,479.27l120.16-69.37c3.35-1.93,8.78-1.93,12.12,0l111.72,64.5c3.35,1.93,3.35,5.07,0,7l-120.16,69.37c-3.35,1.93-8.78,1.93-12.12,0l-111.72-64.5c-3.35-1.93-3.35-5.07,0-7Z" style="fill:none; stroke:#374151; stroke-width:2px;"/><path d="M713.44,396.16l120.16-69.37c3.35-1.93,8.78-1.93,12.12,0l111.72,64.5c3.35,1.93,3.35,5.07,0,7l-120.16,69.37c-3.35,1.93-8.78,1.93-12.12,0l-111.72-64.5c-3.35-1.93-3.35-5.07,0-7Z" style="fill:#202020;"/><path d="M826.2,391.89l18.48,10.67m0-10.67l-18.48,10.67" style="fill:none; stroke:#f09436; stroke-linecap:round; stroke-linejoin:round; stroke-width:2px;"/><path d="M713.44,396.16l120.16-69.37c3.35-1.93,8.78-1.93,12.12,0l111.72,64.5c3.35,1.93,3.35,5.07,0,7l-120.16,69.37c-3.35,1.93-8.78,1.93-12.12,0l-111.72-64.5c-3.35-1.93-3.35-5.07,0-7Z" style="fill:none; stroke:#374151; stroke-width:2px;"/><path d="M861.32,310.79l120.16-69.37c3.35-1.93,8.78-1.93,12.12,0l111.72,64.5c3.35,1.93,3.35,5.07,0,7l-120.16,69.37c-3.35,1.93-8.78,1.93-12.12,0l-111.72-64.5c-3.35-1.93-3.35-5.07,0-7Z" style="fill:#202020;"/><path d="M974.09,306.52l18.47,10.67m0-10.67l-18.47,10.67" style="fill:none; stroke:#f09436; stroke-linecap:round; stroke-linejoin:round; stroke-width:2px;"/><path d="M861.32,310.79l120.16-69.37c3.35-1.93,8.78-1.93,12.12,0l111.72,64.5c3.35,1.93,3.35,5.07,0,7l-120.16,69.37c-3.35,1.93-8.78,1.93-12.12,0l-111.72-64.5c-3.35-1.93-3.35-5.07,0-7Z" style="fill:none; stroke:#374151; stroke-width:2px;"/><path d="M1009.19,225.42l120.16-69.37c3.35-1.93,8.78-1.93,12.12,0l111.72,64.5c3.35,1.93,3.35,5.07,0,7l-120.16,69.37c-3.35,1.93-8.78,1.93-12.12,0l-111.72-64.5c-3.35-1.93-3.35-5.07,0-7Z" style="fill:#202020;"/><path d="M1121.96,221.15l18.48,10.67m0-10.67l-18.48,10.67" style="fill:none; stroke:#f09436; stroke-linecap:round; stroke-linejoin:round; stroke-width:2px;"/><path d="M1009.19,225.42l120.16-69.37c3.35-1.93,8.78-1.93,12.12,0l111.72,64.5c3.35,1.93,3.35,5.07,0,7l-120.16,69.37c-3.35,1.93-8.78,1.93-12.12,0l-111.72-64.5c-3.35-1.93-3.35-5.07,0-7Z" style="fill:none; stroke:#374151; stroke-width:2px;"/><path d="M1157.07,140.05l120.16-69.37c3.35-1.93,8.78-1.93,12.12,0l111.72,64.5c3.35,1.93,3.35,5.07,0,7l-120.16,69.37c-3.35,1.93-8.78,1.93-12.12,0l-111.72-64.5c-3.35-1.93-3.35-5.07,0-7Z" style="fill:#202020;"/><path d="M1269.84,135.78l18.47,10.67m0-10.67l-18.47,10.67" style="fill:none; stroke:#f09436; stroke-linecap:round; stroke-linejoin:round; stroke-width:2px;"/><path d="M1157.07,140.05l120.16-69.37c3.35-1.93,8.78-1.93,12.12,0l111.72,64.5c3.35,1.93,3.35,5.07,0,7l-120.16,69.37c-3.35,1.93-8.78,1.93-12.12,0l-111.72-64.5c-3.35-1.93-3.35-5.07,0-7Z" style="fill:none; stroke:#374151; stroke-width:2px;"/><path d="M261.36,818.13l120.16-69.37c3.35-1.93,8.78-1.93,12.12,0l111.72,64.5c3.35,1.93,3.35,5.07,0,7l-120.16,69.37c-3.35,1.93-8.78,1.93-12.12,0l-111.72-64.5c-3.35-1.93-3.35-5.07,0-7Z" style="fill:#202020;"/><path d="M374.13,813.86l18.48,10.67m0-10.67l-18.48,10.67" style="fill:none; stroke:#f09436; stroke-linecap:round; stroke-linejoin:round; stroke-width:2px;"/><path d="M261.36,818.13l120.16-69.37c3.35-1.93,8.78-1.93,12.12,0l111.72,64.5c3.35,1.93,3.35,5.07,0,7l-120.16,69.37c-3.35,1.93-8.78,1.93-12.12,0l-111.72-64.5c-3.35-1.93-3.35-5.07,0-7Z" style="fill:none; stroke:#374151; stroke-width:2px;"/><path d="M409.24,732.76l120.16-69.37c3.35-1.93,8.78-1.93,12.12,0l111.72,64.5c3.35,1.93,3.35,5.07,0,7l-120.16,69.37c-3.35,1.93-8.78,1.93-12.12,0l-111.72-64.5c-3.35-1.93-3.35-5.07,0-7Z" style="fill:#202020;"/><path d="M522.01,728.49l18.48,10.67m0-10.67l-18.48,10.67" style="fill:none; stroke:#f09436; stroke-linecap:round; stroke-linejoin:round; stroke-width:2px;"/><path d="M409.24,732.76l120.16-69.37c3.35-1.93,8.78-1.93,12.12,0l111.72,64.5c3.35,1.93,3.35,5.07,0,7l-120.16,69.37c-3.35,1.93-8.78,1.93-12.12,0l-111.72-64.5c-3.35-1.93-3.35-5.07,0-7Z" style="fill:none; stroke:#374151; stroke-width:2px;"/><path d="M852.87,476.65l120.16-69.37c3.35-1.93,8.78-1.93,12.12,0l111.72,64.5c3.35,1.93,3.35,5.07,0,7l-120.16,69.37c-3.35,1.93-8.78,1.93-12.12,0l-111.72-64.5c-3.35-1.93-3.35-5.07,0-7Z" style="fill:#202020;"/><path d="M965.64,472.38l18.48,10.67m0-10.67l-18.48,10.67" style="fill:none; stroke:#f09436; stroke-linecap:round; stroke-linejoin:round; stroke-width:2px;"/><path d="M852.87,476.65l120.16-69.37c3.35-1.93,8.78-1.93,12.12,0l111.72,64.5c3.35,1.93,3.35,5.07,0,7l-120.16,69.37c-3.35,1.93-8.78,1.93-12.12,0l-111.72-64.5c-3.35-1.93-3.35-5.07,0-7Z" style="fill:none; stroke:#374151; stroke-width:2px;"/><path d="M1000.75,391.28l120.16-69.37c3.35-1.93,8.78-1.93,12.12,0l111.72,64.5c3.35,1.93,3.35,5.07,0,7l-120.16,69.37c-3.35,1.93-8.78,1.93-12.12,0l-111.72-64.5c-3.35-1.93-3.35-5.07,0-7Z" style="fill:#202020;"/><path d="M1113.52,387.01l18.47,10.67m0-10.67l-18.47,10.67" style="fill:none; stroke:#f09436; stroke-linecap:round; stroke-linejoin:round; stroke-width:2px;"/><path d="M1000.75,391.28l120.16-69.37c3.35-1.93,8.78-1.93,12.12,0l111.72,64.5c3.35,1.93,3.35,5.07,0,7l-120.16,69.37c-3.35,1.93-8.78,1.93-12.12,0l-111.72-64.5c-3.35-1.93-3.35-5.07,0-7Z" style="fill:none; stroke:#374151; stroke-width:2px;"/><path d="M1148.63,305.91l120.16-69.37c3.35-1.93,8.78-1.93,12.12,0l111.72,64.5c3.35,1.93,3.35,5.07,0,7l-120.16,69.37c-3.35,1.93-8.78,1.93-12.12,0l-111.72-64.5c-3.35-1.93-3.35-5.07,0-7Z" style="fill:#202020;"/><path d="M1261.4,301.64l18.47,10.67m0-10.67l-18.47,10.67" style="fill:none; stroke:#f09436; stroke-linecap:round; stroke-linejoin:round; stroke-width:2px;"/><path d="M1148.63,305.91l120.16-69.37c3.35-1.93,8.78-1.93,12.12,0l111.72,64.5c3.35,1.93,3.35,5.07,0,7l-120.16,69.37c-3.35,1.93-8.78,1.93-12.12,0l-111.72-64.5c-3.35-1.93-3.35-5.07,0-7Z" style="fill:none; stroke:#374151; stroke-width:2px;"/><path d="M1296.5,220.54l120.16-69.37c3.35-1.93,8.78-1.93,12.12,0l111.72,64.5c3.35,1.93,3.35,5.07,0,7l-120.16,69.37c-3.35,1.93-8.78,1.93-12.12,0l-111.72-64.5c-3.35-1.93-3.35-5.07,0-7Z" style="fill:#202020;"/><path d="M1409.27,216.27l18.48,10.67m0-10.67l-18.48,10.67" style="fill:none; stroke:#f09436; stroke-linecap:round; stroke-linejoin:round; stroke-width:2px;"/><path d="M1296.5,220.54l120.16-69.37c3.35-1.93,8.78-1.93,12.12,0l111.72,64.5c3.35,1.93,3.35,5.07,0,7l-120.16,69.37c-3.35,1.93-8.78,1.93-12.12,0l-111.72-64.5c-3.35-1.93-3.35-5.07,0-7Z" style="fill:none; stroke:#374151; stroke-width:2px;"/><path d="M400.79,898.62l120.16-69.37c3.35-1.93,8.78-1.93,12.12,0l111.72,64.5c3.35,1.93,3.35,5.07,0,7l-120.16,69.37c-3.35,1.93-8.78,1.93-12.12,0l-111.72-64.5c-3.35-1.93-3.35-5.07,0-7Z" style="fill:#202020;"/><path d="M513.56,894.35l18.48,10.67m0-10.67l-18.48,10.67" style="fill:none; stroke:#f09436; stroke-linecap:round; stroke-linejoin:round; stroke-width:2px;"/><path d="M400.79,898.62l120.16-69.37c3.35-1.93,8.78-1.93,12.12,0l111.72,64.5c3.35,1.93,3.35,5.07,0,7l-120.16,69.37c-3.35,1.93-8.78,1.93-12.12,0l-111.72-64.5c-3.35-1.93-3.35-5.07,0-7Z" style="fill:none; stroke:#374151; stroke-width:2px;"/><path d="M548.67,813.26l120.16-69.37c3.35-1.93,8.78-1.93,12.12,0l111.72,64.5c3.35,1.93,3.35,5.07,0,7l-120.16,69.37c-3.35,1.93-8.78,1.93-12.12,0l-111.72-64.5c-3.35-1.93-3.35-5.07,0-7Z" style="fill:#202020;"/><path d="M661.44,808.98l18.48,10.67m0-10.67l-18.48,10.67" style="fill:none; stroke:#f09436; stroke-linecap:round; stroke-linejoin:round; stroke-width:2px;"/><path d="M548.67,813.26l120.16-69.37c3.35-1.93,8.78-1.93,12.12,0l111.72,64.5c3.35,1.93,3.35,5.07,0,7l-120.16,69.37c-3.35,1.93-8.78,1.93-12.12,0l-111.72-64.5c-3.35-1.93-3.35-5.07,0-7Z" style="fill:none; stroke:#374151; stroke-width:2px;"/><path d="M696.55,727.89l120.16-69.37c3.35-1.93,8.78-1.93,12.12,0l111.72,64.5c3.35,1.93,3.35,5.07,0,7l-120.16,69.37c-3.35,1.93-8.78,1.93-12.12,0l-111.72-64.5c-3.35-1.93-3.35-5.07,0-7Z" style="fill:#202020;"/><path d="M809.32,723.61l18.48,10.67m0-10.67l-18.48,10.67" style="fill:none; stroke:#f09436; stroke-linecap:round; stroke-linejoin:round; stroke-width:2px;"/><path d="M696.55,727.89l120.16-69.37c3.35-1.93,8.78-1.93,12.12,0l111.72,64.5c3.35,1.93,3.35,5.07,0,7l-120.16,69.37c-3.35,1.93-8.78,1.93-12.12,0l-111.72-64.5c-3.35-1.93-3.35-5.07,0-7Z" style="fill:none; stroke:#374151; stroke-width:2px;"/><path d="M844.43,642.52l120.16-69.37c3.35-1.93,8.78-1.93,12.12,0l111.72,64.5c3.35,1.93,3.35,5.07,0,7l-120.16,69.37c-3.35,1.93-8.78,1.93-12.12,0l-111.72-64.5c-3.35-1.93-3.35-5.07,0-7Z" style="fill:#202020;"/><path d="M957.19,638.24l18.47,10.67m0-10.67l-18.47,10.67" style="fill:none; stroke:#f09436; stroke-linecap:round; stroke-linejoin:round; stroke-width:2px;"/><path d="M844.43,642.52l120.16-69.37c3.35-1.93,8.78-1.93,12.12,0l111.72,64.5c3.35,1.93,3.35,5.07,0,7l-120.16,69.37c-3.35,1.93-8.78,1.93-12.12,0l-111.72-64.5c-3.35-1.93-3.35-5.07,0-7Z" style="fill:none; stroke:#374151; stroke-width:2px;"/><path d="M992.31,557.15l120.16-69.37c3.35-1.93,8.78-1.93,12.12,0l111.72,64.5c3.35,1.93,3.35,5.07,0,7l-120.16,69.37c-3.35,1.93-8.78,1.93-12.12,0l-111.72-64.5c-3.35-1.93-3.35-5.07,0-7Z" style="fill:#202020;"/><path d="M1105.07,552.88l18.48,10.67m0-10.67l-18.48,10.67" style="fill:none; stroke:#f09436; stroke-linecap:round; stroke-linejoin:round; stroke-width:2px;"/><path d="M992.31,557.15l120.16-69.37c3.35-1.93,8.78-1.93,12.12,0l111.72,64.5c3.35,1.93,3.35,5.07,0,7l-120.16,69.37c-3.35,1.93-8.78,1.93-12.12,0l-111.72-64.5c-3.35-1.93-3.35-5.07,0-7Z" style="fill:none; stroke:#374151; stroke-width:2px;"/><path d="M1140.18,471.78l120.16-69.37c3.35-1.93,8.78-1.93,12.12,0l111.72,64.5c3.35,1.93,3.35,5.07,0,7l-120.16,69.37c-3.35,1.93-8.78,1.93-12.12,0l-111.72-64.5c-3.35-1.93-3.35-5.07,0-7Z" style="fill:#202020;"/><path d="M1252.95,467.51l18.48,10.67m0-10.67l-18.48,10.67" style="fill:none; stroke:#f09436; stroke-linecap:round; stroke-linejoin:round; stroke-width:2px;"/><path d="M1140.18,471.78l120.16-69.37c3.35-1.93,8.78-1.93,12.12,0l111.72,64.5c3.35,1.93,3.35,5.07,0,7l-120.16,69.37c-3.35,1.93-8.78,1.93-12.12,0l-111.72-64.5c-3.35-1.93-3.35-5.07,0-7Z" style="fill:none; stroke:#374151; stroke-width:2px;"/><path d="M1288.06,386.41l120.16-69.37c3.35-1.93,8.78-1.93,12.12,0l111.72,64.5c3.35,1.93,3.35,5.07,0,7l-120.16,69.37c-3.35,1.93-8.78,1.93-12.12,0l-111.72-64.5c-3.35-1.93-3.35-5.07,0-7Z" style="fill:#202020;"/><path d="M1400.83,382.14l18.47,10.67m0-10.67l-18.47,10.67" style="fill:none; stroke:#f09436; stroke-linecap:round; stroke-linejoin:round; stroke-width:2px;"/><path d="M1288.06,386.41l120.16-69.37c3.35-1.93,8.78-1.93,12.12,0l111.72,64.5c3.35,1.93,3.35,5.07,0,7l-120.16,69.37c-3.35,1.93-8.78,1.93-12.12,0l-111.72-64.5c-3.35-1.93-3.35-5.07,0-7Z" style="fill:none; stroke:#374151; stroke-width:2px;"/><path d="M1435.94,301.04l120.16-69.37c3.35-1.93,8.78-1.93,12.12,0l111.72,64.5c3.35,1.93,3.35,5.07,0,7l-120.16,69.37c-3.35,1.93-8.78,1.93-12.12,0l-111.72-64.5c-3.35-1.93-3.35-5.07,0-7Z" style="fill:#202020;"/><path d="M1548.71,296.77l18.47,10.67m0-10.67l-18.47,10.67" style="fill:none; stroke:#f09436; stroke-linecap:round; stroke-linejoin:round; stroke-width:2px;"/><path d="M1435.94,301.04l120.16-69.37c3.35-1.93,8.78-1.93,12.12,0l111.72,64.5c3.35,1.93,3.35,5.07,0,7l-120.16,69.37c-3.35,1.93-8.78,1.93-12.12,0l-111.72-64.5c-3.35-1.93-3.35-5.07,0-7Z" style="fill:none; stroke:#374151; stroke-width:2px;"/><path d="M540.23,979.12l120.16-69.37c3.35-1.93,8.78-1.93,12.12,0l111.72,64.5c3.35,1.93,3.35,5.07,0,7l-120.16,69.37c-3.35,1.93-8.78,1.93-12.12,0l-111.72-64.5c-3.35-1.93-3.35-5.07,0-7Z" style="fill:#202020;"/><path d="M652.99,974.85l18.48,10.67m0-10.67l-18.48,10.67" style="fill:none; stroke:#f09436; stroke-linecap:round; stroke-linejoin:round; stroke-width:2px;"/><path d="M540.23,979.12l120.16-69.37c3.35-1.93,8.78-1.93,12.12,0l111.72,64.5c3.35,1.93,3.35,5.07,0,7l-120.16,69.37c-3.35,1.93-8.78,1.93-12.12,0l-111.72-64.5c-3.35-1.93-3.35-5.07,0-7Z" style="fill:none; stroke:#374151; stroke-width:2px;"/><path d="M688.11,893.75l120.16-69.37c3.35-1.93,8.78-1.93,12.12,0l111.72,64.5c3.35,1.93,3.35,5.07,0,7l-120.16,69.37c-3.35,1.93-8.78,1.93-12.12,0l-111.72-64.5c-3.35-1.93-3.35-5.07,0-7Z" style="fill:#202020;"/><path d="M800.87,889.48l18.48,10.67m0-10.67l-18.48,10.67" style="fill:none; stroke:#f09436; stroke-linecap:round; stroke-linejoin:round; stroke-width:2px;"/><path d="M688.11,893.75l120.16-69.37c3.35-1.93,8.78-1.93,12.12,0l111.72,64.5c3.35,1.93,3.35,5.07,0,7l-120.16,69.37c-3.35,1.93-8.78,1.93-12.12,0l-111.72-64.5c-3.35-1.93-3.35-5.07,0-7Z" style="fill:none; stroke:#374151; stroke-width:2px;"/><path d="M835.98,808.38l120.16-69.37c3.35-1.93,8.78-1.93,12.12,0l111.72,64.5c3.35,1.93,3.35,5.07,0,7l-120.16,69.37c-3.35,1.93-8.78,1.93-12.12,0l-111.72-64.5c-3.35-1.93-3.35-5.07,0-7Z" style="fill:#202020;"/><path d="M948.75,804.11l18.48,10.67m0-10.67l-18.48,10.67" style="fill:none; stroke:#f09436; stroke-linecap:round; stroke-linejoin:round; stroke-width:2px;"/><path d="M835.98,808.38l120.16-69.37c3.35-1.93,8.78-1.93,12.12,0l111.72,64.5c3.35,1.93,3.35,5.07,0,7l-120.16,69.37c-3.35,1.93-8.78,1.93-12.12,0l-111.72-64.5c-3.35-1.93-3.35-5.07,0-7Z" style="fill:none; stroke:#374151; stroke-width:2px;"/><path d="M983.86,723.01l120.16-69.37c3.35-1.93,8.78-1.93,12.12,0l111.72,64.5c3.35,1.93,3.35,5.07,0,7l-120.16,69.37c-3.35,1.93-8.78,1.93-12.12,0l-111.72-64.5c-3.35-1.93-3.35-5.07,0-7Z" style="fill:#202020;"/><path d="M1096.63,718.74l18.48,10.67m0-10.67l-18.48,10.67" style="fill:none; stroke:#f09436; stroke-linecap:round; stroke-linejoin:round; stroke-width:2px;"/><path d="M983.86,723.01l120.16-69.37c3.35-1.93,8.78-1.93,12.12,0l111.72,64.5c3.35,1.93,3.35,5.07,0,7l-120.16,69.37c-3.35,1.93-8.78,1.93-12.12,0l-111.72-64.5c-3.35-1.93-3.35-5.07,0-7Z" style="fill:none; stroke:#374151; stroke-width:2px;"/><path d="M1131.74,637.64l120.16-69.37c3.35-1.93,8.78-1.93,12.12,0l111.72,64.5c3.35,1.93,3.35,5.07,0,7l-120.16,69.37c-3.35,1.93-8.78,1.93-12.12,0l-111.72-64.5c-3.35-1.93-3.35-5.07,0-7Z" style="fill:#202020;"/><path d="M1244.51,633.37l18.47,10.67m0-10.67l-18.47,10.67" style="fill:none; stroke:#f09436; stroke-linecap:round; stroke-linejoin:round; stroke-width:2px;"/><path d="M1131.74,637.64l120.16-69.37c3.35-1.93,8.78-1.93,12.12,0l111.72,64.5c3.35,1.93,3.35,5.07,0,7l-120.16,69.37c-3.35,1.93-8.78,1.93-12.12,0l-111.72-64.5c-3.35-1.93-3.35-5.07,0-7Z" style="fill:none; stroke:#374151; stroke-width:2px;"/><path d="M1279.62,552.27l120.16-69.37c3.35-1.93,8.78-1.93,12.12,0l111.72,64.5c3.35,1.93,3.35,5.07,0,7l-120.16,69.37c-3.35,1.93-8.78,1.93-12.12,0l-111.72-64.5c-3.35-1.93-3.35-5.07,0-7Z" style="fill:#202020;"/><path d="M1392.38,548l18.48,10.67m0-10.67l-18.48,10.67" style="fill:none; stroke:#f09436; stroke-linecap:round; stroke-linejoin:round; stroke-width:2px;"/><path d="M1279.62,552.27l120.16-69.37c3.35-1.93,8.78-1.93,12.12,0l111.72,64.5c3.35,1.93,3.35,5.07,0,7l-120.16,69.37c-3.35,1.93-8.78,1.93-12.12,0l-111.72-64.5c-3.35-1.93-3.35-5.07,0-7Z" style="fill:none; stroke:#374151; stroke-width:2px;"/><path d="M1427.49,466.9l120.16-69.37c3.35-1.93,8.78-1.93,12.12,0l111.72,64.5c3.35,1.93,3.35,5.07,0,7l-120.16,69.37c-3.35,1.93-8.78,1.93-12.12,0l-111.72-64.5c-3.35-1.93-3.35-5.07,0-7Z" style="fill:#202020;"/><path d="M1540.26,462.63l18.48,10.67m0-10.67l-18.48,10.67" style="fill:none; stroke:#f09436; stroke-linecap:round; stroke-linejoin:round; stroke-width:2px;"/><path d="M1427.49,466.9l120.16-69.37c3.35-1.93,8.78-1.93,12.12,0l111.72,64.5c3.35,1.93,3.35,5.07,0,7l-120.16,69.37c-3.35,1.93-8.78,1.93-12.12,0l-111.72-64.5c-3.35-1.93-3.35-5.07,0-7Z" style="fill:none; stroke:#374151; stroke-width:2px;"/><path d="M1575.37,381.53l120.16-69.37c3.35-1.93,8.78-1.93,12.12,0l111.72,64.5c3.35,1.93,3.35,5.07,0,7l-120.16,69.37c-3.35,1.93-8.78,1.93-12.12,0l-111.72-64.5c-3.35-1.93-3.35-5.07,0-7Z" style="fill:#202020;"/><path d="M1688.14,377.26l18.47,10.67m0-10.67l-18.47,10.67" style="fill:none; stroke:#f09436; stroke-linecap:round; stroke-linejoin:round; stroke-width:2px;"/><path d="M1575.37,381.53l120.16-69.37c3.35-1.93,8.78-1.93,12.12,0l111.72,64.5c3.35,1.93,3.35,5.07,0,7l-120.16,69.37c-3.35,1.93-8.78,1.93-12.12,0l-111.72-64.5c-3.35-1.93-3.35-5.07,0-7Z" style="fill:none; stroke:#374151; stroke-width:2px;"/><path d="M679.66,1059.61l120.16-69.37c3.35-1.93,8.78-1.93,12.12,0l111.72,64.5c3.35,1.93,3.35,5.07,0,7l-120.16,69.37c-3.35,1.93-8.78,1.93-12.12,0l-111.72-64.5c-3.35-1.93-3.35-5.07,0-7Z" style="fill:#202020;"/><path d="M792.43,1055.34l18.48,10.67m0-10.67l-18.48,10.67" style="fill:none; stroke:#f09436; stroke-linecap:round; stroke-linejoin:round; stroke-width:2px;"/><path d="M679.66,1059.61l120.16-69.37c3.35-1.93,8.78-1.93,12.12,0l111.72,64.5c3.35,1.93,3.35,5.07,0,7l-120.16,69.37c-3.35,1.93-8.78,1.93-12.12,0l-111.72-64.5c-3.35-1.93-3.35-5.07,0-7Z" style="fill:none; stroke:#374151; stroke-width:2px;"/><path d="M827.54,974.24l120.16-69.37c3.35-1.93,8.78-1.93,12.12,0l111.72,64.5c3.35,1.93,3.35,5.07,0,7l-120.16,69.37c-3.35,1.93-8.78,1.93-12.12,0l-111.72-64.5c-3.35-1.93-3.35-5.07,0-7Z" style="fill:#202020;"/><path d="M940.3,969.97l18.48,10.67m0-10.67l-18.48,10.67" style="fill:none; stroke:#f09436; stroke-linecap:round; stroke-linejoin:round; stroke-width:2px;"/><path d="M827.54,974.24l120.16-69.37c3.35-1.93,8.78-1.93,12.12,0l111.72,64.5c3.35,1.93,3.35,5.07,0,7l-120.16,69.37c-3.35,1.93-8.78,1.93-12.12,0l-111.72-64.5c-3.35-1.93-3.35-5.07,0-7Z" style="fill:none; stroke:#374151; stroke-width:2px;"/><path d="M975.42,888.88l120.16-69.37c3.35-1.93,8.78-1.93,12.12,0l111.72,64.5c3.35,1.93,3.35,5.07,0,7l-120.16,69.37c-3.35,1.93-8.78,1.93-12.12,0l-111.72-64.5c-3.35-1.93-3.35-5.07,0-7Z" style="fill:#202020;"/><path d="M1088.19,884.6l18.47,10.67m0-10.67l-18.47,10.67" style="fill:none; stroke:#f09436; stroke-linecap:round; stroke-linejoin:round; stroke-width:2px;"/><path d="M975.42,888.88l120.16-69.37c3.35-1.93,8.78-1.93,12.12,0l111.72,64.5c3.35,1.93,3.35,5.07,0,7l-120.16,69.37c-3.35,1.93-8.78,1.93-12.12,0l-111.72-64.5c-3.35-1.93-3.35-5.07,0-7Z" style="fill:none; stroke:#374151; stroke-width:2px;"/><path d="M1123.29,803.51l120.16-69.37c3.35-1.93,8.78-1.93,12.12,0l111.72,64.5c3.35,1.93,3.35,5.07,0,7l-120.16,69.37c-3.35,1.93-8.78,1.93-12.12,0l-111.72-64.5c-3.35-1.93-3.35-5.07,0-7Z" style="fill:#202020;"/><path d="M1236.06,799.23l18.48,10.67m0-10.67l-18.48,10.67" style="fill:none; stroke:#f09436; stroke-linecap:round; stroke-linejoin:round; stroke-width:2px;"/><path d="M1123.29,803.51l120.16-69.37c3.35-1.93,8.78-1.93,12.12,0l111.72,64.5c3.35,1.93,3.35,5.07,0,7l-120.16,69.37c-3.35,1.93-8.78,1.93-12.12,0l-111.72-64.5c-3.35-1.93-3.35-5.07,0-7Z" style="fill:none; stroke:#374151; stroke-width:2px;"/><path d="M1271.17,718.14l120.16-69.37c3.35-1.93,8.78-1.93,12.12,0l111.72,64.5c3.35,1.93,3.35,5.07,0,7l-120.16,69.37c-3.35,1.93-8.78,1.93-12.12,0l-111.72-64.5c-3.35-1.93-3.35-5.07,0-7Z" style="fill:#202020;"/><path d="M1383.94,713.87l18.48,10.66m0-10.66l-18.48,10.66" style="fill:none; stroke:#f09436; stroke-linecap:round; stroke-linejoin:round; stroke-width:2px;"/><path d="M1271.17,718.14l120.16-69.37c3.35-1.93,8.78-1.93,12.12,0l111.72,64.5c3.35,1.93,3.35,5.07,0,7l-120.16,69.37c-3.35,1.93-8.78,1.93-12.12,0l-111.72-64.5c-3.35-1.93-3.35-5.07,0-7Z" style="fill:none; stroke:#374151; stroke-width:2px;"/><path d="M1419.05,632.77l120.16-69.37c3.35-1.93,8.78-1.93,12.12,0l111.72,64.5c3.35,1.93,3.35,5.07,0,7l-120.16,69.37c-3.35,1.93-8.78,1.93-12.12,0l-111.72-64.5c-3.35-1.93-3.35-5.07,0-7Z" style="fill:#202020;"/><path d="M1531.82,628.5l18.47,10.67m0-10.67l-18.47,10.67" style="fill:none; stroke:#f09436; stroke-linecap:round; stroke-linejoin:round; stroke-width:2px;"/><path d="M1419.05,632.77l120.16-69.37c3.35-1.93,8.78-1.93,12.12,0l111.72,64.5c3.35,1.93,3.35,5.07,0,7l-120.16,69.37c-3.35,1.93-8.78,1.93-12.12,0l-111.72-64.5c-3.35-1.93-3.35-5.07,0-7Z" style="fill:none; stroke:#374151; stroke-width:2px;"/><path d="M1566.93,547.4l120.16-69.37c3.35-1.93,8.78-1.93,12.12,0l111.72,64.5c3.35,1.93,3.35,5.07,0,7l-120.16,69.37c-3.35,1.93-8.78,1.93-12.12,0l-111.72-64.5c-3.35-1.93-3.35-5.07,0-7Z" style="fill:#202020;"/><path d="M1679.69,543.13l18.48,10.67m0-10.67l-18.48,10.67" style="fill:none; stroke:#f09436; stroke-linecap:round; stroke-linejoin:round; stroke-width:2px;"/><path d="M1566.93,547.4l120.16-69.37c3.35-1.93,8.78-1.93,12.12,0l111.72,64.5c3.35,1.93,3.35,5.07,0,7l-120.16,69.37c-3.35,1.93-8.78,1.93-12.12,0l-111.72-64.5c-3.35-1.93-3.35-5.07,0-7Z" style="fill:none; stroke:#374151; stroke-width:2px;"/><path d="M1714.8,462.03l120.16-69.37c3.35-1.93,8.78-1.93,12.12,0l111.72,64.5c3.35,1.93,3.35,5.07,0,7l-120.16,69.37c-3.35,1.93-8.78,1.93-12.12,0l-111.72-64.5c-3.35-1.93-3.35-5.07,0-7Z" style="fill:#202020;"/><path d="M1827.57,457.76l18.48,10.67m0-10.67l-18.48,10.67" style="fill:none; stroke:#f09436; stroke-linecap:round; stroke-linejoin:round; stroke-width:2px;"/><path d="M1714.8,462.03l120.16-69.37c3.35-1.93,8.78-1.93,12.12,0l111.72,64.5c3.35,1.93,3.35,5.07,0,7l-120.16,69.37c-3.35,1.93-8.78,1.93-12.12,0l-111.72-64.5c-3.35-1.93-3.35-5.07,0-7Z" style="fill:none; stroke:#374151; stroke-width:2px;"/></svg>