<?xml version="1.0" encoding="UTF-8"?><svg id="Heartrate" xmlns="http://www.w3.org/2000/svg" xmlns:xlink="http://www.w3.org/1999/xlink" viewBox="0 0 2287.04 1197.27"><defs><clipPath id="clippath"><path d="M712.57,395.66l268.47-154.99c3.83-2.21,10.03-2.21,13.86,0l251.15,144.99c3.83,2.21,3.83,5.79,0,8l-268.47,154.99c-3.83,2.21-10.03,2.21-13.86,0l-251.15-144.99c-3.83-2.21-3.83-5.79,0-8Z" style="fill:none;"/></clipPath><clipPath id="clippath-1"><path d="M712.57,395.66l268.47-154.99c3.83-2.21,10.03-2.21,13.86,0l251.15,144.99c3.83,2.21,3.83,5.79,0,8l-268.47,154.99c-3.83,2.21-10.03,2.21-13.86,0l-251.15-144.99c-3.83-2.21-3.83-5.79,0-8Z" style="fill:none;"/></clipPath><clipPath id="clippath-2"><polygon points="969.79 435.15 997.5 419.16 1025.21 435.15 997.5 451.15 969.79 435.15" style="fill:none;"/></clipPath><clipPath id="clippath-3"><path d="M1024.35,290.66h0c11.96-6.9,31.34-6.9,43.3,0h0c11.96,6.9,11.96,18.1,0,25h0c-11.96,6.9-31.34,6.9-43.3,0h0c-11.96-6.9-11.96-18.1,0-25Z" style="fill:none;"/></clipPath><clipPath id="clippath-4"><polygon points="1018.29 303.16 1046 287.16 1073.71 303.16 1046 319.16 1018.29 303.16" style="fill:none;"/></clipPath><clipPath id="clippath-5"><path d="M1169.85,374.66h0c11.96-6.9,31.34-6.9,43.3,0h0c11.96,6.9,11.96,18.1,0,25h0c-11.96,6.9-31.34,6.9-43.3,0h0c-11.96-6.9-11.96-18.1,0-25Z" style="fill:none;"/></clipPath><clipPath id="clippath-6"><polygon points="1163.78 387.16 1191.49 371.16 1219.2 387.16 1191.49 403.16 1163.78 387.16" style="fill:none;"/></clipPath><clipPath id="clippath-7"><polygon points="1176.78 389.66 1211.42 369.66 1246.06 389.66 1211.42 409.66 1176.78 389.66" style="fill:none;"/></clipPath><radialGradient id="radial-gradient" cx="369.24" cy="816.01" fx="369.24" fy="816.01" r="1" gradientTransform="translate(18067.69 -20529.05) rotate(-179.68) scale(44.6 -25.75) skewX(.37)" gradientUnits="userSpaceOnUse"><stop offset="0" stop-color="#131313"/><stop offset="1" stop-color="#131313" stop-opacity="0"/></radialGradient><clipPath id="clippath-8"><path d="M918.69,522.65l38.11-22c7.65-4.42,20.06-4.42,27.71,0l38.11,22-51.96,30-51.97-30Z" style="fill:none;"/></clipPath><clipPath id="clippath-9"><polygon points="942.07 525.15 969.79 509.15 997.5 525.15 969.79 541.15 942.07 525.15" style="fill:none;"/></clipPath></defs><g style="clip-path:url(#clippath);"><g><path d="M712.57,395.66l268.47-154.99c3.83-2.21,10.03-2.21,13.86,0l251.15,144.99c3.83,2.21,3.83,5.79,0,8l-268.47,154.99c-3.83,2.21-10.03,2.21-13.86,0l-251.15-144.99c-3.83-2.21-3.83-5.79,0-8Z" style="fill:#131313;"/><g style="clip-path:url(#clippath-1);"><g><path d="M712.57,395.66l268.47-154.99c3.83-2.21,10.03-2.21,13.86,0l251.15,144.99c3.83,2.21,3.83,5.79,0,8l-268.47,154.99c-3.83,2.21-10.03,2.21-13.86,0l-251.15-144.99c-3.83-2.21-3.83-5.79,0-8Z" style="fill:#131316;"/><path d="M745.29,411.76l3.49-2.02-8.47-4.89,9.5-5.48,8.47,4.89,3.48-2.01-19.53-11.27-3.48,2.01,8.12,4.69-9.5,5.48-8.12-4.69-3.49,2.02,19.53,11.27Zm27.58-15.58c4.02-2.32,3.68-4.8,2.25-6.17l-.08-.09-3.21,1.85,.05,.08c.35,.58,.23,1.71-1.6,2.77-2.29,1.32-5.26,1.26-7.96-.25l10.34-5.97-1.11-.64c-4.47-2.58-10.01-2.78-14.22-.35-4.21,2.43-3.86,5.74,.8,8.43h.01c4.71,2.73,10.33,2.89,14.72,.35Zm-12.85-7.28c1.88-1.09,4.45-1.18,7.1,.09l-7.02,4.05c-2.1-1.51-1.96-3.05-.08-4.14Zm26.85-.86c1.95-1.12,2.68-2.52,2.06-3.81l.23-.13,2.03,1.17,3.33-1.92-10.11-5.83c-3.12-1.8-7.1-1.63-10.91,.56-3.52,2.03-4.25,4.36-2.08,5.98l.11,.08,3.18-1.84-.04-.04c-.64-.76-.19-1.66,1.35-2.55,1.81-1.05,3.59-1.13,5.06-.28l1.27,.74-3.57,2.33c-3.38,2.2-3.86,4.26-1.22,5.78l.03,.02c2.69,1.55,6.47,1.38,9.28-.25Zm-6.12-1.77l-.03-.02c-1.22-.7-1.03-1.61,.73-2.76l3.11-2.05,1.19,.69c1.76,1.02,1.58,2.65-.45,3.82-1.49,.86-3.3,1.05-4.56,.32Zm17.81-5.27l3.37-1.95-8.59-4.96c-2.11-1.22-1.97-2.84,.27-4.14,.58-.34,1.22-.61,1.87-.86l-3.02-1.74c-.42,.13-1.02,.4-1.53,.7-1.95,1.12-2.37,2.45-1.29,3.65l-.23,.13-2.27-1.31-3.37,1.95,14.79,8.54Zm17.74-10.16c.65-.38,1.22-.77,1.61-1.1l-2.6-1.5c-.36,.26-.61,.41-1.08,.69-1.41,.81-2.61,.79-4.09-.06l-7.46-4.3,3.13-1.8-2.61-1.51-3.13,1.8-3.63-2.09-3.42,1.98,3.63,2.09-2.3,1.33,2.61,1.51,2.3-1.33,8.26,4.77c2.85,1.65,5.39,1.5,8.78-.46Zm12.79-7.46l3.49-2.02-7.35-4.24,3.87-2.23,11.18,2.03,3.99-2.3-12.14-2.09c1.48-1.82,.7-3.84-1.88-5.34l-.03-.02c-3.72-2.15-8.58-2.05-12.78,.37l-7.89,4.55,19.53,11.27Zm-6.54-7.81l-6.67-3.85,3.97-2.29c2.22-1.28,4.83-1.32,6.87-.14l.03,.02c2.1,1.21,2.04,2.66-.16,3.94l-4.03,2.33Zm29.24-5.02c1.95-1.12,2.68-2.52,2.06-3.81l.23-.13,2.03,1.17,3.33-1.92-10.11-5.83c-3.13-1.81-7.11-1.63-10.91,.56-3.52,2.03-4.25,4.36-2.08,5.98l.11,.08,3.18-1.84-.04-.04c-.64-.76-.19-1.66,1.35-2.55,1.81-1.05,3.59-1.13,5.06-.28l1.27,.73-3.57,2.33c-3.38,2.2-3.86,4.26-1.22,5.78l.03,.02c2.69,1.55,6.47,1.38,9.28-.25Zm-6.12-1.77l-.03-.02c-1.22-.7-1.03-1.61,.73-2.77l3.11-2.05,1.19,.69c1.76,1.02,1.58,2.65-.45,3.82-1.49,.86-3.3,1.05-4.56,.32Zm23.69-8.59c.65-.38,1.22-.76,1.61-1.1l-2.6-1.5c-.37,.26-.61,.41-1.08,.69-1.41,.81-2.61,.79-4.09-.06l-7.46-4.3,3.13-1.8-2.61-1.51-3.13,1.8-3.63-2.09-3.42,1.98,3.63,2.09-2.3,1.33,2.61,1.51,2.3-1.33,8.25,4.76c2.85,1.65,5.39,1.5,8.78-.46Zm11.54-6.4c4.02-2.32,3.68-4.8,2.25-6.17l-.08-.09-3.21,1.85,.05,.08c.35,.58,.23,1.71-1.6,2.77-2.29,1.32-5.26,1.26-7.96-.25l10.34-5.97-1.11-.64c-4.47-2.58-10.01-2.78-14.22-.35-4.21,2.43-3.86,5.74,.8,8.43h.01c4.71,2.73,10.33,2.89,14.72,.35Zm-12.85-7.28c1.88-1.09,4.45-1.18,7.1,.09l-7.02,4.05c-2.1-1.51-1.96-3.05-.08-4.14Z" style="fill:#fff;"/><path d="M967.38,283.55l3.49-2.01-19.52-11.27-3.48,2.01-1.52,5.02,3.29,1.9,1.42-4.79,.23-.13,16.09,9.29Zm16.57-9c4.64-2.68,3.51-6.58-2.79-10.22l-.03-.02c-6.31-3.64-13.04-4.28-17.69-1.6-4.64,2.68-3.5,6.55,2.81,10.2l.02,.02c6.31,3.64,13.03,4.3,17.68,1.62Zm-2.83-1.63c-2.49,1.44-6.7,.65-11.33-2.02l-.03-.02c-4.62-2.67-5.96-5.09-3.47-6.52,2.49-1.44,6.69-.68,11.32,1.99l.03,.02c4.63,2.67,5.97,5.12,3.48,6.55Zm21.3-9.14c4.49-2.59,5.29-5.74,1.95-7.67h-.03c-2.51-1.46-6.25-1.53-9.39-.33l-.08-.05c1.63-1.63,1.48-3.44-.61-4.65l-.03-.02c-3-1.73-8.08-1.35-12.12,.98-4.05,2.34-4.71,5.26-1.71,7h.03c2.09,1.23,5.22,1.31,8.05,.37l.08,.05c-2.07,1.8-1.96,3.98,.54,5.42l.03,.02c3.34,1.93,8.79,1.47,13.29-1.12Zm-11.86-6.84c-2.04,1.18-4.65,1.31-6.36,.33l-.02-.02c-1.71-.98-1.48-2.49,.56-3.67,2.05-1.18,4.66-1.31,6.36-.33l.03,.02c1.71,.98,1.48,2.49-.57,3.67Zm9.19,5.3c-2.34,1.35-5.36,1.53-7.24,.45h-.03c-1.89-1.11-1.62-2.84,.75-4.21,2.35-1.36,5.37-1.52,7.26-.43h.03c1.88,1.1,1.57,2.84-.77,4.19Z" style="fill:#f09436;"/><ellipse cx="963.73" cy="415.66" rx="143.3" ry="82.73" style="fill:#202020;"/><path d="M886.5,447.07l22.69-13.1c1.14-.59,2.64-.9,4.17-.87l4.64,.24c1.34,.08,1.85-.4,1.11-1.06l-6.82-6.1c-.74-.65-.42-.84,.69-.4l33.12,12.88c1.12,.43,1.32,.3,.48-.28l-39.28-27.32c-.86-.6-.61-.76,.55-.38l24.37,8.07c.61,.18,1.3,.25,1.98,.2,.68-.05,1.32-.22,1.83-.48l3.46-2c.56-.29,1.21-.5,1.93-.62,.71-.12,1.47-.16,2.2-.1l3.86,.45c.27,.05,.55,.06,.83,.02,.27-.04,.53-.12,.73-.23,.2-.12,.34-.26,.41-.42,.06-.16,.05-.32-.04-.48l-.78-2.23c-.1-.43-.04-.86,.17-1.27,.22-.41,.59-.79,1.08-1.11l5.2-3c.54-.28,1.2-.48,1.9-.58,.71-.1,1.45-.09,2.15,.03l5.75,1.1c.24,.08,.51,.11,.78,.09,.27-.02,.52-.08,.72-.18,.21-.1,.35-.24,.41-.39,.06-.15,.04-.31-.06-.46l-1.34-3.9c-.26-.76,.44-1.04,1.55-.6l25.03,9.59c1.13,.43,1.36,.29,.54-.31l-38.49-27.78c-.85-.61-.6-.76,.58-.33l23.56,8.5c.6,.19,1.28,.26,1.96,.21,.68-.05,1.31-.22,1.81-.49l6.06-3.5c1.14-.59,2.64-.9,4.17-.87l4.65,.24c.3,.02,.6,0,.89-.05,.29-.06,.55-.15,.77-.27,.21-.12,.38-.28,.47-.44,.1-.17,.13-.34,.08-.52l-.41-2.68c-.06-.88,.48-1.75,1.5-2.41l28.47-16.43" style="fill:none; stroke:#82efb8; stroke-linecap:round; stroke-linejoin:round; stroke-width:3px;"/><path d="M1059.86,471.15c53.09-30.65,53.09-80.34,0-110.99-53.09-30.65-139.17-30.65-192.26,0-53.09,30.65-53.09,80.34,0,110.99,53.09,30.65,139.17,30.65,192.26,0Zm-37.24-21.5c32.52-18.78,32.52-49.22,0-68-32.52-18.78-85.26-18.78-117.78,0-32.53,18.78-32.53,49.22,0,68,32.52,18.78,85.26,18.78,117.78,0Z" style="fill:#525252; fill-rule:evenodd;"/><path d="M1089.79,444.36c-6.63,9.67-16.73,18.73-30.28,26.56-13.55,7.82-29.25,13.65-46,17.48l-19.42-28.27c10.26-2.35,19.88-5.91,28.18-10.71,8.3-4.79,14.49-10.34,18.55-16.27l48.97,11.21Z" style="fill:#f09436; fill-rule:evenodd;"/><path d="M1022.83,445.39c26.88-17.78,25.66-44.79-3.67-61.73-16.74-9.66-39.17-14.04-61.06-13.14v90.27c14.34,.59,28.91-1.08,41.97-5.03l22.76-10.38Z" style="fill:rgba(255,255,255,.05); fill-rule:evenodd;"/><g style="clip-path:url(#clippath-2);"><g><path d="M986.7,431.15c-1.54-1.45,1.35-3.12,3.87-2.23,1.63,.57,3.75,.07,4.2-1,.69-1.66,4.77-1.66,5.47,0,.45,1.07,2.57,1.58,4.2,1,2.52-.89,5.41,.78,3.87,2.23-.99,.94-.11,2.17,1.74,2.43,2.87,.4,2.87,2.76,0,3.16-1.85,.26-2.73,1.48-1.74,2.42,1.54,1.46-1.35,3.12-3.87,2.23-1.63-.57-3.75-.07-4.2,1-.7,1.66-4.78,1.66-5.47,0-.45-1.07-2.57-1.58-4.2-1-2.52,.89-5.41-.78-3.87-2.23,.99-.94,.11-2.17-1.74-2.42-2.87-.4-2.87-2.76,0-3.16,1.85-.26,2.73-1.49,1.74-2.43Z" style="fill:none; stroke:#f09436; stroke-linecap:round; stroke-linejoin:round; stroke-width:2px;"/><path d="M1000.97,433.15c1.91,1.1,1.91,2.89,0,4-1.91,1.11-5.02,1.11-6.93,0-1.91-1.1-1.91-2.89,0-4,1.91-1.11,5.02-1.11,6.93,0Z" style="fill:none; stroke:#f09436; stroke-linecap:round; stroke-linejoin:round; stroke-width:2px;"/></g></g><g><g style="clip-path:url(#clippath-3);"><g><path d="M1024.35,290.66h0c11.96-6.9,31.34-6.9,43.3,0h0c11.96,6.9,11.96,18.1,0,25h0c-11.96,6.9-31.34,6.9-43.3,0h0c-11.96-6.9-11.96-18.1,0-25Z" style="fill:#282828;"/><g style="clip-path:url(#clippath-4);"><g><ellipse cx="1038.21" cy="301.66" rx="4.9" ry="2.83" style="fill:none; stroke:#f09436; stroke-width:2px;"/><ellipse cx="1054.66" cy="305.16" rx="4.9" ry="2.83" style="fill:none; stroke:#f09436; stroke-width:2px;"/><path d="M1042.54,299.16l6.93-4" style="fill:none; stroke:#f09436; stroke-linecap:round; stroke-width:4px;"/><path d="M1058.99,302.66l1.74-1" style="fill:none; stroke:#f09436; stroke-linecap:round; stroke-width:4px;"/><path d="M1043.4,311.66l6.93-4" style="fill:none; stroke:#f09436; stroke-linecap:round; stroke-width:4px;"/><path d="M1032.15,305.16l1.73-1" style="fill:none; stroke:#f09436; stroke-linecap:round; stroke-width:4px;"/></g></g></g></g><path d="M1024.78,290.91h0c11.72-6.77,30.72-6.77,42.44,0h0c11.72,6.77,11.72,17.73,0,24.5h0c-11.72,6.77-30.72,6.77-42.44,0h0c-11.72-6.77-11.72-17.73,0-24.5Z" style="fill:none; stroke:#0c0c0c;"/></g><g><path d="M1072.85,318.66h0c11.96-6.9,31.34-6.9,43.3,0h0c11.96,6.9,11.96,18.1,0,25h0c-11.96,6.9-31.34,6.9-43.3,0h0c-11.96-6.9-11.96-18.1,0-25Z" style="fill:#282828;"/><path d="M1082.39,325.16c.54-.34,1.42-.43,2.13-.22l9.05,2.7-.87-2.44c-.13-.37,.09-.75,.58-.99,.49-.24,1.18-.31,1.79-.18l5.87,1.26,3.4-1.96c.7-.4,1.83-.4,2.52,0,.7,.4,.7,1.05,0,1.46l-4.21,2.43c-.49,.29-1.23,.38-1.88,.24l-3.92-.84,.98,2.73c.14,.39-.12,.79-.67,1.03-.55,.24-1.29,.28-1.9,.09l-6.58-1.96,9.23,8.49c.43,.4,.34,.91-.21,1.25-.56,.34-1.45,.42-2.16,.2l-9.11-2.88,.35,.7c.17,.36,0,.74-.46,1.01l-4.08,2.36c-.7,.4-1.83,.4-2.52,0-.7-.4-.7-1.05,0-1.46l3.34-1.93-1.21-2.48c-.2-.4,.04-.83,.6-1.08,.56-.26,1.34-.3,1.97-.1l6.82,2.16-9.05-8.33c-.43-.39-.35-.9,.2-1.24Z" style="fill:#f09436;"/><path d="M1104.88,331.89l-.08,.05-.52,1.67-1.26-.73,.54-1.77,1.45-.84,6.96,4.02-1.46,.84-5.63-3.25Z" style="fill:#f09436;"/><path d="M1112.89,330.01l-.03,2.58,.95,.55,5.04-2.91-1.17-.68-3.15,1.82-.12-.07,.07-1.42c.1-1.41-.15-2.02-.93-2.47-1.2-.69-3.03-.58-4.46,.24-.34,.17-.62,.37-.82,.6-.2,.23-.32,.48-.34,.74-.03,.26,.04,.52,.19,.76,.16,.24,.4,.46,.71,.65l1.42-.82c-.15-.08-.28-.18-.36-.3-.08-.11-.12-.24-.12-.36s.05-.24,.14-.36c.09-.11,.22-.21,.38-.29,.13-.09,.28-.16,.46-.21,.18-.05,.37-.08,.56-.08,.2,0,.39,.02,.58,.06,.18,.05,.34,.11,.47,.19,.53,.31,.55,.66,.53,1.76Z" style="fill:#f09436;"/><path d="M1073.28,318.91h0c11.72-6.77,30.72-6.77,42.44,0h0c11.72,6.77,11.72,17.73,0,24.5h0c-11.72,6.77-30.72,6.77-42.44,0h0c-11.72-6.77-11.72-17.73,0-24.5Z" style="fill:none; stroke:#0c0c0c;"/></g><g><path d="M1121.35,346.66h0c11.96-6.9,31.34-6.9,43.3,0h0c11.96,6.9,11.96,18.1,0,25h0c-11.96,6.9-31.34,6.9-43.3,0h0c-11.96-6.9-11.96-18.1,0-25Z" style="fill:#282828;"/><path d="M1121.77,346.91h0c11.72-6.77,30.72-6.77,42.44,0h0c11.72,6.77,11.72,17.73,0,24.5h0c-11.72,6.77-30.72,6.77-42.44,0h0c-11.72-6.77-11.72-17.73,0-24.5Z" style="fill:none; stroke:#0c0c0c;"/></g><g><g style="clip-path:url(#clippath-5);"><g><path d="M1169.85,374.66h0c11.96-6.9,31.34-6.9,43.3,0h0c11.96,6.9,11.96,18.1,0,25h0c-11.96,6.9-31.34,6.9-43.3,0h0c-11.96-6.9-11.96-18.1,0-25Z" style="fill:#282828;"/><g style="clip-path:url(#clippath-6);"><g><path d="M1194.27,388.76c1.53-.88,1.53-2.32,0-3.2-1.53-.88-4.01-.88-5.54,0-1.53,.88-1.53,2.32,0,3.2,1.53,.88,4.01,.88,5.54,0Z" style="fill:#f09436;"/><path d="M1178.28,394.79c-3.86-4.26-2.69-9.65,3.52-13.23,6.2-3.58,15.53-4.26,22.92-2.03,3.86,4.27,2.68,9.65-3.52,13.23-6.21,3.58-15.54,4.26-22.92,2.03Zm18.76-10.83c3.06,1.77,3.06,4.63,0,6.4-3.06,1.77-8.02,1.77-11.08,0-3.07-1.77-3.07-4.63,0-6.4,3.06-1.77,8.02-1.77,11.08,0Z" style="fill:#f09436; fill-rule:evenodd;"/></g></g></g></g><path d="M1170.27,374.91h0c11.72-6.77,30.72-6.77,42.44,0h0c11.72,6.77,11.72,17.73,0,24.5h0c-11.72,6.77-30.72,6.77-42.44,0h0c-11.72-6.77-11.72-17.73,0-24.5Z" style="fill:none; stroke:#0c0c0c;"/></g></g></g><path d="M713.44,396.16l268.47-154.99c3.35-1.93,8.78-1.93,12.12,0l251.15,144.99c3.35,1.93,3.35,5.07,0,7l-268.47,154.99c-3.35,1.93-8.78,1.93-12.12,0l-251.15-144.99c-3.35-1.93-3.35-5.07,0-7Z" style="fill:none; stroke:#2f3136; stroke-width:2px;"/><g style="clip-path:url(#clippath-7);"><g><polygon points="1176.78 389.66 1211.42 369.66 1246.06 389.66 1211.42 409.66 1176.78 389.66" style="fill:url(#radial-gradient);"/><line x1="1210.7" y1="406.24" x2="1210.7" y2="373.07" style="fill:none; stroke:#f09436; stroke-linecap:round; stroke-width:4px;"/><line x1="1223.69" y1="398.74" x2="1223.69" y2="380.57" style="fill:none; stroke:#f09436; stroke-linecap:round; stroke-width:4px;"/><line x1="1235.82" y1="391.74" x2="1235.82" y2="387.57" style="fill:none; stroke:#f09436; stroke-linecap:round; stroke-width:4px;"/></g></g><g style="clip-path:url(#clippath-8);"><g><path d="M918.69,522.65l38.11-22c7.65-4.42,20.06-4.42,27.71,0l38.11,22-51.96,30-51.97-30Z" style="fill:#f09436;"/><g style="clip-path:url(#clippath-9);"><g><path d="M958.98,521.14c-1.54-1.45,1.35-3.12,3.86-2.23,1.63,.57,3.76,.07,4.21-1,.69-1.66,4.77-1.66,5.47,0,.45,1.07,2.57,1.58,4.2,1,2.52-.89,5.4,.78,3.87,2.23-1,.94-.12,2.17,1.74,2.42,2.87,.4,2.87,2.76,0,3.16-1.86,.26-2.74,1.48-1.74,2.42,1.53,1.45-1.35,3.12-3.87,2.23-1.63-.57-3.75-.07-4.2,1-.7,1.66-4.78,1.66-5.47,0-.45-1.07-2.58-1.58-4.21-1-2.52,.89-5.4-.78-3.86-2.23,.99-.94,.11-2.17-1.74-2.42-2.87-.4-2.87-2.76,0-3.16,1.85-.26,2.73-1.48,1.74-2.42Z" style="fill:none; stroke:#fff; stroke-linecap:round; stroke-linejoin:round; stroke-width:2px;"/><path d="M973.26,523.15c1.91,1.1,1.91,2.9,0,4-1.92,1.1-5.02,1.1-6.93,0-1.92-1.1-1.92-2.9,0-4,1.91-1.1,5.01-1.1,6.93,0Z" style="fill:none; stroke:#fff; stroke-linecap:round; stroke-linejoin:round; stroke-width:2px;"/></g></g></g></g><path d="M920.42,522.65l37.24-21.5c7.17-4.14,18.8-4.14,25.98,0l37.24,21.5-50.23,29-50.23-29Z" style="fill:none; stroke:#131313; stroke-width:2px;"/></g></g><path d="M713.44,396.16l268.47-154.99c3.35-1.93,8.78-1.93,12.12,0l251.15,144.99c3.35,1.93,3.35,5.07,0,7l-268.47,154.99c-3.35,1.93-8.78,1.93-12.12,0l-251.15-144.99c-3.35-1.93-3.35-5.07,0-7Z" style="fill:none; stroke:#f09436; stroke-width:2px;"/></svg>