<?xml version="1.0" encoding="UTF-8"?><svg id="Temperature" xmlns="http://www.w3.org/2000/svg" xmlns:xlink="http://www.w3.org/1999/xlink" viewBox="0 0 2287.04 1197.27"><defs><clipPath id="clippath"><path d="M988.84,558.15l122.98-71c3.83-2.21,10.03-2.21,13.86,0l118.65,68.5c3.83,2.21,3.83,5.79,0,8l-122.98,71c-3.83,2.21-10.03,2.21-13.86,0l-118.65-68.5c-3.83-2.21-3.83-5.79,0-8Z" style="fill:none;"/></clipPath><clipPath id="clippath-1"><path d="M988.84,558.15l122.98-71c3.83-2.21,10.03-2.21,13.86,0l118.65,68.5c3.83,2.21,3.83,5.79,0,8l-122.98,71c-3.83,2.21-10.03,2.21-13.86,0l-118.65-68.5c-3.83-2.21-3.83-5.79,0-8Z" style="fill:none;"/></clipPath><clipPath id="clippath-2"><polygon points="999.24 562.15 1118.75 493.15 1148.2 510.15 1028.68 579.14 999.24 562.15" style="fill:none;"/></clipPath><clipPath id="clippath-3"><polygon points="1035.61 583.14 1155.12 514.15 1192.36 535.65 1072.85 604.64 1035.61 583.14" style="fill:none;"/></clipPath><clipPath id="clippath-4"><polygon points="1079.78 608.64 1199.29 539.65 1233.93 559.65 1114.42 628.64 1079.78 608.64" style="fill:none;"/></clipPath><clipPath id="clippath-5"><path d="M1097.1,598.64h0c9.57-5.52,25.08-5.52,34.64,0h0c9.57,5.52,9.57,14.48,0,20h0c-9.57,5.52-25.08,5.52-34.64,0h0c-9.57-5.52-9.57-14.48,0-20Z" style="fill:none;"/></clipPath><clipPath id="clippath-6"><path d="M1181.97,549.65h0c9.57-5.52,25.08-5.52,34.64,0h0c9.57,5.52,9.57,14.48,0,20h0c-9.57,5.52-25.08,5.52-34.64,0h0c-9.57-5.52-9.57-14.48,0-20Z" style="fill:none;"/></clipPath><clipPath id="clippath-7"><polygon points="1175.04 559.65 1209.68 539.65 1244.32 559.65 1209.68 579.64 1175.04 559.65" style="fill:none;"/></clipPath><radialGradient id="radial-gradient" cx="369.24" cy="816.01" fx="369.24" fy="816.01" r="1" gradientTransform="translate(18065.95 -20359.06) rotate(-179.68) scale(44.6 -25.75) skewX(.37)" gradientUnits="userSpaceOnUse"><stop offset="0" stop-color="#131313"/><stop offset="1" stop-color="#131313" stop-opacity="0"/></radialGradient><clipPath id="clippath-8"><path d="M1062.46,608.64l38.1-22c7.66-4.42,20.06-4.42,27.72,0l38.1,22-51.96,30-51.96-30Z" style="fill:none;"/></clipPath><clipPath id="clippath-9"><polygon points="1085.84 611.14 1113.55 595.14 1141.26 611.14 1113.55 627.14 1085.84 611.14" style="fill:none;"/></clipPath></defs><g style="clip-path:url(#clippath);"><g><path d="M988.84,558.15l122.98-71c3.83-2.21,10.03-2.21,13.86,0l118.65,68.5c3.83,2.21,3.83,5.79,0,8l-122.98,71c-3.83,2.21-10.03,2.21-13.86,0l-118.65-68.5c-3.83-2.21-3.83-5.79,0-8Z" style="fill:#131313;"/><g style="opacity:.7;"><g style="clip-path:url(#clippath-1);"><g><path d="M988.84,558.15l122.98-71c3.83-2.21,10.03-2.21,13.86,0l118.65,68.5c3.83,2.21,3.83,5.79,0,8l-122.98,71c-3.83,2.21-10.03,2.21-13.86,0l-118.65-68.5c-3.83-2.21-3.83-5.79,0-8Z" style="fill:#202020;"/><g style="clip-path:url(#clippath-2);"><path d="M1013.67,566.81l1.53-.88-7.26-4.19,2.64-1.52-1.29-.74-6.79,3.92,1.29,.74,2.63-1.52,7.25,4.19Zm7.36-4.1c1.76-1.02,1.61-2.1,.99-2.7l-.04-.04-1.4,.81,.02,.03c.15,.25,.1,.75-.7,1.21-1,.58-2.3,.55-3.48-.11l4.52-2.61-.48-.28c-1.95-1.13-4.38-1.22-6.22-.15-1.84,1.06-1.69,2.51,.35,3.69h0c2.06,1.19,4.52,1.26,6.44,.15Zm-5.62-3.19c.82-.47,1.95-.52,3.11,.04l-3.08,1.77c-.91-.66-.85-1.34-.03-1.81Zm9.87,.58l1.48-.85-3.94-2.27c-.8-.46-.89-1.13-.16-1.55,.72-.42,1.61-.42,2.33,0l4.2,2.42,1.47-.85-4.04-2.33c-.74-.43-.82-1.05-.05-1.49,.79-.46,1.6-.43,2.44,.05l4.09,2.36,1.47-.85-4.45-2.57c-1.34-.78-2.92-.79-4.23-.03-.9,.52-1.18,1.22-.79,1.8l-.1,.06c-.99-.25-2.08-.14-2.96,.36-.85,.49-1.09,1.1-.65,1.68l-.1,.06-1-.58-1.48,.85,6.47,3.73Zm13.19-5.13l1.47-.85-3.18-1.84,.1-.06c1.04,.21,2.22,.03,3.11-.48,1.64-.95,1.38-2.27-.68-3.46h-.01c-2.05-1.19-4.38-1.34-6-.4-.9,.52-1.19,1.17-.84,1.78l-.11,.06-1.01-.58-1.47,.85,8.62,4.98Zm-.21-3.67c-1,.58-2.42,.47-3.72-.27h-.01c-1.3-.76-1.47-1.57-.47-2.15,1.01-.58,2.41-.47,3.72,.28h.01c1.29,.76,1.48,1.57,.47,2.15Zm8.64-3.53c1.76-1.01,1.61-2.1,.99-2.7l-.04-.04-1.4,.81,.02,.03c.16,.25,.1,.75-.7,1.21-1,.58-2.3,.55-3.48-.11l4.53-2.61-.49-.28c-1.95-1.13-4.38-1.22-6.22-.15-1.84,1.06-1.69,2.51,.35,3.69h0c2.06,1.19,4.52,1.27,6.44,.15Zm-5.62-3.18c.82-.47,1.95-.52,3.11,.04l-3.07,1.77c-.92-.66-.86-1.34-.04-1.81Zm9.88,.58l1.47-.85-3.76-2.17c-.92-.53-.86-1.24,.12-1.81,.25-.15,.53-.27,.82-.38l-1.32-.76c-.19,.06-.45,.17-.67,.3-.86,.49-1.04,1.07-.57,1.6l-.1,.06-.99-.57-1.48,.85,6.48,3.74Zm6.83-3.82c.85-.49,1.17-1.1,.9-1.67l.1-.06,.89,.51,1.45-.84-4.42-2.55c-1.37-.79-3.11-.71-4.77,.25-1.54,.89-1.86,1.91-.91,2.62l.04,.03,1.39-.8v-.02c-.29-.33-.1-.72,.58-1.11,.79-.46,1.57-.49,2.21-.12l.56,.32-1.56,1.02c-1.48,.96-1.69,1.86-.54,2.53h.02c1.17,.69,2.83,.61,4.06-.1Zm-2.68-.77h-.01c-.53-.31-.45-.71,.32-1.22l1.36-.9,.52,.3c.77,.44,.69,1.16-.19,1.67-.65,.38-1.45,.46-2,.14Zm10.37-3.76c.28-.16,.53-.34,.7-.48l-1.13-.66c-.16,.11-.27,.18-.48,.3-.61,.35-1.14,.34-1.79-.03l-3.26-1.88,1.37-.79-1.14-.66-1.37,.79-1.59-.92-1.5,.86,1.59,.92-1.01,.58,1.15,.66,1-.58,3.62,2.09c1.24,.72,2.35,.66,3.84-.2Zm4.48-2.47c.93-.54,1.17-1.16,.78-1.74l.1-.06,.98,.57,1.48-.85-6.47-3.73-1.48,.85,3.77,2.18c.98,.56,1.08,1.21,.13,1.76-.89,.51-1.77,.43-2.77-.14l-3.85-2.22-1.47,.85,4.18,2.42c1.54,.89,3.16,.96,4.62,.12Zm5.14-3.12l1.47-.85-3.76-2.17c-.92-.53-.86-1.24,.12-1.81,.26-.15,.53-.27,.82-.38l-1.32-.76c-.19,.06-.45,.18-.67,.3-.85,.49-1.04,1.07-.56,1.6l-.1,.06-1-.57-1.47,.85,6.47,3.73Zm7.78-4.34c1.76-1.02,1.61-2.1,.98-2.7l-.04-.04-1.4,.81,.02,.03c.16,.25,.11,.75-.69,1.21-1,.58-2.31,.55-3.48-.11l4.52-2.61-.49-.28c-1.95-1.13-4.38-1.22-6.22-.15-1.84,1.06-1.69,2.51,.35,3.69h.01c2.06,1.19,4.51,1.26,6.44,.15Zm-5.63-3.19c.83-.47,1.95-.52,3.11,.04l-3.07,1.77c-.92-.66-.86-1.34-.04-1.81Z" style="fill:#a2a4ae;"/></g><g style="clip-path:url(#clippath-3);"><path d="M1088.98,585.89c4.22-2.44,4.41-5.75,.35-8.09l-.02-.02c-3.74-2.16-9.08-2.2-12.72-.09-1.85,1.06-2.58,2.39-2.08,3.62l-.23,.13-5.39-3.74,8.99-5.2-2.86-1.66-11.72,6.77,10.48,7.15,2.99-1.73c-.2-.38-.25-.79-.2-1.16,.07-.79,.69-1.52,1.79-2.16,2.23-1.29,5.42-1.29,7.7,.02l.02,.02c2.3,1.33,2.35,3.16,.06,4.48-2,1.16-4.75,1.27-6.6,.5l-.11-.05-3.22,1.86,.19,.09c3.46,1.7,8.59,1.55,12.58-.75Zm18.05-10.42c4.64-2.68,3.52-6.58-2.79-10.22l-.02-.02c-6.31-3.64-13.05-4.28-17.69-1.6-4.64,2.68-3.5,6.55,2.8,10.2l.03,.02c6.31,3.64,13.03,4.3,17.67,1.62Zm-2.83-1.63c-2.49,1.44-6.69,.65-11.32-2.02l-.03-.02c-4.63-2.67-5.97-5.09-3.48-6.52,2.49-1.44,6.7-.68,11.33,1.99l.03,.02c4.62,2.67,5.96,5.12,3.47,6.55Zm15.11-5.7c1.24-.72,1.21-1.78,.01-2.48-1.21-.7-3.05-.71-4.29,0-1.23,.71-1.22,1.78-.01,2.48,1.2,.7,3.05,.7,4.29,0Zm12.76-7.12c4.64-2.68,3.51-6.58-2.79-10.22h-.03c-6.3-3.66-13.04-4.3-17.68-1.62-4.65,2.68-3.51,6.55,2.8,10.2l.02,.02c6.31,3.64,13.03,4.3,17.68,1.62Zm-2.83-1.63c-2.49,1.44-6.7,.65-11.33-2.02l-.03-.02c-4.62-2.67-5.96-5.09-3.47-6.52,2.49-1.44,6.7-.68,11.32,1.99l.03,.02c4.63,2.67,5.97,5.12,3.48,6.55Zm30-14.05c4.5-2.6,5.13-5.98,1.73-8.53l-.09-.05-3.43,1.98,.06,.05c1.65,1.53,1.19,3.39-1.29,4.82-3.33,1.92-8.17,1.51-12.62-1.05l-.03-.02c-4.44-2.56-5.14-5.36-1.83-7.27,2.46-1.42,5.86-1.62,8.68-.57l.06,.02,3.43-1.98-.11-.06c-4.45-2.04-10.64-1.72-15.08,.84-5.53,3.2-5.04,7.43,1.29,11.09h.03c6.3,3.66,13.66,3.94,19.2,.74Z" style="fill:#fff;"/></g><g style="clip-path:url(#clippath-4);"><g><g style="clip-path:url(#clippath-5);"><g><path d="M1097.1,598.64h0c9.57-5.52,25.08-5.52,34.64,0h0c9.57,5.52,9.57,14.48,0,20h0c-9.57,5.52-25.08,5.52-34.64,0h0c-9.57-5.52-9.57-14.48,0-20Z" style="fill:#2f3136;"/><path d="M1105.15,613.99c-.25-.15-.39-.34-.39-.55s.14-.4,.39-.55l16.63-9.6c.25-.15,.6-.23,.95-.23s.7,.08,.96,.23c.25,.15,.39,.34,.39,.55s-.14,.4-.39,.55l-16.63,9.6c-.25,.15-.6,.23-.95,.23s-.7-.08-.96-.23Z" style="fill:#f09436; stroke:#f09436;"/></g></g><g style="clip-path:url(#clippath-6);"><g><path d="M1181.97,549.65h0c9.57-5.52,25.08-5.52,34.64,0h0c9.57,5.52,9.57,14.48,0,20h0c-9.57,5.52-25.08,5.52-34.64,0h0c-9.57-5.52-9.57-14.48,0-20Z" style="fill:#2f3136;"/><path d="M1190.05,554.31l18.48,10.67m0-10.67l-18.48,10.67" style="fill:none; stroke:#f09436; stroke-linecap:round; stroke-linejoin:round; stroke-width:2px;"/></g></g></g></g></g></g><path d="M989.71,558.65l122.98-71c3.35-1.93,8.78-1.93,12.12,0l118.65,68.5c3.35,1.93,3.35,5.07,0,7l-122.98,71c-3.35,1.93-8.78,1.93-12.12,0l-118.65-68.5c-3.35-1.93-3.35-5.07,0-7Z" style="fill:none; stroke:#374151; stroke-width:2px;"/></g><g style="clip-path:url(#clippath-7);"><g><polygon points="1175.04 559.65 1209.68 539.65 1244.32 559.65 1209.68 579.64 1175.04 559.65" style="fill:url(#radial-gradient);"/><line x1="1208.97" y1="576.23" x2="1208.97" y2="543.06" style="fill:none; stroke:#f09436; stroke-linecap:round; stroke-width:4px;"/><line x1="1221.96" y1="568.73" x2="1221.96" y2="550.56" style="fill:none; stroke:#f09436; stroke-linecap:round; stroke-width:4px;"/><line x1="1234.08" y1="561.73" x2="1234.08" y2="557.56" style="fill:none; stroke:#f09436; stroke-linecap:round; stroke-width:4px;"/></g></g><g style="clip-path:url(#clippath-8);"><g><path d="M1062.46,608.64l38.1-22c7.66-4.42,20.06-4.42,27.72,0l38.1,22-51.96,30-51.96-30Z" style="fill:#f09436;"/><g style="clip-path:url(#clippath-9);"><g><path d="M1102.75,607.14c-1.54-1.46,1.35-3.12,3.87-2.23,1.63,.57,3.75,.06,4.2-1.01,.69-1.66,4.77-1.66,5.47,0,.45,1.07,2.57,1.58,4.2,1.01,2.52-.89,5.41,.78,3.87,2.23-.99,.94-.11,2.17,1.74,2.43,2.87,.4,2.87,2.76,0,3.16-1.85,.26-2.73,1.49-1.74,2.43,1.54,1.46-1.35,3.12-3.87,2.23-1.63-.57-3.75-.07-4.2,1.01-.7,1.66-4.78,1.66-5.47,0-.45-1.07-2.57-1.58-4.2-1.01-2.52,.89-5.41-.78-3.87-2.23,.99-.94,.11-2.17-1.74-2.43-2.87-.4-2.87-2.76,0-3.16,1.85-.26,2.73-1.49,1.74-2.43Z" style="fill:none; stroke:#fff; stroke-linecap:round; stroke-linejoin:round; stroke-width:2px;"/><path d="M1117.02,609.14c1.91,1.1,1.91,2.9,0,4-1.91,1.1-5.02,1.1-6.93,0-1.91-1.1-1.91-2.9,0-4,1.91-1.1,5.02-1.1,6.93,0Z" style="fill:none; stroke:#fff; stroke-linecap:round; stroke-linejoin:round; stroke-width:2px;"/></g></g></g></g><path d="M1064.19,608.64l37.24-21.5c7.17-4.14,18.81-4.14,25.98,0l37.24,21.5-50.23,29-50.23-29Z" style="fill:none; stroke:#131313; stroke-width:2px;"/></g></g><path d="M989.71,558.65l122.98-71c3.35-1.93,8.78-1.93,12.12,0l118.65,68.5c3.35,1.93,3.35,5.07,0,7l-122.98,71c-3.35,1.93-8.78,1.93-12.12,0l-118.65-68.5c-3.35-1.93-3.35-5.07,0-7Z" style="fill:none; stroke:#f09436; stroke-width:2px;"/></svg>