<?xml version="1.0" encoding="UTF-8"?><svg id="Events" xmlns="http://www.w3.org/2000/svg" xmlns:xlink="http://www.w3.org/1999/xlink" viewBox="0 0 2287.04 1197.27"><defs><clipPath id="clippath"><path d="M121.06,737.14l268.47-154.99c3.83-2.21,10.03-2.21,13.86,0l118.65,68.5c3.83,2.21,3.83,5.79,0,8l-268.47,154.99c-3.83,2.21-10.03,2.21-13.86,0l-118.65-68.5c-3.83-2.21-3.83-5.79,0-8Z" style="fill:none;"/></clipPath><clipPath id="clippath-1"><polygon points="357.06 645.39 384.77 629.39 412.49 645.39 384.77 661.39 357.06 645.39" style="fill:none;"/></clipPath><clipPath id="clippath-2"><polygon points="237.55 756.38 254.87 746.38 272.19 756.38 254.87 766.38 237.55 756.38" style="fill:none;"/></clipPath><clipPath id="clippath-3"><polygon points="355.33 688.39 372.65 678.39 389.97 688.39 372.65 698.39 355.33 688.39" style="fill:none;"/></clipPath><clipPath id="clippath-4"><polygon points="374.38 675.39 395.17 663.39 415.95 675.39 395.17 687.39 374.38 675.39" style="fill:none;"/></clipPath><clipPath id="clippath-5"><polygon points="398.63 661.39 419.42 649.39 440.2 661.39 419.42 673.39 398.63 661.39" style="fill:none;"/></clipPath><clipPath id="clippath-6"><polygon points="452.76 654.64 487.4 634.64 522.04 654.64 487.4 674.64 452.76 654.64" style="fill:none;"/></clipPath><radialGradient id="radial-gradient" cx="369.24" cy="816.01" fx="369.24" fy="816.01" r="1" gradientTransform="translate(17343.67 -20264.06) rotate(-179.68) scale(44.6 -25.75) skewX(.37)" gradientUnits="userSpaceOnUse"><stop offset="0" stop-color="#131313"/><stop offset="1" stop-color="#131313" stop-opacity="0"/></radialGradient><clipPath id="clippath-7"><path d="M194.68,787.63l38.11-22c7.65-4.42,20.06-4.42,27.71,0l38.11,22-51.96,30-51.96-30Z" style="fill:none;"/></clipPath><clipPath id="clippath-8"><polygon points="218.06 790.13 245.77 774.13 273.49 790.13 245.77 806.13 218.06 790.13" style="fill:none;"/></clipPath><clipPath id="clippath-9"><polygon points="131.46 741.13 393 590.14 410.32 600.14 148.78 751.13 131.46 741.13" style="fill:none;"/></clipPath></defs><g style="clip-path:url(#clippath);"><g><path d="M121.06,737.14l268.47-154.99c3.83-2.21,10.03-2.21,13.86,0l118.65,68.5c3.83,2.21,3.83,5.79,0,8l-268.47,154.99c-3.83,2.21-10.03,2.21-13.86,0l-118.65-68.5c-3.83-2.21-3.83-5.79,0-8Z" style="fill:#131313;"/><path d="M206.37,771.38h-12.12v-7" style="fill:none; stroke:#f09436; stroke-linecap:round; stroke-linejoin:round; stroke-width:2px;"/><g style="opacity:.7;"><polygon points="173.46 735.38 384.77 613.39 467.91 661.39 256.6 783.38 173.46 735.38" style="fill:#131313;"/><path d="M221.5,745.64l6.61-3.82-1.56-.9-4.76,2.75-8.81-5.09-1.85,1.07,10.37,5.99Zm11.38-6.39c2.14-1.23,1.96-2.55,1.19-3.28l-.04-.05-1.7,.98,.03,.04c.19,.31,.12,.91-.85,1.47-1.21,.7-2.8,.67-4.23-.13l5.49-3.17-.59-.34c-2.37-1.37-5.32-1.48-7.56-.19-2.24,1.29-2.05,3.05,.42,4.48h0c2.5,1.45,5.48,1.54,7.82,.19Zm-6.83-3.87c1-.58,2.37-.63,3.77,.05l-3.73,2.15c-1.12-.8-1.04-1.62-.04-2.2Zm14.91-.94c.35-.2,.65-.41,.86-.59l-1.38-.8c-.19,.14-.32,.22-.57,.36-.75,.43-1.39,.42-2.17-.03l-3.96-2.29,1.66-.96-1.39-.8-1.66,.96-1.93-1.11-1.82,1.05,1.93,1.11-1.22,.71,1.39,.8,1.22-.71,4.39,2.53c1.52,.88,2.86,.8,4.67-.24Zm-3.28-5.13l1.23-.71-3.08-3.21-1.85,1.07,3.7,2.85Zm12.9-.28c1.93-1.12,2.34-2.5,.84-3.36h-.02c-1.14-.67-2.52-.63-4.41,.06l-1.55,.57c-1.04,.38-1.65,.41-2.11,.14h0c-.59-.35-.4-.9,.39-1.36,.84-.48,1.76-.55,2.39-.34h.03s1.68-.96,1.68-.96h-.01c-1.39-.68-3.48-.56-5.39,.54-1.85,1.07-2.17,2.38-.75,3.2h0c1.16,.67,2.57,.67,4.4,0l1.56-.57c1.06-.39,1.7-.41,2.16-.15h.01c.59,.35,.37,.94-.52,1.45-.89,.52-1.8,.6-2.53,.39h-.02s-1.78,1.02-1.78,1.02h.01c1.48,.69,3.61,.52,5.61-.63Zm14.63-5.44c2.29-1.32,2.6-2.82,.79-3.87l-7.66-4.42-1.79,1.03,1.29,.75-.09,.05c-1.34-.26-2.72-.07-3.8,.55-2.03,1.17-1.7,2.79,.58,4.1h.01c2.23,1.29,5,1.47,6.99,.32,1.09-.63,1.48-1.39,1.09-2.13l.12-.07,1.5,.87c1.01,.58,.86,1.32-.36,2.03-1,.58-1.95,.72-2.57,.5h-.03s-1.79,1.02-1.79,1.02v.02c1.52,.66,3.65,.45,5.71-.74Zm-4.55-2.63c-1.24,.72-2.9,.57-4.29-.23h-.01c-1.39-.81-1.65-1.77-.4-2.49,1.24-.71,2.95-.59,4.34,.21h.01c1.39,.81,1.6,1.79,.35,2.51Zm11.07-4.14c2.35-1.36,2.24-3.07-.3-4.54h-.01c-2.53-1.47-5.51-1.53-7.85-.17-2.34,1.35-2.24,3.08,.29,4.53h.01c2.55,1.48,5.51,1.54,7.87,.18Zm-1.45-.84c-1.24,.72-2.93,.57-4.58-.39h-.02c-1.65-.96-1.92-1.94-.67-2.66,1.24-.71,2.92-.56,4.58,.4h.01c1.65,.96,1.92,1.93,.68,2.65Zm10.96-4.83l1.79-1.03-6.47-3.74,1.68-.97-1.39-.8-1.7,.98-.68-.39c-.75-.43-.83-.85,.01-1.34,.25-.15,.49-.27,.65-.33l-1.25-.72c-.34,.14-.68,.31-1.06,.53-1.75,1.01-1.78,1.91-.21,2.82l.78,.45-1.29,.74,1.39,.8,1.29-.74,6.47,3.73Zm7.01-3.9c1.04-.6,1.42-1.34,1.09-2.03l.12-.07,1.08,.62,1.77-1.02-5.37-3.1c-1.66-.96-3.77-.87-5.79,.3-1.87,1.08-2.26,2.32-1.11,3.18l.06,.04,1.69-.98-.02-.02c-.34-.4-.1-.88,.72-1.35,.96-.56,1.9-.6,2.69-.15l.68,.39-1.9,1.24c-1.8,1.17-2.05,2.26-.65,3.07h.01c1.43,.83,3.44,.74,4.93-.12Zm-3.25-.94h-.01c-.65-.38-.55-.86,.39-1.48l1.65-1.09,.63,.37c.93,.54,.84,1.41-.24,2.03-.79,.46-1.75,.56-2.42,.17Zm12.38-4.3c1.93-1.12,2.34-2.5,.84-3.37h-.01c-1.14-.67-2.52-.63-4.41,.06l-1.55,.57c-1.04,.38-1.65,.41-2.11,.14h0c-.59-.34-.4-.9,.39-1.36,.84-.49,1.76-.55,2.39-.34h.03s1.68-.96,1.68-.96h-.01c-1.39-.68-3.48-.57-5.39,.54-1.85,1.07-2.17,2.38-.75,3.2h0c1.16,.67,2.57,.67,4.4,0l1.56-.57c1.06-.39,1.7-.41,2.16-.14h.02c.59,.35,.37,.94-.52,1.45-.89,.51-1.8,.6-2.53,.39h-.02s-1.77,1.02-1.77,1.02h.01c1.48,.69,3.61,.52,5.61-.63Zm7.84-4.67c.35-.2,.65-.41,.86-.59l-1.38-.8c-.19,.14-.32,.22-.58,.36-.75,.43-1.39,.42-2.17-.03l-3.96-2.29,1.66-.96-1.39-.8-1.66,.96-1.93-1.11-1.82,1.05,1.93,1.11-1.22,.7,1.39,.8,1.22-.71,4.39,2.53c1.52,.88,2.86,.8,4.67-.24Z" style="fill:#fff;"/><g style="opacity:.7;"><g style="clip-path:url(#clippath-1);"><g><path d="M388.24,643.39c1.91,1.1,1.91,2.9,0,4-1.91,1.1-5.02,1.1-6.93,0-1.91-1.1-1.91-2.9,0-4,1.91-1.1,5.01-1.1,6.93,0Z" style="fill:none; stroke:#f09436; stroke-linecap:round; stroke-linejoin:round; stroke-width:2px;"/><path d="M373.76,651.75c-3.21-3.55-2.23-8.04,2.94-11.03,5.17-2.98,12.95-3.55,19.1-1.7,3.21,3.55,2.23,8.04-2.93,11.03-5.17,2.98-12.95,3.55-19.1,1.7Z" style="fill:none; stroke:#f09436; stroke-linecap:round; stroke-linejoin:round; stroke-width:2px;"/></g></g></g><g style="clip-path:url(#clippath-2);"><g style="opacity:.5;"><path d="M254,753.88c-.48,.28-1.25,.28-1.73,0-.48-.28-.48-.72,0-1l4.33-2.5c.48-.28,1.25-.28,1.73,0l4.33,2.5c.48,.28,.48,.72,0,1-.48,.28-1.25,.28-1.73,0l-2.24-1.29v4.29c0,.39-.55,.71-1.22,.71h-3.97v4.29c0,.39-.55,.71-1.23,.71s-1.22-.32-1.22-.71v-5c0-.39,.55-.71,1.22-.71h3.97v-3.59l-2.24,1.29Z" style="fill:#c0c2c8; fill-rule:evenodd;"/></g></g><path d="M271.94,751.02l1.47-.85-5.89-3.4,.1-.05,10.08,.97,1.32-.76-8.54-4.93-1.47,.85,5.88,3.4-.1,.05-10.08-.97-1.33,.77,8.54,4.93Zm11.97-6.76c1.94-1.12,1.85-2.53-.25-3.74h-.01c-2.08-1.21-4.54-1.26-6.46-.14-1.92,1.11-1.84,2.53,.24,3.73h.01c2.1,1.22,4.54,1.27,6.48,.15Zm-1.2-.69c-1.02,.59-2.41,.47-3.77-.32h-.01c-1.36-.79-1.58-1.6-.56-2.19,1.02-.59,2.41-.46,3.77,.32h.01c1.36,.79,1.58,1.59,.56,2.18Zm11.47-5.36c.28-.16,.53-.34,.7-.48l-1.14-.66c-.16,.11-.27,.18-.47,.3-.61,.35-1.14,.34-1.79-.03l-3.26-1.88,1.37-.79-1.14-.66-1.37,.79-1.59-.92-1.5,.86,1.59,.92-1.01,.58,1.14,.66,1.01-.58,3.61,2.09c1.25,.72,2.36,.66,3.84-.2Zm2.21-1.31l1.47-.85-3.76-2.17c-.92-.53-.86-1.24,.12-1.81,.25-.15,.53-.27,.82-.38l-1.32-.76c-.18,.06-.44,.17-.67,.3-.85,.49-1.04,1.07-.56,1.6l-.1,.06-.99-.57-1.47,.85,6.47,3.73Zm7.78-4.34c1.76-1.02,1.61-2.1,.98-2.7l-.04-.04-1.4,.81,.02,.03c.15,.25,.1,.75-.7,1.21-1,.58-2.3,.55-3.48-.11l4.52-2.61-.49-.28c-1.95-1.13-4.38-1.22-6.22-.15-1.84,1.06-1.69,2.51,.35,3.69h0c2.06,1.19,4.52,1.26,6.44,.15Zm-5.62-3.19c.82-.47,1.95-.52,3.11,.04l-3.07,1.77c-.92-.66-.86-1.34-.04-1.81Zm9.88,.58l1.47-.85-3.77-2.18c-.97-.56-1.04-1.23-.17-1.74,.89-.52,1.81-.46,2.82,.12l3.84,2.22,1.47-.85-4.19-2.42c-1.54-.89-3.2-.94-4.64-.1-.93,.54-1.14,1.14-.75,1.72l-.1,.06-.99-.57-1.47,.85,6.47,3.74Zm9.85-5.56c.91-.53,1.2-1.17,.85-1.78l.1-.06,1.01,.58,1.48-.85-8.98-5.18-1.48,.85,3.54,2.04-.1,.06c-1.04-.21-2.21-.03-3.1,.48-1.64,.95-1.37,2.27,.69,3.46h.01c2.05,1.19,4.36,1.34,5.99,.4Zm-.78-.98c-1.01,.58-2.4,.48-3.71-.27h-.01c-1.3-.76-1.48-1.57-.48-2.15,1-.58,2.43-.48,3.72,.27h.01c1.3,.76,1.47,1.57,.46,2.15Z" style="fill:#c0c2c8;"/><g style="opacity:.5;"><g style="clip-path:url(#clippath-3);"><path d="M366.02,683.26c.48-.14,1.05-.09,1.43,.13l4.33,2.5,3.46-2c.32-.19,.8-.25,1.23-.17,.43,.08,.76,.29,.84,.55l2.6,8.5c.09,.3-.17,.61-.64,.75-.47,.14-1.05,.09-1.43-.13l-4.33-2.5-3.46,2c-.32,.19-.8,.25-1.23,.17-.44-.08-.76-.29-.84-.55l-2.6-8.5c-.09-.3,.17-.61,.64-.75Z" style="fill:none; stroke:#c0c2c8; stroke-linecap:round; stroke-linejoin:round; stroke-width:2px;"/></g><g style="clip-path:url(#clippath-4);"><path d="M391.7,681.39v-4.59c0-.78,1.1-1.41,2.45-1.41h7.94m-3.46,0v-1.59c0-.78,1.1-1.41,2.45-1.41h2.75m-10.39,0h0m3.46,10l10.39-6c.96-.55,.96-1.45,0-2l-10.39-6c-.96-.55-2.51-.55-3.46,0l-10.39,6c-.96,.55-.96,1.45,0,2l10.39,6c.96,.55,2.51,.55,3.46,0Z" style="fill:none; stroke:#c0c2c8; stroke-linecap:round; stroke-linejoin:round; stroke-width:2px;"/></g><g style="clip-path:url(#clippath-5);"><path d="M418.55,663.18c-.68,0-1.23,.32-1.23,.71s.55,.71,1.23,.71v-1.41Zm3.46,.71v.71c.68,0,1.22-.32,1.22-.71h-1.22Zm1.22-4c0-.39-.55-.71-1.22-.71s-1.23,.32-1.23,.71h2.45Zm-2.96-4l10.39,6,1.73-1-10.39-6-1.73,1Zm10.39,7l-8.66,5,1.73,1,8.66-5-1.73-1Zm-10.39,5l-10.39-6-1.73,1,10.39,6,1.73-1Zm-10.39-7l1.73-1-1.73-1-1.73,1,1.73,1Zm6.93-4l1.73-1-1.73-1-1.73,1,1.73,1Zm5.2,11c-.48,.28-1.25,.28-1.73,0l-1.73,1c1.43,.83,3.76,.83,5.2,0l-1.73-1Zm8.66-6c.48,.28,.48,.72,0,1l1.73,1c1.43-.83,1.43-2.17,0-3l-1.73,1Zm-8.66-7c-1.43-.83-3.76-.83-5.2,0l1.73,1c.48-.28,1.25-.28,1.73,0l1.73-1Zm-12.12,7c-.48-.28-.48-.72,0-1l-1.73-1c-1.43,.83-1.43,2.17,0,3l1.73-1Zm8.66,2.71h3.46v-1.41h-3.46v1.41Zm4.69-.71v-4h-2.45v4h2.45Zm-11.62-6l1.73-1-1.73-1-1.73,1,1.73,1Zm3.46,0l-1.73,1,1.73,1,1.73-1-1.73-1Zm-1.73,1c-.48,.28-1.25,.28-1.73,0l-1.73,1c1.43,.83,3.76,.83,5.2,0l-1.73-1Zm1.73-2c.48,.28,.48,.72,0,1l1.73,1c1.43-.83,1.43-2.17,0-3l-1.73,1Zm-1.73,0c.48-.28,1.25-.28,1.73,0l1.73-1c-1.43-.83-3.76-.83-5.2,0l1.73,1Zm-3.46,0c-1.43,.83-1.43,2.17,0,3l1.73-1c-.48-.28-.48-.72,0-1l-1.73-1Z" style="fill:#c0c2c8;"/></g></g></g><path d="M435,625.39h12.12v7" style="fill:none; stroke:#f09436; stroke-linecap:round; stroke-linejoin:round; stroke-width:2px;"/><g style="clip-path:url(#clippath-6);"><g><polygon points="452.76 654.64 487.4 634.64 522.04 654.64 487.4 674.64 452.76 654.64" style="fill:url(#radial-gradient);"/><line x1="486.68" y1="671.22" x2="486.68" y2="638.05" style="fill:none; stroke:#f09436; stroke-linecap:round; stroke-width:4px;"/><line x1="499.67" y1="663.72" x2="499.67" y2="645.55" style="fill:none; stroke:#f09436; stroke-linecap:round; stroke-width:4px;"/><line x1="511.8" y1="656.73" x2="511.8" y2="652.55" style="fill:none; stroke:#f09436; stroke-linecap:round; stroke-width:4px;"/></g></g><g style="clip-path:url(#clippath-7);"><g><path d="M194.68,787.63l38.11-22c7.65-4.42,20.06-4.42,27.71,0l38.11,22-51.96,30-51.96-30Z" style="fill:#f09436;"/><g style="clip-path:url(#clippath-8);"><g><path d="M234.97,786.13c-1.54-1.46,1.35-3.12,3.87-2.23,1.63,.57,3.75,.07,4.2-1,.7-1.66,4.77-1.66,5.47,0,.45,1.07,2.57,1.58,4.2,1,2.52-.89,5.4,.78,3.87,2.23-.99,.94-.11,2.16,1.74,2.42,2.87,.4,2.87,2.76,0,3.16-1.85,.26-2.73,1.48-1.74,2.42,1.54,1.46-1.35,3.12-3.87,2.23-1.63-.57-3.75-.07-4.2,1-.7,1.66-4.78,1.66-5.47,0-.45-1.07-2.57-1.58-4.2-1-2.52,.89-5.4-.78-3.87-2.23,.99-.94,.11-2.17-1.74-2.42-2.87-.4-2.87-2.76,0-3.16,1.85-.26,2.73-1.48,1.74-2.42Z" style="fill:none; stroke:#fff; stroke-linecap:round; stroke-linejoin:round; stroke-width:2px;"/><path d="M249.24,788.13c1.91,1.11,1.91,2.9,0,4-1.91,1.11-5.02,1.11-6.93,0-1.91-1.1-1.91-2.89,0-4,1.91-1.1,5.01-1.1,6.93,0Z" style="fill:none; stroke:#fff; stroke-linecap:round; stroke-linejoin:round; stroke-width:2px;"/></g></g></g></g><path d="M196.41,787.63l37.24-21.5c7.18-4.14,18.81-4.14,25.98,0l37.24,21.5-50.23,29-50.23-29Z" style="fill:none; stroke:#131313; stroke-width:2px;"/><g style="clip-path:url(#clippath-9);"><g style="opacity:.5;"><path d="M143.77,747.03l5.53-3.19-1.28-.74-4,2.31-2.45-1.41,3.78-2.18-1.21-.7-3.78,2.18-2.31-1.34,4-2.31-1.29-.74-5.53,3.19,8.54,4.93Zm9.01-5.2l1.62-.93-4.18-5.06-1.55,.9,3.55,3.76-.1,.06-6.53-2.04-1.58,.91,8.77,2.41Zm7.79-4.35c1.76-1.02,1.61-2.1,.98-2.7l-.04-.04-1.4,.81,.02,.03c.15,.25,.1,.75-.7,1.21-1,.58-2.3,.55-3.48-.11l4.52-2.61-.48-.28c-1.95-1.13-4.38-1.22-6.22-.15-1.84,1.06-1.69,2.51,.35,3.69h0c2.06,1.19,4.52,1.26,6.44,.15Zm-5.62-3.19c.82-.48,1.95-.52,3.11,.04l-3.07,1.77c-.92-.66-.86-1.34-.03-1.81Zm9.88,.58l1.47-.85-3.77-2.18c-.97-.56-1.04-1.23-.17-1.74,.89-.52,1.81-.46,2.82,.12l3.84,2.22,1.47-.85-4.18-2.42c-1.54-.89-3.2-.94-4.64-.1-.93,.54-1.14,1.14-.75,1.72l-.1,.06-.99-.57-1.47,.85,6.47,3.73Zm9.99-5.73c.28-.16,.53-.33,.71-.48l-1.14-.66c-.16,.11-.27,.18-.47,.3-.62,.36-1.14,.35-1.79-.03l-3.26-1.88,1.37-.79-1.14-.66-1.37,.79-1.59-.92-1.5,.86,1.59,.92-1.01,.58,1.14,.66,1.01-.58,3.61,2.08c1.25,.72,2.36,.66,3.84-.2Zm4.7-2.6c1.59-.92,1.92-2.06,.69-2.77h-.01c-.94-.55-2.08-.52-3.63,.05l-1.28,.47c-.86,.31-1.36,.34-1.74,.12h0c-.49-.28-.33-.74,.33-1.12,.69-.4,1.45-.45,1.96-.28h.02s1.39-.79,1.39-.79h-.01c-1.14-.56-2.87-.46-4.44,.45-1.53,.88-1.79,1.96-.62,2.64h0c.95,.55,2.12,.55,3.62,0l1.28-.47c.87-.32,1.4-.34,1.78-.12h.01c.49,.29,.31,.77-.43,1.2-.73,.42-1.48,.49-2.08,.32h-.02s-1.46,.84-1.46,.84h.01c1.22,.57,2.97,.43,4.62-.52Zm7.33-4.38l5.93-3.42-1.27-.73-3.87,2.23-.12-.07,.05-1.95c.06-1.76-.24-2.48-1.21-3.04h-.02c-1.44-.84-3.65-.73-5.31,.23-1.78,1.03-1.91,2.39-.32,3.31h.02s1.43-.81,1.43-.81l-.02-.02c-.88-.51-.87-1.21,.04-1.73,.89-.51,2-.49,2.78-.04h.02c.66,.39,.76,.83,.78,2.17l.06,3.27,1.03,.59Zm13.79-7.81c1.94-1.12,1.85-2.53-.25-3.74h-.01c-2.08-1.21-4.54-1.26-6.46-.14-1.92,1.11-1.84,2.53,.24,3.73h.01c2.1,1.22,4.53,1.27,6.48,.15Zm-1.2-.69c-1.02,.59-2.41,.47-3.77-.32h-.01c-1.36-.79-1.58-1.6-.56-2.19,1.02-.59,2.41-.46,3.77,.32h.01c1.36,.79,1.58,1.59,.56,2.18Zm6.13-2.31l1.47-.85-5.33-3.08,1.38-.8-1.14-.66-1.4,.81-.56-.32c-.62-.35-.68-.7,.01-1.1,.21-.12,.4-.22,.53-.27l-1.03-.59c-.28,.11-.56,.26-.88,.44-1.44,.83-1.46,1.58-.17,2.32l.64,.37-1.06,.61,1.14,.66,1.06-.61,5.33,3.08Zm10.76-6.02c1.89-1.09,2.14-2.45,.64-3.32h-.01c-1.18-.69-2.76-.64-4.14,.02l-.03-.02c.81-.71,.87-1.56-.19-2.17h-.01c-1.34-.78-3.4-.65-5.16,.37-1.72,.99-1.92,2.23-.57,3.16l.06,.04,1.42-.82-.05-.04c-.69-.49-.54-1.12,.36-1.64,.91-.53,1.9-.56,2.68-.11h.01c.75,.44,.65,1.11-.29,1.65l-.98,.56,1.14,.66,1.01-.58c1.1-.63,2.26-.73,3.16-.21h.01c.79,.46,.69,1.16-.3,1.73-1,.58-2.18,.67-2.99,.3l-.07-.03-1.46,.84,.08,.04c1.57,.78,3.82,.66,5.69-.42Z" style="fill:#fff;"/></g></g></g></g><path d="M121.93,737.64l268.47-154.99c3.35-1.93,8.78-1.93,12.12,0l118.65,68.5c3.35,1.93,3.35,5.07,0,7l-268.47,154.99c-3.35,1.93-8.78,1.93-12.12,0l-118.65-68.5c-3.35-1.93-3.35-5.07,0-7Z" style="fill:none; stroke:#f09436; stroke-width:2px;"/></svg>