<?xml version="1.0" encoding="UTF-8"?><svg id="Blood_pressure" xmlns="http://www.w3.org/2000/svg" xmlns:xlink="http://www.w3.org/1999/xlink" viewBox="0 0 2287.04 1197.27"><defs><clipPath id="clippath"><path d="M417.87,565.15l268.47-154.99c3.83-2.21,10.03-2.21,13.86,0l248.55,143.49c3.83,2.21,3.83,5.79,0,8l-268.47,154.99c-3.83,2.21-10.03,2.21-13.86,0l-248.55-143.49c-3.83-2.21-3.83-5.79,0-8Z" style="fill:none;"/></clipPath><clipPath id="clippath-1"><path d="M417.87,565.15l268.47-154.99c3.83-2.21,10.03-2.21,13.86,0l251.15,144.99c3.83,2.21,3.83,5.79,0,8l-268.47,154.99c-3.83,2.21-10.03,2.21-13.86,0l-251.15-144.99c-3.83-2.21-3.83-5.79,0-8Z" style="fill:none;"/></clipPath><clipPath id="clippath-2"><path d="M875.14,544.15h0c11.96-6.9,31.34-6.9,43.3,0h0c11.96,6.9,11.96,18.1,0,25h0c-11.96,6.9-31.34,6.9-43.3,0h0c-11.96-6.9-11.96-18.1,0-25Z" style="fill:none;"/></clipPath><clipPath id="clippath-3"><polygon points="869.08 556.65 896.8 540.65 924.51 556.65 896.8 572.65 869.08 556.65" style="fill:none;"/></clipPath><clipPath id="clippath-4"><polygon points="879.47 557.65 914.12 537.65 948.76 557.65 914.12 577.65 879.47 557.65" style="fill:none;"/></clipPath><radialGradient id="radial-gradient" cx="370.58" cy="816.61" fx="370.58" fy="816.61" r="1" gradientTransform="translate(17830.39 -20376.06) rotate(-179.68) scale(44.6 -25.75) skewX(.37)" gradientUnits="userSpaceOnUse"><stop offset="0" stop-color="#131313"/><stop offset="1" stop-color="#131313" stop-opacity="0"/></radialGradient><clipPath id="clippath-5"><path d="M621.39,690.64l38.11-22c7.65-4.42,20.06-4.42,27.71,0l38.11,22-51.96,30-51.96-30Z" style="fill:none;"/></clipPath><clipPath id="clippath-6"><polygon points="644.78 693.14 672.49 677.14 700.2 693.14 672.49 709.14 644.78 693.14" style="fill:none;"/></clipPath><clipPath id="clippath-7"><polygon points="468.97 586.65 510.54 562.65 552.11 586.65 510.54 610.64 468.97 586.65" style="fill:none;"/></clipPath></defs><g style="clip-path:url(#clippath);"><g><path d="M417.87,565.15l268.47-154.99c3.83-2.21,10.03-2.21,13.86,0l248.55,143.49c3.83,2.21,3.83,5.79,0,8l-268.47,154.99c-3.83,2.21-10.03,2.21-13.86,0l-248.55-143.49c-3.83-2.21-3.83-5.79,0-8Z" style="fill:#131313;"/><g style="opacity:.7;"><g style="clip-path:url(#clippath-1);"><g><path d="M417.87,565.15l268.47-154.99c3.83-2.21,10.03-2.21,13.86,0l251.15,144.99c3.83,2.21,3.83,5.79,0,8l-268.47,154.99c-3.83,2.21-10.03,2.21-13.86,0l-251.15-144.99c-3.83-2.21-3.83-5.79,0-8Z" style="fill:#131316;"/><path d="M450.59,581.25l8.35-4.82c4.17-2.41,4.6-5.09,1.18-7.07l-.03-.02c-2.53-1.46-6.24-1.51-9.11-.13l-.24-.14c1.65-1.31,1.35-3.23-.69-4.41l-.03-.02c-2.99-1.73-7.09-1.51-10.8,.62l-8.16,4.71,19.53,11.27Zm-9.5-13.92c2.11-1.22,4.36-1.34,6.09-.34h.03c1.77,1.04,1.42,2.35-1.05,3.78l-3.37,1.95-5.51-3.18,3.82-2.2Zm8.09,4.55c2.67-1.54,5.11-1.75,7.09-.61l.03,.02c1.99,1.15,1.69,2.55-.88,4.04l-4.06,2.34-6.1-3.52,3.92-2.27Zm20.05-1.39l3.37-1.95-20.52-11.84-3.37,1.94,20.51,11.84Zm14.32-7.92c4.42-2.55,4.22-5.78-.57-8.55l-.03-.02c-4.76-2.75-10.36-2.86-14.78-.31-4.4,2.54-4.21,5.79,.54,8.53l.03,.02c4.79,2.76,10.36,2.89,14.8,.33Zm-2.73-1.58c-2.34,1.35-5.51,1.07-8.62-.73l-.03-.02c-3.11-1.8-3.61-3.63-1.27-4.98,2.33-1.34,5.51-1.05,8.62,.74l.03,.02c3.11,1.8,3.61,3.62,1.27,4.97Zm19.62-8.17c4.42-2.55,4.22-5.78-.57-8.55l-.03-.02c-4.76-2.75-10.36-2.86-14.78-.31-4.4,2.54-4.21,5.79,.54,8.53l.03,.02c4.79,2.77,10.36,2.89,14.8,.33Zm-2.73-1.58c-2.34,1.35-5.51,1.07-8.62-.73l-.03-.02c-3.11-1.8-3.61-3.63-1.27-4.98,2.33-1.34,5.51-1.05,8.62,.74l.03,.02c3.11,1.8,3.61,3.62,1.27,4.97Zm18.51-7.59c2.08-1.2,2.73-2.67,1.93-4.07l.23-.13,2.31,1.34,3.38-1.95-20.51-11.84-3.38,1.95,8.08,4.66-.23,.13c-2.37-.48-5.06-.08-7.09,1.09-3.75,2.16-3.14,5.19,1.57,7.91l.03,.02c4.68,2.7,9.97,3.04,13.68,.9Zm-1.79-2.25c-2.3,1.33-5.49,1.09-8.47-.62l-.03-.02c-2.98-1.72-3.38-3.58-1.1-4.9,2.29-1.32,5.55-1.09,8.51,.62l.03,.02c2.96,1.71,3.36,3.58,1.06,4.91Zm21.62-9.48l3.49-2.02-6.46-3.73,4.3-2.48c3.97-2.29,4.02-5.35,.12-7.6l-.03-.02c-3.91-2.26-9.2-2.22-13.17,.07l-7.79,4.5,19.53,11.27Zm-9.73-13.63c2.5-1.45,5.3-1.52,7.65-.16h.03c2.34,1.37,2.23,2.99-.27,4.44l-3.45,1.99-7.4-4.27,3.45-1.99Zm27.67,3.27l3.37-1.95-8.59-4.96c-2.11-1.22-1.98-2.84,.27-4.14,.58-.34,1.22-.61,1.87-.86l-3.02-1.74c-.42,.13-1.02,.4-1.53,.7-1.95,1.12-2.37,2.45-1.29,3.65l-.23,.13-2.27-1.31-3.37,1.95,14.79,8.54Zm17.78-9.92c4.02-2.32,3.68-4.8,2.25-6.17l-.08-.09-3.21,1.85,.05,.08c.35,.58,.23,1.71-1.6,2.77-2.29,1.32-5.26,1.26-7.96-.25l10.34-5.97-1.11-.64c-4.47-2.58-10.01-2.78-14.22-.35-4.21,2.43-3.86,5.74,.8,8.43h.01c4.71,2.73,10.32,2.89,14.72,.35Zm-12.85-7.28c1.88-1.09,4.45-1.18,7.1,.09l-7.02,4.05c-2.1-1.51-1.96-3.05-.08-4.14Zm28.46-1.73c3.64-2.1,4.4-4.71,1.58-6.34h-.03c-2.15-1.26-4.75-1.18-8.29,.12l-2.92,1.08c-1.96,.71-3.11,.77-3.98,.27h-.01c-1.11-.65-.76-1.69,.74-2.56,1.58-.91,3.32-1.04,4.49-.64l.05,.02,3.17-1.83-.03-.02c-2.61-1.26-6.55-1.05-10.15,1.03-3.49,2.02-4.09,4.48-1.42,6.02h.01c2.18,1.27,4.84,1.26,8.28,0l2.94-1.07c1.99-.73,3.21-.77,4.07-.27l.03,.02c1.11,.64,.7,1.75-.97,2.72-1.68,.97-3.38,1.12-4.76,.73h-.04s-3.34,1.92-3.34,1.92l.03,.02c2.79,1.28,6.79,.97,10.55-1.2Zm14.99-8.66c3.64-2.1,4.4-4.71,1.58-6.34h-.03c-2.15-1.26-4.75-1.18-8.3,.12l-2.92,1.08c-1.96,.71-3.11,.76-3.98,.26h-.01c-1.11-.65-.76-1.69,.74-2.56,1.58-.91,3.32-1.04,4.49-.64l.05,.02,3.17-1.83-.03-.02c-2.61-1.26-6.55-1.05-10.15,1.03-3.49,2.02-4.09,4.48-1.42,6.02h.01c2.18,1.26,4.84,1.26,8.28,0l2.94-1.07c1.99-.73,3.21-.77,4.07-.27l.03,.02c1.11,.64,.7,1.75-.97,2.72-1.68,.97-3.38,1.12-4.76,.74h-.04s-3.34,1.92-3.34,1.92l.03,.02c2.79,1.28,6.79,.97,10.55-1.2Zm14.57-8.41c2.14-1.23,2.68-2.66,1.79-3.97l.23-.13,2.25,1.3,3.37-1.95-14.79-8.54-3.37,1.95,8.62,4.98c2.22,1.28,2.46,2.77,.28,4.02-2.03,1.17-4.05,.99-6.33-.33l-8.8-5.08-3.37,1.95,9.57,5.52c3.52,2.03,7.23,2.2,10.56,.28Zm11.75-7.12l3.37-1.94-8.59-4.96c-2.11-1.22-1.97-2.84,.27-4.14,.58-.34,1.22-.61,1.87-.86l-3.02-1.74c-.42,.13-1.01,.4-1.53,.7-1.95,1.12-2.37,2.45-1.29,3.65l-.23,.13-2.27-1.31-3.37,1.94,14.79,8.54Zm17.78-9.92c4.02-2.32,3.68-4.8,2.25-6.17l-.08-.09-3.21,1.85,.05,.08c.35,.58,.23,1.71-1.6,2.76-2.29,1.32-5.26,1.26-7.96-.25l10.34-5.97-1.11-.64c-4.47-2.58-10.01-2.78-14.22-.35-4.21,2.43-3.86,5.74,.8,8.43h.01c4.71,2.73,10.33,2.89,14.72,.35Zm-12.86-7.28c1.88-1.09,4.45-1.18,7.1,.09l-7.02,4.05c-2.1-1.51-1.96-3.05-.08-4.14Z" style="fill:#fff;"/><path d="M677.36,450.34l3.49-2.02-19.53-11.27-3.48,2.01-1.51,5.02,3.29,1.9,1.42-4.79,.23-.13,16.09,9.29Zm8.92-5.15l13.56-7.83-2.9-1.67-8.84,5.1-.28-.16,.12-4.44c.14-4.03-.55-5.66-2.77-6.95l-.04-.02c-3.29-1.9-8.34-1.66-12.14,.54-4.07,2.35-4.37,5.46-.73,7.56l.05,.02,3.26-1.87-.04-.04c-2.02-1.16-1.99-2.76,.08-3.95,2.03-1.17,4.56-1.13,6.36-.09l.04,.02c1.5,.87,1.75,1.87,1.77,4.95l.14,7.48,2.35,1.36Zm22.21-12.82l3.49-2.01-19.53-11.27-3.48,2.01-1.52,5.02,3.29,1.9,1.42-4.79,.23-.13,16.09,9.29Z" style="fill:#f09436;"/><line x1="680.28" y1="460.65" x2="726.18" y2="434.16" style="fill:none; stroke:rgba(255,255,255,.5); stroke-width:2px;"/><path d="M720.01,473.71l3.65-2.11-8.27-14.41-2.91-1.68-13.59,7.84,2.85,1.65,10.07-5.81,.22,.12,7.97,14.4Zm2.19-24.37c-4.23,2.44-4.36,5.86-.39,8.15l.03,.02c3.71,2.14,9.07,2.2,12.82,.04,2.68-1.55,3.02-3.32,2.19-4.62l.27-.16c.15,.09,.29,.18,.43,.26,3.59,2.24,5.31,4.75,2.21,6.54-1.72,.99-3.82,1.17-5.7,.68l-.18-.05-3.44,1.98,.18,.07c3.61,1.37,8.42,1.05,12-1.02,4.91-2.84,3.98-6.8-2.6-10.59l-.03-.02c-7.04-4.06-13.63-3.68-17.79-1.27Zm10.64,6.16c-2.22,1.28-5.45,1.27-7.71-.03l-.03-.02c-2.18-1.26-2.18-3.24-.03-4.48,2.16-1.25,5.6-1.22,7.83,.07l.03,.02c2.21,1.27,2.11,3.17-.1,4.44Z" style="fill:#5cbdd0;"/><ellipse cx="669.03" cy="585.15" rx="143.3" ry="82.73" style="fill:#202020;"/><path d="M765.16,640.64c53.09-30.65,53.09-80.34,0-110.99-53.09-30.65-139.17-30.65-192.26,0-53.09,30.65-53.09,80.34,0,110.99,53.09,30.65,139.17,30.65,192.26,0Zm-37.24-21.5c32.52-18.78,32.52-49.22,0-67.99-32.53-18.78-85.26-18.78-117.78,0-32.53,18.78-32.53,49.22,0,67.99,32.52,18.78,85.26,18.78,117.78,0Z" style="fill:#525252; fill-rule:evenodd;"/><path d="M795.09,613.85c-6.63,9.67-16.73,18.73-30.28,26.56-13.55,7.82-29.25,13.65-46,17.48l-19.42-28.27c10.26-2.35,19.88-5.91,28.18-10.71,8.3-4.79,14.48-10.34,18.55-16.27l48.97,11.21Z" style="fill:#f09436; fill-rule:evenodd;"/><path d="M728.12,614.88c26.89-17.78,25.66-44.79-3.67-61.73-16.74-9.66-39.16-14.04-61.06-13.14v90.27c14.34,.59,28.91-1.08,41.97-5.03l22.76-10.38Z" style="fill:rgba(255,255,255,.05); fill-rule:evenodd;"/><path d="M641.63,594l-22.14-12.78,38.22-22.07,49.41,28.52-38.22,22.07-8.27-4.77" style="fill:none; stroke:#fe4f4f; stroke-miterlimit:10; stroke-width:3px;"/><path d="M619.49,581.22l25.84-14.92c.98-.56,2.32-.87,3.72-.86,1.4,.01,2.76,.34,3.77,.92l41.81,24.14c1,.58,1.58,1.37,1.6,2.18,.02,.81-.52,1.58-1.49,2.15l-25.85,14.92" style="fill:none; stroke:#fe4f4f; stroke-miterlimit:10; stroke-width:3px;"/><path d="M661.25,604.82c5.04-2.91,4.9-7.7-.31-10.71-5.21-3.01-13.52-3.09-18.55-.18-5.04,2.91-4.9,7.7,.31,10.71,5.21,3.01,13.52,3.09,18.55,.18Z" style="fill:none; stroke:#fe4f4f; stroke-miterlimit:10; stroke-width:3px;"/><path d="M698.03,592.45c2.49,1.44,5.79,2.29,9.18,2.36,3.39,.08,6.59-.63,8.89-1.96,2.3-1.33,3.52-3.18,3.39-5.13-.13-1.96-1.6-3.86-4.09-5.3l-17.56-10.14" style="fill:none; stroke:#fe4f4f; stroke-miterlimit:10; stroke-width:3px;"/><path d="M687.04,565.04l-.87,.5c-1.92,1.11-1.79,2.98,.29,4.18l4.14,2.39c2.08,1.2,5.32,1.28,7.24,.17l.87-.5c1.92-1.11,1.79-2.98-.29-4.18l-4.14-2.39c-2.08-1.2-5.32-1.28-7.24-.17Z" style="fill:none; stroke:#fe4f4f; stroke-miterlimit:10; stroke-width:3px;"/><g><g style="clip-path:url(#clippath-2);"><g><path d="M875.14,544.15h0c11.96-6.9,31.34-6.9,43.3,0h0c11.96,6.9,11.96,18.1,0,25h0c-11.96,6.9-31.34,6.9-43.3,0h0c-11.96-6.9-11.96-18.1,0-25Z" style="fill:#282828;"/><g style="clip-path:url(#clippath-3);"><g><ellipse cx="889" cy="555.15" rx="4.9" ry="2.83" style="fill:none; stroke:#f09436; stroke-width:2px;"/><ellipse cx="905.46" cy="558.65" rx="4.9" ry="2.83" style="fill:none; stroke:#f09436; stroke-width:2px;"/><path d="M893.33,552.65l6.93-4" style="fill:none; stroke:#f09436; stroke-linecap:round; stroke-width:4px;"/><path d="M909.79,556.15l1.73-1" style="fill:none; stroke:#f09436; stroke-linecap:round; stroke-width:4px;"/><path d="M894.2,565.15l6.93-4" style="fill:none; stroke:#f09436; stroke-linecap:round; stroke-width:4px;"/><path d="M882.94,558.65l1.73-1" style="fill:none; stroke:#f09436; stroke-linecap:round; stroke-width:4px;"/></g></g></g></g><path d="M875.58,544.4h0c11.72-6.77,30.72-6.77,42.44,0h0c11.72,6.77,11.72,17.73,0,24.5h0c-11.72,6.77-30.72,6.77-42.44,0h0c-11.72-6.77-11.72-17.73,0-24.5Z" style="fill:none; stroke:#0c0c0c;"/></g></g></g><path d="M418.74,565.65l268.47-154.99c3.35-1.93,8.78-1.93,12.12,0l251.15,144.99c3.35,1.93,3.35,5.07,0,7l-268.47,154.99c-3.35,1.93-8.78,1.93-12.12,0l-251.15-144.99c-3.35-1.93-3.35-5.07,0-7Z" style="fill:none; stroke:#2f3136; stroke-width:2px;"/></g><g style="clip-path:url(#clippath-4);"><g><polygon points="879.47 557.65 914.12 537.65 948.76 557.65 914.12 577.65 879.47 557.65" style="fill:url(#radial-gradient);"/><line x1="913.4" y1="574.23" x2="913.4" y2="541.06" style="fill:none; stroke:#f09436; stroke-linecap:round; stroke-width:4px;"/><line x1="926.39" y1="566.73" x2="926.39" y2="548.56" style="fill:none; stroke:#f09436; stroke-linecap:round; stroke-width:4px;"/><line x1="938.52" y1="559.73" x2="938.52" y2="555.56" style="fill:none; stroke:#f09436; stroke-linecap:round; stroke-width:4px;"/></g></g><g style="clip-path:url(#clippath-5);"><g><path d="M621.39,690.64l38.11-22c7.65-4.42,20.06-4.42,27.71,0l38.11,22-51.96,30-51.96-30Z" style="fill:#f09436;"/><g style="clip-path:url(#clippath-6);"><g><path d="M661.68,689.13c-1.54-1.45,1.35-3.12,3.87-2.23,1.63,.57,3.75,.07,4.2-1,.7-1.66,4.78-1.66,5.47,0,.45,1.07,2.57,1.58,4.2,1,2.52-.89,5.4,.78,3.87,2.23-.99,.94-.11,2.17,1.74,2.43,2.87,.4,2.87,2.76,0,3.16-1.85,.26-2.73,1.48-1.74,2.42,1.54,1.46-1.35,3.12-3.87,2.23-1.63-.57-3.75-.07-4.2,1.01-.7,1.65-4.78,1.65-5.47,0-.45-1.07-2.57-1.58-4.2-1.01-2.52,.89-5.4-.78-3.87-2.23,.99-.94,.11-2.16-1.74-2.42-2.87-.4-2.87-2.76,0-3.16,1.85-.26,2.73-1.49,1.74-2.43Z" style="fill:none; stroke:#fff; stroke-linecap:round; stroke-linejoin:round; stroke-width:2px;"/><path d="M675.95,691.14c1.91,1.1,1.91,2.9,0,4-1.91,1.1-5.02,1.1-6.93,0-1.91-1.1-1.91-2.9,0-4,1.91-1.1,5.02-1.1,6.93,0Z" style="fill:none; stroke:#fff; stroke-linecap:round; stroke-linejoin:round; stroke-width:2px;"/></g></g></g></g><path d="M623.13,690.64l37.24-21.5c7.17-4.14,18.81-4.14,25.98,0l37.24,21.5-50.23,29-50.23-29Z" style="fill:none; stroke:#131313; stroke-width:2px;"/><g style="clip-path:url(#clippath-7);"><g><g><path d="M525.93,590.35l2.28-1.31c.41-.24,.41-.62,0-.86l-2.48-1.43c-.17-.1-.3-.22-.36-.36l-.88-1.83c-1.07-2.23-3.13-4.27-5.96-5.9-1.33-.77-3.05-1.52-5.02-1.85-2.07-.35-4.66,.44-4.09,1.64h0c.18,.37,.66,.67,1.13,.94l.17,.1s.01,0,.02,.01c.02,.02,.01,.04,0,.05-.06,.07-.24,0-.36-.04-1.89-.55-3.46-1.38-5.39-.27-.78,.45-1.02,1.11-.68,1.68,.22,.36,.77,.61,1.32,.82h0s.01,0,.02,0c.1,.08-.08,.18-.21,.11-1.94-.73-3.98-2.01-6.28-.69-.82,.48-1.01,1.17-.57,1.75,.32,.42,1.07,.64,1.8,.81h0s.02,0,.02,0c.1,.06-.06,.17-.18,.12h0c-2.14-.88-5.85-1.19-6.04,.32-.01,.09-.01,.18-.01,.28,0,.7,.68,1.33,1.75,1.65,2.08,.85,4.57,1.6,6.38,2.65h0c1.43,.82-2.73,.88-3.66,1.91-.55,.61-.5,1.39,.48,1.96h0c.85,.49,2.13,.62,3.22,.91l1.51,.41c1.3,.35,2.68,.62,4.12,.67,1.73,.05,3.46-.02,5.16-.21l1.46-.17c.59-.07,1.21,.04,1.63,.29,.6,.35,1.48,.54,2.19,.13l2.58-1.49c.78-.45,1.11-1.09,.9-1.72-.21-.6-.4-1.39,.49-1.9,1.35-.78,2.29,.27,3.17,.77,.1,.06,.28,.06,.38,0Z" style="fill:#fff;"/><path d="M525.93,590.35l2.28-1.31c.41-.24,.41-.62,0-.86l-2.48-1.43c-.17-.1-.3-.22-.36-.36l-.88-1.83c-1.07-2.23-3.13-4.27-5.96-5.9-1.33-.77-3.05-1.52-5.02-1.85-2.07-.35-4.66,.44-4.09,1.64h0c.18,.37,.66,.67,1.13,.94l.17,.1s.01,0,.02,.01c.02,.02,.01,.04,0,.05-.06,.07-.24,0-.36-.04-1.89-.55-3.46-1.38-5.39-.27-.78,.45-1.02,1.11-.68,1.68,.22,.36,.77,.61,1.32,.82h0s.01,0,.02,0c.1,.08-.08,.18-.21,.11-1.94-.73-3.98-2.01-6.28-.69-.82,.48-1.01,1.17-.57,1.75,.32,.42,1.07,.64,1.8,.81h0s.02,0,.02,0c.1,.06-.06,.17-.18,.12h0c-2.14-.88-5.85-1.19-6.04,.32-.01,.09-.01,.18-.01,.28,0,.7,.68,1.33,1.75,1.65,2.08,.85,4.57,1.6,6.38,2.65h0c1.43,.82-2.73,.88-3.66,1.91-.55,.61-.5,1.39,.48,1.96h0c.85,.49,2.13,.62,3.22,.91l1.51,.41c1.3,.35,2.68,.62,4.12,.67,1.73,.05,3.46-.02,5.16-.21l1.46-.17c.59-.07,1.21,.04,1.63,.29,.6,.35,1.48,.54,2.19,.13l2.58-1.49c.78-.45,1.11-1.09,.9-1.72-.21-.6-.4-1.39,.49-1.9,1.35-.78,2.29,.27,3.17,.77,.1,.06,.28,.06,.38,0Z" style="fill:none; stroke:#000; stroke-width:1.2px;"/></g><line x1="509.36" y1="586.94" x2="516.02" y2="590.79" style="fill:none; stroke:#000; stroke-width:1.2px;"/><line x1="512.78" y1="584.97" x2="519.44" y2="588.82" style="fill:none; stroke:#000; stroke-width:1.2px;"/><line x1="516.28" y1="582.95" x2="522.95" y2="586.79" style="fill:none; stroke:#000; stroke-width:1.2px;"/></g></g></g></g><path d="M418.74,565.65l268.47-154.99c3.35-1.93,8.78-1.93,12.12,0l248.55,143.49c3.35,1.93,3.35,5.07,0,7l-268.47,154.99c-3.35,1.93-8.78,1.93-12.12,0l-248.55-143.49c-3.35-1.93-3.35-5.07,0-7Z" style="fill:none; stroke:#f09436; stroke-width:2px;"/></svg>