<?xml version="1.0" encoding="UTF-8"?><svg id="Small_Heartrate" xmlns="http://www.w3.org/2000/svg" xmlns:xlink="http://www.w3.org/1999/xlink" viewBox="0 0 2287.04 1197.27"><defs><clipPath id="clippath"><path d="M1139.53,471.15l120.38-69.5c3.83-2.21,10.03-2.21,13.86,0l117.78,68c3.83,2.21,3.83,5.79,0,8l-120.38,69.5c-3.83,2.21-10.03,2.21-13.86,0l-117.78-68c-3.83-2.21-3.83-5.79,0-8Z" style="fill:none;"/></clipPath><clipPath id="clippath-1"><polygon points="1265.73 479.48 1280.41 471.01 1295.1 479.48 1280.41 487.96 1265.73 479.48" style="fill:none;"/></clipPath><clipPath id="clippath-2"><polygon points="1322.27 473.65 1356.91 453.65 1391.55 473.65 1356.91 493.65 1322.27 473.65" style="fill:none;"/></clipPath><radialGradient id="radial-gradient" cx="369.24" cy="816.01" fx="369.24" fy="816.01" r="1" gradientTransform="translate(18213.18 -20445.05) rotate(-179.68) scale(44.6 -25.75) skewX(.37)" gradientUnits="userSpaceOnUse"><stop offset="0" stop-color="#131313"/><stop offset="1" stop-color="#131313" stop-opacity="0"/></radialGradient><clipPath id="clippath-3"><path d="M1212.28,521.15l38.11-22c7.65-4.42,20.06-4.42,27.71,0l38.11,22-51.96,30-51.97-30Z" style="fill:none;"/></clipPath><clipPath id="clippath-4"><polygon points="1235.67 523.65 1263.38 507.65 1291.09 523.65 1263.38 539.65 1235.67 523.65" style="fill:none;"/></clipPath></defs><g style="clip-path:url(#clippath);"><g><path d="M1139.53,471.15l120.38-69.5c3.83-2.21,10.03-2.21,13.86,0l117.78,68c3.83,2.21,3.83,5.79,0,8l-120.38,69.5c-3.83,2.21-10.03,2.21-13.86,0l-117.78-68c-3.83-2.21-3.83-5.79,0-8Z" style="fill:#131313;"/><g style="opacity:.7;"><ellipse cx="1262.51" cy="469.15" rx="75.94" ry="43.84" style="fill:#202020;"/><path d="M1221.59,485.8l12.03-6.94c.6-.31,1.4-.48,2.21-.46l2.46,.13c.71,.04,.98-.21,.59-.56l-3.62-3.23c-.39-.35-.22-.44,.37-.21l17.55,6.82c.59,.23,.7,.16,.25-.15l-20.81-14.48c-.46-.32-.33-.4,.29-.2l12.92,4.28c.32,.1,.68,.13,1.05,.11,.36-.03,.69-.12,.97-.26l1.83-1.06c.3-.15,.64-.26,1.02-.33,.38-.07,.78-.08,1.17-.05l2.05,.24c.14,.03,.29,.03,.44,.01,.14-.02,.28-.06,.38-.12,.11-.06,.18-.14,.22-.22,.03-.08,.02-.17-.02-.25l-.42-1.18c-.05-.23-.02-.46,.09-.67,.12-.22,.31-.42,.58-.59l2.75-1.59c.29-.15,.64-.25,1.01-.3,.38-.05,.77-.05,1.14,.01l3.05,.58c.12,.04,.26,.06,.41,.05,.14,0,.27-.04,.38-.1,.11-.06,.18-.13,.22-.21,.03-.08,.02-.17-.04-.24l-.71-2.07c-.13-.4,.24-.55,.83-.32l13.26,5.08c.6,.23,.72,.15,.29-.16l-20.4-14.72c-.45-.32-.32-.4,.31-.18l12.48,4.5c.32,.1,.68,.14,1.04,.11s.69-.12,.96-.26l3.21-1.86c.61-.31,1.4-.48,2.21-.46l2.46,.13c.16,.01,.33,0,.48-.02,.15-.03,.29-.08,.4-.14,.12-.07,.2-.15,.25-.23,.06-.09,.07-.18,.05-.27l-.22-1.42c-.03-.47,.25-.93,.8-1.28l15.08-8.71" style="fill:none; stroke:#82efb8; stroke-linecap:round; stroke-linejoin:round; stroke-width:2px;"/><path d="M1313.46,498.56c28.13-16.24,28.13-42.57,0-58.82-28.14-16.24-73.75-16.24-101.89,0-28.13,16.24-28.13,42.58,0,58.82,28.14,16.24,73.75,16.24,101.89,0Zm-19.74-11.39c17.24-9.95,17.24-26.08,0-36.03-17.23-9.95-45.18-9.95-62.41,0-17.24,9.95-17.24,26.08,0,36.03,17.23,9.95,45.18,9.95,62.41,0Z" style="fill:#525252; fill-rule:evenodd;"/><path d="M1329.32,484.36c-3.52,5.12-8.87,9.93-16.05,14.07-7.18,4.15-15.5,7.23-24.38,9.26l-10.29-14.98c5.44-1.24,10.54-3.13,14.94-5.67,4.4-2.54,7.67-5.48,9.83-8.62l25.95,5.94Z" style="fill:#f09436; fill-rule:evenodd;"/><path d="M1293.83,484.91c14.25-9.42,13.6-23.74-1.94-32.71-8.87-5.12-20.76-7.44-32.36-6.96v47.84c7.6,.31,15.32-.57,22.24-2.66l12.06-5.5Z" style="fill:rgba(255,255,255,.05); fill-rule:evenodd;"/><g style="clip-path:url(#clippath-1);"><g><path d="M1274.69,477.36c-.82-.77,.71-1.65,2.05-1.18,.86,.3,1.98,.04,2.22-.53,.37-.88,2.53-.88,2.9,0,.24,.57,1.37,.84,2.23,.53,1.33-.47,2.86,.41,2.05,1.18-.53,.5-.06,1.15,.92,1.29,1.52,.21,1.52,1.46,0,1.67-.98,.14-1.45,.79-.92,1.29,.81,.77-.72,1.65-2.05,1.18-.86-.3-1.99-.03-2.23,.53-.37,.88-2.53,.88-2.9,0-.24-.57-1.36-.84-2.22-.53-1.34,.47-2.87-.41-2.05-1.18,.52-.5,.06-1.15-.93-1.29-1.52-.21-1.52-1.46,0-1.67,.99-.14,1.45-.79,.93-1.29Z" style="fill:none; stroke:#f09436; stroke-linecap:round; stroke-linejoin:round; stroke-width:2px;"/><path d="M1282.25,478.42c1.01,.59,1.01,1.53,0,2.12-1.02,.58-2.66,.58-3.67,0-1.02-.59-1.02-1.54,0-2.12,1.01-.58,2.65-.58,3.67,0Z" style="fill:none; stroke:#f09436; stroke-linecap:round; stroke-linejoin:round; stroke-width:2px;"/></g></g></g><g style="clip-path:url(#clippath-2);"><g><polygon points="1322.27 473.65 1356.91 453.65 1391.55 473.65 1356.91 493.65 1322.27 473.65" style="fill:url(#radial-gradient);"/><line x1="1356.2" y1="490.24" x2="1356.2" y2="457.07" style="fill:none; stroke:#f09436; stroke-linecap:round; stroke-width:4px;"/><line x1="1369.19" y1="482.74" x2="1369.19" y2="464.57" style="fill:none; stroke:#f09436; stroke-linecap:round; stroke-width:4px;"/><line x1="1381.31" y1="475.74" x2="1381.31" y2="471.57" style="fill:none; stroke:#f09436; stroke-linecap:round; stroke-width:4px;"/></g></g><g style="clip-path:url(#clippath-3);"><g><path d="M1212.28,521.15l38.11-22c7.65-4.42,20.06-4.42,27.71,0l38.11,22-51.96,30-51.97-30Z" style="fill:#f09436;"/><g style="clip-path:url(#clippath-4);"><g><path d="M1252.57,519.64c-1.53-1.45,1.35-3.12,3.87-2.23,1.63,.57,3.75,.07,4.2-1,.7-1.66,4.78-1.66,5.48,0,.45,1.07,2.57,1.58,4.2,1,2.52-.89,5.4,.78,3.87,2.23-1,.94-.12,2.17,1.74,2.42,2.86,.4,2.86,2.76,0,3.16-1.86,.26-2.74,1.48-1.74,2.42,1.53,1.45-1.35,3.12-3.87,2.23-1.63-.57-3.75-.07-4.2,1.01-.7,1.65-4.78,1.65-5.48,0-.45-1.07-2.57-1.58-4.2-1.01-2.52,.89-5.4-.78-3.87-2.23,1-.94,.12-2.17-1.74-2.42-2.86-.4-2.86-2.76,0-3.16,1.86-.26,2.74-1.48,1.74-2.42Z" style="fill:none; stroke:#fff; stroke-linecap:round; stroke-linejoin:round; stroke-width:2px;"/><path d="M1266.84,521.65c1.92,1.1,1.92,2.9,0,4-1.91,1.1-5.01,1.1-6.92,0-1.92-1.1-1.92-2.9,0-4,1.91-1.1,5.01-1.1,6.92,0Z" style="fill:none; stroke:#fff; stroke-linecap:round; stroke-linejoin:round; stroke-width:2px;"/></g></g></g></g><path d="M1214.02,521.15l37.24-21.5c7.17-4.14,18.8-4.14,25.98,0l37.24,21.5-50.23,29-50.23-29Z" style="fill:none; stroke:#131313; stroke-width:2px;"/></g></g><path d="M1140.4,471.65l120.38-69.5c3.35-1.93,8.78-1.93,12.12,0l117.78,68c3.35,1.93,3.35,5.07,0,7l-120.38,69.5c-3.35,1.93-8.78,1.93-12.12,0l-117.78-68c-3.35-1.93-3.35-5.07,0-7Z" style="fill:none; stroke:#f09436; stroke-width:2px;"/></svg>