<?xml version="1.0" encoding="UTF-8"?><svg id="Popup" xmlns="http://www.w3.org/2000/svg" xmlns:xlink="http://www.w3.org/1999/xlink" viewBox="0 0 2287.04 1197.27"><defs><clipPath id="clippath"><polygon points="679.86 823.14 980.37 649.65 1355.37 866.13 1054.85 1039.62 679.86 823.14" style="fill:none;"/></clipPath><clipPath id="clippath-1"><path d="M702.37,823.14l278-160.49c6.22-3.59,16.3-3.59,22.52,0l341.22,196.99c6.22,3.59,6.22,9.41,0,13l-278,160.49c-6.22,3.59-16.3,3.59-22.52,0l-341.22-196.99c-6.22-3.59-6.22-9.41,0-13Z" style="fill:none;"/></clipPath><clipPath id="clippath-2"><polygon points="704.98 829.64 985.57 667.65 1023.68 689.65 743.08 851.64 704.98 829.64" style="fill:none;"/></clipPath><mask id="mask" x="710.11" y="812.6" width="64.21" height="37.07" maskUnits="userSpaceOnUse"/><clipPath id="clippath-3"><polygon points="714.5 831.14 742.21 815.14 769.92 831.14 742.21 847.14 714.5 831.14" style="fill:none;"/></clipPath><clipPath id="clippath-4"><polygon points="747.41 862.13 1047.92 688.65 1516.45 959.13 1215.94 1132.62 747.41 862.13" style="fill:none;"/></clipPath><clipPath id="clippath-5"><polygon points="747.41 862.13 1047.92 688.65 1076.5 705.15 775.99 878.63 747.41 862.13" style="fill:none;"/></clipPath><clipPath id="clippath-6"><polygon points="813.23 900.13 1113.74 726.64 1142.32 743.14 841.81 916.63 813.23 900.13" style="fill:none;"/></clipPath><clipPath id="clippath-7"><polygon points="841.81 916.63 1142.32 743.14 1186.49 768.64 885.97 942.13 841.81 916.63" style="fill:none;"/></clipPath><clipPath id="clippath-8"><polygon points="885.98 942.13 1186.49 768.64 1230.66 794.14 930.14 967.63 885.98 942.13" style="fill:none;"/></clipPath><clipPath id="clippath-9"><polygon points="930.15 967.63 1230.66 794.14 1274.83 819.64 974.31 993.13 930.15 967.63" style="fill:none;"/></clipPath><clipPath id="clippath-10"><polygon points="974.32 993.13 1274.83 819.64 1303.41 836.14 1002.9 1009.62 974.32 993.13" style="fill:none;"/></clipPath><clipPath id="clippath-11"><polygon points="1002.9 1009.62 1303.41 836.14 1347.58 861.63 1047.06 1035.12 1002.9 1009.62" style="fill:none;"/></clipPath></defs><g style="clip-path:url(#clippath);"><g><path d="M861.73,731.14c-1.48,.86-2.96,1.72-4.46,2.56-1.43,.81-3.04,1.71-4.95,2.21-2.05,.54-4.02,.54-6.18,.44-1.54-.07-4.73-.28-6.27-.38-1.26-.08-3.75-.25-5.02-.29-1.6-.05-3.44-.04-4.73,.71-1.29,.75-1.32,1.8-1.23,2.73,.07,.73,.37,2.17,.51,2.9,.17,.89,.55,2.73,.66,3.62,.17,1.24,.16,2.38-.76,3.57-.87,1.1-2.43,2.03-3.84,2.86-1.46,.87-2.95,1.72-4.44,2.57" style="fill:rgba(37,37,37,.78); fill-rule:evenodd;"/><g style="clip-path:url(#clippath-1);"><g><path d="M702.37,823.14l278-160.49c6.22-3.59,16.3-3.59,22.52,0l341.22,196.99c6.22,3.59,6.22,9.41,0,13l-278,160.49c-6.22,3.59-16.3,3.59-22.52,0l-341.22-196.99c-6.22-3.59-6.22-9.41,0-13Z" style="fill:#1c1c1e;"/><path d="M676.39,821.14l300.52-173.49,71.01,41-300.52,173.49-71.01-41Z" style="fill:rgba(29,29,29,.94); fill-rule:evenodd;"/><g style="clip-path:url(#clippath-2);"><g><path d="M711.91,828.64l25.98-15c2.39-1.38,6.27-1.38,8.66,0l25.98,15c2.39,1.38,2.39,3.62,0,5l-25.98,15c-2.39,1.38-6.27,1.38-8.66,0l-25.98-15c-2.39-1.38-2.39-3.62,0-5Z" style="fill:#d8d8d8;"/><g style="mask:url(#mask);"><g><polygon points="707.58 831.14 742.22 811.14 776.86 831.14 742.22 851.14 707.58 831.14" style="fill:none;"/><polygon points="707.58 831.14 742.22 811.14 776.86 831.14 742.22 851.14 707.58 831.14" style="fill:#82efb8;"/></g></g><g style="clip-path:url(#clippath-3);"><path d="M730.69,826.86l-1.04,.37h0l1.04-.37Zm4.13-2.38l.64-.6h0l-.64,.6Zm-5.98,4.97l-.29-.69h0l.29,.69Zm0,3.37l-.29,.69h0l.29-.69Zm1.85,2.59l-1.04-.37h0l1.04,.37Zm4.13,2.38l.64,.6h0l-.64-.6Zm4.48,1.07l1.19-.17h0l-1.19,.17Zm5.84,0l1.19,.17h0l-1.19-.17Zm4.48-1.07l-.64,.6h0l.64-.6Zm4.12-2.38l1.05-.37h0l-1.05,.37Zm1.86-2.59l.29,.69h0l-.29-.69Zm0-3.37l.29-.69h0l-.29,.69Zm-1.86-2.59l1.05,.37h0l-1.05-.37Zm-4.12-2.38l-.64-.6h0l.64,.6Zm-4.48-1.07l1.19-.17h0l-1.19,.17Zm-5.84,0l-1.19-.17h0l1.19,.17Zm-7.56,3.09c-.97-.92,.85-1.97,2.44-1.41l1.28-1.21c-3.79-1.33-8.12,1.17-5.81,3.35l2.09-.74Zm-2.62,3.64c2.79-.39,4.11-2.23,2.62-3.64l-2.09,.74c.62,.59,.07,1.37-1.1,1.53l.57,1.37Zm0,1.99c-1.81-.25-1.81-1.74,0-1.99l-.57-1.37c-4.31,.6-4.31,4.14,0,4.74l.57-1.38Zm2.62,3.64c1.49-1.41,.17-3.25-2.62-3.64l-.57,1.38c1.17,.16,1.72,.94,1.1,1.53l2.09,.74Zm2.44,1.41c-1.59,.56-3.41-.49-2.44-1.41l-2.09-.74c-2.31,2.19,2.02,4.69,5.81,3.36l-1.28-1.21Zm6.31,1.51c-.68-1.61-3.86-2.37-6.31-1.51l1.28,1.21c1.02-.36,2.36-.04,2.65,.63l2.38-.33Zm3.46,0c-.44,1.05-3.02,1.05-3.46,0l-2.38,.33c1.04,2.49,7.17,2.49,8.22,0l-2.38-.33Zm6.3-1.51c-2.44-.86-5.63-.1-6.3,1.51l2.38,.33c.28-.67,1.62-1,2.65-.63l1.27-1.21Zm2.45-1.41c.97,.92-.85,1.97-2.45,1.41l-1.27,1.21c3.78,1.33,8.12-1.17,5.81-3.36l-2.09,.74Zm2.61-3.64c-2.78,.39-4.1,2.23-2.61,3.64l2.09-.74c-.63-.59-.07-1.37,1.1-1.53l-.58-1.38Zm0-1.99c1.81,.25,1.81,1.74,0,1.99l.58,1.38c4.31-.6,4.31-4.14,0-4.74l-.58,1.37Zm-2.61-3.64c-1.49,1.41-.17,3.25,2.61,3.64l.58-1.37c-1.17-.16-1.73-.94-1.1-1.53l-2.09-.74Zm-2.45-1.41c1.6-.56,3.42,.49,2.45,1.41l2.09,.74c2.31-2.18-2.03-4.69-5.81-3.35l1.27,1.21Zm-6.3-1.51c.67,1.61,3.86,2.37,6.3,1.51l-1.27-1.21c-1.03,.36-2.37,.04-2.65-.64l-2.38,.33Zm-3.46,0c.44-1.05,3.02-1.05,3.46,0l2.38-.33c-1.05-2.49-7.18-2.49-8.22,0l2.38,.33Zm-6.31,1.51c2.45,.86,5.63,.1,6.31-1.51l-2.38-.33c-.29,.68-1.63,1-2.65,.64l-1.28,1.21Zm11.33,4.15c1.82,1.05,1.82,2.75,0,3.8l1.73,1c2.77-1.6,2.77-4.2,0-5.8l-1.73,1Zm-6.58,0c1.81-1.05,4.76-1.05,6.58,0l1.73-1c-2.77-1.6-7.27-1.6-10.05,0l1.74,1Zm0,3.8c-1.82-1.05-1.82-2.75,0-3.8l-1.74-1c-2.77,1.6-2.77,4.2,0,5.8l1.74-1Zm6.58,0c-1.82,1.05-4.77,1.05-6.58,0l-1.74,1c2.78,1.6,7.28,1.6,10.05,0l-1.73-1Z" style="fill:#fff;"/></g><path d="M764.72,814.65l6.71-3.88-1.56-.9-4.86,2.81-2.97-1.71,4.59-2.65-1.47-.85-4.59,2.65-2.81-1.62,4.86-2.8-1.56-.9-6.72,3.88,10.38,5.99Zm11.58-6.54c1.1-.64,1.45-1.42,1.03-2.16l.12-.07,1.23,.71,1.79-1.04-10.89-6.29-1.8,1.04,4.29,2.48-.12,.07c-1.26-.25-2.69-.04-3.77,.58-1.99,1.15-1.67,2.76,.83,4.2h.02c2.49,1.44,5.3,1.62,7.27,.48Zm-.95-1.2c-1.22,.71-2.92,.58-4.5-.33h-.02c-1.58-.92-1.79-1.91-.58-2.61,1.22-.7,2.95-.58,4.52,.33h.02c1.57,.92,1.78,1.91,.56,2.61Zm-1.09-8.37c.59-.34,.6-.88,.01-1.22-.58-.34-1.54-.33-2.12,0-.59,.34-.6,.89-.01,1.23,.58,.34,1.53,.33,2.12,0Zm8.28,5.81l1.79-1.03-7.86-4.54-1.79,1.03,7.86,4.54Zm6.91-3.95c.34-.2,.64-.41,.85-.59l-1.38-.8c-.19,.14-.32,.22-.57,.36-.75,.43-1.39,.42-2.17-.03l-3.97-2.29,1.67-.96-1.39-.8-1.66,.96-1.93-1.11-1.82,1.05,1.93,1.11-1.22,.71,1.38,.8,1.23-.71,4.38,2.53c1.52,.88,2.86,.8,4.67-.24Zm7.68-4.48l1.86-1.07-4.17-4.17,.12-.07,7.23,2.4,1.87-1.08-5.73-5.76-1.77,1.02,4.6,4.16-.13,.07-7.42-2.53-1.7,.98,4.39,4.28-.12,.07-7.22-2.65-1.79,1.04,9.98,3.31Zm2.14-11.82c.58-.34,.6-.88,.01-1.22-.59-.34-1.54-.33-2.12,0-.59,.34-.6,.89-.02,1.23,.59,.34,1.54,.33,2.13,0Zm8.27,5.82l1.79-1.03-7.85-4.54-1.79,1.03,7.85,4.54Zm6.75-3.74c1.1-.64,1.45-1.42,1.02-2.16l.13-.07,1.23,.71,1.79-1.04-10.89-6.29-1.8,1.04,4.29,2.48-.12,.07c-1.26-.25-2.69-.04-3.77,.58-1.99,1.15-1.67,2.76,.83,4.2h.02c2.49,1.44,5.3,1.62,7.27,.49Zm-.95-1.2c-1.22,.7-2.92,.58-4.5-.33h-.02c-1.58-.92-1.79-1.91-.58-2.61,1.22-.7,2.95-.58,4.52,.33h.02c1.57,.92,1.78,1.91,.56,2.62Zm13.31-2.9c2.29-1.32,2.6-2.82,.79-3.87l-7.67-4.42-1.79,1.03,1.3,.75-.1,.05c-1.33-.26-2.71-.08-3.8,.55-2.03,1.17-1.7,2.79,.58,4.1h.01c2.23,1.29,5,1.47,6.99,.32,1.09-.63,1.49-1.39,1.1-2.13l.12-.07,1.5,.87c1.01,.58,.86,1.32-.36,2.02-1,.58-1.95,.72-2.57,.5h-.03s-1.79,1.03-1.79,1.03v.02c1.52,.66,3.64,.45,5.72-.74Zm-4.56-2.63c-1.24,.72-2.9,.57-4.29-.23h-.01c-1.39-.81-1.65-1.77-.4-2.49,1.23-.71,2.95-.59,4.34,.21h.01c1.39,.81,1.6,1.79,.35,2.51Zm11.05-4.12c2.13-1.23,1.95-2.55,1.19-3.28l-.04-.05-1.71,.98,.03,.04c.19,.31,.12,.91-.85,1.47-1.21,.7-2.79,.67-4.22-.13l5.49-3.17-.59-.34c-2.37-1.37-5.32-1.48-7.56-.19-2.23,1.29-2.04,3.05,.43,4.48h.01c2.5,1.45,5.48,1.53,7.82,.19Zm-6.83-3.87c1-.58,2.36-.63,3.77,.04l-3.73,2.15c-1.11-.8-1.04-1.62-.04-2.2Zm14.91-.94c.34-.2,.65-.41,.85-.59l-1.38-.8c-.19,.14-.32,.22-.57,.37-.75,.43-1.39,.42-2.17-.03l-3.96-2.29,1.66-.96-1.39-.8-1.66,.96-1.93-1.11-1.82,1.05,1.93,1.11-1.22,.71,1.39,.8,1.22-.7,4.38,2.53c1.52,.88,2.86,.8,4.67-.24Z" style="fill:#fff;"/><path d="M782.99,821.34c1.97-1.14,2.24-2.61,.76-3.73l-.04-.02-1.5,.86,.02,.02c.72,.67,.52,1.48-.56,2.11-1.46,.84-3.58,.66-5.52-.46h-.02c-1.94-1.13-2.25-2.35-.8-3.19,1.08-.62,2.57-.71,3.8-.25h.03s1.5-.85,1.5-.85l-.05-.03c-1.95-.89-4.65-.75-6.6,.37-2.42,1.4-2.2,3.25,.57,4.85h.01c2.76,1.6,5.98,1.72,8.4,.32Zm4.95-3.1l1.47-.85-3.76-2.17c-.92-.53-.86-1.24,.12-1.81,.26-.15,.53-.27,.82-.38l-1.32-.76c-.18,.06-.45,.17-.67,.3-.85,.49-1.04,1.07-.56,1.6l-.1,.06-1-.58-1.47,.85,6.47,3.74Zm7.78-4.34c1.76-1.02,1.61-2.1,.98-2.7l-.03-.04-1.41,.81,.03,.04c.15,.25,.1,.75-.7,1.21-1,.58-2.31,.55-3.48-.11l4.52-2.61-.49-.28c-1.95-1.13-4.38-1.22-6.22-.15-1.84,1.06-1.69,2.51,.35,3.69h.01c2.06,1.19,4.51,1.26,6.44,.15Zm-5.63-3.19c.83-.48,1.95-.52,3.11,.04l-3.07,1.77c-.92-.66-.86-1.34-.04-1.81Zm11.75-.38c.85-.49,1.17-1.1,.9-1.67l.1-.06,.89,.51,1.45-.84-4.42-2.55c-1.37-.79-3.11-.71-4.77,.25-1.54,.89-1.86,1.91-.91,2.62l.05,.03,1.39-.8-.02-.02c-.28-.33-.08-.72,.59-1.11,.79-.46,1.57-.5,2.22-.12l.55,.32-1.56,1.02c-1.48,.96-1.69,1.86-.53,2.53h.01c1.18,.69,2.83,.61,4.06-.1Zm-2.68-.77h-.01c-.53-.32-.45-.71,.32-1.22l1.36-.89,.52,.3c.77,.45,.7,1.16-.19,1.67-.65,.38-1.45,.46-2,.14Zm10.37-3.76c.28-.16,.53-.33,.7-.48l-1.13-.66c-.16,.11-.27,.18-.48,.3-.61,.36-1.14,.35-1.78-.03l-3.27-1.88,1.37-.79-1.14-.66-1.37,.79-1.59-.92-1.49,.86,1.58,.92-1,.58,1.14,.66,1.01-.58,3.61,2.08c1.25,.72,2.35,.66,3.84-.2Zm5.05-2.8c1.76-1.02,1.61-2.1,.98-2.7l-.03-.04-1.41,.81,.03,.03c.15,.25,.1,.75-.7,1.21-1,.58-2.3,.55-3.48-.11l4.52-2.61-.48-.28c-1.96-1.13-4.39-1.22-6.23-.15s-1.68,2.51,.35,3.69h.01c2.06,1.19,4.52,1.26,6.44,.15Zm-5.62-3.19c.82-.47,1.94-.52,3.1,.04l-3.07,1.77c-.92-.66-.86-1.34-.03-1.81Zm14.97-2.24c.86-.49,1.18-1.1,.9-1.67l.1-.06,.89,.51,1.46-.84-4.42-2.55c-1.37-.79-3.11-.71-4.78,.25-1.53,.89-1.85,1.91-.91,2.62l.05,.03,1.39-.8-.02-.02c-.27-.33-.08-.72,.6-1.11,.79-.46,1.56-.5,2.21-.12l.56,.32-1.57,1.02c-1.48,.96-1.68,1.86-.53,2.53h0c1.18,.69,2.83,.61,4.06-.1Zm-2.67-.77h-.01c-.54-.32-.45-.71,.32-1.22l1.36-.89,.52,.3c.77,.45,.69,1.16-.2,1.67-.65,.38-1.44,.46-1.99,.14Zm13.93-5.7c1.64-.95,1.71-2.01,.6-2.89l-.04-.03-1.38,.81v.02c.5,.5,.39,.97-.38,1.41-1,.58-2.4,.46-3.78-.34h-.01c-1.35-.79-1.55-1.59-.55-2.17,.81-.47,1.74-.48,2.5-.2h.02s1.4-.8,1.4-.8h-.03c-1.5-.69-3.42-.65-5.08,.31-1.95,1.12-1.84,2.51,.25,3.71h.01c2.11,1.23,4.52,1.29,6.47,.17Zm7.01-4.05c1.94-1.12,1.85-2.53-.25-3.74h-.01c-2.08-1.21-4.53-1.26-6.46-.14-1.93,1.11-1.84,2.53,.23,3.73h.02c2.09,1.22,4.53,1.27,6.47,.15Zm-1.19-.69c-1.03,.59-2.41,.47-3.77-.32h-.02c-1.36-.79-1.58-1.6-.55-2.19,1.02-.59,2.41-.46,3.77,.32h.01c1.36,.79,1.58,1.59,.56,2.18Zm5.66-2.04l1.47-.85-3.94-2.27c-.8-.47-.88-1.13-.16-1.55,.73-.42,1.61-.42,2.33,0l4.2,2.42,1.47-.85-4.04-2.34c-.74-.43-.82-1.04-.05-1.49,.79-.45,1.6-.43,2.44,.05l4.09,2.36,1.48-.85-4.46-2.57c-1.34-.77-2.92-.79-4.22-.03-.9,.52-1.19,1.22-.8,1.8l-.1,.06c-.99-.25-2.08-.14-2.96,.36-.84,.49-1.09,1.1-.64,1.68l-.1,.06-1.01-.58-1.47,.85,6.47,3.74Zm11.03-6.37l1.48-.85-3.94-2.27c-.81-.47-.89-1.13-.16-1.55,.72-.42,1.61-.42,2.33,0l4.19,2.42,1.48-.85-4.05-2.33c-.74-.43-.81-1.05-.04-1.49,.78-.46,1.6-.43,2.44,.05l4.09,2.36,1.47-.85-4.45-2.57c-1.34-.78-2.93-.79-4.23-.03-.9,.52-1.18,1.22-.79,1.8l-.1,.06c-1-.25-2.09-.14-2.96,.36-.85,.49-1.09,1.1-.65,1.68l-.1,.06-1-.58-1.48,.85,6.47,3.73Zm13.94-7.9c1.76-1.01,1.61-2.1,.98-2.7l-.03-.04-1.41,.81,.03,.03c.15,.25,.1,.75-.7,1.21-1,.58-2.3,.55-3.48-.11l4.52-2.61-.49-.28c-1.95-1.13-4.38-1.22-6.22-.15-1.84,1.06-1.68,2.51,.35,3.69h.01c2.06,1.19,4.51,1.26,6.44,.15Zm-5.63-3.18c.83-.47,1.95-.52,3.11,.04l-3.07,1.77c-.92-.66-.86-1.34-.04-1.81Zm9.88,.58l1.47-.85-3.77-2.18c-.97-.56-1.04-1.23-.16-1.74,.89-.52,1.81-.46,2.81,.12l3.85,2.22,1.47-.85-4.18-2.42c-1.54-.89-3.2-.94-4.65-.1-.93,.54-1.13,1.14-.75,1.72l-.1,.06-.99-.57-1.47,.85,6.47,3.74Zm9.99-5.73c.28-.16,.53-.33,.7-.48l-1.14-.66c-.16,.11-.26,.18-.47,.3-.61,.36-1.14,.34-1.79-.03l-3.26-1.88,1.37-.79-1.14-.66-1.37,.79-1.59-.92-1.5,.86,1.59,.92-1.01,.58,1.15,.66,1-.58,3.61,2.09c1.25,.72,2.36,.66,3.85-.2Zm8.01-4.63c.29-.16,.54-.33,.71-.48l-1.14-.66c-.16,.11-.27,.18-.47,.3-.62,.36-1.15,.35-1.79-.03l-3.26-1.88,1.36-.79-1.14-.66-1.37,.79-1.58-.92-1.5,.86,1.59,.92-1.01,.58,1.14,.66,1.01-.58,3.61,2.08c1.25,.72,2.36,.66,3.84-.2Zm5.08-2.81c1.93-1.12,1.84-2.53-.25-3.74h-.01c-2.09-1.21-4.54-1.26-6.47-.14-1.92,1.11-1.84,2.53,.24,3.73h.01c2.1,1.22,4.53,1.27,6.48,.15Zm-1.2-.69c-1.02,.59-2.41,.47-3.77-.32h0c-1.36-.79-1.58-1.6-.56-2.19,1.02-.59,2.41-.46,3.77,.33h.01c1.37,.79,1.58,1.59,.56,2.18Zm8.89-3.9l1.48-.85-3.76-2.17c-.93-.53-.87-1.24,.12-1.81,.25-.15,.53-.27,.81-.38l-1.32-.76c-.18,.06-.44,.17-.67,.3-.85,.49-1.03,1.07-.56,1.6l-.1,.06-.99-.57-1.48,.85,6.47,3.74Zm7.78-4.34c1.76-1.02,1.61-2.1,.98-2.7l-.03-.04-1.4,.81,.02,.03c.15,.25,.1,.75-.7,1.21-1,.58-2.3,.55-3.48-.11l4.52-2.61-.48-.28c-1.96-1.13-4.38-1.22-6.22-.15-1.85,1.06-1.69,2.51,.34,3.69h0c2.06,1.19,4.52,1.27,6.44,.15Zm-5.62-3.18c.82-.48,1.95-.52,3.11,.04l-3.08,1.77c-.91-.66-.86-1.34-.03-1.81Zm10.35,.31l1.47-.85-5.33-3.08,1.38-.8-1.14-.66-1.4,.81-.56-.32c-.62-.35-.68-.7,.01-1.1,.21-.12,.4-.22,.53-.27l-1.03-.6c-.27,.11-.56,.26-.87,.44-1.44,.83-1.46,1.58-.17,2.32l.64,.37-1.06,.61,1.14,.66,1.06-.61,5.33,3.08Zm6.93-3.85c1.76-1.02,1.62-2.1,.99-2.7l-.04-.04-1.4,.81,.02,.03c.16,.25,.1,.75-.7,1.21-1,.58-2.3,.55-3.48-.11l4.53-2.61-.49-.28c-1.95-1.13-4.38-1.22-6.22-.15-1.84,1.06-1.69,2.51,.35,3.69h0c2.06,1.19,4.52,1.27,6.44,.15Zm-5.62-3.18c.82-.47,1.95-.52,3.11,.04l-3.07,1.77c-.92-.66-.86-1.34-.04-1.81Zm9.88,.58l1.47-.85-3.76-2.17c-.92-.53-.86-1.24,.12-1.81,.25-.15,.53-.27,.82-.38l-1.32-.76c-.19,.06-.45,.17-.67,.3-.86,.49-1.04,1.07-.57,1.6l-.1,.06-.99-.57-1.48,.85,6.48,3.74Zm10.85-6.23c.28-.16,.53-.34,.7-.48l-1.13-.66c-.16,.11-.27,.18-.48,.3-.61,.35-1.14,.35-1.79-.03l-3.26-1.88,1.37-.79-1.14-.66-1.37,.79-1.59-.92-1.5,.86,1.59,.92-1.01,.58,1.15,.66,1-.58,3.62,2.09c1.24,.72,2.35,.66,3.84-.2Zm5.07-2.81c1.94-1.12,1.85-2.53-.25-3.74h-.01c-2.08-1.21-4.53-1.26-6.46-.14-1.93,1.11-1.85,2.53,.23,3.73h.01c2.1,1.22,4.54,1.27,6.48,.15Zm-1.19-.69c-1.03,.59-2.41,.47-3.78-.32h-.01c-1.36-.79-1.58-1.6-.55-2.19,1.01-.59,2.41-.46,3.77,.32h.01c1.36,.79,1.58,1.59,.56,2.18Zm8.95-3.94l1.47-.85-8.97-5.18-1.48,.85,8.98,5.18Zm5.21-2.89c.85-.49,1.17-1.1,.9-1.67l.1-.06,.88,.51,1.46-.84-4.42-2.55c-1.37-.79-3.11-.71-4.77,.25-1.54,.89-1.86,1.91-.91,2.62l.04,.03,1.39-.8v-.02c-.29-.33-.1-.72,.58-1.11,.79-.46,1.57-.5,2.21-.12l.56,.32-1.56,1.02c-1.48,.96-1.69,1.86-.54,2.53h.02c1.17,.69,2.82,.61,4.06-.1Zm-2.68-.77h-.01c-.53-.32-.45-.71,.32-1.22l1.36-.9,.52,.3c.77,.45,.69,1.16-.19,1.67-.66,.38-1.45,.46-2,.14Zm10.37-3.76c.28-.16,.53-.34,.7-.48l-1.14-.66c-.16,.11-.26,.18-.47,.3-.61,.36-1.14,.35-1.79-.03l-3.26-1.88,1.37-.79-1.14-.66-1.37,.79-1.59-.92-1.5,.86,1.59,.92-1.01,.58,1.15,.66,1-.58,3.61,2.08c1.25,.72,2.36,.66,3.85-.2Zm5.05-2.8c1.75-1.02,1.61-2.1,.98-2.7l-.04-.04-1.4,.81,.02,.03c.16,.25,.11,.75-.69,1.21-1,.58-2.31,.55-3.49-.11l4.53-2.61-.49-.28c-1.95-1.13-4.38-1.22-6.22-.15s-1.69,2.51,.35,3.69h.01c2.06,1.19,4.51,1.26,6.44,.15Zm-5.63-3.19c.83-.48,1.95-.52,3.11,.04l-3.07,1.77c-.92-.66-.86-1.34-.04-1.81Zm9.88,.58l1.47-.85-3.76-2.17c-.92-.53-.86-1.24,.12-1.81,.26-.15,.53-.27,.82-.38l-1.32-.76c-.19,.06-.45,.17-.67,.3-.85,.49-1.04,1.07-.56,1.6l-.1,.06-1-.57-1.47,.85,6.47,3.73Z" style="fill:rgba(235,235,245,.6);"/></g></g><g style="clip-path:url(#clippath-4);"><g><g style="clip-path:url(#clippath-5);"><path d="M775.34,867.01l1.44-.83-4.39-4.53,.09-.05,7.86,2.52,1.43-.83-6.25-6.25-1.58,.91,4.95,4.55-.09,.05-8.11-2.72-1.36,.78,4.73,4.67-.09,.05-7.87-2.86-1.59,.92,10.83,3.61Zm3.35-10.65c.48-.28,.49-.73,0-1.01-.48-.28-1.26-.27-1.74,0-.49,.28-.5,.73-.02,1.01,.49,.28,1.27,.27,1.76,0Zm6.81,4.79l1.47-.85-6.47-3.74-1.47,.85,6.47,3.73Zm5.73-3.18c.91-.53,1.19-1.17,.84-1.78l.1-.06,1.02,.59,1.48-.86-8.98-5.18-1.48,.85,3.53,2.04-.1,.06c-1.03-.21-2.21-.03-3.1,.48-1.64,.95-1.37,2.27,.69,3.46h.01c2.05,1.19,4.36,1.34,5.99,.4Zm-.79-.98c-1,.58-2.4,.48-3.7-.27h-.01c-1.31-.76-1.48-1.57-.48-2.15,1-.58,2.42-.48,3.72,.27h.01c1.3,.75,1.47,1.57,.46,2.15Zm11.13-2.49c1.89-1.09,2.15-2.32,.66-3.19l-6.32-3.64-1.47,.85,1.07,.62-.08,.04c-1.1-.21-2.24-.06-3.13,.45-1.67,.96-1.4,2.3,.47,3.38h.01c1.84,1.07,4.12,1.21,5.76,.26,.9-.52,1.22-1.14,.9-1.76l.1-.06,1.24,.72c.83,.48,.71,1.09-.3,1.67-.82,.47-1.6,.59-2.11,.41h-.03s-1.47,.84-1.47,.84h.01c1.24,.56,2.99,.39,4.69-.6Zm-3.74-2.16c-1.03,.59-2.4,.47-3.54-.19h-.01c-1.14-.67-1.36-1.46-.33-2.05,1.02-.59,2.43-.49,3.57,.17h.02c1.14,.67,1.31,1.48,.29,2.07Zm9.26-3.5c1.76-1.01,1.61-2.1,.98-2.7l-.03-.04-1.4,.81,.02,.03c.15,.25,.1,.75-.7,1.21-1,.58-2.3,.55-3.48-.11l4.52-2.61-.48-.28c-1.96-1.13-4.38-1.22-6.22-.15-1.85,1.06-1.69,2.51,.34,3.69h.01c2.06,1.19,4.52,1.27,6.44,.15Zm-5.62-3.18c.82-.47,1.95-.52,3.11,.04l-3.08,1.77c-.91-.66-.86-1.34-.03-1.81Zm12.45-.87c.28-.16,.53-.34,.7-.48l-1.13-.66c-.16,.11-.27,.18-.48,.3-.61,.36-1.14,.35-1.79-.03l-3.26-1.88,1.37-.79-1.14-.66-1.37,.79-1.59-.92-1.5,.86,1.59,.92-1,.58,1.14,.66,1-.58,3.62,2.08c1.24,.72,2.35,.66,3.84-.2Zm7.72-4.49l1.53-.88-7.26-4.19,2.63-1.52-1.28-.74-6.79,3.92,1.28,.74,2.63-1.52,7.26,4.19Zm-1.31-7.97c.48-.28,.49-.73,.01-1.01-.48-.28-1.27-.27-1.75,0-.49,.28-.49,.73-.01,1.01,.48,.28,1.26,.27,1.75,0Zm6.81,4.79l1.48-.85-6.47-3.74-1.48,.85,6.47,3.74Zm5.86-3.35c.29-.16,.54-.33,.71-.48l-1.14-.66c-.16,.11-.26,.18-.47,.3-.62,.35-1.14,.34-1.79-.03l-3.26-1.88,1.37-.79-1.15-.66-1.36,.79-1.59-.92-1.5,.86,1.59,.92-1.01,.58,1.14,.66,1.01-.58,3.61,2.09c1.25,.72,2.36,.66,3.84-.2Zm2.27-1.34l1.48-.85-8.98-5.18-1.47,.85,8.97,5.18Zm6.24-3.45c1.76-1.02,1.61-2.1,.98-2.7l-.03-.04-1.4,.81,.02,.03c.15,.25,.1,.75-.7,1.21-1,.58-2.3,.55-3.48-.11l4.52-2.61-.48-.28c-1.96-1.13-4.38-1.22-6.22-.15-1.85,1.06-1.69,2.51,.34,3.69h.01c2.06,1.19,4.52,1.27,6.44,.15Zm-5.62-3.18c.82-.47,1.95-.52,3.11,.04l-3.08,1.77c-.91-.66-.86-1.34-.03-1.81Z" style="fill:rgba(255,255,255,.5);"/></g><line x1="790.71" y1="878.13" x2="814.09" y2="891.63" style="fill:none; stroke:#f09436; stroke-width:2px;"/><path d="M811.48,885.64l4.44-2.56c2.21-1.28,2.44-2.71,.62-3.76h-.01c-1.35-.78-3.32-.81-4.84-.08l-.13-.08c.88-.7,.72-1.72-.37-2.34h-.01c-1.59-.93-3.77-.81-5.74,.32l-4.33,2.5,10.37,5.99Zm-5.04-7.4c1.12-.65,2.31-.71,3.23-.18h.01c.95,.55,.76,1.25-.56,2.01l-1.79,1.03-2.92-1.69,2.03-1.17Zm4.29,2.41c1.42-.82,2.72-.93,3.77-.32h.02c1.05,.62,.89,1.36-.47,2.15l-2.16,1.24-3.24-1.87,2.08-1.2Zm10.66-.74l1.79-1.03-10.9-6.29-1.79,1.03,10.9,6.29Zm7.6-4.21c2.35-1.36,2.25-3.07-.3-4.54h-.01c-2.53-1.47-5.51-1.53-7.85-.17-2.34,1.35-2.24,3.08,.28,4.53h.02c2.54,1.48,5.51,1.54,7.86,.18Zm-1.45-.84c-1.24,.72-2.92,.57-4.58-.39h-.01c-1.66-.96-1.92-1.94-.68-2.66,1.24-.71,2.93-.56,4.58,.39h.02c1.65,.96,1.92,1.93,.67,2.65Zm10.43-4.34c2.35-1.36,2.24-3.07-.31-4.54h-.01c-2.53-1.47-5.51-1.53-7.85-.17-2.34,1.35-2.24,3.08,.29,4.53h.01c2.55,1.48,5.51,1.54,7.87,.18Zm-1.46-.84c-1.24,.72-2.92,.57-4.58-.39h-.01c-1.65-.96-1.92-1.94-.68-2.66,1.24-.71,2.93-.56,4.58,.39h.02c1.65,.96,1.92,1.93,.67,2.65Zm9.84-4.03c1.1-.64,1.45-1.42,1.03-2.16l.12-.07,1.23,.71,1.79-1.04-10.89-6.29-1.8,1.04,4.29,2.48-.12,.07c-1.26-.25-2.69-.04-3.77,.58-1.99,1.15-1.67,2.76,.84,4.2h.01c2.49,1.45,5.3,1.62,7.27,.49Zm-.95-1.2c-1.22,.71-2.92,.58-4.5-.33h-.02c-1.58-.92-1.79-1.91-.58-2.61,1.22-.7,2.95-.58,4.52,.33h.02c1.57,.92,1.78,1.91,.56,2.61Zm11.49-5.04l1.85-1.07-3.43-1.98,2.29-1.32c2.1-1.22,2.13-2.84,.06-4.04h-.01c-2.08-1.21-4.89-1.19-7,.03l-4.14,2.39,10.38,5.99Zm-5.17-7.24c1.33-.77,2.82-.8,4.06-.09h.01c1.25,.73,1.19,1.59-.14,2.36l-1.83,1.06-3.94-2.27,1.84-1.06Zm14.7,1.74l1.79-1.03-4.57-2.64c-1.12-.65-1.05-1.51,.15-2.2,.31-.18,.64-.32,.99-.46l-1.6-.93c-.23,.07-.54,.21-.82,.37-1.03,.6-1.25,1.3-.68,1.94l-.12,.07-1.21-.7-1.79,1.03,7.86,4.54Zm9.45-5.27c2.13-1.23,1.95-2.55,1.19-3.28l-.04-.05-1.71,.98,.03,.04c.19,.31,.12,.91-.85,1.47-1.21,.7-2.79,.67-4.22-.13l5.49-3.17-.59-.34c-2.37-1.37-5.32-1.48-7.56-.19-2.23,1.29-2.05,3.05,.43,4.48h0c2.51,1.45,5.49,1.54,7.83,.19Zm-6.83-3.87c1-.58,2.36-.63,3.77,.04l-3.73,2.15c-1.12-.8-1.04-1.62-.04-2.2Zm15.11-.92c1.94-1.12,2.34-2.5,.85-3.37h-.02c-1.14-.67-2.52-.63-4.41,.06l-1.55,.57c-1.04,.38-1.65,.41-2.11,.14h-.01c-.59-.34-.4-.9,.4-1.36,.84-.49,1.76-.55,2.38-.34h.03s1.68-.96,1.68-.96h-.01c-1.39-.68-3.48-.57-5.39,.54-1.86,1.07-2.17,2.38-.76,3.2h.01c1.16,.67,2.57,.67,4.4,0l1.56-.57c1.06-.39,1.7-.41,2.16-.15h.02c.59,.35,.37,.94-.52,1.45-.89,.51-1.8,.6-2.53,.39h-.02s-1.78,1.02-1.78,1.02h.02c1.48,.69,3.61,.52,5.6-.63Zm7.97-4.6c1.93-1.12,2.34-2.5,.84-3.37h-.01c-1.15-.67-2.53-.63-4.41,.06l-1.55,.57c-1.05,.38-1.66,.41-2.12,.14h0c-.59-.34-.41-.9,.39-1.36,.84-.48,1.76-.55,2.39-.34h.03s1.68-.96,1.68-.96h-.02c-1.38-.68-3.48-.56-5.39,.54-1.85,1.07-2.17,2.38-.75,3.2h.01c1.15,.67,2.57,.67,4.39,0l1.56-.57c1.06-.39,1.71-.41,2.17-.15h.01c.59,.35,.38,.94-.51,1.45-.9,.52-1.8,.6-2.54,.39h-.02s-1.77,1.02-1.77,1.02h.01c1.48,.69,3.61,.52,5.61-.63Zm7.74-4.47c1.14-.66,1.42-1.41,.95-2.11l.12-.07,1.2,.69,1.79-1.03-7.86-4.54-1.79,1.03,4.58,2.64c1.18,.68,1.31,1.47,.15,2.14-1.08,.62-2.15,.53-3.37-.17l-4.67-2.7-1.79,1.03,5.08,2.93c1.87,1.08,3.84,1.17,5.61,.15Zm6.24-3.79l1.79-1.03-4.56-2.64c-1.12-.65-1.05-1.51,.14-2.2,.31-.18,.65-.32,.99-.46l-1.6-.93c-.22,.07-.54,.21-.81,.37-1.04,.6-1.26,1.3-.69,1.94l-.12,.07-1.21-.7-1.79,1.03,7.86,4.54Zm9.45-5.27c2.13-1.23,1.95-2.55,1.19-3.28l-.04-.05-1.71,.98,.03,.04c.19,.31,.13,.91-.85,1.47-1.21,.7-2.79,.67-4.22-.13l5.49-3.17-.59-.34c-2.37-1.37-5.32-1.48-7.56-.19-2.23,1.29-2.04,3.05,.43,4.48h.01c2.5,1.45,5.48,1.54,7.82,.19Zm-6.83-3.87c1-.58,2.36-.63,3.77,.05l-3.73,2.15c-1.11-.8-1.04-1.62-.04-2.2Z" style="fill:#ebebf5;"/><g style="clip-path:url(#clippath-6);"><path d="M842.58,904.43c2.05-1.18,2.29-2.53,.63-3.49h-.01c-1.29-.75-2.76-.73-4.94,.09l-1.11,.42c-1.29,.49-2.1,.52-2.71,.17h0c-.73-.42-.5-1.07,.45-1.62,.97-.57,2.07-.66,2.84-.34l.09,.03,1.46-.84-.08-.04c-1.48-.73-3.7-.65-5.59,.44-1.85,1.07-2.13,2.42-.61,3.3h.01c1.27,.74,2.85,.77,4.96-.02l1.11-.42c1.33-.5,2.15-.54,2.77-.18h0c.74,.43,.52,1.14-.51,1.73-1.08,.63-2.32,.79-3.1,.42l-.07-.03-1.48,.85,.09,.04c1.58,.79,3.82,.62,5.8-.52Zm7.59-4.47c1.75-1.02,1.61-2.1,.98-2.7l-.04-.04-1.4,.81,.02,.04c.16,.25,.1,.75-.7,1.21-1,.58-2.3,.55-3.48-.11l4.53-2.61-.49-.28c-1.95-1.13-4.38-1.22-6.22-.15-1.84,1.06-1.69,2.51,.35,3.69h0c2.06,1.19,4.52,1.26,6.45,.15Zm-5.63-3.18c.82-.48,1.95-.52,3.11,.04l-3.07,1.77c-.92-.66-.86-1.34-.04-1.81Zm12.45-.87c.29-.16,.53-.34,.71-.48l-1.14-.66c-.16,.11-.27,.18-.47,.3-.62,.36-1.15,.35-1.79-.03l-3.26-1.88,1.36-.79-1.14-.66-1.37,.79-1.58-.92-1.5,.86,1.59,.92-1.01,.58,1.14,.66,1.01-.58,3.61,2.08c1.25,.72,2.36,.66,3.84-.2Zm4.82-2.78c.28-.16,.53-.34,.71-.48l-1.14-.66c-.16,.11-.27,.18-.48,.3-.61,.36-1.14,.35-1.78-.03l-3.27-1.88,1.37-.79-1.14-.66-1.37,.79-1.58-.92-1.5,.87,1.58,.92-1,.58,1.14,.66,1.01-.58,3.61,2.09c1.25,.72,2.35,.66,3.84-.2Zm-4.59-6.11c.48-.28,.49-.73,.01-1.01-.48-.28-1.27-.27-1.75,0-.48,.28-.49,.74-.01,1.01,.49,.28,1.27,.27,1.75,0Zm6.82,4.79l1.47-.85-6.47-3.73-1.47,.85,6.47,3.73Zm3.28-1.9l1.48-.85-3.77-2.18c-.98-.56-1.05-1.23-.17-1.74,.89-.52,1.81-.46,2.82,.12l3.84,2.22,1.47-.85-4.18-2.42c-1.54-.89-3.2-.94-4.64-.1-.94,.54-1.14,1.14-.76,1.72l-.1,.06-.98-.57-1.48,.85,6.47,3.74Zm12.47-4.57c1.89-1.09,2.14-2.33,.65-3.19l-6.31-3.64-1.47,.85,1.06,.61-.07,.05c-1.11-.21-2.24-.06-3.14,.45-1.67,.96-1.39,2.3,.48,3.38h0c1.83,1.07,4.12,1.21,5.76,.26,.89-.52,1.22-1.14,.9-1.76l.1-.06,1.24,.71c.83,.48,.71,1.09-.3,1.67-.82,.47-1.6,.59-2.12,.41h-.02s-1.48,.85-1.48,.85h.02c1.23,.56,2.99,.39,4.69-.6Zm-3.75-2.16c-1.02,.59-2.39,.47-3.53-.19h-.01c-1.15-.67-1.36-1.46-.33-2.05,1.01-.59,2.43-.49,3.57,.17h0c1.15,.67,1.32,1.48,.29,2.07Zm12.93-5.52c2.05-1.18,2.29-2.53,.63-3.49h-.01c-1.29-.75-2.76-.73-4.94,.09l-1.11,.42c-1.29,.49-2.1,.52-2.71,.17h0c-.73-.42-.5-1.07,.45-1.62,.97-.57,2.07-.66,2.84-.34l.09,.03,1.46-.84-.08-.04c-1.48-.73-3.7-.65-5.59,.44-1.85,1.07-2.13,2.42-.61,3.3h.01c1.27,.74,2.85,.77,4.96-.02l1.11-.42c1.34-.5,2.15-.54,2.77-.18h0c.74,.43,.53,1.14-.5,1.73-1.09,.62-2.33,.79-3.11,.42l-.07-.03-1.48,.85,.09,.04c1.58,.79,3.82,.63,5.8-.52Zm7.59-4.47c1.75-1.02,1.61-2.1,.98-2.7l-.04-.04-1.4,.81,.02,.03c.16,.25,.1,.75-.69,1.21-1,.58-2.31,.55-3.49-.11l4.53-2.61-.49-.28c-1.95-1.13-4.38-1.22-6.22-.15-1.84,1.06-1.69,2.51,.35,3.69h0c2.06,1.19,4.51,1.26,6.44,.15Zm-5.63-3.18c.83-.48,1.95-.52,3.11,.04l-3.07,1.77c-.92-.66-.86-1.34-.04-1.81Zm12.78-.95c1.64-.95,1.71-2.01,.6-2.9l-.03-.03-1.39,.81v.02c.51,.5,.39,.97-.37,1.41-1,.58-2.41,.46-3.78-.34h-.01c-1.36-.79-1.56-1.59-.55-2.17,.8-.46,1.73-.48,2.5-.2h.02s1.39-.8,1.39-.8h-.02c-1.51-.69-3.42-.65-5.09,.31-1.95,1.12-1.84,2.5,.25,3.71h.01c2.12,1.23,4.53,1.29,6.47,.17Zm6.75-4.01c.29-.16,.54-.33,.71-.48l-1.14-.66c-.16,.11-.27,.18-.47,.3-.62,.36-1.15,.34-1.79-.03l-3.26-1.88,1.36-.79-1.14-.66-1.37,.79-1.58-.92-1.5,.86,1.59,.92-1.01,.58,1.14,.66,1.01-.58,3.61,2.09c1.25,.72,2.36,.66,3.84-.2Zm-4.59-6.11c.48-.28,.5-.73,.01-1.01-.48-.28-1.27-.27-1.75,0-.48,.28-.49,.73-.01,1.01,.49,.28,1.27,.27,1.75,0Zm6.82,4.79l1.47-.85-6.47-3.73-1.47,.85,6.47,3.74Zm6.21-3.43c1.94-1.12,1.85-2.53-.25-3.74h-.01c-2.09-1.21-4.54-1.26-6.47-.14-1.92,1.11-1.84,2.53,.24,3.73h.01c2.1,1.22,4.54,1.27,6.48,.15Zm-1.2-.69c-1.02,.59-2.41,.47-3.77-.32h-.01c-1.36-.79-1.58-1.6-.56-2.19,1.02-.59,2.41-.46,3.78,.32h.01c1.36,.79,1.58,1.59,.55,2.18Zm5.66-2.04l1.48-.85-3.77-2.18c-.97-.56-1.05-1.23-.17-1.74,.89-.52,1.81-.46,2.82,.12l3.84,2.22,1.47-.85-4.18-2.42c-1.54-.89-3.2-.94-4.64-.1-.94,.54-1.14,1.14-.75,1.72l-.1,.06-.99-.57-1.48,.85,6.47,3.74Zm10.17-5.87l1.6-.92-1.5-1.68,3.16-1.83,2.92,.86,1.6-.92-11.57-3.18-1.72,.99,5.51,6.68Zm-3.12-6.23l.1-.06,4.72,1.4-2.39,1.38-2.43-2.72Z" style="fill:rgba(255,255,255,.5);"/></g><g style="clip-path:url(#clippath-7);"><path d="M881.16,925.71c2.49-1.44,2.78-3.07,.76-4.23h0c-1.57-.91-3.36-.89-6.01,.11l-1.35,.51c-1.56,.59-2.55,.63-3.28,.2h-.01c-.88-.51-.6-1.3,.55-1.96,1.18-.69,2.52-.8,3.45-.41l.1,.04,1.78-1.02-.1-.05c-1.8-.89-4.49-.79-6.79,.54-2.24,1.29-2.58,2.94-.73,4.01h.01c1.54,.9,3.46,.94,6.02-.03l1.35-.51c1.62-.61,2.61-.66,3.36-.22h.01c.89,.52,.63,1.38-.62,2.1-1.32,.76-2.82,.96-3.77,.51l-.08-.04-1.8,1.04,.11,.05c1.92,.96,4.63,.76,7.04-.63Zm9-5.31c2.14-1.23,1.96-2.55,1.2-3.28l-.05-.05-1.7,.98,.03,.04c.18,.31,.12,.91-.85,1.47-1.22,.7-2.8,.67-4.23-.13l5.49-3.17-.58-.34c-2.38-1.37-5.32-1.48-7.56-.19-2.24,1.29-2.05,3.05,.42,4.48h.01c2.5,1.45,5.49,1.53,7.82,.19Zm-6.83-3.87c1-.58,2.37-.63,3.78,.05l-3.73,2.15c-1.12-.8-1.05-1.62-.05-2.2Zm14.91-.94c.35-.2,.65-.41,.86-.59l-1.38-.8c-.2,.14-.32,.22-.58,.36-.74,.43-1.38,.42-2.17-.03l-3.96-2.29,1.66-.96-1.39-.8-1.66,.96-1.92-1.11-1.82,1.05,1.93,1.11-1.23,.71,1.39,.8,1.22-.71,4.39,2.53c1.51,.88,2.86,.8,4.66-.24Zm5.65-3.26c.34-.2,.64-.41,.85-.59l-1.38-.8c-.19,.14-.32,.22-.57,.36-.75,.43-1.39,.42-2.17-.03l-3.96-2.29,1.66-.96-1.39-.8-1.66,.96-1.93-1.11-1.82,1.05,1.93,1.11-1.22,.71,1.38,.8,1.23-.71,4.38,2.53c1.52,.88,2.86,.8,4.67-.24Zm-5.78-7.3c.58-.34,.6-.88,0-1.22-.59-.34-1.54-.33-2.13,0-.58,.34-.59,.89-.01,1.23,.59,.34,1.54,.33,2.13,0Zm8.27,5.81l1.79-1.03-7.85-4.54-1.79,1.03,7.85,4.54Zm3.78-2.18l1.79-1.03-4.57-2.64c-1.18-.68-1.27-1.49-.21-2.11,1.09-.63,2.2-.56,3.43,.15l4.66,2.69,1.79-1.03-5.08-2.93c-1.87-1.08-3.88-1.14-5.64-.12-1.13,.66-1.38,1.39-.91,2.09l-.12,.07-1.2-.69-1.79,1.03,7.85,4.54Zm14.94-5.43c2.29-1.32,2.6-2.82,.79-3.87l-7.67-4.42-1.79,1.03,1.3,.75-.1,.05c-1.33-.26-2.71-.07-3.8,.55-2.03,1.17-1.69,2.79,.58,4.1h.01c2.23,1.29,5,1.47,7,.32,1.08-.63,1.48-1.39,1.09-2.13l.12-.07,1.5,.87c1.01,.58,.87,1.32-.36,2.03-1,.58-1.94,.72-2.57,.5h-.03s-1.79,1.03-1.79,1.03l.02,.02c1.5,.66,3.63,.45,5.7-.74Zm-4.55-2.63c-1.25,.72-2.91,.57-4.3-.23h0c-1.39-.81-1.65-1.77-.4-2.49,1.23-.71,2.95-.59,4.34,.21h.01c1.39,.81,1.6,1.79,.36,2.51Zm13.76-5.88l1.86-1.07-10.37-5.99-1.85,1.07-.81,2.66,1.75,1.01,.75-2.54,.13-.07,8.54,4.93Zm6.81-3.78c1.04-.6,1.43-1.34,1.1-2.03l.12-.07,1.08,.62,1.76-1.02-5.37-3.1c-1.66-.96-3.77-.87-5.79,.3-1.87,1.08-2.26,2.32-1.11,3.18l.06,.04,1.69-.98-.02-.02c-.34-.4-.1-.88,.72-1.35,.96-.56,1.9-.6,2.69-.15l.67,.39-1.9,1.24c-1.79,1.17-2.05,2.26-.64,3.07h.01c1.43,.83,3.44,.74,4.93-.12Zm-3.25-.94h0c-.65-.38-.55-.86,.39-1.48l1.65-1.09,.63,.36c.94,.54,.84,1.41-.23,2.03-.8,.46-1.76,.56-2.43,.17Z" style="fill:#fff;"/></g><line x1="885.54" y1="941.88" x2="1186.06" y2="768.39" style="fill:none; stroke:#444;"/><g style="clip-path:url(#clippath-8);"><path d="M925.33,951.21c2.49-1.44,2.78-3.07,.76-4.23h-.01c-1.56-.91-3.35-.89-6,.11l-1.35,.51c-1.57,.59-2.55,.63-3.28,.2h-.01c-.89-.51-.61-1.3,.54-1.96,1.18-.69,2.53-.8,3.46-.41l.1,.04,1.78-1.02-.1-.05c-1.8-.89-4.49-.79-6.79,.54-2.24,1.29-2.59,2.94-.73,4.01h.01c1.54,.9,3.45,.94,6.02-.03l1.34-.51c1.63-.61,2.62-.66,3.37-.22h.01c.89,.52,.63,1.38-.62,2.1-1.32,.76-2.82,.96-3.78,.51l-.08-.04-1.79,1.04,.1,.05c1.92,.96,4.64,.76,7.05-.63Zm9-5.31c2.14-1.23,1.96-2.55,1.19-3.28l-.04-.05-1.7,.98,.03,.04c.18,.31,.12,.91-.85,1.47-1.22,.7-2.8,.67-4.23-.13l5.49-3.17-.59-.34c-2.37-1.37-5.32-1.48-7.55-.19-2.24,1.29-2.05,3.05,.42,4.48h.01c2.5,1.45,5.48,1.54,7.82,.19Zm-6.83-3.87c1-.58,2.37-.63,3.78,.05l-3.74,2.15c-1.11-.8-1.04-1.62-.04-2.2Zm14.91-.94c.35-.2,.65-.41,.86-.59l-1.38-.8c-.2,.14-.33,.22-.58,.36-.75,.43-1.39,.42-2.17-.03l-3.96-2.29,1.66-.96-1.39-.8-1.66,.96-1.92-1.11-1.82,1.05,1.92,1.11-1.22,.7,1.39,.8,1.22-.71,4.39,2.53c1.51,.88,2.86,.8,4.66-.24Zm5.65-3.26c.34-.2,.64-.41,.85-.59l-1.38-.8c-.19,.14-.32,.22-.57,.37-.75,.43-1.39,.42-2.18-.03l-3.96-2.29,1.66-.96-1.38-.8-1.66,.96-1.93-1.11-1.82,1.05,1.93,1.11-1.22,.71,1.38,.8,1.23-.71,4.38,2.53c1.52,.88,2.86,.8,4.67-.24Zm-5.78-7.3c.58-.34,.59-.88,0-1.22-.58-.34-1.53-.33-2.12,0-.59,.34-.59,.89-.01,1.23,.59,.34,1.54,.33,2.13,0Zm8.27,5.81l1.79-1.03-7.86-4.54-1.79,1.03,7.86,4.54Zm3.78-2.18l1.79-1.03-4.58-2.64c-1.18-.68-1.26-1.49-.2-2.11,1.09-.63,2.2-.56,3.42,.15l4.67,2.69,1.79-1.03-5.08-2.93c-1.87-1.08-3.88-1.14-5.64-.12-1.13,.66-1.38,1.39-.91,2.09l-.12,.07-1.2-.69-1.79,1.03,7.85,4.54Zm14.93-5.43c2.3-1.32,2.61-2.82,.8-3.87l-7.67-4.42-1.79,1.03,1.3,.75-.1,.05c-1.33-.26-2.71-.08-3.8,.55-2.03,1.17-1.7,2.79,.57,4.1h.02c2.23,1.29,5,1.47,6.99,.32,1.09-.63,1.48-1.39,1.1-2.13l.12-.07,1.5,.87c1.01,.58,.86,1.32-.36,2.02-1,.58-1.95,.72-2.57,.5h-.03s-1.79,1.03-1.79,1.03v.02c1.52,.66,3.64,.45,5.71-.74Zm-4.55-2.63c-1.24,.72-2.9,.57-4.29-.23h-.01c-1.39-.81-1.65-1.77-.4-2.49,1.23-.71,2.95-.59,4.34,.21h.01c1.39,.81,1.6,1.79,.35,2.51Zm11.23-4.42l7.21-4.16-1.54-.89-4.7,2.71-.15-.09,.07-2.36c.07-2.14-.3-3.01-1.48-3.69h-.02c-1.74-1.02-4.42-.89-6.44,.27-2.17,1.25-2.33,2.9-.39,4.02h.03s1.73-.98,1.73-.98l-.02-.02c-1.07-.62-1.06-1.47,.04-2.1,1.08-.62,2.42-.6,3.38-.05h.02c.8,.47,.93,1.01,.94,2.64l.07,3.98,1.25,.72Zm11.33-6.39c1.04-.6,1.43-1.34,1.1-2.02l.12-.07,1.08,.62,1.77-1.02-5.37-3.1c-1.66-.96-3.78-.87-5.8,.3-1.87,1.08-2.26,2.32-1.1,3.18l.05,.04,1.69-.97-.02-.02c-.34-.4-.1-.88,.72-1.35,.96-.56,1.9-.6,2.69-.15l.67,.39-1.89,1.24c-1.8,1.17-2.05,2.26-.65,3.07h.01c1.43,.83,3.44,.74,4.93-.12Zm-3.24-.94h-.02c-.65-.38-.55-.86,.39-1.48l1.65-1.09,.64,.37c.93,.54,.84,1.41-.24,2.03-.79,.46-1.76,.56-2.42,.17Z" style="fill:#fff;"/></g><line x1="929.71" y1="967.38" x2="1230.23" y2="793.89" style="fill:none; stroke:#444;"/><g style="clip-path:url(#clippath-9);"><path d="M969.5,976.71c2.49-1.44,2.78-3.07,.76-4.23h-.01c-1.56-.91-3.35-.89-6,.11l-1.35,.51c-1.57,.59-2.55,.63-3.29,.2h0c-.89-.52-.61-1.3,.54-1.96,1.18-.69,2.53-.8,3.46-.41l.1,.04,1.78-1.03-.1-.05c-1.8-.89-4.49-.79-6.79,.54-2.24,1.29-2.59,2.94-.73,4.01h0c1.55,.9,3.46,.94,6.03-.03l1.34-.51c1.63-.61,2.62-.66,3.37-.22h0c.9,.52,.64,1.38-.61,2.1-1.32,.76-2.82,.96-3.78,.51l-.08-.04-1.79,1.04,.1,.05c1.92,.96,4.64,.76,7.05-.63Zm9-5.31c2.13-1.23,1.95-2.55,1.19-3.28l-.04-.05-1.7,.98,.02,.04c.19,.31,.13,.91-.84,1.47-1.22,.7-2.8,.67-4.23-.13l5.49-3.17-.59-.34c-2.37-1.37-5.32-1.48-7.55-.19-2.24,1.29-2.05,3.05,.42,4.48h.01c2.5,1.45,5.48,1.54,7.82,.19Zm-6.83-3.87c1-.58,2.37-.63,3.77,.05l-3.73,2.15c-1.11-.8-1.04-1.62-.04-2.2Zm14.91-.94c.35-.2,.65-.41,.86-.59l-1.38-.8c-.2,.14-.33,.22-.58,.36-.75,.43-1.39,.42-2.17-.03l-3.96-2.29,1.66-.96-1.39-.8-1.66,.96-1.93-1.11-1.81,1.05,1.92,1.11-1.22,.71,1.39,.8,1.22-.71,4.38,2.53c1.52,.88,2.87,.8,4.67-.24Zm5.64-3.26c.35-.2,.65-.41,.86-.58l-1.38-.8c-.19,.14-.32,.22-.58,.36-.74,.43-1.38,.42-2.17-.03l-3.96-2.29,1.66-.96-1.38-.8-1.67,.96-1.92-1.11-1.82,1.05,1.93,1.11-1.23,.71,1.39,.8,1.22-.71,4.39,2.53c1.52,.88,2.86,.8,4.66-.25Zm-5.78-7.3c.59-.34,.6-.88,.01-1.22-.58-.34-1.54-.33-2.12,0-.59,.34-.6,.89-.01,1.23,.59,.34,1.54,.33,2.12,0Zm8.28,5.82l1.79-1.03-7.86-4.54-1.79,1.03,7.86,4.54Zm3.78-2.18l1.79-1.03-4.58-2.64c-1.18-.68-1.26-1.49-.2-2.11,1.09-.63,2.2-.56,3.42,.15l4.67,2.69,1.79-1.03-5.08-2.93c-1.87-1.08-3.89-1.14-5.64-.12-1.14,.66-1.38,1.39-.91,2.09l-.13,.07-1.2-.69-1.79,1.03,7.86,4.54Zm14.93-5.43c2.3-1.32,2.61-2.82,.79-3.87l-7.66-4.42-1.79,1.03,1.29,.75-.09,.05c-1.34-.26-2.72-.08-3.8,.55-2.03,1.17-1.7,2.79,.57,4.1h.02c2.23,1.3,5,1.47,6.99,.32,1.09-.63,1.48-1.39,1.1-2.13l.12-.07,1.5,.87c1.01,.58,.86,1.32-.36,2.03-1,.58-1.95,.72-2.57,.5h-.03s-1.79,1.03-1.79,1.03v.02c1.51,.66,3.64,.45,5.71-.74Zm-4.55-2.63c-1.24,.72-2.9,.57-4.29-.23h-.01c-1.39-.81-1.65-1.77-.41-2.49,1.24-.71,2.96-.59,4.35,.21h.01c1.39,.81,1.6,1.79,.35,2.51Zm15.19-6.46c2.3-1.33,2.61-2.97,.78-4.03h-.01c-1.44-.84-3.36-.78-5.03,.02l-.04-.02c.99-.87,1.06-1.9-.23-2.64h-.01c-1.62-.95-4.13-.79-6.26,.44-2.09,1.21-2.33,2.71-.69,3.84l.07,.05,1.73-1-.07-.05c-.83-.59-.66-1.36,.43-1.99,1.11-.64,2.31-.68,3.26-.14h.01c.91,.53,.79,1.34-.35,2l-1.18,.68,1.38,.8,1.22-.71c1.33-.77,2.74-.88,3.83-.25h.01c.97,.57,.84,1.41-.36,2.1-1.22,.7-2.66,.81-3.63,.36l-.09-.04-1.77,1.02,.1,.05c1.91,.95,4.63,.8,6.9-.51Zm7.75-4.56c1.03-.6,1.42-1.34,1.09-2.03l.12-.07,1.08,.62,1.77-1.02-5.37-3.1c-1.66-.96-3.78-.87-5.8,.3-1.86,1.08-2.25,2.32-1.1,3.18l.05,.04,1.69-.98-.02-.02c-.34-.4-.1-.88,.72-1.35,.96-.56,1.91-.6,2.69-.15l.68,.39-1.9,1.24c-1.8,1.17-2.05,2.26-.65,3.07h.02c1.43,.83,3.43,.74,4.93-.12Zm-3.25-.94h-.02c-.64-.38-.54-.86,.39-1.48l1.65-1.09,.64,.36c.93,.54,.84,1.41-.24,2.03-.79,.46-1.75,.56-2.42,.17Z" style="fill:#fff;"/></g><line x1="973.88" y1="992.88" x2="1274.4" y2="819.39" style="fill:none; stroke:#444;"/><line x1="973.88" y1="992.88" x2="1274.4" y2="819.39" style="fill:none; stroke:#444;"/><line x1="973.88" y1="992.88" x2="1274.4" y2="819.39" style="fill:none; stroke:#444;"/><g style="clip-path:url(#clippath-10);"><path d="M1003.67,997.43c2.04-1.18,2.29-2.52,.62-3.49h0c-1.29-.75-2.77-.73-4.95,.09l-1.11,.42c-1.29,.48-2.1,.52-2.7,.17h-.01c-.73-.42-.5-1.07,.45-1.62,.97-.57,2.08-.66,2.85-.34l.08,.04,1.46-.85-.08-.04c-1.48-.73-3.69-.65-5.59,.45-1.85,1.07-2.13,2.42-.6,3.3h0c1.28,.74,2.85,.77,4.96-.02l1.11-.42c1.34-.5,2.16-.54,2.77-.18h.01c.73,.43,.52,1.14-.51,1.73-1.08,.63-2.32,.79-3.11,.42l-.06-.03-1.48,.85,.08,.04c1.58,.79,3.82,.62,5.81-.52Zm7.58-4.47c1.76-1.01,1.61-2.1,.98-2.7l-.03-.04-1.41,.81,.03,.03c.15,.25,.1,.75-.7,1.21-1,.58-2.3,.55-3.48-.11l4.52-2.61-.48-.28c-1.96-1.13-4.39-1.22-6.23-.15-1.84,1.06-1.68,2.51,.35,3.69h.01c2.06,1.19,4.52,1.26,6.44,.15Zm-5.62-3.18c.82-.47,1.94-.52,3.1,.04l-3.07,1.77c-.92-.66-.86-1.34-.03-1.81Zm12.45-.87c.28-.17,.53-.34,.7-.48l-1.14-.66c-.16,.11-.26,.18-.47,.3-.62,.36-1.14,.35-1.79-.03l-3.26-1.88,1.37-.79-1.14-.66-1.37,.79-1.59-.92-1.5,.87,1.59,.92-1.01,.58,1.15,.66,1-.58,3.61,2.09c1.25,.72,2.36,.66,3.85-.2Zm4.81-2.78c.29-.16,.54-.33,.71-.48l-1.14-.66c-.16,.11-.26,.18-.47,.3-.62,.36-1.14,.34-1.79-.03l-3.26-1.88,1.37-.79-1.15-.66-1.36,.79-1.59-.92-1.5,.86,1.59,.92-1.01,.58,1.14,.66,1.01-.58,3.61,2.09c1.25,.72,2.36,.66,3.84-.2Zm-4.58-6.11c.48-.28,.49-.73,0-1.01-.48-.28-1.26-.27-1.74,0-.49,.28-.5,.73-.02,1.01,.49,.28,1.27,.27,1.76,0Zm6.81,4.79l1.48-.85-6.48-3.73-1.47,.85,6.47,3.74Zm3.29-1.9l1.47-.85-3.77-2.18c-.97-.56-1.04-1.23-.17-1.74,.9-.52,1.82-.46,2.82,.12l3.84,2.22,1.48-.85-4.19-2.42c-1.54-.89-3.19-.94-4.64-.1-.93,.54-1.14,1.14-.75,1.72l-.1,.06-.99-.57-1.47,.85,6.47,3.73Zm12.46-4.57c1.89-1.09,2.15-2.32,.66-3.18l-6.32-3.64-1.47,.85,1.07,.61-.08,.04c-1.1-.21-2.24-.06-3.13,.46-1.67,.96-1.4,2.3,.47,3.38h.01c1.84,1.07,4.12,1.21,5.76,.26,.9-.52,1.22-1.14,.9-1.76l.1-.06,1.24,.71c.83,.48,.71,1.09-.29,1.67-.83,.48-1.61,.59-2.12,.41h-.03s-1.47,.84-1.47,.84h.01c1.24,.56,2.99,.39,4.69-.6Zm-3.74-2.16c-1.03,.59-2.39,.47-3.54-.19h-.01c-1.14-.67-1.35-1.46-.33-2.05,1.02-.59,2.43-.49,3.58,.17h.01c1.14,.67,1.31,1.48,.29,2.07Zm12.93-5.52c2.05-1.18,2.29-2.53,.62-3.49h0c-1.29-.75-2.77-.73-4.94,.09l-1.12,.42c-1.29,.48-2.1,.52-2.7,.17h-.01c-.73-.42-.5-1.07,.45-1.62,.97-.57,2.08-.66,2.85-.34l.08,.03,1.46-.84-.08-.04c-1.48-.73-3.69-.65-5.59,.44-1.85,1.07-2.13,2.42-.6,3.3h0c1.28,.74,2.85,.77,4.97-.02l1.1-.42c1.34-.5,2.16-.54,2.77-.18h.01c.73,.43,.52,1.14-.51,1.73-1.08,.62-2.32,.79-3.11,.42l-.06-.03-1.48,.85,.09,.04c1.58,.79,3.81,.63,5.8-.52Zm7.58-4.47c1.76-1.01,1.61-2.1,.98-2.7l-.03-.04-1.41,.81,.03,.03c.15,.25,.1,.75-.7,1.21-1,.58-2.3,.55-3.48-.11l4.52-2.61-.48-.28c-1.96-1.13-4.38-1.22-6.23-.15-1.84,1.06-1.68,2.51,.35,3.69h.01c2.06,1.19,4.52,1.27,6.44,.15Zm-5.62-3.18c.82-.47,1.94-.52,3.1,.04l-3.07,1.77c-.92-.66-.86-1.34-.03-1.81Zm12.78-.95c1.64-.95,1.71-2.01,.6-2.9l-.04-.03-1.38,.81v.02c.5,.5,.39,.97-.38,1.41-1,.58-2.4,.46-3.77-.34h-.02c-1.35-.79-1.55-1.59-.55-2.17,.81-.46,1.74-.48,2.5-.2h.02s1.4-.8,1.4-.8h-.03c-1.5-.69-3.42-.65-5.08,.31-1.95,1.12-1.84,2.51,.25,3.71h.01c2.11,1.23,4.52,1.29,6.47,.17Zm6.75-4.01c.28-.16,.53-.33,.7-.48l-1.13-.66c-.16,.11-.27,.18-.48,.3-.61,.36-1.14,.35-1.79-.03l-3.26-1.88,1.37-.79-1.14-.66-1.37,.79-1.59-.92-1.5,.86,1.59,.92-1.01,.58,1.15,.66,1-.58,3.62,2.08c1.24,.72,2.35,.66,3.84-.2Zm-4.59-6.11c.48-.28,.49-.73,.01-1.01-.48-.28-1.27-.27-1.75,0-.49,.28-.49,.73-.01,1.01,.48,.28,1.26,.27,1.75,0Zm6.81,4.79l1.48-.85-6.47-3.73-1.48,.85,6.47,3.73Zm6.21-3.43c1.94-1.12,1.85-2.53-.25-3.74h-.01c-2.08-1.21-4.53-1.26-6.46-.14-1.93,1.11-1.84,2.53,.24,3.73h.01c2.09,1.22,4.53,1.27,6.47,.15Zm-1.19-.69c-1.03,.59-2.41,.47-3.77-.32h-.02c-1.36-.79-1.58-1.6-.55-2.19,1.02-.59,2.41-.46,3.77,.32h.01c1.36,.79,1.58,1.59,.56,2.18Zm5.66-2.04l1.47-.85-3.77-2.18c-.97-.56-1.04-1.23-.17-1.74,.9-.52,1.82-.46,2.82,.12l3.84,2.22,1.48-.85-4.19-2.42c-1.54-.89-3.19-.94-4.64-.1-.93,.54-1.13,1.14-.75,1.72l-.1,.06-.99-.57-1.47,.85,6.47,3.74Zm10.8-6.23l3.65-2.11c1.82-1.05,2.01-2.23,.51-3.09h-.01c-1.11-.65-2.73-.67-3.98-.07l-.11-.06c.72-.57,.59-1.41-.3-1.93h-.01c-1.31-.76-3.1-.67-4.73,.27l-3.57,2.06,8.55,4.93Zm-4.16-6.09c.92-.53,1.91-.59,2.66-.15h.02c.77,.45,.62,1.03-.47,1.65l-1.47,.85-2.41-1.39,1.67-.96Zm3.54,1.99c1.17-.67,2.24-.77,3.1-.27h.01c.87,.51,.74,1.12-.38,1.77l-1.78,1.03-2.67-1.54,1.72-.99Z" style="fill:rgba(255,255,255,.5);"/></g><g style="clip-path:url(#clippath-11);"><path d="M1042.25,1018.71c2.48-1.44,2.78-3.07,.76-4.23h-.01c-1.57-.91-3.36-.89-6,.11l-1.35,.51c-1.57,.59-2.56,.63-3.29,.2h-.01c-.88-.51-.6-1.3,.55-1.96,1.18-.69,2.52-.8,3.46-.41l.1,.04,1.77-1.03-.1-.05c-1.79-.89-4.48-.79-6.78,.54-2.25,1.29-2.59,2.94-.74,4.01h0c1.55,.9,3.46,.94,6.03-.03l1.34-.51c1.62-.61,2.62-.66,3.36-.22h.01c.89,.52,.63,1.38-.62,2.1-1.31,.76-2.81,.96-3.77,.51l-.08-.04-1.8,1.04,.11,.05c1.92,.96,4.64,.76,7.05-.63Zm9-5.31c2.13-1.23,1.95-2.55,1.19-3.28l-.04-.05-1.71,.98,.03,.04c.19,.31,.12,.91-.85,1.47-1.21,.7-2.79,.67-4.22-.13l5.49-3.17-.59-.34c-2.37-1.37-5.32-1.48-7.56-.19-2.23,1.29-2.04,3.05,.43,4.48h.01c2.5,1.45,5.48,1.54,7.82,.19Zm-6.83-3.87c1-.58,2.36-.63,3.77,.05l-3.73,2.15c-1.11-.8-1.04-1.62-.04-2.2Zm14.91-.94c.34-.2,.64-.41,.85-.58l-1.38-.8c-.19,.14-.32,.22-.57,.36-.75,.43-1.39,.42-2.17-.03l-3.96-2.29,1.66-.96-1.39-.8-1.66,.96-1.93-1.11-1.82,1.05,1.93,1.11-1.22,.71,1.39,.8,1.22-.71,4.38,2.53c1.52,.88,2.86,.8,4.67-.24Zm5.64-3.26c.35-.2,.65-.41,.86-.58l-1.38-.8c-.2,.14-.33,.22-.58,.36-.75,.43-1.39,.42-2.17-.03l-3.96-2.29,1.66-.96-1.39-.8-1.66,.96-1.92-1.11-1.82,1.05,1.92,1.11-1.22,.71,1.39,.8,1.22-.71,4.39,2.53c1.51,.88,2.86,.8,4.66-.24Zm-5.78-7.3c.58-.34,.6-.88,.01-1.23-.58-.34-1.54-.33-2.12,0-.59,.34-.6,.89-.02,1.23,.59,.34,1.54,.33,2.13,0Zm8.28,5.81l1.79-1.03-7.86-4.54-1.79,1.03,7.86,4.54Zm3.78-2.18l1.79-1.03-4.58-2.64c-1.18-.68-1.27-1.49-.2-2.11,1.08-.63,2.2-.56,3.42,.15l4.67,2.69,1.79-1.03-5.09-2.93c-1.87-1.08-3.88-1.14-5.63-.12-1.14,.66-1.38,1.39-.92,2.09l-.12,.07-1.2-.69-1.79,1.03,7.86,4.54Zm14.93-5.43c2.29-1.32,2.6-2.82,.79-3.87l-7.66-4.42-1.79,1.03,1.29,.75-.09,.05c-1.34-.26-2.72-.07-3.8,.55-2.03,1.17-1.7,2.79,.57,4.1h.02c2.22,1.29,5,1.47,6.99,.32,1.09-.63,1.48-1.39,1.09-2.13l.12-.07,1.51,.87c1,.58,.86,1.32-.36,2.03-1,.58-1.95,.72-2.58,.5h-.02s-1.79,1.02-1.79,1.02v.02c1.51,.66,3.64,.45,5.71-.74Zm-4.55-2.63c-1.24,.72-2.9,.57-4.29-.23h-.02c-1.38-.81-1.64-1.77-.4-2.49,1.24-.71,2.96-.59,4.34,.21h.02c1.39,.81,1.59,1.79,.35,2.51Zm13.77-5.88l1.85-1.07-10.37-5.99-1.85,1.07-.8,2.66,1.74,1.01,.76-2.54,.12-.07,8.55,4.93Zm9.04-5.07c1.96-1.14,1.66-2.76-.82-4.2h-.02c-2.5-1.45-5.29-1.64-7.28-.49-1.08,.62-1.45,1.45-1.01,2.17l-.12,.07-4.29-2.48-1.79,1.03,10.9,6.29,1.79-1.03-1.23-.71,.12-.07c1.29,.24,2.65,.04,3.75-.59Zm-2.08-.55c-1.21,.7-2.93,.58-4.5-.33h-.02c-1.57-.92-1.79-1.91-.57-2.61,1.22-.71,2.92-.58,4.51,.34h.01c1.58,.92,1.8,1.9,.57,2.61Z" style="fill:#fff;"/></g></g></g></g></g></g></g></svg>