<?xml version="1.0" encoding="UTF-8"?><svg id="Transport" xmlns="http://www.w3.org/2000/svg" xmlns:xlink="http://www.w3.org/1999/xlink" viewBox="0 0 2287.04 1197.27"><defs><clipPath id="clippath"><polygon points="812.57 1150.61 1995.58 467.65 2073.53 512.65 890.51 1195.61 812.57 1150.61" style="fill:none;"/></clipPath><clipPath id="clippath-1"><polygon points="1048.14 1031.12 1075.85 1015.12 1103.56 1031.12 1075.85 1047.12 1048.14 1031.12" style="fill:none;"/></clipPath><clipPath id="clippath-2"><polygon points="1168.95 961.37 1196.66 945.37 1224.37 961.37 1196.66 977.37 1168.95 961.37" style="fill:none;"/></clipPath><clipPath id="clippath-3"><polygon points="1242.56 918.87 1270.27 902.87 1297.98 918.87 1270.27 934.87 1242.56 918.87" style="fill:none;"/></clipPath><clipPath id="clippath-4"><polygon points="1371.6 844.38 1399.31 828.38 1427.02 844.38 1399.31 860.38 1371.6 844.38" style="fill:none;"/></clipPath><clipPath id="clippath-5"><polygon points="1671.26 667.39 1705.9 647.39 1740.54 667.39 1705.9 687.39 1671.26 667.39" style="fill:none;"/></clipPath><clipPath id="clippath-6"><polygon points="1757.86 617.39 1792.5 597.39 1827.14 617.39 1792.5 637.39 1757.86 617.39" style="fill:none;"/></clipPath><clipPath id="clippath-7"><polygon points="1940.6 513.9 1971.77 495.9 2002.95 513.9 1971.77 531.9 1940.6 513.9" style="fill:none;"/></clipPath></defs><g style="clip-path:url(#clippath);"><g><polygon points="812.57 1150.61 1995.58 467.65 2073.53 512.65 890.51 1195.61 812.57 1150.61" style="fill:#191919;"/><g style="opacity:.5;"><path d="M861.84,1158.41c2.05-1.18,2.29-2.53,.63-3.49h0c-1.29-.75-2.76-.73-4.94,.09l-1.11,.42c-1.29,.48-2.1,.52-2.7,.17h0c-.73-.43-.5-1.07,.45-1.62,.97-.57,2.08-.66,2.85-.34l.08,.04,1.46-.85-.08-.04c-1.48-.73-3.7-.65-5.59,.45-1.85,1.06-2.13,2.41-.6,3.3h0c1.27,.73,2.85,.77,4.96-.03l1.11-.42c1.34-.5,2.15-.54,2.77-.18h0c.73,.42,.52,1.14-.51,1.73-1.08,.63-2.32,.79-3.11,.42l-.07-.03-1.48,.85,.09,.05c1.58,.79,3.82,.62,5.8-.52Zm7.58-4.47c1.76-1.02,1.61-2.1,.98-2.7l-.04-.05-1.4,.81,.02,.04c.15,.25,.1,.75-.7,1.21-1,.58-2.3,.55-3.48-.11l4.52-2.61-.49-.28c-1.95-1.13-4.38-1.22-6.22-.16-1.84,1.07-1.69,2.52,.35,3.69h0c2.06,1.19,4.52,1.27,6.44,.16Zm-5.62-3.19c.82-.47,1.95-.52,3.11,.04l-3.07,1.77c-.92-.66-.86-1.33-.04-1.81Zm12.45-.75c1.59-.92,1.92-2.07,.69-2.78h-.01c-.94-.55-2.08-.51-3.63,.05l-1.28,.48c-.86,.31-1.36,.33-1.74,.11h0c-.48-.28-.33-.74,.33-1.12,.69-.4,1.45-.45,1.97-.28h.02s1.39-.79,1.39-.79h-.01c-1.14-.56-2.87-.47-4.44,.44-1.53,.88-1.79,1.96-.62,2.64h0c.95,.55,2.12,.55,3.62-.01l1.29-.46c.87-.32,1.4-.34,1.78-.12h.01c.48,.28,.31,.77-.43,1.19-.73,.43-1.48,.49-2.08,.32h-.02l-1.46,.84h.01c1.22,.57,2.97,.44,4.62-.51Zm6.56-3.79c1.59-.92,1.92-2.06,.69-2.77h-.01c-.94-.55-2.08-.52-3.63,.05l-1.28,.47c-.86,.31-1.36,.33-1.74,.12h0c-.48-.29-.33-.75,.33-1.13,.69-.4,1.45-.45,1.97-.28h.02s1.39-.79,1.39-.79h-.01c-1.14-.56-2.86-.46-4.44,.45-1.53,.88-1.79,1.96-.62,2.63h0c.95,.55,2.12,.55,3.62,0l1.28-.47c.87-.32,1.4-.34,1.78-.12h.01c.49,.29,.31,.77-.43,1.2-.73,.42-1.48,.49-2.08,.32h-.02s-1.46,.84-1.46,.84h.01c1.22,.57,2.97,.43,4.62-.52Zm-2.69-7.32c.48-.28,.49-.73,0-1.01-.48-.27-1.27-.27-1.75,.01-.48,.28-.49,.73-.01,1.01,.49,.28,1.27,.27,1.75-.01Zm6.81,4.79l1.47-.85-6.47-3.74-1.47,.85,6.47,3.74Zm6.21-3.44c1.94-1.11,1.85-2.52-.25-3.73h-.01c-2.08-1.21-4.54-1.26-6.47-.15-1.92,1.11-1.84,2.53,.24,3.73h.01c2.09,1.22,4.53,1.28,6.48,.15Zm-1.2-.69c-1.02,.6-2.41,.47-3.77-.31h-.01c-1.36-.8-1.58-1.6-.56-2.19,1.02-.59,2.41-.46,3.77,.32h.01c1.36,.8,1.58,1.59,.56,2.18Zm5.66-2.03l1.47-.85-3.77-2.18c-.97-.56-1.04-1.23-.17-1.74,.89-.51,1.81-.46,2.82,.13l3.84,2.21,1.47-.85-4.19-2.41c-1.54-.89-3.2-.94-4.64-.11-.94,.54-1.14,1.15-.75,1.72l-.1,.06-.99-.57-1.47,.85,6.47,3.74Zm12.92-7.46l1.53-.89-7.26-4.19,2.64-1.52-1.29-.74-6.79,3.92,1.28,.74,2.63-1.51,7.26,4.19Zm-1.31-7.97c.48-.28,.49-.73,0-1.01-.48-.28-1.27-.27-1.75,0-.48,.28-.49,.74-.01,1.02,.49,.28,1.27,.27,1.75-.01Zm6.81,4.79l1.47-.85-6.47-3.74-1.47,.85,6.47,3.74Zm3.29-1.9l1.47-.85-3.94-2.27c-.8-.47-.89-1.13-.16-1.55,.72-.42,1.61-.42,2.33,0l4.2,2.42,1.47-.85-4.04-2.34c-.74-.42-.82-1.04-.05-1.49,.79-.45,1.6-.43,2.44,.06l4.09,2.36,1.47-.85-4.45-2.57c-1.34-.78-2.92-.79-4.23-.04-.9,.52-1.18,1.22-.79,1.81l-.1,.06c-.99-.26-2.08-.15-2.96,.36-.85,.49-1.09,1.1-.65,1.68l-.1,.05-1.01-.58-1.47,.85,6.47,3.74Zm13.94-7.89c1.76-1.02,1.61-2.1,.98-2.7l-.03-.05-1.4,.81,.02,.04c.15,.25,.1,.75-.7,1.21-1,.58-2.3,.55-3.48-.11l4.52-2.61-.49-.28c-1.95-1.13-4.38-1.22-6.22-.16-1.84,1.07-1.69,2.52,.35,3.69h0c2.06,1.19,4.52,1.27,6.44,.16Zm-5.62-3.19c.82-.47,1.95-.52,3.11,.04l-3.07,1.77c-.92-.66-.86-1.33-.03-1.81Zm-42.02,55.9c3.04-1.75,2.31-4.31-1.83-6.7h-.02c-4.14-2.4-8.56-2.82-11.61-1.06-3.05,1.76-2.3,4.3,1.84,6.69h.02c4.14,2.4,8.55,2.83,11.6,1.07Zm-1.86-1.07c-1.63,.95-4.4,.43-7.43-1.32h-.02c-3.04-1.77-3.92-3.35-2.28-4.3,1.63-.94,4.39-.44,7.43,1.31h.02c3.04,1.77,3.92,3.37,2.28,4.31Zm13.95-5.91c3.05-1.76,2.31-4.31-1.83-6.7h-.02c-4.14-2.4-8.56-2.82-11.61-1.06-3.05,1.75-2.3,4.3,1.84,6.69h.02c4.14,2.4,8.55,2.83,11.6,1.07Zm-1.86-1.07c-1.63,.94-4.4,.43-7.43-1.33h-.02c-3.04-1.76-3.92-3.34-2.28-4.29,1.63-.94,4.4-.44,7.43,1.31h.02c3.04,1.76,3.92,3.37,2.28,4.31Zm2.19-9.08c.82-.47,.79-1.17,0-1.62-.79-.46-2-.47-2.82,0-.81,.47-.8,1.17,0,1.63,.78,.45,2.01,.46,2.82-.01Zm6.59,3.81c.82-.48,.8-1.17,0-1.63-.79-.46-2-.47-2.82,.01-.81,.46-.8,1.16,0,1.62,.79,.46,2.01,.46,2.82,0Zm10.98-3.99c3.05-1.76,2.31-4.32-1.83-6.71h-.02c-4.14-2.4-8.56-2.82-11.61-1.06-3.05,1.76-2.3,4.3,1.84,6.69h.02c4.14,2.4,8.55,2.84,11.6,1.08Zm-1.86-1.07c-1.63,.94-4.4,.42-7.43-1.33h-.02c-3.04-1.77-3.92-3.35-2.28-4.29,1.63-.95,4.4-.45,7.43,1.3h.02c3.04,1.77,3.92,3.37,2.28,4.32Zm13.95-5.92c3.05-1.75,2.31-4.31-1.83-6.7h-.02c-4.14-2.4-8.56-2.82-11.61-1.06-3.05,1.76-2.3,4.3,1.84,6.69h.02c4.14,2.4,8.55,2.83,11.6,1.07Zm-1.86-1.07c-1.63,.95-4.39,.43-7.43-1.32h-.02c-3.04-1.77-3.92-3.35-2.28-4.3,1.63-.94,4.4-.44,7.43,1.31h.02c3.04,1.77,3.92,3.37,2.28,4.31Zm2.19-9.08c.82-.47,.79-1.17,0-1.62-.79-.46-2-.47-2.82,0-.81,.47-.8,1.17,0,1.63,.78,.45,2.01,.46,2.82-.01Zm6.59,3.81c.82-.47,.8-1.17,0-1.63-.79-.45-2-.46-2.82,.01-.81,.46-.8,1.17,0,1.62,.79,.46,2.01,.46,2.82,0Zm9.18-3.32l2.29-1.33-12.81-7.39-2.28,1.31-.99,3.29,2.16,1.25,.93-3.14,.15-.09,10.56,6.1Zm10.87-5.91c3.05-1.76,2.31-4.32-1.83-6.71h-.02c-4.14-2.39-8.56-2.82-11.61-1.06-3.05,1.76-2.3,4.3,1.84,6.69h.02c4.14,2.4,8.55,2.84,11.6,1.08Zm-1.86-1.07c-1.63,.94-4.4,.42-7.43-1.33h-.02c-3.04-1.76-3.92-3.35-2.28-4.29,1.63-.94,4.4-.45,7.43,1.31h.02c3.04,1.76,3.92,3.37,2.28,4.31Zm18.18-8.5c2.9-1.67,2.77-3.79-.37-5.6l-.02-.02c-3.13-1.8-6.8-1.87-9.7-.2-2.89,1.67-2.76,3.8,.35,5.6h.02c3.14,1.82,6.8,1.91,9.72,.22Zm-1.79-1.03c-1.54,.89-3.62,.7-5.66-.48h-.02c-2.04-1.19-2.37-2.39-.83-3.28,1.53-.88,3.61-.69,5.65,.49h.02c2.04,1.19,2.37,2.38,.84,3.27Zm9.2-3.47l2.21-1.27-8-4.62,2.07-1.19-1.71-.99-2.1,1.21-.84-.48c-.92-.53-1.02-1.05,.02-1.65,.31-.18,.6-.33,.8-.41l-1.55-.89c-.41,.17-.84,.38-1.31,.65-2.16,1.25-2.2,2.37-.26,3.49l.96,.55-1.59,.92,1.71,.99,1.59-.92,8,4.61Zm14.38-8.3l2.29-1.33-12.81-7.39-2.28,1.31-1,3.3,2.16,1.24,.93-3.14,.15-.09,10.56,6.1Zm-.8-9.13c.82-.47,.79-1.17,.01-1.62-.79-.46-2-.47-2.81,0-.81,.47-.8,1.17-.01,1.63,.78,.45,2,.46,2.81,0Zm6.59,3.81c.82-.48,.8-1.17,.01-1.63-.79-.46-2-.47-2.81,.01-.81,.46-.8,1.16-.01,1.62,.79,.46,2,.46,2.81,0Zm10.98-3.99c3.04-1.76,2.31-4.32-1.83-6.71h-.02c-4.14-2.4-8.56-2.82-11.61-1.06-3.04,1.76-2.3,4.3,1.84,6.69h.02c4.14,2.4,8.55,2.84,11.6,1.08Zm-1.86-1.07c-1.63,.94-4.39,.42-7.43-1.33h-.02c-3.04-1.77-3.91-3.35-2.28-4.29,1.63-.95,4.4-.45,7.43,1.3h.02c3.04,1.77,3.92,3.37,2.28,4.32Zm13.95-5.92c3.05-1.75,2.31-4.31-1.83-6.7h-.01c-4.14-2.4-8.56-2.82-11.61-1.06-3.05,1.76-2.3,4.3,1.84,6.69h.02c4.13,2.4,8.55,2.83,11.59,1.07Zm-1.85-1.07c-1.64,.95-4.4,.43-7.44-1.32h0c-3.04-1.77-3.92-3.35-2.29-4.3,1.64-.94,4.4-.44,7.44,1.31h.02c3.03,1.77,3.91,3.37,2.28,4.31Z" style="fill:#fff;"/><g style="clip-path:url(#clippath-1);"><path d="M1071.23,1028.45l4.62,2.67h6.93m3.46-6c5.74,3.31,5.74,8.68,0,12-5.74,3.31-15.04,3.31-20.78,0-5.74-3.32-5.74-8.69,0-12,5.74-3.32,15.04-3.32,20.78,0Z" style="fill:none; stroke:#f09436; stroke-linecap:round; stroke-linejoin:round; stroke-width:2px;"/></g><path d="M1071.27,1070.75l1.53-.88-3.48-2.01,3.58-2.07-1.25-.72-3.58,2.07-2.53-1.46,3.92-2.26-1.28-.74-5.45,3.14,8.54,4.93Zm8.52-4.79c.85-.49,1.17-1.1,.9-1.66l.1-.06,.89,.51,1.45-.84-4.42-2.55c-1.37-.79-3.11-.72-4.77,.24-1.54,.89-1.86,1.91-.91,2.62l.04,.03,1.4-.8-.02-.02c-.28-.33-.08-.72,.59-1.11,.79-.46,1.57-.5,2.21-.12l.56,.32-1.56,1.02c-1.48,.96-1.69,1.86-.54,2.53h.02c1.17,.68,2.83,.6,4.06-.11Zm-2.68-.77h-.01c-.53-.31-.45-.71,.32-1.22l1.36-.89,.52,.3c.77,.44,.7,1.16-.19,1.67-.65,.38-1.45,.46-2,.14Zm10.37-3.64c1.59-.92,1.92-2.06,.69-2.77h-.01c-.94-.55-2.08-.52-3.63,.05l-1.28,.47c-.86,.31-1.36,.34-1.74,.12h-.01c-.48-.29-.33-.74,.33-1.12,.69-.4,1.45-.46,1.97-.28h.02l1.39-.8h-.02c-1.14-.55-2.86-.46-4.44,.45-1.52,.88-1.78,1.96-.62,2.63h.01c.95,.56,2.12,.55,3.62,0l1.29-.47c.87-.32,1.4-.34,1.78-.12h.01c.48,.29,.31,.77-.43,1.2-.73,.42-1.48,.49-2.08,.32h-.02l-1.46,.84h.01c1.22,.57,2.97,.43,4.62-.52Zm6.63-3.94c.28-.17,.53-.34,.7-.49l-1.13-.65c-.16,.11-.27,.18-.48,.3-.61,.35-1.14,.34-1.78-.03l-3.27-1.88,1.37-.79-1.14-.66-1.37,.79-1.59-.92-1.49,.87,1.58,.91-1,.58,1.14,.66,1.01-.58,3.61,2.09c1.25,.72,2.35,.65,3.84-.2Zm5.91-3.45l1.48-.85-5.33-3.08,1.38-.8-1.14-.65-1.41,.81-.55-.33c-.62-.35-.68-.7,.01-1.1,.21-.12,.4-.22,.53-.27l-1.03-.59c-.28,.11-.56,.25-.88,.43-1.43,.83-1.46,1.58-.17,2.32l.64,.37-1.06,.61,1.15,.66,1.06-.61,5.32,3.08Zm6.97-3.87c1.93-1.12,1.84-2.53-.25-3.74h-.01c-2.09-1.21-4.54-1.26-6.47-.14-1.92,1.11-1.84,2.53,.24,3.73h.01c2.09,1.22,4.53,1.27,6.48,.15Zm-1.2-.69c-1.02,.59-2.41,.47-3.77-.32h-.01c-1.36-.79-1.58-1.6-.56-2.19,1.02-.58,2.41-.46,3.77,.33h.01c1.36,.79,1.58,1.59,.56,2.18Zm5.66-2.04l1.47-.85-3.76-2.17c-.92-.53-.86-1.24,.12-1.81,.26-.15,.54-.27,.82-.38l-1.32-.76c-.18,.06-.44,.18-.67,.31-.85,.49-1.04,1.06-.56,1.59l-.1,.06-1-.57-1.47,.85,6.47,3.73Zm6.33-3.66l1.53-.88-3.43-3.43,.1-.06,5.95,1.98,1.54-.89-4.71-4.75-1.47,.85,3.79,3.42-.1,.06-6.11-2.08-1.41,.81,3.62,3.52-.1,.06-5.94-2.18-1.48,.85,8.22,2.72Zm10.42-5.89c.86-.49,1.18-1.1,.9-1.67l.1-.05,.89,.51,1.46-.84-4.42-2.55c-1.37-.79-3.11-.72-4.78,.24-1.53,.89-1.85,1.91-.91,2.62l.05,.03,1.39-.8-.02-.02c-.27-.33-.08-.72,.6-1.11,.79-.46,1.56-.5,2.21-.12l.56,.32-1.57,1.02c-1.48,.96-1.68,1.86-.53,2.53h.01c1.18,.68,2.83,.6,4.06-.11Zm-2.67-.77h-.01c-.54-.31-.45-.71,.32-1.22l1.36-.89,.52,.3c.77,.44,.69,1.16-.2,1.67-.65,.38-1.44,.46-1.99,.14Zm7.79-2.3l1.47-.85-3.76-2.17c-.92-.54-.86-1.25,.12-1.82,.26-.14,.53-.26,.82-.37l-1.32-.76c-.18,.05-.45,.17-.67,.3-.85,.49-1.04,1.07-.56,1.6l-.1,.05-1-.57-1.47,.85,6.47,3.74Zm7.32-4.1c.91-.53,1.19-1.17,.84-1.79l.1-.05,1.02,.58,1.48-.85-8.98-5.18-1.48,.85,3.54,2.04-.11,.06c-1.03-.21-2.21-.04-3.1,.48-1.64,.94-1.37,2.27,.69,3.46h.01c2.05,1.18,4.36,1.33,5.99,.4Zm-.79-.99c-1,.58-2.4,.48-3.7-.27h-.01c-1.31-.76-1.48-1.57-.48-2.15,1-.58,2.42-.48,3.72,.27h.01c1.3,.75,1.47,1.57,.46,2.15Z" style="fill:#616161;"/><line x1="1146.86" y1="988.12" x2="1171.97" y2="1002.62" style="fill:none; stroke:#3c3c3c;"/><g style="clip-path:url(#clippath-2);"><g><path d="M1207.06,955.37c5.74,3.31,5.74,8.69,0,12-5.74,3.31-15.05,3.31-20.79,0-5.74-3.31-5.74-8.69,0-12,5.74-3.31,15.05-3.31,20.79,0Z" style="fill:none; stroke:#f09436; stroke-linecap:round; stroke-linejoin:round; stroke-width:2px;"/><path d="M1190.89,962.04c-.64-.37-.64-.96,0-1.33l4.62-2.67c.64-.37,1.67-.37,2.31,0l4.62,2.67c.63,.37,.63,.97,0,1.33l-4.62,2.67c-.64,.37-1.67,.37-2.31,0l-4.62-2.67Z" style="fill:none; stroke:#f09436; stroke-linecap:round; stroke-linejoin:round; stroke-width:2px;"/></g></g><path d="M1218.07,986.01l5.53-3.19-1.29-.74-4,2.31-2.44-1.41,3.78-2.18-1.21-.7-3.79,2.18-2.31-1.34,4-2.31-1.28-.74-5.53,3.19,8.54,4.93Zm7.27-4.2l1.47-.85-3.77-2.18c-.97-.56-1.04-1.23-.16-1.74,.89-.52,1.81-.46,2.81,.12l3.85,2.22,1.47-.85-4.18-2.42c-1.54-.89-3.2-.94-4.65-.1-.93,.54-1.13,1.14-.75,1.72l-.1,.06-.99-.57-1.47,.85,6.47,3.73Zm9.85-5.56c.91-.53,1.2-1.17,.85-1.78l.1-.06,1.01,.59,1.48-.85-8.97-5.18-1.48,.85,3.53,2.04-.1,.06c-1.04-.21-2.22-.03-3.1,.48-1.64,.95-1.38,2.27,.68,3.46h.02c2.04,1.19,4.36,1.34,5.98,.4Zm-.78-.98c-1.01,.58-2.4,.48-3.71-.27h-.01c-1.3-.76-1.48-1.57-.48-2.15,1-.58,2.43-.48,3.73,.27h.01c1.29,.76,1.47,1.57,.46,2.15Z" style="fill:#616161;"/><g style="clip-path:url(#clippath-3);"><path d="M1264.5,918.21l6.93,4m-2.31-6.67l6.93,4m4.62-6.67c5.74,3.31,5.74,8.69,0,12-5.74,3.31-15.05,3.31-20.79,0-5.73-3.31-5.73-8.69,0-12,5.74-3.31,15.05-3.31,20.79,0Z" style="fill:none; stroke:#f09436; stroke-linecap:round; stroke-linejoin:round; stroke-width:2px;"/></g><path d="M1285.19,947.26l1.53-.88-2.83-1.63,1.88-1.09c1.74-1,1.76-2.34,.06-3.33h-.01c-1.72-.99-4.03-.98-5.77,.02l-3.41,1.97,8.55,4.93Zm-4.26-5.96c1.1-.63,2.32-.66,3.35-.07h.01c1.02,.6,.97,1.31-.12,1.94l-1.51,.87-3.24-1.87,1.51-.87Zm13.74,.61c.85-.49,1.17-1.1,.9-1.67l.1-.06,.89,.51,1.46-.84-4.43-2.55c-1.36-.79-3.1-.71-4.77,.25-1.54,.89-1.86,1.91-.91,2.62l.05,.04,1.39-.8-.02-.02c-.28-.33-.08-.72,.59-1.11,.8-.46,1.57-.5,2.22-.12l.55,.32-1.56,1.02c-1.48,.96-1.69,1.86-.53,2.53h.01c1.18,.69,2.83,.61,4.06-.1Zm-2.67-.77h-.02c-.53-.31-.45-.71,.32-1.22l1.37-.9,.52,.3c.77,.44,.69,1.16-.2,1.67-.65,.38-1.44,.46-1.99,.14Zm10.06-3.47c.94-.54,1.17-1.16,.78-1.74l.1-.06,.99,.57,1.47-.85-6.47-3.73-1.48,.85,3.78,2.18c.97,.56,1.07,1.21,.12,1.76-.89,.51-1.77,.43-2.77-.14l-3.85-2.22-1.47,.85,4.18,2.42c1.54,.89,3.16,.96,4.62,.12Zm7.71-4.45c1.6-.92,1.93-2.06,.7-2.77h-.01c-.95-.55-2.08-.52-3.63,.05l-1.28,.47c-.86,.31-1.36,.34-1.74,.12h-.01c-.48-.28-.33-.74,.33-1.12,.69-.4,1.45-.45,1.96-.28h.03s1.38-.79,1.38-.79h0c-1.14-.56-2.87-.47-4.44,.44-1.53,.88-1.79,1.96-.62,2.64h0c.96,.55,2.12,.55,3.63,0l1.28-.47c.87-.32,1.4-.34,1.78-.12h.02c.48,.29,.3,.77-.43,1.2-.74,.42-1.48,.49-2.09,.32h0s-1.47,.84-1.47,.84h.02c1.22,.57,2.97,.43,4.61-.52Zm7.01-4.04c1.76-1.02,1.61-2.1,.98-2.7l-.03-.04-1.41,.81,.03,.03c.15,.25,.1,.75-.7,1.21-1,.58-2.31,.55-3.48-.11l4.52-2.61-.49-.28c-1.95-1.13-4.38-1.22-6.22-.15-1.84,1.06-1.69,2.51,.35,3.69h.01c2.06,1.19,4.51,1.27,6.44,.15Zm-5.63-3.18c.83-.48,1.95-.52,3.11,.04l-3.07,1.77c-.92-.66-.86-1.34-.04-1.81Z" style="fill:#616161;"/><line x1="1321.8" y1="887.12" x2="1346.91" y2="901.62" style="fill:none; stroke:#3c3c3c;"/><g style="clip-path:url(#clippath-4);"><path d="M1388.93,845.04l11.54-6.67m-6.93,9.33l4.62-2.67m10.4,4.67h-9.24l-3.47,2c-1.27,.74-3.34,.74-4.62,0l-9.23-5.33c-1.28-.74-1.28-1.93,0-2.67l16.16-9.33c1.28-.74,3.35-.74,4.62,0l9.24,5.33c1.28,.74,1.28,1.93,0,2.67l-3.46,2v5.33Z" style="fill:none; stroke:#f09436; stroke-linecap:round; stroke-linejoin:round; stroke-width:2px;"/></g><path d="M1390.21,886.63l1.6-.92-1.5-1.68,3.16-1.83,2.93,.86,1.6-.92-11.58-3.18-1.72,.99,5.51,6.68Zm-3.11-6.23l.1-.06,4.72,1.4-2.4,1.38-2.42-2.72Zm14.3-.1c.91-.53,1.19-1.17,.84-1.78l.1-.06,1.01,.58,1.48-.85-8.97-5.18-1.48,.86,3.53,2.04-.1,.06c-1.03-.21-2.21-.03-3.1,.48-1.64,.95-1.37,2.27,.69,3.46h.01c2.05,1.19,4.36,1.34,5.99,.4Zm-.79-.98c-1,.58-2.4,.48-3.7-.27h-.01c-1.31-.76-1.48-1.57-.48-2.15,1-.58,2.42-.48,3.72,.27h.01c1.3,.76,1.47,1.57,.46,2.15Zm8.52-3.48c.91-.53,1.19-1.17,.84-1.78l.1-.06,1.02,.58,1.48-.85-8.98-5.18-1.48,.85,3.54,2.04-.1,.06c-1.04-.21-2.22-.04-3.11,.48-1.64,.95-1.37,2.27,.69,3.46h.01c2.05,1.19,4.36,1.34,5.99,.4Zm-.78-.98c-1.01,.58-2.41,.48-3.71-.27h-.01c-1.31-.76-1.48-1.57-.48-2.15,1-.58,2.43-.48,3.72,.27h.01c1.3,.76,1.47,1.57,.47,2.15Zm12.21-5.59c1.64-.95,1.71-2.01,.6-2.89l-.04-.04-1.38,.81v.02c.5,.5,.39,.97-.38,1.41-1,.58-2.4,.46-3.77-.34h-.02c-1.35-.79-1.55-1.59-.55-2.17,.81-.46,1.74-.48,2.5-.2h.03s1.39-.8,1.39-.8h-.03c-1.5-.69-3.42-.65-5.08,.31-1.95,1.12-1.84,2.51,.25,3.71h.01c2.11,1.23,4.52,1.29,6.47,.17Zm7.01-4.05c1.94-1.12,1.85-2.53-.24-3.74h-.02c-2.08-1.21-4.53-1.26-6.46-.14-1.93,1.11-1.84,2.53,.24,3.73h.01c2.09,1.22,4.53,1.27,6.47,.15Zm-1.19-.69c-1.03,.59-2.41,.47-3.77-.32h-.01c-1.37-.79-1.59-1.6-.56-2.19,1.02-.59,2.41-.46,3.77,.32h.01c1.36,.79,1.58,1.59,.56,2.18Zm5.66-2.04l1.47-.85-3.93-2.27c-.81-.47-.89-1.13-.16-1.55,.72-.42,1.61-.42,2.32,0l4.2,2.42,1.47-.85-4.04-2.34c-.74-.43-.82-1.04-.05-1.49,.79-.45,1.6-.43,2.44,.05l4.09,2.36,1.48-.85-4.46-2.57c-1.34-.77-2.92-.79-4.22-.03-.9,.52-1.19,1.22-.8,1.8l-.1,.06c-.99-.25-2.08-.14-2.96,.36-.84,.49-1.09,1.1-.64,1.68l-.1,.06-1.01-.58-1.47,.85,6.47,3.74Zm11.03-6.37l1.48-.85-3.94-2.27c-.8-.46-.89-1.13-.16-1.55,.72-.42,1.61-.42,2.33,0l4.19,2.42,1.48-.85-4.04-2.33c-.74-.43-.82-1.05-.05-1.49,.79-.46,1.6-.43,2.44,.05l4.09,2.36,1.47-.85-4.45-2.57c-1.34-.78-2.92-.79-4.23-.03-.9,.52-1.18,1.22-.79,1.8l-.1,.06c-1-.25-2.08-.14-2.96,.36-.85,.49-1.09,1.1-.65,1.68l-.1,.06-1-.58-1.48,.85,6.47,3.73Zm13.94-7.9c1.76-1.01,1.61-2.1,.98-2.7l-.03-.04-1.41,.81,.03,.03c.15,.25,.1,.75-.7,1.21-1,.58-2.3,.55-3.48-.11l4.52-2.61-.48-.28c-1.96-1.13-4.39-1.22-6.23-.15-1.84,1.06-1.68,2.51,.35,3.69h.01c2.06,1.19,4.52,1.26,6.44,.15Zm-5.62-3.18c.82-.47,1.94-.52,3.1,.04l-3.07,1.77c-.92-.66-.86-1.34-.03-1.81Zm9.87,.58l1.47-.85-3.77-2.18c-.97-.56-1.04-1.23-.16-1.74,.89-.52,1.81-.46,2.82,.12l3.84,2.22,1.47-.85-4.18-2.42c-1.54-.89-3.2-.94-4.65-.1-.93,.54-1.13,1.14-.75,1.72l-.1,.06-.99-.57-1.47,.85,6.47,3.74Zm9.99-5.73c.28-.16,.53-.33,.7-.48l-1.13-.66c-.16,.11-.27,.18-.48,.3-.61,.36-1.14,.35-1.79-.03l-3.26-1.88,1.37-.79-1.14-.66-1.37,.79-1.59-.92-1.5,.87,1.59,.92-1,.58,1.14,.66,1-.58,3.62,2.09c1.24,.72,2.35,.66,3.84-.2Z" style="fill:#616161;"/><line x1="1474.23" y1="799.13" x2="1499.34" y2="813.63" style="fill:none; stroke:#3c3c3c;"/><line x1="1652.63" y1="696.14" x2="1677.74" y2="710.64" style="fill:none; stroke:#3c3c3c;"/><g style="clip-path:url(#clippath-5);"><path d="M1710.23,664.89l-8.66,5m17.32-10c7.17,4.14,7.17,10.86,0,15-7.18,4.14-18.81,4.14-25.98,0-7.18-4.14-7.18-10.86,0-15,7.17-4.14,18.8-4.14,25.98,0Z" style="fill:none; stroke:#f09436; stroke-linecap:round; stroke-linejoin:round; stroke-width:2px;"/></g><path d="M1735.67,653.7l-7.36-4.25,1.79-1.03,7.36,4.25-1.79,1.03Zm6.61-3.82l-2.82-1.63c-.15-.08-.3-.16-.46-.22-.15-.06-.31-.11-.46-.13-.16-.03-.32-.03-.48,0-.16,.02-.31,.07-.47,.16-.15,.09-.25,.18-.31,.29-.05,.1-.07,.2-.04,.3,.03,.1,.09,.21,.19,.31,.1,.1,.22,.19,.36,.27l2.81,1.62-1.72,.99-5.17-2.99,1.65-.95,.72,.41h.02c-.05-.11-.08-.22-.08-.34-.01-.12,.01-.25,.07-.37,.06-.12,.15-.25,.26-.37s.25-.23,.43-.34c.35-.2,.71-.33,1.07-.4,.37-.07,.73-.09,1.08-.05,.34,.02,.67,.09,.99,.2,.33,.11,.62,.24,.88,.38l3.2,1.85-1.72,.99Zm2.4-5.6c-.27,0-.54,.03-.82,.09-.27,.06-.52,.14-.72,.26-.16,.09-.28,.2-.36,.31-.07,.11-.02,.21,.13,.3,.14,.08,.32,.1,.53,.05,.21-.05,.52-.15,.93-.3,.24-.09,.49-.17,.76-.23,.28-.07,.56-.12,.84-.14,.29-.02,.57,0,.85,.04,.27,.05,.54,.14,.79,.29,.32,.19,.53,.39,.63,.59,.09,.2,.1,.41,.02,.61-.07,.2-.2,.39-.41,.58-.2,.19-.43,.36-.69,.51-.42,.24-.91,.45-1.45,.61-.54,.15-1.07,.23-1.61,.23l-.05-1.13c.32,0,.65-.02,.98-.08,.33-.06,.62-.17,.87-.31,.14-.08,.24-.18,.31-.29,.07-.12,.02-.23-.14-.32-.16-.09-.36-.11-.61-.06-.24,.05-.58,.16-1.01,.31-.23,.08-.46,.15-.71,.22s-.51,.1-.77,.12c-.26,.01-.52,0-.78-.05-.26-.05-.52-.14-.76-.28-.31-.18-.51-.37-.59-.57-.09-.2-.1-.41-.03-.61,.07-.2,.2-.39,.38-.57,.19-.19,.41-.35,.66-.5,.39-.22,.83-.41,1.32-.55,.49-.15,.98-.23,1.48-.23l.03,1.1Zm3.46-2.28l1.98,1.14c.24,.14,.47,.22,.68,.24,.22,.01,.45-.05,.69-.19,.08-.05,.16-.1,.24-.16,.08-.06,.14-.12,.17-.17l1.27,.71c-.07,.09-.19,.2-.34,.32-.15,.12-.31,.24-.49,.34-.35,.2-.68,.34-1,.43-.32,.08-.64,.12-.94,.11-.31-.02-.6-.07-.89-.16-.29-.1-.57-.22-.85-.38l-2.18-1.26-.83,.48-1.28-.74,.82-.47-1.36-.79,1.67-.97,1.36,.79,1.22-.7,1.28,.74-1.22,.7Zm6.72-1.98l-.22,.13c-.19,.11-.37,.22-.54,.35-.18,.12-.31,.23-.42,.35-.09,.11-.14,.22-.14,.34-.01,.11,.06,.21,.21,.29,.1,.06,.21,.09,.32,.11,.11,.01,.23,.01,.34,0s.22-.04,.33-.08c.11-.04,.2-.09,.28-.14,.35-.2,.52-.41,.51-.62,0-.22-.17-.42-.5-.61l-.17-.1Zm-5.35,.53c.02-.34,.15-.67,.41-.99,.26-.32,.61-.6,1.03-.85,.44-.25,.86-.43,1.27-.54,.41-.12,.82-.16,1.23-.14,.41,.02,.83,.11,1.26,.26,.43,.14,.88,.35,1.35,.62l2.61,1.51-1.56,.9-.55-.32-.03,.02c.08,.2,.05,.41-.1,.64-.15,.22-.38,.42-.69,.6-.21,.12-.45,.23-.73,.32-.27,.1-.57,.16-.88,.2-.31,.03-.62,.02-.95-.03-.32-.05-.64-.17-.94-.34-.38-.22-.58-.45-.61-.7-.02-.25,.07-.51,.26-.76,.21-.26,.48-.52,.84-.77,.35-.25,.71-.49,1.09-.7l-.09-.05c-.25-.15-.53-.2-.83-.17-.3,.03-.59,.12-.85,.28-.24,.14-.43,.31-.55,.5-.12,.19-.18,.37-.2,.55l-1.79-.04Zm13.83-2.82l-2.83-1.63c-.14-.08-.29-.16-.45-.22-.16-.06-.31-.11-.46-.13-.16-.03-.32-.03-.48,0-.16,.02-.31,.07-.47,.16-.15,.09-.25,.18-.31,.29-.05,.1-.07,.2-.04,.3s.09,.21,.19,.31c.09,.1,.22,.19,.36,.27l2.81,1.62-1.72,.99-5.17-2.99,1.65-.95,.72,.41h.02c-.05-.11-.08-.22-.09-.34,0-.12,.02-.25,.08-.37,.06-.12,.15-.25,.26-.37s.25-.23,.43-.34c.35-.2,.71-.33,1.07-.4,.37-.07,.73-.09,1.07-.05,.35,.02,.68,.09,1,.2,.33,.11,.62,.24,.87,.38l3.21,1.85-1.72,.99Zm.96-5.05l1.97,1.14c.25,.14,.48,.22,.69,.24,.21,.01,.44-.05,.69-.19,.08-.05,.16-.1,.23-.16,.09-.06,.15-.12,.18-.17l1.27,.71c-.08,.09-.19,.2-.34,.32-.15,.12-.31,.24-.49,.34-.35,.2-.68,.34-1,.43-.33,.08-.64,.12-.95,.11-.3-.02-.59-.07-.88-.16-.29-.1-.57-.22-.85-.38l-2.18-1.26-.83,.48-1.28-.74,.82-.47-1.36-.79,1.67-.97,1.36,.79,1.22-.7,1.28,.74-1.22,.7Z" style="fill:#fff;"/><g style="clip-path:url(#clippath-6);"><path d="M1788.17,614.89l4.33,2.5m0,0l4.33,2.5m-4.33-2.5l4.33-2.5m-4.33,2.5l-4.33,2.5m17.32-10c7.18,4.14,7.18,10.86,0,15-7.17,4.14-18.8,4.14-25.98,0-7.17-4.14-7.17-10.86,0-15,7.18-4.14,18.81-4.14,25.98,0Z" style="fill:none; stroke:#f09436; stroke-linecap:round; stroke-linejoin:round; stroke-width:2px;"/></g><path d="M1743.29,686.8l1.52-.88-7.26-4.19,2.64-1.52-1.29-.74-6.79,3.92,1.29,.74,2.63-1.52,7.26,4.19Zm4.84-2.8l1.48-.85-3.76-2.17c-.92-.53-.87-1.24,.12-1.81,.25-.15,.53-.27,.81-.38l-1.32-.76c-.18,.06-.44,.17-.66,.3-.86,.49-1.04,1.07-.57,1.6l-.1,.06-.99-.57-1.48,.85,6.47,3.74Zm6.84-3.82c.85-.49,1.17-1.1,.9-1.67l.1-.06,.88,.51,1.46-.84-4.42-2.55c-1.37-.79-3.11-.71-4.77,.25-1.54,.89-1.86,1.91-.91,2.62l.04,.03,1.39-.8v-.02c-.29-.33-.1-.72,.58-1.11,.79-.46,1.57-.49,2.21-.12l.56,.32-1.56,1.02c-1.48,.96-1.69,1.86-.54,2.53h.01c1.18,.69,2.83,.61,4.07-.1Zm-2.68-.77h-.01c-.53-.31-.45-.71,.32-1.22l1.36-.9,.52,.3c.77,.44,.69,1.16-.19,1.67-.66,.38-1.45,.46-2,.14Zm7.79-2.3l1.48-.85-3.78-2.18c-.97-.56-1.04-1.23-.16-1.74,.89-.52,1.81-.46,2.82,.12l3.84,2.22,1.47-.85-4.18-2.42c-1.54-.89-3.2-.94-4.64-.1-.94,.54-1.14,1.14-.76,1.72l-.1,.06-.99-.57-1.47,.85,6.47,3.74Zm9.99-5.61c1.59-.92,1.92-2.06,.69-2.77h-.01c-.94-.55-2.08-.52-3.63,.05l-1.28,.47c-.86,.31-1.36,.34-1.74,.12h0c-.49-.28-.34-.74,.32-1.12,.69-.4,1.45-.45,1.97-.28h.02s1.39-.79,1.39-.79h-.02c-1.14-.56-2.86-.47-4.44,.45-1.52,.88-1.78,1.96-.62,2.64h.01c.95,.55,2.12,.55,3.62,0l1.29-.47c.87-.32,1.4-.34,1.78-.12h.01c.48,.29,.31,.77-.43,1.2-.73,.42-1.48,.49-2.08,.32h-.02s-1.46,.84-1.46,.84h.01c1.22,.57,2.97,.43,4.62-.52Zm-2.7-7.32c.48-.28,.5-.73,.01-1.01-.48-.28-1.27-.27-1.75,0-.48,.28-.49,.73-.01,1.01,.49,.28,1.27,.27,1.75,0Zm6.82,4.79l1.47-.85-6.47-3.74-1.47,.85,6.47,3.74Zm5.86-3.35c.28-.16,.53-.33,.7-.48l-1.13-.66c-.16,.11-.27,.18-.48,.3-.61,.36-1.14,.34-1.78-.03l-3.27-1.88,1.37-.79-1.14-.66-1.37,.79-1.58-.92-1.5,.86,1.58,.92-1,.58,1.14,.66,1.01-.58,3.61,2.09c1.25,.72,2.35,.66,3.84-.2Zm-4.59-6.11c.48-.28,.49-.73,.01-1.01-.48-.28-1.27-.27-1.75,0-.48,.28-.49,.73-.01,1.01,.48,.28,1.27,.27,1.75,0Zm6.82,4.79l1.47-.85-6.47-3.74-1.47,.85,6.47,3.74Zm6.21-3.43c1.93-1.12,1.84-2.53-.25-3.74h-.01c-2.09-1.21-4.54-1.26-6.47-.14-1.92,1.11-1.84,2.53,.24,3.73h.01c2.1,1.22,4.53,1.27,6.48,.15Zm-1.2-.69c-1.02,.59-2.41,.47-3.77-.32h-.01c-1.36-.79-1.58-1.6-.56-2.19,1.02-.59,2.41-.46,3.77,.32h.01c1.37,.79,1.58,1.59,.56,2.18Zm5.66-2.04l1.47-.85-3.77-2.18c-.97-.56-1.04-1.23-.16-1.74,.89-.52,1.81-.46,2.82,.12l3.84,2.22,1.47-.85-4.18-2.42c-1.54-.89-3.2-.94-4.65-.1-.93,.54-1.13,1.14-.75,1.72l-.1,.06-.99-.57-1.47,.85,6.47,3.73Zm13.22-7.6c.28-.16,.53-.34,.7-.48l-1.13-.66c-.16,.11-.27,.18-.48,.3-.61,.36-1.14,.35-1.78-.03l-3.27-1.88,1.37-.79-1.14-.66-1.37,.79-1.58-.92-1.5,.86,1.58,.92-1,.58,1.14,.66,1.01-.58,3.61,2.08c1.25,.72,2.35,.66,3.84-.2Zm-4.59-6.11c.48-.28,.49-.73,.01-1.01-.48-.28-1.27-.27-1.75,0-.48,.28-.49,.73-.01,1.01,.48,.28,1.27,.27,1.75,0Zm6.82,4.79l1.47-.85-6.47-3.73-1.47,.85,6.47,3.73Zm3.28-1.9l1.48-.85-3.94-2.27c-.81-.46-.89-1.13-.16-1.55,.72-.42,1.61-.42,2.33,0l4.19,2.42,1.48-.85-4.05-2.33c-.74-.43-.81-1.05-.04-1.49,.78-.46,1.59-.43,2.44,.05l4.09,2.36,1.47-.85-4.45-2.57c-1.35-.78-2.93-.79-4.23-.03-.9,.52-1.18,1.22-.79,1.8l-.1,.06c-1-.25-2.09-.14-2.96,.36-.85,.49-1.09,1.1-.65,1.68l-.1,.06-1-.58-1.48,.85,6.47,3.74Zm13.94-7.9c1.76-1.02,1.61-2.1,.98-2.7l-.03-.04-1.41,.81,.03,.03c.15,.25,.1,.75-.7,1.21-1,.58-2.31,.55-3.48-.11l4.52-2.61-.49-.28c-1.95-1.13-4.38-1.22-6.22-.15s-1.69,2.51,.35,3.69h.01c2.06,1.19,4.51,1.26,6.44,.15Zm-5.63-3.18c.83-.47,1.95-.52,3.11,.04l-3.07,1.77c-.92-.66-.86-1.34-.04-1.81Z" style="fill:#616161;"/><path d="M1877.23,567.98c1.33,.77,1.31,2.03-.04,2.81-1.36,.78-3.53,.79-4.86,.02-1.34-.77-1.32-2.03,.03-2.81,1.36-.78,3.53-.79,4.87-.02Z" style="fill:none; stroke:#f09436; stroke-linecap:round; stroke-linejoin:round; stroke-width:2px;"/><path d="M1866.98,573.89c-2.22-2.48-1.49-5.64,2.17-7.75,3.65-2.11,9.12-2.53,13.42-1.25,2.22,2.48,1.49,5.64-2.16,7.75-3.66,2.11-9.12,2.53-13.43,1.25Z" style="fill:none; stroke:#f09436; stroke-linecap:round; stroke-linejoin:round; stroke-width:2px;"/><path d="M1870.01,582.64c-.48-.28-1.25-.28-1.73,0s-.48,.72,0,1l1.73-1Zm8.66,1c.48-.28,.48-.72,0-1-.47-.28-1.25-.28-1.73,0l1.73,1Zm-10.39,0l1.73,1,1.74-1-1.74-1-1.73,1Zm8.66,1l1.73-1-1.73-1-1.73,1,1.73,1Zm-6.93,0c1.92,1.1,5.02,1.1,6.93,0l-1.73-1c-.96,.55-2.51,.55-3.46,0l-1.74,1Z" style="fill:#f09436;"/><path d="M1880.41,556.65c.47,.28,1.25,.28,1.73,0,.48-.28,.48-.72,0-1l-1.73,1Zm-8.66-1c-.48,.28-.48,.72,0,1,.47,.28,1.25,.28,1.73,0l-1.73-1Zm10.39,0l-1.73-1-1.74,1,1.74,1,1.73-1Zm-8.66-1l-1.73,1,1.73,1,1.73-1-1.73-1Zm6.93,0c-1.92-1.1-5.02-1.1-6.93,0l1.73,1c.96-.55,2.51-.55,3.46,0l1.74-1Z" style="fill:#f09436;"/><path d="M1897.73,570.65c-.48,.28-.48,.72,0,1,.47,.28,1.25,.28,1.73,0l-1.73-1Zm1.73-5c-.48-.28-1.26-.28-1.73,0-.48,.28-.48,.72,0,1l1.73-1Zm0,6l1.73-1-1.73-1-1.73,1,1.73,1Zm1.73-5l-1.73-1-1.73,1,1.73,1,1.73-1Zm0,4c1.91-1.1,1.91-2.9,0-4l-1.73,1c.96,.55,.96,1.45,0,2l1.73,1Z" style="fill:#f09436;"/><path d="M1852.69,568.65c.48-.28,.48-.72,0-1s-1.25-.28-1.73,0l1.73,1Zm-1.73,5c.48,.28,1.25,.28,1.73,0,.48-.28,.48-.72,0-1l-1.73,1Zm0-6l-1.73,1,1.73,1,1.73-1-1.73-1Zm-1.73,5l1.73,1,1.73-1-1.73-1-1.73,1Zm0-4c-1.92,1.1-1.92,2.9,0,4l1.73-1c-.96-.55-.96-1.45,0-2l-1.73-1Z" style="fill:#f09436;"/><path d="M1887.95,603.28l1.53-.88-2.82-1.63,1.88-1.09c1.74-1,1.76-2.34,.05-3.32h-.01c-1.71-.99-4.02-.98-5.76,.02l-3.41,1.97,8.54,4.93Zm-4.25-5.96c1.09-.63,2.32-.66,3.34-.07h.01c1.03,.6,.98,1.31-.11,1.94l-1.51,.87-3.24-1.87,1.51-.87Zm12.1,1.43l1.48-.85-3.76-2.17c-.92-.53-.86-1.24,.12-1.81,.25-.15,.53-.27,.82-.38l-1.33-.76c-.18,.06-.44,.17-.66,.3-.86,.49-1.04,1.07-.57,1.6l-.1,.06-.99-.57-1.48,.85,6.47,3.73Zm7.78-4.34c1.76-1.02,1.61-2.1,.99-2.7l-.04-.04-1.4,.81,.02,.03c.16,.25,.1,.75-.7,1.21-1,.58-2.3,.55-3.48-.11l4.53-2.61-.49-.28c-1.95-1.13-4.38-1.22-6.22-.15s-1.69,2.51,.35,3.69h0c2.06,1.19,4.52,1.26,6.44,.15Zm-5.62-3.19c.82-.47,1.95-.52,3.11,.04l-3.07,1.77c-.92-.66-.86-1.34-.04-1.81Zm11.46-.33l1.62-.93-4.18-5.06-1.55,.9,3.54,3.76-.1,.06-6.53-2.04-1.57,.91,8.77,2.41Zm-1.64-7.77c.48-.28,.49-.73,0-1.01-.48-.28-1.27-.27-1.74,0-.49,.28-.5,.73-.02,1.01,.49,.28,1.27,.27,1.76,0Zm6.81,4.79l1.47-.85-6.47-3.74-1.47,.85,6.47,3.74Zm6.19-3.42c1.75-1.02,1.61-2.1,.98-2.7l-.04-.04-1.4,.81,.02,.03c.16,.25,.1,.75-.69,1.21-1,.58-2.31,.55-3.49-.11l4.53-2.61-.49-.28c-1.95-1.13-4.38-1.22-6.22-.15-1.84,1.06-1.69,2.51,.35,3.69h.01c2.06,1.19,4.51,1.26,6.44,.15Zm-5.63-3.19c.83-.47,1.95-.52,3.11,.04l-3.07,1.77c-.92-.66-.86-1.34-.04-1.81Zm11.03-.08l1.52-.88-3.43-3.43,.1-.06,5.95,1.98,1.54-.89-4.71-4.75-1.47,.85,3.79,3.42-.1,.06-6.11-2.08-1.41,.81,3.62,3.52-.1,.06-5.94-2.18-1.48,.85,8.23,2.72Z" style="fill:#616161;"/></g><g style="opacity:.5;"><g style="clip-path:url(#clippath-7);"><g><path d="M1974.27,511.21l-6.93,.8c-1.43,.17-1.97,1.19-.93,1.79l5.53,3.2c1.04,.6,2.82,.29,3.1-.54l1.39-4c.26-.74-.88-1.4-2.16-1.25Z" style="fill:none; stroke:#616161; stroke-linecap:round; stroke-linejoin:round; stroke-width:2px;"/><path d="M1983.46,507.15c6.46,3.73,6.46,9.77,0,13.5-6.45,3.73-16.92,3.73-23.38,0-6.46-3.73-6.46-9.77,0-13.5,6.46-3.73,16.93-3.73,23.38,0Z" style="fill:none; stroke:#616161; stroke-linecap:round; stroke-linejoin:round; stroke-width:2px;"/></g></g><path d="M1994.63,539.95c2.04-1.18,2.29-2.53,.62-3.49h0c-1.29-.75-2.77-.73-4.95,.09l-1.11,.42c-1.29,.49-2.1,.52-2.7,.17h-.01c-.73-.42-.5-1.07,.45-1.62,.97-.57,2.08-.66,2.85-.34l.08,.03,1.46-.84-.08-.04c-1.48-.73-3.69-.65-5.59,.44-1.85,1.07-2.13,2.42-.6,3.3h0c1.28,.74,2.85,.77,4.96-.02l1.11-.42c1.34-.5,2.16-.54,2.77-.18h.01c.73,.43,.52,1.14-.51,1.73-1.08,.62-2.32,.79-3.11,.42l-.06-.03-1.48,.85,.08,.04c1.58,.79,3.82,.63,5.81-.52Zm7.58-4.47c1.76-1.02,1.61-2.1,.98-2.7l-.03-.04-1.41,.81,.03,.03c.15,.25,.1,.75-.7,1.21-1,.58-2.3,.55-3.48-.11l4.52-2.61-.48-.28c-1.96-1.13-4.39-1.22-6.23-.15-1.84,1.06-1.68,2.51,.35,3.69h.01c2.06,1.19,4.52,1.26,6.44,.15Zm-5.62-3.18c.82-.48,1.94-.52,3.1,.04l-3.07,1.77c-.92-.66-.86-1.34-.03-1.81Zm9.87,.58l1.47-.85-3.77-2.18c-.97-.56-1.04-1.23-.16-1.74,.89-.52,1.81-.46,2.82,.12l3.84,2.22,1.47-.85-4.18-2.42c-1.54-.89-3.2-.94-4.64-.1-.94,.54-1.14,1.14-.76,1.72l-.1,.06-.99-.57-1.47,.85,6.47,3.74Zm9.85-5.56c.91-.53,1.2-1.17,.85-1.78l.1-.06,1.01,.58,1.48-.85-8.97-5.18-1.48,.85,3.53,2.04-.1,.06c-1.04-.21-2.21-.04-3.1,.48-1.64,.95-1.38,2.27,.68,3.46h.02c2.04,1.19,4.36,1.34,5.98,.4Zm-.78-.98c-1.01,.58-2.4,.48-3.71-.27h-.01c-1.3-.76-1.48-1.57-.48-2.15,1-.58,2.43-.48,3.73,.27h.01c1.3,.76,1.47,1.57,.46,2.15Z" style="fill:#616161;"/></g></g></g></svg>