<?xml version="1.0" encoding="UTF-8"?><svg id="NavigationBar" xmlns="http://www.w3.org/2000/svg" xmlns:xlink="http://www.w3.org/1999/xlink" viewBox="0 0 2287.04 1197.27"><defs><mask id="mask" x="1153.72" y="13.9" width="27.88" height="16.1" maskUnits="userSpaceOnUse"/><clipPath id="clippath"><polygon points="324.58 529.65 352.3 513.65 380.01 529.65 352.3 545.65 324.58 529.65" style="fill:none;"/></clipPath><clipPath id="clippath-1"><polygon points="366.15 505.65 393.87 489.65 421.58 505.65 393.87 521.65 366.15 505.65" style="fill:none;"/></clipPath></defs><polygon points=".68 683.64 1183.7 .68 1247.79 37.68 64.77 720.64 .68 683.64" style="fill:#131316;"/><line x1=".25" y1="683.39" x2="1183.27" y2=".43" style="fill:none; stroke:#c0c2c8;"/><path d="M1102.9,54.95c.09,.13,.29,.25,.7,.48l6.06,3.5c.4,.23,.6,.35,.83,.4,.3,.07,.64,.07,.94,0,.22-.05,.42-.17,.83-.4,.4-.23,.6-.35,.69-.48,.13-.17,.13-.37,0-.54-.09-.13-.29-.25-.69-.48l-6.07-3.5c-.4-.23-.6-.35-.83-.4-.3-.07-.63-.07-.93,0-.23,.05-.43,.17-.83,.4-.41,.23-.61,.35-.7,.48-.13,.17-.13,.37,0,.54Zm-1.47,3.73c-.4-.23-.6-.35-.7-.48-.12-.17-.12-.37,0-.54,.1-.13,.3-.25,.7-.48,.4-.23,.61-.35,.83-.4,.3-.07,.64-.07,.94,0,.22,.05,.43,.17,.83,.4l4.33,2.5c.4,.23,.6,.35,.7,.48,.12,.17,.12,.37,0,.54-.1,.13-.3,.25-.7,.48-.4,.23-.61,.35-.83,.4-.3,.07-.64,.07-.94,0-.22-.05-.43-.17-.83-.4l-4.33-2.5Zm-2.86,2.77c.09,.13,.29,.25,.7,.48l2.59,1.5c.41,.23,.61,.35,.83,.4,.3,.07,.64,.07,.94,0,.23-.05,.43-.17,.83-.4,.41-.23,.61-.35,.7-.48,.12-.17,.12-.37,0-.54-.09-.13-.29-.25-.7-.48l-2.6-1.5c-.4-.23-.6-.35-.83-.4-.3-.07-.63-.07-.93,0-.23,.05-.43,.17-.83,.4-.41,.23-.61,.35-.7,.48-.13,.17-.13,.37,0,.54Zm-2.6,3c.09,.13,.29,.25,.7,.48l1.3,.75c.4,.23,.6,.35,.83,.4,.3,.07,.63,.07,.93,0,.23-.05,.43-.17,.83-.4,.41-.23,.61-.35,.7-.48,.13-.17,.13-.37,0-.54-.09-.13-.29-.25-.7-.48l-1.29-.75c-.41-.23-.61-.35-.83-.4-.3-.07-.64-.07-.94,0-.23,.05-.43,.17-.83,.4-.41,.23-.61,.35-.7,.48-.13,.17-.13,.37,0,.54Z" style="fill:#fff; fill-rule:evenodd;"/><path d="M1123.06,46.69c.19,0,.34-.09,.34-.2v-1.06c0-.11-.16-.21-.36-.21-3.05,.05-6.08,.74-8.4,2.09-2.33,1.34-3.54,3.09-3.62,4.85,0,.11,.16,.21,.36,.21h1.84c.19,0,.34-.09,.35-.2,.08-1.39,1.03-2.77,2.87-3.82,1.83-1.06,4.21-1.61,6.62-1.65Zm0,2.45c.19,0,.34-.09,.34-.2v-1.06c0-.12-.17-.21-.37-.21-1.96,.05-3.9,.5-5.4,1.37-1.49,.87-2.28,1.98-2.37,3.12-.01,.12,.16,.21,.36,.21h1.84c.19,0,.34-.09,.35-.2,.08-.76,.62-1.51,1.62-2.09,1.01-.58,2.31-.89,3.63-.94Zm-.03,.98c.2-.01,.37,.09,.37,.2v1.84c0,.11-.16,.2-.35,.2h-3.19c-.2,0-.37-.1-.35-.21,.08-.51,.45-1,1.12-1.39,.67-.39,1.53-.6,2.4-.65Z" style="fill:#fff; fill-rule:evenodd;"/><path d="M1133.34,45.76l1.13-.66-7.32-4.23-1.14,.66-.55,1.9,1.11,.64,.53-1.82,.09-.05,6.15,3.55Zm5.88-3.19c1.69-.97,1.23-2.41-1.13-3.78h-.01c-2.36-1.37-4.85-1.63-6.54-.66-1.69,.98-1.23,2.41,1.13,3.77h.01c2.36,1.37,4.85,1.63,6.54,.66Zm-.94-.54c-.99,.57-2.66,.26-4.45-.77h-.01c-1.79-1.04-2.31-2-1.33-2.57,.98-.57,2.65-.27,4.44,.76h.01c1.79,1.04,2.32,2.01,1.34,2.58Zm7.6-3.3c1.69-.97,1.23-2.41-1.13-3.78h0c-2.36-1.37-4.85-1.63-6.53-.66-1.69,.98-1.24,2.41,1.12,3.77h.01c2.36,1.37,4.85,1.63,6.54,.66Zm-.94-.54c-.98,.57-2.66,.26-4.45-.77h-.01c-1.79-1.04-2.31-2-1.32-2.57,.97-.57,2.64-.27,4.44,.76h.01c1.79,1.04,2.31,2.01,1.33,2.58Zm2.9-4.73c.98-.57,.8-1.36-.43-2.07h0c-1.24-.71-2.6-.81-3.59-.24-.98,.57-.81,1.36,.42,2.07h0c1.24,.71,2.61,.82,3.6,.25Zm4.16,1.53l-2.36-7.09-.94,.55,2.35,7.09,.95-.55Zm-4.84-1.92c-.48,.28-1.25,.15-2.09-.33h0c-.84-.48-1.05-.92-.57-1.2,.49-.28,1.25-.16,2.08,.32h.01c.84,.49,1.05,.93,.57,1.21Zm9.71-.77c.98-.57,.81-1.36-.42-2.07h-.01c-1.23-.71-2.6-.81-3.58-.25-.99,.57-.82,1.36,.42,2.07h0c1.24,.71,2.61,.81,3.59,.25Zm-.68-.39c-.48,.28-1.25,.15-2.08-.33h-.01c-.83-.49-1.05-.93-.56-1.2,.48-.28,1.24-.16,2.08,.33h0c.83,.48,1.05,.93,.57,1.2Z" style="fill:#fff;"/><g style="opacity:.4;"><g style="mask:url(#mask);"><path d="M1171.04,15.04l.79,.54h0l-.79-.54Zm.97-.36l.38,.67h0l-.38-.67Zm1.7,0l.38-.67h0l-.38,.67Zm.97,.36l-.79,.54h0l.79-.54Zm4.94,2.85l-.93,.46h0l.93-.46Zm.62,.56l1.17-.22h0l-1.17,.22Zm0,.98l-1.16-.22h0l1.16,.22Zm-.62,.56l.94,.46h0l-.94-.46Zm-15.33,8.85l.79,.54h0l-.79-.54Zm-.97,.36l-.38-.67h0l.38,.67Zm-1.71,0l-.37,.67h0l.37-.67Zm-.97-.36l.8-.54h0l-.8,.54Zm-4.94-2.85l.93-.46h0l-.93,.46Zm-.62-.56l1.17-.22h0l-1.17,.22Zm0-.98l1.17,.22h0l-1.17-.22Zm.62-.56l.93,.46h0l-.93-.46Zm-1.78,1.76l1.16-.22-1.16,.22Zm0-1.42l1.16,.22-1.16-.22Zm17.71-10.22l-.38-.67h0l.38,.67Zm2.46,0l-.38,.67h0l.38-.67Zm7.32,4.23l-1.17,.22h0l1.17-.22Zm0,1.42l-1.17-.22h0l1.17,.22Zm-17.71,10.22l-.38-.67h0l.38,.67Zm-2.46,0l-.38,.67h0l.38-.67Zm16-15.4l-.62-.61-1.36,.46,1.12,.65,.86-.5Zm3.36,1.94l-.87,.5,1.12,.64,.8-.79-1.05-.36Zm-12.24-.87l-11.78,6.8,1.73,1,11.78-6.8-1.73-1Zm1.88-1.05c-.51,.25-1.1,.59-1.88,1.05l1.73,1c.81-.47,1.32-.76,1.74-.97l-1.59-1.08Zm1.39-.49c-.46,.09-.88,.24-1.39,.49l1.59,1.08c.39-.19,.53-.22,.56-.22l-.76-1.34Zm2.46,0c-.8-.15-1.66-.15-2.46,0l.76,1.34c.3-.06,.63-.06,.94,0l.76-1.34Zm1.39,.49c-.51-.25-.94-.41-1.39-.49l-.76,1.34s.17,.03,.56,.22l1.59-1.08Zm1.88,1.05c-.79-.45-1.38-.8-1.88-1.05l-1.59,1.08c.41,.2,.92,.5,1.74,.97l1.73-1Zm1.39,.8l-1.39-.8-1.73,1,1.39,.8,1.73-1Zm1.81,1.09c-.43-.29-1.02-.63-1.81-1.09l-1.73,1c.81,.47,1.32,.77,1.67,1l1.87-.92Zm.85,.8c-.15-.26-.42-.51-.85-.8l-1.87,.92c.33,.23,.38,.31,.39,.32l2.33-.44Zm0,1.42c.26-.46,.26-.96,0-1.42l-2.33,.44c.1,.18,.1,.37,0,.55l2.33,.44Zm-.85,.8c.43-.29,.7-.54,.85-.8l-2.33-.44s-.06,.1-.39,.32l1.87,.92Zm-1.81,1.09c.79-.45,1.38-.8,1.81-1.09l-1.87-.92c-.35,.24-.86,.53-1.67,1l1.73,1Zm-11.78,6.8l11.78-6.8-1.73-1-11.78,6.8,1.73,1Zm-1.89,1.05c.51-.25,1.1-.59,1.89-1.05l-1.73-1c-.82,.47-1.33,.76-1.74,.97l1.58,1.08Zm-1.38,.49c.45-.09,.88-.24,1.38-.49l-1.58-1.08c-.39,.19-.54,.22-.56,.22l.76,1.34Zm-2.46,0c.8,.15,1.66,.15,2.46,0l-.76-1.34c-.31,.06-.64,.06-.95,0l-.75,1.34Zm-1.39-.49c.51,.25,.93,.41,1.39,.49l.75-1.34s-.16-.03-.55-.22l-1.59,1.08Zm-1.89-1.05c.79,.45,1.38,.8,1.89,1.05l1.59-1.08c-.42-.2-.93-.5-1.74-.97l-1.74,1Zm-1.38-.8l1.38,.8,1.74-1-1.39-.8-1.73,1Zm-1.81-1.09c.43,.29,1.02,.63,1.81,1.09l1.73-1c-.82-.47-1.32-.77-1.68-1l-1.86,.92Zm-.85-.8c.15,.26,.42,.51,.85,.8l1.86-.92c-.33-.23-.38-.31-.38-.32l-2.33,.44Zm0-1.42c-.26,.46-.26,.96,0,1.42l2.33-.44c-.1-.18-.1-.37,0-.55l-2.33-.44Zm.85-.8c-.43,.29-.7,.54-.85,.8l2.33,.44s.05-.1,.38-.32l-1.86-.92Zm1.81-1.09c-.79,.45-1.38,.8-1.81,1.09l1.86,.92c.36-.24,.86-.53,1.68-1l-1.73-1Zm-3.83,3.53c.22,.39,.6,.71,1.08,1.04,.47,.32,1.11,.68,1.88,1.13l1.73-1c-.8-.46-1.35-.78-1.74-1.05-.38-.26-.54-.42-.62-.56l-2.33,.44Zm0-1.86c-.34,.6-.34,1.25,0,1.86l2.33-.44c-.18-.32-.18-.66,0-.98l-2.33-.44Zm2.96-2.17c-.77,.45-1.41,.81-1.88,1.13-.48,.33-.86,.65-1.08,1.04l2.33,.44c.08-.14,.24-.3,.62-.56,.39-.27,.94-.58,1.74-1.05l-1.73-1Zm11.78-6.8l-11.78,6.8,1.73,1,11.78-6.8-1.73-1Zm3.76-1.71c-.67,.13-1.23,.35-1.8,.62-.55,.27-1.19,.64-1.96,1.08l1.73,1c.8-.46,1.35-.78,1.82-1.01,.44-.22,.73-.31,.97-.36l-.76-1.34Zm3.22,0c-1.05-.2-2.17-.2-3.22,0l.76,1.34c.55-.1,1.15-.1,1.7,0l.76-1.34Zm3.76,1.71c-.78-.45-1.41-.81-1.96-1.08-.57-.28-1.13-.5-1.8-.62l-.76,1.34c.24,.04,.52,.14,.97,.36,.46,.23,1.01,.54,1.82,1.01l1.73-1Zm1.38,.8l-1.38-.8-1.73,1,1.38,.8,1.73-1Zm2.96,2.17c-.21-.39-.6-.71-1.08-1.04-.47-.32-1.1-.68-1.88-1.13l-1.73,1c.8,.46,1.35,.78,1.74,1.05,.39,.26,.55,.42,.62,.56l2.33-.44Zm0,1.86c.34-.6,.34-1.25,0-1.86l-2.33,.44c.18,.32,.18,.66,0,.98l2.33,.44Zm-2.96,2.17c.78-.45,1.41-.81,1.88-1.13,.48-.33,.87-.65,1.08-1.04l-2.33-.44c-.07,.14-.23,.3-.62,.56-.39,.27-.94,.58-1.74,1.05l1.73,1Zm-11.77,6.8l11.77-6.8-1.73-1-11.78,6.8,1.74,1Zm-3.77,1.71c.67-.13,1.24-.35,1.81-.62,.55-.27,1.18-.64,1.96-1.08l-1.74-1c-.8,.46-1.35,.78-1.81,1.01-.45,.22-.73,.31-.97,.36l.75,1.35Zm-3.21,0c1.04,.2,2.17,.2,3.21,0l-.75-1.35c-.56,.1-1.15,.1-1.71,0l-.75,1.35Zm-3.76-1.71c.77,.45,1.4,.81,1.96,1.08,.56,.28,1.13,.5,1.8,.62l.75-1.35c-.23-.04-.52-.14-.97-.36-.46-.23-1.01-.54-1.81-1.01l-1.73,1Zm-1.39-.8l1.39,.8,1.73-1-1.39-.8-1.73,1Zm22.16-12.96c.47-.16,1.08-.12,1.48,.11l1.74-1c-1.22-.7-3.06-.81-4.47-.33l1.25,1.22Zm3.59,.83l-3.35-1.94-1.73,1,3.35,1.94,1.73-1Zm-2.11-.72c.41,.23,.47,.59,.19,.86l2.11,.72c.84-.81,.65-1.88-.56-2.58l-1.74,1Z" style="fill:#fff;"/></g></g><path d="M1156.83,24.19l14.72-8.5c.72-.41,1.88-.41,2.6,0l4.33,2.5c.72,.41,.72,1.09,0,1.5l-14.72,8.5c-.72,.41-1.88,.41-2.6,0l-4.33-2.5c-.72-.41-.72-1.09,0-1.5Z" style="fill:#fff;"/><path d="M57.89,666.61l1.04-.6-5.37-3.1,.08-.05,7.52,1.86,.84-.49-3.22-4.34,.08-.04,5.37,3.1,1.03-.6-7.32-4.23-1.31,.76,3.51,4.72-.08,.05-8.18-2.02-1.31,.76,7.32,4.23Zm11.52-6.53c1.61-.93,1.52-2.13-.25-3.15h-.01c-1.78-1.03-3.85-1.08-5.46-.15-1.61,.93-1.52,2.13,.25,3.15h.01c1.78,1.03,3.85,1.08,5.46,.15Zm-.92-.53c-.95,.55-2.2,.44-3.42-.26h-.01c-1.22-.71-1.41-1.43-.46-1.98,.94-.54,2.2-.44,3.42,.26h.01c1.22,.71,1.4,1.43,.46,1.98Zm4.73-1.79l1.1-.64-3.23-1.87c-.89-.51-.94-1.12-.13-1.59,.81-.47,1.64-.42,2.55,.1l3.31,1.91,1.1-.63-3.57-2.06c-1.31-.76-2.73-.79-3.96-.08-.8,.46-.97,.97-.65,1.47l-.08,.05-.84-.48-1.1,.64,5.51,3.18Zm11.09-6.2c1.44-.83,1.44-1.81,0-2.64l-5.21-3.01-1.14,.66,5.2,3c.83,.48,.88,.98,.13,1.41-.68,.39-1.47,.34-2.07,.05l-.05-.02-1.12,.65,.07,.03c1.23,.64,2.85,.66,4.2-.12Zm5.75-3.4c.8-.46,1.01-.98,.68-1.48l.09-.05,.83,.48,1.1-.63-5.51-3.18-1.1,.63,3.23,1.87c.89,.51,.97,1.1,.09,1.61-.81,.47-1.59,.4-2.51-.13l-3.31-1.91-1.1,.64,3.57,2.06c1.3,.75,2.69,.81,3.94,.09Zm4.29-2.6l1.1-.64-3.23-1.87c-.89-.51-.94-1.12-.13-1.59s1.64-.42,2.55,.1l3.31,1.91,1.1-.63-3.57-2.06c-1.31-.76-2.73-.79-3.96-.08-.8,.46-.97,.97-.65,1.47l-.08,.05-.84-.48-1.1,.64,5.51,3.18Zm11.79-6.65c1.55-.9,1.75-2.05,.49-2.78h0c-1.03-.6-2.4-.56-3.57,0h-.03c.71-.64,.75-1.37-.16-1.89h0c-1.13-.66-2.87-.56-4.32,.28-1.43,.83-1.59,1.86-.47,2.64l.05,.03,1.07-.61-.05-.03c-.62-.44-.48-1.02,.33-1.48,.83-.48,1.72-.51,2.43-.1h0c.68,.4,.6,1.01-.23,1.49l-.86,.49,.88,.51,.89-.52c.97-.56,2.04-.64,2.86-.16h.01c.72,.42,.62,1.06-.27,1.58-.91,.52-1.99,.61-2.73,.27l-.06-.03-1.09,.63,.07,.03c1.31,.64,3.19,.55,4.75-.35Z" style="fill:#fff;"/><path d="M24.19,677.4c-1.54,.89-1.58,2.15-.11,3h.01c1.4,.81,3.44,.83,4.84,.03,.99-.57,1.14-1.26,.81-1.75l.1-.06c.06,.03,.11,.07,.16,.1,1.41,.88,2.09,1.87,.86,2.58-.69,.4-1.52,.47-2.28,.26l-.07-.02-1.13,.65,.08,.03c1.34,.5,3.07,.38,4.37-.37,1.81-1.05,1.43-2.51-1.05-3.95h-.01c-2.69-1.56-5.11-1.36-6.58-.51Zm4.07,2.36c-.88,.51-2.18,.51-3.08-.01h-.01c-.88-.51-.88-1.3-.02-1.8,.86-.5,2.24-.48,3.13,.03h0c.88,.51,.85,1.27-.03,1.78Zm3.49-3.65c.42-.24,.41-.62,0-.85-.42-.24-1.06-.24-1.48,0-.42,.24-.42,.62,0,.86,.41,.24,1.07,.24,1.49,0Zm3.84,2.21c.42-.24,.41-.62,0-.85-.42-.24-1.06-.24-1.48,0-.42,.24-.42,.62,0,.86,.41,.24,1.07,.24,1.49,0Zm6.59-2.64l1.1-.63-1.46-.84,1.01-.58-.96-.56-1.01,.58-4.9-2.83-1.62,.93c.51,1.46,1.16,3.08,1.85,4.59l.96,.56,3.57-2.06,1.46,.84Zm-4.88,.05l-.07-.04c-.53-1.17-1.07-2.51-1.46-3.65l.07-.04,3.96,2.29-2.5,1.44Zm9.84-2.91l1.14-.66-7.32-4.23-1.14,.66-.56,1.9,1.12,.65,.53-1.82,.09-.05,6.15,3.55Z" style="fill:#fff;"/><path d="M69.1,700.14h-12.12v-7" style="fill:none; stroke:#fff; stroke-linecap:round; stroke-linejoin:round; stroke-width:2px;"/><path d="M92.77,686.97l8.17-4.72-1.93-1.11-5.88,3.39-10.89-6.28-2.29,1.32,12.81,7.4Zm13.21-7.44c1.28-.74,1.76-1.65,1.35-2.5l.15-.09,1.33,.77,2.18-1.26-6.63-3.83c-2.05-1.18-4.66-1.07-7.16,.37-2.31,1.33-2.79,2.86-1.37,3.93l.07,.05,2.09-1.2-.03-.03c-.42-.5-.12-1.09,.89-1.67,1.19-.69,2.35-.74,3.32-.18l.83,.48-2.35,1.53c-2.22,1.44-2.53,2.79-.8,3.79h.02c1.77,1.03,4.24,.91,6.09-.15Zm-4.01-1.16h-.02c-.8-.47-.68-1.07,.48-1.83l2.04-1.34,.78,.45c1.15,.67,1.04,1.74-.29,2.51-.98,.56-2.17,.69-2.99,.21Zm15.83-1.91c2.15-1.24,2.49-2.33,.89-4.21l-6.43-7.73-2.33,1.34,5.33,5.68-.17,.1-9.85-3.07-2.42,1.39,13.19,3.6,.33,.32c.64,.65,.47,1.17-.44,1.7-.23,.13-.49,.27-.68,.36l1.7,.98c.29-.14,.61-.31,.88-.47Zm10.06-9.52c2.9-1.68,2.77-3.79-.37-5.61h-.02c-3.13-1.81-6.8-1.89-9.7-.21-2.89,1.67-2.76,3.8,.35,5.6h.02c3.14,1.82,6.8,1.91,9.71,.23Zm-1.79-1.04c-1.54,.89-3.61,.7-5.66-.48h-.02c-2.04-1.19-2.37-2.39-.83-3.28,1.53-.88,3.61-.69,5.66,.49h.02c2.04,1.19,2.37,2.38,.84,3.27Zm11.9-4.8c1.4-.81,1.76-1.74,1.17-2.6l.15-.09,1.47,.85,2.21-1.28-9.71-5.6-2.21,1.28,5.66,3.26c1.46,.84,1.62,1.82,.19,2.64-1.33,.77-2.65,.65-4.16-.22l-5.77-3.33-2.21,1.28,6.28,3.62c2.31,1.33,4.74,1.45,6.93,.18Zm11.57-6.85c.43-.25,.8-.5,1.06-.72l-1.71-.98c-.24,.17-.4,.27-.71,.45-.92,.53-1.71,.52-2.68-.04l-4.89-2.83,2.05-1.18-1.71-.99-2.05,1.18-2.38-1.37-2.25,1.3,2.38,1.37-1.51,.87,1.71,.99,1.51-.87,5.42,3.13c1.87,1.08,3.53,.98,5.76-.3Zm8.16-4.76l2.21-1.28-5.66-3.27c-1.46-.84-1.56-1.85-.25-2.6,1.34-.77,2.72-.69,4.23,.18l5.76,3.33,2.21-1.28-6.28-3.62c-2.31-1.33-4.8-1.4-6.96-.15-1.4,.81-1.71,1.71-1.13,2.58l-.15,.09-1.48-.86-2.21,1.28,9.71,5.6Zm13.92-7.85c1.28-.74,1.76-1.65,1.35-2.5l.15-.09,1.33,.77,2.18-1.26-6.63-3.83c-2.05-1.18-4.66-1.07-7.16,.37-2.31,1.33-2.79,2.86-1.37,3.93l.07,.05,2.09-1.2-.03-.03c-.42-.5-.12-1.09,.89-1.67,1.19-.69,2.35-.74,3.32-.18l.84,.48-2.34,1.53c-2.22,1.45-2.53,2.79-.8,3.79h.02c1.77,1.03,4.25,.91,6.09-.15Zm-4.01-1.16h-.02c-.8-.47-.67-1.07,.48-1.83l2.04-1.34,.78,.45c1.15,.67,1.04,1.74-.29,2.51-.98,.56-2.17,.69-2.99,.21Zm11.69-3.46l2.21-1.28-5.91-3.41c-1.21-.7-1.33-1.69-.24-2.32,1.08-.63,2.41-.63,3.49,0l6.3,3.63,2.21-1.28-6.07-3.5c-1.11-.64-1.23-1.57-.07-2.23,1.18-.68,2.4-.65,3.66,.08l6.14,3.54,2.21-1.28-6.68-3.86c-2.02-1.16-4.39-1.18-6.34-.05-1.35,.78-1.78,1.82-1.19,2.71l-.15,.09c-1.49-.38-3.12-.22-4.44,.54-1.27,.73-1.63,1.65-.97,2.52l-.15,.09-1.51-.87-2.21,1.28,9.71,5.6Zm20.9-11.84c2.64-1.52,2.41-3.15,1.47-4.05l-.05-.06-2.11,1.22,.04,.05c.23,.38,.15,1.12-1.05,1.82-1.5,.87-3.46,.83-5.22-.16l6.79-3.92-.73-.42c-2.93-1.69-6.57-1.83-9.33-.23-2.76,1.59-2.53,3.77,.52,5.53h0c3.09,1.79,6.78,1.9,9.66,.23Zm-8.44-4.78c1.23-.71,2.92-.77,4.66,.06l-4.61,2.66c-1.38-.99-1.29-2-.05-2.72Z" style="fill:#fff;"/><g style="clip-path:url(#clippath);"><g><path d="M341.49,525.64c-1.54-1.45,1.35-3.12,3.87-2.23,1.63,.57,3.75,.07,4.2-1,.7-1.66,4.78-1.66,5.47,0,.45,1.07,2.57,1.58,4.2,1,2.52-.89,5.4,.78,3.87,2.23-.99,.94-.11,2.17,1.74,2.42,2.87,.4,2.87,2.76,0,3.16-1.85,.26-2.73,1.48-1.74,2.42,1.54,1.45-1.35,3.12-3.87,2.23-1.63-.57-3.75-.07-4.2,1-.7,1.66-4.77,1.66-5.47,0-.45-1.07-2.57-1.58-4.2-1-2.52,.89-5.4-.78-3.87-2.23,.99-.94,.11-2.17-1.74-2.42-2.87-.4-2.87-2.76,0-3.16,1.85-.26,2.73-1.48,1.74-2.42Z" style="fill:none; stroke:#f09436; stroke-linecap:round; stroke-linejoin:round; stroke-width:2px;"/><path d="M355.76,527.65c1.91,1.1,1.91,2.9,0,4-1.91,1.1-5.02,1.1-6.93,0-1.91-1.1-1.91-2.9,0-4,1.91-1.1,5.01-1.1,6.93,0Z" style="fill:none; stroke:#f09436; stroke-linecap:round; stroke-linejoin:round; stroke-width:2px;"/></g></g><g style="clip-path:url(#clippath-1);"><path d="M381.4,502.12c1.08,0,1.96,.51,1.96,1.13v3.67l7.74-4.47c5.36-3.09,14.04-3.09,19.4,0l2.77,1.6c.76,.44,.76,1.16,0,1.6-.77,.44-2.01,.44-2.77,0l-2.77-1.6c-3.83-2.21-10.03-2.21-13.86,0l-7.74,4.47h6.36c1.08,0,1.96,.51,1.96,1.13s-.88,1.13-1.96,1.13h-11.09c-1.08,0-1.96-.51-1.96-1.13v-6.4c0-.62,.88-1.13,1.96-1.13Z" style="fill:#f09436; fill-rule:evenodd;"/></g><path d="M1126.17,88.89l3.89-2.24c3.11-1.79,2.98-3.92-.34-5.83h-.02c-3.25-1.88-6.93-1.93-10.01-.15l-3.89,2.25,10.37,5.99Zm.3-1.97l-7.25-4.19,1.79-1.03c2.03-1.17,4.55-1.1,6.83,.21h.02c2.33,1.35,2.46,2.78,.4,3.98l-1.79,1.03Zm13.73-5.94c2.13-1.23,1.96-2.55,1.19-3.28l-.04-.05-1.7,.98,.03,.04c.18,.31,.12,.91-.85,1.47-1.22,.7-2.8,.67-4.23-.13l5.49-3.17-.59-.34c-2.37-1.37-5.32-1.48-7.55-.19-2.24,1.29-2.05,3.05,.42,4.48h.01c2.5,1.45,5.48,1.54,7.82,.19Zm-6.83-3.87c1-.58,2.37-.63,3.77,.05l-3.73,2.15c-1.11-.8-1.04-1.62-.04-2.2Zm11.86,.78l1.79-1.03-10.9-6.29-1.79,1.03,10.9,6.29Zm7.36-4.07c2.14-1.23,1.96-2.55,1.2-3.28l-.05-.05-1.7,.98,.03,.04c.19,.31,.12,.91-.85,1.47-1.21,.7-2.79,.67-4.23-.13l5.5-3.17-.59-.34c-2.37-1.37-5.32-1.48-7.56-.19-2.23,1.29-2.05,3.05,.43,4.48h0c2.5,1.45,5.49,1.54,7.82,.19Zm-6.82-3.87c.99-.58,2.36-.63,3.77,.05l-3.73,2.15c-1.12-.8-1.04-1.62-.04-2.2Zm14.91-.94c.34-.2,.64-.41,.85-.59l-1.38-.8c-.19,.14-.32,.22-.57,.37-.75,.43-1.39,.42-2.18-.03l-3.96-2.29,1.66-.96-1.38-.8-1.66,.96-1.93-1.11-1.82,1.05,1.93,1.11-1.22,.71,1.38,.8,1.22-.71,4.39,2.53c1.52,.88,2.86,.8,4.67-.24Zm5.92-3.28c2.13-1.23,1.96-2.55,1.19-3.28l-.04-.05-1.7,.98,.03,.04c.18,.31,.12,.91-.85,1.47-1.22,.7-2.8,.67-4.23-.13l5.49-3.17-.59-.34c-2.37-1.37-5.32-1.48-7.55-.19-2.24,1.29-2.05,3.05,.42,4.48h.01c2.5,1.45,5.48,1.54,7.82,.19Zm-6.83-3.87c1-.58,2.37-.63,3.77,.05l-3.73,2.15c-1.11-.8-1.04-1.62-.04-2.2Zm15.57-1.36l1.79-1.03-10.9-6.29-1.79,1.03,10.9,6.29Zm6.12-3.38c1.04-.6,1.42-1.34,1.09-2.03l.13-.07,1.07,.62,1.77-1.02-5.37-3.1c-1.66-.96-3.77-.87-5.79,.3-1.87,1.08-2.26,2.32-1.11,3.18l.06,.04,1.69-.98-.02-.02c-.34-.4-.1-.88,.72-1.35,.96-.56,1.9-.6,2.68-.15l.68,.39-1.9,1.24c-1.8,1.17-2.05,2.26-.64,3.07h.01c1.43,.83,3.44,.74,4.93-.12Zm-3.25-.94h-.01c-.65-.38-.55-.86,.39-1.48l1.65-1.09,.63,.37c.94,.54,.84,1.41-.24,2.03-.79,.46-1.75,.56-2.42,.17Zm12.61-1.43c1.74-1,2.01-1.88,.72-3.41l-5.2-6.26-1.89,1.09,4.32,4.6-.14,.08-7.97-2.49-1.96,1.13,10.68,2.92,.26,.26c.52,.52,.38,.95-.35,1.37-.19,.11-.4,.22-.55,.29l1.37,.79c.24-.11,.5-.25,.71-.38Zm7.94-7.59c2.35-1.36,2.24-3.07-.3-4.54h-.02c-2.53-1.47-5.5-1.53-7.85-.17-2.33,1.35-2.23,3.08,.29,4.53h.01c2.55,1.48,5.51,1.54,7.87,.18Zm-1.45-.84c-1.25,.72-2.93,.57-4.58-.39h-.02c-1.65-.96-1.92-1.94-.67-2.66,1.23-.71,2.92-.56,4.58,.39h.01c1.65,.96,1.92,1.93,.68,2.65Zm9.42-3.76c1.14-.66,1.43-1.41,.95-2.11l.12-.07,1.2,.69,1.79-1.03-7.86-4.54-1.79,1.03,4.58,2.64c1.18,.68,1.31,1.47,.15,2.14-1.08,.62-2.15,.53-3.37-.17l-4.67-2.7-1.79,1.03,5.08,2.93c1.87,1.08,3.84,1.17,5.61,.15Zm9.16-5.43c.35-.2,.65-.41,.86-.59l-1.38-.8c-.2,.14-.33,.22-.58,.37-.75,.43-1.39,.42-2.17-.03l-3.96-2.29,1.66-.96-1.39-.8-1.66,.96-1.93-1.11-1.81,1.05,1.92,1.11-1.22,.71,1.39,.8,1.22-.71,4.39,2.53c1.51,.88,2.86,.8,4.66-.24Z" style="fill:#fe4f4f;"/><line x1="1214.01" y1="17.68" x2="1239.12" y2="32.18" style="fill:none; stroke:#919191;"/><line x1="64.34" y1="720.39" x2="1247.35" y2="37.43" style="fill:none; stroke:#2e2e30;"/></svg>