<?xml version="1.0" encoding="UTF-8"?>
<svg id="Layer_1" data-name="Layer 1" xmlns="http://www.w3.org/2000/svg" viewBox="0 0 496 495">
  <rect width="496" height="495" style="fill: #3143a1; stroke-width: 0px;"/>
  <path d="m86.08,217.34c6.74,0,12.75,2.3,17.49,6.69.32-3.97,3.48-6.9,7.69-6.9h.1c4.43,0,7.69,3.24,7.69,7.63v46.72c0,4.39-3.26,7.63-7.69,7.63h-.1c-4.21,0-7.38-2.93-7.69-6.9-4.74,4.39-10.85,6.69-17.49,6.69-16.54,0-31.08-13.48-31.08-30.94s14.54-30.63,31.08-30.63Zm1.05,47.25c9.17,0,16.43-7.53,16.43-16.41s-7.27-16.31-16.43-16.31-16.33,7.53-16.33,16.31,7.37,16.41,16.33,16.41Z" style="fill: #fff; stroke-width: 0px;"/>
  <path d="m128.22,261.56v-69.93c0-4.39,3.27-7.63,7.69-7.63h.11c4.42,0,7.69,3.24,7.69,7.63v69.2c0,3.24,1.58,4.7,4,4.7.84,0,1.48-.11,2.74-.21,3.48-.31,6.22,1.57,6.22,6.59v.42c0,5.23-3.16,6.58-6.32,7-2.32.31-3.79.42-5.48.42-10.64,0-16.54-7-16.54-18.08l-.11-.1Z" style="fill: #fff; stroke-width: 0px;"/>
  <path d="m176.89,279.33h-.53c-5.37,0-8.64-3.45-10.43-8.47l-15.17-41.6c-2.42-6.69.74-12.02,6.64-12.02h.21c3.48,0,6.32,1.78,8.11,7.32l11.06,34.29,10.22-32.51c1.69-5.43,4.95-8.99,10.11-8.99h.63c5.16,0,8.43,3.66,10.11,8.99l10.22,32.4,10.96-34.07c1.79-5.54,4.74-7.32,8.11-7.32h.21c5.9,0,9.06,5.33,6.64,12.02l-15.17,41.6c-1.79,4.91-5.06,8.47-10.43,8.47h-.53c-5.37,0-8.74-3.35-10.32-8.47l-10.22-32.19-10.32,32.19c-1.58,5.12-4.95,8.47-10.32,8.47l.21-.11Z" style="fill: #fff; stroke-width: 0px;"/>
  <path d="m276.13,217.34c6.74,0,12.75,2.3,17.49,6.69.32-3.97,3.48-6.9,7.69-6.9h.11c4.42,0,7.69,3.24,7.69,7.63v46.72c0,4.39-3.27,7.63-7.69,7.63h-.11c-4.21,0-7.37-2.93-7.69-6.9-4.74,4.39-10.85,6.69-17.49,6.69-16.54,0-31.08-13.48-31.08-30.94s14.54-30.84,31.08-30.84v.21Zm1.05,47.25c9.17,0,16.43-7.53,16.43-16.41s-7.27-16.31-16.43-16.31-16.33,7.53-16.33,16.31,7.38,16.41,16.33,16.41Z" style="fill: #fff; stroke-width: 0px;"/>
  <path d="m364.3,217.24h.21c5.9,0,9.27,5.44,6.64,12.02l-30.02,74.42c-2.21,5.33-4.53,7.32-8.01,7.32h-.21c-5.9,0-9.38-5.54-6.64-12.02l8.85-20.8-19.81-49.02c-2.63-6.58.74-12.02,6.64-12.02h.21c3.48,0,5.9,1.88,8.01,7.32l13.06,34.49,13.17-34.49c2-5.44,4.53-7.32,8.01-7.32l-.11.1Z" style="fill: #fff; stroke-width: 0px;"/>
  <path d="m376.52,275.15c-4.42-2.72-5.37-7.21-2.95-10.45l.42-.52c2.32-3.14,6.74-3.35,9.48-1.57,4.85,2.93,9.06,3.14,11.59,3.14,5.9,0,7.58-2.4,7.58-4.49,0-8.99-29.18-3.45-29.18-24.88,0-10.87,7.8-19.13,23.49-19.13,5.16,0,10.85.94,14.54,3.55,3.79,2.72,5.06,6.9,2.84,10.04l-.42.63c-2.21,3.03-6.22,3.14-9.69,1.57-2.74-1.25-5.79-1.88-8.74-1.88-5.48,0-6.74,1.99-6.74,4.08,0,8.36,28.87,4.39,28.87,25.5,0,10.98-8.01,19.02-23.18,19.02-7.48,0-13.38-1.78-17.8-4.49l-.11-.11Z" style="fill: #fff; stroke-width: 0px;"/>
  <path d="m439.81,275.56v-5.91c0-2.28-1.87-4.13-4.17-4.13h-5.97c-2.3,0-4.17,1.85-4.17,4.13v5.91c0,2.28,1.87,4.13,4.17,4.13h5.97c2.3,0,4.17-1.85,4.17-4.13Z" style="fill: #fff; stroke-width: 0px;"/>
</svg>
