<svg width="497" height="495" viewBox="0 0 497 495" fill="none" xmlns="http://www.w3.org/2000/svg">
<rect width="496" height="495" transform="translate(0.5)" fill="#3143A1"/>
<path d="M86.5781 217.344C93.3204 217.344 99.3253 219.643 104.066 224.034C104.382 220.062 107.543 217.135 111.757 217.135H111.862C116.287 217.135 119.552 220.375 119.552 224.765V271.489C119.552 275.879 116.287 279.119 111.862 279.119H111.757C107.543 279.119 104.382 276.192 104.066 272.22C99.3253 276.61 93.2151 278.91 86.5781 278.91C70.0382 278.91 55.5 265.426 55.5 247.97C55.5 230.514 70.0382 217.344 86.5781 217.344ZM87.6315 264.59C96.7969 264.59 104.066 257.064 104.066 248.179C104.066 239.294 96.7969 231.873 87.6315 231.873C78.4662 231.873 71.3024 239.399 71.3024 248.179C71.3024 256.959 78.6769 264.59 87.6315 264.59Z" fill="white"/>
<path d="M128.719 261.559V191.63C128.719 187.24 131.985 184 136.409 184H136.515C140.939 184 144.205 187.24 144.205 191.63V260.827C144.205 264.067 145.785 265.531 148.208 265.531C149.051 265.531 149.683 265.426 150.947 265.322C154.424 265.008 157.163 266.89 157.163 271.907V272.325C157.163 277.551 154.003 278.91 150.842 279.328C148.524 279.642 147.05 279.747 145.364 279.747C134.724 279.747 128.824 272.743 128.824 261.663L128.719 261.559Z" fill="white"/>
<path d="M177.388 279.328H176.862C171.489 279.328 168.223 275.879 166.432 270.861L151.262 229.26C148.839 222.57 151.999 217.239 157.899 217.239H158.11C161.586 217.239 164.43 219.016 166.221 224.556L177.283 258.841L187.502 226.333C189.188 220.898 192.453 217.344 197.616 217.344H198.248C203.41 217.344 206.676 221.002 208.361 226.333L218.58 258.736L229.536 224.661C231.327 219.121 234.277 217.344 237.648 217.344H237.859C243.759 217.344 246.919 222.675 244.496 229.364L229.326 270.966C227.535 275.879 224.269 279.433 218.896 279.433H218.369C212.997 279.433 209.625 276.088 208.045 270.966L197.826 238.772L187.502 270.966C185.922 276.088 182.551 279.433 177.178 279.433L177.388 279.328Z" fill="white"/>
<path d="M276.629 217.344C283.371 217.344 289.376 219.643 294.117 224.034C294.433 220.062 297.593 217.135 301.807 217.135H301.913C306.337 217.135 309.603 220.375 309.603 224.765V271.489C309.603 275.879 306.337 279.119 301.913 279.119H301.807C297.593 279.119 294.433 276.192 294.117 272.22C289.376 276.61 283.266 278.91 276.629 278.91C260.089 278.91 245.551 265.426 245.551 247.97C245.551 230.514 260.089 217.135 276.629 217.135V217.344ZM277.682 264.59C286.848 264.59 294.117 257.064 294.117 248.179C294.117 239.294 286.848 231.873 277.682 231.873C268.517 231.873 261.353 239.399 261.353 248.179C261.353 256.959 268.728 264.59 277.682 264.59Z" fill="white"/>
<path d="M364.805 217.239H365.015C370.915 217.239 374.286 222.675 371.652 229.26L341.628 303.683C339.415 309.014 337.098 311 333.621 311H333.411C327.511 311 324.034 305.46 326.774 298.979L335.623 278.178L315.817 229.155C313.183 222.57 316.555 217.135 322.454 217.135H322.665C326.141 217.135 328.564 219.016 330.671 224.452L343.735 258.945L356.903 224.452C358.905 219.016 361.433 217.135 364.91 217.135L364.805 217.239Z" fill="white"/>
<path d="M377.025 275.147C372.6 272.429 371.652 267.935 374.075 264.694L374.496 264.172C376.814 261.036 381.239 260.827 383.978 262.604C388.824 265.531 393.038 265.74 395.566 265.74C401.466 265.74 403.151 263.336 403.151 261.245C403.151 252.256 373.969 257.796 373.969 236.368C373.969 225.497 381.765 217.239 397.462 217.239C402.624 217.239 408.313 218.18 412.001 220.793C415.793 223.511 417.057 227.692 414.845 230.828L414.424 231.455C412.211 234.486 408.208 234.591 404.731 233.023C401.992 231.768 398.937 231.141 395.987 231.141C390.509 231.141 389.245 233.127 389.245 235.218C389.245 243.58 418.111 239.608 418.111 260.722C418.111 271.698 410.104 279.746 394.934 279.746C387.454 279.746 381.555 277.969 377.13 275.252L377.025 275.147Z" fill="white"/>
<path d="M440.309 275.561V269.649C440.309 267.367 438.44 265.517 436.135 265.517H430.163C427.859 265.517 425.99 267.367 425.99 269.649V275.561C425.99 277.843 427.859 279.693 430.163 279.693H436.135C438.44 279.693 440.309 277.843 440.309 275.561Z" fill="white"/>
</svg>
