<?xml version="1.0" encoding="utf-8"?>
<!-- Generator: Adobe Illustrator 27.8.1, SVG Export Plug-In . SVG Version: 6.00 Build 0)  -->
<svg version="1.1" id="Layer_1" xmlns="http://www.w3.org/2000/svg" xmlns:xlink="http://www.w3.org/1999/xlink" x="0px" y="0px"
	 viewBox="0 0 607.7 230.4" style="enable-background:new 0 0 607.7 230.4;" xml:space="preserve">
<g>
	<g>
		<path d="M285.5,229.9h-16.7l-0.5-0.5V196l0.5-0.5h15.7c4.9,0,9.8,2.5,9.8,8.8c0,3.4-1.5,6.4-4.9,7.4v0.5c3.9,1,5.9,3.9,5.9,8.3
			C295.3,227.4,290.4,229.9,285.5,229.9z M283.5,201.4h-7.9l-0.5,0.5v6.9l0.5,0.5h7.9c2.9,0,3.9-2,3.9-3.9
			C287.4,202.9,286.4,201.4,283.5,201.4z M283.5,215.2h-7.9l-0.5,0.5v7.9l0.5,0.5h7.9c3.4,0,4.9-1.5,4.9-4.4
			C288.4,216.6,286.9,215.2,283.5,215.2z"/>
		<path d="M323.6,229.9h-23.1l-0.5-0.5V196l0.5-0.5h23.1l0.5,0.5v4.9l-0.5,0.5h-16.2l-0.5,0.5v6.9l0.5,0.5h15.2l0.5,0.5v4.9
			l-0.5,0.5h-15.2l-0.5,0.5v7.9l0.5,0.5h16.2l0.5,0.5v4.9L323.6,229.9z"/>
		<path d="M342.6,230.4c-9.8,0-14.2-4.9-14.2-11.3l0.5-0.5h5.9l0.5,0.5c0,3.4,2,5.4,7.9,5.4c4.4,0,6.9-1.5,6.9-4.4
			c0-3.4-2-4.4-8.8-5.4c-6.9-1-12.3-3.4-12.3-10.3c0-4.9,3.9-9.3,13.2-9.3c9.3,0,13.2,4.4,13.2,10.3l-0.5,0.5H349l-0.5-0.5
			c0-2.9-1.5-4.4-6.9-4.4c-4.4,0-5.9,1.5-5.9,3.4c0,2.9,2,3.9,8.8,4.9s12.3,3.9,12.3,10.8C356.9,225.5,352.9,230.4,342.6,230.4z"/>
		<path d="M386.8,201.4H377l-0.5,0.5v27.5l-0.5,0.5h-5.9l-0.5-0.5v-27.5l-0.5-0.5h-9.8l-0.5-0.5V196l0.5-0.5h27.5l0.5,0.5v4.9
			L386.8,201.4z"/>
		<path d="M405.6,229.9h-5.9l-0.5-0.5V196l0.5-0.5h5.9l0.5,0.5v33.4L405.6,229.9z"/>
		<path d="M413.6,195.5h6.9l1,0.5l13.2,22.6h0.5V196l0.5-0.5h5.9l0.5,0.5v33.4l-0.5,0.5h-6.9l-1-0.5l-13.2-22.6H420v22.6l-0.5,0.5
			h-5.9l-0.5-0.5V196L413.6,195.5z"/>
		<path d="M478.5,219.6l0.5-0.5h5.9l0.5,0.5c-1,6.9-6.4,10.8-14.2,10.8c-10.8,0-16.7-7.4-16.7-17.7c0-10.3,5.9-17.7,16.7-17.7
			c7.9,0,13.2,3.9,14.2,10.3l-0.5,0.5H479l-0.5-0.5c-1-2.9-3.4-4.4-7.4-4.4c-6.9,0-9.8,4.9-9.8,11.8c0,6.9,2.9,11.8,9.8,11.8
			C475,224.5,477.5,223,478.5,219.6z"/>
		<path d="M512.8,229.9h-22.1l-0.5-0.5V196l0.5-0.5h5.9l0.5,0.5v27.5l0.5,0.5h15.2l0.5,0.5v4.9L512.8,229.9z"/>
		<path d="M544.8,229.9h-4.4l-0.5-0.5l-2.5-6.4l-1-0.5h-12.3l-1,0.5l-2.5,6.4l-0.5,0.5h-4.4l-0.5-0.5v-4.9l11.3-28.5l0.5-0.5h6.4
			l0.5,0.5l11.3,28.5v4.9L544.8,229.9z M530.6,204.4h-0.5l-4.4,11.8l0.5,0.5h8.3l0.5-0.5L530.6,204.4z"/>
		<path d="M561.5,230.4c-9.8,0-14.2-4.9-14.2-11.3l0.5-0.5h5.9l0.5,0.5c0,3.4,2,5.4,7.9,5.4c4.4,0,6.9-1.5,6.9-4.4
			c0-3.4-2-4.4-8.8-5.4c-6.9-1-12.3-3.4-12.3-10.3c0-4.9,3.9-9.3,13.2-9.3c9.3,0,13.2,4.4,13.2,10.3l-0.5,0.5h-5.9l-0.5-0.5
			c0-2.9-1.5-4.4-6.9-4.4c-4.4,0-5.9,1.5-5.9,3.4c0,2.9,2,3.9,8.8,4.9s12.3,3.9,12.3,10.8C575.7,225.5,571.8,230.4,561.5,230.4z"/>
		<path d="M593.4,230.4c-9.8,0-14.2-4.9-14.2-11.3l0.5-0.5h5.9l0.5,0.5c0,3.4,2,5.4,7.9,5.4c4.4,0,6.9-1.5,6.9-4.4
			c0-3.4-2-4.4-8.8-5.4c-6.9-1-12.3-3.4-12.3-10.3c0-4.9,3.9-9.3,13.2-9.3c9.3,0,13.2,4.4,13.2,10.3l-0.5,0.5h-5.9l-0.5-0.5
			c0-2.9-1.5-4.4-6.9-4.4c-4.4,0-5.9,1.5-5.9,3.4c0,2.9,2,3.9,8.8,4.9s12.3,3.9,12.3,10.8C607.7,225.5,603.7,230.4,593.4,230.4z"/>
	</g>
	<g>
		<path d="M220.5,70l-131,131H86l-86-86v114.8h114.8c63.4,0,114.8-51.4,114.8-114.8C229.7,99.1,226.4,83.9,220.5,70z"/>
		<path d="M89.5,146.8L199.2,37.1c-21-22.7-51-36.9-84.3-36.9H0.4H0v114.8h54.2L86,146.8H89.5z"/>
	</g>
	<g>
		<path d="M487.1,67.6v52.2l0.8,0.8h9.2l0.8-0.8V84.5h0.8l20.7,35.3l1.5,0.8h10.7l0.8-0.8V67.6l-0.8-0.8h-9.2l-0.8,0.8v35.3h-0.8
			l-20.7-35.3l-1.5-0.8h-10.7L487.1,67.6z M479.9,119.8V92.2l-0.8-0.8h-23.8l-0.8,0.8v7.7l0.8,0.8h13l0.8,0.8
			c0,6.1-3.8,10.7-12.3,10.7c-10,0-15.3-7.7-15.3-18.4s5.4-18.4,15.3-18.4c8.4,0,10.7,3.8,12.3,6.9l0.8,0.8h9.2l0.8-0.8
			c-1.5-7.7-7.7-16.1-23-16.1c-16.1,0-26.1,11.5-26.1,27.6s10,27.6,25.3,27.6c8.4,0,12.3-3.8,13.8-5.4h0.8l0.8,3.8l0.8,0.8h6.9
			L479.9,119.8z M424.2,119.8V67.6l-0.8-0.8h-9.2l-0.8,0.8v52.2l0.8,0.8h9.2L424.2,119.8z M406.5,105.2c0-10.7-8.4-15.3-19.2-16.9
			c-10.7-1.5-13.8-3.1-13.8-7.7c0-3.1,2.3-5.4,9.2-5.4c8.4,0,10.7,2.3,10.7,6.9l0.8,0.8h9.2l0.8-0.8c0-9.2-6.1-16.1-20.7-16.1
			c-14.6,0-20.7,6.9-20.7,14.6c0,10.7,8.4,14.6,19.2,16.1c10.7,1.5,13.8,3.1,13.8,8.4c0,4.6-3.8,6.9-10.7,6.9
			c-9.2,0-12.3-3.1-12.3-8.4l-0.8-0.8h-9.2l-0.8,0.8c0,10,6.9,17.7,22.3,17.7C400.4,121.3,406.5,113.6,406.5,105.2 M357,119.8v-7.7
			l-0.8-0.8h-25.3l-0.8-0.8V98.3l0.8-0.8h23.8l0.8-0.8v-7.7l-0.8-0.8h-23.8l-0.8-0.8V76.8l0.8-0.8h25.3l0.8-0.8v-7.7l-0.8-0.8h-36.1
			l-0.8,0.8v52.2l0.8,0.8h36.1L357,119.8z M303.2,93.7c0,12.3-3.8,17.7-14.6,17.7h-6.9l-0.8-0.8V76.8l0.8-0.8h6.9
			C299.4,76,303.2,81.4,303.2,93.7 M314,93.7c0-16.9-6.9-26.9-26.1-26.9H271l-0.8,0.8v52.2l0.8,0.8h16.9
			C307.1,120.5,314,110.6,314,93.7"/>
		<path d="M470.8,27.6c0,12.3-3.8,17.7-14.6,17.7h-6.9l-0.8-0.8V10.7l0.8-0.8h6.9C467,10,470.8,15.3,470.8,27.6 M481.6,27.6
			c0-16.9-6.9-26.9-26.1-26.9h-16.9l-0.8,0.8v52.2l0.8,0.8h16.9C474.7,54.5,481.6,44.5,481.6,27.6 M431.2,27.6
			c0-16.1-10-27.6-26.1-27.6c-16.1,0-26.1,11.5-26.1,27.6s10,27.6,26.1,27.6C421.3,55.3,431.2,43.7,431.2,27.6 M420.5,27.6
			c0,10.7-5.4,18.4-15.3,18.4c-10,0-15.3-7.7-15.3-18.4c0-10.7,5.4-18.4,15.3-18.4C415.1,9.2,420.5,16.9,420.5,27.6 M373.7,27.6
			c0-16.1-10-27.6-26.1-27.6c-16.1,0-26.1,11.5-26.1,27.6s10,27.6,26.1,27.6C363.7,55.3,373.7,43.7,373.7,27.6 M362.9,27.6
			c0,10.7-5.4,18.4-15.3,18.4c-10,0-15.3-7.7-15.3-18.4c0-10.7,5.4-18.4,15.3-18.4C357.6,9.2,362.9,16.9,362.9,27.6 M315.5,53.7
			V26.1l-0.8-0.8H291l-0.8,0.8v7.7l0.8,0.8h13l0.8,0.8c0,6.1-3.8,10.7-12.3,10.7c-10,0-15.3-7.7-15.3-18.4
			c0-10.7,5.4-18.4,15.3-18.4c8.4,0,10.7,3.8,12.3,6.9l0.8,0.8h9.2l0.8-0.8C314,8.4,307.8,0,292.5,0c-16.1,0-26.1,11.5-26.1,27.6
			s10,27.6,25.3,27.6c8.4,0,12.3-3.8,13.8-5.4h0.8l0.8,3.8l0.8,0.8h6.9L315.5,53.7z"/>
		<path d="M514.3,158.1c0,12.3-3.8,17.6-14.6,17.6h-6.9l-0.8-0.8v-33.7l0.8-0.8h6.9C510.5,140.5,514.3,145.9,514.3,158.1
			 M525.1,158.1c0-16.9-6.9-26.8-26.1-26.8h-16.9l-0.8,0.8v52.1l0.8,0.8H499C518.2,185,525.1,175,525.1,158.1 M464.7,147.4
			c0,5.4-3.1,6.9-7.7,6.9h-14.6l-0.8-0.8v-12.3l0.8-0.8H457C461.6,140.5,464.7,142.1,464.7,147.4 M475.4,147.4
			c0-10.7-7.7-16.1-18.4-16.1h-25.3l-0.8,0.8v52.1l0.8,0.8h9.2l0.8-0.8v-19.9l0.8-0.8h7.7l1.5,0.8l15.3,19.9l1.5,0.8h4.6l0.8-0.8
			v-7.7l-10-13v-0.8C470,161.2,475.4,155.8,475.4,147.4 M409.5,163.5l-0.8,0.8h-13l-0.8-0.8l6.9-18.4h0.8L409.5,163.5z M425.6,184.2
			v-7.7L408,132.1l-0.8-0.8h-10l-0.8,0.8l-17.6,44.4v7.7l0.8,0.8h6.9l0.8-0.8l3.8-10l1.5-0.8h19.2l1.5,0.8l3.8,10l0.8,0.8h6.9
			L425.6,184.2z M341.8,131.3l-0.8,0.8l-10,35.2h-0.8l-7.7-35.2l-0.8-0.8h-7.7l-0.8,0.8v7.7l11.5,44.4l0.8,0.8h10l0.8-0.8l10-36.8
			h0.8l10,36.8l0.8,0.8h10l0.8-0.8l11.5-44.4v-7.7l-0.8-0.8h-7.7l-0.8,0.8l-7.7,35.2h-0.8l-10-35.2l-0.8-0.8H341.8z M299,163.5
			l-0.8,0.8h-13l-0.8-0.8l6.9-18.4h0.8L299,163.5z M315.1,184.2v-7.7l-17.6-44.4l-0.8-0.8h-10l-0.8,0.8l-17.6,44.4v7.7l0.8,0.8h6.9
			l0.8-0.8l3.8-10l1.5-0.8h19.2l1.5,0.8l3.8,10l0.8,0.8h6.9L315.1,184.2z"/>
		<g>
			<path d="M542.2,132.8H538l-0.3,0.3v3.6l0.3,0.3h4.2c1.5,0,2.1-0.9,2.1-2.1C544.3,133.7,543.7,132.8,542.2,132.8 M545.8,141.8v1.2
				l-0.3,0.3h-0.3l-0.6-0.3l-3-4.2l-0.6-0.3h-3l-0.3,0.3v4.2l-0.3,0.3h-1.2l-0.3-0.3v-11.4l0.3-0.3h6c2.1,0,3.9,1.2,3.9,3.6
				c0,1.8-1.2,3-2.7,3.3v0.3L545.8,141.8z M540.4,146.6c5.1,0,9.3-4.2,9.3-9.3s-4.2-9.3-9.3-9.3c-5.1,0-9.3,4.2-9.3,9.3
				S535.3,146.6,540.4,146.6 M540.4,126.5c6,0,10.8,4.8,10.8,10.8c0,6-4.8,10.8-10.8,10.8c-6,0-10.8-4.8-10.8-10.8
				C529.6,131.3,534.4,126.5,540.4,126.5"/>
		</g>
	</g>
</g>
</svg>
