<svg viewBox="0 0 158 165" fill="none" xmlns="http://www.w3.org/2000/svg">
<g clip-path="url(#clip0_643_13613)">
<path d="M23.4696 43.6553H12.6807L24.2442 0.5H35.033L23.4696 43.6553Z" fill="currentColor"/>
<path d="M55.8357 43.6553H45.0469L56.6103 0.5H67.3992L55.8357 43.6553Z" fill="currentColor"/>
<path d="M40.0399 28.8205C43.7639 28.8205 46.7829 25.8015 46.7829 22.0775C46.7829 18.3534 43.7639 15.3345 40.0399 15.3345C36.3158 15.3345 33.2969 18.3534 33.2969 22.0775C33.2969 25.8015 36.3158 28.8205 40.0399 28.8205Z" fill="currentColor"/>
<path d="M72.4071 28.8205C76.1311 28.8205 79.1501 25.8015 79.1501 22.0775C79.1501 18.3534 76.1311 15.3345 72.4071 15.3345C68.683 15.3345 65.6641 18.3534 65.6641 22.0775C65.6641 25.8015 68.683 28.8205 72.4071 28.8205Z" fill="currentColor"/>
<path d="M104.773 28.8207C108.497 28.8207 111.516 25.8018 111.516 22.0777C111.516 18.3537 108.497 15.3347 104.773 15.3347C101.049 15.3347 98.0303 18.3537 98.0303 22.0777C98.0303 25.8018 101.049 28.8207 104.773 28.8207Z" fill="currentColor"/>
<path d="M7.67366 28.8207C11.3977 28.8207 14.4167 25.8018 14.4167 22.0777C14.4167 18.3537 11.3977 15.3347 7.67366 15.3347C3.94961 15.3347 0.930664 18.3537 0.930664 22.0777C0.930664 25.8018 3.94961 28.8207 7.67366 28.8207Z" fill="currentColor"/>
<path d="M88.2029 43.6553H77.4141L88.9775 0.5H99.7663L88.2029 43.6553Z" fill="currentColor"/>
<path d="M37.6485 59.9556V103.034H28.8292V84.7339H9.75006V103.034H0.930664V59.9556H9.75006V77.1148H28.8292V59.9556H37.6485Z" fill="currentColor"/>
<path d="M42.7501 94.2739C42.7501 87.9741 47.7892 85.3344 54.1495 84.1938L62.0089 82.6938V82.2143C62.0089 79.5141 60.629 77.8344 57.1495 77.8344C54.0294 77.8344 52.4093 79.2143 51.6895 82.0346L43.71 80.5346C45.1495 75.1948 49.9493 70.8744 57.4493 70.8744C65.4288 70.8744 70.2286 74.5346 70.2286 81.8539V94.7533C70.2286 96.434 70.9483 96.974 72.8087 96.7338V103.034C67.4689 103.813 64.2286 102.734 62.8487 100.093C60.8087 102.313 57.629 103.574 53.4893 103.574C47.3096 103.574 42.75 99.854 42.75 94.2739H42.7501ZM62.0089 88.5737L55.8292 89.8335C53.0694 90.3735 51.0294 91.2739 51.0294 93.7935C51.0294 95.9537 52.6495 97.2134 55.169 97.2134C58.709 97.2134 62.0088 95.354 62.0088 91.814V88.5738L62.0089 88.5737Z" fill="currentColor"/>
<path d="M78.2685 78.4946H74.0693V71.4751H78.2685V62.4751H86.5488V71.4751H92.9687V78.4946H86.5488V93.0737C86.5488 95.7739 88.0488 96.1333 90.5088 96.1333C91.708 96.1333 92.3086 96.0737 93.3887 95.9536V102.914C91.8887 103.213 90.0889 103.393 87.9883 103.393C81.6289 103.393 78.2686 101.293 78.2686 94.814V78.4947L78.2685 78.4946Z" fill="currentColor"/>
<path d="M112.048 96.6137C115.528 96.6137 117.628 94.2133 118.408 90.9741L125.668 94.2134C124.228 99.3736 119.308 103.694 111.988 103.694C102.809 103.694 96.3291 97.0337 96.3291 87.2544C96.3291 77.5347 102.809 70.8745 111.988 70.8745C119.248 70.8745 124.048 75.0747 125.548 80.1743L118.408 83.5347C117.628 80.2945 115.528 77.8941 112.048 77.8941C107.608 77.8941 104.669 81.3746 104.669 87.2545C104.669 93.194 107.609 96.6139 112.048 96.6139L112.048 96.6137Z" fill="currentColor"/>
<path d="M129.688 59.9556H138.089V74.7144C139.828 72.6744 142.708 70.8746 146.728 70.8746C153.328 70.8746 157.348 75.3746 157.348 82.2144V103.034H148.948V84.6138C148.948 81.0747 147.508 78.5542 143.908 78.5542C140.969 78.5542 138.089 80.6548 138.089 84.7944V103.034H129.688V59.9556Z" fill="currentColor"/>
<path d="M37.6485 119.956V163.034H28.8292V144.734H9.75006V163.034H0.930664V119.956H9.75006V137.115H28.8292V119.956H37.6485Z" fill="currentColor"/>
<path d="M43.0498 147.254C43.0498 137.955 49.4697 130.875 58.4092 130.875C67.7686 130.875 72.8086 137.835 72.8086 146.654V149.114H51.0889C51.6895 153.914 54.6289 156.794 58.7686 156.794C62.0088 156.794 64.5889 155.234 65.5489 152.174L72.628 154.694C70.3487 160.454 65.0089 163.694 58.7091 163.694C49.4093 163.694 43.0499 157.034 43.0499 147.254H43.0498ZM51.3896 143.415H64.4687C64.4091 140.295 62.4287 137.594 58.3486 137.594C54.9892 137.594 52.4091 139.575 51.3896 143.415Z" fill="currentColor"/>
<path d="M76.1095 154.274C76.1095 147.974 81.1486 145.334 87.5089 144.194L95.3683 142.694V142.214C95.3683 139.514 93.9884 137.834 90.5089 137.834C87.3888 137.834 85.7687 139.214 85.0489 142.035L77.0694 140.535C78.5089 135.195 83.3087 130.874 90.8087 130.874C98.7882 130.874 103.588 134.535 103.588 141.854V154.753C103.588 156.434 104.308 156.974 106.168 156.734V163.034C100.828 163.813 97.588 162.734 96.2081 160.093C94.1681 162.313 90.9884 163.574 86.8487 163.574C80.669 163.574 76.1094 159.854 76.1094 154.274H76.1095ZM95.3683 148.574L89.1886 149.833C86.4288 150.373 84.3888 151.274 84.3888 153.793C84.3888 155.954 86.0089 157.213 88.5284 157.213C92.0684 157.213 95.3682 155.354 95.3682 151.814V148.574L95.3683 148.574Z" fill="currentColor"/>
<path d="M108.988 147.254C108.988 138.314 114.028 130.874 122.728 130.874C126.687 130.874 129.687 132.435 131.548 134.714V119.955H139.947V163.034H131.548V159.793C129.687 162.133 126.687 163.694 122.728 163.694C114.028 163.694 108.988 156.253 108.988 147.254V147.254ZM124.708 138.075C119.968 138.075 117.448 141.854 117.448 147.254C117.448 152.713 119.968 156.494 124.708 156.494C128.727 156.494 131.727 153.494 131.727 148.154V146.415C131.727 141.014 128.727 138.075 124.708 138.075V138.075Z" fill="currentColor"/>
</g>
<defs>
<clipPath id="clip0_643_13613">
<rect width="157" height="164" fill="white" transform="translate(0.930664 0.5)"/>
</clipPath>
</defs>
</svg>
