<svg  viewBox="0 0 111 44" fill="currentColor" xmlns="http://www.w3.org/2000/svg">
<path d="M22.5398 43.5772H11.7505L23.3145 0.421875H34.1037L22.5398 43.5772Z"/>
<path d="M54.9076 43.5772H44.1184L55.6823 0.421875H66.4716L54.9076 43.5772Z"/>
<path d="M39.1112 28.7419C42.8354 28.7419 45.8545 25.7229 45.8545 21.9989C45.8545 18.2748 42.8354 15.2559 39.1112 15.2559C35.387 15.2559 32.3679 18.2748 32.3679 21.9989C32.3679 25.7229 35.387 28.7419 39.1112 28.7419Z"/>
<path d="M71.4791 28.7419C75.2033 28.7419 78.2224 25.7229 78.2224 21.9989C78.2224 18.2748 75.2033 15.2559 71.4791 15.2559C67.7549 15.2559 64.7358 18.2748 64.7358 21.9989C64.7358 25.7229 67.7549 28.7419 71.4791 28.7419Z"/>
<path d="M103.847 28.7419C107.571 28.7419 110.59 25.7229 110.59 21.9989C110.59 18.2748 107.571 15.2559 103.847 15.2559C100.122 15.2559 97.1033 18.2748 97.1033 21.9989C97.1033 25.7229 100.122 28.7419 103.847 28.7419Z"/>
<path d="M6.74327 28.7428C10.4675 28.7428 13.4865 25.7239 13.4865 21.9998C13.4865 18.2758 10.4675 15.2568 6.74327 15.2568C3.01907 15.2568 0 18.2758 0 21.9998C0 25.7239 3.01907 28.7428 6.74327 28.7428Z"/>
<path d="M87.2756 43.5772H76.4863L88.0502 0.421875H98.8394L87.2756 43.5772Z"/>
</svg>
