<?xml version="1.0" encoding="UTF-8"?><svg id="Layer_1" fill="currentColor" xmlns="http://www.w3.org/2000/svg" viewBox="0 0 133.2 207.4"><rect y="145" width="133.2" height="1"/><path d="m25.3,92.2c0,3.9-1.1,6.9-3.3,9-2.2,2.1-5.4,3.1-9.6,3.1h-6.8v-23.8h7.4c3.9,0,6.9,1,9,3.1,2.2,2,3.3,4.9,3.3,8.6Zm-5.3.1c0-5.1-2.2-7.6-6.7-7.6h-2.7v15.5h2.2c4.8-.1,7.2-2.7,7.2-7.9Z"/><path d="m44.2,104.2h-13.7v-23.7h13.7v4.1h-8.6v5.2h8v4.2h-8v6.1h8.6s0,4.1,0,4.1Z"/><path d="m65.8,97.7c0,2.1-.8,3.8-2.3,5.1-1.5,1.2-3.7,1.8-6.4,1.8-2.5,0-4.8-.5-6.7-1.4v-4.7c1.6.7,3,1.2,4.1,1.5s2.1.4,3,.4c1.1,0,2-.2,2.5-.6.6-.4.9-1,.9-1.9,0-.5-.1-.9-.4-1.2-.3-.4-.6-.7-1.1-1s-1.5-.9-3.1-1.6c-1.5-.7-2.5-1.3-3.3-2-.7-.6-1.3-1.4-1.7-2.2-.4-.8-.6-1.8-.6-2.9,0-2.1.7-3.7,2.1-4.9,1.4-1.2,3.4-1.8,5.9-1.8,1.2,0,2.4.1,3.5.4s2.3.7,3.5,1.2l-1.6,3.9c-1.3-.5-2.3-.9-3.1-1.1s-1.6-.3-2.4-.3c-1,0-1.7.2-2.2.7-.5.4-.8,1-.8,1.7,0,.4.1.8.3,1.2.2.3.5.6,1,1,.4.3,1.5.9,3.2,1.7,2.2,1.1,3.7,2.1,4.6,3.2.7.9,1.1,2.2,1.1,3.8Z"/><path d="m71.3,104.2v-23.7h5v23.7h-5Z"/><path d="m92,90.9h9.4v12.3c-1.5.5-3,.8-4.3,1s-2.7.3-4.1.3c-3.6,0-6.3-1.1-8.2-3.2-1.9-2.1-2.8-5.1-2.8-9.1s1.1-6.8,3.3-9c2.2-2.1,5.2-3.2,9.1-3.2,2.4,0,4.8.5,7,1.5l-1.7,4c-1.7-.9-3.5-1.3-5.4-1.3-2.2,0-3.9.7-5.2,2.2-1.3,1.5-2,3.4-2,5.9s.5,4.5,1.6,5.9,2.6,2,4.6,2c1,0,2.1-.1,3.2-.3v-5h-4.5v-4Z"/><path d="m129.4,104.2h-6.4l-10.3-17.9h-.1c.2,3.2.3,5.4.3,6.8v11.2h-4.5v-23.8h6.3l10.3,17.8h.1c-.2-3.1-.2-5.3-.2-6.5v-11.3h4.5v23.7Z"/><path d="m16.7,129.6l-2.3-5.8h-7.2l-2.2,5.8h-2.2l7.2-18.2h1.8l7.1,18.2h-2.2Zm-2.9-7.6l-2.1-5.6c-.3-.7-.6-1.6-.8-2.6-.2.8-.4,1.7-.8,2.6l-2.2,5.6h5.9Z"/><path d="m42.1,129.6h-2.1l-3.7-12.2c-.2-.5-.4-1.2-.6-2-.2-.8-.3-1.3-.3-1.5-.2,1.1-.5,2.3-.9,3.6l-3.5,12.1h-2.1l-4.8-18.1h2.2l2.9,11.2c.4,1.6.7,3,.9,4.3.2-1.5.6-3,1-4.4l3.3-11h2.2l3.4,11.1c.4,1.3.7,2.7,1,4.3.2-1.2.5-2.6.9-4.3l2.9-11.2h2.2l-4.9,18.1Z"/><path d="m66,129.6l-2.3-5.8h-7.3l-2.2,5.8h-2.1l7.2-18.2h1.8l7.1,18.2h-2.2Zm-2.9-7.6l-2.1-5.6c-.3-.7-.6-1.6-.8-2.6-.2.8-.4,1.7-.8,2.6l-2.1,5.6h5.8Z"/><path d="m77.9,122.1v7.5h-2.1v-18.1h5c2.2,0,3.9.4,4.9,1.3,1.1.9,1.6,2.1,1.6,3.8,0,2.4-1.2,4-3.7,4.9l4.9,8.2h-2.5l-4.4-7.5h-3.7v-.1Zm0-1.8h2.9c1.5,0,2.6-.3,3.3-.9.7-.6,1-1.5,1-2.7s-.4-2.1-1.1-2.6-1.8-.8-3.4-.8h-2.7s0,7,0,7Z"/><path d="m111.3,120.4c0,3-.8,5.3-2.4,6.9-1.6,1.6-4,2.4-7,2.4h-5v-18.1h5.6c2.8,0,5,.8,6.6,2.3,1.4,1.5,2.2,3.7,2.2,6.5Zm-2.2.1c0-2.4-.6-4.2-1.8-5.3-1.2-1.2-3-1.8-5.3-1.8h-3v14.5h2.6c2.5,0,4.4-.6,5.7-1.9,1.2-1.3,1.8-3.1,1.8-5.5Z"/><path d="m130.4,124.8c0,1.6-.6,2.8-1.7,3.7-1.2.9-2.7,1.3-4.7,1.3-2.1,0-3.8-.3-5-.8v-2c.7.3,1.6.6,2.4.7.9.2,1.7.3,2.6.3,1.4,0,2.5-.3,3.2-.8s1.1-1.3,1.1-2.2c0-.6-.1-1.1-.4-1.5-.3-.4-.7-.8-1.3-1.1-.6-.3-1.5-.7-2.7-1.2-1.7-.6-2.9-1.3-3.6-2.1-.7-.8-1.1-1.9-1.1-3.2,0-1.4.5-2.5,1.6-3.3s2.4-1.2,4.2-1.2,3.5.3,5,1l-.7,1.8c-1.5-.6-3-.9-4.4-.9-1.1,0-2,.2-2.6.7s-.9,1.1-.9,2c0,.6.1,1.1.3,1.5.2.4.6.8,1.2,1.1.5.3,1.4.7,2.5,1.1,1.9.7,3.2,1.4,3.9,2.2.7.6,1.1,1.7,1.1,2.9Z"/><path d="m54.8,0v42.7c0,7.6-2.2,13.5-6.6,17.8-4.4,4.3-10.5,6.4-18.4,6.4s-13.6-2.1-17.9-6.4c-4.3-4.3-6.4-10.3-6.4-17.9V0h4.6v42.7c0,6.3,1.8,11.3,5.3,14.8s8.5,5.3,14.9,5.3,11.2-1.7,14.6-5.2c3.5-3.5,5.2-8.3,5.2-14.5V0h4.7Z"/><rect x="61.32" y="46.71" width="40.1" height="4.7" transform="translate(-10.86 71.89) rotate(-44.99)"/><rect x="112.22" y="29.01" width="4.7" height="40.1" transform="translate(-1.14 95.38) rotate(-45)"/><rect x="79.02" y="-4.2" width="4.7" height="40.1" transform="translate(12.63 62.19) rotate(-45.01)"/><rect x="94.54" y="13.52" width="40.1" height="4.7" transform="translate(22.33 85.66) rotate(-44.99)"/><path d="m12.9,180.8v-7.6c0-1-.2-1.7-.7-2.1s-1.1-.7-2.1-.7c-1.2,0-2.1.3-2.7,1s-.9,1.8-.9,3.3v6.2h-1.6v-11.9h1.5l.3,1.6h.1c.4-.6.9-1,1.5-1.3.7-.3,1.4-.5,2.2-.5,1.4,0,2.5.3,3.2,1s1.1,1.8,1.1,3.3v7.7h-1.9Z"/><path d="m28.7,174.9c0,1.9-.5,3.4-1.5,4.5s-2.3,1.6-4,1.6c-1.1,0-2-.2-2.8-.7s-1.4-1.2-1.9-2.1-.7-2-.7-3.2c0-1.9.5-3.4,1.4-4.5,1-1.1,2.3-1.6,4-1.6,1.6,0,3,.5,3.9,1.6,1.2,1,1.6,2.5,1.6,4.4Zm-8.9,0c0,1.5.3,2.6.9,3.4s1.5,1.2,2.7,1.2,2.1-.4,2.7-1.2.9-1.9.9-3.4-.3-2.6-.9-3.4c-.6-.8-1.5-1.2-2.7-1.2s-2,.4-2.6,1.1-1,1.9-1,3.5Z"/><path d="m47.2,180.8v-7.7c0-.9-.2-1.6-.6-2.1-.4-.5-1-.7-1.9-.7-1.1,0-1.9.3-2.5,1s-.8,1.6-.8,2.9v6.6h-1.8v-7.7c0-.9-.2-1.6-.6-2.1-.4-.5-1-.7-1.9-.7-1.1,0-1.9.3-2.5,1-.5.7-.8,1.8-.8,3.3v6.2h-1.8v-11.8h1.5l.3,1.6h.2c.3-.6.8-1,1.4-1.3.6-.3,1.3-.5,2.1-.5,1.8,0,3,.7,3.6,2h.1c.4-.6.9-1.1,1.5-1.5s1.4-.5,2.3-.5c1.3,0,2.3.3,3,1s1,1.8,1,3.3v7.7h-1.8Z"/><path d="m52.7,165.8c0-.4.1-.7.3-.9s.5-.3.8-.3.5.1.7.3.3.5.3.9-.1.7-.3.9-.5.3-.7.3c-.3,0-.6-.1-.8-.3s-.3-.5-.3-.9Zm1.9,15h-1.8v-11.8h1.8v11.8Z"/><path d="m66.6,180.8v-7.6c0-1-.2-1.7-.7-2.1s-1.1-.7-2.1-.7c-1.2,0-2.1.3-2.7,1s-.9,1.8-.9,3.3v6.2h-1.8v-11.9h1.6l.3,1.6h.1c.4-.6.9-1,1.5-1.3.7-.3,1.4-.5,2.2-.5,1.4,0,2.5.3,3.2,1s1.1,1.8,1.1,3.3v7.7h-1.8Z"/><path d="m79.5,180.8l-.4-1.7h-.1c-.6.7-1.2,1.2-1.8,1.5-.6.3-1.3.4-2.2.4-1.2,0-2.1-.3-2.7-.9-.7-.6-1-1.5-1-2.6,0-2.4,1.9-3.6,5.7-3.7l2-.1v-.7c0-.9-.2-1.6-.6-2s-1-.7-1.9-.7c-1,0-2.1.3-3.3.9l-.5-1.4c.6-.3,1.2-.6,1.9-.7.7-.2,1.4-.3,2.1-.3,1.4,0,2.4.3,3.1.9.7.6,1,1.6,1,3v8h-1.3v.1Zm-4-1.3c1.1,0,2-.3,2.6-.9.6-.6,1-1.5,1-2.6v-1l-1.8.1c-1.4,0-2.4.3-3.1.7-.6.4-.9,1-.9,1.8,0,.6.2,1.1.6,1.5.3.2.9.4,1.6.4Z"/><path d="m88.6,179.5c.3,0,.6,0,.9-.1.3,0,.5-.1.7-.1v1.4c-.2.1-.5.2-.9.2-.4.1-.7.1-1,.1-2.3,0-3.4-1.2-3.4-3.6v-7h-1.7v-.9l1.7-.7.8-2.5h1v2.7h3.4v1.4h-3.4v6.9c0,.7.2,1.3.5,1.6s.9.6,1.4.6Z"/><path d="m97.8,181c-1.7,0-3.1-.5-4.1-1.6s-1.5-2.5-1.5-4.4.5-3.4,1.4-4.5,2.2-1.7,3.8-1.7c1.5,0,2.6.5,3.5,1.5s1.3,2.3,1.3,3.8v1.1h-8.2c0,1.4.4,2.4,1,3.1.7.7,1.6,1.1,2.8,1.1,1.3,0,2.5-.3,3.8-.8v1.6c-.6.3-1.2.5-1.8.6-.6.1-1.3.2-2,.2Zm-.5-10.7c-.9,0-1.7.3-2.3.9-.6.6-.9,1.5-1,2.6h6.2c0-1.1-.3-2-.8-2.6-.5-.6-1.2-.9-2.1-.9Z"/><path d="m113.4,179.2h0c-.9,1.2-2.2,1.8-3.8,1.8-1.5,0-2.7-.5-3.6-1.6s-1.3-2.5-1.3-4.5.4-3.4,1.3-4.5,2.1-1.6,3.6-1.6c1.6,0,2.8.6,3.7,1.7h.1l-.1-.8v-5.7h1.8v16.7h-1.5l-.2-1.5Zm-3.6.3c1.2,0,2.1-.3,2.6-1s.8-1.7.8-3.2v-.4c0-1.7-.3-2.9-.8-3.6-.6-.7-1.4-1.1-2.7-1.1-1,0-1.8.4-2.4,1.2s-.8,2-.8,3.4c0,1.5.3,2.6.8,3.4s1.4,1.3,2.5,1.3Z"/><path d="m14.4,207.2H4.1v-1.5l4.1-4.2c1.3-1.3,2.1-2.2,2.5-2.7s.7-1.1.9-1.6.3-1.1.3-1.7c0-.8-.3-1.5-.8-2s-1.2-.7-2.1-.7c-.7,0-1.3.1-1.9.3s-1.2.6-2,1.2l-.8-1.3c1.4-1.2,3-1.8,4.7-1.8,1.5,0,2.6.4,3.5,1.1.8.8,1.3,1.8,1.3,3,0,1-.3,2-.8,3s-1.6,2.2-3.1,3.7l-3.4,3.4v.1h8.1v1.7h-.2Z"/><path d="m27.5,199.3c0,2.7-.4,4.7-1.3,6.1-.9,1.3-2.2,2-3.9,2s-3-.7-3.9-2.1c-.9-1.4-1.3-3.4-1.3-6s.4-4.8,1.3-6.1,2.2-2,3.9-2,3,.7,3.9,2.1c.9,1.4,1.3,3.4,1.3,6Zm-8.6,0c0,2.3.3,3.9.8,5,.5,1,1.4,1.6,2.6,1.6s2-.5,2.6-1.6c.5-1.1.8-2.7.8-5s-.3-3.9-.8-5c-.5-1-1.4-1.6-2.6-1.6s-2,.5-2.6,1.6c-.5,1-.8,2.7-.8,5Z"/><path d="m40.4,207.2h-10.3v-1.5l4.1-4.2c1.3-1.3,2.1-2.2,2.5-2.7s.7-1.1.9-1.6.3-1.1.3-1.7c0-.8-.3-1.5-.8-2s-1.2-.7-2.1-.7c-.7,0-1.3.1-1.9.3-.6.2-1.2.6-2,1.2l-.9-1.2c1.4-1.2,3-1.8,4.7-1.8,1.5,0,2.6.4,3.5,1.1.8.8,1.3,1.8,1.3,3,0,1-.3,2-.8,3s-1.6,2.2-3.1,3.7l-3.4,3.4v.1h8.1v1.6h-.1Z"/><path d="m53.4,207.2h-10.3v-1.5l4.1-4.2c1.3-1.3,2.1-2.2,2.5-2.7s.7-1.1.9-1.6.3-1.1.3-1.7c0-.8-.3-1.5-.8-2s-1.2-.7-2.1-.7c-.7,0-1.3.1-1.9.3-.6.2-1.2.6-2,1.2l-.9-1.2c1.4-1.2,3-1.8,4.7-1.8,1.5,0,2.6.4,3.5,1.1.8.8,1.3,1.8,1.3,3,0,1-.3,2-.8,3s-1.6,2.2-3.1,3.7l-3.4,3.4v.1h8.1v1.6h-.1Z"/></svg>