<svg id="Layer_1" xmlns="http://www.w3.org/2000/svg" viewBox="0 0 150 150" width="100" height="100"><path d="m72.78,2.49c15.79,0,29.85,5.44,40.95,15.82.74-9.39,8.14-16.32,18.01-16.32h.25c10.36,0,18.01,7.66,18.01,18.05v110.51c0,10.38-7.65,18.05-18.01,18.05h-.25c-9.87,0-17.27-6.92-18.01-16.32-11.1,10.38-25.41,15.82-40.95,15.82C34.05,148.11,0,116.21,0,74.92S34.05,2.49,72.78,2.49Zm2.47,111.75c21.46,0,38.49-17.8,38.49-38.82s-17.02-38.57-38.49-38.57-38.24,17.8-38.24,38.57,17.27,38.82,38.24,38.82Z" /></svg>