<?xml version="1.0" encoding="utf-8"?>
<!-- Generator: Adobe Illustrator 27.3.0, SVG Export Plug-In . SVG Version: 6.00 Build 0)  -->
<svg version="1.1" id="Layer_1" xmlns="http://www.w3.org/2000/svg" xmlns:xlink="http://www.w3.org/1999/xlink" x="0px" y="0px"
	 viewBox="0 0 150 150" style="enable-background:new 0 0 150 150;" xml:space="preserve">
<style type="text/css">
	.st0{fill-rule:evenodd;clip-rule:evenodd;}
</style>
<path class="st0" d="M90.2,40L75,7.5l-8.7,18.6L12,142.5h18.9l9.1-20.3c2.7-5.9,7.8-10.5,14.1-12.1c1.4-0.3,2.7-0.6,3.9-0.6
	c0.1,0,0.3,0,0.4,0c13.8,0.5,25,5.2,33.1,14c0.3,0.3,0.5,0.6,0.8,0.8c11.1,11.6,26.5,18.1,42.6,18.1h3.2L90.2,40z M103.5,112.4
	c-11-12-26.4-18.6-44.5-19.3c-2.1-0.1-4.1,0.1-6.1,0.5L75,44.3l32.3,72C106.1,115.1,104.8,113.8,103.5,112.4L103.5,112.4z"/>
</svg>
