<svg enable-background="new 0 0 150 150" viewBox="0 0 150 150" xmlns="http://www.w3.org/2000/svg"><path d="m57.3 109.2h-28.9c-3.8 0-6.9-3.1-6.9-6.9v-18.5c0-3.8 3.1-6.9 6.9-6.9h26.3v-19.9h-25.3c-14.6 0-26.4 11.8-26.4 26.4v19.3c0 14.5 11.8 26.3 26.4 26.3h28.3c14.6 0 26.4-11.8 26.4-26.4v-17h-19.9v16.7c0 3.8-3.1 6.9-6.9 6.9z"/><path d="m117.4 21h-26.9c-14.6 0-26.4 11.8-26.4 26.4v29.5h20.1v-28.8c0-3.8 3.1-6.9 6.9-6.9h26.3z"/><path d="m126.9 50.9v27.9c0 3.8-3.1 6.9-6.9 6.9h-26.6v20h27.2c14.6 0 26.4-11.8 26.4-26.4v-28.4z"/></svg>