<svg enable-background="new 0 0 150 150" viewBox="0 0 150 150" xmlns="http://www.w3.org/2000/svg"><path d="m89.4 48.7c-2-1.7-4.6-3.8-5.9-3.8-1.6 0-5.2 2.6-7.6 4.4-3.1 2.3-4.8 3.5-6.2 3.5-1 0-3.1 0-5.3.1-2.5.1-5.2.1-6.9.1-.6.8-1.7 3.7-3.4 13.4 8.1-9.4 20.8-16 35.3-17.7z"/><path d="m45.2 84.6c.8-4.3 2.4-8.4 4.6-12.1-.2-4.9-1.3-26.5-2.2-42.2-2.5 21.6-3.3 22.7-5.4 22.7h-7.6c-1.3 0-2.5-.8-3.9-1.6-1.4-.9-3.2-2-4.9-2s-4.1 1.2-5.9 2.2c-1.5.8-2.8 1.5-3.9 1.5h-10.7c1.9 5.9 4.9 11.5 8.7 16.4 6.2 8.3-1.2 24-5.4 28.8 12.1-.2 21.3-10.8 36.6-13.7z"/><path d="m46.4 13c.1-.8.8-1.3 1.6-1.3s1.4.6 1.6 1.4c.6 3.9 2 29.3 2.8 45.8 1.7-7.4 3.1-9.1 4.9-9.1s4.5-.1 7.1-.1c2.3-.1 4.4-.1 5.4-.1 1.5-.8 3-1.8 4.3-2.8 3.4-2.5 6.9-5 9.5-5s5.7 2.6 8.7 5.1c.5.4 1.1 1 1.8 1.5 1 0 2.1-.1 3.1-.1 1.5 0 3.1.1 4.6.2.1-1.2.2-2.5.2-3.7 0-21.7-21.9-39.3-48.9-39.3s-49.1 17.5-49.1 39.2c0 1.7.2 3.3.5 4.9h11.5c.8-.3 1.6-.7 2.3-1.1 2.1-1.1 4.8-2.6 7.4-2.6 2.7 0 4.9 1.4 6.7 2.5.7.5 1.4.9 2.2 1.2h6.8c1.2-3.2 2.8-17.6 3.6-25.6.6-5.2 1.1-9.3 1.4-11z"/><path d="m60.1 99c.8-.3 1.6-.7 2.3-1.1 2.1-1.1 4.8-2.6 7.4-2.6 2.7 0 4.9 1.4 6.7 2.5.7.5 1.4.9 2.2 1.1h6.8c1.2-3.2 2.8-17.7 3.6-25.6.6-5.2 1-9.3 1.3-11 .1-.8.8-1.3 1.6-1.3s1.4.6 1.6 1.4c.6 3.9 2 29.3 2.8 45.8 1.6-7.4 3.1-9.1 4.9-9.1s4.5-.1 7.1-.1c2.3-.1 4.4-.1 5.4-.1 1.5-.8 3-1.8 4.3-2.8 3.4-2.5 6.9-5 9.5-5s5.7 2.6 8.7 5.1c1.3 1.1 3.3 2.8 3.9 3h4.5c.8-2.6 1.2-5.3 1.2-8.1 0-21.7-21.9-39.2-48.9-39.2s-48.9 17.5-48.9 39.1c0 2.7.3 5.4 1 8z"/><path d="m136.1 115.6c3.1-4.1 5.7-8.6 7.6-13.3h-3.4c-1.6 0-3.2-1.3-5.9-3.7-2-1.7-5.1-4.4-6.6-4.4s-5.2 2.6-7.6 4.4c-3.1 2.3-4.8 3.5-6.2 3.5-1 0-3.1 0-5.3.1-2.5.1-5.2.1-6.9.1-.7.9-2.1 4.7-4.2 18.8-.3 2.3-.5 3.3-1.8 3.3h-.2c-.9-.1-1.5-.8-1.5-1.6 0-1.8-1.2-26-2.2-43.2-2.5 21.6-3.3 22.7-5.4 22.7h-7.6c-1.3 0-2.5-.8-3.9-1.6-1.4-.9-3.2-2-4.9-2s-4.1 1.2-5.9 2.2c-1.5.8-2.8 1.5-3.9 1.5h-10c6 16.2 24.7 28 46.9 28 20.1 0 30.4 14.2 44.4 14.2-4.3-4.9-11.7-20.6-5.5-29z"/></svg>