<?xml version="1.0" encoding="utf-8"?>
<!-- Generator: Adobe Illustrator 27.3.0, SVG Export Plug-In . SVG Version: 6.00 Build 0)  -->
<svg version="1.1" id="Layer_1" xmlns="http://www.w3.org/2000/svg" xmlns:xlink="http://www.w3.org/1999/xlink" x="0px" y="0px"
	 viewBox="0 0 150 150" style="enable-background:new 0 0 150 150;" xml:space="preserve">
<path d="M89.4,48.7c-2-1.7-4.6-3.8-5.9-3.8c-1.6,0-5.2,2.6-7.6,4.4c-3.1,2.3-4.8,3.5-6.2,3.5c-1,0-3.1,0-5.3,0.1
	C61.9,53,59.2,53,57.5,53c-0.6,0.8-1.7,3.7-3.4,13.4C62.2,57,74.9,50.4,89.4,48.7z"/>
<path d="M45.2,84.6c0.8-4.3,2.4-8.4,4.6-12.1c-0.2-4.9-1.3-26.5-2.2-42.2c-2.5,21.6-3.3,22.7-5.4,22.7h-7.6c-1.3,0-2.5-0.8-3.9-1.6
	c-1.4-0.9-3.2-2-4.9-2c-1.7,0-4.1,1.2-5.9,2.2c-1.5,0.8-2.8,1.5-3.9,1.5H5.3c1.9,5.9,4.9,11.5,8.7,16.4c6.2,8.3-1.2,24-5.4,28.8
	C20.7,98.1,29.9,87.5,45.2,84.6z"/>
<path d="M46.4,13c0.1-0.8,0.8-1.3,1.6-1.3c0.8,0,1.4,0.6,1.6,1.4c0.6,3.9,2,29.3,2.8,45.8c1.7-7.4,3.1-9.1,4.9-9.1
	c1.8,0,4.5-0.1,7.1-0.1c2.3-0.1,4.4-0.1,5.4-0.1c1.5-0.8,3-1.8,4.3-2.8c3.4-2.5,6.9-5,9.5-5c2.6,0,5.7,2.6,8.7,5.1
	c0.5,0.4,1.1,1,1.8,1.5c1,0,2.1-0.1,3.1-0.1c1.5,0,3.1,0.1,4.6,0.2c0.1-1.2,0.2-2.5,0.2-3.7c0-21.7-21.9-39.3-48.9-39.3S4,23,4,44.7
	c0,1.7,0.2,3.3,0.5,4.9h11.5c0.8-0.3,1.6-0.7,2.3-1.1c2.1-1.1,4.8-2.6,7.4-2.6c2.7,0,4.9,1.4,6.7,2.5c0.7,0.5,1.4,0.9,2.2,1.2h6.8
	C42.6,46.4,44.2,32,45,24C45.6,18.8,46.1,14.7,46.4,13z"/>
<path d="M60.1,99c0.8-0.3,1.6-0.7,2.3-1.1c2.1-1.1,4.8-2.6,7.4-2.6c2.7,0,4.9,1.4,6.7,2.5c0.7,0.5,1.4,0.9,2.2,1.1h6.8
	c1.2-3.2,2.8-17.7,3.6-25.6c0.6-5.2,1-9.3,1.3-11c0.1-0.8,0.8-1.3,1.6-1.3c0.8,0,1.4,0.6,1.6,1.4c0.6,3.9,2,29.3,2.8,45.8
	c1.6-7.4,3.1-9.1,4.9-9.1c1.8,0,4.5-0.1,7.1-0.1c2.3-0.1,4.4-0.1,5.4-0.1c1.5-0.8,3-1.8,4.3-2.8c3.4-2.5,6.9-5,9.5-5
	s5.7,2.6,8.7,5.1c1.3,1.1,3.3,2.8,3.9,3h4.5c0.8-2.6,1.2-5.3,1.2-8.1c0-21.7-21.9-39.2-48.9-39.2c-27,0-48.9,17.5-48.9,39.1
	c0,2.7,0.3,5.4,1,8H60.1z"/>
<path d="M136.1,115.6c3.1-4.1,5.7-8.6,7.6-13.3h-3.4c-1.6,0-3.2-1.3-5.9-3.7c-2-1.7-5.1-4.4-6.6-4.4c-1.5,0-5.2,2.6-7.6,4.4
	c-3.1,2.3-4.8,3.5-6.2,3.5c-1,0-3.1,0-5.3,0.1c-2.5,0.1-5.2,0.1-6.9,0.1c-0.7,0.9-2.1,4.7-4.2,18.8c-0.3,2.3-0.5,3.3-1.8,3.3h-0.2
	c-0.9-0.1-1.5-0.8-1.5-1.6c0-1.8-1.2-26-2.2-43.2c-2.5,21.6-3.3,22.7-5.4,22.7h-7.6c-1.3,0-2.5-0.8-3.9-1.6c-1.4-0.9-3.2-2-4.9-2
	s-4.1,1.2-5.9,2.2c-1.5,0.8-2.8,1.5-3.9,1.5h-10c6,16.2,24.7,28,46.9,28c20.1,0,30.4,14.2,44.4,14.2
	C137.3,139.7,129.9,124,136.1,115.6z"/>
</svg>
