<svg enable-background="new 0 0 150 150" viewBox="0 0 150 150" xmlns="http://www.w3.org/2000/svg"><path d="m74.9 7.5c13 .2 24.1 4.7 34 12.9 8.8 7.4 14.2 16.9 16.8 28 2.4 10.1 1.3 20.1-1.9 29.9-3.6 11.2-9.3 21.3-16.2 30.7-8.8 12-19.1 22.6-30.2 32.4-1.9 1.7-3.5 1.3-5.2-.2-10.1-9.1-19.6-18.7-27.9-29.6-7-9.2-13-19.1-17.1-30-5.2-13.8-6-27.8-.3-41.6 5.6-13.5 15.3-23 28.9-28.6 2.5-1 5.1-1.9 7.8-2.4 3.7-.7 7.6-1 11.3-1.5zm-21.9 53v16.2c0 6.4 0 5.3 5.4 5.4 4 0 4 0 4.1-4.1 0-6 0-12.1 0-18.1 0-7.2 5.2-12.5 12.3-12.7s12.6 4.9 12.8 12.1c.2 6.6.1 13.2 0 19.8 0 2 .7 3.1 2.9 2.9 1.2-.1 2.3-.1 3.5 0 2.5.3 3.1-1 3.1-3.2-.1-6.1 0-12.3 0-18.4-.1-7-2.5-13.1-8-17.6-7.2-5.9-16.9-6.6-25.2-2.2-.8.4-2.3.6-2.7.2-1.6-1.6-3.6-1.8-5.6-1.9-1.9-.1-2.6.6-2.6 2.6z"/></svg>