<?xml version="1.0" encoding="utf-8"?>
<!-- Generator: Adobe Illustrator 27.3.0, SVG Export Plug-In . SVG Version: 6.00 Build 0)  -->
<svg version="1.1" id="Layer_1" xmlns="http://www.w3.org/2000/svg" xmlns:xlink="http://www.w3.org/1999/xlink" x="0px" y="0px"
	 viewBox="0 0 150 150" style="enable-background:new 0 0 150 150;" xml:space="preserve">
<path d="M74.9,7.5c13,0.2,24.1,4.7,34,12.9c8.8,7.4,14.2,16.9,16.8,28c2.4,10.1,1.3,20.1-1.9,29.9c-3.6,11.2-9.3,21.3-16.2,30.7
	c-8.8,12-19.1,22.6-30.2,32.4c-1.9,1.7-3.5,1.3-5.2-0.2c-10.1-9.1-19.6-18.7-27.9-29.6c-7-9.2-13-19.1-17.1-30
	c-5.2-13.8-6-27.8-0.3-41.6c5.6-13.5,15.3-23,28.9-28.6c2.5-1,5.1-1.9,7.8-2.4C67.3,8.3,71.2,8,74.9,7.5z M53,60.5
	c0,5.4,0,10.8,0,16.2c0,6.4,0,5.3,5.4,5.4c4,0,4,0,4.1-4.1c0-6,0-12.1,0-18.1c0-7.2,5.2-12.5,12.3-12.7c7.1-0.2,12.6,4.9,12.8,12.1
	c0.2,6.6,0.1,13.2,0,19.8c0,2,0.7,3.1,2.9,2.9c1.2-0.1,2.3-0.1,3.5,0c2.5,0.3,3.1-1,3.1-3.2c-0.1-6.1,0-12.3,0-18.4
	c-0.1-7-2.5-13.1-8-17.6c-7.2-5.9-16.9-6.6-25.2-2.2c-0.8,0.4-2.3,0.6-2.7,0.2c-1.6-1.6-3.6-1.8-5.6-1.9c-1.9-0.1-2.6,0.6-2.6,2.6
	C53,47.9,53,54.2,53,60.5L53,60.5z"/>
</svg>
