<?xml version="1.0" encoding="utf-8"?>
<!-- Generator: Adobe Illustrator 27.3.0, SVG Export Plug-In . SVG Version: 6.00 Build 0)  -->
<svg version="1.1" id="Layer_1" xmlns="http://www.w3.org/2000/svg" xmlns:xlink="http://www.w3.org/1999/xlink" x="0px" y="0px"
	 viewBox="0 0 150 150" style="enable-background:new 0 0 150 150;" xml:space="preserve">
<path d="M128.1,44.8c0.6,4.8,7.8,11.2,9.8,11c1.3-0.1,1.8-6.2,1.8-11c0-2.7,0.2-4.9-1.3-5.4C136.1,44,130,45,128.1,44.8L128.1,44.8z
	 M128.5,42.6c5.2,0,10-4.2,10-7.8c0-1.7-0.8-3.1-2.9-3.4c0.4,0.5,0.5,0.8,0.5,1.6c0,2.8-4.2,5.8-8.8,5.8c-1.7,0-2.1,1.2-2.1,1.7
	C125.2,42.1,126.5,42.6,128.5,42.6L128.5,42.6z M127.4,37c-0.7,0-1.7,0-2.3-1.1c-0.2-0.4-0.3-0.8-0.4-1.2c-0.1-0.7-0.3-1.4-0.8-1.8
	c0.9,0.3,1.7,0.3,2.4,0.3c2.3,0,4.4-1.6,6.1-1.6c1.1,0,1.4,0.7,1.4,1.4C134,35.2,129.5,37,127.4,37L127.4,37L127.4,37z M15.2,76.3
	c1.7,0,1.4-10.4,4.1-10.4c0.6,0,0.8,0.6,0.8,1.5c0,2.4-1.2,5.8-1.2,7.7c0,1,0.3,1.3,0.7,1.3c1.2,0,3.3-11.5,5.4-11.5
	c0.6,0,1,0.6,1,1.3c0,2.4-3.1,9.3-3.1,11.3c0,0.3,0.1,0.6,0.3,0.6c1.3,0,3.8-5.4,4.6-8.1c0.5-1.4,1.1-2.2,1.6-2.2c0.5,0,1,0.6,1,1.7
	c0,2.7-2.5,9.1-4.7,13.3c-1.7,3.3-4.4,8.1-4.4,10.7c0,1.3,0.3,2.8,2.2,4.4c-3.2-0.2-4.5-0.5-5.7-3c-5.4,10.7,9.9,9.6,4.7,19.1
	c-0.9-1.7-8.5-3.4-8.5-13.4c0-8.6,7.5-13.6,7.5-17.1c0-0.4-0.1-0.7-0.2-1c-0.2-0.3-0.4-0.6-0.7-0.8c-1.7-1.4-1.7-2.6-3-2.6
	c-0.9,0-2.1,2.2-0.9,4.2c0.4,0.6,0.8,1,0.8,1.7c0,1.4-2.2,5.2-3.8,5.1c-1.6,0-2.7-3.8-2.7-10.1c0-5.5,1.3-11.1,2.8-11.1
	c0.5,0,0.6,0.3,0.6,0.7c0,0.6-0.2,2-0.2,4.2C14.2,76.2,14.7,76.4,15.2,76.3L15.2,76.3z M28,91c2.1,0,3.8-1.6,3.8-5v-5.1
	c0-2,0.2-4.2,1.5-5.7c-0.2,0.6-0.2,1.3-0.2,2c0,4.3,2.4,7.3,2.4,11.4c0,1.6-0.5,2.4-1.6,2.4c-1.2,0-1-1-1.3-1
	c-0.2,0-0.5,0.6-0.5,1.3c0,1,0.8,2.7,2.8,2.7c1.8,0,3.3-1.6,3.3-3.5c0-4.5-3.5-9.5-3.5-14.3c0-2.1,0.6-3.5,1-4.6
	c0,10,8.5,17.2,8.5,21.4c0,0.2,0,0.5-0.1,0.7c-0.1,0.2-0.2,0.4-0.4,0.6c-0.2,0.2-0.4,0.3-0.6,0.4c-0.2,0.1-0.4,0.1-0.7,0.1
	c-0.2,0-0.4,0-0.6-0.1c-0.2-0.1-0.4-0.2-0.5-0.3c-0.2-0.2-0.3-0.3-0.4-0.5c-0.1-0.2-0.1-0.4-0.1-0.6c0-0.4-0.1-0.5-0.2-0.5
	c-0.3,0-1.2,1-1.2,2.3c0,1.7,1.3,3.7,3.8,3.7c2.9,0,4.4-2.4,4.4-4.6c0-5.3-10.3-13.2-10.3-21.8c0-1.5,0.2-3.8,1.3-5.6
	c-6.6,4.3-8.7,9.9-8.7,14.9c0,4.3-0.2,6.5-2.4,6.5c-1.2,0-1.5-1-1.9-1c-0.3,0-0.5,0.9-0.5,1.2C25.2,89.9,26.5,90.9,28,91L28,91
	L28,91L28,91z M119.1,33.6c-1,0-2.6,1.1-3.8,1.1c-1.6,0-1.1-2-2.9-2c-0.5,0-0.9,0.1-1.3,0.4c-3.6,1.8-6.5,1.1-7.1,1.6
	c-0.2,0.1-0.3,0.2-0.3,0.5c0,3.8,4,9.6,10.7,9.6c4.6,0,8.4-1.6,8.4-4.1C122.7,38.3,120.6,33.6,119.1,33.6L119.1,33.6z M114.9,40.9
	c-3.7,0-6.1-2-6.1-3.3c0-0.2,0.1-0.3,0.3-0.3c0.6,0,2.2,0.8,4.3,1.2c2.4,0.4,3.8,0.5,4.4,0.5c0.6,0,0.9,0.2,0.9,0.3
	C118.8,39.9,117.1,40.9,114.9,40.9L114.9,40.9z M29.1,109.9c-1.6,0.4-4.3,3-4.3,7.1c0,4.9,5.3,12.5,13.9,12.5c7.3,0,9.1-5.1,9.1-8.5
	c0-7.6-4.7-12.9-10.7-12.9c-3.3,0-6.3,2.4-6.3,6c0,3.3,2.5,8.3,8.5,8.3c2.8,0,4.5-2,4.5-4.3c0-2.3-2-5.4-5.1-5.4
	c-0.9,0-1.6,0.6-1.6,1.6c0,1.2,1.7,2.4,3.7,2.4c0.5,0,0.9-0.1,1.1-0.2c0.1,0.1,0.1,0.4,0.1,0.6c0,1.2-1.1,1.9-2.8,1.9
	c-2.6,0-5-1.9-5-4.9c0-1.8,1.6-3.1,3.8-3.1c4.5,0,7.1,4,7.1,7.9c0,3.6-2,5.6-6,5.6C31.2,124.5,27.3,117.2,29.1,109.9L29.1,109.9z
	 M91.2,125.9c-0.5-1-0.1-2.6-1.6-2.6c-1,0-1.1,0.8-1.2,1.5c-2.2-0.6-4-0.9-5.6-0.9c-1.2,0-2.2,0.2-3,0.5c-0.6-1-3-3-5.2-3.7
	c-0.8,4.5-4.9,8.1-10.9,8.6c-0.3,3-2.7,3.7-4.5,3.7c-1.3,0-3.4-0.4-3.5-0.9c-0.7-4.3-3.9-6.6-5.3-7.2c0.1,0.5,0.1,0.9,0.1,1.4
	c0,3.6-2.5,5.9-7.1,5.9c-0.8,0-1.6-0.1-2.4-0.2c5.3,5.9,9,3.7,11.5,4.8c3.2,1.5,5.8,5.9,16.1,5.9c3.7,0,7.6-1.5,10.1-3.1
	c0.5,1.5,2,2.9,4.6,2.9c4.4,0,6.8-1.3,6.8-2.5c0-0.3,0-0.8-0.8-0.8s-0.6,0.2-3,0.2c-2.8,0-7.3-1.1-9.4-5.9c-0.4-0.8-1-0.8-1.2-0.8
	c-1.4,0-3.6,5-12.4,5c-3.7,0-5.4-1.4-5.4-1.7c0-0.1,0-0.1,0.2-0.1c0.3,0,1.7,0.2,3.4,0.2c5.6,0,10.1-2.6,12.8-5.5
	c0.9-1.1,1.4-1.2,2.2-1.2c0.7,0,1.5,0.6,1.8,1.6c1.2,3.2,4.1,5.8,7.2,5.8c4.2,0,4.3-7.2,5.3-7.6c0.2,0.1,0.4,0.1,0.6,0.1
	c0.5,0,1.3-0.4,1.3-1.3C92.7,126.6,91.5,126.4,91.2,125.9L91.2,125.9z M84.4,131.3c-0.5,0-1-0.2-1.4-0.6c-0.4-0.4-0.6-0.9-0.6-1.4
	c0-1.1,0.9-2,2-2c1.1,0,2,0.9,2,2c0,0.3,0,0.5-0.2,0.8c-0.1,0.2-0.3,0.5-0.4,0.7c-0.2,0.2-0.4,0.3-0.7,0.4
	C84.9,131.2,84.7,131.3,84.4,131.3L84.4,131.3z M120.5,102.1c-7.4,0-5.5,6.5-14.1,8.4c-1.6,0.3-2,0.9-2,1.6c0,1.3,0.7,3,1.6,3
	c3.7,0,9.6-7.8,10.6-7.8v-0.1c0.4,0,0.9,0.1,0.9,1.1c0,2.8-8.1,6.5-8.1,8.5c0,1.2,2.9,3.8,5.7,3.8c4.1,0,7.7-8.3,8.6-8.3
	c0.7,0,0.9,0.5,0.9,1c0,2.3-2.7,6.7-7.6,8.6c-1,0.4-1.2,0.9-1.2,1.2c0,1.1,1.3,2.7,2.4,2.7c1.4,0,10.8-8.2,10.8-14.8
	C129.1,104.9,124.6,102.1,120.5,102.1L120.5,102.1z M123.9,109.3c-0.5,0-1-0.1-1.5-0.4c-0.6-0.3-1.8-1.3-1.8-2.7
	c0-1.3,0.8-1.9,1.5-1.9c2.2,0,4.4,1.9,4.4,3.4C126.6,108.9,125.4,109.3,123.9,109.3L123.9,109.3z M28.5,46.2c0,0.5,0.2,1,0.6,1.4
	c0.4,0.4,0.9,0.6,1.4,0.6c0.5,0,1-0.3,1.4-0.6c0.4-0.4,0.6-0.9,0.6-1.4c0-0.5-0.2-1-0.6-1.4c-0.4-0.4-0.8-0.6-1.4-0.6
	c-0.5,0-1,0.2-1.4,0.6C28.7,45.1,28.4,45.6,28.5,46.2L28.5,46.2L28.5,46.2z M25.9,41.7c0,1.1,0.9,2,2,2c0.5,0,1-0.2,1.4-0.6
	c0.4-0.4,0.6-0.9,0.6-1.4c0-1.1-0.9-2-2-2C26.7,39.6,25.9,40.6,25.9,41.7z M24,55.4c-1.2,0.3-3.5,1.7-3.5,4.2c0,1.8,1.4,3,3.2,3
	c0.9,0,1.6-0.2,2-0.5c-0.6-0.6-1.1-1.2-1.4-2c-0.3-0.8-0.5-1.6-0.5-2.4C23.7,56.7,23.9,56,24,55.4L24,55.4z M11.7,56.1
	c-0.1,0.2-0.1,0.5-0.1,0.7c0,2.4,1.2,3.7,2.9,3.7c1.2,0,2.7-0.8,4-2.4c-0.6,0.1-1.2,0.2-1.8,0.2C15,58.3,12.9,57.8,11.7,56.1
	L11.7,56.1z M10,60.6c0,3.8,1.2,5.6,3.2,5.6c1.6,0,3.8-1.2,6.3-3.4c-2,0.5-3.5,0.8-4.8,0.8C12.9,63.6,11.5,62.9,10,60.6L10,60.6z
	 M23,40.5c0.3-0.9,0.5-1.9,0.5-2.9c0-2.4-1.1-6.1-4.5-6.1c-0.4,0-0.9,0.1-1.3,0.3c-0.4,0.2-0.8,0.4-1.1,0.7
	c-0.3,0.3-0.6,0.7-0.7,1.1c-0.2,0.4-0.2,0.9-0.2,1.3C15.6,39,19.6,40.5,23,40.5L23,40.5z M25.5,45.6c-0.6-0.9-0.4-1.6-0.8-2
	c-0.2-0.2-0.9-0.2-1.9-0.3c-0.4,0-0.7-0.1-1.1-0.1c-1.6,0-3.6,0.2-5.8,1.6c-4.3,2.7-3.7,7.4-4.4,8.5c-0.1,0.2-0.1,0.4-0.2,0.6
	c0,0.5,0.5,1,1,0.9c0.4,0,0.6-0.1,0.9-0.1c1.2,0,2.6,0.8,4.5,0.9c1.2,0,2.5-0.3,4.2-1.2c3.6-1.8,5-6.3,5-7
	C26.9,46.3,26.2,46.4,25.5,45.6L25.5,45.6z M18.7,53.2c-1.6,0-3.4-2-3.4-3.9c0-1,0.8-2.3,1.3-2.3c0.2,0,0.3,0.1,0.3,0.5
	c0.3,2.5,1.9,3.8,3.4,4.6c0.2,0.1,0.3,0.1,0.3,0.2C20.6,52.6,19.6,53.1,18.7,53.2z M23.4,50.1c-1.7,0-3.2-2.7-3.2-4.2
	c0-0.9,0.6-1,1.3-1c0.3,0,0.5,0.1,0.8,0.2c0.4,0.2,0.4,1.2,1,2c0.3,0.5,1.3,1,1.3,1.4C24.6,49.2,24.2,50.1,23.4,50.1z M28.2,51.3
	C27.1,52.5,26,54.8,26,57c0,2.7,1.7,5,4.3,5c2.4,0,3.6-2.1,3.6-4.3C33.8,54.3,30.7,52,28.2,51.3L28.2,51.3z M17.5,41.6
	c0,0-1.5,1.1-3.3,1.1c-0.5,0-1-0.1-1.5-0.3c-0.5-0.2-0.9-0.5-1.3-0.8c-0.4-0.4-0.6-0.8-0.8-1.3c-0.2-0.5-0.3-1-0.3-1.5
	c0-0.9,0.2-1.7,0.7-2.4c0.5-0.7,1.2-1.3,1.9-1.6C13,35.2,13,35.5,13,35.8C13,38.6,14.5,40.8,17.5,41.6L17.5,41.6z M105.9,58.2
	c0,1.2,1,2.1,2.1,2.1c0.5,0,1-0.3,1.4-0.7c0.4-0.4,0.6-0.9,0.6-1.4c0-0.5-0.2-1-0.6-1.4c-0.4-0.4-0.9-0.6-1.4-0.7
	c-0.6,0-1.1,0.2-1.5,0.6S105.9,57.7,105.9,58.2L105.9,58.2z M106,64.6c0,1.3,1,2.4,2.4,2.4c0.6,0,1.2-0.3,1.7-0.7
	c0.4-0.4,0.7-1,0.7-1.7c0-0.6-0.2-1.2-0.7-1.7c-0.4-0.4-1-0.7-1.7-0.7c-0.6,0-1.2,0.3-1.7,0.7C106.3,63.4,106,63.9,106,64.6
	L106,64.6z M98.8,68.8c0,0.7,0.2,1.4,0.6,1.9c0.4,0.6,0.9,1,1.6,1.3c0.6,0.3,1.3,0.3,2,0.2c0.7-0.1,1.3-0.5,1.8-1
	c0.5-0.5,0.8-1.1,1-1.8c0.1-0.7,0.1-1.4-0.2-2c-0.3-0.6-0.7-1.2-1.3-1.6c-0.6-0.4-1.2-0.6-1.9-0.6c-0.9,0-1.8,0.4-2.4,1
	C99.2,67.1,98.8,67.9,98.8,68.8L98.8,68.8z M100.7,61.7c0,0.5,0.2,1,0.6,1.4c0.4,0.4,0.9,0.6,1.4,0.6c1.1,0,2-0.9,2-2
	c0-1.1-0.9-2-2-2c-0.5,0-1,0.2-1.4,0.6C100.9,60.7,100.7,61.2,100.7,61.7L100.7,61.7z M94.1,65.8c0,0.5,0.3,1,0.6,1.3
	c0.4,0.4,0.9,0.5,1.4,0.5c0.5,0,1-0.2,1.4-0.6c0.4-0.4,0.6-0.8,0.6-1.4c0-0.5-0.2-1-0.6-1.4s-0.9-0.6-1.4-0.6c-0.5,0-1,0.2-1.4,0.6
	C94.3,64.8,94.1,65.3,94.1,65.8L94.1,65.8z M99.3,54c0,1.7,1.5,3.2,3.2,3.2c1.7,0,3.2-1.5,3.2-3.2c0-1.7-1.5-3.2-3.2-3.2
	c-0.8,0-1.7,0.4-2.3,1C99.6,52.4,99.3,53.2,99.3,54z M103,47.9c0,0.3,0.1,0.5,0.1,0.7c0.1,0.2,0.2,0.4,0.4,0.6
	c0.2,0.2,0.4,0.3,0.6,0.4c0.2,0.1,0.5,0.1,0.7,0.1c0.5,0,1-0.2,1.4-0.6s0.6-0.8,0.6-1.4c0-0.5-0.2-1-0.6-1.4s-0.8-0.6-1.4-0.6
	C103.9,46,103,46.8,103,47.9L103,47.9z M93.9,52.7c0,1,0.8,1.9,1.9,1.9c0.5,0,1-0.2,1.4-0.6c0.4-0.4,0.6-0.8,0.6-1.4
	c0-0.5-0.2-1-0.6-1.4c-0.4-0.4-0.8-0.6-1.4-0.6c-0.5,0-1,0.2-1.3,0.6C94.1,51.7,93.9,52.2,93.9,52.7L93.9,52.7z M93.7,59.2
	c0,1.7,1.3,3.1,3,3.1c0.4,0,0.8-0.1,1.2-0.2c0.4-0.2,0.7-0.4,1-0.7c0.3-0.3,0.5-0.6,0.7-1c0.2-0.4,0.2-0.8,0.2-1.2
	c0-0.4-0.1-0.8-0.2-1.2c-0.2-0.4-0.4-0.7-0.7-1c-0.3-0.3-0.6-0.5-1-0.7c-0.4-0.2-0.8-0.2-1.2-0.2c-0.4,0-0.8,0.1-1.2,0.2
	c-0.4,0.2-0.7,0.4-1,0.7c-0.3,0.3-0.5,0.6-0.6,1S93.7,58.8,93.7,59.2z M87.4,62.4c0,1.5,1.3,2.8,2.8,2.9c0.8,0,1.5-0.3,2-0.8
	c0.5-0.5,0.8-1.3,0.8-2c0-0.8-0.3-1.5-0.8-2c-0.5-0.5-1.3-0.8-2-0.8c-0.8,0-1.5,0.3-2,0.9C87.7,60.9,87.4,61.7,87.4,62.4z
	 M89.1,55.3c0,1.1,0.9,2,2,2c1.1,0,2-0.9,2-2s-0.9-2-2-2c-0.3,0-0.5,0.1-0.8,0.2c-0.2,0.1-0.5,0.3-0.6,0.4c-0.2,0.2-0.3,0.4-0.4,0.7
	C89.1,54.8,89.1,55.1,89.1,55.3L89.1,55.3L89.1,55.3L89.1,55.3z M106.7,70.8c0-1,0.9-1.9,1.9-1.9c1.1,0,1.9,0.8,1.9,1.9
	c0,1.2-0.9,2-2,1.9c-0.2,0-0.5-0.1-0.7-0.2c-0.2-0.1-0.4-0.2-0.6-0.4c-0.2-0.2-0.3-0.4-0.4-0.6C106.7,71.3,106.7,71.1,106.7,70.8
	L106.7,70.8z M108.4,123.5c0.4-0.4,0.5-0.9,0.5-1.5v-1.2c0-1.5-2.2-2.3-5.2-2.3c-3.7,0-5.6,1.6-5.6,2.3v2.3c0,1,2.2,1.9,5,1.9
	C105.1,125.2,107.1,124.6,108.4,123.5L108.4,123.5z M111,124c-2.7,2.1-6,3.3-9.4,3.3c-2.7,0-3.9-0.9-4.3-0.9c-0.5,0-1,0.5-1.6,1.2
	c-1.2,1.4-2.7,4-2.7,6.9c0,2,1.5,4,4.4,4c9.4,0,16.4-5.9,16.4-10.6C113.8,125.2,112.1,124,111,124z M106.3,133.2
	c-1.3,0.9-3,1.6-5.5,1.6c0.4-1.2,0.7-2.4,0.7-3.7c0-0.4-0.1-0.7-0.1-1.2h0.6c3.9,0,5.7-1.6,5.9-1.6c0.2,0,0.6,0.1,0.6,1
	C108.5,130.6,108,132.1,106.3,133.2z M112.7,81.9c0,1.2,0.4,2.7,1.7,2.7c1,0,2-1.6,2-3.4c0-2-0.3-3.5-0.3-4.4c0-0.3,0.2-0.5,0.3-0.5
	c0.8,0.1,1.5,2.1,2.3,2.1c0.9,0,2.3-1.7,2.8-1.7c0.2,0,0.2,0.2,0.2,0.2c0,0.8-1.2,2.4-1.2,3.1c0,0.6,2.9,0.6,2.9,1.2
	c0,0.8-3,0.8-4.5,1.4c-1.4,0.6-2.3,1.4-2.3,2.4c0,1,1,1.2,2.5,1.2c3.4,0,5.7-1.8,6.5-1.8c0.2,0,0.3,0.1,0.3,0.2
	c0,0.5-1.7,2.2-1.7,2.9c0,0.8,3.1,1.9,3.1,2.4c-0.1,0.2-0.2,0.2-0.6,0.2c-0.6,0-1.4-0.2-2.1-0.2c-0.4,0-0.8,0.1-0.9,0.2
	c-0.3,0.4,0.1,3.1-0.6,3.1c-0.6,0-2.4-5.9-6.2-5.9c-0.6,0-0.9,0.5-0.9,1.2c0,2,1.9,4.3,3.8,5.4c0.8,0.6,2.3,1.1,2.3,1.4
	c0,0.6-3.2,0.1-3.2,1.1c0,0.9,0.4,2.3,0.4,3.1c0,0.2-0.1,0.5-0.3,0.6c-0.6,0-2.1-2.7-2.8-2.7c-0.6,0-1.9,1.6-2.4,1.6
	c-0.1,0-0.2-0.2-0.2-0.3c0-1.2,1.9-3.8,1.9-6.3c0-1.2-0.2-3.8-1.6-3.8c-1.2,0-2.6,1.9-3.2,3.8c-0.3,1.1-0.1,5.4-0.9,5.4
	c-0.8,0-0.6-2.9-1.6-2.9c-0.8,0-2.3,1.3-2.9,1.3c-0.1,0-0.2-0.1-0.2-0.2c0-0.6,1.5-2.6,1.5-3c0-0.8-3.3-0.9-3.3-1.5
	c0-0.4,1.3-0.6,2.5-0.8c2.6-0.5,6.3-2.3,6.3-4.9c0-2.9-2.8-4.2-4.7-5.4c-0.9-0.6-2-1.1-2-1.5c0-0.4,1.2-0.4,1.7-0.4
	c0.8,0,1.5-0.1,1.5-0.6c0-0.5-0.1-1.3-0.1-2c0-0.5,0.1-0.9,0.2-0.9c0.8,0,1.8,2.4,2.3,2.4c0.8,0,1.9-2,2.7-2c0.2,0,0.3,0.1,0.3,0.6
	C113.7,77.9,112.7,80.1,112.7,81.9L112.7,81.9z M88.8,67.2c0.6,4.3,6.3,2.1,6.3,7.3c0,0.8-0.2,1.9-0.2,2.8c0,1.1,0.1,2,1,2
	c0.9,0,1-0.6,1-1.4c0-0.8-0.2-1.8-0.2-2.4c0-1.7,1.3-2.2,2-2.2c1.9,0,3.3,1.9,6.2,2c-0.6,3.2-7.3,2.4-7.3,5.9c0,1.7,1.7,2.2,2.9,2.2
	c1,0,1.4-0.2,1.4-1.1c0-0.5-0.1-1-0.1-1.4c0-0.2,0.2-0.4,0.4-0.4c1.1,0,6.5,4.1,6.5,5.4c0,1.2-5.7,2.3-7.4,2.3
	c-0.5,0-0.6-0.3-0.6-0.5c0-0.3,0.9-1.4,0.9-2c0-0.5-0.8-0.8-2.8-0.8c-0.9,0-1.7,0.1-1.7,0.9c0,1.3,2.2,3,2.2,4.3
	c0,1-0.6,1.6-2.2,1.6c-1.3,0-3.4-1.1-3.4-2.8c0-1.4,1.5-2.8,1.5-3.7c0-0.2-0.2-0.6-0.8-0.6c-1.9,0-2.4,4.9-8.9,5.5
	c1.1-0.9,2-2,2-4.2c0-1.1-0.2-1.9-0.2-3.1c0-1.5,0.7-2.3,1.7-2.3c1.9,0,2.8,2.6,4,2.6c0.6,0,1.4-0.6,1.4-1.5c0-3.8-7.3-3.3-7.3-8.6
	C87,71.5,87.5,69.7,88.8,67.2L88.8,67.2z M105.7,98.5c0.3,0.6,0.5,1.1,0.5,1.6c0,1.4-0.9,2.7-0.9,4.2c0,1.7,1.3,3,3.2,3
	c2,0,3.5-1.6,3.5-3.6C111.8,100.9,109.4,98.7,105.7,98.5z M89.1,101.7c0.5,0.5,0.6,1,0.6,1.5c0,0.8-0.3,1.6-0.3,2.4
	c0,0.3,0,0.6,0.1,0.9c0.1,0.3,0.3,0.5,0.5,0.7c0.2,0.2,0.4,0.4,0.7,0.5c0.3,0.1,0.6,0.2,0.9,0.2c0.3,0,0.6-0.1,0.9-0.2
	c0.3-0.1,0.6-0.3,0.8-0.5c0.2-0.2,0.4-0.5,0.5-0.8c0.1-0.3,0.2-0.6,0.2-0.9C93.9,103.5,92,101.7,89.1,101.7L89.1,101.7L89.1,101.7z
	 M90.3,95.7c2.3,0.3,2.9,1.1,2.9,1.7c0,1.1-1,1.5-2,1.5c-0.7,0-1.5-0.2-2.4-0.2c-1.1,0-2.2,0.2-3.1,1.3c0.6,0.1,1.6,0.6,1.6,1.6
	c0,2.9-8.1,0.5-8.1,8c0,4,4.1,8.3,10.4,8.3c3.2,0,5.3-1.1,5.3-2.3c0-0.9-1.7-0.3-1.7-1.1c0-0.3,0.6-1,0.6-1.6c0-0.2-0.2-0.7-0.6-0.7
	c-0.9,0-2.6,1.5-6.1,1.5c-2.7,0-5.4-1.6-5.4-3.7c0-0.5,0.2-0.7,0.5-0.7c0.3,0,0.7,0.2,1,0.2c0.3,0,0.3-0.2,0.3-0.8
	c0-0.6,0-2.1,0.9-2.1c0.9,0,2.8,3.5,9.7,3.5c2.3,0,6.7-0.4,8.4-2c-0.1,5.5-4.4,12.8-13.4,12.8c-9.4,0-14.4-7.5-14.4-14.4
	c0-3.9,1.6-7.6,4.4-10.4c2.8-2.7,6.5-4.3,10.5-4.3c2.2,0,4,0.8,4,1.7C93.8,95,90.5,94.2,90.3,95.7L90.3,95.7z M95.7,93.1
	c0.6,0.7,0.9,1.6,0.9,2.6c0,2.2-1.6,4.4-1.6,6.5c0,2.8,1.9,4.6,4.4,4.6c2.8,0,4.4-2.4,4.4-4.9C103.8,98,101,94.1,95.7,93.1
	L95.7,93.1z M99.6,101c-0.7-0.1-1.2-0.6-1.2-1.3c0-0.4,0.2-1,0.3-1.5c0.1-0.7-0.1-1.3,0.3-1.3c0.9,0,1.9,1.5,1.9,2.5
	C100.9,100.3,100.4,101,99.6,101L99.6,101z M57.8,38.5c-2.6,0.1-4.9,2.2-6.5,5c0.1-0.6,0.2-1.1,0.2-1.7c0-3.9-2.1-7.4-6.1-7.4
	c-3.2,0-6.1,1.9-7.3,5.5c0.6-0.6,1.4-0.9,2.3-1c1,0,1.3,0.9,1.3,2.2c0,0.9-0.2,2-0.6,3c-0.6,1.6-1.7,2.2-2.3,2.2
	c-2.5,0-1.4-4.1-2.6-4.1c-1,0-1.3,2.2-1.3,3.1c0,2.9,1.9,5.9,6,5.9c4.4,0,6.8-2.1,9.5-4.9c0.5,3,2.2,8.2,6.6,8.2
	c2.4,0,4.1-2,4.3-4.3c-0.3,0.3-0.8,0.5-1.3,0.5c-0.9,0-1.1-1.3-1.1-2.5c0-1.9,0.5-3.8,1.4-3.8c0.5,0,0.7,0.3,0.8,1.6
	c0.1,1.1,0,2.2,0.6,2.2s1.1-2.1,1.1-3.5C62.7,41.3,61.2,38.5,57.8,38.5L57.8,38.5z M43,48.2c-0.4,0-0.5-0.4-0.6-0.8
	c0-2,2.1-10.7,3.7-10.7c0.4,0,0.5,0.3,0.5,0.7C46.6,39,44.7,48.2,43,48.2z M49.7,44.4c-1.3,1.5-2,2-2.6,2c-0.3,0-0.6-0.5-0.6-1.1
	c0-1.1,0.8-5.1,2.3-5.1c0.6,0,1,1.1,1,2.1C49.8,43.2,49.8,43.8,49.7,44.4L49.7,44.4z M52.6,47.9c-0.5,0-0.8-0.8-0.9-2.6
	c0.8-1.3,1.3-1.9,1.9-1.9c0.2,0,0.4,0.2,0.4,1v0h0C54,46.2,53.2,47.9,52.6,47.9L52.6,47.9z M55.3,51c-0.3,0-0.6-0.4-0.5-1.5
	c0-2.7,1.7-7.7,2.8-7.7c0.3,0,0.4,0.7,0.4,1.4C58,46.1,56.5,51,55.3,51L55.3,51z M48.5,52c-2.2,0-2.3,2.6-2.3,7.9
	c-1.6-3.5-4.3-7.2-7.4-7.2c-2.1,0-2.9,1.4-2.9,3.8c0,0.5,0.1,1.3,0.1,1.7c0.2-0.9,1-1.2,2-1.2c2.2,0,4.8,1.7,6.5,3.9
	c-2-0.3-3.9-0.7-5.5-0.7c-1,0-1.9,0.1-2.7,0.5C35,61.4,33,63.5,33,66.8c0,0.5,0.1,1,0.1,1.6c1.7-3.9,6.4-5.7,9.4-5.7
	c0.6,0,1,0.1,1.4,0.1c-1.6,1.4-1.9,3.8-2,5.5c-0.1,0.8-0.3,0.9-0.9,0.8c0,1.7,1.3,4.1,1.3,5.4c0,0.5-0.2,0.9-0.5,0.9
	c0,2.2,2.2,3.8,2.2,5.2c0,0.3-0.1,0.6-0.2,0.8c0.2,0.9,2.6,2.5,2.9,3.2c0.4,0.9,0.8,1.1,1.1,1.1c0.9,0,2.2-1,2.2-1.9
	c0-0.3-0.2-0.6-0.5-0.8c-0.9-0.7-1.5-2.2-1.9-3.2c-0.4,0-0.8-0.1-1-0.7c-0.3-1-0.3-3-0.7-4.1c-0.6-0.2-0.9-0.4-0.9-1.7
	c0-0.6,0.4-3.2,0.4-4.1c-0.3,0-0.7-0.2-0.7-0.8c0-1.6,1.6-2.9,2-4.9c2.9,2.1,3.5,4.2,3.5,6.2c0,1-0.2,2-0.3,2.9
	c2.1-1,5.3-2.6,5.3-5.8c0-1.9-0.9-3.9-6.5-4.7c1.9-0.7,3.8-1,5.8-1c3.2,0,5.1,1,5.5,3.3c0.7-1,1.2-2.2,1.2-3.2c0-2.4-2-4.1-4.7-4.1
	c-3.1,0-5.8,1.6-8.7,3.5c1.3-2.7,2.2-4.3,3.8-4.3c0.2,0,0.5,0.1,0.8,0.1C51.9,54.2,49.6,52,48.5,52L48.5,52z M132.9,88.1
	c2.5,0,4.5,3.3,4.5,7.1c0,4.1-1.9,8.5-5.3,11.5c-0.1-6.7-8.3-4.6-8.3-9.5c0-2.1,1.5-3.5,3.3-3.5c1.6,0,2.8,0.5,3.8,1.3
	c-0.4-0.4-0.8-0.9-1-1.5c-0.2-0.6-0.3-1.1-0.3-1.7C129.5,89.9,130.7,88.1,132.9,88.1L132.9,88.1z M95.7,36.9c-0.4-0.6-1.9-1-2.6-1
	c-2.2,0-3.7,1.6-4,3c-0.2-0.5-0.3-1.1-0.3-1.7c0-2.2,1.5-4.9,5.2-4.9c3.2,0,4.4,1.7,4.9,1.7c0.5,0,1-0.5,1.4-0.5
	c0.5,0,0.6,0.8,0.6,1.4c0,2-0.9,5.5-3.2,6.8c-0.5-1.1-1.4-1.9-2.5-2.4c-0.2-0.1-0.3-0.2-0.4-0.3c-0.1-0.1-0.1-0.3-0.1-0.5
	c0-0.3,0.2-0.6,0.4-0.9C95.2,37.2,95.4,37,95.7,36.9L95.7,36.9z M88.2,40.5c1.3,1.3,2.4,1.8,3.8,1.8c0.6,0,1.2-0.2,1.6-0.2
	c0.5,0,0.8,0.2,0.8,0.6c0,0.6-0.5,1.5-1.1,2c0.6,0.3,1.3,0.3,1.9,0.3c2.9,0,6.1-1.8,6.1-6.3c0.6,0.8,1,2.4,1,3.2
	c0,5.5-4,7.6-7.7,7.6c-2.4,0-3.6-0.8-3.9-0.8c-0.9,0-0.9,1.9-1.6,1.9c-1.2-0.2-2.2-2.7-2.2-5.5C86.9,43.4,87.3,41.7,88.2,40.5
	L88.2,40.5L88.2,40.5L88.2,40.5z M45.3,8.6c0-0.3-1.5-0.6-3.6-0.6c-3.3,0-2.8,2.7-5.3,2.7c-2.6,0-2-2.8-5.3-2.8
	c-2,0-3.8,0.3-3.8,0.8c0,0.6,2.4,0.3,2.4,2c0,1.7-5.1,2.3-5.1,3.3c0,0.3,0.4,0.5,0.9,0.5c1.1,0,2.9-0.5,4.1-0.5
	c0.7,0,1.4,0.1,1.4,0.8c0,1.3-2.7,3.5-2.7,4.5c0,0.3,0.3,0.4,0.5,0.4c1,0,2.7-2.6,4.3-2.6c2.7,0,0.9,5.7,2.4,5.7
	c1.5,0,0.9-5.6,3-5.6c1.7,0,3.1,3.8,4.3,3.8c0.3,0,0.5-0.2,0.5-0.6c0-1.1-1.5-3.2-1.5-4.6c0-0.9,0.6-1.3,1.4-1.3
	c1.2,0,2.7,0.7,3.5,0.7c0.3,0,0.6-0.1,0.6-0.4c0-1.2-4.5-2.5-4.5-4.1C42.8,9.4,45.3,9.4,45.3,8.6L45.3,8.6z M57,13.7
	c0,0.9,3.2,2.8,4.6,2.9c0.9,0,1.1-1.2,1.1-2.4c0-1.5-0.6-1.6-2-1.6C59.1,12.7,57,13.2,57,13.7L57,13.7z M62.3,23.7
	c0-3-8.1-8.5-8.2-10.8c0-0.2,0.1-0.4,0.3-0.6c1.4-1.5,7.2-2.5,7.2-3.8c0-0.6-1.2-0.6-1.8-0.6c-4.7,0-11.5,1.7-11.5,3.4
	c0,1.7,6.1,5.8,6.1,7.9c0,0.6-0.3,0.8-0.9,0.8c-1.7,0-5.4-2-7.2-2c-0.8,0-1.1,0.5-1.1,1.4c0,2.4,2.8,6.9,2.8,8.3
	c0,0.2-0.1,0.3-0.2,0.3c-0.9,0-5.2-5-6.7-5c-0.5,0-0.6,0.8-0.6,1.9v1.7c0,1.2-0.1,1.9-0.6,1.9c-1.3,0-1.9-3.7-3.2-3.7
	c-1.3,0-1.6,6.5-2.8,6.5c-1.5,0-0.2-7.2-1.6-7.2c-1.6,0-3.3,4.8-4.4,4.8c-0.4,0-0.5-0.4-0.5-0.8c0-1.5,0.9-3.8,0.9-5.2
	c0-0.7-0.2-1.1-0.8-1.1c-1.6,0-5,2.5-6.3,2.5c-0.2,0-0.5-0.1-0.5-0.3c0-1.2,5.5-5,5.5-6.7c0-1.7-7.5-0.6-7.5-2.4
	c0-1.6,5.4-3.3,5.4-4.9c0-1.5-6.4-2.1-8.8-2.1c-3,0-4.6,0.3-4.6,1.2c0,1.3,6.8,1.7,6.8,2.8s-7,4.1-7,5.8c0,1.5,9.8,0.1,9.8,1.7
	c0,1.7-8.6,9.1-8.6,11.5c0,0.6,0.4,0.8,1,0.8c2.6,0,9.4-4.9,11.2-4.9c0.6,0,0.7,0.8,0.7,1.5c0,1.3-0.5,3.3-0.5,4.8
	c0,1.2,0.3,1.9,1.3,2c1.9,0,3.5-3.1,4.8-3.1c1.6,0,0.6,9.3,3.1,9.3c2,0,2.9-10,4.2-10c1.3,0,2.4,2.9,3.5,2.9c1.5,0,0.8-5.1,2.4-5.1
	c1.7,0,6.8,6.1,9,6c0.7,0,0.9-0.6,0.9-1.3c0-2.7-3.7-8.7-3.7-10.6c0-0.5,0.1-0.6,0.7-0.6c2,0,7.6,2.7,10.4,2.7
	C61.7,24.9,62.2,24.3,62.3,23.7L62.3,23.7z M16.5,20.8c0,1-3.8,4.4-5.2,4.4c-0.5,0-0.6-0.6-0.6-1.2c0-1,0.5-2.4,1-2.9
	c0.6-0.6,2.1-0.9,3.3-0.9C15.7,20.2,16.5,20.4,16.5,20.8L16.5,20.8z M53.3,25.9c0,1.7,6.3,10.4,7.5,10.3c1,0,1.7-1.7,1.7-3.3
	c0-0.4-0.1-0.8-0.3-1.1c-0.9-1.3-7.3-6.3-8.7-6.3C53.4,25.6,53.3,25.8,53.3,25.9L53.3,25.9z M139.7,8.5c-2.5,0-2.9-0.8-4.6-0.8
	c-2,0-3.5,1.4-3.5,3.5c0,0.7,0.2,1.8,0.2,3.3c0,1.8-0.4,3.4-1.9,3.4c-1.4,0-2-0.9-2-2c0-2,1.1-3.3,1.1-4.7c0-2.4-3-3.1-6.1-3.1
	c-3.7,0-7.7,1-7.7,1.5c0,0.9,5.4,0.4,9.1,5.2c-2.4,0.1-7.2,1.2-7.2,1.8c0,0.8,8.5,1.7,8.5,5.3c0,2.3-1.9,2.6-2.6,2.6
	c-2.8,0-4.3-2.9-5.1-2.9c-0.1,0-0.1,0-0.2,0c0,0-0.1,0-0.1,0.1c0,0-0.1,0.1-0.1,0.1c0,0,0,0.1,0,0.2c0,0.5,0.4,1.6,0.4,2.9
	c0,3.2-3.5,3.5-3.5,4.2c0,0.2,0.1,0.3,0.5,0.4c2.6,0.4,5.2,0.6,7.8,0.6c9.1,0,16.5-2.8,16.5-10.7c0-4.4-1.3-5.8-1.3-7.9
	C137.9,10.7,138.4,9.3,139.7,8.5L139.7,8.5z M126.9,25.6c-0.6,0-1.2,0-1.9-0.1c5.9-0.9,9.1-4.3,9.1-8.8c1.3,0.4,2.1,1.7,2.1,3.1
	C136.2,22.5,133.7,25.6,126.9,25.6L126.9,25.6z M135.1,12c-0.7,0-1.3-0.5-1.3-1.2c0-0.7,0.6-1.2,1.3-1.3c0.3,0,0.7,0.1,0.9,0.4
	c0.2,0.2,0.4,0.6,0.4,0.9C136.4,11.4,135.8,12,135.1,12z M138.3,77.1c-2.3,0-3.7,4.1-6,4.4c1.5-6,7.4-9.1,7.4-14.7
	c0-6.4-5.4-8.6-7.6-10c-3.7-5.3-6.4-9.5-12.4-9.5c-2.6,0-4.2,0.5-5.9,0.5c-3.4,0-4.4-1.3-4.7-1.3c-0.1,0-0.1,0.1-0.1,0.2
	c0,4.7,2.5,15.3,13.2,15.3c5.8,0,8.2-2.2,9.6-2.2c1.5,0,6.1,1.6,6.1,6.9c0,3-2.3,6-3.2,6c-0.8,0-1.7-1.3-1.7-2.7
	c0-1.6,0.9-4.5,0.9-6.3c0-0.7-0.1-1-0.5-1c-0.9,0-5.2,2.7-5.2,6.2c0,3,4.4,4.8,6,5.6c-1.6,2.7-2.6,4.5-3.4,7c0-1.9-1.8-5.7-2.4-7.4
	c-2.8-7.5-3.7-8.9-9.5-9.6c0.9,3,10.7,10.3,10.7,17.7c0,0.5-0.1,1.1-0.1,1.3c-3-8.7-8-10.7-9.9-12.8c-3-3.3-1.3-6.5-6.1-8.3
	c0.3,0.4,0.4,0.9,0.4,1.5c0,1.6-0.9,3.6-0.9,5c0,5.2,6.1,3.7,9.7,6.5c3.5,2.8,5.5,7.4,6.9,12.5c1.4-2.2,2.2-5,4.7-5
	c1.6,0,2.2,2,2.2,3.4c0,0.3,0,0.6-0.1,0.8c2.4-2,3.7-5.4,3.7-7.6C140,78.1,139.5,77.1,138.3,77.1L138.3,77.1z M128.9,57.5
	c-0.5,0-1.5-0.3-2.1-0.3c-1.7,0-2.9,2.4-3.8,2.4c-0.3,0-0.4-0.3-0.4-0.6c0-1,1.7-2.1,1.7-2.8c0-0.5-0.7-0.6-1-0.6
	c-1.7,0-4.1,2.3-5.5,2.3c-0.2,0-0.6-0.1-0.6-0.4c0-0.7,1.8-1.6,1.8-2.3c0-0.6-0.8-0.8-1.3-0.8c-0.8,0-2.5,0.5-3.5,0.5
	c-0.6,0-1-0.1-1-0.6c0-1,3.3-0.4,3.3-1.6c0-0.6-1-1.7-1-2.3c0-0.2,0.3-0.4,0.5-0.4c1.2,0,2.4,3.2,3.7,3.2c0.6,0,0.8-0.5,0.8-1.1
	s-0.1-1-0.1-1.5c0-0.6,0.2-0.8,0.4-0.8c0.8,0,1.6,4.5,3.9,4.5c1,0,0.3-2.8,1.2-2.8c0.6,0,0.7,0.8,0.8,1.3c0.2,3,2.9,3.1,2.9,4.1
	C129.4,57.2,129.2,57.5,128.9,57.5L128.9,57.5z M103.2,7.8c-3.4,0-5.8,1.6-7.1,1.6c-0.8,0.1-2-2-2.6-2c-0.2,0-0.5,0.5-0.5,1.4
	c0,0.6,0,2.3-0.6,2.3c-1.2,0-5.9-3.4-5.9-2.2c0,1.2,3.1,4.7,3.1,5.6c0,0.9-3.1,1.7-3.1,2.4c0,1.1,3.3,1.3,3.3,2.7
	c0,1.4-3.4,2.5-3.4,3.5c0,0.8,3.4,0.3,3.4,1.3c0,1-2.5,4.6-2.5,5.6c0,0.3,0.1,0.3,0.3,0.3c0.9,0,3.8-3.3,4.5-3.3
	c0.8,0,1,1.9,1.1,3.1c0.1,0.6,0.2,0.6,0.5,0.6c0.6,0,1.6-2.3,2.2-2.3c0.9,0,3.5,2.6,7.8,2.7c6.1,0,11.8-4.3,11.8-11.8
	C115.4,12.1,110.2,7.8,103.2,7.8L103.2,7.8z M94.6,24c-0.2,0-0.2-0.2-0.2-0.5l-0.1-2c0-0.2-0.1-0.4-0.3-0.4c-0.6,0-1.7-0.1-2.1-0.1
	c-0.2,0-0.3-0.1-0.3-0.2c0.1-0.4,2-1.8,2.1-2.1c0-0.6-2-1.6-2-2.2c0-0.1,0.1-0.2,0.2-0.2c0.6,0,1.5,0.2,2.3,0.2
	c0.6,0,0.8-2.8,1.2-2.8c0.4,0,1,2.6,1.5,2.6c0.6,0,1.9-0.8,2.4-0.8c0.1,0,0.2,0.1,0.2,0.2c0,0.3-1.3,1.7-1.3,2.1
	c0,0.5,2.8,1,2.8,1.4c0,0.5-2.9,0.5-2.9,0.9c0,0.3,1,1.7,1,2.2c0,0.1-0.1,0.2-0.2,0.2c-0.4,0-2-0.7-2.4-0.7C95.9,22,95,24,94.6,24
	L94.6,24z M103.3,28.3c-3.5,0-5.8-1.7-5.8-2.7c0-0.5,0.3-0.8,0.7-0.8c1.1,0,3.5,1.7,4.3,1.7c0.2,0,0.3-0.1,0.3-0.4
	c0-0.9-0.9-2.4-0.9-3.1c0-0.2,0.2-0.3,0.5-0.3c1.3,0,3.3,0.6,4.4,0.6c0.3,0,0.5-0.2,0.5-0.4c0-1.1-3.3-3.3-3.3-3.9
	c0-0.6,4.1-1.5,4.1-2.4c0-1-5.5-0.3-5.5-1.3c0-0.7,1-1.9,1-2.4c0-0.2-0.2-0.4-0.5-0.4c-0.5,0-2.9,0.9-3.9,0.9
	c-0.5,0-1.1-0.1-1.1-0.8c0-1.2,2-2.4,5-2.4c4.9,0,7.9,3.4,7.9,9.1C111,26.5,106,28.3,103.3,28.3L103.3,28.3z M69.3,115.1
	c0,0.5-0.2,1.1-0.6,1.5c-0.5-1-2.1-1.5-2.8-1.5c-5.2,0-3.2,7.5-8.7,7.5c-2.3,0-2.5-0.3-3.4-0.3c-0.3,0-0.6,0.2-0.6,0.5
	c0,1.3,1.9,4.5,7,4.5c5.2,0,10.1-3.2,10.1-7.1c0-0.7-0.2-1.4-0.5-2c0.2-0.3,0.7-0.5,1.2-0.5c0.8,0,1.2,0.9,2,0.9
	c0.2,0,0.4,0,0.5-0.1c0.2-0.1,0.3-0.2,0.5-0.3c0.1-0.1,0.2-0.3,0.3-0.5c0.1-0.2,0.1-0.4,0.1-0.5c0-0.6-0.3-1.1-0.9-1.4
	c0.2-0.2,0.4-0.4,0.5-0.6c0.1-0.2,0.2-0.5,0.2-0.8c0-0.9-0.6-1.6-1.6-1.6c-0.4,0-0.8,0.2-1.1,0.5c-0.1-0.9-0.6-1.7-1.6-1.7
	c-0.8,0-1.3,0.5-1.3,1.4C68.8,113.5,69.3,114.2,69.3,115.1L69.3,115.1z M53.2,111.4c-0.3,0-0.8,0.1-1.3,0.1c-0.5,0-1.1-0.1-1.5-0.5
	c-0.8-0.7-1-4.5-2.6-6.7c-1.6-2.5-3.4-3.2-5.9-3.2c-1.7,0-3.7,0.9-3.7,2.4c0,0.9,0.5,1.5,3.7,2.3c4,1,6.1,3.2,6.4,5.7
	c0.4,2.5,0.9,4.4,1.9,5.5c1.3,1.4,3.7,2.6,5.8,2.6c1.8,0,3.3-0.6,3.3-2.3C59.2,115.5,56.8,111.4,53.2,111.4L53.2,111.4z M55.8,117
	c-1.5,0-3.8-1.6-3.8-2.5c0-0.8,0.7-1.2,1.3-1.2c1.3,0,3.5,1.5,3.5,2.9C56.8,116.5,56.6,116.9,55.8,117L55.8,117z M67.8,94.9
	c-2.3-0.8-3.3-2.2-3.8-4.8c-1.1,1.5-1.7,3-1.7,3.8c0,3.4,4.7,3.4,4.7,5.7c0,1.3-2.4,2.7-5.5,2.7c-3.6,0-6-0.6-8.3-2.9
	c-0.6-0.6-0.9-1.2-1.6-1.2c-0.9,0-1.2,1.5-1.2,2.9c0,4.9,4.7,10.7,11.2,10.7c8.1,0,11.3-5.6,11.3-10.1
	C72.9,99.1,72.3,96.6,67.8,94.9L67.8,94.9z M65.4,108.6c-0.6,0-0.8-0.4-0.8-1c0-0.5,0.2-1.3,0.2-2c0-1.8,0.7-1.6,2.4-2.4h0
	c1.2-0.6,1.7-1.3,2-1.3c0.5,0,0.9,0.3,0.9,1C70.1,105.6,67.2,108.6,65.4,108.6L65.4,108.6z M51.2,77.9c0-3.2,7.6-4.9,7.6-8.9
	c0-0.6-0.2-1.8-0.7-2.7c2.7,1.5,4.6,3.9,4.6,5.9c0,3.5-3.6,5.1-3.6,7.2c0,2.5,3.8,2.9,3.8,6c0,2.6-3.7,5.5-3.7,8.8
	c0,2.6,1.8,4.7,4.6,5c-0.9,0.2-1.7,0.3-2.6,0.3c-5.1,0-10.3-4.2-10.3-9.1c0-2.4,1-4.6,2.7-6.2c1.4,1.2,2.8,2,3.7,2
	c0.8,0,1.2-0.4,1.2-1C58.6,83.6,51.3,81.9,51.2,77.9z M36.9,99c-0.2-1.8-1.8-3.2-3.5-2.9c-0.6,0.1-1.2,0.3-1.7,0.7
	c-0.5-1.5-1.9-2.8-3.8-2.5c-0.8,0.1-1.6,0.6-2.1,1.3s-0.7,1.5-0.6,2.4c0,0.3,0.1,0.7,0.3,1c0,0-0.3,0.1-0.5,0.1
	c-1.5,0.3-3.1,1.7-2.8,3.7c0.2,1.7,1.8,3,3.6,2.8c0.6,0,1.2-0.2,1.7-0.5c0.2,0.8,0.6,1.5,1.3,1.9c0.7,0.4,1.5,0.6,2.3,0.5
	c1.9-0.2,3.1-1.7,2.9-3.5c0-0.4-0.1-0.8-0.3-1.2l0.4-0.1C35.8,102.2,37,100.8,36.9,99L36.9,99z M29.8,102.8c-0.3,0-0.5,0-0.8,0
	c-0.2-0.1-0.5-0.2-0.7-0.3c-0.2-0.2-0.4-0.3-0.5-0.6c-0.1-0.2-0.2-0.5-0.2-0.7c0-0.3,0-0.5,0.1-0.8c0.1-0.2,0.2-0.5,0.4-0.7
	c0.2-0.2,0.4-0.4,0.6-0.5c0.2-0.1,0.5-0.2,0.7-0.2c0.2,0,0.5,0,0.7,0.1c0.2,0.1,0.5,0.2,0.7,0.3c0.2,0.2,0.4,0.3,0.5,0.6
	c0.1,0.2,0.2,0.5,0.2,0.7c0,0.2,0,0.5-0.1,0.7c-0.1,0.2-0.2,0.5-0.3,0.7c-0.2,0.2-0.3,0.4-0.6,0.5C30.3,102.7,30.1,102.8,29.8,102.8
	L29.8,102.8z"/>
</svg>
