<?xml version="1.0" encoding="utf-8"?>
<!-- Generator: Adobe Illustrator 27.3.0, SVG Export Plug-In . SVG Version: 6.00 Build 0)  -->
<svg version="1.1" id="Layer_1" xmlns="http://www.w3.org/2000/svg" xmlns:xlink="http://www.w3.org/1999/xlink" x="0px" y="0px"
	 viewBox="0 0 150 150" style="enable-background:new 0 0 150 150;" xml:space="preserve">
<path d="M91.7,137.8c-20.4,10.4-42.9,3.1-51.4-18c-3.6-9-5.1-18.6-5.2-28.2C34.9,65.8,35,7.5,35,7.5l28.3,16.3l0,72
	c-0.4,17.8,8.2,29.9,22.7,38.8C87.7,135.5,89.3,136.4,91.7,137.8z"/>
<path d="M105.3,129c-10.7-2.8-19.2-8-25.2-17.8c6.9-8.8,6.3-18.9,6.3-28.9l-0.1-45l28.4,16.4c0,0,0,1.3,0,1.9
	c0.1,19.6,1.4,39.2-2.2,58.6C111.5,119.4,109.6,126.3,105.3,129z"/>
</svg>
