<svg width="100" height="100" viewBox="0 0 100 100" fill="none" xmlns="http://www.w3.org/2000/svg">
<g clip-path="url(#clip0_1715_39228)">
<path fill-rule="evenodd" clip-rule="evenodd" d="M86.1368 128.085C85.6581 125.38 85.2194 122.668 84.8207 119.95C84.6314 118.659 84.4468 117.367 84.2808 116.074C84.1646 115.167 83.9875 114.131 84.6038 113.459C85.4709 112.514 86.2586 111.705 86.3647 110.352C86.4646 109.078 86.0343 107.69 85.7652 106.454C85.201 103.861 84.4986 101.301 83.7224 98.7649C82.9339 96.1882 82.0692 93.6358 81.1921 91.0882C80.3722 88.7063 79.5839 86.303 78.5158 84.0177C76.4889 79.6809 73.0598 76.4693 68.8219 74.3247C67.7679 73.7914 65.6181 71.8875 64.517 71.4613C63.5046 71.0693 63.5082 72.2138 62.5119 71.7827C61.7155 71.4381 60.9738 70.9785 60.5279 70.2089C60.0437 69.3732 58.8294 68.2043 58.6445 67.2316C58.2528 65.1696 58.6771 63.4147 57.2067 61.8628C55.9013 60.4847 54.1468 59.5406 52.3313 59.0338C48.3375 57.9189 43.0113 58.6984 40.6016 62.4125C39.4507 64.1862 39.0486 66.3301 37.4956 67.7777C36.1396 69.0417 36.443 69.9058 34.6867 70.5572C34.5872 70.5942 31.891 70.0154 31.7915 70.0524C29.8701 69.6409 28.0337 70.7928 26.271 71.4613C23.643 72.4576 21.141 73.7545 18.7904 75.2959C14.0506 78.404 9.99099 82.4399 6.64419 87.007C3.26972 91.6117 0.651479 96.7729 -1.21279 102.167C-1.66553 103.477 -2.0722 104.804 -2.4309 106.143C-2.63168 106.892 -2.84624 107.67 -2.60176 108.437C-2.40181 109.065 -1.95703 109.532 -1.43471 109.909C-0.726686 110.419 0.693511 110.751 0.665846 111.778C0.644711 112.559 0.380049 113.38 0.250865 114.152C0.0971022 115.071 -0.0292326 115.995 -0.155567 116.918C-0.730248 121.119 -1.17753 125.343 -1.37534 129.58C-1.57007 133.751 -1.73166 138.007 -1.44254 142.177C-1.42343 142.452 -1.3415 142.705 -1.20935 142.918C-1.33271 142.965 -1.34221 143.195 -1.18869 143.228C-1.08111 143.251 -0.973775 143.274 -0.8662 143.296C-0.64274 143.466 -0.364067 143.569 -0.0433622 143.58C0.174043 143.586 0.391329 143.596 0.608497 143.607C2.90021 144.087 5.19158 144.54 7.51321 144.883C10.3353 145.299 13.1657 145.639 16.005 145.916C21.839 146.483 27.6272 146.295 33.4689 145.989C39.3017 145.683 45.1311 145.612 50.9699 145.764C56.8138 145.916 62.6556 146.171 68.5008 146.275C75.0312 146.391 81.5516 146.212 88.063 145.693C88.9558 145.622 89.5081 144.911 89.3321 144.023C88.2771 138.707 87.0815 133.425 86.1368 128.085Z" fill="#F0C094"/>
<path fill-rule="evenodd" clip-rule="evenodd" d="M26.271 71.4613L26.3985 71.4122C28.1223 70.7382 29.9164 69.6509 31.7915 70.0524C31.8578 70.0278 33.0779 70.2767 33.9136 70.4345L33.1204 71.2632L31.7205 71.5327C36.5499 79.5097 42.2616 83.4981 48.8558 83.4981C55.45 83.4981 60.4537 79.5097 63.8669 71.5327L64.3327 71.4037C64.3902 71.4171 64.4515 71.436 64.517 71.4613C65.6181 71.8876 67.7679 73.7915 68.8219 74.3248C73.0598 76.4693 76.4889 79.681 78.5158 84.0178C79.5483 86.2269 80.3193 88.5463 81.1102 90.8501L81.1921 91.0883C82.0692 93.6359 82.9339 96.1883 83.7224 98.765C84.4648 101.191 85.1398 103.639 85.6909 106.116L85.7652 106.454C86.0343 107.69 86.4646 109.078 86.3647 110.352C86.3269 110.834 86.2026 111.247 86.019 111.622L76.4672 115.062L81.0178 146.124C76.8494 146.303 72.6771 146.349 68.5008 146.275C62.6556 146.171 56.8138 145.916 50.9699 145.764C45.308 145.617 39.655 145.679 33.9992 145.962L32.5629 146.036C27.0283 146.312 21.5373 146.454 16.005 145.916L15.628 145.879V145.879L15.6279 141.335L17.5713 116.034L7.72276 114.179L-1.9449 109.479C-2.23701 109.187 -2.47141 108.846 -2.60176 108.437C-2.82819 107.726 -2.66085 107.007 -2.47539 106.309L-2.4309 106.143C-2.0722 104.804 -1.66553 103.477 -1.21279 102.167C0.651479 96.773 3.26972 91.6118 6.64419 87.0071C9.99099 82.44 14.0506 78.404 18.7904 75.2959C21.141 73.7546 23.643 72.4577 26.271 71.4613Z" fill="#5D6B5F"/>
<path fill-rule="evenodd" clip-rule="evenodd" d="M29.9684 69.9216C30.5723 69.8953 31.1881 69.9931 31.7905 70.0524C31.843 70.0575 31.863 70.1386 31.8038 70.1509C30.7256 70.3763 29.6592 70.6847 28.6003 70.9979L28.1469 71.1322C26.9528 71.4858 25.7937 71.8505 24.6377 72.322C22.3337 73.2617 20.1455 74.5301 18.1317 75.9874C10.3768 81.5988 4.76417 90.0946 1.22228 98.8907C0.260405 101.279 -0.554597 103.728 -1.21477 106.217C-1.3753 106.823 -1.52633 107.431 -1.66952 108.041C-1.71156 108.22 -1.89477 108.678 -1.79432 108.861C-1.7055 109.022 -1.36022 109.122 -1.19981 109.206L-0.658239 109.488C0.398137 110.032 2.15778 110.928 2.33424 111.015L2.60945 111.151C7.1108 113.359 11.9204 115.232 16.9859 115.362L17.0255 114.929V114.929C17.2514 112.536 17.5477 110.129 18.1946 107.81C18.2294 107.685 18.3879 107.727 18.4024 107.838C18.7627 110.584 18.6476 113.352 18.5218 116.111C18.2992 120.998 18.0036 125.881 17.7408 130.766C17.6092 133.21 17.4392 135.652 17.2857 138.094C17.1319 140.541 17.0822 143.047 16.7311 145.474C16.6528 146.015 16.0197 146.309 15.5403 146.252C15.0098 146.189 14.6017 145.721 14.5992 145.185C14.5928 143.771 14.7703 142.341 14.8689 140.93C14.9626 139.59 15.0632 138.251 15.1662 136.912C15.5429 132.024 15.9761 127.142 16.3769 122.257C16.5189 120.524 16.6723 118.793 16.8302 117.061C11.4642 116.888 6.45105 114.899 1.66861 112.575C1.59939 114.148 1.43221 115.718 1.27037 117.285C0.818581 121.656 0.420223 126.026 0.122078 130.411C-0.0284789 132.625 -0.138072 134.843 -0.233536 137.06C-0.280436 138.15 -0.318669 139.24 -0.347997 140.331C-0.357812 140.694 -0.366678 141.058 -0.374523 141.422L-0.390837 142.254C-0.404185 142.782 -0.457783 143.271 -0.901424 143.655C-1.35203 144.045 -1.96066 144.066 -2.40664 143.655C-3.00364 143.105 -2.89808 142.355 -2.88039 141.616C-2.86567 140.993 -2.84798 140.37 -2.82744 139.747C-2.78623 138.501 -2.73363 137.255 -2.66964 136.01C-2.44568 131.656 -1.99822 127.32 -1.41345 123.001L-1.18518 121.334C-0.758883 118.235 -0.290871 115.065 0.662088 112.08C0.291039 111.895 -0.0789417 111.709 -0.447497 111.522C-1.10126 111.191 -1.77722 110.88 -2.41269 110.514C-2.91684 110.224 -3.35165 109.827 -3.492 109.239C-3.64852 108.585 -3.40918 107.87 -3.25017 107.232L-3.23636 107.176C-3.08046 106.533 -2.91257 105.893 -2.73542 105.256C-2.01706 102.673 -1.1288 100.14 -0.0892717 97.6686C1.99216 92.7214 4.6788 88.0215 7.96053 83.7719C10.9146 79.9466 14.4042 76.4777 18.4942 73.876C20.4937 72.604 22.6245 71.5596 24.878 70.8211C25.9313 70.476 27.0773 70.1759 28.1802 70.0523C28.775 69.9857 29.3707 69.9476 29.9684 69.9216ZM40.6681 62.0822C41.3858 61.311 42.8115 62.1091 42.467 63.1303C41.6565 65.533 40.3658 67.7246 38.3516 69.3034C36.4582 70.7877 34.2005 71.7515 31.769 71.5458C31.7502 71.5441 31.734 71.5394 31.7196 71.5326L31.9291 71.8171C33.5742 74.0441 35.3097 76.2404 37.4013 78.0607C41.6631 81.7696 47.4657 83.77 53.0689 82.347C57.4773 81.2275 61.3611 77.7387 62.5034 73.2924C62.3396 73.3658 62.145 73.3909 61.9314 73.3445C61.0175 73.1459 60.1128 72.1839 59.5233 71.4942C58.8857 70.7481 58.3878 69.9424 58.0228 69.0317C57.3548 67.3649 57.1406 65.2189 58.0527 63.6043C58.1652 63.4053 58.4248 63.5169 58.4469 63.7112L58.4816 64.0144C58.6575 65.5276 58.8765 66.9913 59.5894 68.3707C59.9382 69.0457 60.3564 69.7045 60.8654 70.2698C61.1378 70.5722 61.4331 70.8612 61.7519 71.1148C62.0626 71.3619 62.4386 71.5405 62.717 71.824L62.768 71.8784L62.7695 71.8687C62.8399 71.2696 63.2596 71.0057 63.6703 71.0222C64.0678 71.0382 64.5346 71.2133 64.7154 71.2972L64.7325 71.3052C67.5052 72.6373 70.0589 74.3736 72.4621 76.2999C77.4319 80.2837 81.1556 85.4915 82.9598 91.6243C83.8453 94.6341 84.3534 97.7356 84.8898 100.823L85.22 102.714C85.7206 105.564 86.2798 108.47 87.41 111.121C87.7023 111.806 87.4769 112.449 86.7601 112.719C85.8651 113.056 84.9667 113.382 84.067 113.704C84.5088 115.601 84.7782 117.564 85.1092 119.47C85.8128 123.522 86.675 127.548 87.4142 131.595C87.7922 133.664 88.1332 135.74 88.5108 137.809C88.6925 138.806 88.8823 139.801 89.0668 140.797C89.1662 141.334 89.2563 141.873 89.3512 142.411L89.3677 142.5C89.422 142.784 89.4903 143.077 89.4123 143.361C89.3234 143.685 89.0708 143.914 88.8454 144.146C88.6598 144.337 88.3916 144.338 88.1642 144.234L88.0894 144.199C87.6833 144.009 87.3651 143.82 87.2211 143.361C87.1299 143.071 87.097 142.744 87.0374 142.445C86.923 141.871 86.8146 141.297 86.7123 140.722C86.5076 139.57 86.3076 138.417 86.1124 137.263L85.9301 136.183C85.3043 132.46 84.71 128.715 84.4096 124.952C84.2764 123.283 84.1351 121.616 83.9926 119.948L83.8855 118.697C83.7502 117.113 83.5848 115.49 83.5614 113.885L83.0233 114.076V114.076L80.398 115.005V115.005C79.7471 115.235 78.9183 115.707 78.2178 115.621C77.8749 115.579 77.6134 115.471 77.4116 115.275C77.6533 118.689 77.9806 122.098 78.4167 125.489C78.8135 128.574 79.2534 131.656 79.773 134.723C80.0303 136.242 80.2947 137.76 80.5819 139.273C80.7255 140.03 80.8737 140.786 81.0264 141.541C81.1025 141.917 81.1931 142.295 81.2525 142.674C81.3204 143.109 81.2007 143.377 80.9579 143.735C80.7585 144.029 80.3597 144.179 80.0364 143.977C79.6082 143.708 79.3849 143.475 79.2589 142.985C79.1444 142.54 79.0748 142.076 78.9863 141.625C78.8228 140.794 78.6647 139.961 78.5121 139.128C78.1931 137.384 77.899 135.636 77.6364 133.883C76.7108 127.708 76.1235 121.48 75.8269 115.243C75.6805 112.165 75.6353 109.085 75.6613 106.005C75.6746 104.426 75.7261 102.842 75.8377 101.267C75.9508 99.6726 76.1859 98.11 76.3958 96.531C76.4032 96.4754 76.4815 96.4722 76.4849 96.531C76.5842 98.3013 76.74 100.07 76.8164 101.845C76.8893 103.538 76.9212 105.235 76.9792 106.929C77.0553 109.156 77.1608 111.385 77.3006 113.612C77.5536 113.335 77.935 113.175 78.3166 113.237C78.8694 113.121 79.4645 112.831 79.9916 112.655L81.9785 111.99V111.99C83.023 111.641 84.0676 111.295 85.1158 110.958C84.1786 107.803 83.5366 104.6 82.9884 101.351L82.744 99.89C82.26 97.0138 81.7382 94.1362 80.8617 91.3509C79.9402 88.4227 78.5612 85.7002 76.7318 83.2348C74.9286 80.805 72.7347 78.6655 70.4759 76.6644C68.542 74.9513 66.4733 73.4046 64.5009 71.7386C64.5215 71.8489 64.5259 71.9705 64.5078 72.1041C64.0884 75.1759 62.4872 78.0366 60.2558 80.1643C55.773 84.4388 49.1372 85.3256 43.3996 83.3212C37.8496 81.3823 32.9426 76.7904 31.2089 71.1081C31.1792 71.0109 31.3094 70.9723 31.3616 71.0437C31.4578 71.1756 31.5544 71.3075 31.6512 71.4395C31.6447 71.387 31.6719 71.33 31.7365 71.3051C33.7593 70.5234 35.7456 69.4148 37.2618 67.8465C38.0008 67.0821 38.6458 66.216 39.155 65.282C39.3988 64.8346 39.6179 64.3713 39.7927 63.8925L39.8371 63.7686C40.0489 63.1689 40.2259 62.5573 40.6681 62.0822Z" fill="#1A1A1A"/>
<path fill-rule="evenodd" clip-rule="evenodd" d="M54.9704 68.3652C52.3405 68.3808 50.1054 67.6323 48.4 66.3942C46.2717 65.6331 43.7046 64.4592 42.1454 63.2267C41.5372 63.3824 40.8094 62.7344 40.344 62.3924C37.45 60.225 35.1784 57.0525 34.5053 53.8747C33.4662 55.1902 31.9875 55.2449 30.571 54.591C27.6018 52.9022 27.7128 49.3461 28.7818 46.6893C26.5345 41.6321 24.977 28.2817 28.4075 22.8937C29.1092 22.0876 30.1389 21.6053 30.8803 20.7786C31.54 20.0566 32.1675 19.3181 32.935 18.7467C35.277 16.959 39.3107 16.0071 41.8364 15.5595C52.3794 13.2734 60.48 17.3824 70.0301 20.8484C69.4805 22.2268 68.7202 23.484 67.8488 24.6561C70.2197 25.5437 69.1307 27.5393 67.2914 28.5509L66.1963 28.0171C67.9033 34.1424 71.8318 49.3746 70.1368 54.2662C68.7851 61.8976 62.853 68.4206 54.9704 68.3652" fill="#F0C094"/>
<path fill-rule="evenodd" clip-rule="evenodd" d="M31.1167 44.6435C29.7665 44.6435 28.7727 46.1433 28.7727 46.1433H28.494C26.386 40.7004 25.0661 28.1351 28.3684 22.9484C28.722 22.5422 29.1589 22.2182 29.6003 21.8909C30.0347 21.5687 30.4734 21.2434 30.8412 20.8333C30.9331 20.7327 31.0245 20.6317 31.1156 20.531C31.6785 19.9087 32.2354 19.2931 32.896 18.8014C35.238 17.0137 39.2717 16.0618 41.7973 15.6142C50.862 13.6486 58.1212 16.4105 66.0485 19.4266C67.3414 19.9184 68.652 20.4171 69.9911 20.9031C69.4414 22.2815 68.6811 23.5387 67.8098 24.7108C70.1807 25.5984 69.0917 27.5939 67.2523 28.6056L66.444 28.2116C66.2309 27.0681 65.6621 24.8306 64.4593 24.7107C63.6097 24.6259 62.2193 25.422 60.864 26.198C59.6362 26.901 58.4373 27.5875 57.6955 27.5875C57.1111 27.5875 55.6339 27.111 53.7857 26.5148C50.6982 25.519 46.5756 24.1892 43.8513 24.1892C39.496 24.1892 35.7885 27.797 34.3153 30.4119C32.8422 33.0267 36.5078 36.2742 36.5078 36.2742C36.5078 36.2742 34.3153 39.0927 34.3153 40.3253C34.3153 41.5579 34.8277 45.4205 34.8277 45.4205C34.8277 45.4205 32.467 44.6435 31.1167 44.6435Z" fill="#774D35"/>
<path fill-rule="evenodd" clip-rule="evenodd" d="M56.4937 69.0224C53.079 69.3739 49.0223 68.5643 46.7459 65.7822C46.6778 65.699 46.648 65.6047 46.6462 65.5136C46.6442 65.4124 46.6781 65.3146 46.7367 65.2385C46.7982 65.1585 46.8858 65.1027 46.9862 65.0847C47.0708 65.0694 47.1672 65.0792 47.2666 65.1351L47.4758 65.252C49.0305 66.1132 50.6452 66.8477 52.4071 67.162C54.2212 67.4856 56.0684 67.4494 57.8663 67.0384C61.1413 66.29 63.7918 64.3809 65.7427 61.8637C67.9198 59.0545 69.2271 55.4886 69.5603 51.9225C69.9641 47.6007 69.0274 43.3052 68.0583 39.1206C67.04 34.7237 65.9269 30.3492 64.6339 26.0255C64.595 25.8953 64.5845 25.7735 64.5958 25.6613C64.2144 25.5114 63.8085 25.553 63.4045 25.6898C62.6664 25.9398 61.9311 26.5034 61.3178 26.9686C61.0957 27.1371 60.8891 27.2938 60.7034 27.4212C59.943 27.9431 59.1117 28.3186 58.1823 28.3776C57.2155 28.4389 56.2677 28.1376 55.3897 27.7604C54.9437 27.5689 54.5048 27.3701 54.0677 27.1722C52.823 26.6085 51.593 26.0504 50.2489 25.6877C48.4478 25.2016 46.5883 24.9622 44.7231 24.9793C41.3942 25.0099 38.0551 25.8693 36.0148 28.6929C35.1883 29.8368 34.6495 31.1514 35.0697 32.5631C35.2983 33.3311 35.7298 34.0282 36.2006 34.6694L36.3622 34.8877C36.6205 35.2397 36.8448 35.5903 36.9125 35.9635C36.9691 36.2761 36.9249 36.6069 36.7023 36.9694C36.5623 37.1976 36.3839 37.4022 36.2046 37.6062C36.0753 37.7533 35.9456 37.9002 35.834 38.0583C35.6091 38.3771 35.41 38.7205 35.2539 39.0786C34.9481 39.7795 34.8184 40.5336 34.7912 41.2941C34.7584 42.2116 34.887 43.1091 35.0146 44.008C35.105 44.6453 35.1953 45.2833 35.2318 45.929C35.2381 46.0416 35.2038 46.1256 35.1557 46.1877C35.0968 46.2637 35.0109 46.3117 34.9131 46.3249C34.8834 46.329 34.8527 46.3296 34.8218 46.3269C34.837 46.389 34.8504 46.4514 34.862 46.514C34.8002 46.4343 34.7345 46.357 34.6651 46.2822C34.6606 46.28 34.6562 46.2777 34.6519 46.2753C34.5803 46.2359 34.5197 46.1758 34.4815 46.0984C34.3832 46.0069 34.2792 45.92 34.17 45.8383C33.602 45.4133 32.9387 45.1613 32.2734 45.1529C31.6319 45.1449 30.9889 45.3639 30.4945 45.8266C29.5119 46.746 29.2241 48.2469 29.2138 49.5356C29.2034 50.8511 29.5069 52.4299 30.6506 53.2467C31.1093 53.5743 31.6696 53.7711 32.234 53.7768C32.7019 53.7815 33.1496 53.6155 33.5904 53.4573C33.7263 53.4086 33.8616 53.36 33.9966 53.316C34.1499 53.2659 34.2897 53.2691 34.4115 53.3057C34.5488 53.3469 34.6653 53.4321 34.7523 53.5457C34.8391 53.6589 34.8959 53.8005 34.9135 53.9488C34.9306 54.0925 34.9109 54.2416 34.8503 54.3761C34.8351 54.4099 34.819 54.4428 34.8023 54.4749L35.0539 54.8897C36.017 56.4739 36.997 58.0292 38.282 59.3908C39.0196 60.1724 39.8015 60.9099 40.6591 61.5556L40.7828 61.6477C40.8568 61.7021 40.9389 61.7693 41.0264 61.8412C41.2766 62.0464 41.5764 62.3216 41.8563 62.3325C41.9393 62.3357 42.0118 62.3253 42.0778 62.3166C42.2372 62.2956 42.3709 62.2895 42.5023 62.3432C42.608 62.3865 42.7176 62.4672 42.8303 62.634C42.9064 62.7468 42.9455 62.8884 42.9455 63.032C42.9455 63.1763 42.906 63.3206 42.8356 63.4347C42.6899 63.6709 42.5136 63.8171 42.3223 63.9002C42.1091 63.9928 41.8735 64.007 41.6286 63.9611C41.0252 63.8483 40.3572 63.347 39.9322 63.0199L39.85 62.9568C38.9082 62.2363 38.0156 61.439 37.2309 60.5475C35.8946 59.0292 34.6945 57.2401 34.0781 55.2852C33.6436 55.5714 33.1068 55.7073 32.5456 55.7287C31.7279 55.7599 30.8624 55.5489 30.2247 55.2456C28.8193 54.5771 27.9656 53.3129 27.5656 51.859C27.101 50.1706 27.252 48.2295 27.8401 46.7128C27.8572 46.6687 27.875 46.6248 27.8933 46.5802C26.0826 41.9793 25.5258 36.8703 25.6809 31.9604C25.7535 29.6621 25.9095 27.2508 26.4501 25.0094C26.6925 24.0048 27.1135 23.048 27.7857 22.2571C28.1689 21.8061 28.6392 21.455 29.1116 21.1048C29.5208 20.8015 29.9315 20.4989 30.2771 20.1202L30.4405 19.9404C30.4759 19.9013 30.5113 19.8623 30.5465 19.8233C31.1433 19.1636 31.7244 18.5234 32.4486 17.9824C33.2885 17.355 34.2154 16.864 35.1785 16.4562C37.2533 15.5781 39.4864 15.0515 41.6954 14.6441C46.4747 13.7629 51.3807 13.7195 56.1013 14.9581C58.2961 15.5339 60.4261 16.322 62.5525 17.1093C62.7499 17.1823 62.9473 17.2554 63.1448 17.3283C64.7972 17.9386 66.4506 18.5462 68.104 19.1538C68.8724 19.4362 69.6408 19.7186 70.4091 20.0013C70.5758 20.0626 70.739 20.1948 70.832 20.359C70.9226 20.5192 70.9497 20.706 70.8764 20.892C70.405 22.09 69.8102 23.2139 69.0861 24.2635C69.3377 24.4351 69.5518 24.6634 69.7138 24.9306C69.9187 25.2685 70.04 25.6685 70.0483 26.0929C70.0759 27.5143 68.7862 28.4778 67.7162 29.1747C67.6164 29.2397 67.5177 29.2781 67.4223 29.2957C68.4591 33.2715 69.4515 37.2608 70.2948 41.2817L70.3528 41.5604C71.2216 45.7685 71.7821 50.0629 70.9605 54.3269C70.2531 57.9987 68.6096 61.5424 66.0415 64.2777C63.5248 66.9585 60.1477 68.6461 56.4937 69.0224ZM34.0089 44.8148C33.5617 43.3917 33.3248 41.8434 33.4959 40.4008C33.6035 39.494 33.8754 38.6211 34.318 37.8218C34.5715 37.3641 34.8804 36.9403 35.2176 36.5412L35.334 36.4071C35.3928 36.3387 35.4514 36.2757 35.4696 36.1969C35.4801 36.151 35.4694 36.1009 35.4416 36.041C35.38 35.9083 35.2656 35.7805 35.1586 35.6557C35.0905 35.5764 35.024 35.4985 34.9682 35.4228C33.9882 34.0924 33.2574 32.5084 33.495 30.8213C33.7267 29.1753 34.8023 27.641 35.9474 26.4847C38.4689 23.9386 42.378 23.3535 45.8025 23.4939C47.796 23.5756 49.7863 23.928 51.6847 24.5435C52.6208 24.8471 53.5361 25.2168 54.4256 25.6405L54.6226 25.7354C54.7289 25.787 54.835 25.8392 54.9413 25.8915C55.6366 26.2334 56.3345 26.5787 57.0892 26.7647C58.5632 27.1276 59.563 26.3631 60.6139 25.5921C60.9741 25.3279 61.3398 25.06 61.7285 24.8249L61.8084 24.7774C62.5096 24.3698 63.3483 24.0954 64.1539 24.1077C64.8538 24.1184 65.5289 24.3425 66.0786 24.8721C66.1914 24.9809 66.2564 25.0996 66.2869 25.2178C66.3477 25.3033 66.3968 25.4053 66.4288 25.5257C66.6257 26.2668 66.8217 27.0083 67.0171 27.7501L67.1768 27.6468C67.6501 27.3386 68.1646 26.9863 68.3969 26.4705C68.4863 26.272 68.4737 25.9413 68.361 25.6982C68.3216 25.6132 68.2695 25.5377 68.1975 25.4905C68.1451 25.4562 68.082 25.4401 68.0087 25.4461C67.8303 25.4691 67.6666 25.4429 67.5277 25.3841C67.3676 25.3162 67.2399 25.2045 67.157 25.0699C67.0722 24.9321 67.0335 24.7701 67.0542 24.602C67.0721 24.4576 67.1341 24.3067 67.2567 24.1649C68.0641 23.2316 68.7439 22.2021 69.2606 21.0847L65.8427 19.8165C64.6241 19.3645 63.4052 18.9131 62.1858 18.4634L61.5182 18.2174C59.3008 17.4017 57.0706 16.6046 54.7647 16.0794C50.182 15.0358 45.4032 15.2811 40.8331 16.2634L40.557 16.3233C38.6393 16.7427 36.6958 17.2501 34.9356 18.1321C34.0716 18.565 33.2503 19.0914 32.545 19.7565C32.2336 20.0503 31.9519 20.3718 31.6703 20.693C31.2755 21.143 30.8802 21.5919 30.4109 21.971L29.9752 22.3209C29.327 22.8447 28.7424 23.355 28.3767 24.1674C27.9943 25.0167 27.8117 25.9549 27.6628 26.869C27.2872 29.1718 27.139 31.5115 27.1531 33.844C27.177 37.7605 27.7703 41.5972 28.5198 45.4205C29.1212 44.5573 29.9659 43.8882 31.0501 43.7455C31.7569 43.6525 32.4577 43.7847 33.0654 44.0982C33.4166 44.2793 33.7367 44.5211 34.0089 44.8148V44.8148ZM32.8729 49.4654C32.0812 49.1578 31.2499 49.057 30.4123 49.2041C30.3246 49.2195 30.2409 49.2011 30.1705 49.1601C30.0992 49.1186 30.043 49.0529 30.0125 48.9803C29.9772 48.8964 29.9754 48.8056 30.0065 48.7249C30.0336 48.6549 30.085 48.587 30.1797 48.5416C31.0867 48.1075 32.0948 47.9159 33.0954 48.0522L33.1943 48.0663C33.7058 48.1424 34.4252 48.3025 34.9646 48.6178C35.3884 48.8654 35.6987 49.2068 35.7758 49.6528C35.8161 49.8851 35.7586 50.1278 35.625 50.3036C35.4959 50.4737 35.2985 50.587 35.0429 50.5797C34.5922 50.5669 34.3254 50.3758 34.0043 50.1284C33.9654 50.0984 33.9254 50.0676 33.8839 50.0364C33.5736 49.8036 33.2346 49.6059 32.8729 49.4654Z" fill="#1A1A1A"/>
<path fill-rule="evenodd" clip-rule="evenodd" d="M57.1999 58.5566C56.4018 58.2307 55.6896 57.6871 55.1689 56.9927C54.9879 56.7513 54.941 56.4964 54.979 56.2632C55.0217 56.0011 55.1766 55.7635 55.388 55.6041C55.6 55.4442 55.8652 55.3654 56.1216 55.4056C56.3443 55.4405 56.5661 55.5626 56.7416 55.8157L56.7783 55.8664C57.0878 56.2855 57.4912 56.6294 57.9508 56.851C58.3938 57.0647 58.8892 57.1644 59.4019 57.1064C60.3784 56.996 61.0514 56.4675 61.7668 55.7498C61.8555 55.6592 61.9442 55.5657 62.0333 55.4707C62.0896 55.3847 62.1678 55.3293 62.2545 55.3003C62.3509 55.2681 62.4598 55.2699 62.5596 55.3048C62.6559 55.3384 62.7419 55.4021 62.7996 55.4869C62.8545 55.5675 62.8856 55.667 62.8755 55.7816C62.81 56.5253 62.4215 57.1891 61.8695 57.7104C61.2566 58.2893 60.444 58.6897 59.6791 58.8302C58.8363 58.9849 57.9776 58.8741 57.1999 58.5566V58.5566ZM60.0766 47.0822C60.9733 47.6276 62.3394 48.8995 61.3749 50.2517C60.2395 51.444 58.6048 50.077 57.7993 49.4587C57.0523 48.9795 56.2131 50.2119 56.9061 50.7714C62.727 55.0845 65.0892 47.2248 60.5301 46.4409C60.0282 46.3545 59.8417 46.9134 60.0766 47.0822ZM49.6456 42.065C49.7447 40.8343 51.6174 40.5548 51.8037 41.7726C51.9706 42.8635 51.7742 43.8656 51.2832 44.8478C50.8141 45.7861 49.635 45.3483 49.5458 44.4939C49.4263 43.3486 49.584 42.8305 49.6456 42.065ZM63.9014 41.5201C64.1625 41.1779 64.5395 40.9443 64.9912 41.0763C66.4024 41.489 65.9864 43.4941 65.4908 44.47C65.2215 45 64.3511 45.1344 63.9577 44.6678C63.3165 43.9068 63.0095 42.387 63.8246 41.6374C63.8467 41.5987 63.8713 41.5596 63.9014 41.5201ZM51.2633 36.6799L51.4862 36.6409C52.1758 36.5215 53.0333 36.4068 53.5211 36.9617C53.7798 37.2559 53.8689 37.8028 53.5211 38.0844C52.9094 38.58 52.233 38.3879 51.5 38.4299C50.8958 38.4646 50.3152 38.5646 49.7333 38.7311C48.4566 39.0963 47.4164 39.7629 46.3261 40.495C46.183 40.591 46.0369 40.4078 46.1052 40.2739C46.7346 39.0401 47.9544 38.0266 49.1762 37.4087C49.8283 37.079 50.5419 36.8054 51.2633 36.6799ZM62.615 36.1272L62.7857 36.1622C64.6424 36.5506 67.0546 37.3265 67.9339 39.1517C67.9674 39.4098 67.932 39.4651 67.9032 39.5013L67.8936 39.5133C67.8699 39.5441 67.851 39.5867 67.7392 39.6218C67.7082 39.6144 67.6768 39.6066 67.6452 39.5983C67.2422 39.4926 66.9233 39.3469 66.6146 39.1958L66.2799 39.0308C65.8915 38.8402 65.4998 38.6566 65.0846 38.5211C64.1986 38.2318 63.2872 38.0281 62.3618 37.9193C62.1612 37.8957 61.968 37.828 61.8156 37.7119C61.671 37.6016 61.5605 37.449 61.5101 37.2462C61.4448 36.9837 61.4636 36.7849 61.6043 36.5481C61.7101 36.3703 61.8616 36.247 62.0354 36.1762C62.2127 36.104 62.4145 36.087 62.615 36.1272Z" fill="#1A1A1A"/>
<path fill-rule="evenodd" clip-rule="evenodd" d="M49.4977 59.3013C50.459 57.0474 52.5571 55.3909 54.9728 54.7852C56.7467 54.3416 58.6084 54.3558 60.4167 54.5318C61.3641 54.6234 62.3803 54.6985 63.2732 55.0506C64.0357 55.3515 64.657 55.9201 65.1242 56.5876C65.6804 57.3786 66.0586 58.2838 66.3243 59.2117C66.362 59.3437 66.3974 59.4765 66.4305 59.6101C66.315 60.3102 66.0698 60.9061 65.4219 61.3462C64.7896 61.776 64.0352 61.9518 63.2832 62.0143C63.2094 61.9789 63.1382 61.9424 63.0728 61.9051C61.9009 61.2337 61.0761 59.647 59.597 59.8617C58.2769 60.0535 57.408 61.7157 56.623 62.6905C54.1032 62.9843 51.5853 62.2265 49.5351 60.7845C49.431 60.2909 49.425 59.7932 49.4977 59.3013M68.1431 57.5915C67.9415 57.0254 67.6877 56.4771 67.3867 55.9606C66.3918 54.2524 64.8646 52.8914 63.0515 52.1134C58.7625 50.2755 53.2131 51.5711 49.7494 54.5854C48.5662 55.6158 47.3699 57.1301 47.0081 58.7588C46.9001 58.7803 46.7981 58.8365 46.7142 58.9158C44.2117 57.3389 41.6346 55.8218 39.6181 53.6361C38.1536 52.048 37.1351 50.1685 36.5113 48.1033C36.4603 47.9333 36.1864 47.9581 36.1947 48.1462C36.1971 48.1902 36.1995 48.2341 36.2018 48.2781C36.1758 48.1972 36.0524 48.2389 36.043 48.3174C35.7074 50.8263 35.2876 53.4862 35.6742 56.0081C35.9054 57.513 36.5884 58.6147 37.5015 59.8043C38.4797 61.0794 39.5873 62.2654 40.7197 63.4028C41.4383 64.1248 42.1889 64.9575 43.0687 65.4869C44.092 66.1019 45.2529 66.5695 46.345 67.044C47.4561 67.5282 48.5838 67.9755 49.7328 68.3633C52.0297 69.1413 54.4036 69.679 56.819 69.9145C58.753 70.1025 60.9633 70.3072 62.8167 69.5791C64.2373 69.0212 65.3839 68.0125 66.2934 66.799C67.2835 65.4773 68.0663 63.9719 68.499 62.3844C68.9486 60.7354 68.2379 57.8574 68.1431 57.5915" fill="#774D35"/>
<path fill-rule="evenodd" clip-rule="evenodd" d="M70.4603 47.643C69.3703 49.0059 65.1034 50.5187 62.8324 48.8764C60.5614 47.2342 59.6639 46.0897 59.3603 44.0377C59.328 43.8189 58.9327 43.6733 58.7656 43.8287C57.8298 44.6985 57.2241 45.8065 56.6239 46.9172C55.9471 48.17 55.2804 49.4304 54.0504 50.2785C51.8718 51.4473 47.9305 51.6137 46.7661 51.0982C44.5355 50.1106 42.7711 47.9984 42.3698 45.0918C42.3698 45.0918 41.9617 43.8025 41.6041 43.5312C41.2652 43.274 39.3948 43.0449 39.1899 43.0069C35.4974 42.3212 30.8272 41.8841 27.5384 44.2965C27.0933 44.5658 25.5696 45.5773 25.547 45.3286C25.5311 44.3543 26.6343 42.149 29.1434 41.0997C32.2462 39.8021 36.8585 39.7262 39.5305 40.0126C39.6649 40.027 40.123 39.9143 40.1554 39.9003C44.2035 38.1462 48.8613 38.6121 53.1928 39.3493C53.8135 39.4699 59.3699 40.8468 61.5801 40.0126C65.2343 38.5196 69.1304 37.4379 73.0766 37.8635C73.1096 37.867 73.6077 40.8933 73.2197 41.0997C72.9108 41.264 72.3853 41.685 72.1987 41.9154C72.0318 42.1214 71.9266 42.3775 71.9359 42.7322C72.011 44.7843 71.4259 46.4355 70.4603 47.643ZM55.4356 45.8119C55.899 45.141 56.0452 43.6341 55.8512 42.5348C55.753 41.9782 55.5622 41.5351 55.3229 41.3145C55.1638 41.1679 54.9823 41.0989 54.7843 41.1092C54.6758 41.1148 54.5582 41.1457 54.4337 41.2129C52.7485 40.3005 50.7069 39.972 48.7716 40.0665C47.2311 40.0662 46.1319 40.4301 45.3865 40.9966C44.4896 41.6783 44.0856 42.6582 44.0622 43.7209C44.0344 44.9819 44.552 46.3615 45.4011 47.453C46.2137 48.4978 47.3254 49.2724 48.5315 49.4511C49.9006 49.7231 51.2957 49.46 52.5088 48.8163C53.7529 48.1561 54.8039 47.0958 55.4356 45.8119ZM68.9452 46.5232C69.7261 45.5997 70.2453 44.3983 70.3244 43.2079C70.3963 42.1246 70.1064 41.0515 69.305 40.1647C68.5785 39.5405 67.2946 39.5302 65.944 39.8777C64.1977 40.3272 62.391 41.3315 61.7888 41.9802C61.6469 42.0546 61.5152 42.1842 61.4005 42.4623L61.3997 42.5614C61.2172 43.4036 61.3255 44.2581 61.6411 45.0465C61.9839 45.9028 62.5719 46.6802 63.2888 47.2733C64.2413 48.0586 65.2355 48.2989 66.1661 48.1721C67.2202 48.0285 68.2004 47.4041 68.9452 46.5232Z" fill="#231F20"/>
<path fill-rule="evenodd" clip-rule="evenodd" d="M61.4536 39.6789C65.154 38.1669 69.1095 37.0771 73.1139 37.5089C73.4451 37.3828 73.8561 37.4891 74.0029 37.9577C75.4293 42.3064 72.2485 41.0971 72.2912 42.7227C72.6246 51.8375 60.3836 53.3941 59.0072 44.0897L58.9819 44.1047V44.1047C57.0016 45.9541 56.5845 48.9635 54.2517 50.5719C49.5458 54.0163 42.875 51.2873 42.0182 45.1555L41.9996 45.0726C41.712 43.8212 41.3681 43.5109 39.9496 43.5171L39.7255 43.4725C36.0401 42.7458 31.1324 42.0928 27.7379 44.5919C26.9996 45.0216 26.9649 46.1263 26.3411 46.6063C25.6577 46.7391 25.2366 45.9164 25.1903 45.3471C25.082 39.6713 35.2304 39.263 39.7753 39.7501C39.8621 39.6601 40.0475 39.6713 40.1099 39.7834C44.2203 38.0023 48.8511 38.2488 53.2522 38.9978C55.9785 39.526 58.6712 40.7291 61.4536 39.6789ZM72.7455 38.5568C70.525 38.4457 68.4711 38.5672 66.2916 39.1014C65.143 39.3787 64.2615 39.7294 63.162 40.1511C56.304 43.192 55.513 37.7868 40.1406 39.9056C40.3394 40.7581 40.376 41.6022 40.3867 42.4031C43.5255 42.2766 42.7865 45.2761 43.9624 47.383L43.9986 47.4465C45.7125 50.5205 49.7566 51.9543 53.0189 49.9154C55.7405 48.3278 56.006 44.3011 58.7158 42.7031C61.0648 42.6106 60.1265 45.7835 61.4048 47.0875C63.2041 49.4904 67.0287 49.8264 69.2849 47.5662C70.3435 46.4786 70.906 45.0978 70.9372 43.6143C70.9962 42.6665 70.8337 41.7033 71.5497 41.0367C72.0516 40.5264 72.9433 40.6967 73.0457 39.9254C73.1107 39.4693 72.9212 38.9746 72.7455 38.5568ZM48.6136 39.7991C50.8193 39.6903 53.1532 40.0737 55.0472 41.1564C56.4491 40.0398 56.7926 44.4773 55.862 45.7608C54.5214 48.5061 51.4002 50.311 48.3949 49.7116C43.7065 49.0317 40.4398 39.7909 48.6136 39.7991ZM54.9125 41.4539L54.7925 41.4364C52.7607 41.1261 47.2282 39.6886 45.0944 41.9574C43.0235 45.7207 48.2772 52.0419 53.7444 47.007C55.266 45.4566 55.8557 43.5765 54.9125 41.4539ZM61.3515 41.9349C62.4037 40.688 67.7664 38.1623 69.6357 39.7831C73.0473 43.6096 67.6369 51.3496 63.1052 47.5786C61.5958 46.3182 60.6029 44.3099 61.0374 42.3652L61.0381 42.2837C61.039 42.2541 61.0446 42.2609 61.0761 42.224C61.1321 42.077 61.2327 41.9832 61.3515 41.9349ZM69.5881 44.2542C70.7386 38.0087 65.9299 40.383 61.9808 42.0499C62.1927 42.2438 62.1918 42.5084 62.1309 42.7259C61.7143 47.3599 67.3421 49.9858 69.5881 44.2542ZM39.6955 40.0536C38.0483 40.6119 27.153 39.6134 26.1465 44.7249C27.2089 43.0022 29.4093 42.3185 31.3875 41.9475C34.0782 41.4429 36.7541 41.7351 39.407 42.2661L39.4618 41.7166C39.5206 41.1338 39.5827 40.5885 39.6955 40.0536Z" fill="#1A1A1A"/>
</g>
<defs>
<clipPath id="clip0_1715_39228">
<rect width="100" height="100" fill="white"/>
</clipPath>
</defs>
</svg>
