<svg width="100" height="100" viewBox="0 0 100 100" fill="none" xmlns="http://www.w3.org/2000/svg">
<g clip-path="url(#clip0_1715_39229)">
<path fill-rule="evenodd" clip-rule="evenodd" d="M-0.483467 106.104L85.9221 113.005L86.0125 113.596C87.4604 123.082 88.1918 129.519 88.2065 132.904L88.2068 133.008C88.2068 136.365 89.231 141.703 91.2796 149.024L91.4063 149.475L-0.604066 149.636L-1.68945 127.601L-0.483467 106.104ZM50.6708 58.8205C54.1841 58.995 57.7249 60.5103 57.9984 61.4787C58.6075 63.6356 59.587 72.8685 62.8081 74.287C66.0292 75.7055 72.9059 74.4123 74.8721 77.7998C76.8382 81.1874 83.2951 94.9963 83.2951 98.2139C83.2951 100.359 62.2528 101.104 20.1683 100.448C20.7055 83.17 22.9453 74.0877 26.8878 73.2007L27.2397 73.1225C32.9411 71.8695 36.3485 71.8291 38.2934 69.8093C40.2781 67.7482 40.6382 64.2104 41.4615 61.4787C41.9152 59.9736 46.3595 58.6065 50.6708 58.8205Z" fill="#F0C094"/>
<path fill-rule="evenodd" clip-rule="evenodd" d="M58.3759 64.2207C58.3891 64.2105 58.4025 64.2073 58.4169 64.2146C58.6906 64.3469 58.7473 64.6114 58.8414 64.8868C58.9789 65.2896 59.1381 65.6827 59.2852 66.0819C59.5784 66.8827 59.858 67.6823 60.1849 68.4697C60.5201 69.2802 60.8674 70.0761 61.2654 70.8587C61.4572 71.2372 61.6634 71.6085 61.8732 71.9774C62.018 72.2334 62.153 72.5852 62.3436 72.8255C62.358 72.749 62.3785 72.6762 62.4027 72.6083C62.3775 72.6204 62.3532 72.6338 62.3303 72.6483C62.2821 72.6787 62.2242 72.618 62.2531 72.5707C62.3568 72.3984 62.4919 72.2819 62.6463 72.203C63.0732 71.7262 72.4834 74.0018 75.0559 76.5576C79.715 81.1865 82.8598 86.9095 84.9281 92.9979C86.0701 96.3576 87.1218 99.75 88.2084 103.128C89.3564 106.7 90.5552 110.256 91.7057 113.826C91.9578 114.611 91.4078 115.324 90.7132 115.582C89.4192 116.063 88.1155 116.515 86.801 116.934C87.4389 119.398 87.8851 121.915 88.2059 124.438C88.868 129.642 88.9512 134.952 89.9945 140.101C90.2341 141.283 90.5371 142.448 90.8573 143.61L90.9315 143.878C91.122 144.56 91.2958 145.248 91.5296 145.915C91.731 146.489 91.9915 147.068 92.1326 147.66C92.2978 148.356 92.0542 149.117 91.4066 149.475C90.8868 149.762 90.1428 149.644 89.8292 149.104C89.7653 148.993 89.7267 148.873 89.711 148.752C89.664 148.651 89.6206 148.548 89.582 148.442C89.5669 148.402 89.5536 148.36 89.541 148.317L89.5036 148.191C89.4119 147.89 89.3275 147.587 89.2431 147.284C89.1056 146.797 88.9672 146.312 88.8143 145.83L88.7366 145.589C88.3579 144.429 88.019 143.259 87.7235 142.075C86.6662 137.829 86.4418 133.433 86.1515 129.081L86.1365 128.856C85.8736 124.956 85.7168 121.065 86.0388 117.174L85.9948 117.189V117.189L85.9507 117.202C85.5324 117.331 85.1126 117.457 84.6917 117.58C84.6784 117.584 84.6664 117.589 84.6531 117.593C84.3838 117.677 84.1069 117.756 83.8253 117.831L83.6558 117.874L83.5364 117.907L83.4107 117.943C83.0119 118.059 82.6052 118.193 82.1917 118.18C81.5067 118.291 80.8096 118.357 80.1246 118.36C80.3357 121.831 80.5793 125.3 80.8699 128.765C81.1618 132.248 81.5489 135.718 81.9505 139.189C82.1483 140.903 82.3605 142.614 82.5945 144.322C82.7127 145.188 82.8357 146.05 82.9925 146.909C83.1541 147.787 83.4399 148.726 83.2674 149.614C83.2638 149.613 83.2602 149.612 83.2566 149.612C83.1987 149.869 83.0443 150.1 82.7754 150.259C82.2821 150.549 81.5923 150.379 81.3089 149.872C81.2848 149.829 81.2619 149.786 81.2402 149.741C80.9496 149.866 80.6311 149.914 80.2404 149.918L74.9413 149.971V149.971C72.5329 149.995 70.1246 150.021 67.715 150.056C60.15 150.168 52.585 150.298 45.02 150.39L42.1831 150.423C37.9284 150.467 33.6713 150.556 29.4165 150.555C27.2881 150.555 25.1618 150.548 23.0333 150.495C22.0021 150.47 20.9734 150.43 19.9435 150.387L19.7617 150.379C18.9395 150.338 18.0666 150.262 17.2626 150.447C17.0407 150.881 16.4739 150.971 16.1772 150.527C15.4993 149.511 15.3143 148.093 15.189 146.851L15.1449 146.404C15.0062 145.012 14.8844 143.621 14.794 142.227C14.4732 137.287 14.3562 132.343 14.5033 127.394C14.5781 124.871 14.8084 122.364 15.081 119.856C15.1666 119.073 15.2559 118.292 15.3523 117.512L15.354 117.234C15.3541 117.145 15.3535 117.061 15.3511 116.981L15.3271 116.229C15.3071 115.601 15.2886 114.973 15.2808 114.345L15.2776 113.969L15.2739 113.267C14.6782 113.21 14.0426 113.011 13.5289 112.916C12.6957 112.759 11.8646 112.59 11.0361 112.412C9.37668 112.053 7.73533 111.628 6.10484 111.159L5.75807 111.058C4.25356 110.622 2.72834 110.157 1.30501 109.505C0.747849 109.249 0.191889 108.96 -0.296535 108.582C-0.325478 108.98 -0.3701 109.376 -0.396632 109.771C-0.449574 110.551 -0.512406 111.329 -0.564264 112.109L-0.613854 112.851C-0.695314 114.088 -0.768678 115.323 -0.801843 116.564C-0.948973 121.975 -0.974299 127.41 -0.689686 132.817C-0.548586 135.524 -0.347186 138.231 -0.0565436 140.927C0.0857627 142.253 0.236511 143.583 0.422233 144.904C0.613985 146.262 0.960102 147.611 1.06623 148.979C1.16753 150.298 -0.836816 150.489 -1.16605 149.283C-1.56028 147.837 -1.6607 146.277 -1.8685 144.79L-1.89205 144.625C-2.1224 143.046 -2.30691 141.46 -2.4661 139.872C-3.0157 134.394 -3.15834 128.888 -2.87011 123.389C-2.73307 120.755 -2.40816 118.132 -2.01491 115.526L-1.96924 115.226C-1.79022 114.059 -1.62263 112.892 -1.41989 111.73L-1.34212 111.295C-1.16002 110.296 -1.02013 109.21 -0.72466 108.212L-0.812487 108.13C-0.976689 107.976 -1.15464 107.798 -1.28424 107.606C-1.73045 107.545 -2.11034 107.223 -2.0633 106.637C-1.91014 104.711 -1.21067 102.753 -0.587177 100.935C0.0387293 99.1081 0.764733 97.3149 1.58721 95.5677C4.48037 89.4271 8.64706 83.852 13.7423 79.3858C16.445 77.0162 19.4069 74.9148 22.6799 73.4188C24.2935 72.6799 25.9626 72.1084 27.7113 71.8002C28.5772 71.6473 29.4515 71.5284 30.3319 71.503C31.0461 71.0787 31.8941 71.2572 32.5857 71.7224L32.6233 71.748H32.6246L32.8017 71.7832V71.7832C32.8452 71.7917 32.844 71.8609 32.8017 71.8706C32.7993 71.8706 32.7957 71.8718 32.7933 71.873C32.9067 71.9628 33.014 72.0587 33.1141 72.1618C33.4445 72.5015 33.4433 72.9116 33.2733 73.2428C34.2851 74.1868 34.9243 75.3989 35.5936 76.6207C36.3112 77.9286 37.2506 79.0594 38.3939 80.0131C42.5847 83.5098 48.7485 85.0568 53.9994 83.4055C57.8609 82.1922 61.1593 78.9078 62.071 74.9536C61.8551 75.0313 61.6212 75.0434 61.3993 74.9633C60.3572 74.5896 59.9599 73.4438 59.5614 72.4858L59.5421 72.4396C59.1525 71.5114 58.8257 70.5687 58.5676 69.5956C58.3073 68.6129 58.154 67.5755 58.0901 66.5612C58.0654 66.1601 58.0762 65.759 58.0969 65.358L58.1152 65.0264C58.1293 64.7259 58.1249 64.4189 58.3759 64.2207ZM41.421 61.5162C41.4355 61.4798 41.4921 61.4604 41.5139 61.5041C42.4363 63.4187 41.831 66.0419 40.959 67.8679C40.0462 69.7776 38.6713 71.2263 37.0421 72.4797C36.8177 72.652 36.5873 72.8218 36.3534 72.988C34.9942 73.9538 33.7834 71.3501 35.3525 70.8526C36.9878 70.0167 38.3168 68.5267 39.2404 66.9615C39.7398 66.1159 40.1824 65.235 40.5213 64.3105C40.859 63.3884 41.0616 62.4286 41.421 61.5162Z" fill="#1A1A1A"/>
<path fill-rule="evenodd" clip-rule="evenodd" d="M72.6591 25.2924C72.6186 23.8415 70.5255 23.2391 69.9208 24.676C69.8832 24.7145 69.8424 24.7515 69.8042 24.7846C69.9935 24.6209 69.5976 24.8917 69.5333 24.9252C69.4781 24.9539 69.4218 24.9797 69.3656 25.0064C68.9767 21.3308 67.6563 17.3684 64.2443 15.5234C59.4854 13.1968 53.9865 12.7426 48.7656 12.9738C46.1208 13.132 43.0667 13.5584 40.717 12.2094C39.9848 11.7891 39.3979 11.1275 38.5705 10.8677C35.9587 10.1554 34.774 12.8594 35.1298 15.083C34.0157 15.0919 32.9106 15.7137 32.4298 16.7375C32.1475 17.3434 32.1524 17.9972 31.909 18.6053C31.162 20.1475 30.0932 21.2559 30.6975 23.1256C29.6347 24.3449 30.2406 26.1907 31.0982 27.358C31.5217 27.9652 32.0261 28.548 32.3363 29.2276C32.6374 29.8783 32.1829 30.65 31.9299 31.2668C30.0598 35.7377 30.1666 40.6615 31.173 45.3249C29.1536 46.2083 28.5475 48.9698 29.8643 50.7086C30.3174 51.3233 30.8702 51.5514 31.497 51.9296C32.2904 52.3697 31.6424 54.1329 31.8965 54.9844C32.2416 57.0632 34.119 58.3433 35.9753 56.9934C37.1532 56.8137 38.1033 60.2691 38.9587 61.1364C39.4857 61.8352 40.0708 62.4628 40.707 63.0419C42.6024 67.9588 52.3149 70.4521 57.1169 70.1675C62.1454 69.6367 65.5378 65.3311 68.3626 61.51C69.8131 59.4739 70.7564 57.1951 71.0995 54.7096C71.4442 52.2117 71.2934 49.7092 71.0604 47.2082C70.571 41.8944 69.7989 34.2389 69.3003 28.8677C71.1021 28.7181 72.7137 27.1715 72.6591 25.2924V25.2924Z" fill="#F0C094"/>
<path fill-rule="evenodd" clip-rule="evenodd" d="M36.7375 11.5747C37.0875 11.2266 37.6608 11.5838 38.0401 11.8634L38.124 11.9263L38.3644 12.1105C38.9093 12.5341 39.4193 12.9944 40.0081 13.3608C40.6506 13.7609 41.3483 14.0791 42.057 14.3399C43.4314 14.8458 44.9098 15.0728 46.3668 15.1445C52.3282 15.4379 59.2666 12.28 64.6772 16.0509C65.9597 16.9448 66.8448 18.2518 67.3015 19.7466C67.8166 21.4322 67.6402 23.1779 68.0616 24.8694C68.2445 25.6035 69.5046 25.7054 69.6454 24.8986L69.6546 24.8361L69.7649 24.7664L69.8085 24.7402C69.8533 24.7142 69.8736 24.7068 69.8349 24.7433L69.8263 24.7511L69.8435 24.7361C69.8566 24.7243 69.8697 24.7121 69.8828 24.6997L69.9212 24.6618C70.1898 24.0236 70.752 23.7877 71.2976 23.8498L71.2822 23.8877L71.1198 24.3098L71.0681 24.4422C70.877 24.9256 70.6667 25.3832 70.3033 25.7975C69.7891 26.3836 69.1496 26.8613 68.4291 27.1554C68.281 27.2158 68.3032 27.4183 68.4667 27.4347C70.0762 27.5962 71.8891 26.6104 72.646 25.1163C72.6534 25.1689 72.658 25.223 72.6595 25.2782C72.6648 25.4602 72.6544 25.6391 72.6298 25.8139C72.5403 25.8475 72.4534 25.8974 72.3729 25.9648C71.8502 26.4027 71.5936 27.1184 71.1021 27.607C70.587 28.119 69.9548 28.5938 69.2684 28.8316C69.2576 28.8354 69.2486 28.8408 69.2407 28.8469C69.189 28.6489 69.1342 28.452 69.0716 28.2581C69.0471 28.1819 68.9463 28.2009 68.9388 28.2763C68.925 28.4108 67.0368 27.0566 65.5826 27.2754C62.8489 27.6867 62.2176 29.2958 58.2898 29.0582C56.3727 28.9423 52.3243 27.1317 48.7826 26.9956C45.5697 26.8721 39.8276 28.7209 38.3126 29.7862C37.5251 30.34 39.749 32.1688 39.3462 33.0002C38.2035 35.3588 38.6664 38.4787 37.4717 40.3437L37.4255 40.4139C36.6604 41.5474 37.1381 44.5635 36.8401 45.4933C36.302 47.1721 35.4111 46.4368 35.5456 46.6618C35.5882 46.7329 35.702 46.6868 35.6796 46.6048C35.3123 45.2582 34.3071 44.2414 33.0291 43.8704C33.0844 43.5512 32.9838 43.1504 32.7869 42.8886L32.7063 42.5097L32.632 42.155C32.4608 41.3276 32.3075 40.501 32.225 39.651C32.1014 38.3763 32.0971 37.0921 32.1783 35.8143C32.2849 34.1352 32.6279 32.5176 33.0051 30.901L33.0456 30.7278L33.3422 29.4708C34.0835 29.6834 34.8441 29.8177 35.5834 29.8843C36.4441 29.9618 37.2962 29.9546 38.1418 29.886C38.8911 31.9384 38.8626 34.2753 37.9366 36.2797C36.8531 38.6244 34.1976 40.864 34.9265 43.7074C35.2444 44.9469 37.104 44.6939 37.148 43.4423L37.1488 43.4041C37.1557 42.1675 37.5727 41.1491 38.1236 40.0862L38.1995 39.9409L38.3253 39.704C38.9848 38.4607 39.5431 37.2338 39.7287 35.8194C39.9983 33.7646 39.5759 31.6429 38.5666 29.8465C42.1619 29.4684 45.6416 28.0334 49.152 27.2625L49.313 27.2278L49.4748 27.1942C52.0682 26.667 54.9265 26.6047 57.2776 27.9813C57.3224 28.0075 57.3579 27.9418 57.3174 27.9125C53.9049 25.4311 49.4854 25.7834 45.5724 26.6578L45.347 26.7088L45.1256 26.7598C41.5063 27.6026 37.7145 28.8405 34.0148 27.75C33.0531 27.4666 32.1199 27.001 31.367 26.3268L31.304 26.27C30.9857 25.9803 30.6223 25.6054 30.561 25.1657C30.5395 25.0109 30.5462 24.9048 30.6369 24.7823C30.7312 24.6546 30.8961 24.6552 30.8012 24.6091C31.9094 25.1476 32.8593 23.6003 31.8185 22.9299L31.745 22.8842C30.4133 22.0336 31.0786 20.0978 32.6063 20.1069L32.6844 20.1083C33.5496 20.1109 33.8148 19.0806 33.3494 18.4775L33.3048 18.4212C32.4436 17.3031 33.8931 15.9544 35.0209 16.5865L35.0826 16.6223C35.6179 16.9208 36.1807 16.5885 36.3833 16.0614C36.8178 14.9304 36.5954 13.7627 36.5698 12.5922L36.5684 12.5159L36.5665 12.3885L36.5662 12.288L36.5672 12.2213C36.5728 11.9746 36.6045 11.707 36.7375 11.5747ZM69.2815 29.0079L69.2923 29.0103L69.3155 29.0114L69.3366 29.2392L69.3096 29.1235L69.2815 29.0079ZM32.3115 29.1592L32.2855 29.1058L32.3697 29.14L32.3291 29.1973L32.3115 29.1592ZM55.9176 22.651C55.8279 22.6253 55.7633 22.7659 55.8524 22.8069C58.0661 23.8278 59.7451 25.457 61.0557 27.4986C61.1799 27.6918 61.3673 27.7485 61.5829 27.7148C61.6888 27.6982 61.7482 27.6464 61.8047 27.5754L61.8188 27.5573L61.8619 27.4986C61.9554 27.3692 61.943 27.1541 61.8619 27.0234C60.5316 24.8816 58.3053 23.3385 55.9176 22.651ZM61.187 21.9824C61.0897 21.9827 61.0378 22.1329 61.1122 22.1967C61.7479 22.7422 62.3686 23.3468 62.82 24.0605C63.0393 24.4069 63.2225 24.7762 63.3551 25.1652C63.4996 25.5896 63.5464 26.0296 63.7528 26.4309C64.0987 27.1036 65.0256 26.7278 65.0722 26.0706C65.1426 25.0792 64.3212 23.9644 63.6704 23.2888C63.01 22.6032 62.2 22.1304 61.2654 21.9923L61.2 21.9832L61.187 21.9824ZM36.7861 21.2063C36.5148 21.1371 36.2929 21.4863 36.5062 21.6911C37.6781 22.8167 39.262 23.3387 40.839 23.5667L40.9191 23.578C42.3956 23.7821 44.5431 23.8979 45.6564 22.6871C45.8921 22.4307 45.8182 21.9394 45.4399 21.8601C44.9217 21.7516 44.3898 21.7916 43.8642 21.8569L43.7142 21.8761L43.3414 21.926C42.6052 22.0229 41.8661 22.082 41.1229 22.0601C39.6348 22.0159 38.2174 21.5716 36.7861 21.2063ZM62.5748 17.6248C62.4189 17.564 62.254 17.7802 62.352 17.9172C62.801 18.545 63.339 19.094 63.7989 19.7122C64.2603 20.3323 64.6456 20.984 65.1915 21.5356C65.4844 21.8317 65.9832 21.5306 65.8797 21.1317C65.4879 19.622 63.9972 18.179 62.5748 17.6248ZM39.2116 18.3062C39.0477 18.2477 38.9329 18.4765 39.047 18.5914C40.558 20.1124 43.2766 20.9091 45.2782 20.0305C45.7286 19.8328 45.4526 19.1972 45.0475 19.1721C44.0458 19.1099 43.04 19.2266 42.0435 19.073C41.0707 18.9229 40.1376 18.6368 39.2116 18.3062ZM41.7518 16.2674C41.5353 16.1765 41.4448 16.5022 41.6039 16.6208C42.4588 17.2581 43.5082 17.5343 44.5544 17.3049C44.8951 17.2302 44.8215 16.6763 44.4719 16.6905C43.5255 16.7286 42.6337 16.6376 41.7518 16.2674ZM48.766 12.9596C50.0614 12.9023 51.3739 12.8871 52.688 12.9323L52.1049 13.0103L51.7161 13.0615C50.2255 13.2553 48.7327 13.4193 47.2277 13.4126C46.2107 13.4081 45.1948 13.3255 44.2016 13.1233C45.723 13.2158 47.3068 13.0469 48.766 12.9596Z" fill="#AF6E47"/>
<path fill-rule="evenodd" clip-rule="evenodd" d="M33.3808 22.0974C33.3791 22.1049 33.3816 22.1106 33.3833 22.1186C33.3837 22.1163 33.384 22.1151 33.3846 22.1123C33.3832 22.1063 33.3821 22.1023 33.3808 22.0974" fill="#4F66AF"/>
<path fill-rule="evenodd" clip-rule="evenodd" d="M33.3797 22.1748C33.3731 22.1678 33.3637 22.1625 33.3544 22.1555C33.3541 22.1558 33.354 22.156 33.3539 22.1562C33.3627 22.1621 33.3711 22.1687 33.3797 22.1748" fill="#4F66AF"/>
<path fill-rule="evenodd" clip-rule="evenodd" d="M72.3737 25.9786C72.9655 25.4828 73.8978 25.9393 73.6973 26.7555C73.4791 27.6444 72.5342 28.2517 71.7541 28.6169C70.9512 28.9927 70.1691 29.0651 69.2931 29.0241L69.2823 29.0217V29.0217C69.5255 30.0048 69.6634 31.0268 69.8494 32.0159C70.0855 33.2707 70.3178 34.5261 70.5466 35.7821C70.7679 36.9962 71.0477 38.2118 71.2177 39.4319C71.3892 40.6635 71.5539 41.896 71.7224 43.128C72.0035 45.1856 72.2305 47.2527 72.4698 49.3163L72.5838 50.293C72.8235 52.3605 73.0164 54.4304 72.5622 56.4878C72.1366 58.416 71.1777 60.2146 70.0655 61.8242C68.9762 63.4003 67.7594 64.9157 66.4237 66.2866C63.8473 68.9305 60.6702 71.0481 56.9448 71.4409C55.3407 71.61 53.6275 71.4218 52.1195 70.834L52.0194 70.7945C50.4928 70.1869 48.6234 69.1465 48.2261 67.4391C47.9822 66.3918 49.0526 65.5742 49.9912 66.0711C50.4261 66.3015 50.753 66.5646 51.11 66.8945L51.1733 66.9534C51.4651 67.2266 51.5773 67.3105 51.9139 67.5242C52.6044 67.9621 53.1218 68.1693 53.906 68.3683C55.3518 68.7349 56.9122 68.6769 58.3799 68.2433C61.4961 67.3226 63.9136 64.9203 65.9846 62.5115C67.1091 61.2035 68.1764 59.8313 68.9996 58.3068C69.8633 56.7073 70.262 55.028 70.238 53.208C70.2109 51.1545 69.9295 49.093 69.7447 47.0491C69.5565 44.9655 69.3825 42.8826 69.2292 40.7961C69.0856 38.8394 69.0717 36.8739 69.0215 34.9111L69.0116 34.5431C68.9821 33.5011 68.9617 32.4588 68.9382 31.4165C68.915 30.3773 68.8334 29.3249 68.9395 28.2901C68.9471 28.2147 69.0478 28.1957 69.0724 28.2719C69.135 28.4658 69.1897 28.6627 69.2415 28.8607C69.2494 28.8546 69.2583 28.8492 69.2691 28.8454C69.9556 28.6076 70.5877 28.1328 71.1028 27.6208C71.5943 27.1322 71.851 26.4165 72.3737 25.9786ZM34.817 11.4192C35.2482 9.63372 37.1887 9.2349 38.6235 10.0948C39.3137 10.5083 39.8663 11.1046 40.511 11.5785C41.1519 12.0498 41.8603 12.4282 42.6078 12.6955C44.0927 13.2264 45.6591 13.4195 47.2285 13.4264C51.0482 13.4433 54.7898 12.361 58.6152 12.4817C61.5752 12.5751 64.7169 13.4571 66.864 15.6143C68.0206 16.7765 68.7659 18.2705 69.1657 19.8567C69.3525 20.598 69.4918 21.3573 69.6016 22.1148L69.6285 22.3042C69.69 22.7469 69.7887 23.2156 69.7978 23.6631C69.8061 24.0649 69.7053 24.4854 69.6507 24.8832C69.5355 25.7216 68.2474 25.6261 68.0623 24.8832C67.6409 23.1917 67.8173 21.446 67.3023 19.7603C66.8455 18.2655 65.9604 16.9586 64.6779 16.0647C59.2674 12.2938 52.3289 15.4516 46.3675 15.1583C44.9105 15.0866 43.4321 14.8596 42.0578 14.3537C41.3491 14.0929 40.6513 13.7747 40.0088 13.3746C39.4201 13.0082 38.9101 12.5479 38.3651 12.1243L38.1247 11.94C37.7511 11.6567 37.1151 11.2136 36.7382 11.5885C36.5742 11.7516 36.5643 12.1206 36.5673 12.4023L36.5691 12.5296C36.5862 13.7257 36.828 14.9196 36.384 16.0752C36.1815 16.6022 35.6187 16.9346 35.0833 16.6361L35.0557 16.6201C33.9234 15.9409 32.4357 17.3056 33.3055 18.435L33.3326 18.4691C33.822 19.0688 33.5611 20.1247 32.6852 20.1221L32.6536 20.1215C31.093 20.0724 30.4006 22.0388 31.7457 22.898L31.7871 22.9237C32.8793 23.5826 31.9213 25.1668 30.802 24.6229C30.8968 24.669 30.732 24.6684 30.6376 24.7961C30.547 24.9186 30.5402 25.0246 30.5618 25.1795C30.6271 25.6485 31.0363 26.0438 31.3677 26.3406C32.1206 27.0148 33.0539 27.4804 34.0155 27.7638C37.8678 28.8992 41.8199 27.5103 45.5732 26.6716C49.4861 25.7972 53.9057 25.4449 57.3181 27.9263C57.3587 27.9556 57.3232 28.0213 57.2783 27.9951C54.8293 26.5612 51.8298 26.6884 49.1528 27.2763C45.6424 28.0472 42.1626 29.4822 38.5673 29.8603C39.5766 31.6567 39.9991 33.7784 39.7295 35.8331C39.5439 37.2476 38.9855 38.4745 38.3261 39.7178L38.2002 39.9547C37.6123 41.0707 37.1568 42.125 37.1495 43.4179C37.1424 44.7024 35.2483 44.9732 34.9273 43.7212C34.1983 40.8778 36.8539 38.6382 37.9373 36.2935C38.8634 34.2891 38.8919 31.9521 38.1425 29.8998C37.297 29.9684 36.4448 29.9755 35.5841 29.8981C34.8448 29.8315 34.0843 29.6972 33.3429 29.4846L33.0464 30.7416C32.6535 32.4159 32.2894 34.089 32.1791 35.828C32.0979 37.1059 32.1022 38.3901 32.2258 39.6648C32.3326 40.7657 32.5582 41.8275 32.7877 42.9024C32.9846 43.1642 33.0852 43.5649 33.0298 43.8842C34.3079 44.2552 35.3131 45.2719 35.6804 46.6186C35.7028 46.7006 35.5889 46.7467 35.5463 46.6756C34.6749 45.218 32.431 44.6816 31.0115 45.6446C29.656 46.564 29.1213 48.4204 29.8886 49.8899C30.2922 50.6626 30.8906 51.2056 31.6622 51.5795L31.8173 51.653C32.2217 51.8459 32.5929 52.0561 32.8529 52.4436C33.1902 52.9461 33.2016 53.4773 33.1697 54.0516L33.1559 54.2844C33.1346 54.6693 33.1298 55.0655 33.2435 55.4358L33.2694 55.5181C33.2994 55.6105 33.3309 55.6919 33.3857 55.7802C33.402 55.8064 33.5556 55.9583 33.6056 56.0132L33.6687 56.0324V56.0324L33.7392 56.0353V56.0353C33.8175 56.0365 33.9203 56.0024 33.8865 56.026L33.8957 56.0207C33.9254 56.0021 33.9527 55.9824 33.9757 55.9649L34.0194 55.9305C34.1216 55.7816 34.2496 55.6586 34.4067 55.5648L34.5567 55.4975V55.4975C34.9465 55.0825 35.6144 55.3005 35.8939 55.7139C36.095 56.0112 36.2032 56.3134 36.2121 56.6115C36.2435 56.5607 36.3133 56.5329 36.3577 56.5898L36.6226 56.9302C37.6363 58.236 38.6326 59.55 39.7845 60.7404C40.4191 61.3963 41.1016 62.0127 41.8152 62.5804C42.4243 63.0651 43.5799 63.5315 43.5976 64.4144C43.6031 64.701 43.4013 64.904 43.1544 65.0013C42.3506 65.3178 41.3575 64.2411 40.7769 63.7172L40.7295 63.6749C40.019 63.0475 39.3706 62.3588 38.7723 61.6224C37.6101 60.1917 36.6383 58.5452 36.21 56.7338C36.1899 57.0499 36.0554 57.3596 35.7935 57.6519C35.4449 58.0409 34.9677 58.3137 34.458 58.426C33.3033 58.6804 32.176 58.2615 31.4889 57.2914C30.9082 56.4714 30.7372 55.3885 30.8122 54.3977L30.8214 54.2788C30.8319 54.1199 30.8453 53.8284 30.8861 53.7043L30.5226 53.503V53.503C30.0768 53.2639 29.6637 52.9504 29.2929 52.6058C27.8027 51.2207 27.055 48.9696 27.7362 46.9998C28.1624 45.7676 29.0578 44.6954 30.2045 44.1381C30.0128 43.6915 29.9487 43.1612 29.8764 42.692L29.8643 42.6144C29.7416 41.8447 29.639 41.0653 29.5999 40.2863C29.5267 38.8316 29.6156 37.3632 29.8424 35.9254C30.2106 33.5899 30.973 31.113 32.3704 29.1538C31.3043 28.7269 30.323 28.109 29.5656 27.2509C28.7741 26.3543 28.2695 25.0706 28.8815 23.9319C29.0375 23.6417 29.2408 23.3977 29.4744 23.204C29.0693 22.4328 28.9382 21.5213 29.1882 20.6502C29.4869 19.6087 30.2979 18.7964 31.2776 18.4171C31.0397 17.4303 31.2341 16.3689 31.9611 15.5465C32.6822 14.7307 33.8021 14.4336 34.8385 14.62C34.8947 13.5705 34.567 12.4543 34.817 11.4192ZM31.9101 48.2673C32.8604 47.7985 33.9865 47.873 34.9357 48.3173L35 48.3481C36.0363 48.8547 37.4088 50.0384 37.0794 51.2973C36.8866 52.0336 36.0752 52.285 35.4461 51.9672C34.9205 51.7016 34.8007 51.2268 34.537 50.7499C34.3506 50.4126 34.1201 50.1489 33.8495 49.8778C33.2789 49.3064 32.6381 48.882 31.9101 48.5424C31.8052 48.4934 31.8088 48.3174 31.9101 48.2673ZM55.8531 22.8207C55.7641 22.7797 55.8287 22.6391 55.9183 22.6648C58.3061 23.3523 60.5323 24.8954 61.8626 27.0372C61.9437 27.1679 61.9561 27.383 61.8626 27.5123L61.8196 27.571C61.7586 27.6513 61.6984 27.7106 61.5837 27.7286C61.368 27.7623 61.1806 27.7056 61.0564 27.5123C59.7459 25.4708 58.0669 23.8416 55.8531 22.8207ZM71.8379 23.225C72.0402 22.8795 72.5766 22.9491 72.6833 23.3364L72.6987 23.3701C72.7564 23.5021 72.7302 23.5291 72.6226 23.4544C72.8888 23.6755 73.0093 24.0048 72.928 24.3588C72.4885 26.271 70.3402 27.6364 68.4674 27.4485C68.304 27.4321 68.2817 27.2296 68.4299 27.1692C69.1504 26.8751 69.7899 26.3974 70.3041 25.8113C70.8039 25.2415 71.0141 24.5896 71.283 23.9015C71.3838 23.6432 71.5408 23.4572 71.7618 23.3556C71.7911 23.3149 71.8166 23.2714 71.8379 23.225ZM61.1878 21.9962L61.2007 21.997C62.163 22.1223 62.9954 22.6011 63.6711 23.3026C64.322 23.9782 65.1433 25.093 65.0729 26.0844C65.0263 26.7416 64.0994 27.1174 63.7536 26.4447C63.5472 26.0434 63.5004 25.6034 63.3558 25.179C63.2232 24.79 63.04 24.4207 62.8208 24.0743C62.3694 23.3606 61.7486 22.756 61.113 22.2105C61.0386 22.1467 61.0904 21.9965 61.1878 21.9962V21.9962ZM36.507 21.7049C36.2936 21.5001 36.5155 21.1509 36.7869 21.2201C38.2182 21.5854 39.6356 22.0297 41.1236 22.0739C41.8669 22.0958 42.6059 22.0367 43.3422 21.9398L43.7149 21.8899C44.2891 21.8143 44.8731 21.755 45.4406 21.8739C45.819 21.9531 45.8929 22.4445 45.6571 22.7009C44.5438 23.9117 42.3964 23.7959 40.9199 23.5918C39.3165 23.37 37.6987 22.8495 36.507 21.7049ZM62.3527 17.931C62.2547 17.794 62.4196 17.5778 62.5756 17.6386C63.9979 18.1928 65.4886 19.6358 65.8805 21.1455C65.984 21.5443 65.4851 21.8455 65.1922 21.5494C64.6463 20.9977 64.261 20.3461 63.7996 19.726C63.3398 19.1078 62.8017 18.5588 62.3527 17.931ZM39.0477 18.6052C38.9336 18.4903 39.0484 18.2615 39.2124 18.32C40.1384 18.6506 41.0714 18.9367 42.0443 19.0868C43.0407 19.2404 44.0466 19.1237 45.0482 19.1859C45.4534 19.211 45.7293 19.8466 45.2789 20.0443C43.2773 20.9229 40.5588 20.1262 39.0477 18.6052ZM41.6046 16.6346C41.4455 16.516 41.536 16.1903 41.7525 16.2812C42.6344 16.6514 43.5263 16.7424 44.4727 16.7043C44.8223 16.6901 44.8958 17.2439 44.5551 17.3187C43.509 17.5481 42.4596 17.2718 41.6046 16.6346Z" fill="#1A1A1A"/>
<path fill-rule="evenodd" clip-rule="evenodd" d="M60.6639 59.5457C59.7755 59.8046 58.8219 59.8277 57.9163 59.5603C57.0949 59.3178 56.2516 58.7841 55.6471 58.078C55.11 57.4506 54.7623 56.6882 54.7759 55.8745C54.7775 55.7815 54.8105 55.7039 54.8613 55.6437C54.916 55.5789 54.9924 55.5344 55.0743 55.5151C55.1584 55.4952 55.2474 55.5022 55.3232 55.5369C55.3918 55.5682 55.4506 55.6215 55.4873 55.6993C55.5802 55.8221 55.6727 55.943 55.7657 56.0606C56.5126 56.9886 57.236 57.6821 58.3593 57.9308C58.9687 58.0658 59.5774 58.006 60.1359 57.8C60.7337 57.5796 61.2741 57.1919 61.6976 56.6959C61.889 56.4718 62.1149 56.3803 62.3358 56.3787C62.5862 56.377 62.8337 56.494 63.0201 56.6811C63.2034 56.865 63.3261 57.1149 63.3372 57.3763C63.347 57.6057 63.2726 57.8453 63.0747 58.0591C62.4228 58.7634 61.578 59.2793 60.6639 59.5457ZM60.6365 47.9232C61.5472 48.4801 62.9348 49.7787 61.9551 51.1594C60.8019 52.3768 59.1416 50.981 58.3234 50.3497C57.5647 49.8605 56.7123 51.1187 57.4162 51.69C63.3284 56.0937 65.7277 48.0688 61.0971 47.2684C60.5872 47.1802 60.3979 47.7509 60.6365 47.9232ZM52.1175 45.4727C51.8248 45.2843 51.4804 45.2197 51.0989 45.3944C50.8007 45.5308 50.2776 45.9856 49.9137 46.5835C49.6646 46.9925 49.4881 47.4724 49.5248 47.9722C49.5334 48.0883 49.4907 48.1739 49.4235 48.2371C49.3704 48.2871 49.2937 48.3238 49.2036 48.3353C49.1271 48.3451 49.0414 48.3363 48.9718 48.3144C48.8394 48.2728 48.7693 48.1864 48.7429 48.1158C48.488 47.4349 48.5978 46.6751 48.8834 45.9895C49.2689 45.0644 49.9689 44.2894 50.4275 44.0396C51.2124 43.6119 52.1382 43.5922 52.9241 44.0279C53.5932 44.3987 54.0115 44.9975 54.4275 45.6078C54.516 45.7375 54.6038 45.8663 54.6945 45.9928C54.8763 46.2463 54.8944 46.4977 54.824 46.7133C54.746 46.9522 54.5471 47.1538 54.2984 47.2593C54.0685 47.3568 53.8017 47.3705 53.5656 47.2703C53.3662 47.1857 53.1832 47.0207 53.0673 46.7408C52.8723 46.2694 52.5473 45.7492 52.1175 45.4727V45.4727ZM66.9831 46.5215C66.7827 46.6266 66.6259 46.6583 66.4035 46.5912C66.2805 46.5541 66.159 46.4829 66.0638 46.3871C65.9695 46.2922 65.9015 46.1743 65.875 46.0434C65.81 45.7204 65.6343 45.418 65.384 45.2209C65.17 45.0524 64.8999 44.9631 64.6004 45.0135C64.2771 45.0678 63.9691 45.2763 63.757 45.5222C63.6861 45.6045 63.6306 45.698 63.5747 45.7908C63.4702 45.9644 63.3686 46.1257 63.2245 46.2532C63.1698 46.3017 63.0875 46.3353 63.0077 46.3353C62.9753 46.3353 62.9424 46.33 62.9111 46.3202C62.5894 45.9953 62.5275 45.7488 62.5379 45.5044C62.5487 45.248 62.6492 44.9885 62.8115 44.7463C63.1923 44.1783 63.9154 43.7125 64.4033 43.607C65.0714 43.4625 65.735 43.636 66.267 44.0114C66.8144 44.3977 67.2201 44.9975 67.3466 45.6735C67.377 45.8363 67.364 46.012 67.3024 46.1644C67.2422 46.3132 67.1373 46.4407 66.9831 46.5215ZM53.5911 39.4162C53.1901 39.8092 52.7155 39.8701 52.2354 39.9242C51.9686 39.9546 51.7556 39.9791 51.5461 40.0267C50.97 40.1575 50.4007 40.3545 49.8812 40.6382C49.3382 40.9349 48.7464 41.2926 48.3207 41.7509C48.2195 41.8599 48.124 41.9744 48.0285 42.089C47.9413 42.1936 47.8574 42.2943 47.7689 42.3914C47.6673 42.5029 47.5708 42.6197 47.4749 42.7363C47.4155 42.8346 47.4038 42.8588 47.3919 42.884C47.3739 42.9218 47.353 42.9642 47.3291 43.0096C47.2964 43.0718 47.258 43.1399 47.2179 43.2016C47.1511 43.3145 47.1153 43.3456 47.0843 43.3595C47.0329 43.3825 46.9842 43.3939 46.9369 43.3877C46.8926 43.382 46.8509 43.3605 46.8096 43.3255C46.6037 43.1505 46.543 42.8633 46.5493 42.5584C46.5587 42.0958 46.7283 41.5837 46.8846 41.2688C47.2482 40.5372 47.7523 39.7767 48.3586 39.2307C49.0503 38.6074 49.8071 38.1355 50.6764 37.8104C51.2166 37.6083 51.8421 37.4227 52.4306 37.4462C52.8542 37.4631 53.2586 37.5897 53.5926 37.9061C53.7977 38.1003 53.8961 38.3766 53.8961 38.6526C53.8961 38.9342 53.7939 39.2174 53.5911 39.4162ZM67.7987 43.0154C67.7732 43.0575 67.7379 43.0864 67.6986 43.1038C67.6574 43.1221 67.6115 43.1273 67.5674 43.1199C67.5234 43.1124 67.4817 43.0924 67.4486 43.0618C67.4169 43.0325 67.3927 42.9936 67.3819 42.9459C67.1157 41.7695 66.5987 40.8943 65.4954 40.3299C64.9526 40.0522 64.3285 39.8758 63.7377 39.7352C63.566 39.6943 63.3846 39.6678 63.2019 39.641C62.6293 39.5569 62.0526 39.4606 61.6793 38.9949C61.4544 38.7144 61.36 38.3557 61.4134 38.0277C61.4636 37.7188 61.643 37.4356 61.9692 37.2658C62.7811 36.8435 63.7901 37.2579 64.61 37.611C64.6708 37.6371 64.7305 37.6629 64.7889 37.6877C65.5907 38.0282 66.322 38.4776 66.9232 39.1204C67.4002 39.6303 67.8421 40.3842 68.0201 41.1597C68.1681 41.8049 68.1333 42.4636 67.7987 43.0154Z" fill="#1A1A1A"/>
<path fill-rule="evenodd" clip-rule="evenodd" d="M49.8947 60.399C50.8711 58.0977 53.0021 56.4063 55.4557 55.788C57.2575 55.335 59.1484 55.3495 60.985 55.5292C61.9474 55.6228 62.9795 55.6994 63.8864 56.0589C64.6608 56.3661 65.2919 56.9467 65.7665 57.6282C66.3313 58.4358 66.7155 59.3601 66.9853 60.3075C67.0236 60.4422 67.0596 60.5779 67.0932 60.7143C66.9759 61.4291 66.7268 62.0375 66.0688 62.4869C65.4266 62.9257 64.6603 63.1052 63.8965 63.169C63.8216 63.1328 63.7492 63.0956 63.6829 63.0575C62.4926 62.372 61.6548 60.7519 60.1525 60.9712C58.8117 61.167 57.9292 62.8641 57.1319 63.8594C54.5725 64.1594 52.0151 63.3857 49.9328 61.9133C49.827 61.4094 49.8209 60.9012 49.8947 60.399M68.8327 58.6532C68.628 58.0752 68.3701 57.5154 68.0644 56.988C67.0539 55.2439 65.5027 53.8543 63.6612 53.06C59.3049 51.1834 53.6684 52.5062 50.1504 55.5839C48.9487 56.636 47.7336 58.1821 47.3661 59.8451C47.2564 59.867 47.1528 59.9244 47.0675 60.0053C44.5258 58.3953 41.9083 56.8464 39.8601 54.6146C38.3727 52.9932 37.3381 51.0742 36.7046 48.9655C36.6528 48.792 36.3746 48.8173 36.3831 49.0094C36.3855 49.0543 36.3879 49.0991 36.3903 49.1441C36.3638 49.0615 36.2385 49.104 36.2289 49.1842C35.8881 51.7458 35.4617 54.4616 35.8543 57.0366C36.0892 58.573 36.7829 59.6979 37.7103 60.9125C38.7039 62.2144 39.8288 63.4254 40.979 64.5867C41.7089 65.3238 42.4712 66.174 43.3649 66.7145C44.4043 67.3425 45.5834 67.82 46.6926 68.3045C47.8211 68.7988 48.9665 69.2555 50.1335 69.6515C52.4664 70.4458 54.8776 70.9948 57.3309 71.2353C59.2953 71.4272 61.5403 71.6362 63.4227 70.8928C64.8656 70.3231 66.0302 69.2933 66.954 68.0543C67.9596 66.7048 68.7547 65.1677 69.1941 63.5469C69.6508 61.8632 68.9289 58.9247 68.8327 58.6532" fill="#AF6E47"/>
<path fill-rule="evenodd" clip-rule="evenodd" d="M73.4559 44.7583C72.3061 52.5828 64.2798 53.4481 62.8537 45.6803C63.0826 45.5795 63.2472 45.381 63.2128 44.9956C63.2047 43.3028 63.7271 41.5137 65.2449 40.5723C66.8134 39.6009 68.6491 39.5045 70.4642 39.5291C73.928 39.4461 73.8552 42.3589 73.4559 44.7583M61.5972 41.3553C60.5101 41.3092 59.1348 41.3478 58.161 42.0142C57.8932 41.2888 57.1976 40.5144 56.4948 40.1003C59.1072 40.1772 61.7963 39.9185 64.4282 39.7177C63.7982 40.1498 63.2121 40.7989 62.8311 41.5493C62.4777 41.3597 61.9714 41.3774 61.5972 41.3553M56.8055 45.5878C53.7912 56.0266 46.2669 51.4767 45.4466 50.1389C43.967 47.9251 43.6886 42.5436 44.9775 41.1048C46.8224 39.8036 49.4342 40.1385 51.6137 40.1066C55.6177 40.1609 58.4614 41.366 56.8055 45.5878M77.0151 40.7866C76.1961 40.6789 75.3209 40.6572 74.5595 41.02C74.325 40.0174 73.589 39.1793 72.758 38.8104C72.6574 38.6835 72.6725 38.6153 72.3289 38.6344C70.219 37.9964 67.858 38.3339 65.8305 38.9882C62.6284 39.2595 59.2689 39.4734 56.0399 39.8472C53.015 38.4805 43.8865 38.2802 43.3193 41.6487C42.6057 41.5413 41.3904 40.9763 40.7908 41.7427C36.3924 40.9925 31.8477 42.0351 27.4303 42.4995C26.3183 42.7055 25.7456 44.9256 27.0078 44.8953C27.7174 44.7015 26.986 43.5128 27.9415 43.4234C32.2036 42.9551 36.3724 42.2907 40.6781 42.2129C40.5284 42.9609 43.526 43.0095 43.5702 42.5728C43.5766 42.576 43.5834 42.5782 43.5899 42.5811C42.8492 45.3584 43.5178 49.3553 44.8564 51.0774C46.7319 53.3325 51.4407 53.9794 53.5286 52.5286C56.222 51.1894 59.0238 44.4675 58.2368 42.2342C59.6652 41.7788 61.0773 41.9155 62.5597 42.1475C62.2203 43.112 61.6344 45.4862 62.4773 45.6921C62.3226 50.4057 66.5866 53.3469 70.5174 51.4133C73.9196 49.8065 75.1094 44.7206 74.6931 41.6335C75.1166 42.4569 78.6728 41.5605 77.0151 40.7866" fill="#1A1A1A"/>
</g>
<defs>
<clipPath id="clip0_1715_39229">
<rect width="100" height="100" fill="white"/>
</clipPath>
</defs>
</svg>
