<svg width="100" height="100" viewBox="0 0 100 100" fill="none" xmlns="http://www.w3.org/2000/svg">
<g clip-path="url(#clip0_1715_39230)">
<path fill-rule="evenodd" clip-rule="evenodd" d="M43.7026 63.0513L42.3563 66.3856L43.0981 76.9545L43.65 77.0407C49.4791 77.9459 53.4401 78.4032 55.5329 78.4125L55.5977 78.4127C57.7053 78.4127 60.2308 77.941 63.1741 76.9977L63.3082 76.9545L63.6479 69.0408H62.8467L61.3972 65.6362L61.3986 65.6351C61.4145 65.6624 61.4311 65.6888 61.4484 65.7145C62.0527 66.61 62.403 65.8868 63.8227 66.2035C65.5226 66.5827 66.2771 68.3039 67.7736 69.5902C68.4685 70.1875 69.9268 70.469 70.6247 70.8796L71.3578 71.3111C73.6548 72.6685 76.2949 74.3174 77.6812 76.4653C79.3062 78.9835 80.4263 81.3732 81.4606 84.1744C83.6902 90.2122 85.2377 96.3735 86.3435 102.71C87.4643 109.132 88.1378 115.633 88.6522 122.13C88.8905 125.14 89.0926 128.153 89.2603 131.169L89.3015 131.922C89.3897 133.563 89.3131 135.168 87.8242 136.179C86.7574 136.902 85.3417 137.013 84.0901 137.087L84.022 137.091C74.7688 137.635 65.5153 138.174 56.2619 138.715L42.382 139.528C40.0725 139.664 37.763 139.798 35.4535 139.932L29.8161 140.258C27.1591 140.41 24.4989 140.541 21.8384 140.525C18.4911 140.506 15.158 140.258 11.8416 139.811L11.549 139.771C9.46253 139.483 6.43722 138.752 6.06244 136.245C6.00863 135.885 6.32487 135.661 6.59039 135.712C6.50302 135.304 6.44877 134.895 6.39695 134.541C6.17456 133.024 6.03493 131.497 5.96594 129.966C5.82751 126.901 5.94415 123.822 6.24994 120.771C6.75582 115.724 7.46496 110.685 8.19771 105.663L8.36085 104.548C9.14023 99.2276 10.0682 93.9165 11.5202 88.7344C12.8615 83.9473 14.954 78.9673 17.8333 75.9402C20.7126 72.9132 24.8178 70.2833 29.036 68.6723C29.4013 68.5327 36.6592 66.9407 37.1482 67.1726L37.236 67.1036C38.6831 65.9591 40.7473 63.9486 42.8726 64.5818L42.8775 64.5738C42.9276 64.4814 43.124 63.8638 43.3952 63.0514L43.7026 63.0513Z" fill="#414243"/>
<path fill-rule="evenodd" clip-rule="evenodd" d="M45.2367 58.6134C46.9946 56.3806 48.8476 55.6708 51.5857 55.8371C53.4426 55.7707 55.2945 56.2535 56.8667 57.3202C58.3073 58.0744 59.5848 59.1125 60.4967 60.4489C61.2765 61.5914 60.684 64.4146 61.3963 65.6362C61.3894 65.7692 61.3858 65.8904 61.3858 65.9998C61.3858 67.0569 62.1201 68.2366 63.5887 69.5388L63.6471 69.5902V77.2718C61.1781 78.0324 58.1212 78.4127 54.4766 78.4127C50.8863 78.4127 47.152 77.8087 43.2736 76.6008L43.0972 76.5455L42.3555 68.197L43.0972 65.8868L43.0971 63.9518L43.3837 63.0863C43.8912 61.5646 44.6681 59.3356 45.2367 58.6134Z" fill="#EBB691"/>
<path fill-rule="evenodd" clip-rule="evenodd" d="M43.0977 76.5459C43.0977 76.5459 49.6167 78.4478 54.067 78.4478C58.5174 78.4478 63.3078 76.5459 63.3078 76.5459L62.5307 139.153L50.0225 139.306L43.0977 76.5459Z" fill="#B18C72"/>
<path fill-rule="evenodd" clip-rule="evenodd" d="M21.6384 103.882C21.5902 103.792 21.702 103.711 21.7762 103.776C23.4611 105.257 24.3433 107.636 24.5283 109.836C24.7242 112.167 24.4464 114.582 24.3402 116.913C24.222 119.509 24.1159 122.107 23.9716 124.702C23.8251 127.335 23.6673 129.967 23.5321 132.6L23.2279 138.525V138.525C23.1955 139.156 23.2656 139.932 23.0238 140.522C22.649 141.435 21.5357 141.294 21.3018 140.53L21.2944 140.505L21.2731 140.522C21.0667 139.834 21.2212 139.017 21.2561 138.305L21.5749 131.833V131.833C21.8001 127.258 22.001 122.682 22.2429 118.108L22.3251 116.584C22.4382 114.531 22.5249 112.484 22.5946 110.432L22.6172 109.748C22.6833 107.688 22.6308 105.743 21.6384 103.882ZM62.4846 65.9027C63.4233 65.8134 64.1321 66.1253 64.9843 66.4538C65.3556 66.5968 65.7072 66.762 66.0633 66.9331C66.5092 67.1473 66.796 67.5261 67.0706 67.9265L67.2174 68.1422C68.3608 69.8206 69.1299 71.7568 69.9978 73.5841C71.0129 75.7216 72.0383 77.8544 73.0318 80.002L73.5221 81.0601C73.7672 81.5892 74.0115 82.1186 74.2523 82.6496L74.6683 83.5739C75.0861 84.5112 75.4608 85.5029 74.8652 86.4699C74.3114 87.3692 73.3295 88.0651 72.5521 88.7603C71.9036 89.3403 71.2549 89.9203 70.606 90.5002C71.9473 91.8458 72.8477 93.5401 73.3769 95.3571C74.1289 95.0432 75.0467 94.983 75.8242 94.8472C76.9126 94.6572 77.046 96.3079 76.0188 96.2878C75.2602 96.2729 74.3702 96.3505 73.5921 96.1904C73.7273 96.7875 73.8254 97.3936 73.8878 98.0013C74.2148 101.187 73.5003 104.391 72.755 107.473L72.6937 107.726C71.8844 111.062 71.117 114.406 70.4305 117.77C69.7425 121.141 69.1235 124.526 68.5741 127.922C68.0149 131.379 67.6192 134.855 67.194 138.33C67.1296 138.856 66.7993 139.306 66.2192 139.306C65.7359 139.306 65.1835 138.855 65.2442 138.33C65.6831 134.545 66.3054 130.781 66.9237 127.022C67.9887 120.55 69.329 114.134 70.871 107.759L71.1403 106.649C71.8341 103.77 72.4635 100.804 72.1155 97.8344C71.832 95.4164 70.8229 92.8381 68.8284 91.3362L68.7677 91.2911C68.3018 90.9488 68.1225 90.2941 68.5814 89.8434C68.8734 89.5565 69.1657 89.2699 69.4582 88.9836L71.214 87.2663L71.568 86.9194C71.8631 86.6307 72.1597 86.3437 72.4651 86.0656C72.6499 85.8974 73.1511 85.5766 73.1878 85.2999C73.2116 85.1193 72.9982 84.8021 72.9117 84.6357L72.5154 83.8343V83.8343C72.2903 83.3774 72.0723 82.9171 71.8525 82.4575C71.3972 81.5055 70.9353 80.5563 70.4898 79.5995L67.8137 73.8546V73.8546C67.0587 72.2339 66.3862 70.5228 65.3992 69.0244L65.2046 68.7324C65.0421 68.4864 64.8986 68.2497 64.796 67.9489C64.6973 67.6595 64.5734 67.3418 64.3909 67.0948C63.9634 66.5153 63.1463 66.1866 62.4627 66.0652C62.3638 66.0476 62.3997 65.9109 62.4846 65.9027ZM41.9021 64.3938C41.9615 64.3938 41.9705 64.4788 41.9157 64.4953C41.0909 64.7438 40.3027 65.1448 39.6597 65.7235C39.352 66.0004 39.0423 66.3147 38.8524 66.6876C38.7797 66.8303 38.7394 66.981 38.71 67.1372L38.7005 67.1895C38.6515 67.4718 38.5814 67.6289 38.4382 67.855L38.4136 67.8933C37.5964 69.1577 37.0237 70.562 36.5 71.9681L35.3596 75.0341V75.0341L34.22 78.1004C33.8528 79.0884 33.4854 80.0765 33.1181 81.0645C32.9152 81.61 32.7066 82.1531 32.498 82.6964C32.4078 82.9318 32.3108 83.1654 32.2282 83.4036C32.2169 83.4361 32.1808 83.6322 32.1537 83.6799L32.163 83.6961V83.6961C32.3928 84.0834 33.0058 84.4071 33.3533 84.6886L34.5499 85.6577V85.6577C35.403 86.3488 36.278 87.0205 37.1054 87.7425C37.6252 88.1958 37.3018 89.0076 36.7222 89.1969C35.7508 89.5139 34.7991 89.8934 33.8422 90.2521C33.4557 90.397 33.0532 90.5231 32.6712 90.6828L32.4387 90.7835C32.3478 90.8244 32.3915 90.824 32.3952 90.9919C32.3988 91.1681 32.4486 91.3517 32.4772 91.5247C32.7995 93.4771 33.1412 95.4262 33.5018 97.3718C34.7773 104.252 36.3012 111.082 38.0392 117.86C38.9171 121.282 39.8585 124.688 40.7556 128.106C41.6505 131.514 42.828 134.874 43.9524 138.212C44.2696 139.153 42.7796 139.559 42.4702 138.621C41.1744 134.695 39.989 130.735 38.7649 126.786C36.5899 119.771 34.876 112.602 33.3602 105.417C32.6088 101.856 31.9217 98.2809 31.2993 94.6947C31.1815 94.0158 31.0659 93.3365 30.9527 92.6568L30.7878 91.657C30.6747 90.9444 30.6103 90.202 31.1632 89.6381C31.7031 89.0876 32.6299 88.8925 33.3403 88.6344L33.3919 88.6154C33.8439 88.4464 34.2992 88.2835 34.7528 88.1156C34.0846 87.5887 33.4248 87.05 32.7583 86.5234C32.2206 86.0985 31.6745 85.6823 31.1446 85.2477C30.7077 84.8892 30.3514 84.4289 30.3058 83.846C30.2593 83.2502 30.5142 82.6973 30.7197 82.1509L30.7395 82.098C30.9413 81.5524 31.1436 81.0072 31.3511 80.4637L32.6353 77.0992V77.0992C33.4513 74.9613 34.2329 72.8061 35.0911 70.6848C35.4307 69.8453 35.8007 69.0191 36.238 68.2256C36.4489 67.8429 36.675 67.4684 36.9207 67.1073C37.196 66.7022 37.4459 66.5048 37.8725 66.2813C38.5546 65.9241 39.0899 65.325 39.7749 64.9567C40.4472 64.5951 41.1389 64.4022 41.9021 64.3938ZM44.1165 60.5796C44.1426 60.5347 44.2117 60.5547 44.2125 60.6057C44.2304 61.6682 43.9784 62.754 43.8233 63.8046C43.6676 64.859 43.6177 65.9718 43.3924 67.0149C43.3878 67.0635 43.3784 67.1114 43.3651 67.1584L43.3544 67.1942V67.1942C43.2593 67.4864 43.0121 67.7342 42.7087 67.8115C42.8041 68.3411 42.894 68.8716 42.9696 69.405C43.0994 70.3217 43.2179 71.2398 43.3345 72.1582L43.474 73.2603C43.6057 74.299 43.7338 75.3382 43.8604 76.3774C44.1825 76.5123 44.5112 76.6237 44.8478 76.7202C45.623 76.9424 46.417 77.0328 47.2169 77.1114C48.8461 77.2715 50.4876 77.3456 52.1225 77.4366L52.4728 77.4563C54.3108 77.5618 56.1588 77.5806 57.9922 77.3916C58.9014 77.2979 59.8033 77.1407 60.6899 76.9179C61.1404 76.8047 61.5782 76.6356 62.0278 76.5249C62.1769 76.4882 62.3101 76.4035 62.4596 76.3131C62.5259 76.2291 62.619 76.1655 62.7403 76.1409L62.7731 76.1352V76.1352L62.8056 76.1305L62.8169 76.1254L62.816 76.1289C62.908 76.1165 62.9953 76.1166 63.0777 76.1278C63.1105 75.3176 63.1461 74.5073 63.1906 73.6972C63.3102 71.5215 63.6405 69.2519 63.1997 67.0951C63.1849 67.0226 63.2834 66.997 63.309 67.0649C64.174 69.3481 64.0769 71.8447 64.1204 74.2478C64.163 76.5978 64.1373 78.9495 64.1256 81.3C64.2936 81.3717 64.4435 81.4688 64.5622 81.6051C64.7994 81.8774 64.8676 82.3507 64.5622 82.6135C64.4269 82.7301 64.2771 82.811 64.1182 82.8671C64.1098 84.9091 64.0954 86.9513 64.0749 88.9934C64.4625 89.2934 64.4987 90.0057 64.0602 90.3017C63.9873 96.9148 63.8674 103.528 63.7679 110.14L63.5595 124.013V124.013C63.5318 125.861 63.4858 127.709 63.4692 129.558L63.4823 129.563V129.563L63.5285 129.584C63.6061 129.621 63.7217 129.68 63.7457 129.74C63.7519 129.756 63.7536 129.767 63.7528 129.775C63.88 129.793 64.006 129.853 64.115 129.957C64.3842 130.213 64.3295 130.599 64.115 130.86L64.0577 130.93V130.93C63.924 131.092 63.6702 131.155 63.4629 131.122C63.465 132.275 63.4723 133.429 63.4687 134.583C63.4675 134.935 63.4622 135.287 63.4561 135.639L63.4416 136.484C63.432 136.966 63.3894 137.579 62.8965 137.796C62.3405 138.04 61.8419 137.84 61.6168 137.274C61.5558 137.121 61.5689 136.978 61.5912 136.826C61.5842 136.599 61.5487 136.335 61.5531 136.124L61.5715 135.243V135.243C61.5743 135.107 61.5798 134.972 61.5837 134.836L61.5676 134.837V134.837C59.592 134.933 57.6025 134.887 55.6237 134.885L54.7436 134.887C54.0093 134.887 53.2734 134.883 52.5401 134.855L52.2652 134.844C51.7163 134.818 51.1389 134.81 50.5698 134.76C50.6423 135.346 50.7101 135.931 50.7705 136.518C50.8277 137.074 50.255 137.546 49.7441 137.546C49.1374 137.546 48.7903 137.068 48.7177 136.518C48.3748 133.921 48.2345 131.3 47.907 128.701C47.6135 126.374 47.3591 124.041 47.1006 121.709L47.0141 120.932C46.0678 112.446 45.149 103.957 44.2702 95.4635L43.861 91.4932C43.4477 87.4914 43.0321 83.4894 42.6815 79.4818C42.481 77.1906 42.2963 74.8989 42.1224 72.6054C41.9949 70.9205 41.9148 69.2449 41.8626 67.5633C41.657 67.3513 41.5539 67.0417 41.645 66.722C41.6982 66.5355 41.7602 66.35 41.8255 66.1648C41.8215 65.9828 41.8172 65.8009 41.8137 65.6186C41.8104 65.4462 41.9851 65.3575 42.1249 65.386C42.3791 64.7694 42.6591 64.1581 42.8927 63.5475C43.2707 62.5591 43.5824 61.4941 44.1165 60.5796ZM23.0013 71.2621C26.9536 68.7806 31.6583 66.9949 36.3703 67.1872C36.4775 67.1916 36.5076 67.3552 36.3964 67.38C33.883 67.9422 31.3419 68.627 28.9624 69.6237C26.576 70.6234 24.3068 71.9694 22.2858 73.587C18.5569 76.5715 15.6586 80.4534 13.7502 84.8292C12.6323 87.3925 11.8488 90.0987 11.1646 92.8059C10.4405 95.671 9.8438 98.5669 9.34765 101.48C8.36768 107.235 7.79715 113.053 7.49356 118.881C7.18469 124.81 7.312 130.743 7.09171 136.672C7.05364 137.699 5.58797 137.679 5.51348 136.672C5.01436 129.931 5.29088 123.082 5.75247 116.345C6.16753 110.289 6.89233 104.246 8.05947 98.2871L8.16114 97.7707C9.25223 92.2579 10.5683 86.6116 13.206 81.6191C15.458 77.3568 18.9347 73.8155 23.0013 71.2621ZM77.8856 97.6095C77.9062 97.5504 77.9841 97.5512 78.0049 97.6095C78.4555 98.8731 78.4717 100.299 78.5914 101.631L78.6009 101.733C78.7157 102.948 78.8022 104.164 78.8826 105.382L78.9125 105.838C79.2352 110.805 79.6386 115.766 80.2466 120.706C80.8523 125.628 81.6713 130.515 82.557 135.393C82.6557 135.936 82.4156 136.489 81.8471 136.645C81.346 136.783 80.7028 136.474 80.5968 135.934C80.0469 133.134 79.6023 130.331 79.2056 127.507C78.5073 122.534 77.9862 117.539 77.6512 112.528C77.483 110.012 77.3795 107.496 77.3383 104.974C77.3193 103.804 77.3497 102.631 77.4119 101.463L77.4268 101.193C77.4955 99.9982 77.4884 98.7489 77.8856 97.6095ZM35.178 129.242C35.2308 129.214 35.2962 129.273 35.2627 129.327C34.4974 130.573 33.4621 131.648 32.4615 132.707C31.4154 133.814 30.3951 134.954 29.3279 136.039C28.5568 136.823 27.3163 135.559 28.1301 134.839C29.2744 133.828 30.4704 132.867 31.635 131.879L32.1443 131.446C33.0992 130.638 34.0824 129.837 35.178 129.242ZM71.5272 128.618C71.4701 128.509 71.6006 128.421 71.6893 128.493C72.3066 128.996 72.8598 129.596 73.4559 130.127C74.0462 130.652 74.6586 131.143 75.2876 131.621C75.9193 132.101 76.5648 132.562 77.2277 132.998C77.7775 133.36 78.3442 133.65 78.92 133.951C79.1866 133.985 79.4335 134.116 79.6312 134.365C79.9437 134.758 79.9769 135.499 79.5435 135.84L79.4657 135.901V135.901C78.9598 136.3 78.3594 136.348 77.8615 135.901C77.3055 135.403 76.78 134.854 76.2461 134.327L76.0856 134.169C75.5119 133.611 74.9521 133.034 74.4244 132.431L73.9467 131.887C73.0604 130.874 72.1379 129.783 71.5272 128.618ZM68.6836 70.2418C68.581 70.1737 68.6442 69.9903 68.771 70.034L69.0035 70.1145C69.9749 70.4527 70.9747 70.8278 71.8566 71.3484C72.8043 71.9079 73.6794 72.5744 74.5155 73.2895C76.246 74.7695 77.7183 76.5894 78.9695 78.4864C81.4801 82.2929 83.0327 86.6523 84.2862 91.0142C85.6228 95.665 86.6518 100.416 87.492 105.18C88.3458 110.022 89.0045 114.908 89.4374 119.806C89.6506 122.219 89.7938 124.633 89.8657 127.054C89.9028 128.299 89.9016 129.544 89.8913 130.79C89.8886 131.11 89.8907 131.431 89.8944 131.751L89.9065 132.712C89.913 133.319 89.9857 133.958 89.8415 134.551C89.6096 135.507 88.0328 135.328 88.0846 134.352C88.037 134.027 88.0352 133.691 88.0475 133.355C88.04 133.311 88.0319 133.267 88.0229 133.222C87.997 133.093 88.019 132.974 88.0696 132.871C88.0778 132.709 88.0851 132.549 88.0878 132.391C88.0981 131.75 88.0975 131.111 88.0797 130.47C88.0424 129.117 87.9887 127.765 87.9345 126.414C87.8261 123.713 87.6754 121.011 87.4568 118.316C86.6965 108.938 85.091 99.5064 82.3941 90.4839C81.1416 86.2941 79.4148 82.1811 76.9385 78.5605C75.8392 76.9532 74.599 75.4686 73.2241 74.0907C71.8405 72.7042 70.3159 71.3249 68.6836 70.2418ZM50.0231 130.698L50.2099 132.052C50.3033 132.73 50.3959 133.407 50.4837 134.085C51.0802 134.003 51.6904 133.969 52.2652 133.918C53.2715 133.829 54.2847 133.785 55.294 133.744C57.381 133.658 59.4785 133.508 61.5676 133.518C61.5891 133.518 61.6093 133.52 61.6296 133.522L61.7332 130.849V130.849L60.2654 130.847V130.847C59.0217 130.845 57.7783 130.835 56.5347 130.824C55.4147 130.814 54.2942 130.813 53.1744 130.789L52.6945 130.778C51.8452 130.755 50.9075 130.802 50.0231 130.698ZM61.8564 126.82C61.7965 126.827 61.7355 126.833 61.6707 126.835C61.38 126.848 61.087 126.839 60.7961 126.842C60.1766 126.847 59.5572 126.851 58.9376 126.851C57.6986 126.851 56.4597 126.858 55.2209 126.873C53.9456 126.889 52.6712 126.911 51.3957 126.913C50.7778 126.915 50.1618 126.898 49.5441 126.881C49.644 127.76 49.7484 128.639 49.8637 129.516C50.823 129.386 51.8547 129.452 52.7923 129.443L52.914 129.441C54.1936 129.419 55.4743 129.435 56.7542 129.437C58.0709 129.438 59.3875 129.443 60.7043 129.453L61.786 129.462V129.462L61.7881 129.408V129.408C61.8198 128.546 61.8403 127.683 61.8564 126.82ZM49.0682 122.612C49.1881 123.65 49.3007 124.69 49.4154 125.73C49.4917 125.718 49.5689 125.708 49.6476 125.7C50.2665 125.635 50.884 125.579 51.505 125.541C52.743 125.464 53.9809 125.423 55.2209 125.39C56.496 125.356 57.7713 125.329 59.0468 125.311C59.6665 125.303 60.2857 125.303 60.9054 125.308C61.1961 125.31 61.4898 125.301 61.78 125.32C61.8145 125.322 61.8477 125.326 61.8804 125.33L61.9022 123.769C61.906 123.509 61.9099 123.249 61.9141 122.989C60.9563 123.048 59.9826 123.025 59.0255 123.026L58.805 123.026C57.6024 123.032 56.3994 123.015 55.197 122.99C53.9566 122.964 52.7187 122.924 51.4805 122.844C50.9788 122.812 50.4808 122.769 49.9819 122.714L49.7323 122.685C49.5152 122.66 49.2917 122.639 49.0682 122.612ZM62.0129 118.208C59.7063 118.391 57.4119 118.468 55.0991 118.49L54.752 118.493C52.7082 118.509 50.6476 118.593 48.599 118.539C48.7215 119.603 48.8436 120.667 48.9667 121.731C49.2601 121.717 49.5549 121.717 49.8416 121.707C50.4249 121.686 51.0062 121.68 51.5899 121.679C52.7922 121.676 53.9946 121.687 55.197 121.684C56.4362 121.682 57.6752 121.661 58.9142 121.637C59.9187 121.618 60.9339 121.543 61.9412 121.545L62.0129 118.208V118.208ZM62.1105 113.668C61.8432 113.757 61.5277 113.763 61.1817 113.779L60.2888 113.824C59.8749 113.844 59.461 113.863 59.0468 113.878C57.6669 113.929 56.2869 113.976 54.9067 114.02C53.4925 114.065 52.0714 114.091 50.6569 114.046C49.964 114.025 49.2769 113.988 48.5861 113.93C48.4153 113.916 48.2413 113.907 48.0668 113.894C48.2276 115.304 48.389 116.713 48.551 118.123C50.5898 117.872 52.6444 117.716 54.6807 117.457L56.522 117.221C58.3624 116.986 60.2013 116.755 62.0484 116.56L62.1105 113.668V113.668ZM62.2088 109.079C61.8166 109.176 61.3696 109.171 60.993 109.195L60.9233 109.2C60.2097 109.254 59.4942 109.281 58.779 109.299C57.3771 109.334 55.9744 109.351 54.5721 109.36L53.7289 109.365C52.6047 109.371 51.4813 109.374 50.3568 109.348C49.6355 109.331 48.9159 109.296 48.1952 109.26C47.9793 109.249 47.7585 109.242 47.5371 109.23C47.6878 110.565 47.84 111.899 47.9918 113.234C48.2286 113.196 48.4665 113.167 48.6933 113.129C49.2742 113.031 49.8539 112.952 50.439 112.882C51.7062 112.73 52.9799 112.62 54.253 112.528C55.56 112.433 56.8681 112.353 58.1753 112.261L59.1012 112.195C59.4097 112.174 59.7184 112.153 60.0271 112.134C60.5544 112.102 61.1673 112.138 61.6903 112.024C61.8319 111.964 61.9892 111.951 62.1466 111.985L62.2088 109.079V109.079ZM62.3275 103.707C62.1919 103.88 61.9892 103.971 61.7475 104.002C60.4888 104.165 59.1977 104.192 57.9284 104.269L57.7046 104.283C56.394 104.37 55.0826 104.437 53.771 104.507C52.4236 104.579 51.0764 104.637 49.7279 104.684C49.1555 104.704 48.5801 104.707 48.0068 104.699L47.7612 104.696C47.5257 104.692 47.2791 104.692 47.032 104.684C47.1687 105.932 47.3068 107.18 47.4469 108.427C47.6989 108.4 47.9508 108.379 48.1952 108.353C48.9154 108.277 49.6349 108.201 50.3568 108.144C51.7248 108.036 53.0937 107.971 54.4642 107.904C55.8664 107.834 57.2693 107.788 58.6717 107.722C59.3516 107.69 60.0313 107.651 60.7092 107.588C61.1844 107.544 61.7487 107.382 62.2445 107.442C62.2715 106.197 62.2997 104.952 62.3275 103.707ZM62.4381 98.8954C62.4167 98.9287 62.3916 98.9609 62.3611 98.9909C61.8069 99.5394 61.1239 99.4971 60.3896 99.5546L60.3446 99.5583C59.6248 99.6189 58.9048 99.6766 58.1843 99.7286C56.744 99.8328 55.3009 99.9057 53.8586 99.9706C52.3824 100.037 50.8968 100.083 49.4193 100.053C48.4731 100.033 47.4821 100.037 46.517 99.9443C46.6652 101.319 46.8143 102.693 46.9645 104.067C47.2359 104.016 47.509 103.977 47.7677 103.936C48.4196 103.833 49.0722 103.73 49.7279 103.654C51.0382 103.503 52.3489 103.362 53.6617 103.234C54.7844 103.125 55.9068 103.014 57.0303 102.915L57.7046 102.856C59.0452 102.743 60.4027 102.557 61.7475 102.529C61.9691 102.525 62.2198 102.646 62.3468 102.836C62.3765 101.523 62.4073 100.209 62.4381 98.8954ZM62.5312 94.9998C62.1889 95.0415 61.82 95.0178 61.5041 95.0282C60.7054 95.0543 59.9065 95.0785 59.1077 95.1021L54.3144 95.2439V95.2439C52.6825 95.2921 51.0448 95.3282 49.4123 95.3051C48.6941 95.295 47.9728 95.2938 47.2549 95.2547L47.0157 95.2401C46.7202 95.2204 46.3577 95.2177 46.0036 95.1816L46.4216 99.0607V99.0607C47.3821 98.9217 48.3718 98.8697 49.3241 98.7881L49.5276 98.7702C50.9321 98.642 52.3433 98.5572 53.7503 98.4617C55.1936 98.3638 56.6349 98.245 58.0762 98.1234C58.7966 98.0628 59.5169 98.0022 60.2367 97.9359L60.3257 97.9271C61.0057 97.856 61.6451 97.7046 62.2473 98.1063C62.3354 98.165 62.4044 98.2435 62.4516 98.3313C62.4779 97.2209 62.5037 96.1103 62.5312 94.9998ZM62.6429 90.4728C59.7238 90.5905 56.8042 90.6798 53.8829 90.719C52.2385 90.7411 50.5962 90.7255 48.9521 90.6912C48.2392 90.6762 47.5203 90.642 46.8079 90.5873L46.5411 90.5658C46.2024 90.5373 45.8466 90.5165 45.4922 90.4824C45.6387 91.8161 45.784 93.15 45.9281 94.4841C46.2766 94.4192 46.6409 94.3893 46.9463 94.3501L47.0157 94.3409C47.7746 94.2363 48.5407 94.1753 49.3033 94.1081C50.7884 93.977 52.2808 93.8926 53.7698 93.8208C55.2945 93.7473 56.82 93.685 58.345 93.6171L59.8701 93.5487C60.1243 93.5374 60.3785 93.5263 60.6327 93.5155C60.9959 93.5002 61.359 93.4855 61.7221 93.4704C61.9012 93.4631 62.0874 93.4387 62.2668 93.448L62.3178 93.4411C62.3414 93.4381 62.3621 93.4357 62.3812 93.4336C62.43 93.3964 62.4825 93.3656 62.5382 93.3422L62.5719 93.329L62.6429 90.4728ZM45.0136 86.1826C45.1492 87.3832 45.2832 88.5842 45.4154 89.7853C45.8318 89.7377 46.2531 89.7113 46.6507 89.6755C47.4523 89.6035 48.2577 89.5405 49.0617 89.5034L50.6686 89.4286C51.7398 89.379 52.8109 89.331 53.8829 89.2919C56.8166 89.1846 59.7503 89.0617 62.6823 88.9116C62.703 88.0971 62.7243 87.2825 62.7461 86.4679C62.6054 86.6189 62.402 86.7183 62.1349 86.7176C59.0567 86.7093 55.9762 86.7272 52.8984 86.6765C51.3578 86.651 49.8189 86.6137 48.2801 86.5345C47.5271 86.4958 46.77 86.4169 46.0227 86.3131C45.7041 86.2689 45.3554 86.2374 45.0136 86.1826ZM44.521 81.9043C44.6657 83.1341 44.8076 84.3644 44.9472 85.5949C45.3295 85.5266 45.7244 85.4902 46.081 85.4416C46.8473 85.3372 47.6183 85.254 48.3901 85.2104C49.8919 85.1253 51.3945 85.0824 52.8984 85.0504C55.976 84.9849 59.0566 84.9854 62.1349 84.961C62.424 84.9587 62.6387 85.0734 62.7797 85.2445C62.801 84.4764 62.8236 83.7084 62.8468 82.9402C62.5495 82.9088 62.2547 82.8642 61.9819 82.8452C61.1435 82.7865 60.3049 82.7329 59.4658 82.6848C57.715 82.5841 55.9624 82.4982 54.2103 82.4218C52.4578 82.3454 50.7047 82.2708 48.9516 82.2058L48.1849 82.1777C46.9658 82.1323 45.726 82.0749 44.521 81.9043ZM43.9697 77.2722C44.1203 78.5179 44.2687 79.7637 44.4167 81.0098L44.4617 81.3954V81.3954C45.9279 81.1099 47.4731 81.0262 48.9517 80.9632C50.7051 80.8885 52.4554 80.85 54.2103 80.8554C55.9635 80.8607 57.7141 80.9023 59.4658 80.9748C60.3412 81.011 61.2164 81.0529 62.0912 81.1005C62.3317 81.1135 62.6137 81.1065 62.904 81.1107C62.9103 80.9149 62.9157 80.7192 62.9224 80.5235C62.949 79.7304 62.9751 78.9373 63.0023 78.1444C62.4106 78.4488 61.6413 78.5716 61.0466 78.7014L60.9788 78.7164C59.997 78.9373 58.9945 79.0805 57.9923 79.1681C56.0242 79.34 54.0356 79.2758 52.0694 79.1092L51.725 79.0797C49.9983 78.9297 48.2083 78.7396 46.5345 78.3115C45.7372 78.1076 44.9129 77.8223 44.1985 77.4088C44.1242 77.3658 44.0475 77.3203 43.9697 77.2722ZM60.5946 62.4695C60.6117 62.4021 60.7124 62.3868 60.7455 62.4498C60.978 62.8923 61.0645 63.4234 61.2259 63.8976C61.3996 64.4073 61.5617 64.9208 61.7534 65.4244C62.1538 66.4765 62.6262 67.4876 63.1894 68.4622C63.7471 69.4273 62.1854 70.1162 61.775 69.0596C61.3512 67.9693 61.003 66.842 60.7922 65.6899C60.6894 65.1277 60.5977 64.5579 60.568 63.9867C60.5424 63.4962 60.4735 62.9481 60.5946 62.4695Z" fill="black"/>
<path fill-rule="evenodd" clip-rule="evenodd" d="M73.3578 39.6141C72.9417 32.7568 70.7254 24.9825 64.2027 21.6157C49.823 15.8217 30.9166 30.4128 29.9157 45.3187C29.5667 50.4211 32.3884 55.9966 37.5449 57.4152C38.6913 58.9401 40.4251 59.8714 42.1364 60.6797C62.5188 71.2968 75.685 62.6663 73.3578 39.6141V39.6141Z" fill="#EBB691"/>
<path fill-rule="evenodd" clip-rule="evenodd" d="M78.0003 35.3486C77.28 33.34 76.519 31.3468 75.7186 29.3691C74.939 27.4442 74.2348 25.4778 73.2667 23.6442C67.4844 12.6928 56.9697 12.6928 51.5344 14.1238C48.7158 12.9045 43.4364 13.2484 40.5014 14.3487C35.75 16.1298 29.958 23.1366 27.9777 26.2846C23.6055 33.2352 20.8769 42.4863 23.7812 50.5181C24.1607 51.5678 24.6449 52.54 25.1899 53.477C24.8466 53.9442 24.4514 54.3867 24.0136 54.8215C22.7127 56.1137 21.4117 57.3634 20.2879 58.8209C19.1711 60.2694 18.2452 61.8097 17.556 63.5079C16.2564 66.7107 16.1938 70.3372 17.912 73.3932C19.4068 76.0522 22.0549 78.0322 25.0384 78.2211C25.1916 78.2425 25.345 78.2621 25.499 78.2776C25.8943 78.9314 26.3764 79.5333 26.9265 80.058C28.6119 81.6676 32.6296 82.4933 34.9212 82.5462C35.0387 82.641 35.1573 82.7358 35.2759 82.8295C36.6781 83.9374 38.1494 85.0553 39.7592 85.8435C40.8495 86.3782 42.2791 86.8247 43.4167 86.4388C43.9328 86.785 44.7793 86.7122 45.291 86.4289C46.1321 85.9637 46.8162 85.1258 47.2323 84.2682C48.2414 82.1857 47.9988 79.907 47.7396 77.6823C47.4542 75.2251 47.1796 72.7667 46.9007 70.3094C46.6822 68.3879 46.4538 66.4344 45.8719 64.5835C45.571 63.6244 45.1768 62.7027 44.6674 61.8362C44.6805 61.7635 44.6783 61.6907 44.6575 61.6224C44.4906 61.0778 44.1458 60.7923 43.7373 60.4218C43.6846 60.3744 43.6319 60.3259 43.5803 60.2763C43.3761 60.0426 43.1576 59.8254 42.9237 59.6413C42.8336 59.5498 42.7447 59.4572 42.6558 59.3646C41.9168 58.5874 41.2184 57.7705 40.598 56.8952C39.9963 56.0464 39.4528 55.16 38.9356 54.2571C38.4097 53.3388 38.0616 52.3257 37.5367 51.414C37.4917 51.3358 37.3775 51.3203 37.3138 51.3854C37.1513 51.554 37.047 51.7414 37.0668 51.9388L36.9855 51.9509C36.9548 51.6532 36.6814 51.4107 36.3102 51.4758C35.7546 51.5728 35.2979 51.6092 34.8169 51.4239C34.9015 50.8606 34.9794 50.2962 35.0563 49.7306C35.1968 48.69 35.3275 47.646 35.4395 46.602C35.7107 46.667 35.9797 46.7607 36.2433 46.8798C36.6188 47.0485 36.9735 47.2756 37.2765 47.5545C37.5752 47.8301 37.7816 48.2016 38.1461 48.3934C38.5656 48.6128 39.0718 48.2501 38.9488 47.7739C38.6996 46.8114 37.2886 46.2602 36.4156 46.0783C36.1159 46.0155 35.8095 45.989 35.5032 45.9957C35.5724 45.3254 35.6339 44.6551 35.6844 43.9838C35.7085 43.6663 35.7305 43.3488 35.7513 43.0302C36.4299 42.824 37.1568 42.7623 37.8629 42.8593C38.0956 43.0456 38.3284 43.2297 38.5535 43.416C39.2683 44.0091 39.9799 44.6055 40.6826 45.2129C40.7463 45.267 40.8089 45.321 40.8726 45.3761C41.2898 45.7366 41.8103 45.3794 41.74 44.869C41.1668 40.6864 43.7187 37.3594 46.7064 34.7819C50.0137 31.9278 56.0265 31.5954 59.9596 26.6516C61.7711 27.0218 65.8154 28.1211 67.4844 30.7912C69.821 34.5328 69.5158 37.8852 69.6937 42.1295C69.8715 46.3771 70.3239 50.8077 69.3632 54.9958C68.477 58.8575 66.0779 62.157 62.3555 63.674C62.2633 63.7114 62.17 63.7478 62.0766 63.7831C60.1518 64.5118 58.0512 64.718 56.0265 64.3343C53.7854 63.9088 51.9144 62.8791 50.0499 61.6125C49.9423 61.5408 49.7853 61.6885 49.8665 61.7966C52.3239 65.0663 57.1509 66.1588 60.9797 65.2956C61.1587 65.2548 61.3366 65.2107 61.5133 65.1622C60.6569 67.6349 60.8293 70.3491 61.9449 72.7568C62.6158 74.2053 63.6391 75.4588 64.8854 76.4476C66.259 77.5368 67.9632 78.4165 68.9163 79.9456C69.7892 81.3468 69.5301 82.921 68.0356 83.7302C67.659 83.9352 67.5141 84.5978 67.8874 84.8888C68.0301 84.9991 68.1729 85.1115 68.3189 85.2217C69.1556 85.8556 71.4538 87.0462 71.826 87.0903C75.1311 87.4839 77.3535 85.0476 78.7777 82.1736C80.45 78.8002 80.0152 74.6893 78.1727 71.4768C76.6947 68.8994 73.7838 66.3594 74.9412 63.0974C75.354 61.9322 76.1984 60.9389 77.0186 60.0415C77.9541 59.0196 78.9599 58.0627 79.857 57.0044C80.7486 55.9538 81.5392 54.8106 81.9806 53.4921C82.6252 51.5651 82.3045 49.4815 81.8203 47.5578C80.7827 43.4281 79.4354 39.3536 78.0003 35.3486Z" fill="black"/>
<path fill-rule="evenodd" clip-rule="evenodd" d="M59.5576 56.9081C58.8179 56.6057 58.1579 56.1014 57.6754 55.4572C57.5076 55.2333 57.4641 54.9968 57.4993 54.7805C57.5389 54.5373 57.6825 54.3169 57.8784 54.169C58.0749 54.0207 58.3206 53.9476 58.5582 53.9848C58.7647 54.0172 58.9702 54.1305 59.1328 54.3654L59.1668 54.4124C59.4537 54.8012 59.8275 55.1202 60.2534 55.3258C60.664 55.524 61.1231 55.6165 61.5982 55.5627C62.5031 55.4603 63.1268 54.97 63.7898 54.3042C63.8719 54.2201 63.9542 54.1334 64.0368 54.0453C64.089 53.9655 64.1614 53.9141 64.2418 53.8872C64.331 53.8573 64.432 53.859 64.5245 53.8913C64.6137 53.9225 64.6935 53.9816 64.7469 54.0603C64.7978 54.1351 64.8266 54.2274 64.8172 54.3337C64.7566 55.0237 64.3965 55.6395 63.885 56.123C63.317 56.6601 62.564 57.0316 61.855 57.1619C61.074 57.3054 60.2782 57.2026 59.5576 56.9081V56.9081ZM62.2235 46.2632C63.0544 46.7692 64.3205 47.9492 63.4266 49.2036C62.3744 50.3097 60.8595 49.0415 60.113 48.4679C59.4208 48.0234 58.6431 49.1667 59.2853 49.6857C64.6796 53.687 66.8688 46.3955 62.6437 45.6683C62.1786 45.5881 62.0058 46.1067 62.2235 46.2632ZM52.5568 41.6087C52.6486 40.4671 54.3841 40.2078 54.5568 41.3376C54.7114 42.3496 54.5294 43.2792 54.0744 44.1904C53.6396 45.0608 52.5469 44.6547 52.4643 43.8621C52.3535 42.7996 52.4997 42.3189 52.5568 41.6087ZM65.768 41.1033C66.01 40.7858 66.3593 40.5691 66.7779 40.6915C68.0857 41.0744 67.7002 42.9345 67.2409 43.8399C66.9914 44.3316 66.1847 44.4563 65.8202 44.0234C65.226 43.3174 64.9414 41.9075 65.6968 41.2121C65.7173 41.1762 65.7401 41.1399 65.768 41.1033ZM54.056 36.6131L54.2625 36.5768C54.9016 36.4661 55.6962 36.3597 56.1483 36.8744C56.3881 37.1474 56.4706 37.6547 56.1483 37.916C55.5814 38.3757 54.9546 38.1976 54.2753 38.2365C53.7154 38.2687 53.1773 38.3615 52.6381 38.5159C51.455 38.8547 50.4909 39.4732 49.4805 40.1522C49.3479 40.2413 49.2125 40.0714 49.2758 39.9472C49.8591 38.8026 50.9895 37.8623 52.1218 37.2892C52.7261 36.9832 53.3874 36.7295 54.056 36.6131ZM64.5759 36.1003L64.734 36.1327C66.4546 36.4931 68.6902 37.2129 69.505 38.9061C69.536 39.1455 69.5032 39.1969 69.4765 39.2304L69.4677 39.2415C69.4457 39.2702 69.4281 39.3096 69.3245 39.3422C69.2958 39.3354 69.2668 39.3281 69.2374 39.3204C68.8639 39.2223 68.5684 39.0872 68.2824 38.9471L67.9722 38.794C67.6123 38.6172 67.2492 38.4468 66.8645 38.3211C66.0434 38.0527 65.1988 37.8637 64.3412 37.7628C64.1553 37.7409 63.9763 37.6781 63.8351 37.5704C63.701 37.4681 63.5986 37.3265 63.5519 37.1384C63.4914 36.8948 63.5088 36.7105 63.6392 36.4908C63.7373 36.3258 63.8776 36.2114 64.0387 36.1457C64.203 36.0788 64.39 36.063 64.5759 36.1003Z" fill="black"/>
</g>
<defs>
<clipPath id="clip0_1715_39230">
<rect width="100" height="100" fill="white"/>
</clipPath>
</defs>
</svg>
